<?xml version="1.0" encoding="UTF-8" standalone="no"?>
<svg
   xmlns:dc="http://purl.org/dc/elements/1.1/"
   xmlns:cc="http://creativecommons.org/ns#"
   xmlns:rdf="http://www.w3.org/1999/02/22-rdf-syntax-ns#"
   xmlns:svg="http://www.w3.org/2000/svg"
   xmlns="http://www.w3.org/2000/svg"
   xmlns:sodipodi="http://sodipodi.sourceforge.net/DTD/sodipodi-0.dtd"
   xmlns:inkscape="http://www.inkscape.org/namespaces/inkscape"
   viewBox="0 0 48 48"
   version="1.1"
   id="svg129"
   sodipodi:docname="drive-harddisk-deepin.svg"
   inkscape:version="0.92.2pre0 (973e216, 2017-07-25)">
  <metadata
     id="metadata133">
    <rdf:RDF>
      <cc:Work
         rdf:about="">
        <dc:format>image/svg+xml</dc:format>
        <dc:type
           rdf:resource="http://purl.org/dc/dcmitype/StillImage" />
        <dc:title />
      </cc:Work>
    </rdf:RDF>
  </metadata>
  <sodipodi:namedview
     pagecolor="#ffffff"
     bordercolor="#666666"
     borderopacity="1"
     objecttolerance="10"
     gridtolerance="10"
     guidetolerance="10"
     inkscape:pageopacity="0"
     inkscape:pageshadow="2"
     inkscape:window-width="1360"
     inkscape:window-height="740"
     id="namedview131"
     showgrid="false"
     inkscape:zoom="6.9532165"
     inkscape:cx="24.351034"
     inkscape:cy="23.4258"
     inkscape:window-x="0"
     inkscape:window-y="0"
     inkscape:window-maximized="1"
     inkscape:current-layer="svg129"
     showguides="false">
    <inkscape:grid
       type="xygrid"
       id="grid31" />
  </sodipodi:namedview>
  <defs
     id="defs17">
    <linearGradient
       id="linearGradient3764"
       x1="1"
       x2="47"
       gradientUnits="userSpaceOnUse"
       gradientTransform="rotate(-90,23.999998,24)">
      <stop
         stop-color="#5e6670"
         stop-opacity="1"
         id="stop2" />
      <stop
         offset="1"
         stop-color="#67707b"
         stop-opacity="1"
         id="stop4" />
    </linearGradient>
    <clipPath
       id="clipPath-561578208">
      <g
         transform="translate(0,-1004.3622)"
         id="g9">
        <path
           d="m -24 13 c 0 1.105 -0.672 2 -1.5 2 -0.828 0 -1.5 -0.895 -1.5 -2 0 -1.105 0.672 -2 1.5 -2 0.828 0 1.5 0.895 1.5 2 z"
           transform="matrix(15.333333,0,0,11.5,414.99999,878.8622)"
           fill="#1890d0"
           id="path7" />
      </g>
    </clipPath>
    <clipPath
       id="clipPath-572739784">
      <g
         transform="translate(0,-1004.3622)"
         id="g14">
        <path
           d="m -24 13 c 0 1.105 -0.672 2 -1.5 2 -0.828 0 -1.5 -0.895 -1.5 -2 0 -1.105 0.672 -2 1.5 -2 0.828 0 1.5 0.895 1.5 2 z"
           transform="matrix(15.333333,0,0,11.5,414.99999,878.8622)"
           fill="#1890d0"
           id="path12" />
      </g>
    </clipPath>
    <linearGradient
       x1="18.330301"
       y1="252.17261"
       x2="18.330301"
       y2="255.83865"
       id="linearGradient-3"
       gradientTransform="matrix(0.31423376,0,0,0.17763144,7.7990471,-7.9630189)"
       gradientUnits="userSpaceOnUse">
      <stop
         stop-color="#FFFFFF"
         offset="0%"
         id="stop18" />
      <stop
         stop-color="#FFFFFF"
         stop-opacity="0"
         offset="100%"
         id="stop20" />
    </linearGradient>
  </defs>
  <g
     id="g31" />
  <path
     id="path5143"
     style="opacity:0.05;fill:#999999;stroke-width:1.24676132;enable-background:new"
     d="m -48.508475,10.713074 c 6.702246,0 12.135594,5.734719 12.135594,12.808718 0,7.073997 -5.433348,12.808716 -12.135594,12.808716 H -60.644068 V 23.521792 c 0,-7.073999 5.433348,-12.808718 12.135593,-12.808718 z m 0,6.404359 c -3.351122,0 -6.067797,2.867359 -6.067797,6.404359 0,3.536998 2.716675,6.404357 6.067797,6.404357 3.351123,0 6.067796,-2.867359 6.067796,-6.404357 0,-3.537 -2.716673,-6.404359 -6.067796,-6.404359 z"
     inkscape:connector-curvature="0" />
  <g
     id="g25">
    <path
       style="opacity:0.05"
       inkscape:connector-curvature="0"
       d="m 36.31,5 c 5.859,4.062 9.688,10.831 9.688,18.5 0,12.426 -10.07,22.5 -22.5,22.5 -7.669,0 -14.438,-3.828 -18.5,-9.688 1.037,1.822 2.306,3.499 3.781,4.969 4.085,3.712 9.514,5.969 15.469,5.969 12.703,0 23,-10.298 23,-23 0,-5.954 -2.256,-11.384 -5.969,-15.469 C 39.81,7.306 38.132,6.037 36.31,5 Z m 4.969,3.781 c 3.854,4.113 6.219,9.637 6.219,15.719 0,12.703 -10.297,23 -23,23 -6.081,0 -11.606,-2.364 -15.719,-6.219 4.16,4.144 9.883,6.719 16.219,6.719 12.703,0 23,-10.298 23,-23 0,-6.335 -2.575,-12.06 -6.719,-16.219 z"
       id="path19" />
    <path
       style="opacity:0.1"
       inkscape:connector-curvature="0"
       d="m 41.28,8.781 c 3.712,4.085 5.969,9.514 5.969,15.469 0,12.703 -10.297,23 -23,23 -5.954,0 -11.384,-2.256 -15.469,-5.969 4.113,3.854 9.637,6.219 15.719,6.219 12.703,0 23,-10.298 23,-23 0,-6.081 -2.364,-11.606 -6.219,-15.719 z"
       id="path21" />
    <path
       style="opacity:0.2"
       inkscape:connector-curvature="0"
       d="M 31.25,2.375 C 39.865,5.529 46,13.792 46,23.505 c 0,12.426 -10.07,22.5 -22.5,22.5 -9.708,0 -17.971,-6.135 -21.12,-14.75 a 23,23 0 0 0 44.875,-7 23,23 0 0 0 -16,-21.875 z"
       id="path23" />
  </g>
  <g
     id="g29">
    <path
       inkscape:connector-curvature="0"
       style="fill:url(#linearGradient3764);fill-opacity:1"
       d="M 24,1 C 36.703,1 47,11.297 47,24 47,36.703 36.703,47 24,47 11.297,47 1,36.703 1,24 1,11.297 11.297,1 24,1 Z"
       id="path27" />
  </g>
  <path
     d="m 24.188668,33.220738 c -0.592537,0 -1.172495,-0.05724 -1.732888,-0.16613 2.35616,-0.658934 5.15533,-2.286718 6.485734,-4.900099 0,0 2.727897,-4.465939 -1.888002,-8.485131 0,0 1.186462,1.865104 1.222799,3.741374 0,0 0.282288,2.466817 -1.901973,4.008041 -3.221212,2.271351 -8.239587,1.248061 -10.374944,0.658931 -0.572972,-1.189425 -0.894393,-2.522647 -0.894393,-3.931247 0,-2.108021 0.719702,-4.047126 1.927129,-5.588354 0.595335,2.871657 1.825118,5.270054 2.652434,6.160724 1.102618,1.185246 2.726497,2.444466 4.811547,1.92514 2.083647,-0.520716 2.508489,-2.797663 2.508489,-2.797663 0.461172,-1.936306 -0.195641,-4.236984 -0.23058,-4.285842 -0.03493,-0.04889 -0.347977,-0.10193 -0.347977,-0.10193 0.327017,3.050342 -0.476541,4.400321 -0.476541,4.400321 -1.168305,2.391411 -2.884413,1.651515 -2.884413,1.651515 -1.907567,-0.971645 -1.81813,-3.709276 -1.81813,-3.709276 -0.05589,-1.835796 0.644243,-4.82611 1.994213,-6.680049 0.311641,-0.03209 0.62747,-0.04889 0.947498,-0.04889 1.215815,0 2.375725,0.238713 3.436416,0.672886 -1.126372,0.945117 -2.86205,2.713901 -2.86205,2.713901 -2.81175,2.603616 -2.266726,4.794 -2.266726,4.794 0.4472,2.300675 1.84189,0.751077 1.84189,0.751077 1.465965,-1.51331 1.356958,-4.527357 1.356958,-4.527357 -0.593933,0.09632 -0.969851,0.422993 -0.969851,0.422993 -0.0727,2.0103 -1.260534,3.256962 -1.260534,3.256962 -0.45978,0.508158 -0.786784,0.02373 -0.786784,0.02373 -0.241764,-0.362972 0.241759,-0.617048 0.241759,-0.617048 0.679179,-0.593319 0.881816,-1.60545 0.873429,-1.985169 -0.0094,-0.381119 0.192849,-0.484425 0.192849,-0.484425 0.958684,-0.738508 1.91596,-1.174073 1.91596,-1.174073 1.284291,-0.654747 3.57477,-0.763637 3.57477,-0.763637 0.542222,0.01818 1.062087,-0.0023 1.502298,-0.03626 1.42683,1.602656 2.29327,3.713472 2.29327,6.026707 0,5.011788 -4.06668,9.074262 -9.083656,9.074262 M 13.807332,24.146434 c 0,5.727531 4.647873,10.370586 10.381333,10.370586 5.733453,0 10.381326,-4.643055 10.381326,-10.370586 0,-5.727521 -4.647873,-10.370584 -10.381326,-10.370584 -5.73346,0 -10.381333,4.643063 -10.381333,10.370584 z"
     id="Page-1"
     inkscape:connector-curvature="0"
     style="fill:#ffffff;fill-rule:evenodd;stroke:none;stroke-width:1.29699457" />
</svg>
