<?xml version="1.0" encoding="UTF-8" standalone="no"?>
<svg
   xmlns:dc="http://purl.org/dc/elements/1.1/"
   xmlns:cc="http://creativecommons.org/ns#"
   xmlns:rdf="http://www.w3.org/1999/02/22-rdf-syntax-ns#"
   xmlns:svg="http://www.w3.org/2000/svg"
   xmlns="http://www.w3.org/2000/svg"
   xmlns:sodipodi="http://sodipodi.sourceforge.net/DTD/sodipodi-0.dtd"
   xmlns:inkscape="http://www.inkscape.org/namespaces/inkscape"
   viewBox="0 0 48 48"
   version="1.1"
   id="svg129"
   sodipodi:docname="drive-harddisk-ieee1394.svg"
   inkscape:version="0.92.2pre0 (973e216, 2017-07-25)">
  <metadata
     id="metadata133">
    <rdf:RDF>
      <cc:Work
         rdf:about="">
        <dc:format>image/svg+xml</dc:format>
        <dc:type
           rdf:resource="http://purl.org/dc/dcmitype/StillImage" />
        <dc:title />
      </cc:Work>
    </rdf:RDF>
  </metadata>
  <sodipodi:namedview
     pagecolor="#ffffff"
     bordercolor="#666666"
     borderopacity="1"
     objecttolerance="10"
     gridtolerance="10"
     guidetolerance="10"
     inkscape:pageopacity="0"
     inkscape:pageshadow="2"
     inkscape:window-width="1360"
     inkscape:window-height="740"
     id="namedview131"
     showgrid="false"
     inkscape:zoom="6.9532165"
     inkscape:cx="-7.7790931"
     inkscape:cy="16.425454"
     inkscape:window-x="0"
     inkscape:window-y="0"
     inkscape:window-maximized="1"
     inkscape:current-layer="svg129"
     showguides="false">
    <inkscape:grid
       type="xygrid"
       id="grid31" />
  </sodipodi:namedview>
  <defs
     id="defs17">
    <linearGradient
       id="linearGradient3764"
       x1="1"
       x2="47"
       gradientUnits="userSpaceOnUse"
       gradientTransform="matrix(0,-1,1,0,-1.5e-6,47.999998)">
      <stop
         stop-color="#5e6670"
         stop-opacity="1"
         id="stop2" />
      <stop
         offset="1"
         stop-color="#67707b"
         stop-opacity="1"
         id="stop4" />
    </linearGradient>
    <clipPath
       id="clipPath-561578208">
      <g
         transform="translate(0,-1004.3622)"
         id="g9">
        <path
           d="m -24 13 c 0 1.105 -0.672 2 -1.5 2 -0.828 0 -1.5 -0.895 -1.5 -2 0 -1.105 0.672 -2 1.5 -2 0.828 0 1.5 0.895 1.5 2 z"
           transform="matrix(15.333333,0,0,11.5,414.99999,878.8622)"
           fill="#1890d0"
           id="path7" />
      </g>
    </clipPath>
    <clipPath
       id="clipPath-572739784">
      <g
         transform="translate(0,-1004.3622)"
         id="g14">
        <path
           d="m -24 13 c 0 1.105 -0.672 2 -1.5 2 -0.828 0 -1.5 -0.895 -1.5 -2 0 -1.105 0.672 -2 1.5 -2 0.828 0 1.5 0.895 1.5 2 z"
           transform="matrix(15.333333,0,0,11.5,414.99999,878.8622)"
           fill="#1890d0"
           id="path12" />
      </g>
    </clipPath>
    <linearGradient
       x1="18.330301"
       y1="252.17261"
       x2="18.330301"
       y2="255.83865"
       id="linearGradient-3"
       gradientTransform="matrix(0.31423376,0,0,0.17763144,7.7990471,-7.9630189)"
       gradientUnits="userSpaceOnUse">
      <stop
         stop-color="#FFFFFF"
         offset="0%"
         id="stop18" />
      <stop
         stop-color="#FFFFFF"
         stop-opacity="0"
         offset="100%"
         id="stop20" />
    </linearGradient>
    <mask
       id="mask-3"
       fill="white">
      <polygon
         points="0,0.69506667 18.666667,0.69506667 18.666667,9.0142 18.666667,17.333333 0,17.333333 "
         id="use32" />
    </mask>
    <mask
       id="mask-5"
       fill="white">
      <polygon
         points="5.4697202,6.1716813 5.4697202,0.944 0.97247505,0.944 0.97247505,6.1716813 "
         id="use38" />
    </mask>
  </defs>
  <g
     id="g25">
    <path
       d="m 36.31 5 c 5.859 4.062 9.688 10.831 9.688 18.5 c 0 12.426 -10.07 22.5 -22.5 22.5 c -7.669 0 -14.438 -3.828 -18.5 -9.688 c 1.037 1.822 2.306 3.499 3.781 4.969 c 4.085 3.712 9.514 5.969 15.469 5.969 c 12.703 0 23 -10.298 23 -23 c 0 -5.954 -2.256 -11.384 -5.969 -15.469 c -1.469 -1.475 -3.147 -2.744 -4.969 -3.781 z m 4.969 3.781 c 3.854 4.113 6.219 9.637 6.219 15.719 c 0 12.703 -10.297 23 -23 23 c -6.081 0 -11.606 -2.364 -15.719 -6.219 c 4.16 4.144 9.883 6.719 16.219 6.719 c 12.703 0 23 -10.298 23 -23 c 0 -6.335 -2.575 -12.06 -6.719 -16.219 z"
       opacity="0.05"
       id="path19" />
    <path
       d="m 41.28 8.781 c 3.712 4.085 5.969 9.514 5.969 15.469 c 0 12.703 -10.297 23 -23 23 c -5.954 0 -11.384 -2.256 -15.469 -5.969 c 4.113 3.854 9.637 6.219 15.719 6.219 c 12.703 0 23 -10.298 23 -23 c 0 -6.081 -2.364 -11.606 -6.219 -15.719 z"
       opacity="0.1"
       id="path21" />
    <path
       d="m 31.25 2.375 c 8.615 3.154 14.75 11.417 14.75 21.13 c 0 12.426 -10.07 22.5 -22.5 22.5 c -9.708 0 -17.971 -6.135 -21.12 -14.75 a 23 23 0 0 0 44.875 -7 a 23 23 0 0 0 -16 -21.875 z"
       opacity="0.2"
       id="path23" />
  </g>
  <g
     id="g29">
    <path
       d="m 24 1 c 12.703 0 23 10.297 23 23 c 0 12.703 -10.297 23 -23 23 -12.703 0 -23 -10.297 -23 -23 0 -12.703 10.297 -23 23 -23 z"
       id="path27"
       fill-opacity="1"
       fill="url(#linearGradient3764)" />
  </g>
  <g
     id="g31" />
  <path
     id="path4568"
     d="m 30.286023,24.017942 c -0.02955,-2.574824 2.419387,-3.809692 2.528753,-3.87094 -1.375997,-1.747598 -3.519495,-1.986998 -4.283303,-2.014698 -1.82424,-0.160312 -3.559466,0.932136 -4.485202,0.932136 -0.923466,0 -2.35204,-0.908439 -3.865017,-0.884562 -1.988364,0.02566 -3.821681,1.003424 -4.845511,2.548902 -2.065812,3.111187 -0.52903,7.720279 1.484429,10.243513 0.983859,1.235123 2.157025,2.622348 3.69738,2.572791 1.483404,-0.05139 2.044291,-0.833059 3.837639,-0.833059 1.79335,0 2.297431,0.833059 3.867213,0.807492 1.596138,-0.02573 2.607523,-1.258745 3.584501,-2.497691 1.129814,-1.432845 1.594966,-2.820071 1.622491,-2.891357 -0.03547,-0.01405 -3.112629,-1.037172 -3.143373,-4.112628 z m -2.949531,-7.556104 c 0.81842,-0.860266 1.370376,-2.054726 1.219576,-3.246644 -1.177616,0.04161 -2.605032,0.680816 -3.449951,1.539709 -0.758114,0.76194 -1.421751,1.978103 -1.24391,3.145751 1.314655,0.08902 2.656569,-0.579834 3.474988,-1.438689 z"
     style="fill:#ffffff;fill-opacity:1;stroke-width:1.36396718"
     inkscape:connector-curvature="0" />
</svg>
