<?xml version="1.0" encoding="UTF-8" standalone="no"?>
<svg
   xmlns:dc="http://purl.org/dc/elements/1.1/"
   xmlns:cc="http://creativecommons.org/ns#"
   xmlns:rdf="http://www.w3.org/1999/02/22-rdf-syntax-ns#"
   xmlns:svg="http://www.w3.org/2000/svg"
   xmlns="http://www.w3.org/2000/svg"
   xmlns:xlink="http://www.w3.org/1999/xlink"
   xmlns:sodipodi="http://sodipodi.sourceforge.net/DTD/sodipodi-0.dtd"
   xmlns:inkscape="http://www.inkscape.org/namespaces/inkscape"
   viewBox="0 0 48 48"
   id="svg2"
   version="1.1"
   inkscape:version="0.48.4 r9939"
   width="100%"
   height="100%"
   sodipodi:docname="4kyoutubetomp3.svg">
  <metadata
     id="metadata59">
    <rdf:RDF>
      <cc:Work
         rdf:about="">
        <dc:format>image/svg+xml</dc:format>
        <dc:type
           rdf:resource="http://purl.org/dc/dcmitype/StillImage" />
      </cc:Work>
    </rdf:RDF>
  </metadata>
  <sodipodi:namedview
     pagecolor="#ffffff"
     bordercolor="#666666"
     borderopacity="1"
     objecttolerance="10"
     gridtolerance="10"
     guidetolerance="10"
     inkscape:pageopacity="0"
     inkscape:pageshadow="2"
     inkscape:window-width="1360"
     inkscape:window-height="715"
     id="namedview57"
     showgrid="false"
     inkscape:zoom="4.9166667"
     inkscape:cx="29.031595"
     inkscape:cy="24"
     inkscape:window-x="0"
     inkscape:window-y="30"
     inkscape:window-maximized="1"
     inkscape:current-layer="svg2" />
  <defs
     id="defs4">
    <linearGradient
       id="linearGradient3764"
       x1="1"
       x2="47"
       gradientUnits="userSpaceOnUse"
       gradientTransform="matrix(0,-1,1,0,-1.5e-6,47.999998)">
      <stop
         style="stop-color:#4671ef;stop-opacity:1;"
         id="stop7"
         offset="0" />
      <stop
         offset="1"
         style="stop-color:#a4bffb;stop-opacity:1;"
         id="stop9" />
    </linearGradient>
    <clipPath
       id="clipPath-749639687">
      <g
         transform="translate(0,-1004.3622)"
         id="g12">
        <path
           d="m -24 13 c 0 1.105 -0.672 2 -1.5 2 -0.828 0 -1.5 -0.895 -1.5 -2 0 -1.105 0.672 -2 1.5 -2 0.828 0 1.5 0.895 1.5 2 z"
           transform="matrix(15.333333,0,0,11.5,414.99999,878.8622)"
           style="fill:#1890d0"
           id="path14" />
      </g>
    </clipPath>
    <clipPath
       id="clipPath-761924835">
      <g
         transform="translate(0,-1004.3622)"
         id="g17">
        <path
           d="m -24 13 c 0 1.105 -0.672 2 -1.5 2 -0.828 0 -1.5 -0.895 -1.5 -2 0 -1.105 0.672 -2 1.5 -2 0.828 0 1.5 0.895 1.5 2 z"
           transform="matrix(15.333333,0,0,11.5,414.99999,878.8622)"
           style="fill:#1890d0"
           id="path19" />
      </g>
    </clipPath>
    <linearGradient
       inkscape:collect="always"
       xlink:href="#linearGradient3764"
       id="linearGradient3828"
       gradientUnits="userSpaceOnUse"
       gradientTransform="matrix(0,-1,1,0,-1.5e-6,47.999998)"
       x1="1"
       x2="47" />
  </defs>
  <g
     id="g21">
    <path
       d="m 36.31 5 c 5.859 4.062 9.688 10.831 9.688 18.5 c 0 12.426 -10.07 22.5 -22.5 22.5 c -7.669 0 -14.438 -3.828 -18.5 -9.688 c 1.037 1.822 2.306 3.499 3.781 4.969 c 4.085 3.712 9.514 5.969 15.469 5.969 c 12.703 0 23 -10.298 23 -23 c 0 -5.954 -2.256 -11.384 -5.969 -15.469 c -1.469 -1.475 -3.147 -2.744 -4.969 -3.781 z m 4.969 3.781 c 3.854 4.113 6.219 9.637 6.219 15.719 c 0 12.703 -10.297 23 -23 23 c -6.081 0 -11.606 -2.364 -15.719 -6.219 c 4.16 4.144 9.883 6.719 16.219 6.719 c 12.703 0 23 -10.298 23 -23 c 0 -6.335 -2.575 -12.06 -6.719 -16.219 z"
       style="opacity:0.05"
       id="path23" />
    <path
       d="m 41.28 8.781 c 3.712 4.085 5.969 9.514 5.969 15.469 c 0 12.703 -10.297 23 -23 23 c -5.954 0 -11.384 -2.256 -15.469 -5.969 c 4.113 3.854 9.637 6.219 15.719 6.219 c 12.703 0 23 -10.298 23 -23 c 0 -6.081 -2.364 -11.606 -6.219 -15.719 z"
       style="opacity:0.1"
       id="path25" />
    <path
       d="m 31.25 2.375 c 8.615 3.154 14.75 11.417 14.75 21.13 c 0 12.426 -10.07 22.5 -22.5 22.5 c -9.708 0 -17.971 -6.135 -21.12 -14.75 a 23 23 0 0 0 44.875 -7 a 23 23 0 0 0 -16 -21.875 z"
       style="opacity:0.2"
       id="path27" />
  </g>
  <path
     inkscape:connector-curvature="0"
     id="path31"
     style="fill:url(#linearGradient3828);fill-opacity:1"
     d="M 24,1 C 36.703,1 47,11.297 47,24 47,36.703 36.703,47 24,47 11.297,47 1,36.703 1,24 1,11.297 11.297,1 24,1 z" />
  <path
     inkscape:connector-curvature="0"
     id="path55"
     style="opacity:0.1"
     d="m 40.03,7.531 c 3.712,4.084 5.969,9.514 5.969,15.469 0,12.703 -10.297,23 -23,23 C 17.045,46 11.615,43.744 7.53,40.031 11.708,44.322 17.54,47 23.999,47 c 12.703,0 23,-10.298 23,-23 0,-6.462 -2.677,-12.291 -6.969,-16.469 z" />
  <path
     inkscape:connector-curvature="0"
     id="path4386"
     d="m 22.034475,12.844716 a 9.8531995,9.062471 30.934223 0 0 -8.9258,5.924273 7.8825597,7.2499767 30.934218 0 0 -4.1601003,6.497879 7.8825597,7.2499767 30.934218 0 0 7.9558173,7.732823 7.8825597,7.2499767 30.934218 0 0 5.066926,-1.676472 9.8531995,9.062471 30.934223 0 0 0.660856,0.0605 9.8531995,9.062471 30.934223 0 0 4.047978,-0.713029 7.8825597,7.2499767 30.934218 0 0 3.668759,1.030255 7.8825597,7.2499767 30.934218 0 0 7.477656,-7.098372 7.8825597,7.2499767 30.934218 0 0 -7.955815,-7.732823 7.8825597,7.2499767 30.934218 0 0 -0.01544,-6.8e-4 9.8531995,9.062471 30.934223 0 0 -7.820842,-4.024391 z"
     style="opacity:0.2;fill:#ffffff;fill-opacity:1;enable-background:new" />
  <path
     id="path4148"
     style="fill:#ffffff;fill-opacity:1;enable-background:new"
     d="m 24.350661,13.6019 a 9.8874439,9.0310835 32.386682 0 0 -9.488666,5.036604 7.9099553,7.2248669 32.386673 0 0 -4.763262,6.04341 7.9099553,7.2248669 32.386673 0 0 7.270571,8.382115 7.9099553,7.2248669 32.386673 0 0 5.232614,-1.19096 9.8874439,9.0310835 32.386682 0 0 0.657004,0.120785 9.8874439,9.0310835 32.386682 0 0 4.123221,-0.331979 7.9099553,7.2248669 32.386673 0 0 3.584045,1.357322 7.9099553,7.2248669 32.386673 0 0 8.143959,-6.331436 7.9099553,7.2248669 32.386673 0 0 -7.270571,-8.382115 7.9099553,7.2248669 32.386673 0 0 -0.01541,-0.002 9.8874439,9.0310835 32.386682 0 0 -7.473502,-4.701678 z"
     inkscape:connector-curvature="0" />
  <path
     id="path4129"
     style="opacity:0.2;fill:#658bf3;fill-opacity:1;enable-background:new"
     d="m 21.300346,19.883013 c -0.550773,0 -1.001677,0.431402 -1.001677,0.958355 v 4.879984 c -0.235864,-0.08094 -0.48032,-0.133699 -0.745295,-0.133699 -1.234807,0 -2.235887,0.957785 -2.235887,2.139186 0,1.181402 1.00108,2.139187 2.235887,2.139187 1.234805,0 2.235886,-0.957785 2.235886,-2.139187 v -4.991435 h 4.471773 v 2.985948 c -0.235863,-0.08094 -0.480321,-0.133699 -0.745296,-0.133699 -1.234805,0 -2.235886,0.957785 -2.235886,2.139186 0,1.181402 1.001081,2.139187 2.235886,2.139187 1.234807,0 2.235888,-0.957785 2.235888,-2.139187 v -7.130621 h -0.04658 c -0.110905,-0.409356 -0.491416,-0.713063 -0.95487,-0.713063 h -5.449974 z"
     inkscape:connector-curvature="0" />
  <path
     id="path8672"
     style="fill:#658bf3;fill-opacity:1;enable-background:new"
     d="m 21.300346,19.169951 c -0.550773,0 -1.001677,0.431402 -1.001677,0.958355 v 4.879983 c -0.235864,-0.08094 -0.48032,-0.133698 -0.745295,-0.133698 -1.234807,0 -2.235887,0.957785 -2.235887,2.139186 0,1.181402 1.00108,2.139188 2.235887,2.139188 1.234805,0 2.235886,-0.957786 2.235886,-2.139188 v -4.991435 h 4.471773 v 2.985947 c -0.235863,-0.08094 -0.480321,-0.133698 -0.745296,-0.133698 -1.234805,0 -2.235886,0.957785 -2.235886,2.139186 0,1.181402 1.001081,2.139188 2.235886,2.139188 1.234807,0 2.235888,-0.957786 2.235888,-2.139188 v -7.130622 h -0.04658 c -0.110905,-0.409354 -0.491416,-0.713062 -0.95487,-0.713062 h -5.449974 z"
     inkscape:connector-curvature="0" />
</svg>
