<?xml version="1.0" encoding="UTF-8" standalone="no"?>
<svg
   xmlns:dc="http://purl.org/dc/elements/1.1/"
   xmlns:cc="http://creativecommons.org/ns#"
   xmlns:rdf="http://www.w3.org/1999/02/22-rdf-syntax-ns#"
   xmlns:svg="http://www.w3.org/2000/svg"
   xmlns="http://www.w3.org/2000/svg"
   xmlns:sodipodi="http://sodipodi.sourceforge.net/DTD/sodipodi-0.dtd"
   xmlns:inkscape="http://www.inkscape.org/namespaces/inkscape"
   viewBox="0 0 48 48"
   version="1.1"
   id="svg57"
   sodipodi:docname="device-notifier.svg"
   inkscape:version="0.92.2pre0 (973e216, 2017-07-25)">
  <metadata
     id="metadata61">
    <rdf:RDF>
      <cc:Work
         rdf:about="">
        <dc:format>image/svg+xml</dc:format>
        <dc:type
           rdf:resource="http://purl.org/dc/dcmitype/StillImage" />
      </cc:Work>
    </rdf:RDF>
  </metadata>
  <sodipodi:namedview
     pagecolor="#ffffff"
     bordercolor="#666666"
     borderopacity="1"
     objecttolerance="10"
     gridtolerance="10"
     guidetolerance="10"
     inkscape:pageopacity="0"
     inkscape:pageshadow="2"
     inkscape:window-width="1360"
     inkscape:window-height="658"
     id="namedview59"
     showgrid="false"
     inkscape:zoom="4.9166667"
     inkscape:cx="24"
     inkscape:cy="24"
     inkscape:window-x="0"
     inkscape:window-y="28"
     inkscape:window-maximized="1"
     inkscape:current-layer="svg57" />
  <defs
     id="defs17">
    <linearGradient
       id="linearGradient3764"
       x1="1"
       x2="47"
       gradientUnits="userSpaceOnUse"
       gradientTransform="rotate(-90,23.999998,24)">
      <stop
         stop-color="#e6992a"
         stop-opacity="1"
         id="stop2" />
      <stop
         offset="1"
         stop-color="#e8a23b"
         stop-opacity="1"
         id="stop4" />
    </linearGradient>
    <clipPath
       id="clipPath-585400046">
      <g
         transform="translate(0,-1004.3622)"
         id="g9">
        <path
           d="m -24 13 c 0 1.105 -0.672 2 -1.5 2 -0.828 0 -1.5 -0.895 -1.5 -2 0 -1.105 0.672 -2 1.5 -2 0.828 0 1.5 0.895 1.5 2 z"
           transform="matrix(15.333333,0,0,11.5,414.99999,878.8622)"
           fill="#1890d0"
           id="path7" />
      </g>
    </clipPath>
    <clipPath
       id="clipPath-592456933">
      <g
         transform="translate(0,-1004.3622)"
         id="g14">
        <path
           d="m -24 13 c 0 1.105 -0.672 2 -1.5 2 -0.828 0 -1.5 -0.895 -1.5 -2 0 -1.105 0.672 -2 1.5 -2 0.828 0 1.5 0.895 1.5 2 z"
           transform="matrix(15.333333,0,0,11.5,414.99999,878.8622)"
           fill="#1890d0"
           id="path12" />
      </g>
    </clipPath>
  </defs>
  <g
     id="g25">
    <path
       d="m 36.31 5 c 5.859 4.062 9.688 10.831 9.688 18.5 c 0 12.426 -10.07 22.5 -22.5 22.5 c -7.669 0 -14.438 -3.828 -18.5 -9.688 c 1.037 1.822 2.306 3.499 3.781 4.969 c 4.085 3.712 9.514 5.969 15.469 5.969 c 12.703 0 23 -10.298 23 -23 c 0 -5.954 -2.256 -11.384 -5.969 -15.469 c -1.469 -1.475 -3.147 -2.744 -4.969 -3.781 z m 4.969 3.781 c 3.854 4.113 6.219 9.637 6.219 15.719 c 0 12.703 -10.297 23 -23 23 c -6.081 0 -11.606 -2.364 -15.719 -6.219 c 4.16 4.144 9.883 6.719 16.219 6.719 c 12.703 0 23 -10.298 23 -23 c 0 -6.335 -2.575 -12.06 -6.719 -16.219 z"
       opacity="0.05"
       id="path19" />
    <path
       d="m 41.28 8.781 c 3.712 4.085 5.969 9.514 5.969 15.469 c 0 12.703 -10.297 23 -23 23 c -5.954 0 -11.384 -2.256 -15.469 -5.969 c 4.113 3.854 9.637 6.219 15.719 6.219 c 12.703 0 23 -10.298 23 -23 c 0 -6.081 -2.364 -11.606 -6.219 -15.719 z"
       opacity="0.1"
       id="path21" />
    <path
       d="m 31.25 2.375 c 8.615 3.154 14.75 11.417 14.75 21.13 c 0 12.426 -10.07 22.5 -22.5 22.5 c -9.708 0 -17.971 -6.135 -21.12 -14.75 a 23 23 0 0 0 44.875 -7 a 23 23 0 0 0 -16 -21.875 z"
       opacity="0.2"
       id="path23" />
  </g>
  <path
     inkscape:connector-curvature="0"
     style="fill:#e6c92a;fill-opacity:1"
     id="path27"
     d="M 24,1 C 36.703,1 47,11.297 47,24 47,36.703 36.703,47 24,47 11.297,47 1,36.703 1,24 1,11.297 11.297,1 24,1 Z" />
  <g
     id="g31" />
  <g
     id="g887"
     transform="matrix(1.0328048,0,0,1.100688,-1.5787824,-1.9660552)"
     style="stroke-width:0.93790478">
    <path
       style="fill:#ffffff;stroke-width:0.93790478"
       inkscape:connector-curvature="0"
       d="M 11.1,22.5 H 9.2 c 0,-1.4 0.4,-2.4 1.3,-3 0.5,-0.4 1.2,-0.5 2,-0.5 1,0 1.8,0.3 2.4,0.8 0.6,0.5 1,1.3 1,2.3 0,0.8 -0.2,1.4 -0.7,2 -0.3,0.4 -0.8,0.8 -1.4,1.2 -0.4,0.3 -0.8,0.6 -1.2,0.9 -0.3,0.2 -0.7,0.5 -0.8,0.8 H 16 v 2 H 9 c 0,-0.7 0.1,-1.4 0.3,-1.8 0.3,-0.7 1,-1.4 2,-2.1 0.8,-0.6 1.3,-1 1.6,-1.2 0.6,-0.6 0.9,-1.1 0.9,-1.7 0,-0.4 -0.1,-0.7 -0.3,-1 -0.3,-0.3 -0.6,-0.5 -1,-0.5 -0.6,0 -1,0.2 -1.2,0.7 -0.2,0.2 -0.2,0.6 -0.2,1.1 z"
       id="path879" />
    <path
       style="fill:#ffffff;stroke-width:0.93790478"
       inkscape:connector-curvature="0"
       d="m 17,24 c 0,-1.7 0.3,-2.9 0.9,-3.8 0.6,-0.9 1.4,-1.2 2.6,-1.2 1.2,0 2.1,0.4 2.6,1.2 0.6,0.8 0.9,2.1 0.9,3.8 0,1.7 -0.3,3 -0.9,3.8 C 22.5,28.6 21.7,29 20.5,29 19.3,29 18.4,28.6 17.9,27.8 17.3,26.9 17,25.7 17,24 Z m 2,0 c 0,1.3 0.1,2.2 0.3,2.7 0.2,0.5 0.6,0.8 1.1,0.8 0.6,0 0.9,-0.3 1.1,-0.8 0.2,-0.5 0.3,-1.4 0.3,-2.7 0,-1.3 -0.1,-2.2 -0.3,-2.7 -0.2,-0.5 -0.6,-0.8 -1.1,-0.8 -0.6,0 -0.9,0.3 -1.1,0.8 C 19.1,21.8 19,22.7 19,24 Z"
       id="path881" />
    <path
       style="fill:#ffffff;stroke-width:0.93790478"
       inkscape:connector-curvature="0"
       d="m 40,25.8 c 0,0.8 -0.2,1.5 -0.7,2 -0.6,0.8 -1.5,1.1 -2.7,1.1 -1.2,0 -2.1,-0.3 -2.7,-1 -0.5,-0.6 -0.8,-1.2 -0.8,-2 0,-0.5 0.1,-0.9 0.2,-1.2 0.2,-0.6 0.7,-1 1.3,-1.3 -0.8,-0.4 -1.2,-1 -1.2,-1.9 0,-0.8 0.3,-1.5 0.9,-1.9 0.6,-0.5 1.3,-0.7 2.2,-0.7 1,0 1.8,0.3 2.4,0.8 0.5,0.5 0.8,1.1 0.8,1.8 0,0.4 -0.1,0.8 -0.3,1.2 -0.2,0.3 -0.5,0.6 -0.9,0.8 0.5,0.2 0.9,0.5 1.1,0.9 0.2,0.3 0.4,0.8 0.4,1.4 z m -2.1,0.1 c 0,-0.4 -0.1,-0.8 -0.3,-1 -0.3,-0.3 -0.6,-0.5 -1.2,-0.5 -0.4,0 -0.7,0.1 -1,0.4 -0.3,0.3 -0.4,0.7 -0.4,1.2 0,0.5 0.1,0.9 0.4,1.1 0.3,0.3 0.6,0.4 1.1,0.4 0.5,0 0.8,-0.2 1.1,-0.5 0.2,-0.4 0.3,-0.7 0.3,-1.1 z m -1.4,-3 c 0.4,0 0.7,-0.1 0.9,-0.3 0.2,-0.2 0.3,-0.5 0.3,-0.9 0,-0.4 -0.1,-0.6 -0.3,-0.9 -0.2,-0.2 -0.5,-0.3 -0.8,-0.3 -0.4,0 -0.8,0.1 -1,0.3 -0.2,0.2 -0.3,0.5 -0.3,0.9 0,0.3 0.1,0.6 0.3,0.8 0.2,0.3 0.5,0.4 0.9,0.4 z"
       id="path883" />
    <path
       style="fill:#ffffff;stroke-width:0.93790478"
       inkscape:connector-curvature="0"
       d="M 31,25 V 19 H 28.6 L 25,25 v 2 h 4 v 2 h 2 v -2 h 1 v -2 z m -2,0 h -2 l 2,-3.5 z"
       id="path885" />
  </g>
</svg>
