<?xml version="1.0" encoding="UTF-8" standalone="no"?>
<svg
   xmlns:dc="http://purl.org/dc/elements/1.1/"
   xmlns:cc="http://creativecommons.org/ns#"
   xmlns:rdf="http://www.w3.org/1999/02/22-rdf-syntax-ns#"
   xmlns:svg="http://www.w3.org/2000/svg"
   xmlns="http://www.w3.org/2000/svg"
   xmlns:sodipodi="http://sodipodi.sourceforge.net/DTD/sodipodi-0.dtd"
   xmlns:inkscape="http://www.inkscape.org/namespaces/inkscape"
   viewBox="0 0 48 48"
   version="1.1"
   id="svg61"
   sodipodi:docname="apps.com.tianqitong.svg"
   inkscape:version="0.92.2pre0 (973e216, 2017-07-25)">
  <metadata
     id="metadata65">
    <rdf:RDF>
      <cc:Work
         rdf:about="">
        <dc:format>image/svg+xml</dc:format>
        <dc:type
           rdf:resource="http://purl.org/dc/dcmitype/StillImage" />
      </cc:Work>
    </rdf:RDF>
  </metadata>
  <sodipodi:namedview
     pagecolor="#ffffff"
     bordercolor="#666666"
     borderopacity="1"
     objecttolerance="10"
     gridtolerance="10"
     guidetolerance="10"
     inkscape:pageopacity="0"
     inkscape:pageshadow="2"
     inkscape:window-width="1360"
     inkscape:window-height="740"
     id="namedview63"
     showgrid="false"
     inkscape:zoom="4.9166667"
     inkscape:cx="24"
     inkscape:cy="24"
     inkscape:window-x="0"
     inkscape:window-y="0"
     inkscape:window-maximized="1"
     inkscape:current-layer="svg61" />
  <defs
     id="defs17">
    <linearGradient
       id="linearGradient3764"
       x1="1"
       x2="47"
       gradientUnits="userSpaceOnUse"
       gradientTransform="rotate(-90,23.999998,24)">
      <stop
         stop-color="#01a0db"
         stop-opacity="1"
         id="stop2" />
      <stop
         offset="1"
         stop-color="#01b1ef"
         stop-opacity="1"
         id="stop4" />
    </linearGradient>
    <clipPath
       id="clipPath-920428438">
      <g
         transform="translate(0,-1004.3622)"
         id="g9">
        <path
           d="m -24 13 c 0 1.105 -0.672 2 -1.5 2 -0.828 0 -1.5 -0.895 -1.5 -2 0 -1.105 0.672 -2 1.5 -2 0.828 0 1.5 0.895 1.5 2 z"
           transform="matrix(15.333333,0,0,11.5,414.99999,878.8622)"
           fill="#1890d0"
           id="path7" />
      </g>
    </clipPath>
    <clipPath
       id="clipPath-936246283">
      <g
         transform="translate(0,-1004.3622)"
         id="g14">
        <path
           d="m -24 13 c 0 1.105 -0.672 2 -1.5 2 -0.828 0 -1.5 -0.895 -1.5 -2 0 -1.105 0.672 -2 1.5 -2 0.828 0 1.5 0.895 1.5 2 z"
           transform="matrix(15.333333,0,0,11.5,414.99999,878.8622)"
           fill="#1890d0"
           id="path12" />
      </g>
    </clipPath>
  </defs>
  <g
     id="g25">
    <path
       d="m 36.31 5 c 5.859 4.062 9.688 10.831 9.688 18.5 c 0 12.426 -10.07 22.5 -22.5 22.5 c -7.669 0 -14.438 -3.828 -18.5 -9.688 c 1.037 1.822 2.306 3.499 3.781 4.969 c 4.085 3.712 9.514 5.969 15.469 5.969 c 12.703 0 23 -10.298 23 -23 c 0 -5.954 -2.256 -11.384 -5.969 -15.469 c -1.469 -1.475 -3.147 -2.744 -4.969 -3.781 z m 4.969 3.781 c 3.854 4.113 6.219 9.637 6.219 15.719 c 0 12.703 -10.297 23 -23 23 c -6.081 0 -11.606 -2.364 -15.719 -6.219 c 4.16 4.144 9.883 6.719 16.219 6.719 c 12.703 0 23 -10.298 23 -23 c 0 -6.335 -2.575 -12.06 -6.719 -16.219 z"
       opacity="0.05"
       id="path19" />
    <path
       d="m 41.28 8.781 c 3.712 4.085 5.969 9.514 5.969 15.469 c 0 12.703 -10.297 23 -23 23 c -5.954 0 -11.384 -2.256 -15.469 -5.969 c 4.113 3.854 9.637 6.219 15.719 6.219 c 12.703 0 23 -10.298 23 -23 c 0 -6.081 -2.364 -11.606 -6.219 -15.719 z"
       opacity="0.1"
       id="path21" />
    <path
       d="m 31.25 2.375 c 8.615 3.154 14.75 11.417 14.75 21.13 c 0 12.426 -10.07 22.5 -22.5 22.5 c -9.708 0 -17.971 -6.135 -21.12 -14.75 a 23 23 0 0 0 44.875 -7 a 23 23 0 0 0 -16 -21.875 z"
       opacity="0.2"
       id="path23" />
  </g>
  <path
     inkscape:connector-curvature="0"
     style="fill:#50c0db;fill-opacity:1"
     id="path27"
     d="M 24,1 C 36.703,1 47,11.297 47,24 47,36.703 36.703,47 24,47 11.297,47 1,36.703 1,24 1,11.297 11.297,1 24,1 Z" />
  <g
     id="g31" />
  <g
     id="g59">
    <path
       d="m 40.03 7.531 c 3.712 4.084 5.969 9.514 5.969 15.469 0 12.703 -10.297 23 -23 23 c -5.954 0 -11.384 -2.256 -15.469 -5.969 4.178 4.291 10.01 6.969 16.469 6.969 c 12.703 0 23 -10.298 23 -23 0 -6.462 -2.677 -12.291 -6.969 -16.469 z"
       opacity="0.1"
       id="path57" />
  </g>
  <g
     id="g959"
     transform="translate(-81.355932,9.559322)">
    <path
       id="path75"
       d="m 105.46912,-0.71557318 c -8.299998,0 -14.999998,6.69999958 -14.999998,14.99999918 0,8.3 6.7,15 14.999998,15 8.3,0 15,-6.7 15,-15 0,-8.1999996 -6.8,-14.99999918 -15,-14.99999918 z m 0,26.99999918 c -6.599998,0 -11.999998,-5.4 -11.999998,-12 0,-6.5999996 5.4,-11.9999992 11.999998,-11.9999992 6.6,0 12,5.3999996 12,11.9999992 0,6.7 -5.4,12 -12,12 z"
       inkscape:connector-curvature="0"
       style="fill:#f9f7f3" />
    <circle
       id="circle77"
       r="7"
       cy="14.284426"
       cx="105.46912"
       style="fill:#231b1c" />
    <ellipse
       id="ellipse79"
       ry="4"
       rx="5.6999998"
       cy="13.384426"
       cx="105.46912"
       style="fill:#b2b2b2" />
    <ellipse
       id="ellipse81"
       ry="3.0999999"
       rx="4.8000002"
       cy="13.384426"
       cx="105.46912"
       style="fill:#f8f8f8" />
    <rect
       id="rect83"
       height="13"
       width="6"
       y="13.384426"
       x="102.46912"
       style="fill:#f8f8f8" />
    <path
       id="path85"
       d="m 105.46912,13.784426 c -0.8,0 -1.5,-0.4 -1.8,-0.9 -0.2,0.1 -0.2,0.3 -0.2,0.5 0,0.8 0.9,1.4 2,1.4 1.1,0 2,-0.6 2,-1.4 0,-0.2 -0.1,-0.3 -0.1,-0.5 -0.4,0.5 -1.1,0.9 -1.9,0.9 z"
       inkscape:connector-curvature="0"
       style="fill:#868686" />
    <g
       transform="translate(81.469122,-9.6155732)"
       id="g97">
      <path
         id="path87"
         d="m 23.1,33.6 h -0.2 v -1.7 h 0.2 v 0.7 H 25 v 0.2 h -1.9 z"
         inkscape:connector-curvature="0"
         style="fill:#231b1c" />
      <path
         id="path89"
         d="m 23.1,34.9 h -0.2 v -1.7 h 0.2 V 34 H 25 v 0.2 h -1.9 z"
         inkscape:connector-curvature="0"
         style="fill:#231b1c" />
      <path
         id="path91"
         d="m 22.9,31.6 v -0.5 c 0,-0.3 0,-0.5 0,-0.6 0,-0.1 0.1,-0.2 0.1,-0.2 0,-0.1 0.1,-0.1 0.2,-0.2 0.1,0 0.2,-0.1 0.3,-0.1 0.1,0 0.3,0 0.4,0.1 0.1,0.1 0.2,0.2 0.2,0.3 0,0.1 0,0.4 0,0.6 v 0.2 h 1 v 0.2 h -2.2 z m 0.2,-0.3 h 0.7 v -0.4 c 0,-0.3 0,-0.4 -0.1,-0.5 -0.1,-0.1 -0.2,-0.1 -0.3,-0.1 -0.2,0 -0.4,0.2 -0.4,0.6 v 0.4 z"
         inkscape:connector-curvature="0"
         style="fill:#231b1c" />
      <path
         id="path93"
         d="m 24,29.9 c -0.2,0 -0.4,0 -0.6,-0.1 -0.2,-0.1 -0.3,-0.2 -0.4,-0.3 -0.1,-0.1 -0.2,-0.3 -0.2,-0.5 0,-0.2 0,-0.3 0.1,-0.5 0.1,-0.1 0.2,-0.3 0.4,-0.3 0.2,-0.1 0.4,-0.1 0.6,-0.1 0.2,0 0.4,0 0.6,0.1 0.2,0.1 0.3,0.2 0.4,0.3 0.1,0.1 0.1,0.3 0.1,0.5 0,0.2 0,0.3 -0.1,0.5 -0.1,0.1 -0.2,0.3 -0.4,0.3 -0.1,0.1 -0.3,0.1 -0.5,0.1 z m 0,-1.7 c -0.3,0 -0.5,0.1 -0.7,0.2 -0.2,0.1 -0.3,0.3 -0.3,0.5 0,0.2 0.1,0.4 0.3,0.5 0.2,0.1 0.4,0.2 0.7,0.2 0.3,0 0.5,-0.1 0.6,-0.2 0.1,-0.1 0.3,-0.3 0.3,-0.5 0,-0.2 -0.1,-0.4 -0.3,-0.5 -0.1,-0.1 -0.3,-0.2 -0.6,-0.2 z"
         inkscape:connector-curvature="0"
         style="fill:#231b1c" />
      <path
         id="path95"
         d="m 25.1,27.8 h -2.2 v -0.4 c 0,-0.3 0,-0.5 0.1,-0.7 0,-0.1 0.1,-0.3 0.2,-0.4 0.1,-0.1 0.2,-0.2 0.4,-0.2 C 23.7,26 23.9,26 24,26 c 0.2,0 0.4,0 0.6,0.1 0.2,0.1 0.3,0.2 0.4,0.4 0.1,0.1 0.1,0.4 0.1,0.6 z m -0.2,-0.2 v -0.2 c 0,-0.3 0,-0.4 0,-0.6 0,-0.1 -0.1,-0.2 -0.2,-0.3 -0.1,-0.1 -0.2,-0.2 -0.3,-0.2 -0.1,0 -0.2,-0.1 -0.4,-0.1 -0.1,0 -0.3,0 -0.4,0.1 -0.1,0.1 -0.2,0.1 -0.3,0.2 -0.1,0.1 -0.1,0.2 -0.2,0.3 0,0.1 0,0.3 0,0.6 v 0.2 z"
         inkscape:connector-curvature="0"
         style="fill:#231b1c" />
    </g>
  </g>
</svg>
