<?xml version="1.0" encoding="UTF-8" standalone="no"?>
<svg
   xmlns:dc="http://purl.org/dc/elements/1.1/"
   xmlns:cc="http://creativecommons.org/ns#"
   xmlns:rdf="http://www.w3.org/1999/02/22-rdf-syntax-ns#"
   xmlns:svg="http://www.w3.org/2000/svg"
   xmlns="http://www.w3.org/2000/svg"
   xmlns:sodipodi="http://sodipodi.sourceforge.net/DTD/sodipodi-0.dtd"
   xmlns:inkscape="http://www.inkscape.org/namespaces/inkscape"
   viewBox="0 0 48 48"
   version="1.1"
   id="svg57"
   sodipodi:docname="Ardour-Ardour_4.0.0.svg"
   inkscape:version="0.92.2pre0 (973e216, 2017-07-25)">
  <metadata
     id="metadata61">
    <rdf:RDF>
      <cc:Work
         rdf:about="">
        <dc:format>image/svg+xml</dc:format>
        <dc:type
           rdf:resource="http://purl.org/dc/dcmitype/StillImage" />
      </cc:Work>
    </rdf:RDF>
  </metadata>
  <sodipodi:namedview
     pagecolor="#ffffff"
     bordercolor="#666666"
     borderopacity="1"
     objecttolerance="10"
     gridtolerance="10"
     guidetolerance="10"
     inkscape:pageopacity="0"
     inkscape:pageshadow="2"
     inkscape:window-width="1360"
     inkscape:window-height="691"
     id="namedview59"
     showgrid="false"
     inkscape:zoom="4.9166667"
     inkscape:cx="24"
     inkscape:cy="24"
     inkscape:window-x="0"
     inkscape:window-y="0"
     inkscape:window-maximized="1"
     inkscape:current-layer="svg57" />
  <defs
     id="defs17">
    <linearGradient
       id="linearGradient3764"
       x1="1"
       x2="47"
       gradientUnits="userSpaceOnUse"
       gradientTransform="matrix(0,-1,1,0,-1.5e-6,47.999998)">
      <stop
         stop-color="#333"
         stop-opacity="1"
         id="stop2" />
      <stop
         offset="1"
         stop-color="#3d3d3d"
         stop-opacity="1"
         id="stop4" />
    </linearGradient>
    <clipPath
       id="clipPath-487214953">
      <g
         transform="translate(0,-1004.3622)"
         id="g9">
        <path
           d="m -24 13 c 0 1.105 -0.672 2 -1.5 2 -0.828 0 -1.5 -0.895 -1.5 -2 0 -1.105 0.672 -2 1.5 -2 0.828 0 1.5 0.895 1.5 2 z"
           transform="matrix(15.333333,0,0,11.5,414.99999,878.8622)"
           fill="#1890d0"
           id="path7" />
      </g>
    </clipPath>
    <clipPath
       id="clipPath-498702923">
      <g
         transform="translate(0,-1004.3622)"
         id="g14">
        <path
           d="m -24 13 c 0 1.105 -0.672 2 -1.5 2 -0.828 0 -1.5 -0.895 -1.5 -2 0 -1.105 0.672 -2 1.5 -2 0.828 0 1.5 0.895 1.5 2 z"
           transform="matrix(15.333333,0,0,11.5,414.99999,878.8622)"
           fill="#1890d0"
           id="path12" />
      </g>
    </clipPath>
  </defs>
  <g
     id="g25">
    <path
       d="m 36.31 5 c 5.859 4.062 9.688 10.831 9.688 18.5 c 0 12.426 -10.07 22.5 -22.5 22.5 c -7.669 0 -14.438 -3.828 -18.5 -9.688 c 1.037 1.822 2.306 3.499 3.781 4.969 c 4.085 3.712 9.514 5.969 15.469 5.969 c 12.703 0 23 -10.298 23 -23 c 0 -5.954 -2.256 -11.384 -5.969 -15.469 c -1.469 -1.475 -3.147 -2.744 -4.969 -3.781 z m 4.969 3.781 c 3.854 4.113 6.219 9.637 6.219 15.719 c 0 12.703 -10.297 23 -23 23 c -6.081 0 -11.606 -2.364 -15.719 -6.219 c 4.16 4.144 9.883 6.719 16.219 6.719 c 12.703 0 23 -10.298 23 -23 c 0 -6.335 -2.575 -12.06 -6.719 -16.219 z"
       opacity="0.05"
       id="path19" />
    <path
       d="m 41.28 8.781 c 3.712 4.085 5.969 9.514 5.969 15.469 c 0 12.703 -10.297 23 -23 23 c -5.954 0 -11.384 -2.256 -15.469 -5.969 c 4.113 3.854 9.637 6.219 15.719 6.219 c 12.703 0 23 -10.298 23 -23 c 0 -6.081 -2.364 -11.606 -6.219 -15.719 z"
       opacity="0.1"
       id="path21" />
    <path
       d="m 31.25 2.375 c 8.615 3.154 14.75 11.417 14.75 21.13 c 0 12.426 -10.07 22.5 -22.5 22.5 c -9.708 0 -17.971 -6.135 -21.12 -14.75 a 23 23 0 0 0 44.875 -7 a 23 23 0 0 0 -16 -21.875 z"
       opacity="0.2"
       id="path23" />
  </g>
  <g
     id="g29"
     style="fill:#808080">
    <path
       d="m 24 1 c 12.703 0 23 10.297 23 23 c 0 12.703 -10.297 23 -23 23 -12.703 0 -23 -10.297 -23 -23 0 -12.703 10.297 -23 23 -23 z"
       fill="url(#linearGradient3764)"
       fill-opacity="1"
       id="path27"
       style="fill:#808080" />
  </g>
  <g
     id="g31" />
  <g
     id="g55">
    <path
       d="m 40.03 7.531 c 3.712 4.084 5.969 9.514 5.969 15.469 0 12.703 -10.297 23 -23 23 c -5.954 0 -11.384 -2.256 -15.469 -5.969 4.178 4.291 10.01 6.969 16.469 6.969 c 12.703 0 23 -10.298 23 -23 0 -6.462 -2.677 -12.291 -6.969 -16.469 z"
       opacity="0.1"
       id="path53" />
  </g>
  <g
     transform="matrix(0.73243342,0,0,0.74753654,6.6233486,-745.33889)"
     id="layer1"
     inkscape:label="Layer 1">
    <path
       inkscape:connector-curvature="0"
       id="path4409"
       d="m 5.0058594,1011.9597 c 0.027417,0.027 0.058498,0.059 0.085937,0.086 l 2.3359375,10.4336 10.5195311,8.9531 -4.857421,5.7265 -0.08984,-0.09 -1.519532,1.5195 -0.07617,-1.4863 v 0 l 0.810547,-0.8183 -0.113282,-1.7383 -1.414062,-1.4101 v 0 l -1.7500005,-0.1094 h -0.00195 l -0.8007813,0.8008 -0.8066406,0.8086 h -0.00195 l -0.4042969,0.4062 0.6347656,3.0684 v 0 c 0.5124338,0.5129 1.8428897,1.8429 3.1406257,3.1406 a 2.1205234,7.0903282 45 0 0 -0.9863288,1.1777 2.1205235,7.0903282 45 0 0 -0.042969,0.057 2.1205234,7.0903282 45 0 0 -0.3300782,0.4375 2.1205235,7.0903282 45 0 0 -0.00781,0.012 2.1205234,7.0903282 45 0 0 -1.1542969,1.9219 2.1205235,7.0903282 45 0 0 -0.00391,0.01 2.1205234,7.0903282 45 0 0 -0.2011719,0.5019 2.2921989,2.2921989 0 0 0 -2.2753906,0.5742 2.2921989,2.2921989 0 0 0 0,3.2422 2.2921989,2.2921989 0 0 0 3.2402344,0 2.2921989,2.2921989 0 0 0 0.5859375,-2.2441 2.1205234,7.0903282 45 0 0 0.1757812,-0.062 2.1205235,7.0903282 45 0 0 0.1191406,-0.049 2.1205234,7.0903282 45 0 0 0.3066407,-0.1329 2.1205235,7.0903282 45 0 0 0.177734,-0.088 2.1205234,7.0903282 45 0 0 0.228516,-0.1172 h 0.002 a 2.1205234,7.0903282 45 0 0 1.710938,-1.1172 2.1205235,7.0903282 45 0 0 0.05273,-0.041 2.1205234,7.0903282 45 0 0 0.345703,-0.2696 2.1205235,7.0903282 45 0 0 0.292969,-0.2343 2.1205234,7.0903282 45 0 0 0.716797,-0.6231 c 1.247411,1.2472 2.850652,2.8506 3.166015,3.166 l 3.064453,0.6387 0.990235,-0.9902 1.044922,-1.0196 -0.113282,-1.748 -1.425781,-1.4238 -1.714844,-0.1 -0.833984,0.8028 -1.464844,-0.098 1.498047,-1.5 -0.05469,-0.055 6.205078,-5.2812 6.191406,5.2676 -0.05469,0.055 1.5,1.5 -1.464844,0.098 -0.835938,-0.8027 -1.714844,0.098 -1.425781,1.4258 -0.113281,1.7461 1.044922,1.0195 0.990234,0.9922 3.064453,-0.6386 c 0.31533,-0.3154 1.918788,-1.919 3.166016,-3.1661 a 7.0903282,2.1205234 45 0 0 0.732422,0.6348 7.0903282,2.1205235 45 0 0 0.232422,0.1875 7.0903282,2.1205234 45 0 0 0.425781,0.332 7.0903282,2.1205235 45 0 0 0.04687,0.033 7.0903282,2.1205234 45 0 0 0.486328,0.3516 7.0903282,2.1205234 45 0 0 1.416016,0.8555 7.0903282,2.1205235 45 0 0 0.207031,0.1035 7.0903282,2.1205234 45 0 0 0.255859,0.1113 7.0903282,2.1205235 45 0 0 0.15625,0.065 7.0903282,2.1205234 45 0 0 0.171875,0.06 2.2921989,2.2921989 0 0 0 0.583985,2.2442 2.2921989,2.2921989 0 0 0 3.242187,0 2.2921989,2.2921989 0 0 0 0,-3.2422 2.2921989,2.2921989 0 0 0 -2.27539,-0.5743 7.0903282,2.1205234 45 0 0 -1.359375,-2.4316 7.0903282,2.1205235 45 0 0 -0.01563,-0.019 7.0903282,2.1205234 45 0 0 -0.355469,-0.4727 7.0903282,2.1205235 45 0 0 -0.0039,0 7.0903282,2.1205234 45 0 0 -0.994141,-1.1894 c 1.297562,-1.2976 2.628245,-2.6278 3.140625,-3.1407 l 0.636719,-3.0683 -0.408203,-0.4082 -0.806641,-0.8086 -0.800781,-0.8008 -1.751953,0.1113 -1.41211,1.4121 -0.115234,1.7383 0.810547,0.8184 -0.07617,1.4863 -1.519531,-1.5195 -0.0918,0.092 -4.84375,-5.709 10.507812,-8.9414 2.337891,-10.4336 c 0.02744,-0.027 0.05852,-0.059 0.08594,-0.086 l -0.07031,0.016 0.002,-0.012 -0.113281,0.037 -10.44336,2.4062 -8.371093,9.8652 -8.38086,-9.8789 -10.4414059,-2.4082 -0.1132812,-0.037 0.00195,0.012 -0.070312,-0.016 z"
       style="opacity:0.05;fill:#000000;fill-opacity:1;stroke:none;stroke-width:0.5;stroke-linecap:round;stroke-linejoin:round;stroke-opacity:1" />
    <path
       style="opacity:0.1;fill:#000000;fill-opacity:1;stroke:none;stroke-width:0.5;stroke-linecap:round;stroke-linejoin:round;stroke-opacity:1"
       d="m 5.0058594,1011.4492 c 0.027417,0.027 0.058498,0.059 0.085937,0.086 l 2.3359375,10.4336 10.5195311,8.9531 -4.857421,5.7265 -0.08984,-0.09 -1.519532,1.5195 -0.07617,-1.4863 v 0 l 0.810547,-0.8183 -0.113282,-1.7383 -1.414062,-1.4101 v 0 l -1.7500005,-0.1094 h -0.00195 l -0.8007813,0.8008 -0.8066406,0.8086 h -0.00195 l -0.4042969,0.4062 0.6347656,3.0684 v 0 c 0.5124338,0.5129 1.8428897,1.8429 3.1406257,3.1406 a 2.1205234,7.0903282 45 0 0 -0.9863288,1.1777 2.1205235,7.0903282 45 0 0 -0.042969,0.057 2.1205234,7.0903282 45 0 0 -0.3300782,0.4375 2.1205235,7.0903282 45 0 0 -0.00781,0.012 2.1205234,7.0903282 45 0 0 -1.1542969,1.9219 2.1205235,7.0903282 45 0 0 -0.00391,0.01 2.1205234,7.0903282 45 0 0 -0.2011719,0.5019 2.2921989,2.2921989 0 0 0 -2.2753906,0.5742 2.2921989,2.2921989 0 0 0 0,3.2422 2.2921989,2.2921989 0 0 0 3.2402344,0 2.2921989,2.2921989 0 0 0 0.5859375,-2.2441 2.1205234,7.0903282 45 0 0 0.1757812,-0.062 2.1205235,7.0903282 45 0 0 0.1191406,-0.049 2.1205234,7.0903282 45 0 0 0.3066407,-0.1329 2.1205235,7.0903282 45 0 0 0.177734,-0.088 2.1205234,7.0903282 45 0 0 0.228516,-0.1172 h 0.002 a 2.1205234,7.0903282 45 0 0 1.710938,-1.1172 2.1205235,7.0903282 45 0 0 0.05273,-0.041 2.1205234,7.0903282 45 0 0 0.345703,-0.2696 2.1205235,7.0903282 45 0 0 0.292969,-0.2343 2.1205234,7.0903282 45 0 0 0.716797,-0.6231 c 1.247411,1.2472 2.850652,2.8506 3.166015,3.166 l 3.064453,0.6387 0.990235,-0.9902 1.044922,-1.0196 -0.113282,-1.748 -1.425781,-1.4238 -1.714844,-0.1 -0.833984,0.8028 -1.464844,-0.098 1.498047,-1.5 -0.05469,-0.055 6.205078,-5.2812 6.191406,5.2676 -0.05469,0.055 1.5,1.5 -1.464844,0.098 -0.835938,-0.8027 -1.714844,0.098 -1.425781,1.4258 -0.113281,1.7461 1.044922,1.0195 0.990234,0.9922 3.064453,-0.6386 c 0.31533,-0.3154 1.918788,-1.919 3.166016,-3.1661 a 7.0903282,2.1205234 45 0 0 0.732422,0.6348 7.0903282,2.1205235 45 0 0 0.232422,0.1875 7.0903282,2.1205234 45 0 0 0.425781,0.332 7.0903282,2.1205235 45 0 0 0.04687,0.033 7.0903282,2.1205234 45 0 0 0.486328,0.3516 7.0903282,2.1205234 45 0 0 1.416016,0.8555 7.0903282,2.1205235 45 0 0 0.207031,0.1035 7.0903282,2.1205234 45 0 0 0.255859,0.1113 7.0903282,2.1205235 45 0 0 0.15625,0.065 7.0903282,2.1205234 45 0 0 0.171875,0.06 2.2921989,2.2921989 0 0 0 0.583985,2.2442 2.2921989,2.2921989 0 0 0 3.242187,0 2.2921989,2.2921989 0 0 0 0,-3.2422 2.2921989,2.2921989 0 0 0 -2.27539,-0.5743 7.0903282,2.1205234 45 0 0 -1.359375,-2.4316 7.0903282,2.1205235 45 0 0 -0.01563,-0.019 7.0903282,2.1205234 45 0 0 -0.355469,-0.4727 7.0903282,2.1205235 45 0 0 -0.0039,0 7.0903282,2.1205234 45 0 0 -0.994141,-1.1894 c 1.297562,-1.2976 2.628245,-2.6278 3.140625,-3.1407 l 0.636719,-3.0683 -0.408203,-0.4082 -0.806641,-0.8086 -0.800781,-0.8008 -1.751953,0.1113 -1.41211,1.4121 -0.115234,1.7383 0.810547,0.8184 -0.07617,1.4863 -1.519531,-1.5195 -0.0918,0.092 -4.84375,-5.709 10.507812,-8.9414 2.337891,-10.4336 c 0.02744,-0.027 0.05852,-0.059 0.08594,-0.086 l -0.07031,0.016 0.002,-0.012 -0.113281,0.037 -10.44336,2.4062 -8.371093,9.8652 -8.38086,-9.8789 -10.4414059,-2.4082 -0.1132812,-0.037 0.00195,0.012 -0.070312,-0.016 z"
       id="path4407"
       inkscape:connector-curvature="0" />
    <path
       inkscape:connector-curvature="0"
       id="ellipse4314"
       d="m 5.0058594,1010.9387 c 0.027417,0.027 0.058498,0.059 0.085937,0.086 l 2.3359375,10.4336 10.5195311,8.9531 -4.857421,5.7265 -0.08984,-0.09 -1.519532,1.5195 -0.07617,-1.4863 v 0 l 0.810547,-0.8183 -0.113282,-1.7383 -1.414062,-1.4101 v 0 l -1.7500005,-0.1094 h -0.00195 l -0.8007813,0.8008 -0.8066406,0.8086 h -0.00195 l -0.4042969,0.4062 0.6347656,3.0684 v 0 c 0.5124338,0.5129 1.8428897,1.8429 3.1406257,3.1406 a 2.1205234,7.0903282 45 0 0 -0.9863288,1.1777 2.1205235,7.0903282 45 0 0 -0.042969,0.057 2.1205234,7.0903282 45 0 0 -0.3300782,0.4375 2.1205235,7.0903282 45 0 0 -0.00781,0.012 2.1205234,7.0903282 45 0 0 -1.1542969,1.9219 2.1205235,7.0903282 45 0 0 -0.00391,0.01 2.1205234,7.0903282 45 0 0 -0.2011719,0.5019 2.2921989,2.2921989 0 0 0 -2.2753906,0.5742 2.2921989,2.2921989 0 0 0 0,3.2422 2.2921989,2.2921989 0 0 0 3.2402344,0 2.2921989,2.2921989 0 0 0 0.5859375,-2.2441 2.1205234,7.0903282 45 0 0 0.1757812,-0.062 2.1205235,7.0903282 45 0 0 0.1191406,-0.049 2.1205234,7.0903282 45 0 0 0.3066407,-0.1329 2.1205235,7.0903282 45 0 0 0.177734,-0.088 2.1205234,7.0903282 45 0 0 0.228516,-0.1172 h 0.002 a 2.1205234,7.0903282 45 0 0 1.710938,-1.1172 2.1205235,7.0903282 45 0 0 0.05273,-0.041 2.1205234,7.0903282 45 0 0 0.345703,-0.2696 2.1205235,7.0903282 45 0 0 0.292969,-0.2343 2.1205234,7.0903282 45 0 0 0.716797,-0.6231 c 1.247411,1.2472 2.850652,2.8506 3.166015,3.166 l 3.064453,0.6387 0.990235,-0.9902 1.044922,-1.0196 -0.113282,-1.748 -1.425781,-1.4238 -1.714844,-0.1 -0.833984,0.8028 -1.464844,-0.098 1.498047,-1.5 -0.05469,-0.055 6.205078,-5.2812 6.191406,5.2676 -0.05469,0.055 1.5,1.5 -1.464844,0.098 -0.835938,-0.8027 -1.714844,0.098 -1.425781,1.4258 -0.113281,1.7461 1.044922,1.0195 0.990234,0.9922 3.064453,-0.6386 c 0.31533,-0.3154 1.918788,-1.919 3.166016,-3.1661 a 7.0903282,2.1205234 45 0 0 0.732422,0.6348 7.0903282,2.1205235 45 0 0 0.232422,0.1875 7.0903282,2.1205234 45 0 0 0.425781,0.332 7.0903282,2.1205235 45 0 0 0.04687,0.033 7.0903282,2.1205234 45 0 0 0.486328,0.3516 7.0903282,2.1205234 45 0 0 1.416016,0.8555 7.0903282,2.1205235 45 0 0 0.207031,0.1035 7.0903282,2.1205234 45 0 0 0.255859,0.1113 7.0903282,2.1205235 45 0 0 0.15625,0.065 7.0903282,2.1205234 45 0 0 0.171875,0.06 2.2921989,2.2921989 0 0 0 0.583985,2.2442 2.2921989,2.2921989 0 0 0 3.242187,0 2.2921989,2.2921989 0 0 0 0,-3.2422 2.2921989,2.2921989 0 0 0 -2.27539,-0.5743 7.0903282,2.1205234 45 0 0 -1.359375,-2.4316 7.0903282,2.1205235 45 0 0 -0.01563,-0.019 7.0903282,2.1205234 45 0 0 -0.355469,-0.4727 7.0903282,2.1205235 45 0 0 -0.0039,0 7.0903282,2.1205234 45 0 0 -0.994141,-1.1894 c 1.297562,-1.2976 2.628245,-2.6278 3.140625,-3.1407 l 0.636719,-3.0683 -0.408203,-0.4082 -0.806641,-0.8086 -0.800781,-0.8008 -1.751953,0.1113 -1.41211,1.4121 -0.115234,1.7383 0.810547,0.8184 -0.07617,1.4863 -1.519531,-1.5195 -0.0918,0.092 -4.84375,-5.709 10.507812,-8.9414 2.337891,-10.4336 c 0.02744,-0.027 0.05852,-0.059 0.08594,-0.086 l -0.07031,0.016 0.002,-0.012 -0.113281,0.037 -10.44336,2.4062 -8.371093,9.8652 -8.38086,-9.8789 -10.4414059,-2.4082 -0.1132812,-0.037 0.00195,0.012 -0.070312,-0.016 z"
       style="opacity:0.15;fill:#000000;fill-opacity:1;stroke:none;stroke-width:0.5;stroke-linecap:round;stroke-linejoin:round;stroke-opacity:1" />
    <g
       transform="matrix(0.81041467,-0.81041467,0.81041467,0.81041467,-827.54265,215.14178)"
       id="g4266">
      <ellipse
         style="opacity:1;fill:#dba05d;fill-opacity:1;stroke:none;stroke-width:0.5;stroke-linecap:round;stroke-linejoin:round;stroke-opacity:1"
         id="path4180"
         cx="22.981594"
         cy="1041.3158"
         rx="1.850209"
         ry="6.1864862" />
      <path
         style="opacity:1;fill:#d6d7d9;fill-opacity:1;stroke:none;stroke-width:0.5;stroke-linecap:round;stroke-linejoin:round;stroke-opacity:1"
         d="m 19.07228,1012.272 3.917921,-7.8599 5.035111,7.9404 -2.381612,29.6027 -5.236188,0.012 z"
         id="rect4160"
         inkscape:connector-curvature="0"
         sodipodi:nodetypes="cccccc" />
      <g
         id="g4199"
         transform="translate(8.15e-5,-4.45e-5)">
        <path
           id="path4184"
           transform="translate(0,1004.3622)"
           d="m 24.828125,36.585938 -3.613281,2.183593 a 1.850209,6.1864862 0 0 0 0.138672,1.113281 l 3.458984,-2.08789 a 1.850209,6.1864862 0 0 0 0.01953,-0.841797 1.850209,6.1864862 0 0 0 -0.0039,-0.367187 z"
           style="fill:#a05a2c;fill-rule:evenodd;stroke:none;stroke-width:1px;stroke-linecap:butt;stroke-linejoin:miter;stroke-opacity:1"
           inkscape:connector-curvature="0" />
        <path
           id="path4186"
           transform="translate(0,1004.3622)"
           d="m 24.744141,38.826172 -3.216797,1.945312 a 1.850209,6.1864862 0 0 0 0.302734,1.015625 l 2.736328,-1.652343 a 1.850209,6.1864862 0 0 0 0.177735,-1.308594 z"
           style="fill:#a05a2c;fill-rule:evenodd;stroke:none;stroke-width:1px;stroke-linecap:butt;stroke-linejoin:miter;stroke-opacity:1"
           inkscape:connector-curvature="0" />
        <path
           id="path4188"
           transform="translate(0,1004.3622)"
           d="m 24.287109,41.333984 -2.068359,1.25 a 1.850209,6.1864862 0 0 0 0.763672,0.556641 1.850209,6.1864862 0 0 0 1.304687,-1.806641 z"
           style="fill:#a05a2c;fill-rule:evenodd;stroke:none;stroke-width:1px;stroke-linecap:butt;stroke-linejoin:miter;stroke-opacity:1"
           inkscape:connector-curvature="0" />
      </g>
      <circle
         style="opacity:1;fill:#bb891d;fill-opacity:1;stroke:none;stroke-width:0.5;stroke-linecap:round;stroke-linejoin:round;stroke-opacity:1"
         id="path4182"
         cx="22.965353"
         cy="1048.3419"
         r="2" />
      <path
         style="opacity:1;fill:#a4a5aa;fill-opacity:1;stroke:none;stroke-width:0.5;stroke-linecap:round;stroke-linejoin:round;stroke-opacity:1"
         d="m 23.030046,0.00535734 -5.044406,8.06578056 2.422563,29.5343311 2.636719,-0.0059 C 22.964399,25.728912 23.019971,12.02452 23.030046,0.00535734 Z"
         transform="translate(0,1004.3622)"
         id="path4209"
         inkscape:connector-curvature="0"
         sodipodi:nodetypes="ccccc" />
      <rect
         style="opacity:1;fill:#d4aa00;fill-opacity:1;stroke:none;stroke-width:0.5;stroke-linecap:round;stroke-linejoin:round;stroke-opacity:1"
         id="rect4207"
         width="6"
         height="3"
         x="20"
         y="1038.3622" />
      <path
         inkscape:connector-curvature="0"
         style="opacity:1;fill:#f3d056;fill-opacity:1;stroke:none;stroke-width:0.5;stroke-linecap:round;stroke-linejoin:round;stroke-opacity:1"
         d="m 23,34 v 3 h 3 v -3 z"
         transform="translate(0,1004.3622)"
         id="rect4229" />
      <path
         sodipodi:nodetypes="ccccc"
         inkscape:connector-curvature="0"
         id="path4253"
         d="m 26.878034,1012.8368 -1.602562,25.0252 -1.548716,-0.04 0.232165,-29.7299 c 0,0 2.141956,3.4678 2.919113,4.7447 z"
         style="opacity:0.73279999;fill:#efefef;fill-opacity:1;stroke:none;stroke-width:0.5;stroke-linecap:round;stroke-linejoin:round;stroke-opacity:1" />
      <path
         style="opacity:1;fill:#d4aa00;fill-opacity:1;stroke:none;stroke-width:0.5;stroke-linecap:round;stroke-linejoin:round;stroke-opacity:1"
         d="m 16.145439,1037.3606 -1.149798,1.0117 v 0.9883 0.998 h 0.0023 v 0.502 l 2.286149,1.502 c 1.865194,9e-4 10.288417,0 11.426545,0 l 2.28397,-1.4961 v -1.2227 l 0.01563,-1.2734 -1.147565,-1.0078 h -1.759084 l -1.118542,0.998 -0.0201,1.0098 -1.13528,0.9938 -5.668054,0.018 -1.125135,-1.0142 -0.0045,-1.0058 -1.143101,-1.002 z"
         id="rect4162"
         inkscape:connector-curvature="0"
         sodipodi:nodetypes="ccccccccccccccccccccc" />
      <path
         inkscape:connector-curvature="0"
         style="opacity:1;fill:#bb891d;fill-opacity:1;stroke:none;stroke-width:0.5;stroke-linecap:round;stroke-linejoin:round;stroke-opacity:1"
         d="m 16.144531,32.998047 -1.148437,1.011719 v 0.988281 0.998047 h 0.002 v 0.501953 L 17.283203,38 c 0.930844,4.49e-4 3.226234,1.12e-4 5.703125,0 v -1.988281 l -2.824219,0.0078 -1.125,-1.013672 L 19.03125,34 17.888672,32.998047 Z"
         transform="translate(0,1004.3622)"
         id="path4255" />
      <circle
         style="opacity:1;fill:#d4aa00;fill-opacity:1;stroke:none;stroke-width:0.5;stroke-linecap:round;stroke-linejoin:round;stroke-opacity:1"
         id="path4260"
         cx="23.384214"
         cy="1048.1864"
         r="1.23726" />
    </g>
    <g
       id="g4282"
       transform="matrix(-0.81041466,-0.81041466,-0.81041466,0.81041466,875.49389,215.08993)">
      <ellipse
         ry="6.1864862"
         rx="1.850209"
         cy="1041.3158"
         cx="22.981594"
         id="ellipse4284"
         style="opacity:1;fill:#dba05d;fill-opacity:1;stroke:none;stroke-width:0.5;stroke-linecap:round;stroke-linejoin:round;stroke-opacity:1" />
      <path
         sodipodi:nodetypes="cccccc"
         inkscape:connector-curvature="0"
         id="path4286"
         d="m 19.07228,1012.272 3.917921,-7.8599 5.035111,7.9404 -2.381612,29.6027 -5.236188,0.012 z"
         style="opacity:1;fill:#d6d7d9;fill-opacity:1;stroke:none;stroke-width:0.5;stroke-linecap:round;stroke-linejoin:round;stroke-opacity:1" />
      <g
         transform="translate(8.15e-5,-4.45e-5)"
         id="g4288">
        <path
           inkscape:connector-curvature="0"
           style="fill:#a05a2c;fill-rule:evenodd;stroke:none;stroke-width:1px;stroke-linecap:butt;stroke-linejoin:miter;stroke-opacity:1"
           d="m 24.828125,36.585938 -3.613281,2.183593 a 1.850209,6.1864862 0 0 0 0.138672,1.113281 l 3.458984,-2.08789 a 1.850209,6.1864862 0 0 0 0.01953,-0.841797 1.850209,6.1864862 0 0 0 -0.0039,-0.367187 z"
           transform="translate(0,1004.3622)"
           id="path4290" />
        <path
           inkscape:connector-curvature="0"
           style="fill:#a05a2c;fill-rule:evenodd;stroke:none;stroke-width:1px;stroke-linecap:butt;stroke-linejoin:miter;stroke-opacity:1"
           d="m 24.744141,38.826172 -3.216797,1.945312 a 1.850209,6.1864862 0 0 0 0.302734,1.015625 l 2.736328,-1.652343 a 1.850209,6.1864862 0 0 0 0.177735,-1.308594 z"
           transform="translate(0,1004.3622)"
           id="path4292" />
        <path
           inkscape:connector-curvature="0"
           style="fill:#a05a2c;fill-rule:evenodd;stroke:none;stroke-width:1px;stroke-linecap:butt;stroke-linejoin:miter;stroke-opacity:1"
           d="m 24.287109,41.333984 -2.068359,1.25 a 1.850209,6.1864862 0 0 0 0.763672,0.556641 1.850209,6.1864862 0 0 0 1.304687,-1.806641 z"
           transform="translate(0,1004.3622)"
           id="path4294" />
      </g>
      <circle
         r="2"
         cy="1048.3419"
         cx="22.965353"
         id="circle4296"
         style="opacity:1;fill:#bb891d;fill-opacity:1;stroke:none;stroke-width:0.5;stroke-linecap:round;stroke-linejoin:round;stroke-opacity:1" />
      <path
         sodipodi:nodetypes="ccccc"
         inkscape:connector-curvature="0"
         id="path4298"
         transform="translate(0,1004.3622)"
         d="m 23.030046,0.00535734 -5.044406,8.06578056 2.422563,29.5343311 2.636719,-0.0059 C 22.964399,25.728912 23.019971,12.02452 23.030046,0.00535734 Z"
         style="opacity:1;fill:#a4a5aa;fill-opacity:1;stroke:none;stroke-width:0.5;stroke-linecap:round;stroke-linejoin:round;stroke-opacity:1" />
      <rect
         y="1038.3622"
         x="20"
         height="3"
         width="6"
         id="rect4300"
         style="opacity:1;fill:#d4aa00;fill-opacity:1;stroke:none;stroke-width:0.5;stroke-linecap:round;stroke-linejoin:round;stroke-opacity:1" />
      <path
         id="path4302"
         transform="translate(0,1004.3622)"
         d="m 23,34 v 3 h 3 v -3 z"
         style="opacity:1;fill:#f3d056;fill-opacity:1;stroke:none;stroke-width:0.5;stroke-linecap:round;stroke-linejoin:round;stroke-opacity:1"
         inkscape:connector-curvature="0" />
      <path
         style="opacity:0.73279999;fill:#eeeeee;fill-opacity:1;stroke:none;stroke-width:0.5;stroke-linecap:round;stroke-linejoin:round;stroke-opacity:1"
         d="m 26.878034,1012.8368 -1.602562,25.0252 -1.548716,-0.04 0.232165,-29.7299 c 0,0 2.141956,3.4678 2.919113,4.7447 z"
         id="path4304"
         inkscape:connector-curvature="0"
         sodipodi:nodetypes="ccccc" />
      <path
         sodipodi:nodetypes="ccccccccccccccccccccc"
         inkscape:connector-curvature="0"
         id="path4306"
         d="m 16.145439,1037.3606 -1.149798,1.0117 v 0.9883 0.998 h 0.0023 v 0.502 l 2.286149,1.502 c 1.865194,9e-4 10.288417,0 11.426545,0 l 2.28397,-1.4961 v -1.2227 l 0.01563,-1.2734 -1.147565,-1.0078 h -1.759084 l -1.118542,0.998 -0.0201,1.0098 -1.13528,0.9938 -5.668054,0.018 -1.125135,-1.0142 -0.0045,-1.0058 -1.143101,-1.002 z"
         style="opacity:1;fill:#d4aa00;fill-opacity:1;stroke:none;stroke-width:0.5;stroke-linecap:round;stroke-linejoin:round;stroke-opacity:1" />
      <path
         id="path4308"
         transform="translate(0,1004.3622)"
         d="m 16.144531,32.998047 -1.148437,1.011719 v 0.988281 0.998047 h 0.002 v 0.501953 L 17.283203,38 c 0.930844,4.49e-4 3.226234,1.12e-4 5.703125,0 v -1.988281 l -2.824219,0.0078 -1.125,-1.013672 L 19.03125,34 17.888672,32.998047 Z"
         style="opacity:1;fill:#bb891d;fill-opacity:1;stroke:none;stroke-width:0.5;stroke-linecap:round;stroke-linejoin:round;stroke-opacity:1"
         inkscape:connector-curvature="0" />
      <circle
         r="1.23726"
         cy="1048.1864"
         cx="23.384214"
         id="circle4310"
         style="opacity:1;fill:#d4aa00;fill-opacity:1;stroke:none;stroke-width:0.5;stroke-linecap:round;stroke-linejoin:round;stroke-opacity:1" />
    </g>
  </g>
</svg>
