<?xml version="1.0" encoding="UTF-8" standalone="no"?>
<svg
   xmlns:dc="http://purl.org/dc/elements/1.1/"
   xmlns:cc="http://creativecommons.org/ns#"
   xmlns:rdf="http://www.w3.org/1999/02/22-rdf-syntax-ns#"
   xmlns:svg="http://www.w3.org/2000/svg"
   xmlns="http://www.w3.org/2000/svg"
   xmlns:sodipodi="http://sodipodi.sourceforge.net/DTD/sodipodi-0.dtd"
   xmlns:inkscape="http://www.inkscape.org/namespaces/inkscape"
   viewBox="0 0 48 48"
   version="1.1"
   id="svg65"
   sodipodi:docname="applications-other.svg"
   inkscape:version="0.92.2pre0 (973e216, 2017-07-25)">
  <metadata
     id="metadata69">
    <rdf:RDF>
      <cc:Work
         rdf:about="">
        <dc:format>image/svg+xml</dc:format>
        <dc:type
           rdf:resource="http://purl.org/dc/dcmitype/StillImage" />
      </cc:Work>
    </rdf:RDF>
  </metadata>
  <sodipodi:namedview
     pagecolor="#ffffff"
     bordercolor="#666666"
     borderopacity="1"
     objecttolerance="10"
     gridtolerance="10"
     guidetolerance="10"
     inkscape:pageopacity="0"
     inkscape:pageshadow="2"
     inkscape:window-width="1360"
     inkscape:window-height="695"
     id="namedview67"
     showgrid="false"
     inkscape:zoom="6.9532167"
     inkscape:cx="41.094795"
     inkscape:cy="21.427172"
     inkscape:window-x="0"
     inkscape:window-y="0"
     inkscape:window-maximized="1"
     inkscape:current-layer="svg65" />
  <defs
     id="defs17">
    <linearGradient
       id="linearGradient3764"
       x1="1"
       x2="47"
       gradientUnits="userSpaceOnUse"
       gradientTransform="matrix(0,-1,1,0,-1.5e-6,47.999998)">
      <stop
         stop-color="#333"
         stop-opacity="1"
         id="stop2" />
      <stop
         offset="1"
         stop-color="#3d3d3d"
         stop-opacity="1"
         id="stop4" />
    </linearGradient>
    <clipPath
       id="clipPath-602376433">
      <g
         transform="translate(0,-1004.3622)"
         id="g9">
        <path
           d="m -24 13 c 0 1.105 -0.672 2 -1.5 2 -0.828 0 -1.5 -0.895 -1.5 -2 0 -1.105 0.672 -2 1.5 -2 0.828 0 1.5 0.895 1.5 2 z"
           transform="matrix(15.333333,0,0,11.5,414.99999,878.8622)"
           fill="#1890d0"
           id="path7" />
      </g>
    </clipPath>
    <clipPath
       id="clipPath-615109420">
      <g
         transform="translate(0,-1004.3622)"
         id="g14">
        <path
           d="m -24 13 c 0 1.105 -0.672 2 -1.5 2 -0.828 0 -1.5 -0.895 -1.5 -2 0 -1.105 0.672 -2 1.5 -2 0.828 0 1.5 0.895 1.5 2 z"
           transform="matrix(15.333333,0,0,11.5,414.99999,878.8622)"
           fill="#1890d0"
           id="path12" />
      </g>
    </clipPath>
  </defs>
  <g
     id="g31" />
  <g
     id="g119">
    <g
       id="g25">
      <path
         id="path19"
         opacity="0.05"
         d="m 36.31 5 c 5.859 4.062 9.688 10.831 9.688 18.5 c 0 12.426 -10.07 22.5 -22.5 22.5 c -7.669 0 -14.438 -3.828 -18.5 -9.688 c 1.037 1.822 2.306 3.499 3.781 4.969 c 4.085 3.712 9.514 5.969 15.469 5.969 c 12.703 0 23 -10.298 23 -23 c 0 -5.954 -2.256 -11.384 -5.969 -15.469 c -1.469 -1.475 -3.147 -2.744 -4.969 -3.781 z m 4.969 3.781 c 3.854 4.113 6.219 9.637 6.219 15.719 c 0 12.703 -10.297 23 -23 23 c -6.081 0 -11.606 -2.364 -15.719 -6.219 c 4.16 4.144 9.883 6.719 16.219 6.719 c 12.703 0 23 -10.298 23 -23 c 0 -6.335 -2.575 -12.06 -6.719 -16.219 z" />
      <path
         id="path21"
         opacity="0.1"
         d="m 41.28 8.781 c 3.712 4.085 5.969 9.514 5.969 15.469 c 0 12.703 -10.297 23 -23 23 c -5.954 0 -11.384 -2.256 -15.469 -5.969 c 4.113 3.854 9.637 6.219 15.719 6.219 c 12.703 0 23 -10.298 23 -23 c 0 -6.081 -2.364 -11.606 -6.219 -15.719 z" />
      <path
         id="path23"
         opacity="0.2"
         d="m 31.25 2.375 c 8.615 3.154 14.75 11.417 14.75 21.13 c 0 12.426 -10.07 22.5 -22.5 22.5 c -9.708 0 -17.971 -6.135 -21.12 -14.75 a 23 23 0 0 0 44.875 -7 a 23 23 0 0 0 -16 -21.875 z" />
    </g>
    <g
       id="g29">
      <path
         id="path27"
         fill-opacity="1"
         fill="url(#linearGradient3764)"
         d="m 24 1 c 12.703 0 23 10.297 23 23 c 0 12.703 -10.297 23 -23 23 -12.703 0 -23 -10.297 -23 -23 0 -12.703 10.297 -23 23 -23 z" />
    </g>
    <g
       id="g63">
      <path
         id="path61"
         opacity="0.1"
         d="m 40.03 7.531 c 3.712 4.084 5.969 9.514 5.969 15.469 0 12.703 -10.297 23 -23 23 c -5.954 0 -11.384 -2.256 -15.469 -5.969 4.178 4.291 10.01 6.969 16.469 6.969 c 12.703 0 23 -10.298 23 -23 0 -6.462 -2.677 -12.291 -6.969 -16.469 z" />
    </g>
    <rect
       rx="0.69488221"
       y="12.650721"
       x="14.934473"
       height="3.0773196"
       width="8.6860275"
       style="fill:#c37c14;fill-opacity:1;fill-rule:evenodd;stroke:none;stroke-width:0.61794227"
       id="rect33" />
    <rect
       width="8.6860275"
       height="3.0773196"
       x="24.327162"
       y="12.650721"
       rx="0.69488221"
       style="fill:#00aad4;fill-opacity:1;fill-rule:evenodd;stroke:none;stroke-width:0.61794227"
       id="rect37" />
    <rect
       width="8.6860275"
       height="2.98523"
       x="5.6153984"
       y="12.635373"
       rx="0.69488221"
       style="fill:#3465a4;fill-opacity:1;fill-rule:evenodd;stroke:none;stroke-width:0.60862601"
       id="rect39" />
    <rect
       width="6.948822"
       height="2.1980853"
       x="15.803076"
       y="13.090339"
       rx="0.17372055"
       style="fill:#f3ad47;fill-opacity:1;fill-rule:evenodd;stroke:none;stroke-width:0.61794227"
       id="rect41" />
    <rect
       rx="0.17372055"
       y="13.090339"
       x="25.195763"
       height="2.1980853"
       width="6.948822"
       style="fill:#80e5ff;fill-opacity:1;fill-rule:evenodd;stroke:none;stroke-width:0.61794227"
       id="rect43" />
    <rect
       width="6.948822"
       height="2.1323073"
       x="6.4840002"
       y="13.061834"
       rx="0.17372055"
       style="fill:#729fcf;fill-opacity:1;fill-rule:evenodd;stroke:none;stroke-width:0.60862601"
       id="rect45" />
    <rect
       width="8.6860275"
       height="3.0326126"
       x="33.95541"
       y="12.649383"
       rx="0.69488221"
       style="fill:#ff2a2a;fill-opacity:1;fill-rule:evenodd;stroke:none;stroke-width:0.61343712"
       id="rect39-3" />
    <rect
       width="6.948822"
       height="2.1661522"
       x="34.824009"
       y="13.082612"
       rx="0.17372055"
       style="fill:#ff5555;fill-opacity:1;fill-rule:evenodd;stroke:none;stroke-width:0.61343712"
       id="rect45-6" />
    <rect
       rx="0.69488221"
       y="16.073376"
       x="14.934473"
       height="3.0773196"
       width="8.6860275"
       style="fill:#6600ff;fill-opacity:1;fill-rule:evenodd;stroke:none;stroke-width:0.61794227"
       id="rect33-3" />
    <rect
       width="8.6860275"
       height="3.0773196"
       x="24.327162"
       y="16.073376"
       rx="0.69488221"
       style="fill:#5e9d23;fill-opacity:1;fill-rule:evenodd;stroke:none;stroke-width:0.61794227"
       id="rect37-6" />
    <rect
       width="8.6860275"
       height="2.98523"
       x="5.6153984"
       y="16.058025"
       rx="0.69488221"
       style="fill:#d400aa;fill-opacity:1;fill-rule:evenodd;stroke:none;stroke-width:0.60862601"
       id="rect39-7" />
    <rect
       width="6.948822"
       height="2.1980853"
       x="15.803076"
       y="16.512993"
       rx="0.17372055"
       style="fill:#9955ff;fill-opacity:1;fill-rule:evenodd;stroke:none;stroke-width:0.61794227"
       id="rect41-5" />
    <rect
       rx="0.17372055"
       y="16.512993"
       x="25.195763"
       height="2.1980853"
       width="6.948822"
       style="fill:#82d530;fill-opacity:1;fill-rule:evenodd;stroke:none;stroke-width:0.61794227"
       id="rect43-3" />
    <rect
       width="6.948822"
       height="2.1323073"
       x="6.4840002"
       y="16.484488"
       rx="0.17372055"
       style="fill:#dd55ff;fill-opacity:1;fill-rule:evenodd;stroke:none;stroke-width:0.60862601"
       id="rect45-5" />
    <rect
       width="8.6860275"
       height="3.0326126"
       x="33.95541"
       y="16.072039"
       rx="0.69488221"
       style="fill:#536c67;fill-opacity:1;fill-rule:evenodd;stroke:none;stroke-width:0.61343712"
       id="rect39-3-6" />
    <rect
       width="6.948822"
       height="2.1661522"
       x="34.824017"
       y="16.505268"
       rx="0.17372055"
       style="fill:#93aca7;fill-opacity:1;fill-rule:evenodd;stroke:none;stroke-width:0.61343712"
       id="rect45-6-2" />
    <rect
       rx="0.69488221"
       y="19.864838"
       x="14.88273"
       height="3.0773196"
       width="8.6860275"
       style="fill:#d4aa00;fill-opacity:1;fill-rule:evenodd;stroke:none;stroke-width:0.61794227"
       id="rect33-9" />
    <rect
       width="8.6860275"
       height="3.0773196"
       x="24.275417"
       y="19.864838"
       rx="0.69488221"
       style="fill:#66ff00;fill-opacity:1;fill-rule:evenodd;stroke:none;stroke-width:0.61794227"
       id="rect37-1" />
    <rect
       width="8.6860275"
       height="2.98523"
       x="5.5636473"
       y="19.849491"
       rx="0.69488221"
       style="fill:#3465a4;fill-opacity:1;fill-rule:evenodd;stroke:none;stroke-width:0.60862601"
       id="rect39-2" />
    <rect
       width="6.948822"
       height="2.1980853"
       x="15.751331"
       y="20.304457"
       rx="0.17372055"
       style="fill:#ffdd55;fill-opacity:1;fill-rule:evenodd;stroke:none;stroke-width:0.61794227"
       id="rect41-7" />
    <rect
       rx="0.17372055"
       y="20.304457"
       x="25.144026"
       height="2.1980853"
       width="6.948822"
       style="fill:#bcd35f;fill-opacity:1;fill-rule:evenodd;stroke:none;stroke-width:0.61794227"
       id="rect43-0" />
    <rect
       width="6.948822"
       height="2.1323073"
       x="6.4322491"
       y="20.275951"
       rx="0.17372055"
       style="fill:#729fcf;fill-opacity:1;fill-rule:evenodd;stroke:none;stroke-width:0.60862601"
       id="rect45-9" />
    <rect
       width="8.6860275"
       height="3.0326126"
       x="33.903664"
       y="19.863501"
       rx="0.69488221"
       style="fill:#d40000;fill-opacity:1;fill-rule:evenodd;stroke:none;stroke-width:0.61343712"
       id="rect39-3-3" />
    <rect
       width="6.948822"
       height="2.1661522"
       x="34.772266"
       y="20.29673"
       rx="0.17372055"
       style="fill:#ff2a2a;fill-opacity:1;fill-rule:evenodd;stroke:none;stroke-width:0.61343712"
       id="rect45-6-6" />
    <rect
       rx="0.69488221"
       y="8.9162455"
       x="19.182619"
       height="2.902766"
       width="8.6860275"
       style="fill:#d4aa00;fill-opacity:1;fill-rule:evenodd;stroke:none;stroke-width:0.60016078"
       id="rect33-9-0" />
    <rect
       width="8.6860275"
       height="2.8159001"
       x="9.8635368"
       y="8.9017696"
       rx="0.69488221"
       style="fill:#3465a4;fill-opacity:1;fill-rule:evenodd;stroke:none;stroke-width:0.59111255"
       id="rect39-2-2" />
    <rect
       width="6.948822"
       height="2.0734043"
       x="20.05122"
       y="9.3309278"
       rx="0.17372055"
       style="fill:#ffdd55;fill-opacity:1;fill-rule:evenodd;stroke:none;stroke-width:0.60016078"
       id="rect41-7-6" />
    <rect
       width="6.948822"
       height="2.0113573"
       x="10.732139"
       y="9.30404"
       rx="0.17372055"
       style="fill:#729fcf;fill-opacity:1;fill-rule:evenodd;stroke:none;stroke-width:0.59111255"
       id="rect45-9-8" />
    <rect
       width="8.6860275"
       height="2.860595"
       x="28.430992"
       y="8.9149847"
       rx="0.69488221"
       style="fill:#d40000;fill-opacity:1;fill-rule:evenodd;stroke:none;stroke-width:0.59578526"
       id="rect39-3-3-7" />
    <rect
       width="6.948822"
       height="2.0432823"
       x="29.299591"
       y="9.3236399"
       rx="0.17372055"
       style="fill:#ff2a2a;fill-opacity:1;fill-rule:evenodd;stroke:none;stroke-width:0.59578526"
       id="rect45-6-6-9" />
    <rect
       rx="0.71105421"
       y="5.0926895"
       x="24.197735"
       height="2.902766"
       width="8.8881769"
       style="fill:#6600ff;fill-opacity:1;fill-rule:evenodd;stroke:none;stroke-width:0.60710436"
       id="rect33-3-2" />
    <rect
       width="8.8881769"
       height="2.8159001"
       x="14.661777"
       y="5.0782108"
       rx="0.71105421"
       style="fill:#d400aa;fill-opacity:1;fill-rule:evenodd;stroke:none;stroke-width:0.59795147"
       id="rect39-7-0" />
    <rect
       width="7.1105418"
       height="2.0734043"
       x="25.086552"
       y="5.5073714"
       rx="0.17776355"
       style="fill:#9955ff;fill-opacity:1;fill-rule:evenodd;stroke:none;stroke-width:0.60710436"
       id="rect41-5-2" />
    <rect
       width="7.1105418"
       height="2.0113573"
       x="15.550593"
       y="5.4804821"
       rx="0.17776355"
       style="fill:#dd55ff;fill-opacity:1;fill-rule:evenodd;stroke:none;stroke-width:0.59795147"
       id="rect45-5-3" />
    <g
       transform="matrix(0.85833588,0,0,0.82870654,48.424058,-3.2702412)"
       id="g242">
      <path
         inkscape:connector-curvature="0"
         style="fill:#ecac20;fill-opacity:1;fill-rule:nonzero;stroke:none;stroke-width:0.28586462"
         id="path73-7"
         d="m -40.554907,51.20826 c 3.439269,-2.015648 2.651238,-2.337846 4.11621,-3.914262 0.02116,0.0887 0.03454,0.181644 0.110747,0.239169 0.113869,0.08643 0.293443,0.132903 0.532218,0.132903 0.238776,0 0.518873,-0.04647 0.819689,-0.132903 0.300816,-0.08643 0.619232,-0.209131 0.942234,-0.363004 0.323003,-0.153872 0.645833,-0.336649 0.953543,-0.540113 0.30831,-0.203746 0.59986,-0.429596 0.85362,-0.664231 0.25376,-0.234635 0.45072,-0.460485 0.58312,-0.664231 0.1324,-0.203747 0.2049,-0.386241 0.21473,-0.540113 0.01,-0.153873 -0.0432,-0.276858 -0.15706,-0.363004 -0.11387,-0.08643 -0.29344,-0.132903 -0.53222,-0.132903 -0.23877,0 -0.51887,0.04647 -0.81969,0.132903 -0.30081,0.08643 -0.61923,0.209131 -0.942231,0.363004 -0.323002,0.153872 -0.645831,0.336649 -0.953544,0.540113 -0.308307,0.203746 -0.599859,0.429596 -0.853617,0.664231 -0.253759,0.234635 -0.450723,0.460485 -0.583121,0.664231 -0.05497,0.08416 -0.05223,0.145088 -0.08623,0.221316 -0.420657,0.238036 -0.839571,0.426197 -1.439762,0.531329 3.298805,-1.983626 0.530393,-1.76231 2.637959,-3.489199 -0.401891,0.08416 -1.302201,0.65318 -1.82571,1.354817 0.253535,-0.985295 1.459739,-1.833154 2.956193,-2.683279 -1.189694,0.56675 -2.130232,0.564483 -3.280712,1.361617 2.199664,-2.428525 7.582925,-4.53967 10.628745,-4.53967 h 0.21628 c 1.90934,0 2.92829,1.682682 0.75881,3.760389 0.15444,-0.390775 -0.21478,-1.147953 -0.74568,-1.147953 0.17216,1.133501 -1.37714,2.833752 -4.38542,4.463159 1.24154,-1.062657 1.27348,-1.630541 1.15411,-1.992128 -0.81967,1.496505 -2.6634,3.20129 -5.851513,4.702328 0.522649,-0.367538 0.929765,-0.655447 1.207899,-0.991813 -0.358502,0.411744 -3.670318,2.319142 -6.231421,3.028713 m 0.0012,-0.0011" />
      <path
         inkscape:connector-curvature="0"
         style="fill:#ecac20;fill-opacity:1;fill-rule:nonzero;stroke:none;stroke-width:0.29057634"
         id="path75-5"
         d="m -37.319565,48.510096 c 0.08403,-0.637119 0.271455,-1.317571 1.251193,-2.223474 1.583288,-1.463968 3.826646,-2.635142 5.211136,-2.635142 h 0.0542 c 1.59411,0.05709 0.50224,1.962595 -2.57961,3.568567 -0.490649,0.240091 -1.125208,0.823629 -1.468993,1.409216 -0.260095,-0.292794 0.08484,-0.878381 1.006535,-1.463968 -0.567045,0.23687 -1.013745,0.583245 -1.428312,0.979102 -0.10685,-0.04919 -0.212032,-0.100721 -0.386788,-0.100721 -0.239929,0 -0.521696,0.04802 -0.825619,0.13732 -0.264466,0.07788 -0.548577,0.197928 -0.832637,0.329392 m -0.0012,0" />
    </g>
    <path
       d="m 22.168839,30.988146 c 0.273984,1.43236 1.916181,2.30007 3.668828,1.93412 1.74922,-0.363275 2.946192,-1.819049 2.672208,-3.250739 -0.273985,-1.432359 -1.916182,-2.297394 -3.668828,-1.934119 -1.749223,0.363274 -2.946195,1.819049 -2.672208,3.250738 m 0,0"
       id="path71"
       inkscape:connector-curvature="0"
       style="fill:#00ccff;fill-opacity:1;fill-rule:evenodd;stroke:none;stroke-width:0.75684321" />
    <path
       d="m 25.38388,29.778569 c -0.50516,0.284999 -1.100221,0.311092 -1.327971,0.05754 -0.231175,-0.253557 -0.0068,-0.689752 0.498311,-0.974753 0.505158,-0.285 1.096795,-0.311092 1.327969,-0.0602 0.227749,0.253555 0.0068,0.689752 -0.498309,0.977428 m 0,0"
       id="path73"
       inkscape:connector-curvature="0"
       style="fill:#ffffff;fill-opacity:0.76499999;fill-rule:evenodd;stroke:none;stroke-width:0.75684321" />
    <path
       d="m 23.353823,29.55378 c -0.277411,0.357923 -0.408409,0.776057 -0.33135,1.188838 0.177233,0.909191 1.303996,1.442396 2.518091,1.191514 1.214096,-0.253556 2.056599,-1.194189 1.879365,-2.106056 -0.07021,-0.371303 -0.301383,-0.682394 -0.631877,-0.901831 0.60191,0.253556 1.036861,0.708486 1.150736,1.288522 0.207202,1.095175 -0.805686,2.229153 -2.264656,2.529542 -1.461538,0.303063 -2.812626,-0.337184 -3.023252,-1.43236 -0.120723,-0.627534 0.163536,-1.269788 0.702087,-1.758837 m 0,0"
       id="path75"
       inkscape:connector-curvature="0"
       style="fill:#ffffff;fill-opacity:0.10199998;fill-rule:evenodd;stroke:none;stroke-width:0.75684321" />
  </g>
</svg>
