<?xml version="1.0" encoding="UTF-8" standalone="no"?>
<svg
   xmlns:dc="http://purl.org/dc/elements/1.1/"
   xmlns:cc="http://creativecommons.org/ns#"
   xmlns:rdf="http://www.w3.org/1999/02/22-rdf-syntax-ns#"
   xmlns:svg="http://www.w3.org/2000/svg"
   xmlns="http://www.w3.org/2000/svg"
   xmlns:sodipodi="http://sodipodi.sourceforge.net/DTD/sodipodi-0.dtd"
   xmlns:inkscape="http://www.inkscape.org/namespaces/inkscape"
   viewBox="0 0 48 48"
   version="1.1"
   id="svg34"
   sodipodi:docname="jabref.svg"
   inkscape:version="0.92.2pre0 (973e216, 2017-07-25)">
  <metadata
     id="metadata38">
    <rdf:RDF>
      <cc:Work
         rdf:about="">
        <dc:format>image/svg+xml</dc:format>
        <dc:type
           rdf:resource="http://purl.org/dc/dcmitype/StillImage" />
      </cc:Work>
    </rdf:RDF>
  </metadata>
  <sodipodi:namedview
     pagecolor="#ffffff"
     bordercolor="#666666"
     borderopacity="1"
     objecttolerance="10"
     gridtolerance="10"
     guidetolerance="10"
     inkscape:pageopacity="0"
     inkscape:pageshadow="2"
     inkscape:window-width="1360"
     inkscape:window-height="658"
     id="namedview36"
     showgrid="false"
     inkscape:zoom="4.9166667"
     inkscape:cx="24"
     inkscape:cy="24"
     inkscape:window-x="0"
     inkscape:window-y="28"
     inkscape:window-maximized="1"
     inkscape:current-layer="svg34" />
  <defs
     id="defs12">
    <linearGradient
       id="linearGradient3764"
       x1="1"
       x2="47"
       gradientUnits="userSpaceOnUse"
       gradientTransform="rotate(-90,23.999998,24)">
      <stop
         style="stop-color:#4e5e8e;stop-opacity:1"
         id="stop2" />
      <stop
         offset="1"
         style="stop-color:#55679b;stop-opacity:1"
         id="stop4" />
    </linearGradient>
    <linearGradient
       id="linearGradient4154"
       y1="36"
       x2="0"
       y2="12"
       gradientUnits="userSpaceOnUse">
      <stop
         style="stop-color:#f4f4f4;stop-opacity:1"
         id="stop7" />
      <stop
         offset="1"
         style="stop-color:#f9f9f9;stop-opacity:1"
         id="stop9" />
    </linearGradient>
  </defs>
  <path
     inkscape:connector-curvature="0"
     id="path22"
     style="fill:#008edb;fill-opacity:1"
     d="M 24,1 C 36.703,1 47,11.297 47,24 47,36.703 36.703,47 24,47 11.297,47 1,36.703 1,24 1,11.297 11.297,1 24,1 Z" />
  <g
     id="g857"
     transform="translate(-0.09449942,-0.8830098)">
    <path
       style="fill:#ffffff"
       inkscape:connector-curvature="0"
       d="m 8.9,24.3 c 0,-2.5 0.5,-4.4 1.6,-5.9 0.8,-1.2 2,-2 3.5,-2.6 1,-0.4 2.1,-0.6 3.2,-0.6 1.1,0 2.1,0.2 3.1,0.6 1.5,0.5 2.6,1.4 3.5,2.6 1.1,1.5 1.7,3.5 1.7,5.9 0,2.5 -0.5,4.4 -1.6,5.9 -0.8,1.2 -2,2 -3.5,2.6 -1,0.4 -2.1,0.6 -3.2,0.6 -1.1,0 -2.1,-0.2 -3.1,-0.6 C 12.6,32.3 11.5,31.4 10.6,30.2 9.4,28.7 8.9,26.7 8.9,24.3 Z m 3.6,0 c 0,2.2 0.5,3.8 1.6,4.8 0.8,0.8 1.8,1.2 3.1,1.2 1.2,0 2.2,-0.4 3.1,-1.2 1.1,-1 1.6,-2.6 1.6,-4.8 0,-2.2 -0.5,-3.8 -1.6,-4.8 -0.8,-0.8 -1.8,-1.2 -3.1,-1.2 -1.2,0 -2.2,0.4 -3.1,1.2 -1.1,1 -1.6,2.6 -1.6,4.8 z"
       id="path853" />
    <path
       style="fill:#ffffff"
       inkscape:connector-curvature="0"
       d="m 39.6,24.1 v 8.8 h -3.4 v -7.8 c 0,-0.7 -0.1,-1.3 -0.3,-1.6 -0.3,-0.6 -1,-0.9 -1.9,-0.9 -0.8,0 -1.4,0.3 -1.9,0.8 -0.5,0.5 -0.7,1.2 -0.7,2.2 v 7.3 H 28 V 20.1 h 3.2 V 22 c 0.5,-0.8 1.1,-1.4 1.7,-1.7 0.6,-0.3 1.3,-0.5 2.1,-0.5 1.3,0 2.4,0.4 3.2,1.1 1,0.8 1.4,1.8 1.4,3.2 z"
       id="path855" />
  </g>
</svg>
