<?xml version="1.0" encoding="UTF-8" standalone="no"?>
<svg
   xmlns:dc="http://purl.org/dc/elements/1.1/"
   xmlns:cc="http://creativecommons.org/ns#"
   xmlns:rdf="http://www.w3.org/1999/02/22-rdf-syntax-ns#"
   xmlns:svg="http://www.w3.org/2000/svg"
   xmlns="http://www.w3.org/2000/svg"
   xmlns:sodipodi="http://sodipodi.sourceforge.net/DTD/sodipodi-0.dtd"
   xmlns:inkscape="http://www.inkscape.org/namespaces/inkscape"
   viewBox="0 0 48 48"
   version="1.1"
   id="svg35"
   sodipodi:docname="ipython-notebook.svg"
   inkscape:version="0.92.2pre0 (973e216, 2017-07-25)">
  <metadata
     id="metadata39">
    <rdf:RDF>
      <cc:Work
         rdf:about="">
        <dc:format>image/svg+xml</dc:format>
        <dc:type
           rdf:resource="http://purl.org/dc/dcmitype/StillImage" />
      </cc:Work>
    </rdf:RDF>
  </metadata>
  <sodipodi:namedview
     pagecolor="#ffffff"
     bordercolor="#666666"
     borderopacity="1"
     objecttolerance="10"
     gridtolerance="10"
     guidetolerance="10"
     inkscape:pageopacity="0"
     inkscape:pageshadow="2"
     inkscape:window-width="1360"
     inkscape:window-height="658"
     id="namedview37"
     showgrid="false"
     inkscape:zoom="4.9166667"
     inkscape:cx="-11.389831"
     inkscape:cy="24"
     inkscape:window-x="0"
     inkscape:window-y="28"
     inkscape:window-maximized="1"
     inkscape:current-layer="svg35" />
  <defs
     id="defs7">
    <linearGradient
       id="linearGradient3764"
       x1="1"
       x2="47"
       gradientUnits="userSpaceOnUse"
       gradientTransform="matrix(0,-1,1,0,-1.5e-6,47.999998)">
      <stop
         style="stop-color:#e4e4e4;stop-opacity:1"
         id="stop2" />
      <stop
         offset="1"
         style="stop-color:#eee;stop-opacity:1"
         id="stop4" />
    </linearGradient>
    <rect
       rx="2"
       height="40"
       width="36"
       y="4"
       x="6"
       id="path-1" />
    <filter
       id="filter-2"
       filterUnits="objectBoundingBox"
       height="200%"
       width="200%"
       y="-50%"
       x="-50%">
      <feOffset
         id="feOffset46"
         result="shadowOffsetOuter1"
         in="SourceAlpha"
         dy="1"
         dx="0" />
      <feGaussianBlur
         id="feGaussianBlur48"
         result="shadowBlurOuter1"
         in="shadowOffsetOuter1"
         stdDeviation="0.5" />
      <feColorMatrix
         id="feColorMatrix50"
         in="shadowBlurOuter1"
         type="matrix"
         values="0 0 0 0 0   0 0 0 0 0   0 0 0 0 0  0 0 0 0.2 0" />
    </filter>
  </defs>
  <g
     id="g15">
    <path
       d="m 36.31 5 c 5.859 4.062 9.688 10.831 9.688 18.5 c 0 12.426 -10.07 22.5 -22.5 22.5 c -7.669 0 -14.438 -3.828 -18.5 -9.688 c 1.037 1.822 2.306 3.499 3.781 4.969 c 4.085 3.712 9.514 5.969 15.469 5.969 c 12.703 0 23 -10.298 23 -23 c 0 -5.954 -2.256 -11.384 -5.969 -15.469 c -1.469 -1.475 -3.147 -2.744 -4.969 -3.781 z m 4.969 3.781 c 3.854 4.113 6.219 9.637 6.219 15.719 c 0 12.703 -10.297 23 -23 23 c -6.081 0 -11.606 -2.364 -15.719 -6.219 c 4.16 4.144 9.883 6.719 16.219 6.719 c 12.703 0 23 -10.298 23 -23 c 0 -6.335 -2.575 -12.06 -6.719 -16.219 z"
       style="opacity:0.05"
       id="path9" />
    <path
       d="m 41.28 8.781 c 3.712 4.085 5.969 9.514 5.969 15.469 c 0 12.703 -10.297 23 -23 23 c -5.954 0 -11.384 -2.256 -15.469 -5.969 c 4.113 3.854 9.637 6.219 15.719 6.219 c 12.703 0 23 -10.298 23 -23 c 0 -6.081 -2.364 -11.606 -6.219 -15.719 z"
       style="opacity:0.1"
       id="path11" />
    <path
       d="m 31.25 2.375 c 8.615 3.154 14.75 11.417 14.75 21.13 c 0 12.426 -10.07 22.5 -22.5 22.5 c -9.708 0 -17.971 -6.135 -21.12 -14.75 a 23 23 0 0 0 44.875 -7 a 23 23 0 0 0 -16 -21.875 z"
       style="opacity:0.2"
       id="path13" />
  </g>
  <g
     id="g19"
     style="fill:#2d31c4;fill-opacity:1">
    <path
       d="m 24 1 c 12.703 0 23 10.297 23 23 c 0 12.703 -10.297 23 -23 23 -12.703 0 -23 -10.297 -23 -23 0 -12.703 10.297 -23 23 -23 z"
       style="fill:#2d31c4;fill-opacity:1"
       id="path17" />
  </g>
  <path
     id="åŽ"
     d="m 16.799094,17.66411 v 0.968562 h 6.499471 v 3.486819 h 1.220713 v -3.486819 h 6.565474 V 17.66411 h -6.565474 v -1.355985 h -1.220713 v 1.355985 z m 12.108165,-1.563534 c 0.692831,0 1.220713,-0.110693 1.550638,-0.332078 0.362907,-0.249059 0.626855,-0.968562 0.758822,-2.130835 l -1.121742,-0.304405 c -0.08249,0.899378 -0.247449,1.452842 -0.478389,1.646554 -0.18146,0.138366 -0.494887,0.207549 -0.923784,0.207549 h -2.474422 c -0.461893,0 -0.692832,-0.166039 -0.692832,-0.48428 v -1.314476 c 1.897048,-0.761012 3.546671,-1.646555 4.965329,-2.656625 l -0.808301,-0.691829 c -1.088746,0.830195 -2.474422,1.605044 -4.157028,2.296873 V 9.6112164 h -1.138239 v 3.1685786 c -0.940282,0.345914 -1.963038,0.677992 -3.084779,0.982398 l 0.659849,0.830194 c 0.824812,-0.249058 1.633113,-0.498116 2.42493,-0.774849 v 1.079254 c 0,0.802522 0.494887,1.203784 1.484648,1.203784 z m -9.8317,-3.154742 v 3.639022 h 1.154724 v -4.57991 c 0.758822,-0.691829 1.369178,-1.439005 1.864065,-2.2276907 L 21.08809,9.3898308 c -0.956779,1.4666782 -2.457925,2.7534802 -4.519948,3.8880812 l 0.379417,1.023908 c 0.775319,-0.428935 1.484648,-0.885542 2.128,-1.355986 z m -2.325957,13.499897 v 0.871704 h 3.843601 v 0.954725 h 1.220713 v -0.954725 h 4.239503 v 0.968562 h 1.022769 v 0.5673 h -7.439764 v 1.854102 h -1.501146 v -2.324546 h -1.022769 v 3.154742 h 2.523915 v 1.397495 h -3.200252 v 0.830196 h 0.940284 c -0.06594,1.61888 -0.42891,2.725807 -1.088749,3.334617 l 0.824802,0.539627 c 0.725839,-0.733339 1.138238,-2.020142 1.204229,-3.874244 h 1.319686 v 0.152202 c -0.03297,1.577371 -0.329925,2.794991 -0.923785,3.680533 l 0.857794,0.650319 c 0.72584,-1.09309 1.105244,-2.532095 1.138239,-4.330852 v -4.220159 h 6.384001 c 0.06594,1.798756 0.230952,3.265434 0.494887,4.400035 0.09891,0.470444 0.230952,0.899377 0.379417,1.300639 -0.461892,0.65032 -1.006271,1.189947 -1.633126,1.632717 v -0.5673 h -1.451653 v -1.314475 h 1.435169 V 32.519993 H 24.882198 V 31.31621 h 1.451653 v -0.802523 h -4.701395 v 6.752255 h 4.321991 l -0.280432,0.152202 0.560864,0.747176 c 0.824812,-0.415097 1.550638,-0.982397 2.177493,-1.7019 0.131967,0.276732 0.263934,0.511954 0.428897,0.73334 0.494887,0.664155 0.973276,1.01007 1.402173,1.01007 0.527882,0 0.940282,-0.857868 1.220714,-2.573605 l -0.857794,-0.401261 c -0.164962,1.245293 -0.36292,1.867939 -0.560877,1.881776 -0.164962,0 -0.4124,-0.276733 -0.709329,-0.802523 -0.115457,-0.193712 -0.214455,-0.428933 -0.313427,-0.705665 0.775319,-1.245293 1.286703,-2.836501 1.550638,-4.801296 l -1.006272,-0.179875 c -0.164962,1.369821 -0.478376,2.559768 -0.940268,3.583676 -0.03297,-0.138367 -0.06594,-0.290569 -0.09904,-0.456608 -0.197945,-0.940888 -0.329912,-2.296874 -0.395902,-4.05412 h 3.101276 V 28.853297 H 30.40835 c -0.164963,-0.44277 -0.346422,-0.830195 -0.511372,-1.17611 l -1.006272,0.138366 c 0.197958,0.318241 0.379418,0.664156 0.54438,1.037744 h -1.319699 v -0.774849 h -0.841296 v -0.761013 h 3.843601 v -0.871704 h -3.843601 v -0.871705 h -1.220714 v 0.871705 h -4.239512 v -0.885542 h -1.220713 v 0.885542 z m 7.192314,4.870479 v 1.203783 H 22.605733 V 31.31621 Z m -1.336183,1.937122 h 2.78785 v 1.148437 h -2.78785 z m 0,1.895613 h 1.336183 v 1.314475 h -1.336183 z"
     inkscape:connector-curvature="0"
     style="fill:#ffffff;fill-rule:evenodd;stroke:none;stroke-width:1" />
</svg>
