<?xml version="1.0" encoding="UTF-8" standalone="no"?>
<svg
   xmlns:dc="http://purl.org/dc/elements/1.1/"
   xmlns:cc="http://creativecommons.org/ns#"
   xmlns:rdf="http://www.w3.org/1999/02/22-rdf-syntax-ns#"
   xmlns:svg="http://www.w3.org/2000/svg"
   xmlns="http://www.w3.org/2000/svg"
   xmlns:sodipodi="http://sodipodi.sourceforge.net/DTD/sodipodi-0.dtd"
   xmlns:inkscape="http://www.inkscape.org/namespaces/inkscape"
   width="48px"
   height="48px"
   viewBox="0 0 48 48"
   version="1.1"
   id="svg25"
   sodipodi:docname="apps.com.letv.lecloud.disk.svg"
   inkscape:version="0.92.1 r15371">
  <metadata
     id="metadata29">
    <rdf:RDF>
      <cc:Work
         rdf:about="">
        <dc:format>image/svg+xml</dc:format>
        <dc:type
           rdf:resource="http://purl.org/dc/dcmitype/StillImage" />
      </cc:Work>
    </rdf:RDF>
  </metadata>
  <sodipodi:namedview
     pagecolor="#ffffff"
     bordercolor="#666666"
     borderopacity="1"
     objecttolerance="10"
     gridtolerance="10"
     guidetolerance="10"
     inkscape:pageopacity="0"
     inkscape:pageshadow="2"
     inkscape:window-width="1600"
     inkscape:window-height="875"
     id="namedview27"
     showgrid="false"
     inkscape:zoom="4.9166667"
     inkscape:cx="24"
     inkscape:cy="24"
     inkscape:window-x="0"
     inkscape:window-y="0"
     inkscape:window-maximized="1"
     inkscape:current-layer="svg25" />
  <!-- Generator: Sketch 3.6.1 (26313) - http://www.bohemiancoding.com/sketch -->
  <title
     id="title2">乐视云盘</title>
  <desc
     id="desc4">Created with Sketch.</desc>
  <defs
     id="defs19">
    <filter
       x="-50%"
       y="-50%"
       width="200%"
       height="200%"
       filterUnits="objectBoundingBox"
       id="filter-1">
      <feOffset
         dx="0"
         dy="1"
         in="SourceAlpha"
         result="shadowOffsetOuter1"
         id="feOffset6" />
      <feGaussianBlur
         stdDeviation="0.5"
         in="shadowOffsetOuter1"
         result="shadowBlurOuter1"
         id="feGaussianBlur8" />
      <feColorMatrix
         values="0 0 0 0 0   0 0 0 0 0   0 0 0 0 0  0 0 0 0.21 0"
         in="shadowBlurOuter1"
         type="matrix"
         result="shadowMatrixOuter1"
         id="feColorMatrix10" />
      <feMerge
         id="feMerge16">
        <feMergeNode
           in="shadowMatrixOuter1"
           id="feMergeNode12" />
        <feMergeNode
           in="SourceGraphic"
           id="feMergeNode14" />
      </feMerge>
    </filter>
  </defs>
  <g
     id="Page-1"
     transform="matrix(1.0460104,0,0,1.0556957,-0.69747045,-1.3366957)"
     style="fill:none;fill-rule:evenodd;stroke:none;stroke-width:1">
    <g
       id="乐视云盘">
      <rect
         id="Rectangle-4"
         x="3"
         y="3"
         width="42"
         height="42"
         rx="44"
         style="fill:#089eef;filter:url(#filter-1)" />
      <path
         d="m 34.265226,27.01799 c -0.766685,2.254451 -2.876616,3.873902 -5.359391,3.873902 -3.130319,0 -5.667944,-2.574363 -5.667944,-5.75 0,-3.175637 2.537625,-5.75 5.667944,-5.75 2.631581,0 4.844285,1.819392 5.482561,4.285896 l -7.933564,3.018158 c 0,0 1.072314,3.108108 4.59563,2.175676 1.600217,-0.423492 2.600046,-1.167552 3.214764,-1.853632 z M 22.808016,12.864928 c 2.903762,0.01226 5.486176,1.822289 6.602517,4.550815 l 0.416185,1.017226 0.920302,-0.584255 c 0.640737,-0.406773 1.374966,-0.624528 2.141694,-0.624528 2.279005,0 4.136066,1.932252 4.136066,4.327443 0,0.08349 -0.0022,0.166645 -0.0067,0.249414 l -0.02452,0.452892 0.336081,0.299141 c 1.15419,1.027332 1.832138,2.525718 1.832138,4.14287 C 39.161748,29.705137 36.82631,32 33.957197,32 H 14.506195 c -3.125529,0 -5.6679431,-2.504068 -5.6679431,-5.77027 0,-1.973216 0.9345169,-3.778502 2.4654631,-4.873126 0.414921,-0.296668 0.514217,-0.878394 0.221782,-1.299322 -0.292434,-0.420928 -0.865859,-0.521661 -1.28078,-0.224993 C 8.2280169,21.274226 7,23.64649 7,26.22973 7,30.516395 10.355849,34 14.506195,34 H 33.957198 C 37.852111,34 41,30.724654 41,26.695946 c 0,-2.157471 -0.908523,-4.16547 -2.458026,-5.544665 0,0 0.321058,0.517951 0.321058,0.400348 0,-3.414708 -2.669512,-6.192308 -5.974318,-6.192308 -1.114739,0 -2.186327,0.317808 -3.116852,0.908553 l 1.336486,0.432971 C 29.707225,13.276267 26.447706,11 22.778328,11 18.155056,11 14.500725,14.301802 14,19 c -0.01968,0.18467 -0.02497,0.366472 0,0.526047 V 31 h 9 V 29 H 18 V 18 c 0,0 0,-3.513514 3.81257,-4.756757 0.434316,-0.141626 0.75974,-0.267119 0.995446,-0.378315 z m 3.340441,11.810748 5.974318,-2.020271 c 0,0 -1.225501,-2.02027 -3.829691,-1.243243 -2.60419,0.777027 -2.144627,3.263514 -2.144627,3.263514 z"
         id="Combined-Shape"
         inkscape:connector-curvature="0"
         style="fill:#ffffff" />
    </g>
  </g>
</svg>
