<?xml version="1.0" encoding="UTF-8" standalone="no"?>
<svg
   xmlns:dc="http://purl.org/dc/elements/1.1/"
   xmlns:cc="http://creativecommons.org/ns#"
   xmlns:rdf="http://www.w3.org/1999/02/22-rdf-syntax-ns#"
   xmlns:svg="http://www.w3.org/2000/svg"
   xmlns="http://www.w3.org/2000/svg"
   xmlns:sodipodi="http://sodipodi.sourceforge.net/DTD/sodipodi-0.dtd"
   xmlns:inkscape="http://www.inkscape.org/namespaces/inkscape"
   viewBox="0 0 48 48"
   version="1.1"
   id="svg57"
   sodipodi:docname="apps.com.tonghuashun.svg"
   inkscape:version="0.92.2pre0 (973e216, 2017-07-25)">
  <metadata
     id="metadata61">
    <rdf:RDF>
      <cc:Work
         rdf:about="">
        <dc:format>image/svg+xml</dc:format>
        <dc:type
           rdf:resource="http://purl.org/dc/dcmitype/StillImage" />
      </cc:Work>
    </rdf:RDF>
  </metadata>
  <sodipodi:namedview
     pagecolor="#ffffff"
     bordercolor="#666666"
     borderopacity="1"
     objecttolerance="10"
     gridtolerance="10"
     guidetolerance="10"
     inkscape:pageopacity="0"
     inkscape:pageshadow="2"
     inkscape:window-width="1360"
     inkscape:window-height="691"
     id="namedview59"
     showgrid="false"
     inkscape:zoom="4.9166667"
     inkscape:cx="-10.983051"
     inkscape:cy="23.186441"
     inkscape:window-x="0"
     inkscape:window-y="0"
     inkscape:window-maximized="1"
     inkscape:current-layer="svg57"
     showguides="false" />
  <defs
     id="defs17">
    <linearGradient
       id="linearGradient3764"
       x1="1"
       x2="47"
       gradientUnits="userSpaceOnUse"
       gradientTransform="rotate(-90,23.999998,24)">
      <stop
         stop-color="#2373df"
         stop-opacity="1"
         id="stop2" />
      <stop
         offset="1"
         stop-color="#357ee2"
         stop-opacity="1"
         id="stop4" />
    </linearGradient>
    <clipPath
       id="clipPath-650690542">
      <g
         transform="translate(0,-1004.3622)"
         id="g9">
        <path
           d="m -24 13 c 0 1.105 -0.672 2 -1.5 2 -0.828 0 -1.5 -0.895 -1.5 -2 0 -1.105 0.672 -2 1.5 -2 0.828 0 1.5 0.895 1.5 2 z"
           transform="matrix(15.333333,0,0,11.5,414.99999,878.8622)"
           fill="#1890d0"
           id="path7" />
      </g>
    </clipPath>
    <clipPath
       id="clipPath-658742145">
      <g
         transform="translate(0,-1004.3622)"
         id="g14">
        <path
           d="m -24 13 c 0 1.105 -0.672 2 -1.5 2 -0.828 0 -1.5 -0.895 -1.5 -2 0 -1.105 0.672 -2 1.5 -2 0.828 0 1.5 0.895 1.5 2 z"
           transform="matrix(15.333333,0,0,11.5,414.99999,878.8622)"
           fill="#1890d0"
           id="path12" />
      </g>
    </clipPath>
    <filter
       id="filter-1"
       filterUnits="objectBoundingBox"
       height="200%"
       width="200%"
       y="-50%"
       x="-50%">
      <feOffset
         id="feOffset834"
         result="shadowOffsetOuter1"
         in="SourceAlpha"
         dy="1"
         dx="0" />
      <feGaussianBlur
         id="feGaussianBlur836"
         result="shadowBlurOuter1"
         in="shadowOffsetOuter1"
         stdDeviation="0.5" />
      <feColorMatrix
         id="feColorMatrix838"
         result="shadowMatrixOuter1"
         type="matrix"
         in="shadowBlurOuter1"
         values="0 0 0 0 0   0 0 0 0 0   0 0 0 0 0  0 0 0 0.21 0" />
      <feMerge
         id="feMerge844">
        <feMergeNode
           id="feMergeNode840"
           in="shadowMatrixOuter1" />
        <feMergeNode
           id="feMergeNode842"
           in="SourceGraphic" />
      </feMerge>
    </filter>
    <filter
       id="filter-1-3"
       filterUnits="objectBoundingBox"
       height="200%"
       width="200%"
       y="-50%"
       x="-50%">
      <feOffset
         id="feOffset856"
         result="shadowOffsetOuter1"
         in="SourceAlpha"
         dy="1"
         dx="0" />
      <feGaussianBlur
         id="feGaussianBlur858"
         result="shadowBlurOuter1"
         in="shadowOffsetOuter1"
         stdDeviation="0.5" />
      <feColorMatrix
         id="feColorMatrix860"
         result="shadowMatrixOuter1"
         type="matrix"
         in="shadowBlurOuter1"
         values="0 0 0 0 0   0 0 0 0 0   0 0 0 0 0  0 0 0 0.21 0" />
      <feMerge
         id="feMerge866">
        <feMergeNode
           id="feMergeNode862"
           in="shadowMatrixOuter1" />
        <feMergeNode
           id="feMergeNode864"
           in="SourceGraphic" />
      </feMerge>
    </filter>
  </defs>
  <g
     id="g25">
    <path
       d="m 36.31 5 c 5.859 4.062 9.688 10.831 9.688 18.5 c 0 12.426 -10.07 22.5 -22.5 22.5 c -7.669 0 -14.438 -3.828 -18.5 -9.688 c 1.037 1.822 2.306 3.499 3.781 4.969 c 4.085 3.712 9.514 5.969 15.469 5.969 c 12.703 0 23 -10.298 23 -23 c 0 -5.954 -2.256 -11.384 -5.969 -15.469 c -1.469 -1.475 -3.147 -2.744 -4.969 -3.781 z m 4.969 3.781 c 3.854 4.113 6.219 9.637 6.219 15.719 c 0 12.703 -10.297 23 -23 23 c -6.081 0 -11.606 -2.364 -15.719 -6.219 c 4.16 4.144 9.883 6.719 16.219 6.719 c 12.703 0 23 -10.298 23 -23 c 0 -6.335 -2.575 -12.06 -6.719 -16.219 z"
       opacity="0.05"
       id="path19" />
    <path
       d="m 41.28 8.781 c 3.712 4.085 5.969 9.514 5.969 15.469 c 0 12.703 -10.297 23 -23 23 c -5.954 0 -11.384 -2.256 -15.469 -5.969 c 4.113 3.854 9.637 6.219 15.719 6.219 c 12.703 0 23 -10.298 23 -23 c 0 -6.081 -2.364 -11.606 -6.219 -15.719 z"
       opacity="0.1"
       id="path21" />
    <path
       d="m 31.25 2.375 c 8.615 3.154 14.75 11.417 14.75 21.13 c 0 12.426 -10.07 22.5 -22.5 22.5 c -9.708 0 -17.971 -6.135 -21.12 -14.75 a 23 23 0 0 0 44.875 -7 a 23 23 0 0 0 -16 -21.875 z"
       opacity="0.2"
       id="path23" />
  </g>
  <path
     inkscape:connector-curvature="0"
     style="fill:#ff2a2a;fill-opacity:1"
     id="path27"
     d="m 24.20339,0.79661017 c 12.703,0 23,10.29699983 23,22.99999983 0,12.703 -10.297,23 -23,23 -12.703,0 -23.0000002,-10.297 -23.0000002,-23 0,-12.703 10.2970002,-22.99999983 23.0000002,-22.99999983 z" />
  <g
     id="g31" />
  <g
     id="g55">
    <path
       d="m 40.03 7.531 c 3.712 4.084 5.969 9.514 5.969 15.469 0 12.703 -10.297 23 -23 23 c -5.954 0 -11.384 -2.256 -15.469 -5.969 4.178 4.291 10.01 6.969 16.469 6.969 c 12.703 0 23 -10.298 23 -23 0 -6.462 -2.677 -12.291 -6.969 -16.469 z"
       id="path53"
       opacity="0.1" />
  </g>
  <path
     id="Combined-Shape"
     d="m 40.966101,11.620705 v 11.953891 l -3.37524,-1.422904 c 0,0 -5.075334,8.681262 -17.565428,11.852951 C 12.313306,35.963032 8.3372002,35.197375 6.4237282,34.325 v -9.73518 c 0.1823492,-0.179039 0.3749793,-0.360543 0.5783693,-0.544479 6.3917405,-5.780414 13.4277705,-3.932913 13.4277705,-3.932913 0,0 5.334535,1.346815 -1.040509,5.829027 -6.375044,4.482212 -10.7257852,2.506795 -10.7257852,2.506795 0,0 6.5070292,0.282267 8.2729272,-3.647062 1e-6,-1.612877 -2.321667,-1.433734 -2.321667,-1.433734 0,0 -5.7614989,0.405926 -7.5562852,4.680919 -1.7947871,4.274993 6.4222202,3.046685 6.4222202,3.046685 0,0 11.923988,-2.097285 17.688932,-11.604064 -1e-6,0 -3.619521,-1.796872 -3.619521,-1.796872 z"
     inkscape:connector-curvature="0"
     style="fill:#ffffff;fill-rule:evenodd;stroke:none;stroke-width:0.83572805" />
</svg>
