<?xml version="1.0" encoding="UTF-8" standalone="no"?>
<svg
   xmlns:dc="http://purl.org/dc/elements/1.1/"
   xmlns:cc="http://creativecommons.org/ns#"
   xmlns:rdf="http://www.w3.org/1999/02/22-rdf-syntax-ns#"
   xmlns:svg="http://www.w3.org/2000/svg"
   xmlns="http://www.w3.org/2000/svg"
   xmlns:sodipodi="http://sodipodi.sourceforge.net/DTD/sodipodi-0.dtd"
   xmlns:inkscape="http://www.inkscape.org/namespaces/inkscape"
   height="48"
   width="48"
   version="1"
   id="svg12"
   sodipodi:docname="1cestart.svg"
   inkscape:version="0.92.2pre0 (973e216, 2017-07-25)">
  <metadata
     id="metadata18">
    <rdf:RDF>
      <cc:Work
         rdf:about="">
        <dc:format>image/svg+xml</dc:format>
        <dc:type
           rdf:resource="http://purl.org/dc/dcmitype/StillImage" />
      </cc:Work>
    </rdf:RDF>
  </metadata>
  <defs
     id="defs16">
    <filter
       id="filter-1"
       filterUnits="objectBoundingBox"
       height="200%"
       width="200%"
       y="-50%"
       x="-50%">
      <feOffset
         id="feOffset823"
         result="shadowOffsetOuter1"
         in="SourceAlpha"
         dy="1"
         dx="0" />
      <feGaussianBlur
         id="feGaussianBlur825"
         result="shadowBlurOuter1"
         in="shadowOffsetOuter1"
         stdDeviation="0.5" />
      <feColorMatrix
         id="feColorMatrix827"
         result="shadowMatrixOuter1"
         type="matrix"
         in="shadowBlurOuter1"
         values="0 0 0 0 0   0 0 0 0 0   0 0 0 0 0  0 0 0 0.21 0" />
      <feMerge
         id="feMerge833">
        <feMergeNode
           id="feMergeNode829"
           in="shadowMatrixOuter1" />
        <feMergeNode
           id="feMergeNode831"
           in="SourceGraphic" />
      </feMerge>
    </filter>
  </defs>
  <sodipodi:namedview
     pagecolor="#ffffff"
     bordercolor="#666666"
     borderopacity="1"
     objecttolerance="10"
     gridtolerance="10"
     guidetolerance="10"
     inkscape:pageopacity="0"
     inkscape:pageshadow="2"
     inkscape:window-width="1360"
     inkscape:window-height="658"
     id="namedview14"
     showgrid="false"
     inkscape:zoom="4.9166667"
     inkscape:cx="-9.9661012"
     inkscape:cy="24"
     inkscape:window-x="0"
     inkscape:window-y="28"
     inkscape:window-maximized="1"
     inkscape:current-layer="svg12" />
  <rect
     transform="matrix(0,-1,-1,0,0,0)"
     rx="22.381149"
     ry="22.644068"
     height="45.288136"
     width="44.762299"
     y="-46.847458"
     x="-46.118229"
     id="rect2"
     style="fill:#fe9738;stroke-width:1.12561119;fill-opacity:1" />
  <path
     d="m 24.20339,1.3559323 c -12.544814,0 -22.644068,9.9819927 -22.644068,22.3811487 0,0.188003 0.00906,0.372646 0.013247,0.559529 C 1.872263,12.159313 11.848786,2.4749898 24.20305,2.4749898 c 12.354264,0 22.33158,9.6842112 22.630481,21.8216202 0.0045,-0.186726 0.01324,-0.371673 0.01324,-0.559529 0,-12.399156 -10.099254,-22.3811487 -22.644068,-22.3811487 z"
     id="path4"
     inkscape:connector-curvature="0"
     style="opacity:0.2;fill:#ffffff;stroke-width:1.12561119" />
  <path
     style="fill:#e9e9e9;fill-rule:evenodd;stroke:none;stroke-width:1"
     inkscape:connector-curvature="0"
     d="m 33.397359,28.848442 c -0.915519,0.611571 -1.902873,1.977087 -2.198588,3.026096 l -1.793895,6.363602 c -0.298727,1.059697 -1.250468,1.359228 -2.106299,0.684378 L 22.106854,34.82868 c -0.864548,-0.681724 -2.468341,-1.198786 -3.557389,-1.155866 l -6.60649,0.260367 c -1.100143,0.04336 -1.679118,-0.769242 -1.301764,-1.791725 l 2.28914,-6.202688 c 0.381199,-1.032899 0.377354,-2.717977 10e-7,-3.74046 L 10.641211,15.99562 c -0.381198,-1.0329 0.212716,-1.834644 1.301764,-1.791724 l 6.60649,0.260366 c 1.100143,0.04336 2.701558,-0.481017 3.557389,-1.155866 l 5.191723,-4.0938383 c 0.864549,-0.6817247 1.810584,-0.3646311 2.106299,0.6843781 l 1.793895,6.3636022 c 0.298728,1.059696 1.292301,2.420693 2.198587,3.026097 l 5.497802,3.672556 c 0.915521,0.611569 0.906287,1.60929 0,2.214693 z"
     id="Star-1" />
  <rect
     style="fill:#ee9a00;fill-rule:evenodd;stroke:none;stroke-width:1"
     id="Rectangle-1"
     x="17.796608"
     y="20.389832"
     width="3"
     height="8" />
  <path
     style="fill:#ee9a00;fill-rule:evenodd;stroke:none;stroke-width:1"
     inkscape:connector-curvature="0"
     d="m 30.805639,28.38983 -2.140115,-7 -2.868914,0.877115 1.871954,6.122885 z"
     id="Combined-Shape" />
  <rect
     style="fill:#ee9a00;fill-rule:evenodd;stroke:none;stroke-width:1"
     id="Rectangle-2"
     x="21.796608"
     y="17.389832"
     width="3"
     height="11" />
</svg>
