<?xml version="1.0" encoding="UTF-8" standalone="no"?>
<svg
   xmlns:dc="http://purl.org/dc/elements/1.1/"
   xmlns:cc="http://creativecommons.org/ns#"
   xmlns:rdf="http://www.w3.org/1999/02/22-rdf-syntax-ns#"
   xmlns:svg="http://www.w3.org/2000/svg"
   xmlns="http://www.w3.org/2000/svg"
   xmlns:sodipodi="http://sodipodi.sourceforge.net/DTD/sodipodi-0.dtd"
   xmlns:inkscape="http://www.inkscape.org/namespaces/inkscape"
   viewBox="0 0 48 48"
   id="svg2"
   version="1.1"
   inkscape:version="0.92.2pre0 (973e216, 2017-07-25)"
   sodipodi:docname="apps.com.airdroid.web.svg"
   width="51.200001"
   height="51.200001">
  <metadata
     id="metadata59">
    <rdf:RDF>
      <cc:Work
         rdf:about="">
        <dc:format>image/svg+xml</dc:format>
        <dc:type
           rdf:resource="http://purl.org/dc/dcmitype/StillImage" />
      </cc:Work>
    </rdf:RDF>
  </metadata>
  <sodipodi:namedview
     pagecolor="#ffffff"
     bordercolor="#666666"
     borderopacity="1"
     objecttolerance="10"
     gridtolerance="10"
     guidetolerance="10"
     inkscape:pageopacity="0"
     inkscape:pageshadow="2"
     inkscape:window-width="1360"
     inkscape:window-height="658"
     id="namedview57"
     showgrid="false"
     inkscape:zoom="4.9166667"
     inkscape:cx="23.389831"
     inkscape:cy="24"
     inkscape:window-x="0"
     inkscape:window-y="28"
     inkscape:window-maximized="1"
     inkscape:current-layer="svg2" />
  <defs
     id="defs4">
    <linearGradient
       id="linearGradient3764"
       y1="47"
       x2="0"
       y2="1"
       gradientUnits="userSpaceOnUse">
      <stop
         style="stop-color:#83c87e;stop-opacity:1"
         id="stop7" />
      <stop
         offset="1"
         style="stop-color:#91ce8c;stop-opacity:1"
         id="stop9" />
    </linearGradient>
    <clipPath
       id="clipPath-323124572">
      <g
         transform="translate(0,-1004.3622)"
         id="g12">
        <path
           d="m -24,13 c 0,1.105 -0.672,2 -1.5,2 -0.828,0 -1.5,-0.895 -1.5,-2 0,-1.105 0.672,-2 1.5,-2 0.828,0 1.5,0.895 1.5,2 z"
           transform="matrix(15.333333,0,0,11.5,414.99999,878.8622)"
           style="fill:#1890d0"
           id="path14"
           inkscape:connector-curvature="0" />
      </g>
    </clipPath>
    <clipPath
       id="clipPath-333423643">
      <g
         transform="translate(0,-1004.3622)"
         id="g17">
        <path
           d="m -24,13 c 0,1.105 -0.672,2 -1.5,2 -0.828,0 -1.5,-0.895 -1.5,-2 0,-1.105 0.672,-2 1.5,-2 0.828,0 1.5,0.895 1.5,2 z"
           transform="matrix(15.333333,0,0,11.5,414.99999,878.8622)"
           style="fill:#1890d0"
           id="path19"
           inkscape:connector-curvature="0" />
      </g>
    </clipPath>
  </defs>
  <path
     inkscape:connector-curvature="0"
     id="path31"
     style="fill:#00c15d;fill-opacity:1;stroke-width:1.00413656"
     d="m 24.190678,1 c 12.808312,0 23.190678,10.297 23.190678,23 0,12.703 -10.382366,23 -23.190678,23 C 11.382366,47 1,36.703 1,24 1,11.297 11.382366,1 24.190678,1 Z" />
  <g
     id="g33"
     transform="matrix(0.14456633,-1.0924896,1.1090322,0.14240994,-5.7043558,48.063559)">
    <g
       id="g35"
       clip-path="url(#clipPath-323124572)">
      <g
         transform="translate(1,1)"
         id="g37">
        <g
           style="opacity:0.1"
           id="g39">
          <!-- color: #91ce8c -->
          <g
             id="g41">
            <path
               d="M 21,30 30,18 18,27.5 11,22.285 C 11.102,22.187 34.98,11.953 35,12 L 29.5,36 M 17,35 v -5 l 5,3 c 0.059,0.035 -4.926,2 -5,2 m 0,0"
               style="fill:#000000"
               id="path43"
               inkscape:connector-curvature="0" />
          </g>
        </g>
      </g>
    </g>
  </g>
  <g
     id="g45"
     transform="matrix(0.14456633,-1.0924896,1.1090322,0.14240994,-5.7043558,48.063559)">
    <g
       id="g47"
       clip-path="url(#clipPath-333423643)">
      <!-- color: #91ce8c -->
      <g
         id="g49">
        <path
           d="M 21,30 30,18 18,27.5 11,22.285 C 11.102,22.187 34.98,11.953 35,12 L 29.5,36 M 17,35 v -5 l 5,3 c 0.059,0.035 -4.926,2 -5,2 m 0,0"
           style="fill:#ffffff"
           id="path51"
           inkscape:connector-curvature="0" />
      </g>
    </g>
  </g>
</svg>
