<?xml version="1.0" encoding="UTF-8" standalone="no"?>
<svg
   xmlns:dc="http://purl.org/dc/elements/1.1/"
   xmlns:cc="http://creativecommons.org/ns#"
   xmlns:rdf="http://www.w3.org/1999/02/22-rdf-syntax-ns#"
   xmlns:svg="http://www.w3.org/2000/svg"
   xmlns="http://www.w3.org/2000/svg"
   xmlns:sodipodi="http://sodipodi.sourceforge.net/DTD/sodipodi-0.dtd"
   xmlns:inkscape="http://www.inkscape.org/namespaces/inkscape"
   viewBox="0 0 48 48"
   version="1.1"
   id="svg93"
   sodipodi:docname="apps.com.baidu.music.pad.svg"
   inkscape:version="0.92.2pre0 (973e216, 2017-07-25)">
  <metadata
     id="metadata97">
    <rdf:RDF>
      <cc:Work
         rdf:about="">
        <dc:format>image/svg+xml</dc:format>
        <dc:type
           rdf:resource="http://purl.org/dc/dcmitype/StillImage" />
      </cc:Work>
    </rdf:RDF>
  </metadata>
  <sodipodi:namedview
     pagecolor="#ffffff"
     bordercolor="#666666"
     borderopacity="1"
     objecttolerance="10"
     gridtolerance="10"
     guidetolerance="10"
     inkscape:pageopacity="0"
     inkscape:pageshadow="2"
     inkscape:window-width="1360"
     inkscape:window-height="740"
     id="namedview95"
     showgrid="false"
     inkscape:zoom="4.9166667"
     inkscape:cx="-11.389831"
     inkscape:cy="24"
     inkscape:window-x="0"
     inkscape:window-y="0"
     inkscape:window-maximized="1"
     inkscape:current-layer="svg93" />
  <defs
     id="defs17">
    <linearGradient
       id="linearGradient3764"
       x1="1"
       x2="47"
       gradientUnits="userSpaceOnUse"
       gradientTransform="rotate(-90,23.999998,24)">
      <stop
         stop-color="#32a8ce"
         stop-opacity="1"
         id="stop2" />
      <stop
         offset="1"
         stop-color="#41afd2"
         stop-opacity="1"
         id="stop4" />
    </linearGradient>
    <clipPath
       id="clipPath-452468807">
      <g
         transform="translate(0,-1004.3622)"
         id="g9">
        <path
           d="m -24 13 c 0 1.105 -0.672 2 -1.5 2 -0.828 0 -1.5 -0.895 -1.5 -2 0 -1.105 0.672 -2 1.5 -2 0.828 0 1.5 0.895 1.5 2 z"
           transform="matrix(15.333333,0,0,11.5,414.99999,878.8622)"
           fill="#1890d0"
           id="path7" />
      </g>
    </clipPath>
    <clipPath
       id="clipPath-461194074">
      <g
         transform="translate(0,-1004.3622)"
         id="g14">
        <path
           d="m -24 13 c 0 1.105 -0.672 2 -1.5 2 -0.828 0 -1.5 -0.895 -1.5 -2 0 -1.105 0.672 -2 1.5 -2 0.828 0 1.5 0.895 1.5 2 z"
           transform="matrix(15.333333,0,0,11.5,414.99999,878.8622)"
           fill="#1890d0"
           id="path12" />
      </g>
    </clipPath>
    <filter
       id="filter-1"
       filterUnits="objectBoundingBox"
       height="200%"
       width="200%"
       y="-50%"
       x="-50%">
      <feOffset
         id="feOffset115"
         result="shadowOffsetOuter1"
         in="SourceAlpha"
         dy="1"
         dx="0" />
      <feGaussianBlur
         id="feGaussianBlur117"
         result="shadowBlurOuter1"
         in="shadowOffsetOuter1"
         stdDeviation="0.5" />
      <feColorMatrix
         id="feColorMatrix119"
         result="shadowMatrixOuter1"
         type="matrix"
         in="shadowBlurOuter1"
         values="0 0 0 0 0   0 0 0 0 0   0 0 0 0 0  0 0 0 0.21 0" />
      <feMerge
         id="feMerge125">
        <feMergeNode
           id="feMergeNode121"
           in="shadowMatrixOuter1" />
        <feMergeNode
           id="feMergeNode123"
           in="SourceGraphic" />
      </feMerge>
    </filter>
  </defs>
  <g
     id="g25">
    <path
       d="m 36.31 5 c 5.859 4.062 9.688 10.831 9.688 18.5 c 0 12.426 -10.07 22.5 -22.5 22.5 c -7.669 0 -14.438 -3.828 -18.5 -9.688 c 1.037 1.822 2.306 3.499 3.781 4.969 c 4.085 3.712 9.514 5.969 15.469 5.969 c 12.703 0 23 -10.298 23 -23 c 0 -5.954 -2.256 -11.384 -5.969 -15.469 c -1.469 -1.475 -3.147 -2.744 -4.969 -3.781 z m 4.969 3.781 c 3.854 4.113 6.219 9.637 6.219 15.719 c 0 12.703 -10.297 23 -23 23 c -6.081 0 -11.606 -2.364 -15.719 -6.219 c 4.16 4.144 9.883 6.719 16.219 6.719 c 12.703 0 23 -10.298 23 -23 c 0 -6.335 -2.575 -12.06 -6.719 -16.219 z"
       opacity="0.05"
       id="path19" />
    <path
       d="m 41.28 8.781 c 3.712 4.085 5.969 9.514 5.969 15.469 c 0 12.703 -10.297 23 -23 23 c -5.954 0 -11.384 -2.256 -15.469 -5.969 c 4.113 3.854 9.637 6.219 15.719 6.219 c 12.703 0 23 -10.298 23 -23 c 0 -6.081 -2.364 -11.606 -6.219 -15.719 z"
       opacity="0.1"
       id="path21" />
    <path
       d="m 31.25 2.375 c 8.615 3.154 14.75 11.417 14.75 21.13 c 0 12.426 -10.07 22.5 -22.5 22.5 c -9.708 0 -17.971 -6.135 -21.12 -14.75 a 23 23 0 0 0 44.875 -7 a 23 23 0 0 0 -16 -21.875 z"
       opacity="0.2"
       id="path23" />
  </g>
  <path
     inkscape:connector-curvature="0"
     style="fill:#3994ec;fill-opacity:1"
     id="path27"
     d="M 24,1 C 36.703,1 47,11.297 47,24 47,36.703 36.703,47 24,47 11.297,47 1,36.703 1,24 1,11.297 11.297,1 24,1 Z" />
  <g
     id="g31" />
  <path
     style="fill:#ffffff;stroke-width:1.02452171"
     inkscape:connector-curvature="0"
     d="m 35.039237,23.243072 c -0.311659,0 -0.623318,0 -0.934977,0.101037 0,-0.101037 0,-0.202075 0,-0.303113 0,-5.456037 -4.36323,-9.800658 -9.661438,-9.800658 -0.103887,0 -2.181615,0 -3.947685,0.909339 -2.077728,1.212453 -3.636025,3.334245 -4.05157,5.759151 -0.727205,-0.303114 -1.45441,-0.404151 -2.285502,-0.404151 -3.636025,0 -6.5448443,3.031131 -6.5448443,6.769526 0,3.738395 2.9088193,6.769526 6.5448443,6.769526 1.246637,0 2.389388,-0.404151 3.428252,-1.111416 0.31166,-0.202074 0.623319,-0.40415 0.831092,-0.606226 1.558296,0.909339 3.220479,1.515566 5.090435,1.515566 2.285501,0 4.778776,-0.808302 6.648731,-2.323868 0.934978,1.515566 2.701047,2.525944 4.67489,2.525944 3.012706,0 5.402094,-2.222829 5.402094,-4.950847 0,-2.728018 -2.181615,-4.84981 -5.194322,-4.84981 z M 9.2754036,26.37524 c 0,-2.930093 2.1816144,-5.25396 4.9865474,-5.25396 0.727206,0 1.454411,0.202075 2.077729,0.505189 0,0 0,0 0.103887,0 0,0.707263 0.207772,1.414527 0.415545,2.121791 -1.038864,-0.303113 -2.077728,-0.303113 -3.012706,0.101038 -0.519432,0.202075 -1.038865,0.606226 -1.45441,1.010377 0,0 0,0 0,0 -0.934978,0.909339 -1.142751,2.424905 -0.415546,3.53632 0.415546,0.606226 1.038864,1.010377 1.766069,1.212452 0.207773,0 0.31166,0.101038 0.519432,0.101038 0.519433,0 1.142751,-0.202076 1.558297,-0.505189 0.311659,-0.202075 0.415546,-0.707264 0.207773,-1.010377 -0.207773,-0.303113 -0.727205,-0.404151 -1.038864,-0.202075 -0.31166,0.202075 -0.623319,0.303113 -0.934978,0.202075 -0.31166,-0.101038 -0.519433,-0.202076 -0.727205,-0.505189 -0.415546,-0.606226 -0.207773,-1.414528 0.415545,-1.818679 0,0 0,0 0,0 0.207773,-0.202074 0.415546,-0.303113 0.727205,-0.40415 0.727205,-0.303113 1.45441,-0.303113 2.077729,0 0.727205,0.303113 1.350524,0.909339 1.662183,1.717641 0.415546,1.111415 0.207773,2.222829 -0.415546,3.132169 -0.934978,1.010377 -2.181615,1.616603 -3.532139,1.616603 C 11.560904,31.629201 9.2754036,29.204296 9.2754036,26.37524 Z m 10.1808694,3.839433 c 0.415546,-0.808302 0.623319,-1.717641 0.519432,-2.728018 1.142751,0.707264 2.493274,0.909339 3.947684,1.010377 0,0 5.817641,0 5.817641,-5.658111 0,-1.515566 -0.415546,-2.829056 -1.45441,-3.94047 -0.934978,-0.90934 -2.285502,-1.313492 -3.947685,-1.313492 -1.766069,0 -3.324366,1.414529 -3.324366,3.13217 0,1.717641 1.45441,3.132169 3.116593,3.132169 0.415546,0 0.831092,-0.303113 0.831092,-0.707264 0,-0.404151 -0.207773,-0.909339 -0.727205,-0.909339 -0.831092,0 -1.558297,-0.707264 -1.558297,-1.515566 0,-0.808301 0.831092,-1.515565 1.76607,-1.515565 0.934978,0 2.181615,0.303113 2.804933,0.909339 0.727205,0.707264 1.038865,1.717641 1.038865,2.829056 0,4.041508 -4.259344,4.041508 -4.363231,4.041508 -3.324365,0 -5.921526,-2.525943 -5.921526,-5.759149 0,-2.525943 1.558296,-4.849811 3.739911,-5.860188 0.831092,-0.303113 1.76607,-0.505189 2.701048,-0.505189 4.467116,0 8.103141,3.738396 8.103141,8.285093 0,4.950848 -4.571003,8.285092 -8.934233,8.285092 -1.45441,0 -2.90882,-0.404151 -4.155457,-1.212453 z M 35.039237,31.6292 c -1.558296,0 -2.90882,-0.808301 -3.532138,-2.020754 0.519432,-0.505188 0.934978,-1.111415 1.350523,-1.818679 0.31166,0.505189 0.831092,0.90934 1.45441,1.111415 0.31166,0.101039 0.727205,0.202076 1.038865,0.202076 0.519432,0 0.934978,-0.101038 1.350523,-0.303114 0.415546,-0.202075 0.519433,-0.606226 0.31166,-1.010377 -0.207773,-0.40415 -0.623319,-0.505188 -1.038865,-0.303113 -0.311659,0.202076 -0.831091,0.202076 -1.14275,0.101038 -0.31166,-0.101038 -0.623319,-0.40415 -0.831092,-0.707264 -0.207773,-0.303113 -0.207773,-0.707263 0,-1.010377 0.207773,-0.606226 0.831092,-0.909338 1.45441,-0.909338 0,0 0.103887,0 0.103887,0 1.869955,0.202075 3.324365,1.616603 3.324365,3.334244 0,1.818679 -1.766069,3.334244 -3.843798,3.334243 z"
     id="path840" />
</svg>
