<?xml version="1.0" encoding="UTF-8" standalone="no"?>
<svg
   xmlns:dc="http://purl.org/dc/elements/1.1/"
   xmlns:cc="http://creativecommons.org/ns#"
   xmlns:rdf="http://www.w3.org/1999/02/22-rdf-syntax-ns#"
   xmlns:svg="http://www.w3.org/2000/svg"
   xmlns="http://www.w3.org/2000/svg"
   xmlns:sodipodi="http://sodipodi.sourceforge.net/DTD/sodipodi-0.dtd"
   xmlns:inkscape="http://www.inkscape.org/namespaces/inkscape"
   viewBox="0 0 48 48"
   version="1.1"
   id="svg35"
   sodipodi:docname="apps.com.mindmup.svg"
   inkscape:version="0.92.2pre0 (973e216, 2017-07-25)">
  <metadata
     id="metadata39">
    <rdf:RDF>
      <cc:Work
         rdf:about="">
        <dc:format>image/svg+xml</dc:format>
        <dc:type
           rdf:resource="http://purl.org/dc/dcmitype/StillImage" />
      </cc:Work>
    </rdf:RDF>
  </metadata>
  <sodipodi:namedview
     pagecolor="#ffffff"
     bordercolor="#666666"
     borderopacity="1"
     objecttolerance="10"
     gridtolerance="10"
     guidetolerance="10"
     inkscape:pageopacity="0"
     inkscape:pageshadow="2"
     inkscape:window-width="1360"
     inkscape:window-height="658"
     id="namedview37"
     showgrid="false"
     inkscape:zoom="4.9166667"
     inkscape:cx="12.672424"
     inkscape:cy="20.014593"
     inkscape:window-x="0"
     inkscape:window-y="28"
     inkscape:window-maximized="1"
     inkscape:current-layer="svg35"
     showguides="false" />
  <defs
     id="defs7">
    <linearGradient
       id="linearGradient3764"
       x1="1"
       x2="47"
       gradientUnits="userSpaceOnUse"
       gradientTransform="matrix(0,-1,1,0,-1.5e-6,47.999998)">
      <stop
         style="stop-color:#e4e4e4;stop-opacity:1"
         id="stop2" />
      <stop
         offset="1"
         style="stop-color:#eee;stop-opacity:1"
         id="stop4" />
    </linearGradient>
    <filter
       id="filter-1"
       filterUnits="objectBoundingBox"
       height="200%"
       width="200%"
       y="-50%"
       x="-50%">
      <feOffset
         id="feOffset45"
         result="shadowOffsetOuter1"
         in="SourceAlpha"
         dy="1"
         dx="0" />
      <feGaussianBlur
         id="feGaussianBlur47"
         result="shadowBlurOuter1"
         in="shadowOffsetOuter1"
         stdDeviation="0.5" />
      <feColorMatrix
         id="feColorMatrix49"
         result="shadowMatrixOuter1"
         type="matrix"
         in="shadowBlurOuter1"
         values="0 0 0 0 0   0 0 0 0 0   0 0 0 0 0  0 0 0 0.21 0" />
      <feMerge
         id="feMerge55">
        <feMergeNode
           id="feMergeNode51"
           in="shadowMatrixOuter1" />
        <feMergeNode
           id="feMergeNode53"
           in="SourceGraphic" />
      </feMerge>
    </filter>
  </defs>
  <g
     id="g15">
    <path
       d="m 36.31 5 c 5.859 4.062 9.688 10.831 9.688 18.5 c 0 12.426 -10.07 22.5 -22.5 22.5 c -7.669 0 -14.438 -3.828 -18.5 -9.688 c 1.037 1.822 2.306 3.499 3.781 4.969 c 4.085 3.712 9.514 5.969 15.469 5.969 c 12.703 0 23 -10.298 23 -23 c 0 -5.954 -2.256 -11.384 -5.969 -15.469 c -1.469 -1.475 -3.147 -2.744 -4.969 -3.781 z m 4.969 3.781 c 3.854 4.113 6.219 9.637 6.219 15.719 c 0 12.703 -10.297 23 -23 23 c -6.081 0 -11.606 -2.364 -15.719 -6.219 c 4.16 4.144 9.883 6.719 16.219 6.719 c 12.703 0 23 -10.298 23 -23 c 0 -6.335 -2.575 -12.06 -6.719 -16.219 z"
       style="opacity:0.05"
       id="path9" />
    <path
       d="m 41.28 8.781 c 3.712 4.085 5.969 9.514 5.969 15.469 c 0 12.703 -10.297 23 -23 23 c -5.954 0 -11.384 -2.256 -15.469 -5.969 c 4.113 3.854 9.637 6.219 15.719 6.219 c 12.703 0 23 -10.298 23 -23 c 0 -6.081 -2.364 -11.606 -6.219 -15.719 z"
       style="opacity:0.1"
       id="path11" />
    <path
       d="m 31.25 2.375 c 8.615 3.154 14.75 11.417 14.75 21.13 c 0 12.426 -10.07 22.5 -22.5 22.5 c -9.708 0 -17.971 -6.135 -21.12 -14.75 a 23 23 0 0 0 44.875 -7 a 23 23 0 0 0 -16 -21.875 z"
       style="opacity:0.2"
       id="path13" />
  </g>
  <g
     id="g19"
     style="fill:#cccccc">
    <path
       d="m 24 1 c 12.703 0 23 10.297 23 23 c 0 12.703 -10.297 23 -23 23 -12.703 0 -23 -10.297 -23 -23 0 -12.703 10.297 -23 23 -23 z"
       style="fill:#cccccc;fill-opacity:1"
       id="path17" />
  </g>
  <g
     transform="matrix(0.82105167,0,0,0.72292696,4.8021098,-718.82273)"
     id="layer1"
     inkscape:label="Layer 1"
     style="stroke-width:1.29797864">
    <g
       transform="matrix(1.1387315,0,0,0.9779351,-2.2455889,23.200058)"
       id="g4172"
       style="stroke-width:1.29797864">
      <path
         sodipodi:nodetypes="cccccc"
         inkscape:connector-curvature="0"
         id="path4149"
         d="m 23.034876,1007.8981 c 3.395249,7.1497 4.369181,8.0054 8.592611,15.0098 8.801057,13.8613 1.289516,27.0402 -8.566643,26.9922 h -0.02275 c -9.856932,0.05 -17.3681575,-13.1301 -8.566613,-26.9922 4.19429,-7.0276 4.207086,-7.0643 8.563398,-15.0098 z"
         style="opacity:0.05;fill:#000000;fill-rule:evenodd;stroke:none;stroke-width:5.19191456;stroke-linecap:butt;stroke-linejoin:miter;stroke-opacity:1" />
      <path
         style="opacity:0.1;fill:#000000;fill-rule:evenodd;stroke:none;stroke-width:5.19191456;stroke-linecap:butt;stroke-linejoin:miter;stroke-opacity:1"
         d="m 23.034876,1007.3718 c 3.395249,7.1497 4.369181,8.0054 8.592611,15.0098 8.801057,13.8613 1.289516,27.0402 -8.566643,26.9922 h -0.02275 c -9.856932,0.05 -17.3681575,-13.1301 -8.566613,-26.9922 4.19429,-7.0276 4.207086,-7.0643 8.563398,-15.0098 z"
         id="path4147"
         inkscape:connector-curvature="0"
         sodipodi:nodetypes="cccccc" />
      <path
         sodipodi:nodetypes="cccccc"
         inkscape:connector-curvature="0"
         id="path4145"
         d="m 23.034876,1006.8395 c 3.395249,7.1497 4.369181,8.0054 8.592611,15.0098 8.801057,13.8613 1.289516,27.0402 -8.566643,26.9922 h -0.02275 c -9.856932,0.05 -17.3681575,-13.1301 -8.566613,-26.9922 4.19429,-7.0276 4.207086,-7.0643 8.563398,-15.0098 z"
         style="opacity:0.15;fill:#000000;fill-rule:evenodd;stroke:none;stroke-width:5.19191456;stroke-linecap:butt;stroke-linejoin:miter;stroke-opacity:1" />
      <path
         style="opacity:1;fill:#579eba;fill-opacity:1;fill-rule:evenodd;stroke:none;stroke-width:5.19191456;stroke-linecap:butt;stroke-linejoin:miter;stroke-opacity:1"
         d="m 23.055661,1006.3679 c 3.342573,7.1497 4.301396,8.0054 8.459301,15.0098 8.664511,13.8613 1.269509,27.0402 -8.433735,26.9922 h -0.0224 c -9.704005,0.049 -17.0986964,-13.1302 -8.433705,-26.9922 4.129217,-7.0276 4.141815,-7.0643 8.430539,-15.0098 z"
         id="path4219"
         inkscape:connector-curvature="0"
         sodipodi:nodetypes="cccccc" />
      <path
         style="opacity:1;fill:#468ca9;fill-opacity:1;fill-rule:evenodd;stroke:none;stroke-width:5.19191456;stroke-linecap:butt;stroke-linejoin:miter;stroke-opacity:1"
         d="m 23.055661,1006.3679 c 0.02827,0.053 0.0392,0.075 0.06711,0.127 l -0.01918,-0.01 c -4.941311,16.0788 -8.25268,17.114 -9.080439,26.1615 -0.322087,8.5388 6.77703,17.828 18.825993,10.0101 -2.687768,4.3371 -7.02946,5.7228 -9.767923,5.7093 h -0.02237 c -9.704008,0.049 -17.0987284,-13.1302 -8.433737,-26.9922 4.129217,-7.0276 4.141814,-7.0643 8.430539,-15.0098 z"
         id="path4251"
         inkscape:connector-curvature="0"
         sodipodi:nodetypes="cccccccccc" />
      <path
         style="fill:#c2ecf0;fill-opacity:1;fill-rule:evenodd;stroke:none;stroke-width:1.29797864px;stroke-linecap:butt;stroke-linejoin:miter;stroke-opacity:1"
         d="m 26.73647,1016.8495 c 0,0 11.579825,13.4593 4.862238,23.2671 -1.52221,2.1617 -4.925516,1.9027 -3.128456,-0.2907 1.845898,-2.607 5.270021,-9.9628 -1.733782,-22.9764 z"
         id="path4167"
         inkscape:connector-curvature="0"
         sodipodi:nodetypes="cccc" />
    </g>
  </g>
</svg>
