<?xml version="1.0" encoding="UTF-8" standalone="no"?>
<svg
   xmlns:dc="http://purl.org/dc/elements/1.1/"
   xmlns:cc="http://creativecommons.org/ns#"
   xmlns:rdf="http://www.w3.org/1999/02/22-rdf-syntax-ns#"
   xmlns:svg="http://www.w3.org/2000/svg"
   xmlns="http://www.w3.org/2000/svg"
   xmlns:sodipodi="http://sodipodi.sourceforge.net/DTD/sodipodi-0.dtd"
   xmlns:inkscape="http://www.inkscape.org/namespaces/inkscape"
   viewBox="0 0 48 48"
   id="svg2"
   version="1.1"
   inkscape:version="0.92.2pre0 (973e216, 2017-07-25)"
   sodipodi:docname="apps.com.google.drive.svg"
   width="51.200001"
   height="51.200001">
  <metadata
     id="metadata69">
    <rdf:RDF>
      <cc:Work
         rdf:about="">
        <dc:format>image/svg+xml</dc:format>
        <dc:type
           rdf:resource="http://purl.org/dc/dcmitype/StillImage" />
      </cc:Work>
    </rdf:RDF>
  </metadata>
  <sodipodi:namedview
     pagecolor="#ffffff"
     bordercolor="#666666"
     borderopacity="1"
     objecttolerance="10"
     gridtolerance="10"
     guidetolerance="10"
     inkscape:pageopacity="0"
     inkscape:pageshadow="2"
     inkscape:window-width="1360"
     inkscape:window-height="658"
     id="namedview67"
     showgrid="false"
     inkscape:zoom="4.9166667"
     inkscape:cx="-12.915255"
     inkscape:cy="24"
     inkscape:window-x="0"
     inkscape:window-y="28"
     inkscape:window-maximized="1"
     inkscape:current-layer="svg2" />
  <defs
     id="defs4">
    <linearGradient
       id="linearGradient3764"
       x1="1"
       x2="47"
       gradientUnits="userSpaceOnUse"
       gradientTransform="rotate(-90,23.999998,24)">
      <stop
         stop-color="#3d3d3d"
         stop-opacity="1"
         id="stop7" />
      <stop
         offset="1"
         stop-color="#474747"
         stop-opacity="1"
         id="stop9" />
    </linearGradient>
    <clipPath
       id="clipPath-366521039">
      <g
         transform="translate(0,-1004.3622)"
         id="g12">
        <path
           d="m -24,13 c 0,1.105 -0.672,2 -1.5,2 -0.828,0 -1.5,-0.895 -1.5,-2 0,-1.105 0.672,-2 1.5,-2 0.828,0 1.5,0.895 1.5,2 z"
           transform="matrix(15.333333,0,0,11.5,414.99999,878.8622)"
           id="path14"
           inkscape:connector-curvature="0"
           style="fill:#1890d0" />
      </g>
    </clipPath>
    <clipPath
       id="clipPath-376592645">
      <g
         transform="translate(0,-1004.3622)"
         id="g17">
        <path
           d="m -24,13 c 0,1.105 -0.672,2 -1.5,2 -0.828,0 -1.5,-0.895 -1.5,-2 0,-1.105 0.672,-2 1.5,-2 0.828,0 1.5,0.895 1.5,2 z"
           transform="matrix(15.333333,0,0,11.5,414.99999,878.8622)"
           id="path19"
           inkscape:connector-curvature="0"
           style="fill:#1890d0" />
      </g>
    </clipPath>
  </defs>
  <g
     id="g35"
     transform="matrix(0.95668673,0,0,0.94157161,-0.79276735,2.3543411)"
     style="stroke-width:1.18234622">
    <g
       clip-path="url(#clipPath-366521039)"
       id="g37"
       style="stroke-width:1.18234622">
      <g
         transform="translate(1,1)"
         id="g39"
         style="stroke-width:1.18234622">
        <g
           id="g41"
           style="opacity:0.1;stroke-width:1.18234622">
          <!-- color: #474747 -->
          <g
             id="g43"
             style="stroke-width:1.18234622">
            <path
               d="M 19.668,27.664 H 37 l -4.332,7.332 H 15.332 m 4.336,-7.332"
               id="path45"
               inkscape:connector-curvature="0"
               style="fill:#000000;fill-opacity:1;fill-rule:evenodd;stroke:none;stroke-width:1.18234622" />
            <path
               d="M 37,27.664 28.332,12.996 h -8.664 l 8.664,14.668 m 8.668,0"
               id="path47"
               inkscape:connector-curvature="0"
               style="fill:#000000;fill-opacity:1;fill-rule:evenodd;stroke:none;stroke-width:1.18234622" />
            <path
               d="M 15.332,34.996 24,20.328 19.668,12.996 11,27.664 m 4.332,7.332"
               id="path49"
               inkscape:connector-curvature="0"
               style="fill:#000000;fill-opacity:1;fill-rule:evenodd;stroke:none;stroke-width:1.18234622" />
          </g>
        </g>
      </g>
    </g>
  </g>
  <g
     id="g53"
     clip-path="url(#clipPath-376592645)"
     transform="matrix(0.95668673,0,0,0.94157161,-0.79276735,2.3543411)"
     style="stroke-width:1.18234622">
    <!-- color: #474747 -->
    <path
       d="M 19.668,27.664 H 37 l -4.332,7.332 H 15.332 m 4.336,-7.332"
       id="path57"
       inkscape:connector-curvature="0"
       style="fill:#ffffff;fill-opacity:1;fill-rule:evenodd;stroke:none;stroke-width:1.18234622" />
    <path
       d="M 37,27.664 28.332,12.996 h -8.664 l 8.664,14.668 m 8.668,0"
       id="path59"
       inkscape:connector-curvature="0"
       style="fill:#ffffff;fill-opacity:1;fill-rule:evenodd;stroke:none;stroke-width:1.18234622" />
    <path
       d="M 15.332,34.996 24,20.328 19.668,12.996 11,27.664 m 4.332,7.332"
       id="path61"
       inkscape:connector-curvature="0"
       style="fill:#ffffff;fill-opacity:1;fill-rule:evenodd;stroke:none;stroke-width:1.18234622" />
  </g>
  <path
     inkscape:connector-curvature="0"
     style="fill:#1bc271;fill-opacity:0.94117647"
     id="path31"
     d="M 24,1 C 36.703,1 47,11.297 47,24 47,36.703 36.703,47 24,47 11.297,47 1,36.703 1,24 1,11.297 11.297,1 24,1 Z" />
  <g
     id="g33" />
  <polygon
     style="fill:#ffffff;stroke-width:0.97199154"
     points="10,22 10,38 38,38 38,10 22,10 22,22 "
     id="polygon841"
     transform="matrix(0.89092618,0,0,1.0441812,3.5240251,-0.53580683)" />
  <g
     id="g886"
     transform="matrix(0.76238751,0,0,0.77518399,65.189723,9.3622852)"
     style="stroke-width:1.30079746">
    <polygon
       transform="matrix(0.93749999,0,0,0.93749999,-77.675774,-5.6344614)"
       id="polygon843"
       points="19,5 19,19 5,19 5,24 24,24 24,5 "
       style="fill:#cb3b00;stroke-width:1.30079746" />
    <rect
       id="rect845"
       height="18.468573"
       width="5.0624514"
       transform="rotate(-45)"
       y="-49.77224"
       x="-53.446484"
       style="fill:#cb3b00;stroke-width:1.21948588" />
  </g>
</svg>
