<?xml version="1.0" encoding="UTF-8" standalone="no"?>
<!-- Generator: Adobe Illustrator 18.0.0, SVG Export Plug-In . SVG Version: 6.00 Build 0)  -->

<svg
   xmlns:dc="http://purl.org/dc/elements/1.1/"
   xmlns:cc="http://creativecommons.org/ns#"
   xmlns:rdf="http://www.w3.org/1999/02/22-rdf-syntax-ns#"
   xmlns:svg="http://www.w3.org/2000/svg"
   xmlns="http://www.w3.org/2000/svg"
   xmlns:sodipodi="http://sodipodi.sourceforge.net/DTD/sodipodi-0.dtd"
   xmlns:inkscape="http://www.inkscape.org/namespaces/inkscape"
   version="1.1"
   id="图层_1"
   x="0px"
   y="0px"
   viewBox="0 0 48 48"
   style="enable-background:new 0 0 48 48;"
   xml:space="preserve"
   sodipodi:docname="apps.im.shimo.svg"
   inkscape:version="0.92.2pre0 (973e216, 2017-07-25)"><metadata
     id="metadata25"><rdf:RDF><cc:Work
         rdf:about=""><dc:format>image/svg+xml</dc:format><dc:type
           rdf:resource="http://purl.org/dc/dcmitype/StillImage" /></cc:Work></rdf:RDF></metadata><defs
     id="defs23" /><sodipodi:namedview
     pagecolor="#ffffff"
     bordercolor="#666666"
     borderopacity="1"
     objecttolerance="10"
     gridtolerance="10"
     guidetolerance="10"
     inkscape:pageopacity="0"
     inkscape:pageshadow="2"
     inkscape:window-width="1360"
     inkscape:window-height="740"
     id="namedview21"
     showgrid="false"
     inkscape:zoom="4.9166667"
     inkscape:cx="24"
     inkscape:cy="24"
     inkscape:window-x="0"
     inkscape:window-y="0"
     inkscape:window-maximized="1"
     inkscape:current-layer="图层_1" /><g
     id="g16"
     transform="matrix(1.0726392,0,0,1.0726392,-1.8095399,-1.6076755)"><g
       id="g14"><path
         inkscape:connector-curvature="0"
         id="path4"
         d="m 23.978,44.999 c -11.58,0 -21,-9.421 -21,-21 0,-11.579 9.42,-21 21,-21 11.579,0 21,9.421 21,21 0,11.579 -9.421,21 -21,21 z"
         style="fill:#f7f8f8" /><g
         id="g12"><g
           id="g10"><path
             inkscape:connector-curvature="0"
             id="path6"
             d="m 30.831,8.967 h -8.12 l 1.49,1.23 c -0.3,0.52 -0.595,1.005 -0.885,1.455 -0.43,0.659 -0.865,1.265 -1.305,1.814 l 0.45,0.271 h 4.77 l 0.63,-0.811 1.39,0.99 -0.45,0.63 c 0,0 0.09,3.03 0.09,4.62 0,1.59 -1.375,1.724 -1.39,1.68 0.075,-0.844 -0.5,-1.26 -0.5,-1.26 h -4.81 c 0,0 -0.082,2.35 -1.71,2.35 l 0.09,-6.579 c -0.17,0.17 -0.335,0.34 -0.495,0.51 -0.44,0.43 -0.885,0.82 -1.335,1.17 -0.64,0.5 -1.29,0.93 -1.95,1.29 0.02,0 0.229,-0.23 0.63,-0.69 0.56,-0.63 1.055,-1.229 1.485,-1.8 0.64,-0.84 1.195,-1.66 1.665,-2.46 l 0.27,-0.45 c 0.09,-0.189 0.18,-0.385 0.27,-0.585 0.28,-0.609 0.495,-1.095 0.645,-1.455 0.28,-0.689 0.515,-1.33 0.705,-1.92 l -4.5,0.002 -0.54,-0.271 h 10.44 l 1.26,-1.44 1.71,1.53 z m -3.33,9.799 v -4.669 h -5.31 v 5.13 c 0,0 4.762,0 4.981,0 0.344,0 0.329,-0.461 0.329,-0.461 z"
             style="fill:#212426" /><path
             inkscape:connector-curvature="0"
             id="path8"
             d="m 31.191,32.688 h -12.33 c 0.33,0.38 0.495,0.875 0.495,1.484 0,0.45 -0.11,0.83 -0.33,1.141 -0.25,0.35 -0.605,0.524 -1.065,0.524 -0.23,0 -0.423,-0.092 -0.578,-0.277 -0.155,-0.185 -0.232,-0.388 -0.232,-0.607 0,-0.33 0.15,-0.545 0.45,-0.646 0.28,-0.109 0.49,-0.22 0.63,-0.329 0.42,-0.33 0.63,-0.761 0.63,-1.29 l -1.893,-0.004 -0.267,-0.267 h 6.3 v -1.62 l -4.595,-0.004 -0.355,-0.265 h 4.95 v -1.62 h -3.06 c 0,0 -0.253,0.63 -1.53,0.63 v -4.41 c 0.2,0.061 0.37,0.11 0.51,0.15 0.47,0.13 0.87,0.229 1.2,0.3 h 7.2 l 0.54,-0.63 1.89,0.99 -0.45,0.449 v 2.53 l -4.95,-0.01 v 1.62 h 2.52 l 1.17,-1.17 1.26,1.26 v 0.18 h -4.95 v 1.62 h 4.32 l 1.26,-1.17 1.26,1.26 z m -0.36,6.3 -13.597,-0.008 -0.263,-0.263 h 6.03 v -1.89 l -4.035,0.015 -0.375,-0.375 h 4.41 v -1.89 c 0.26,0.01 0.47,0.025 0.63,0.045 0.48,0.07 0.9,0.205 1.26,0.405 l -0.36,0.54 v 0.899 h 2.07 l 1.08,-1.08 1.26,1.261 v 0.18 h -4.41 v 1.89 h 3.78 l 1.26,-1.17 1.26,1.26 z m -7.83,-10.351 v -2.79 h -2.88 l -0.18,0.271 v 2.52 h 3.06 z m -0.99,-0.54 c -0.13,0.131 -0.28,0.195 -0.45,0.195 -0.291,0 -0.5,-0.155 -0.63,-0.465 0.01,-0.2 0.005,-0.36 -0.015,-0.48 -0.06,-0.369 -0.205,-0.689 -0.435,-0.96 0.05,-0.01 0.13,-0.015 0.24,-0.015 0.36,0 0.718,0.115 1.073,0.345 0.354,0.23 0.532,0.49 0.532,0.78 0,0.12 -0.022,0.223 -0.067,0.308 -0.045,0.085 -0.128,0.183 -0.248,0.292 z m 0.36,6.931 c -0.17,0.14 -0.37,0.21 -0.6,0.21 -0.19,0 -0.353,-0.058 -0.488,-0.173 -0.135,-0.114 -0.202,-0.272 -0.202,-0.473 0,-0.029 0.01,-0.095 0.03,-0.194 0.02,-0.04 0.03,-0.075 0.03,-0.105 0.02,-0.1 0.03,-0.205 0.03,-0.314 0,-0.181 -0.03,-0.365 -0.09,-0.556 -0.06,-0.189 -0.17,-0.375 -0.33,-0.555 0.44,0 0.86,0.155 1.26,0.465 0.4,0.311 0.6,0.66 0.6,1.05 0,0.12 -0.018,0.232 -0.053,0.338 -0.035,0.104 -0.097,0.206 -0.187,0.307 z m 5.31,-9.181 h -2.97 l -0.36,0.181 v 2.609 h 0.81 l 0.45,-2.43 c 0.2,0.07 0.36,0.13 0.48,0.18 0.39,0.16 0.71,0.311 0.96,0.45 -0.13,0.12 -0.235,0.221 -0.315,0.3 -0.49,0.49 -0.895,0.99 -1.215,1.5 h 2.16 z m -1.26,9.181 c -0.14,0.13 -0.305,0.194 -0.495,0.194 -0.23,0 -0.435,-0.09 -0.615,-0.27 -0.18,-0.18 -0.27,-0.395 -0.27,-0.646 0,-0.039 0.01,-0.1 0.03,-0.18 -0.01,-0.109 -0.025,-0.2 -0.045,-0.27 -0.12,-0.42 -0.345,-0.75 -0.675,-0.99 0.06,-0.021 0.165,-0.03 0.315,-0.03 0.459,0 0.917,0.16 1.372,0.48 0.455,0.32 0.683,0.67 0.683,1.05 0,0.242 -0.1,0.461 -0.3,0.662 z m 4.14,0 c -0.14,0.45 -0.44,0.675 -0.9,0.675 -0.2,0 -0.382,-0.058 -0.547,-0.173 -0.165,-0.114 -0.283,-0.282 -0.353,-0.502 -0.05,-0.32 -0.11,-0.57 -0.18,-0.75 -0.22,-0.55 -0.58,-0.96 -1.08,-1.23 0.18,-0.02 0.33,-0.03 0.45,-0.03 0.67,0 1.255,0.146 1.755,0.436 0.58,0.34 0.87,0.795 0.87,1.365 0,0.089 -0.005,0.159 -0.015,0.209 z"
             style="fill:#212426" /></g></g></g></g></svg>