<?xml version="1.0" encoding="UTF-8" standalone="no"?>
<svg
   xmlns:dc="http://purl.org/dc/elements/1.1/"
   xmlns:cc="http://creativecommons.org/ns#"
   xmlns:rdf="http://www.w3.org/1999/02/22-rdf-syntax-ns#"
   xmlns:svg="http://www.w3.org/2000/svg"
   xmlns="http://www.w3.org/2000/svg"
   xmlns:sodipodi="http://sodipodi.sourceforge.net/DTD/sodipodi-0.dtd"
   xmlns:inkscape="http://www.inkscape.org/namespaces/inkscape"
   viewBox="0 0 48 48"
   version="1.1"
   id="svg57"
   sodipodi:docname="apps.com.yidianzixun.svg"
   inkscape:version="0.92.2pre0 (973e216, 2017-07-25)">
  <metadata
     id="metadata61">
    <rdf:RDF>
      <cc:Work
         rdf:about="">
        <dc:format>image/svg+xml</dc:format>
        <dc:type
           rdf:resource="http://purl.org/dc/dcmitype/StillImage" />
      </cc:Work>
    </rdf:RDF>
  </metadata>
  <sodipodi:namedview
     pagecolor="#ffffff"
     bordercolor="#666666"
     borderopacity="1"
     objecttolerance="10"
     gridtolerance="10"
     guidetolerance="10"
     inkscape:pageopacity="0"
     inkscape:pageshadow="2"
     inkscape:window-width="1360"
     inkscape:window-height="740"
     id="namedview59"
     showgrid="false"
     inkscape:zoom="4.9166667"
     inkscape:cx="-11.389831"
     inkscape:cy="24"
     inkscape:window-x="0"
     inkscape:window-y="0"
     inkscape:window-maximized="1"
     inkscape:current-layer="svg57"
     showguides="false" />
  <defs
     id="defs17">
    <linearGradient
       id="linearGradient3764"
       x1="1"
       x2="47"
       gradientUnits="userSpaceOnUse"
       gradientTransform="rotate(-90,23.999998,24)">
      <stop
         stop-color="#2373df"
         stop-opacity="1"
         id="stop2" />
      <stop
         offset="1"
         stop-color="#357ee2"
         stop-opacity="1"
         id="stop4" />
    </linearGradient>
    <clipPath
       id="clipPath-650690542">
      <g
         transform="translate(0,-1004.3622)"
         id="g9">
        <path
           d="m -24 13 c 0 1.105 -0.672 2 -1.5 2 -0.828 0 -1.5 -0.895 -1.5 -2 0 -1.105 0.672 -2 1.5 -2 0.828 0 1.5 0.895 1.5 2 z"
           transform="matrix(15.333333,0,0,11.5,414.99999,878.8622)"
           fill="#1890d0"
           id="path7" />
      </g>
    </clipPath>
    <clipPath
       id="clipPath-658742145">
      <g
         transform="translate(0,-1004.3622)"
         id="g14">
        <path
           d="m -24 13 c 0 1.105 -0.672 2 -1.5 2 -0.828 0 -1.5 -0.895 -1.5 -2 0 -1.105 0.672 -2 1.5 -2 0.828 0 1.5 0.895 1.5 2 z"
           transform="matrix(15.333333,0,0,11.5,414.99999,878.8622)"
           fill="#1890d0"
           id="path12" />
      </g>
    </clipPath>
    <filter
       id="filter-1"
       filterUnits="objectBoundingBox"
       height="200%"
       width="200%"
       y="-50%"
       x="-50%">
      <feOffset
         id="feOffset834"
         result="shadowOffsetOuter1"
         in="SourceAlpha"
         dy="1"
         dx="0" />
      <feGaussianBlur
         id="feGaussianBlur836"
         result="shadowBlurOuter1"
         in="shadowOffsetOuter1"
         stdDeviation="0.5" />
      <feColorMatrix
         id="feColorMatrix838"
         result="shadowMatrixOuter1"
         type="matrix"
         in="shadowBlurOuter1"
         values="0 0 0 0 0   0 0 0 0 0   0 0 0 0 0  0 0 0 0.21 0" />
      <feMerge
         id="feMerge844">
        <feMergeNode
           id="feMergeNode840"
           in="shadowMatrixOuter1" />
        <feMergeNode
           id="feMergeNode842"
           in="SourceGraphic" />
      </feMerge>
    </filter>
  </defs>
  <g
     id="g25">
    <path
       d="m 36.31 5 c 5.859 4.062 9.688 10.831 9.688 18.5 c 0 12.426 -10.07 22.5 -22.5 22.5 c -7.669 0 -14.438 -3.828 -18.5 -9.688 c 1.037 1.822 2.306 3.499 3.781 4.969 c 4.085 3.712 9.514 5.969 15.469 5.969 c 12.703 0 23 -10.298 23 -23 c 0 -5.954 -2.256 -11.384 -5.969 -15.469 c -1.469 -1.475 -3.147 -2.744 -4.969 -3.781 z m 4.969 3.781 c 3.854 4.113 6.219 9.637 6.219 15.719 c 0 12.703 -10.297 23 -23 23 c -6.081 0 -11.606 -2.364 -15.719 -6.219 c 4.16 4.144 9.883 6.719 16.219 6.719 c 12.703 0 23 -10.298 23 -23 c 0 -6.335 -2.575 -12.06 -6.719 -16.219 z"
       opacity="0.05"
       id="path19" />
    <path
       d="m 41.28 8.781 c 3.712 4.085 5.969 9.514 5.969 15.469 c 0 12.703 -10.297 23 -23 23 c -5.954 0 -11.384 -2.256 -15.469 -5.969 c 4.113 3.854 9.637 6.219 15.719 6.219 c 12.703 0 23 -10.298 23 -23 c 0 -6.081 -2.364 -11.606 -6.219 -15.719 z"
       opacity="0.1"
       id="path21" />
    <path
       d="m 31.25 2.375 c 8.615 3.154 14.75 11.417 14.75 21.13 c 0 12.426 -10.07 22.5 -22.5 22.5 c -9.708 0 -17.971 -6.135 -21.12 -14.75 a 23 23 0 0 0 44.875 -7 a 23 23 0 0 0 -16 -21.875 z"
       opacity="0.2"
       id="path23" />
  </g>
  <path
     inkscape:connector-curvature="0"
     style="fill:#ff2a2a;fill-opacity:1"
     id="path27"
     d="m 24.20339,0.79661017 c 12.703,0 23,10.29699983 23,22.99999983 0,12.703 -10.297,23 -23,23 -12.703,0 -23.0000002,-10.297 -23.0000002,-23 0,-12.703 10.2970002,-22.99999983 23.0000002,-22.99999983 z" />
  <g
     id="g31" />
  <g
     id="g55">
    <path
       d="m 40.03 7.531 c 3.712 4.084 5.969 9.514 5.969 15.469 0 12.703 -10.297 23 -23 23 c -5.954 0 -11.384 -2.256 -15.469 -5.969 4.178 4.291 10.01 6.969 16.469 6.969 c 12.703 0 23 -10.298 23 -23 0 -6.462 -2.677 -12.291 -6.969 -16.469 z"
       id="path53"
       opacity="0.1" />
  </g>
  <line
     style="opacity:0.3;fill:none;stroke:#ffffff;stroke-width:1.04706371;stroke-miterlimit:10"
     stroke-miterlimit="10"
     x1="3.0894892"
     y1="14.826779"
     x2="44.750511"
     y2="14.826779"
     id="line36" />
  <rect
     style="fill:none;stroke:#ffffff;stroke-width:1.01543832;stroke-miterlimit:10"
     x="35.758835"
     y="12.826779"
     stroke-miterlimit="10"
     width="4.1244597"
     height="13"
     id="rect38" />
  <line
     style="fill:none;stroke:#ffffff;stroke-width:1.01543832;stroke-miterlimit:10"
     stroke-miterlimit="10"
     x1="37.821064"
     y1="25.32678"
     x2="37.821064"
     y2="29.326782"
     id="line40" />
  <line
     style="fill:none;stroke:#ffffff;stroke-width:1.01543832;stroke-miterlimit:10"
     stroke-miterlimit="10"
     x1="37.821064"
     y1="9.3267794"
     x2="37.821064"
     y2="13.326779"
     id="line42" />
  <rect
     style="fill:#ffffff;stroke:#ffffff;stroke-width:1.01543832;stroke-miterlimit:10"
     x="31.634375"
     y="16.82678"
     stroke-miterlimit="10"
     width="2.0622299"
     height="5"
     id="rect44" />
  <rect
     style="fill:none;stroke:#ffffff;stroke-width:1.01543832;stroke-miterlimit:10"
     x="26.4788"
     y="19.82678"
     stroke-miterlimit="10"
     width="3.0933449"
     height="3"
     id="rect46" />
  <rect
     style="fill:#ffffff;stroke:#ffffff;stroke-width:1.01543832;stroke-miterlimit:10"
     x="21.323225"
     y="22.82678"
     stroke-miterlimit="10"
     width="3.0933449"
     height="5"
     id="rect48" />
  <rect
     style="fill:none;stroke:#ffffff;stroke-width:1.01543832;stroke-miterlimit:10"
     x="15.136535"
     y="19.82678"
     stroke-miterlimit="10"
     width="4.1244597"
     height="5"
     id="rect50" />
  <line
     style="fill:none;stroke:#ffffff;stroke-width:1.01543832;stroke-miterlimit:10"
     stroke-miterlimit="10"
     x1="17.198765"
     y1="20.32678"
     x2="17.198765"
     y2="18.32678"
     id="line52" />
  <line
     style="fill:none;stroke:#ffffff;stroke-width:1.01543832;stroke-miterlimit:10"
     stroke-miterlimit="10"
     x1="23.385454"
     y1="23.32678"
     x2="23.385454"
     y2="21.32678"
     id="line54" />
  <rect
     style="fill:#ffffff;stroke:#ffffff;stroke-width:1.01543832;stroke-miterlimit:10"
     x="6.8876157"
     y="24.82678"
     stroke-miterlimit="10"
     width="3.0933449"
     height="5"
     id="rect56" />
  <line
     style="fill:none;stroke:#ffffff;stroke-width:1.01543832;stroke-miterlimit:10"
     stroke-miterlimit="10"
     x1="8.9498463"
     y1="25.32678"
     x2="8.9498463"
     y2="23.32678"
     id="line58" />
  <rect
     style="fill:none;stroke:#ffffff;stroke-width:1.01543832;stroke-miterlimit:10"
     x="12.04319"
     y="26.82678"
     stroke-miterlimit="10"
     width="4.1244597"
     height="5"
     id="rect60" />
  <line
     style="fill:none;stroke:#ffffff;stroke-width:1.01543832;stroke-miterlimit:10"
     stroke-miterlimit="10"
     x1="14.10542"
     y1="31.32678"
     x2="14.10542"
     y2="33.326778"
     id="line62" />
  <line
     style="opacity:0.3;fill:none;stroke:#ffffff;stroke-width:1.02893603;stroke-miterlimit:10"
     stroke-miterlimit="10"
     x1="4.3098283"
     y1="33.826778"
     x2="44.540791"
     y2="33.826778"
     id="line64" />
  <line
     style="opacity:0.3;fill:none;stroke:#ffffff;stroke-width:1.05470359;stroke-miterlimit:10"
     stroke-miterlimit="10"
     x1="32.606441"
     y1="2.292881"
     x2="32.606441"
     y2="44.564068"
     id="line66" />
  <line
     style="opacity:0.3;fill:none;stroke:#ffffff;stroke-width:1.03161442;stroke-miterlimit:10"
     stroke-miterlimit="10"
     x1="13.809828"
     y1="3.3098302"
     x2="13.809828"
     y2="43.750507"
     id="line68" />
</svg>
