<?xml version="1.0" encoding="UTF-8" standalone="no"?>
<svg
   xmlns:dc="http://purl.org/dc/elements/1.1/"
   xmlns:cc="http://creativecommons.org/ns#"
   xmlns:rdf="http://www.w3.org/1999/02/22-rdf-syntax-ns#"
   xmlns:svg="http://www.w3.org/2000/svg"
   xmlns="http://www.w3.org/2000/svg"
   xmlns:sodipodi="http://sodipodi.sourceforge.net/DTD/sodipodi-0.dtd"
   xmlns:inkscape="http://www.inkscape.org/namespaces/inkscape"
   viewBox="0 0 48 48"
   version="1.1"
   id="svg41"
   sodipodi:docname="QtAV.svg"
   inkscape:version="0.92.2pre0 (973e216, 2017-07-25)">
  <metadata
     id="metadata45">
    <rdf:RDF>
      <cc:Work
         rdf:about="">
        <dc:format>image/svg+xml</dc:format>
        <dc:type
           rdf:resource="http://purl.org/dc/dcmitype/StillImage" />
      </cc:Work>
    </rdf:RDF>
  </metadata>
  <sodipodi:namedview
     pagecolor="#ffffff"
     bordercolor="#666666"
     borderopacity="1"
     objecttolerance="10"
     gridtolerance="10"
     guidetolerance="10"
     inkscape:pageopacity="0"
     inkscape:pageshadow="2"
     inkscape:window-width="1360"
     inkscape:window-height="691"
     id="namedview43"
     showgrid="false"
     inkscape:zoom="4.9166667"
     inkscape:cx="24.40678"
     inkscape:cy="22.983051"
     inkscape:window-x="0"
     inkscape:window-y="0"
     inkscape:window-maximized="1"
     inkscape:current-layer="svg41" />
  <defs
     id="defs7">
    <linearGradient
       id="linearGradient3764"
       x1="1"
       x2="47"
       gradientUnits="userSpaceOnUse"
       gradientTransform="rotate(-90,23.999998,24)">
      <stop
         style="stop-color:#1ec01e;stop-opacity:1"
         id="stop2" />
      <stop
         offset="1"
         style="stop-color:#21d121;stop-opacity:1"
         id="stop4" />
    </linearGradient>
  </defs>
  <path
     inkscape:connector-curvature="0"
     id="path17"
     style="fill:#3b9cfe;fill-opacity:1"
     d="M 24,1 C 36.703,1 47,11.297 47,24 47,36.703 36.703,47 24,47 11.297,47 1,36.703 1,24 1,11.297 11.297,1 24,1 Z" />
  <g
     id="g31">
    <g
       id="g29">
      <g
         transform="translate(1,1)"
         id="g27">
        <g
           style="opacity:0.1"
           id="g25">
          <!-- color: #7dc06d -->
        </g>
      </g>
    </g>
  </g>
  <g
     transform="translate(-1,0)"
     id="g35">
    <g
       id="g33">
      <!-- color: #7dc06d -->
    </g>
  </g>
  <g
     id="g39"
     transform="translate(0,-0.40677966)">
    <path
       d="m 40.03,7.531 c 3.712,4.084 5.969,9.514 5.969,15.469 0,12.703 -10.297,23 -23,23 C 17.045,46 11.615,43.744 7.53,40.031 11.708,44.322 17.54,47 23.999,47 c 12.703,0 23,-10.298 23,-23 0,-6.462 -2.677,-12.291 -6.969,-16.469 z"
       style="opacity:0.1"
       id="path37"
       inkscape:connector-curvature="0" />
  </g>
  <g
     id="g60"
     transform="matrix(1.1667385,0,0,1.1305224,-3.8406965,-3.2899606)">
    <path
       style="fill:#ffffff"
       inkscape:connector-curvature="0"
       d="m 24.5,33.5 -9,1 C 14.6,34.6 13.9,33.9 14,33 l 1,-9 c 0,-0.5 0.3,-0.9 0.6,-1.2 L 26,12.4 c 0.3,-0.3 0.7,-0.3 1,0 l 9.1,9.1 c 0.3,0.3 0.3,0.7 0,1 L 25.8,32.9 c -0.4,0.3 -0.8,0.6 -1.3,0.6 z"
       id="path56" />
    <path
       style="fill:#ecf6ff"
       inkscape:connector-curvature="0"
       d="M 36.1,21.5 31.6,17 14.4,34.1 c 0.3,0.3 0.7,0.4 1.1,0.4 l 9,-1 c 0.5,0 0.9,-0.3 1.2,-0.6 L 36.1,22.5 c 0.3,-0.2 0.3,-0.7 0,-1 z"
       id="path58" />
  </g>
</svg>
