<?xml version="1.0" encoding="UTF-8" standalone="no"?>
<svg
   xmlns:dc="http://purl.org/dc/elements/1.1/"
   xmlns:cc="http://creativecommons.org/ns#"
   xmlns:rdf="http://www.w3.org/1999/02/22-rdf-syntax-ns#"
   xmlns:svg="http://www.w3.org/2000/svg"
   xmlns="http://www.w3.org/2000/svg"
   xmlns:sodipodi="http://sodipodi.sourceforge.net/DTD/sodipodi-0.dtd"
   xmlns:inkscape="http://www.inkscape.org/namespaces/inkscape"
   viewBox="0 0 48 48"
   version="1.1"
   id="svg65"
   sodipodi:docname="octopi.svg"
   inkscape:version="0.92.0 r15299">
  <metadata
     id="metadata69">
    <rdf:RDF>
      <cc:Work
         rdf:about="">
        <dc:format>image/svg+xml</dc:format>
        <dc:type
           rdf:resource="http://purl.org/dc/dcmitype/StillImage" />
      </cc:Work>
    </rdf:RDF>
  </metadata>
  <sodipodi:namedview
     pagecolor="#ffffff"
     bordercolor="#666666"
     borderopacity="1"
     objecttolerance="10"
     gridtolerance="10"
     guidetolerance="10"
     inkscape:pageopacity="0"
     inkscape:pageshadow="2"
     inkscape:window-width="1600"
     inkscape:window-height="872"
     id="namedview67"
     showgrid="false"
     inkscape:zoom="4.9166667"
     inkscape:cx="24.40678"
     inkscape:cy="24"
     inkscape:window-x="0"
     inkscape:window-y="0"
     inkscape:window-maximized="1"
     inkscape:current-layer="svg65" />
  <defs
     id="defs17">
    <linearGradient
       id="linearGradient3764"
       x1="1"
       x2="47"
       gradientUnits="userSpaceOnUse"
       gradientTransform="rotate(-90,23.999998,24)">
      <stop
         stop-color="#e4e4e4"
         stop-opacity="1"
         id="stop2" />
      <stop
         offset="1"
         stop-color="#eee"
         stop-opacity="1"
         id="stop4" />
    </linearGradient>
    <clipPath
       id="clipPath-824719927">
      <g
         transform="translate(0,-1004.3622)"
         id="g9">
        <path
           d="m -24 13 c 0 1.105 -0.672 2 -1.5 2 -0.828 0 -1.5 -0.895 -1.5 -2 0 -1.105 0.672 -2 1.5 -2 0.828 0 1.5 0.895 1.5 2 z"
           transform="matrix(15.333333,0,0,11.5,414.99999,878.8622)"
           fill="#1890d0"
           id="path7" />
      </g>
    </clipPath>
    <clipPath
       id="clipPath-837405801">
      <g
         transform="translate(0,-1004.3622)"
         id="g14">
        <path
           d="m -24 13 c 0 1.105 -0.672 2 -1.5 2 -0.828 0 -1.5 -0.895 -1.5 -2 0 -1.105 0.672 -2 1.5 -2 0.828 0 1.5 0.895 1.5 2 z"
           transform="matrix(15.333333,0,0,11.5,414.99999,878.8622)"
           fill="#1890d0"
           id="path12" />
      </g>
    </clipPath>
  </defs>
  <g
     id="g29"
     transform="matrix(1.0044215,0,0,1,-0.00442152,0)">
    <path
       d="M 24,1 C 36.703,1 47,11.297 47,24 47,36.703 36.703,47 24,47 11.297,47 1,36.703 1,24 1,11.297 11.297,1 24,1 Z"
       id="path27"
       style="fill:url(#linearGradient3764);fill-opacity:1"
       inkscape:connector-curvature="0" />
  </g>
  <g
     id="g31" />
  <g
     id="g47"
     transform="matrix(1.0044215,0,0,1,-0.00442152,0)">
    <g
       clip-path="url(#clipPath-824719927)"
       id="g45">
      <g
         transform="translate(1,1)"
         id="g43">
        <g
           id="g41"
           style="opacity:0.1">
          <!-- color: #eeeeee -->
          <g
             id="g39">
            <path
               d="m 20.637,22.08 c 0,1.211 0.824,2.195 1.844,2.191 1.02,0 1.844,-0.98 1.844,-2.191 0,-1.211 -0.824,-2.188 -1.844,-2.188 -1.02,0 -1.844,0.977 -1.844,2.188"
               id="path33"
               inkscape:connector-curvature="0"
               style="fill:#000000;fill-opacity:1;fill-rule:evenodd;stroke:none" />
            <path
               d="m 24.03,12 c -3.961,0.004 -7.66,2.043 -9.426,5.371 -2.539,5.625 -2.574,12.133 -2.602,18.246 1.934,0.172 1.816,-1.914 3.84,-1.941 1.926,-0.027 2.203,2.258 4.164,2.297 1.754,0.031 2.316,-1.977 4.102,-2.242 1.773,-0.016 2.328,2.285 4.164,2.27 1.691,-0.012 2.363,-2.289 4.047,-2.309 1.691,-0.016 2.145,1.961 3.664,2.078 C 36.069,31.2 35.811,25.977 34.928,21.336 34.803,20.684 34.639,20.047 34.487,19.422 34.272,18.809 33.909,17.848 33.518,17.156 31.647,14.211 27.991,11.996 24.03,12 m 6.73,5.03 c 1.57,-0.074 2.918,1.508 3.406,2.934 0.297,0.875 0.727,1.906 0.352,3.051 -0.375,1.141 -0.836,2.711 -2.832,3.02 -4.598,0.316 -5.422,-5.16 -3.137,-8.07 0.594,-0.754 1.492,-0.895 2.211,-0.93 m -10.246,0.121 c 1.609,-0.063 3.266,0.98 3.754,3.277 0.316,1.902 -0.09,4.313 -1.969,5.273 -3.098,1.43 -5.188,-1.379 -5.27,-4.313 -0.094,-2.68 1.66,-4.168 3.48,-4.238 m 0.004,0"
               id="path35"
               inkscape:connector-curvature="0"
               style="fill:#000000;fill-opacity:1;fill-rule:nonzero;stroke:none" />
            <path
               d="m 30.945,22.14 c 0.004,1.211 0.828,2.191 1.848,2.191 1.016,0 1.84,-0.984 1.84,-2.195 0,-1.211 -0.824,-2.191 -1.84,-2.191 -1.02,0 -1.844,0.98 -1.848,2.191"
               id="path37"
               inkscape:connector-curvature="0"
               style="fill:#000000;fill-opacity:1;fill-rule:evenodd;stroke:none" />
          </g>
        </g>
      </g>
    </g>
  </g>
  <g
     id="g59"
     transform="matrix(1.0044215,0,0,1,-0.00442152,0)">
    <g
       clip-path="url(#clipPath-837405801)"
       id="g57">
      <!-- color: #eeeeee -->
      <g
         id="g55">
        <path
           d="m 20.637,22.08 c 0,1.211 0.824,2.195 1.844,2.191 1.02,0 1.844,-0.98 1.844,-2.191 0,-1.211 -0.824,-2.188 -1.844,-2.188 -1.02,0 -1.844,0.977 -1.844,2.188"
           id="path49"
           inkscape:connector-curvature="0"
           style="fill:#2d2d2d;fill-opacity:1;fill-rule:evenodd;stroke:none" />
        <path
           d="m 24.03,12 c -3.961,0.004 -7.66,2.043 -9.426,5.371 -2.539,5.625 -2.574,12.133 -2.602,18.246 1.934,0.172 1.816,-1.914 3.84,-1.941 1.926,-0.027 2.203,2.258 4.164,2.297 1.754,0.031 2.316,-1.977 4.102,-2.242 1.773,-0.016 2.328,2.285 4.164,2.27 1.691,-0.012 2.363,-2.289 4.047,-2.309 1.691,-0.016 2.145,1.961 3.664,2.078 C 36.069,31.2 35.811,25.977 34.928,21.336 34.803,20.684 34.639,20.047 34.487,19.422 34.272,18.809 33.909,17.848 33.518,17.156 31.647,14.211 27.991,11.996 24.03,12 m 6.73,5.03 c 1.57,-0.074 2.918,1.508 3.406,2.934 0.297,0.875 0.727,1.906 0.352,3.051 -0.375,1.141 -0.836,2.711 -2.832,3.02 -4.598,0.316 -5.422,-5.16 -3.137,-8.07 0.594,-0.754 1.492,-0.895 2.211,-0.93 m -10.246,0.121 c 1.609,-0.063 3.266,0.98 3.754,3.277 0.316,1.902 -0.09,4.313 -1.969,5.273 -3.098,1.43 -5.188,-1.379 -5.27,-4.313 -0.094,-2.68 1.66,-4.168 3.48,-4.238 m 0.004,0"
           id="path51"
           inkscape:connector-curvature="0"
           style="fill:#ecc13d;fill-opacity:1;fill-rule:nonzero;stroke:none" />
        <path
           d="m 30.945,22.14 c 0.004,1.211 0.828,2.191 1.848,2.191 1.016,0 1.84,-0.984 1.84,-2.195 0,-1.211 -0.824,-2.191 -1.84,-2.191 -1.02,0 -1.844,0.98 -1.848,2.191"
           id="path53"
           inkscape:connector-curvature="0"
           style="fill:#2d2d2d;fill-opacity:1;fill-rule:evenodd;stroke:none" />
      </g>
    </g>
  </g>
</svg>
