<?xml version="1.0" encoding="UTF-8" standalone="no"?>
<svg
   xmlns:dc="http://purl.org/dc/elements/1.1/"
   xmlns:cc="http://creativecommons.org/ns#"
   xmlns:rdf="http://www.w3.org/1999/02/22-rdf-syntax-ns#"
   xmlns:svg="http://www.w3.org/2000/svg"
   xmlns="http://www.w3.org/2000/svg"
   xmlns:sodipodi="http://sodipodi.sourceforge.net/DTD/sodipodi-0.dtd"
   xmlns:inkscape="http://www.inkscape.org/namespaces/inkscape"
   viewBox="0 0 48 48"
   version="1.1"
   id="svg61"
   sodipodi:docname="arronax.svg"
   inkscape:version="0.92.2pre0 (973e216, 2017-07-25)">
  <metadata
     id="metadata65">
    <rdf:RDF>
      <cc:Work
         rdf:about="">
        <dc:format>image/svg+xml</dc:format>
        <dc:type
           rdf:resource="http://purl.org/dc/dcmitype/StillImage" />
      </cc:Work>
    </rdf:RDF>
  </metadata>
  <sodipodi:namedview
     pagecolor="#ffffff"
     bordercolor="#666666"
     borderopacity="1"
     objecttolerance="10"
     gridtolerance="10"
     guidetolerance="10"
     inkscape:pageopacity="0"
     inkscape:pageshadow="2"
     inkscape:window-width="1360"
     inkscape:window-height="658"
     id="namedview63"
     showgrid="false"
     inkscape:zoom="4.9166667"
     inkscape:cx="20.440678"
     inkscape:cy="24"
     inkscape:window-x="0"
     inkscape:window-y="28"
     inkscape:window-maximized="1"
     inkscape:current-layer="svg61" />
  <defs
     id="defs17">
    <linearGradient
       id="linearGradient3764"
       x1="1"
       x2="47"
       gradientUnits="userSpaceOnUse"
       gradientTransform="rotate(-90,23.999998,24)">
      <stop
         stop-color="#004ba0"
         stop-opacity="1"
         id="stop2" />
      <stop
         offset="1"
         stop-color="#0055b5"
         stop-opacity="1"
         id="stop4" />
    </linearGradient>
    <clipPath
       id="clipPath-506744861">
      <g
         transform="translate(0,-1004.3622)"
         id="g9">
        <path
           d="m -24 13 c 0 1.105 -0.672 2 -1.5 2 -0.828 0 -1.5 -0.895 -1.5 -2 0 -1.105 0.672 -2 1.5 -2 0.828 0 1.5 0.895 1.5 2 z"
           transform="matrix(15.333333,0,0,11.5,414.99999,878.8622)"
           fill="#1890d0"
           id="path7" />
      </g>
    </clipPath>
    <clipPath
       id="clipPath-515793637">
      <g
         transform="translate(0,-1004.3622)"
         id="g14">
        <path
           d="m -24 13 c 0 1.105 -0.672 2 -1.5 2 -0.828 0 -1.5 -0.895 -1.5 -2 0 -1.105 0.672 -2 1.5 -2 0.828 0 1.5 0.895 1.5 2 z"
           transform="matrix(15.333333,0,0,11.5,414.99999,878.8622)"
           fill="#1890d0"
           id="path12" />
      </g>
    </clipPath>
  </defs>
  <g
     id="g29">
    <path
       d="M 24,1 C 36.703,1 47,11.297 47,24 47,36.703 36.703,47 24,47 11.297,47 1,36.703 1,24 1,11.297 11.297,1 24,1 Z"
       id="path27"
       style="fill:url(#linearGradient3764);fill-opacity:1"
       inkscape:connector-curvature="0" />
  </g>
  <g
     id="g31" />
  <polygon
     style="opacity:0.3;fill:#ffffff"
     points="35.886,24.045 23.333,35.16 10.781,24.045 23.592,16.959 "
     id="polygon880"
     transform="translate(0.14018983,-0.67322042)" />
  <g
     id="g888"
     transform="translate(0.14018983,-0.67322042)">
    <path
       style="fill:#ffffff"
       inkscape:connector-curvature="0"
       d="M 23.148,15.851 9.496,23.402 c -0.582,0.322 -0.693,1.112 -0.223,1.582 l 13.354,13.354 c 0.391,0.391 1.024,0.391 1.414,0 L 37.412,24.967 c 0.465,-0.465 0.362,-1.245 -0.208,-1.573 L 24.132,15.859 C 23.828,15.684 23.455,15.681 23.148,15.851 Z M 10.781,24.045 23.592,16.959 35.885,24.045 23.333,35.16 Z"
       id="path882" />
    <path
       style="fill:#ffffff"
       inkscape:connector-curvature="0"
       d="m 28.971,16.408 2.915,1.452 -2.088,-8.1 -8.675,2.736 2.796,1.393 c -2.65,2.608 -5.761,8.472 -3.258,21.146 l 2.807,2.886 c 0,0.002 -1.687,-14.124 5.503,-21.513 z"
       id="path884" />
    <path
       style="opacity:0.3;fill:#ffffff"
       inkscape:connector-curvature="0"
       d="m 29,24.946 2.424,1.232 -1.625,-4.942 -7.328,0.391 2.326,1.182 c -2.267,1.139 -4.971,4.087 -3.07,11.717 l 1.633,2.042 C 23.359,36.569 22.845,28.216 29,24.946 Z"
       id="path886" />
  </g>
</svg>
