<?xml version="1.0" encoding="UTF-8" standalone="no"?>
<svg
   xmlns:dc="http://purl.org/dc/elements/1.1/"
   xmlns:cc="http://creativecommons.org/ns#"
   xmlns:rdf="http://www.w3.org/1999/02/22-rdf-syntax-ns#"
   xmlns:svg="http://www.w3.org/2000/svg"
   xmlns="http://www.w3.org/2000/svg"
   xmlns:sodipodi="http://sodipodi.sourceforge.net/DTD/sodipodi-0.dtd"
   xmlns:inkscape="http://www.inkscape.org/namespaces/inkscape"
   viewBox="0 0 48 48"
   version="1.1"
   id="svg89"
   sodipodi:docname="okteta.svg"
   inkscape:version="0.92.2pre0 (973e216, 2017-07-25)">
  <metadata
     id="metadata93">
    <rdf:RDF>
      <cc:Work
         rdf:about="">
        <dc:format>image/svg+xml</dc:format>
        <dc:type
           rdf:resource="http://purl.org/dc/dcmitype/StillImage" />
      </cc:Work>
    </rdf:RDF>
  </metadata>
  <sodipodi:namedview
     pagecolor="#ffffff"
     bordercolor="#666666"
     borderopacity="1"
     objecttolerance="10"
     gridtolerance="10"
     guidetolerance="10"
     inkscape:pageopacity="0"
     inkscape:pageshadow="2"
     inkscape:window-width="1360"
     inkscape:window-height="658"
     id="namedview91"
     showgrid="false"
     inkscape:zoom="4.9166667"
     inkscape:cx="59.389831"
     inkscape:cy="24"
     inkscape:window-x="0"
     inkscape:window-y="28"
     inkscape:window-maximized="1"
     inkscape:current-layer="svg89" />
  <defs
     id="defs17">
    <linearGradient
       id="linearGradient3764"
       x1="1"
       x2="47"
       gradientUnits="userSpaceOnUse"
       gradientTransform="rotate(-90,23.999998,24)">
      <stop
         style="stop-color:#e4e4e4;stop-opacity:1"
         id="stop2" />
      <stop
         offset="1"
         style="stop-color:#eee;stop-opacity:1"
         id="stop4" />
    </linearGradient>
    <clipPath
       id="clipPath-061399948">
      <g
         transform="translate(0,-1004.3622)"
         id="g9">
        <path
           d="m -24 13 c 0 1.105 -0.672 2 -1.5 2 -0.828 0 -1.5 -0.895 -1.5 -2 0 -1.105 0.672 -2 1.5 -2 0.828 0 1.5 0.895 1.5 2 z"
           transform="matrix(15.333333,0,0,11.5,414.99999,878.8622)"
           style="fill:#1890d0"
           id="path7" />
      </g>
    </clipPath>
    <clipPath
       id="clipPath-071555454">
      <g
         transform="translate(0,-1004.3622)"
         id="g14">
        <path
           d="m -24 13 c 0 1.105 -0.672 2 -1.5 2 -0.828 0 -1.5 -0.895 -1.5 -2 0 -1.105 0.672 -2 1.5 -2 0.828 0 1.5 0.895 1.5 2 z"
           transform="matrix(15.333333,0,0,11.5,414.99999,878.8622)"
           style="fill:#1890d0"
           id="path12" />
      </g>
    </clipPath>
  </defs>
  <g
     id="g25">
    <path
       d="m 36.31 5 c 5.859 4.062 9.688 10.831 9.688 18.5 c 0 12.426 -10.07 22.5 -22.5 22.5 c -7.669 0 -14.438 -3.828 -18.5 -9.688 c 1.037 1.822 2.306 3.499 3.781 4.969 c 4.085 3.712 9.514 5.969 15.469 5.969 c 12.703 0 23 -10.298 23 -23 c 0 -5.954 -2.256 -11.384 -5.969 -15.469 c -1.469 -1.475 -3.147 -2.744 -4.969 -3.781 z m 4.969 3.781 c 3.854 4.113 6.219 9.637 6.219 15.719 c 0 12.703 -10.297 23 -23 23 c -6.081 0 -11.606 -2.364 -15.719 -6.219 c 4.16 4.144 9.883 6.719 16.219 6.719 c 12.703 0 23 -10.298 23 -23 c 0 -6.335 -2.575 -12.06 -6.719 -16.219 z"
       style="opacity:0.05"
       id="path19" />
    <path
       d="m 41.28 8.781 c 3.712 4.085 5.969 9.514 5.969 15.469 c 0 12.703 -10.297 23 -23 23 c -5.954 0 -11.384 -2.256 -15.469 -5.969 c 4.113 3.854 9.637 6.219 15.719 6.219 c 12.703 0 23 -10.298 23 -23 c 0 -6.081 -2.364 -11.606 -6.219 -15.719 z"
       style="opacity:0.1"
       id="path21" />
    <path
       d="m 31.25 2.375 c 8.615 3.154 14.75 11.417 14.75 21.13 c 0 12.426 -10.07 22.5 -22.5 22.5 c -9.708 0 -17.971 -6.135 -21.12 -14.75 a 23 23 0 0 0 44.875 -7 a 23 23 0 0 0 -16 -21.875 z"
       style="opacity:0.2"
       id="path23" />
  </g>
  <path
     inkscape:connector-curvature="0"
     id="path27"
     style="fill:url(#linearGradient3764);fill-opacity:1"
     d="M 24,1 C 36.703,1 47,11.297 47,24 47,36.703 36.703,47 24,47 11.297,47 1,36.703 1,24 1,11.297 11.297,1 24,1 Z" />
  <g
     id="g937"
     transform="translate(0.90305107,0.14033895)">
    <g
       id="g929">
      <g
         id="g927">
        <path
           style="fill:#127dd9"
           inkscape:connector-curvature="0"
           d="m 38.136,29.983 c 0.98,0 1.775,-0.795 1.775,-1.775 0,-4.307 -3.503,-7.81 -7.81,-7.81 -0.137,0 -0.268,0.033 -0.405,0.04 0.088,-0.467 0.145,-0.946 0.145,-1.438 0,-4.307 -3.503,-7.81 -7.81,-7.81 -4.307,0 -7.81,3.503 -7.81,7.81 0,0.497 0.058,0.981 0.147,1.453 -0.183,-0.013 -0.357,-0.055 -0.543,-0.055 -4.307,0 -7.81,3.503 -7.81,7.81 0,4.307 3.503,7.811 7.81,7.811 2.189,0 4.164,-0.911 5.584,-2.367 l 0.007,0.006 c 0,0 7.312,-8.081 7.64,-8.43 0.809,-0.826 1.889,-1.28 3.045,-1.28 2.349,0 4.26,1.911 4.26,4.26 0,0.98 0.795,1.775 1.775,1.775 z M 24.032,14.74 c 2.349,0 4.26,1.911 4.26,4.26 0,2.35 -1.911,4.261 -4.26,4.261 -2.349,0 -4.26,-1.911 -4.26,-4.261 0,-2.349 1.912,-4.26 4.26,-4.26 z M 11.567,28.208 c 0,-2.349 1.911,-4.26 4.26,-4.26 2.35,0 4.261,1.911 4.261,4.26 0,1.162 -0.47,2.215 -1.227,2.984 -0.01,0.011 -0.021,0.023 -0.031,0.034 -0.771,0.767 -1.832,1.242 -3.003,1.242 -2.349,0 -4.26,-1.911 -4.26,-4.26 z"
           id="path925" />
      </g>
    </g>
    <circle
       style="fill:#247ad3"
       cx="38.242001"
       cy="34.242001"
       r="1.775"
       id="circle931" />
    <g
       id="g935">
      <path
         style="fill:#ec3e43"
         inkscape:connector-curvature="0"
         d="m 11.746,21.93 c 1.017,0 1.842,0.825 1.842,1.842 0,0.407 -0.137,0.78 -0.361,1.085 0.722,-0.561 1.616,-0.909 2.599,-0.909 2.35,0 4.261,1.911 4.261,4.26 0,1.16 -0.468,2.21 -1.222,2.979 l 4.501,-5.049 c -0.906,-3.314 -3.931,-5.753 -7.533,-5.753 -1.881,0 -3.606,0.665 -4.955,1.772 0.26,-0.14 0.552,-0.227 0.868,-0.227 z"
         id="path933" />
    </g>
  </g>
</svg>
