<?xml version="1.0" encoding="UTF-8" standalone="no"?>
<svg
   xmlns:dc="http://purl.org/dc/elements/1.1/"
   xmlns:cc="http://creativecommons.org/ns#"
   xmlns:rdf="http://www.w3.org/1999/02/22-rdf-syntax-ns#"
   xmlns:svg="http://www.w3.org/2000/svg"
   xmlns="http://www.w3.org/2000/svg"
   xmlns:sodipodi="http://sodipodi.sourceforge.net/DTD/sodipodi-0.dtd"
   xmlns:inkscape="http://www.inkscape.org/namespaces/inkscape"
   viewBox="0 0 48 48"
   version="1.1"
   id="svg77"
   sodipodi:docname="apps.com.google.mail.svg"
   inkscape:version="0.92.0 r15299">
  <metadata
     id="metadata81">
    <rdf:RDF>
      <cc:Work
         rdf:about="">
        <dc:format>image/svg+xml</dc:format>
        <dc:type
           rdf:resource="http://purl.org/dc/dcmitype/StillImage" />
      </cc:Work>
    </rdf:RDF>
  </metadata>
  <sodipodi:namedview
     pagecolor="#ffffff"
     bordercolor="#666666"
     borderopacity="1"
     objecttolerance="10"
     gridtolerance="10"
     guidetolerance="10"
     inkscape:pageopacity="0"
     inkscape:pageshadow="2"
     inkscape:window-width="1600"
     inkscape:window-height="872"
     id="namedview79"
     showgrid="false"
     inkscape:zoom="4.9166667"
     inkscape:cx="24.40678"
     inkscape:cy="24"
     inkscape:window-x="0"
     inkscape:window-y="0"
     inkscape:window-maximized="1"
     inkscape:current-layer="svg77" />
  <defs
     id="defs17">
    <linearGradient
       id="linearGradient3764"
       x1="1"
       x2="47"
       gradientUnits="userSpaceOnUse"
       gradientTransform="matrix(0,-1,1,0,-1.5e-6,47.999998)">
      <stop
         stop-color="#cfcfcf"
         stop-opacity="1"
         id="stop2" />
      <stop
         offset="1"
         stop-color="#d9d9d9"
         stop-opacity="1"
         id="stop4" />
    </linearGradient>
    <clipPath
       id="clipPath-452906972">
      <g
         transform="translate(0,-1004.3622)"
         id="g9">
        <path
           d="m -24 13 c 0 1.105 -0.672 2 -1.5 2 -0.828 0 -1.5 -0.895 -1.5 -2 0 -1.105 0.672 -2 1.5 -2 0.828 0 1.5 0.895 1.5 2 z"
           transform="matrix(15.333333,0,0,11.5,414.99999,878.8622)"
           fill="#1890d0"
           id="path7" />
      </g>
    </clipPath>
    <clipPath
       id="clipPath-458231625">
      <g
         transform="translate(0,-1004.3622)"
         id="g14">
        <path
           d="m -24 13 c 0 1.105 -0.672 2 -1.5 2 -0.828 0 -1.5 -0.895 -1.5 -2 0 -1.105 0.672 -2 1.5 -2 0.828 0 1.5 0.895 1.5 2 z"
           transform="matrix(15.333333,0,0,11.5,414.99999,878.8622)"
           fill="#1890d0"
           id="path12" />
      </g>
    </clipPath>
  </defs>
  <g
     id="g29">
    <path
       d="m 24 1 c 12.703 0 23 10.297 23 23 c 0 12.703 -10.297 23 -23 23 -12.703 0 -23 -10.297 -23 -23 0 -12.703 10.297 -23 23 -23 z"
       fill="url(#linearGradient3764)"
       fill-opacity="1"
       id="path27" />
  </g>
  <g
     id="g31" />
  <g
     id="g53">
    <g
       clip-path="url(#clipPath-452906972)"
       id="g51">
      <g
         transform="translate(1,1)"
         id="g49">
        <g
           opacity="0.1"
           id="g47">
          <!-- color: #d9d9d9 -->
          <g
             id="g45">
            <path
               d="m 11.984 15 l 24.03 0 c 0.543 0 0.977 0.441 0.977 0.984 l 0 16.03 c 0 0.543 -0.438 0.977 -0.977 0.977 l -24.03 0 c -0.547 0 -0.984 -0.438 -0.984 -0.977 l 0 -16.03 c 0 -0.543 0.438 -0.984 0.984 -0.984 m 0 0"
               fill="#000"
               stroke="none"
               fill-rule="nonzero"
               fill-opacity="1"
               id="path33" />
            <path
               d="m 37 17 l -13 8.656 l 11 7.344 l 1 0 c 0.547 0 1 -0.453 1 -1 m 0 -15"
               fill="#000"
               stroke="none"
               fill-rule="nonzero"
               fill-opacity="1"
               id="path35" />
            <path
               d="m 35 15 l 0 18 l 1 0 c 0.547 0 1 -0.453 1 -1 l 0 -16 c 0 -0.543 -0.453 -0.996 -1 -0.996 m -1 0"
               fill="#000"
               stroke="none"
               fill-rule="nonzero"
               fill-opacity="1"
               id="path37" />
            <path
               d="m 12 15 c -0.543 0 -0.996 0.453 -0.996 0.996 l 0 16 c 0 0.547 0.453 1 0.996 1 l 1 0 l 0 -18 m -1 0"
               fill="#000"
               stroke="none"
               fill-rule="nonzero"
               fill-opacity="1"
               id="path39" />
            <path
               d="m 12 15 c -0.543 0 -0.996 0.453 -0.996 0.996 l 0 1 l 13 8.656 l 0 -3.313 l -11 -7.344 l -1 0 m -0.004 0.004"
               fill="#000"
               stroke="none"
               fill-rule="nonzero"
               fill-opacity="1"
               id="path41" />
            <path
               d="m 36 15 c 0.547 0 1 0.453 1 0.996 l 0 1 l -13 8.656 l 0 -3.313 l 10.996 -7.344 l 1 0 m 0.004 0.004"
               fill="#000"
               stroke="none"
               fill-rule="nonzero"
               fill-opacity="1"
               id="path43" />
          </g>
        </g>
      </g>
    </g>
  </g>
  <g
     id="g71">
    <g
       clip-path="url(#clipPath-458231625)"
       id="g69">
      <!-- color: #d9d9d9 -->
      <g
         id="g67">
        <path
           d="m 11.984 15 l 24.03 0 c 0.543 0 0.977 0.441 0.977 0.984 l 0 16.03 c 0 0.543 -0.438 0.977 -0.977 0.977 l -24.03 0 c -0.547 0 -0.984 -0.438 -0.984 -0.977 l 0 -16.03 c 0 -0.543 0.438 -0.984 0.984 -0.984 m 0 0"
           fill="#f9f9f9"
           stroke="none"
           fill-rule="nonzero"
           fill-opacity="1"
           id="path55" />
        <path
           d="m 37 17 l -13 8.656 l 11 7.344 l 1 0 c 0.547 0 1 -0.453 1 -1 m 0 -15"
           fill="#ccc"
           stroke="none"
           fill-rule="nonzero"
           fill-opacity="1"
           id="path57" />
        <path
           d="m 35 15 l 0 18 l 1 0 c 0.547 0 1 -0.453 1 -1 l 0 -16 c 0 -0.543 -0.453 -0.996 -1 -0.996 m -1 0"
           fill="#c02c1f"
           stroke="none"
           fill-rule="nonzero"
           fill-opacity="1"
           id="path59" />
        <path
           d="m 12 15 c -0.543 0 -0.996 0.453 -0.996 0.996 l 0 16 c 0 0.547 0.453 1 0.996 1 l 1 0 l 0 -18 m -1 0"
           fill="#ff493c"
           stroke="none"
           fill-rule="nonzero"
           fill-opacity="1"
           id="path61" />
        <path
           d="m 12 15 c -0.543 0 -0.996 0.453 -0.996 0.996 l 0 1 l 13 8.656 l 0 -3.313 l -11 -7.344 l -1 0 m -0.004 0.004"
           fill="#ff493c"
           stroke="none"
           fill-rule="nonzero"
           fill-opacity="1"
           id="path63" />
        <path
           d="m 36 15 c 0.547 0 1 0.453 1 0.996 l 0 1 l -13 8.656 l 0 -3.313 l 10.996 -7.344 l 1 0 m 0.004 0.004"
           fill="#ff493c"
           stroke="none"
           fill-rule="nonzero"
           fill-opacity="1"
           id="path65" />
      </g>
    </g>
  </g>
</svg>
