<?xml version="1.0" encoding="UTF-8" standalone="no"?>
<svg
   xmlns:dc="http://purl.org/dc/elements/1.1/"
   xmlns:cc="http://creativecommons.org/ns#"
   xmlns:rdf="http://www.w3.org/1999/02/22-rdf-syntax-ns#"
   xmlns:svg="http://www.w3.org/2000/svg"
   xmlns="http://www.w3.org/2000/svg"
   xmlns:sodipodi="http://sodipodi.sourceforge.net/DTD/sodipodi-0.dtd"
   xmlns:inkscape="http://www.inkscape.org/namespaces/inkscape"
   width="48px"
   height="48px"
   viewBox="0 0 48 48"
   version="1.1"
   id="svg30"
   sodipodi:docname="apps.com.qianlong.svg"
   inkscape:version="0.92.1 r15371">
  <metadata
     id="metadata34">
    <rdf:RDF>
      <cc:Work
         rdf:about="">
        <dc:format>image/svg+xml</dc:format>
        <dc:type
           rdf:resource="http://purl.org/dc/dcmitype/StillImage" />
      </cc:Work>
    </rdf:RDF>
  </metadata>
  <sodipodi:namedview
     pagecolor="#ffffff"
     bordercolor="#666666"
     borderopacity="1"
     objecttolerance="10"
     gridtolerance="10"
     guidetolerance="10"
     inkscape:pageopacity="0"
     inkscape:pageshadow="2"
     inkscape:window-width="1600"
     inkscape:window-height="875"
     id="namedview32"
     showgrid="false"
     inkscape:zoom="4.9166667"
     inkscape:cx="24"
     inkscape:cy="24"
     inkscape:window-x="0"
     inkscape:window-y="0"
     inkscape:window-maximized="1"
     inkscape:current-layer="svg30" />
  <!-- Generator: Sketch 3.6.1 (26313) - http://www.bohemiancoding.com/sketch -->
  <title
     id="title2">钱龙</title>
  <desc
     id="desc4">Created with Sketch.</desc>
  <defs
     id="defs19">
    <filter
       x="-50%"
       y="-50%"
       width="200%"
       height="200%"
       filterUnits="objectBoundingBox"
       id="filter-1">
      <feOffset
         dx="0"
         dy="1"
         in="SourceAlpha"
         result="shadowOffsetOuter1"
         id="feOffset6" />
      <feGaussianBlur
         stdDeviation="0.5"
         in="shadowOffsetOuter1"
         result="shadowBlurOuter1"
         id="feGaussianBlur8" />
      <feColorMatrix
         values="0 0 0 0 0   0 0 0 0 0   0 0 0 0 0  0 0 0 0.21 0"
         in="shadowBlurOuter1"
         type="matrix"
         result="shadowMatrixOuter1"
         id="feColorMatrix10" />
      <feMerge
         id="feMerge16">
        <feMergeNode
           in="shadowMatrixOuter1"
           id="feMergeNode12" />
        <feMergeNode
           in="SourceGraphic"
           id="feMergeNode14" />
      </feMerge>
    </filter>
  </defs>
  <g
     id="Page-1"
     transform="matrix(1.0762712,0,0,1.0835351,-1.6016949,-1.7760291)"
     style="fill:none;fill-rule:evenodd;stroke:none;stroke-width:1;filter:url(#filter-1)">
    <g
       id="钱龙">
      <g
         id="Group-3"
         transform="translate(3,3)">
        <circle
           id="Oval-9"
           cx="21"
           cy="21"
           r="21"
           style="fill:#252525" />
        <circle
           id="Oval-8"
           cx="29.750706"
           cy="9.7507048"
           r="0.75070482"
           style="fill:#ef0113" />
        <path
           d="m 13.613748,14.466613 c 1.449857,0.23202 2.886125,1.296509 5.76983,-1.106578 2.573845,-2.144871 2.037627,-0.750705 2.037627,-0.750705 0,0 -0.643461,0.750705 -1.608653,0.857948 -0.965192,0.107244 2.466602,0.643461 3.539037,-0.750705 1.072436,-1.394166 2.681089,-1.072435 2.681089,-1.072435 0,0 1.608653,0.643461 2.681088,0.214487 0.965192,0.536218 2.573845,1.179679 2.144871,-1.179679 -0.32173,0.536218 -0.428974,0.857948 -1.501409,0.107244 -0.643462,0 -0.750705,-0.107244 -0.643462,-0.8579488 -0.32173,0.4289738 -0.428974,0.9651918 -1.179679,0.4289738 -0.750705,-0.5362174 -0.428974,-0.214487 -1.179679,-0.32173 -0.750704,-0.1072438 -2.788332,-0.6434615 0,-1.1796793 2.144871,-0.4289742 1.930384,-0.4289742 2.037628,0.4289742 0.107243,0.8579481 0.428974,-0.9651919 0.428974,-0.9651919 0,0 0.214487,0.6434613 1.179679,0.3217306 0.857948,0.4289742 0.32173,0.2144871 0.643461,0.2144871 0.321731,0 0.214487,0.6434613 0.214487,0.8579484 0,0.2144871 0.643461,-0.6434613 0.536218,-1.3941661 0.214487,-0.4289742 0.428974,-0.6434613 0.32173,-1.3941661 C 32.252803,6.2819606 32.360047,5.4240123 30.536907,5.1022817 29.464471,4.0298462 28.82101,3.8153591 26.99787,4.1370898 c -1.823141,0.3217306 -3.110063,0.1072435 -3.110063,0.1072435 0,0 -0.857949,-0.1072435 0.32173,0.3217306 1.179679,0.4289742 3.646281,-0.214487 3.646281,-0.214487 0,0 1.394166,-0.1072436 2.144871,0.8579483 -0.536218,0.1072435 -1.286923,0.4289742 -3.217307,0.4289742 -1.930383,0 -0.214487,0.2144871 1.179679,0.2144871 1.394167,0 2.037628,-0.4289742 2.037628,-0.4289742 0,0 0.107243,0.5362177 -0.857949,0.6434613 -0.32173,0.4289741 -0.857948,0.5362177 -2.252114,0.5362177 -1.394166,0 -1.179679,-0.1072436 -1.179679,-0.1072436 0,0 0.428974,-1.9303838 -1.608653,-1.394166 C 23.887807,4.6733075 23.780563,4.1370898 21.528449,4.9950381 19.169091,5.5312558 15.951785,4.5660639 15.951785,4.5660639 c 0,0 -2.466602,-0.7507048 -1.50141,0.1072436 0.965192,0.8579483 1.930384,0.6434612 1.930384,0.6434612 0,0 0.428974,0.2144871 -0.643462,0.4289742 -1.072435,0.2144871 -0.965191,0.4289742 -0.965191,0.4289742 0,0 0.107243,0.6434613 1.715896,0 1.608653,-0.6434613 2.144871,-0.3217306 2.144871,-0.3217306 0,0 0.107244,0.4289742 -1.930384,0.6434612 -2.037627,0.2144871 -3.968011,0.1072436 -3.968011,0.1072436 0,0 -4.182498,-0.4289744 -2.573845,0.2144871 1.608653,0.6434614 2.895576,0.4289741 2.895576,0.4289741 0,0 0.321731,0.3217305 -0.965192,0.5362178 -1.072436,0.3217308 -0.750705,0.9651917 0.214487,0.6434612 0.965192,-0.3217304 1.715897,-0.8579481 3.431793,-0.9651919 1.394166,-0.1072437 0.965192,0.4289742 0.965192,0.4289742 0,0 0.107244,0.4289744 -1.286922,0.1072438 -1.394166,-0.3217307 -2.573845,0.7507048 -2.788332,1.7158967 0.536217,-0.2584259 1.072435,-0.7507048 2.466601,-0.5362179 0.750705,0.4289743 -0.428974,0.5362177 -0.428974,0.5362177 0,0 -3.110063,-0.2584257 -3.64628,4.0752549 0.536217,-0.321731 1.179679,-1.179679 3.64628,-1.394166 1.608653,-0.107244 2.144871,-0.965192 2.144871,-0.965192 0,0 0.536218,-0.536218 0.857948,0.107243 0.321731,0.643462 -0.857948,0.643462 -0.857948,0.643462 0,0 -0.857949,0 -1.608653,1.072435 -0.750705,1.072435 -1.738824,1.062615 -1.930384,1.179679 0.109453,0.0028 0.223923,0.01508 0.343052,0.03414 z m 6.413291,-5.6108073 c 0,0 -1.072435,0.8579484 0.214487,1.2869223 1.072436,0.107244 1.715897,-0.7507046 1.715897,-0.7507046 0,0 1.072435,-0.9651919 2.466602,-0.8579483 -0.857949,0.4289742 -1.286923,0.5362177 -2.037628,1.2869225 -0.750705,0.7507044 -1.286923,1.0724354 -2.359358,1.1796794 -1.072435,0.107243 -1.82314,-0.321731 -1.072435,-1.6086536 -0.857949,0.2144871 -3.002819,-0.6434612 -0.107244,-2.1448709 -1.930384,2.2521145 1.179679,1.6086532 1.179679,1.6086532 z m 0.750705,-2.347442 c 0,0 1.50141,-0.5481337 2.895576,-0.1191595 -1.715897,1.9303838 -2.895576,0.1191595 -2.895576,0.1191595 z m 9.115701,-0.2726669 c 0,0 0.321731,-0.2754668 0.643462,-0.704441 0.32173,-0.4289741 1.286922,0.6461202 1.286922,0.6461202 0,0 -0.107244,0.5335588 -0.428974,0.6408024 -0.321731,0.1072436 -1.50141,-0.5824816 -1.50141,-0.5824816 z"
           id="Combined-Shape"
           inkscape:connector-curvature="0"
           style="fill:#ef0113" />
        <path
           d="m 9.6556639,14.383013 c 0,0 0.2144871,-2.573845 1.2869231,-3.646281 1.072435,-1.0724353 0.214487,-1.0724353 0.214487,-1.0724353 0,0 -0.536218,-0.1072435 -1.286923,0.3217306 -0.7507048,0.4289747 -1.7158967,0.1072437 -1.7158967,0.1072437 0,0 -2.5738451,-0.2144872 -2.8955757,3.002819 0.6434613,-0.643461 1.8231403,-1.608653 2.7883322,-1.394166 0.6434612,0.107243 -0.8579484,0.857948 -0.8579484,0.857948 0,0 -2.6810886,1.394166 -2.4666015,4.289742 0.6434613,-1.286922 1.0724354,-1.608653 1.7158967,-1.82314 0.6434613,-0.214487 0.2144871,0.536218 0.2144871,0.536218 l -1.0724355,1.501409 c 0,0 -1.1796789,1.394166 0.3217307,3.646281 -0.1072436,-0.965192 -0.1072435,-2.466602 0.4289742,-2.681089 0.5362176,-0.214487 0.2144871,1.394166 0.2144871,1.394166 0,0 -0.6434615,2.359358 1.394166,3.431794 0,0 -0.3217306,-0.536218 -0.3217306,-1.286923 0,-0.750704 0.4289742,0.428974 0.4289742,0.428974 0,0 0.1072434,0.321731 0.7507048,0.643462 0.6434614,0.321731 -0.1072436,0.750704 -0.1072436,0.750704 0,0 -0.9651918,0.643461 -1.7158967,-0.32173 -0.7507048,-0.965192 -1.6086531,-1.930384 -1.6086531,-1.930384 0,0 -0.4289742,-0.428975 -0.9651919,-0.214487 0,0 -0.9651919,-0.428975 -1.2869226,0.214487 0,0 0.8579484,-0.214488 1.0724355,0.214487 0,0 -0.2144871,0.428974 1.7158967,1.394166 0,1e-6 -2.1448709,-1.179679 -2.5738451,-0.321731 -0.4289742,0.107244 -0.6434612,0.107244 -1.0724354,0.750706 0,0 0.8579483,-0.428975 1.2869225,-0.321731 0,0 0,0.536217 1.3941661,0.536217 0.1072435,10e-7 1.0708489,0.107244 1.5014096,0.643462 0,0 -1.2869225,-0.107244 -1.7158967,-0.321731 -0.4289742,-0.214487 -1.0724355,-0.107244 -0.9651919,0.428974 0,10e-7 -0.8579484,0.107243 -0.9651919,1.179679 0,0 0.5362177,-0.857949 0.9651919,-0.643461 0,0 0.2144871,0.643461 1.179679,0.32173 0.9651919,-0.32173 1.8231402,0.857949 1.8231402,0.857949 0,0 0.3217307,0.428974 0.9651919,0.214487 0.4289742,0 0.5362178,0.428974 0.5362178,0.428974 0,0 0.3217306,0.750705 0.9651919,0.643461 0,1e-6 0.3217306,0.536219 0,0.965193 0,0 0.5362177,-0.643462 0.3217306,-1.072436 0,0 0.7507046,-0.536218 -0.3217306,-1.608653 -0.3217307,-0.965192 1.0724352,-1.608653 1.1796792,-1.394166 0.107243,0.214487 1.608653,1.394165 4.289742,0.857948 0,0 -5.6839083,-1.179679 -6.220126,-5.898395 -0.3217307,-2.681089 1.1796789,-4.611472 1.1796789,-4.611472 z"
           id="Path-29"
           inkscape:connector-curvature="0"
           style="fill:#ef0113" />
        <path
           d="m 13.286181,13.437421 c 0.01352,-0.05596 -0.182243,0.03752 -0.466441,0.140123 -0.987023,0.35634 -3.2038153,1.497683 -3.2870831,4.578593 -0.1072436,3.968012 4.8259591,5.683908 4.8259591,5.683908 0,0 4.289742,2.037628 2.144871,2.895576 -0.32173,0.107244 -0.643461,0.214487 -0.643461,0.536218 0,0 -0.750705,0.428974 -0.321731,1.501409 0,0 0.214488,-0.965192 0.643462,-0.965192 0,0 0.750705,0.321731 1.286922,-0.107243 0,0 0.321731,-0.107244 0.428974,0.107243 0.107243,0.214487 0.750705,0.643462 0.750705,0.643462 0,0 0.536218,0.32173 0.643461,0.750705 0.107243,0.428974 0.321731,0.965191 0.965192,0.643461 0,0 0.643462,0.32173 0.428974,1.179679 0,0 0.750706,-0.643461 0,-1.50141 0,0 0.536219,-0.643461 -1.394166,-2.144871 0,0 1.608654,0.536218 1.930384,0.857949 0.32173,0.32173 1.072436,0.428974 1.286923,-0.107244 -10e-7,0 0.857948,0.321731 0.750704,0.965192 0,0 0.321732,-1.179679 -0.428974,-1.286923 0,0 0.214488,-0.965191 -1.072435,-0.965191 -1.286923,0 -1.286923,-0.428975 -1.286923,-0.428975 h 1.608653 c 0,0 1.072436,0.214487 1.286923,-0.643461 0,0 0.536217,0 1.072435,0.428974 0,0 -0.32173,-0.857948 -1.072435,-0.857948 0,0 -0.428974,-0.750705 -1.608653,-0.107244 -1.17968,0.643462 -2.144871,0.428975 -2.144871,0.428975 0,0 -0.857948,0 -1.394166,-0.750705 -0.536218,-0.750705 -0.32173,-0.965192 0.428974,-0.965192 0.750704,0 2.037627,-0.428974 2.037627,-0.428974 0,0 1.286923,-0.428975 2.681089,-1.394166 0,0 1.608654,-0.965192 3.217306,-1.072436 1.608653,-0.107243 2.252115,0 2.252115,0 0,0 1.715897,0 1.930384,1.715897 0.214486,1.715897 -1.394166,1.82314 -1.394166,1.82314 0,0 -0.750705,-0.750705 -1.286923,-1.715897 -0.536218,-0.965192 -0.428974,-0.965192 -1.179679,-1.179679 0,0 -0.32173,-0.428974 -1.179679,0 0,0 0.965192,0 0.965192,0.428975 0,0 -0.32173,0.214487 0.107243,0.536217 0.428974,0.321731 0.965192,0.857949 0.965192,0.857949 0,0 -1.072435,-1.286923 -1.930383,-0.643462 -1e-6,0 -0.428974,-0.32173 -0.965192,0.321731 -10e-7,0 0.750704,-0.214487 0.965191,0.107244 0,0 -0.214486,0.428974 1.072436,0.750704 1.286922,0.321731 1.179679,0.750705 1.179679,0.750705 0,0 -0.428974,-0.107243 -1.286923,-0.536218 -0.857948,-0.428974 -1.072434,-0.107243 -1.179679,0.107244 0,0 -0.64346,0 -0.857948,0.750705 0,0 0.428975,-0.428974 0.857948,-0.321731 0,0 -0.107243,0.536218 1.179679,0.536218 0,0 0.643462,0 0.965192,0.857948 0.321731,0.857949 1.072436,0.750705 1.072436,0.750705 0,0 0.428974,0.107244 0.428974,0.536218 0,0.428974 0.536218,0.536217 0.536218,0.536217 0,0 0.107243,0.428975 -0.214488,0.750705 0,0 0.857949,-0.214487 0.536218,-0.857948 0,0 0.536218,-0.536218 -0.107243,-1.286923 -0.428975,-0.536217 0.428974,-0.857948 0.428974,-0.857948 0,0 0.643462,-0.321731 0.643461,0.536218 0,0.857948 -0.32173,2.144871 -0.32173,2.144871 0,0 0.965191,-1.608653 1.179678,-2.895576 0.428974,-2.466602 -0.750704,-4.182498 -0.750704,-4.182498 0,0 -0.643462,-1.394166 -3.860768,-1.072436 -3.217306,0.321731 -6.327369,1.823141 -6.327369,1.823141 0,0 2.895576,-2.788333 7.828779,-2.573846 -1e-6,0 -3.110062,-0.965191 -5.362177,0 -1e-6,0 3.32455,-1.82314 6.327369,-0.428974 3.002819,1.394166 3.217306,4.289742 3.217306,4.289742 0,0 0.536218,2.573845 -1.394166,5.362177 -1.930384,2.788333 -2.252115,3.00282 -2.252115,3.00282 0,0 -2.252114,2.14487 -3.110063,2.573845 -0.857948,0.428974 -4.396985,2.037627 -8.901213,1.179679 -1e-6,0 0.965192,0.643461 3.324549,0.857948 0,0 -5.46942,0.214487 -8.364996,-2.895576 0,0 -1.50141,-1.501409 -1.50141,-1.501409 0,0 -0.107243,-0.857949 1.072436,0.643461 0,0 0.428974,-3.539037 -3.0028194,-3.860768 l 0.9651919,0.965192 c 0,0 0.1072435,0.750705 -0.7507048,0 -0.8579484,-0.750705 -0.8579484,-1.179679 -0.8579484,-1.179679 0,0 0,-0.857948 -1.7158967,-1.179679 -1.7158967,-0.32173 -1.2869225,-0.965192 -1.2869225,-0.965192 0,0 -0.6434613,1.286923 0.6434612,2.466602 0.8579484,0.750705 1.2869226,0.965192 1.2869226,0.965192 0,0 1.0724354,0.857948 0.2144871,0.857948 -0.8579484,0 -1.179679,-0.965192 -1.179679,-0.965192 0,0 0.6434612,4.075255 4.933203,4.075255 0,0 -2.7883321,-1.715897 -1.072435,-1.608653 0,0 -1.9303842,-2.037628 -0.6434617,-1.50141 0.1072435,0 0.9651917,1.286923 0.9651917,1.286923 0,0 2.252115,3.002819 4.396986,3.753524 0,0 -1.715897,-0.428974 -3.00282,-1.50141 0,0 2.359358,2.466602 5.469421,3.32455 3.110063,0.857948 6.112882,0.214487 6.112882,0.214487 0,0 -3.002819,-0.643461 -0.107244,-0.750705 2.895576,-0.107243 4.82596,-0.965192 4.82596,-0.965192 0,0 3.110063,-1.286922 4.396985,-3.539037 0,0 -0.857948,0.107244 0.428974,-0.857948 0.536218,-0.750705 1.50141,-1.930384 2.573846,-5.14769 0.428974,-1.179679 0.428974,-1.82314 1.179679,-1.715897 0.750704,0.107244 0.32173,1.072436 0.32173,1.072436 0,0 -0.214487,0.643461 0.214487,0.750704 0,0 0,0.643462 0.536218,0.750705 0,0 -0.214487,-0.536217 0,-0.750705 0.214487,-0.214487 0.428974,-0.214487 0.428974,-1.286922 0,-1.072436 -0.107243,-0.857948 0.321731,-2.252115 0.428974,-1.394166 0.643461,-2.466601 0.214487,-3.110062 -0.428974,-0.643462 0.214487,-1.072436 0.214487,-1.072436 0,0 -0.857948,0.428974 -0.643461,1.072436 0,0 -0.536218,0.107243 -0.321731,1.072435 0,0 0.107244,0.750705 -0.214487,1.179679 -0.321731,0.428974 -0.107244,-1.286922 -0.107244,-1.286922 0,0 0.107244,-0.536218 -0.214487,-0.965192 -0.32173,-0.428975 -0.32173,-0.965192 -0.32173,-0.965192 0,0 -0.321731,0.32173 -0.107244,0.965192 0,0 -0.428974,0.32173 -0.107243,1.179679 0.32173,0.857948 0,0.965192 0,0.965192 0,0 -0.321731,0 -0.214487,-0.750705 0.107243,-0.750705 -0.214488,-1.394166 -0.536218,-1.179679 -0.321731,0.214487 -0.214487,-0.965192 -0.214487,-0.965192 0,0 -0.428974,0.643461 -0.214487,1.072435 0,0 -0.321731,0.321731 0.214487,1.072436 0,0 0.32173,0.428974 0.107243,0.965192 -0.214487,0.536217 0.750705,0.643461 0.750705,0.643461 0,0 0.750705,0.214487 0.643461,0.857948 0,0 -0.750704,-0.32173 -1.286922,-0.750705 -0.536218,-0.428974 -0.750705,-0.428974 -0.965192,-1.930383 -0.214487,-1.50141 -0.321731,-3.431794 -2.681089,-3.646281 0,0 0.214487,-0.643461 1.072436,-0.32173 0.857948,0.32173 1.394166,0.965191 1.501409,1.501409 0.107244,0.536218 0.643462,-2.466601 -1.715896,-3.002819 -2.359358,-0.536218 -3.646281,0.321731 -3.646281,0.321731 0,0 -2.037627,1.501409 -2.252114,0.643461 -0.214487,-0.857948 1.82314,-1.179679 1.82314,-1.179679 l 1.608653,-0.107244 c 0,0 -2.573845,-1.82314 -5.14769,-0.32173 -2.144871,1.286922 -2.359358,2.144871 -2.359358,2.144871 0,0 -0.750705,1.286922 -1.179679,0.643461 -0.428974,-0.643461 1.608653,-1.930384 1.608653,-1.930384 0,0 -2.466601,-0.965192 -4.504229,1.608653 -0.750704,0.965192 -0.857948,1.286923 -0.857948,1.286923 0,0 -0.428974,0.643461 -1.072435,0 -0.643462,-0.643462 1.608653,-1.394166 1.608653,-1.394166 0,0 -1.715897,-0.428975 -3.32455,0.965192 -1.608653,1.394166 -2.788332,-0.643462 -2.788332,-0.643462 0,0 -0.536218,-1.072435 -0.428974,-2.359358 0.107243,-1.286922 -1.072436,1.50141 -0.214487,3.217307 0.857948,1.715896 1.715896,1.930383 1.715896,1.930383 0,0 2.681089,1.608654 7.185318,-0.214487 0,0 -2.466602,1.715897 -5.254934,1.394166 -2.788332,-0.32173 -3.64628,-1.608653 -3.64628,-1.608653 0,0 -1.286923,-1.179679 -0.965192,-3.32455 0.32173,-2.144871 1.501409,-2.895575 1.501409,-2.895575"
           id="Path-30"
           inkscape:connector-curvature="0"
           style="fill:#ef0113" />
        <path
           d="m 30.519831,29.435713 c 0,0 -3.00282,0 -4.396986,2.681089 0,0 2.359358,-1.394166 2.359358,-0.643461 0,0.750705 -1.286922,0.643461 -1.286922,0.643461 0,0 -1.930384,-0.107244 -3.753524,2.037627 0,0 1.930383,-1.286922 2.252114,-0.643461 0.321731,0.643461 -2.895576,0.857948 -2.895576,0.857948 0,0 -1.501409,0 -2.895575,0.536218 -1.394166,0.536218 -2.573845,0.214487 -2.573845,0.214487 0,0 3.860767,0.965192 6.756343,-0.107243 2.895576,-1.072436 3.217306,-1.608653 4.396985,-2.681089 1.179679,-1.072435 2.037628,-2.895576 2.037628,-2.895576 z"
           id="Path-31"
           inkscape:connector-curvature="0"
           style="fill:#ef0113" />
      </g>
    </g>
  </g>
</svg>
