<?xml version="1.0" encoding="UTF-8" standalone="no"?>
<!-- Generator: Adobe Illustrator 18.0.0, SVG Export Plug-In . SVG Version: 6.00 Build 0)  -->

<svg
   xmlns:dc="http://purl.org/dc/elements/1.1/"
   xmlns:cc="http://creativecommons.org/ns#"
   xmlns:rdf="http://www.w3.org/1999/02/22-rdf-syntax-ns#"
   xmlns:svg="http://www.w3.org/2000/svg"
   xmlns="http://www.w3.org/2000/svg"
   xmlns:sodipodi="http://sodipodi.sourceforge.net/DTD/sodipodi-0.dtd"
   xmlns:inkscape="http://www.inkscape.org/namespaces/inkscape"
   version="1.1"
   id="图层_1"
   x="0px"
   y="0px"
   viewBox="0 0 48 48"
   style="enable-background:new 0 0 48 48;"
   xml:space="preserve"
   sodipodi:docname="deepinwine-qqdownload.svg"
   inkscape:version="0.92.1 r15371"><metadata
     id="metadata67"><rdf:RDF><cc:Work
         rdf:about=""><dc:format>image/svg+xml</dc:format><dc:type
           rdf:resource="http://purl.org/dc/dcmitype/StillImage" /></cc:Work></rdf:RDF></metadata><defs
     id="defs65" /><sodipodi:namedview
     pagecolor="#ffffff"
     bordercolor="#666666"
     borderopacity="1"
     objecttolerance="10"
     gridtolerance="10"
     guidetolerance="10"
     inkscape:pageopacity="0"
     inkscape:pageshadow="2"
     inkscape:window-width="1600"
     inkscape:window-height="818"
     id="namedview63"
     showgrid="false"
     inkscape:zoom="4.9166667"
     inkscape:cx="24"
     inkscape:cy="24"
     inkscape:window-x="0"
     inkscape:window-y="0"
     inkscape:window-maximized="1"
     inkscape:current-layer="图层_1" /><path
     inkscape:connector-curvature="0"
     id="path4"
     d="m 24.229339,46.854619 c -12.47724,0 -22.6271187,-10.269755 -22.6271187,-22.891928 0,-12.622173 10.1498787,-22.8919283 22.6271187,-22.8919283 12.476163,0 22.627118,10.2697553 22.627118,22.8919283 0,12.622173 -10.150955,22.891928 -22.627118,22.891928 z"
     style="fill:#eceff1;stroke-width:1.08376837" /><path
     inkscape:connector-curvature="0"
     id="path6"
     d="m 24.229339,42.494252 c -10.100315,0 -18.3171914,-8.314131 -18.3171914,-18.531561 0,-10.218521 8.2168764,-18.5315611 18.3171914,-18.5315611 10.100315,0 18.317191,8.3130401 18.317191,18.5315611 0,10.218521 -8.216876,18.531561 -18.317191,18.531561 z"
     style="fill:#1373ab;stroke-width:1.08376837" /><polygon
     id="polygon8"
     points="11.526,34.186 30.411,12.887 33.526,16.023 "
     style="fill:#313131"
     transform="matrix(1.077482,0,0,1.0900918,-0.56244067,-1.0930696)" /><ellipse
     id="circle10"
     cy="24.101133"
     cx="24.274593"
     style="fill:#d0d6db;stroke-width:1.08376837"
     rx="1.0774819"
     ry="1.0900918" /><g
     id="g52"
     transform="matrix(1.077482,0,0,1.0900918,-0.56244067,-1.0930696)"><g
       id="g36"><g
         id="g16"><g
           id="g14"><rect
             id="rect12"
             height="3"
             width="1"
             style="fill:#a4ffff"
             y="8.1190004"
             x="23.035999" /></g></g><g
         id="g22"><g
           id="g20"><rect
             id="rect18"
             height="3"
             width="1"
             style="fill:#a4ffff"
             y="35.118999"
             x="23.035999" /></g></g><g
         id="g28"><g
           id="g26"><rect
             id="rect24"
             height="1"
             width="3"
             style="fill:#a4ffff"
             y="22.118999"
             x="8.0360003" /></g></g><g
         id="g34"><g
           id="g32"><rect
             id="rect30"
             height="1"
             width="3"
             style="fill:#a4ffff"
             y="22.118999"
             x="35.035999" /></g></g></g><g
       id="g50"><g
         id="g42"><g
           id="g40"><rect
             id="rect38"
             height="2.9030001"
             width="1"
             style="fill:#a4ffff"
             transform="matrix(0.7071,0.7071,-0.7071,0.7071,27.5803,0.3142)"
             y="31.997999"
             x="12.911" /></g></g><g
         id="g48"><g
           id="g46"><rect
             id="rect44"
             height="1"
             width="2.9030001"
             style="fill:#a4ffff"
             transform="matrix(0.7071,0.7071,-0.7071,0.7071,32.9234,-13.9934)"
             y="32.244999"
             x="31.902" /></g></g></g></g><path
     inkscape:connector-curvature="0"
     id="path54"
     d="m 41.653456,21.053538 h -5.936909 c 0.02362,0 0.04996,-0.58769 0.04996,-0.897042 -10e-7,-7.122681 -6.278445,-12.9081829 -13.995699,-12.9081829 -7.717253,0 -13.9956963,5.7997539 -13.9956963,12.9215959 0,0.07127 0.010032,0.141683 0.011811,0.212944 0.1226258,-4.80714 4.7742333,-8.686218 10.4849633,-8.686218 5.787942,0 10.496773,3.966268 10.496773,8.863111 0,0.1727 -0.01907,0.493792 -0.03088,0.493792 h -6.633608 c -0.692155,0 -1.109991,0.725179 -0.735755,1.262565 l 9.840951,15.386366 c 0.34517,0.496306 1.131791,0.497984 1.474235,8.39e-4 l 9.708335,-15.393073 c 0.369692,-0.538226 -0.04814,-1.256697 -0.738481,-1.256697 z"
     style="fill:#7bd73b;stroke-width:0.87264699" /></svg>