<?xml version="1.0" encoding="UTF-8" standalone="no"?>
<svg
   xmlns:dc="http://purl.org/dc/elements/1.1/"
   xmlns:cc="http://creativecommons.org/ns#"
   xmlns:rdf="http://www.w3.org/1999/02/22-rdf-syntax-ns#"
   xmlns:svg="http://www.w3.org/2000/svg"
   xmlns="http://www.w3.org/2000/svg"
   xmlns:sodipodi="http://sodipodi.sourceforge.net/DTD/sodipodi-0.dtd"
   xmlns:inkscape="http://www.inkscape.org/namespaces/inkscape"
   viewBox="0 0 48 48"
   version="1.1"
   id="svg57"
   sodipodi:docname="any_do.svg"
   inkscape:version="0.92.2pre0 (973e216, 2017-07-25)">
  <metadata
     id="metadata61">
    <rdf:RDF>
      <cc:Work
         rdf:about="">
        <dc:format>image/svg+xml</dc:format>
        <dc:type
           rdf:resource="http://purl.org/dc/dcmitype/StillImage" />
      </cc:Work>
    </rdf:RDF>
  </metadata>
  <sodipodi:namedview
     pagecolor="#ffffff"
     bordercolor="#666666"
     borderopacity="1"
     objecttolerance="10"
     gridtolerance="10"
     guidetolerance="10"
     inkscape:pageopacity="0"
     inkscape:pageshadow="2"
     inkscape:window-width="1360"
     inkscape:window-height="658"
     id="namedview59"
     showgrid="false"
     inkscape:zoom="4.9166667"
     inkscape:cx="20.440678"
     inkscape:cy="24"
     inkscape:window-x="0"
     inkscape:window-y="28"
     inkscape:window-maximized="1"
     inkscape:current-layer="svg57" />
  <defs
     id="defs17">
    <linearGradient
       id="linearGradient3764"
       x1="1"
       x2="47"
       gradientUnits="userSpaceOnUse"
       gradientTransform="rotate(-90,23.999998,24)">
      <stop
         stop-color="#43c9e5"
         stop-opacity="1"
         id="stop2" />
      <stop
         offset="1"
         stop-color="#55cee8"
         stop-opacity="1"
         id="stop4" />
    </linearGradient>
    <clipPath
       id="clipPath-457015423">
      <g
         transform="translate(0,-1004.3622)"
         id="g9">
        <path
           d="m -24 13 c 0 1.105 -0.672 2 -1.5 2 -0.828 0 -1.5 -0.895 -1.5 -2 0 -1.105 0.672 -2 1.5 -2 0.828 0 1.5 0.895 1.5 2 z"
           transform="matrix(15.333333,0,0,11.5,414.99999,878.8622)"
           fill="#1890d0"
           id="path7" />
      </g>
    </clipPath>
    <clipPath
       id="clipPath-468388051">
      <g
         transform="translate(0,-1004.3622)"
         id="g14">
        <path
           d="m -24 13 c 0 1.105 -0.672 2 -1.5 2 -0.828 0 -1.5 -0.895 -1.5 -2 0 -1.105 0.672 -2 1.5 -2 0.828 0 1.5 0.895 1.5 2 z"
           transform="matrix(15.333333,0,0,11.5,414.99999,878.8622)"
           fill="#1890d0"
           id="path12" />
      </g>
    </clipPath>
  </defs>
  <g
     id="g25">
    <path
       d="m 36.31 5 c 5.859 4.062 9.688 10.831 9.688 18.5 c 0 12.426 -10.07 22.5 -22.5 22.5 c -7.669 0 -14.438 -3.828 -18.5 -9.688 c 1.037 1.822 2.306 3.499 3.781 4.969 c 4.085 3.712 9.514 5.969 15.469 5.969 c 12.703 0 23 -10.298 23 -23 c 0 -5.954 -2.256 -11.384 -5.969 -15.469 c -1.469 -1.475 -3.147 -2.744 -4.969 -3.781 z m 4.969 3.781 c 3.854 4.113 6.219 9.637 6.219 15.719 c 0 12.703 -10.297 23 -23 23 c -6.081 0 -11.606 -2.364 -15.719 -6.219 c 4.16 4.144 9.883 6.719 16.219 6.719 c 12.703 0 23 -10.298 23 -23 c 0 -6.335 -2.575 -12.06 -6.719 -16.219 z"
       opacity="0.05"
       id="path19" />
    <path
       d="m 41.28 8.781 c 3.712 4.085 5.969 9.514 5.969 15.469 c 0 12.703 -10.297 23 -23 23 c -5.954 0 -11.384 -2.256 -15.469 -5.969 c 4.113 3.854 9.637 6.219 15.719 6.219 c 12.703 0 23 -10.298 23 -23 c 0 -6.081 -2.364 -11.606 -6.219 -15.719 z"
       opacity="0.1"
       id="path21" />
    <path
       d="m 31.25 2.375 c 8.615 3.154 14.75 11.417 14.75 21.13 c 0 12.426 -10.07 22.5 -22.5 22.5 c -9.708 0 -17.971 -6.135 -21.12 -14.75 a 23 23 0 0 0 44.875 -7 a 23 23 0 0 0 -16 -21.875 z"
       opacity="0.2"
       id="path23" />
  </g>
  <path
     inkscape:connector-curvature="0"
     style="fill:url(#linearGradient3764);fill-opacity:1"
     id="path27"
     d="M 24,1 C 36.703,1 47,11.297 47,24 47,36.703 36.703,47 24,47 11.297,47 1,36.703 1,24 1,11.297 11.297,1 24,1 Z" />
  <g
     id="g31" />
  <path
     inkscape:connector-curvature="0"
     style="fill:#f8f8f8"
     d="m 37.96261,20.385649 -13.705,8.088 c -0.146,0.086 -0.327,0.092 -0.479,0.016 l -6.337,-3.187 c -0.333,-0.167 -0.725,0.074 -0.725,0.447 v 2.81 c 0,0.185 0.102,0.354 0.265,0.441 l 6.88,3.666 c 0.152,0.081 0.334,0.078 0.483,-0.007 l 10.123,-5.792 c 0.333,-0.191 0.748,0.05 0.748,0.434 v 2.925 c 0,0.181 -0.098,0.347 -0.255,0.436 l -10.996,6.178 c -0.154,0.086 -0.342,0.085 -0.494,-0.003 l -11.003,-6.333 c -0.155,-0.089 -0.251,-0.254 -0.251,-0.433 v -11.033 c 0,-0.383 0.412,-0.623 0.746,-0.436 l 10.352,5.834 c 0.156,0.088 0.347,0.086 0.501,-0.006 l 13.848,-8.249 c 0.328,-0.196 0.325,-0.673 -0.007,-0.863 l -13.103,-7.53 c -0.617,-0.355 -1.376,-0.355 -1.993,0 l -12.8399997,7.379 c -0.621,0.358 -1.004,1.019 -1.004,1.735 v 14.733 c 0,0.719 0.386,1.383 1.012,1.739 l 12.9999997,7.391 c 0.613,0.348 1.364,0.348 1.977,0 l 13,-7.391 c 0.625,-0.356 1.011,-1.02 1.011,-1.739 v -10.819 c 0,-0.387 -0.421,-0.628 -0.754,-0.431 z"
     id="path875" />
</svg>
