<?xml version="1.0" encoding="UTF-8" standalone="no"?>
<!-- Generator: Adobe Illustrator 18.0.0, SVG Export Plug-In . SVG Version: 6.00 Build 0)  -->

<svg
   xmlns:dc="http://purl.org/dc/elements/1.1/"
   xmlns:cc="http://creativecommons.org/ns#"
   xmlns:rdf="http://www.w3.org/1999/02/22-rdf-syntax-ns#"
   xmlns:svg="http://www.w3.org/2000/svg"
   xmlns="http://www.w3.org/2000/svg"
   xmlns:sodipodi="http://sodipodi.sourceforge.net/DTD/sodipodi-0.dtd"
   xmlns:inkscape="http://www.inkscape.org/namespaces/inkscape"
   version="1.1"
   id="图层_1"
   x="0px"
   y="0px"
   viewBox="0 0 48 48"
   style="enable-background:new 0 0 48 48;"
   xml:space="preserve"
   sodipodi:docname="deepinwine-mailmaster.svg"
   inkscape:version="0.92.2pre0 (973e216, 2017-07-25)"><metadata
     id="metadata23"><rdf:RDF><cc:Work
         rdf:about=""><dc:format>image/svg+xml</dc:format><dc:type
           rdf:resource="http://purl.org/dc/dcmitype/StillImage" /></cc:Work></rdf:RDF></metadata><defs
     id="defs21"><linearGradient
       id="SVGID_1_"
       gradientUnits="userSpaceOnUse"
       x1="23.9375"
       y1="6.25"
       x2="23.9375"
       y2="42.748299"
       gradientTransform="translate(-73.848008,-4.8194068)"><stop
         offset="0"
         style="stop-color:#ED2B3C"
         id="stop32" /><stop
         offset="1"
         style="stop-color:#C71513"
         id="stop34" /></linearGradient></defs><sodipodi:namedview
     pagecolor="#ffffff"
     bordercolor="#666666"
     borderopacity="1"
     objecttolerance="10"
     gridtolerance="10"
     guidetolerance="10"
     inkscape:pageopacity="0"
     inkscape:pageshadow="2"
     inkscape:window-width="1360"
     inkscape:window-height="658"
     id="namedview19"
     showgrid="false"
     inkscape:zoom="9.8333333"
     inkscape:cx="6.8157387"
     inkscape:cy="26.135292"
     inkscape:window-x="0"
     inkscape:window-y="28"
     inkscape:window-maximized="1"
     inkscape:current-layer="图层_1" /><g
     id="g6"
     transform="matrix(1.0720339,0,0,1.088983,-1.6304466,-2.1301601)"
     style="fill:#ed2b3c;fill-opacity:1"><path
       inkscape:connector-curvature="0"
       id="path4"
       d="m 24.046,45.082 c -11.58,0 -21,-9.421 -21,-21 0,-11.579 9.42,-21 21,-21 11.579,0 21,9.421 21,21 0,11.579 -9.421,21 -21,21 z"
       style="fill:#ed2b3c;fill-opacity:1" /></g><path
     style="fill:#e6e6e6;stroke-width:1"
     inkscape:connector-curvature="0"
     d="m 24.101993,1.0490958 c -12.547459,0 -22.8135609,10.1912072 -22.8135609,22.9661022 0,12.774896 10.2661019,22.966103 22.8135609,22.966103 12.547457,0 22.813558,-10.334748 22.813558,-22.966103 0,-12.631357 -10.266101,-22.9661022 -22.813558,-22.9661022 z m 0,43.0614422 c -10.979026,0 -19.9618659,-9.042903 -19.9618659,-20.09534 0,-11.052438 8.9828399,-20.0953391 19.9618659,-20.0953391 10.979025,0 19.961863,9.0429011 19.961863,20.0953391 0,11.052437 -8.982838,20.09534 -19.961863,20.09534 z"
     id="path21" /><path
     style="fill:#ffffff;stroke-width:1"
     inkscape:connector-curvature="0"
     d="m 36.934619,22.866893 c -3.136864,-0.717691 -5.41822,-1.722459 -7.842161,-3.15784 h 7.842161 V 16.83829 H 25.52784 v -1.865996 c 3.136865,-0.143538 9.980933,-0.71769 9.980933,-0.71769 v -2.870763 c 0,0 -13.545552,1.148305 -21.102544,1.148305 h -0.427754 v 2.870763 c 0,0 5.703389,-0.143538 8.555085,-0.287076 v 1.722457 h -9.980933 v 2.870763 h 7.556992 c -2.42394,1.435381 -4.705296,2.583686 -7.556992,3.731993 v 2.727224 l 2.851696,-1.004768 v 1.722459 h 4.134958 c 0,4.019068 -2.281357,5.31091 -6.986654,5.741525 v 2.870762 c 0,0 9.980933,0.287078 9.980933,-8.612287 h 4.277542 l -1.425847,1.435381 v 2.870763 h 6.844068 c -0.142585,1.148305 -0.427754,1.435381 -1.711017,1.435381 h -6.416313 v 2.870762 h 7.129237 c 5.133051,-0.143537 4.277543,-7.176906 4.277543,-7.176906 H 29.520212 L 31.23123,26.16827 v -2.153072 h -5.70339 v -3.444915 c 4.134958,3.444915 11.406779,5.167374 11.406779,5.167374 z M 22.676145,21.144434 v 2.870764 h -4.705297 c 2.566526,-1.435382 3.136864,-1.722459 4.705297,-2.870764 z"
     id="path23" /></svg>