<?xml version="1.0" encoding="UTF-8" standalone="no"?>
<svg
   xmlns:dc="http://purl.org/dc/elements/1.1/"
   xmlns:cc="http://creativecommons.org/ns#"
   xmlns:rdf="http://www.w3.org/1999/02/22-rdf-syntax-ns#"
   xmlns:svg="http://www.w3.org/2000/svg"
   xmlns="http://www.w3.org/2000/svg"
   xmlns:sodipodi="http://sodipodi.sourceforge.net/DTD/sodipodi-0.dtd"
   xmlns:inkscape="http://www.inkscape.org/namespaces/inkscape"
   viewBox="0 0 48 48"
   version="1.1"
   id="svg73"
   sodipodi:docname="DC++.svg"
   inkscape:version="0.92.0 r15299">
  <metadata
     id="metadata77">
    <rdf:RDF>
      <cc:Work
         rdf:about="">
        <dc:format>image/svg+xml</dc:format>
        <dc:type
           rdf:resource="http://purl.org/dc/dcmitype/StillImage" />
      </cc:Work>
    </rdf:RDF>
  </metadata>
  <sodipodi:namedview
     pagecolor="#ffffff"
     bordercolor="#666666"
     borderopacity="1"
     objecttolerance="10"
     gridtolerance="10"
     guidetolerance="10"
     inkscape:pageopacity="0"
     inkscape:pageshadow="2"
     inkscape:window-width="1600"
     inkscape:window-height="872"
     id="namedview75"
     showgrid="false"
     inkscape:zoom="4.9166667"
     inkscape:cx="24.81356"
     inkscape:cy="24"
     inkscape:window-x="0"
     inkscape:window-y="0"
     inkscape:window-maximized="1"
     inkscape:current-layer="svg73" />
  <defs
     id="defs17">
    <linearGradient
       id="linearGradient3764"
       x1="1"
       x2="47"
       gradientUnits="userSpaceOnUse"
       gradientTransform="rotate(-90,23.999998,24)">
      <stop
         stop-color="#e4e4e4"
         stop-opacity="1"
         id="stop2" />
      <stop
         offset="1"
         stop-color="#eee"
         stop-opacity="1"
         id="stop4" />
    </linearGradient>
    <clipPath
       id="clipPath-580925389">
      <g
         transform="translate(0,-1004.3622)"
         id="g9">
        <path
           d="m -24 13 c 0 1.105 -0.672 2 -1.5 2 -0.828 0 -1.5 -0.895 -1.5 -2 0 -1.105 0.672 -2 1.5 -2 0.828 0 1.5 0.895 1.5 2 z"
           transform="matrix(15.333333,0,0,11.5,414.99999,878.8622)"
           fill="#1890d0"
           id="path7" />
      </g>
    </clipPath>
    <clipPath
       id="clipPath-588103783">
      <g
         transform="translate(0,-1004.3622)"
         id="g14">
        <path
           d="m -24 13 c 0 1.105 -0.672 2 -1.5 2 -0.828 0 -1.5 -0.895 -1.5 -2 0 -1.105 0.672 -2 1.5 -2 0.828 0 1.5 0.895 1.5 2 z"
           transform="matrix(15.333333,0,0,11.5,414.99999,878.8622)"
           fill="#1890d0"
           id="path12" />
      </g>
    </clipPath>
  </defs>
  <path
     inkscape:connector-curvature="0"
     style="fill:#808080;fill-opacity:1;stroke-width:0.99556869"
     id="path27"
     d="M 24.20339,1 C 36.794057,1 47,11.297 47,24 47,36.703 36.794057,47 24.20339,47 11.612723,47 1.4067797,36.703 1.4067797,24 1.4067797,11.297 11.612723,1 24.20339,1 Z" />
  <g
     id="g31" />
  <g
     id="g4357"
     style="opacity:0.1;fill:#000000;fill-opacity:1"
     transform="matrix(3.75628,0,0,3.7795275,-0.2006194,-0.6598878)">
    <path
       style="fill:#000000;fill-opacity:1;stroke:none"
       d="m 3.3866668,3.3866669 c -1.1288889,2.5400001 -1.1288889,4.2333334 0,6.7733341 2.2577778,1.128888 4.5155557,1.128888 6.7733332,0 1.128889,-2.5400007 1.128889,-4.233334 0,-6.7733341 -2.2577776,-1.1288891 -4.5155554,-1.1288891 -6.7733332,0 z"
       id="path4347"
       inkscape:connector-curvature="0"
       sodipodi:nodetypes="ccccc" />
    <ellipse
       transform="matrix(0.05941521,0,0,0.03527778,5.1245616,2.8575001)"
       id="path4349"
       style="fill:#000000;fill-opacity:1;stroke:none"
       cx="-24.5"
       cy="23"
       rx="9.5"
       ry="16" />
    <ellipse
       style="fill:#000000;fill-opacity:1;stroke:none"
       id="path4351"
       transform="matrix(0.05941521,0,0,0.03527778,5.1245616,9.0663897)"
       cx="-24.5"
       cy="23"
       rx="9.5"
       ry="16" />
    <ellipse
       transform="matrix(0.05941521,0,0,0.03527778,11.33345,9.0663897)"
       id="path4353"
       style="fill:#000000;fill-opacity:1;stroke:none"
       cx="-24.5"
       cy="23"
       rx="9.5"
       ry="16" />
    <ellipse
       style="fill:#000000;fill-opacity:1;stroke:none"
       id="path4355"
       transform="matrix(0.05941521,0,0,0.03527778,11.33345,2.8575001)"
       cx="-24.5"
       cy="23"
       rx="9.5"
       ry="16" />
  </g>
  <path
     style="fill:#ecf1f4;fill-opacity:1;stroke:none;stroke-width:3.76788568"
     d="m 11.46054,11.073446 c -4.2404261,9.600001 -4.2404261,16.000001 0,25.600003 8.480842,4.266663 16.961695,4.266663 25.442541,0 4.240416,-9.600002 4.240416,-16.000002 0,-25.600003 -8.480846,-4.2666668 -16.961699,-4.2666668 -25.442541,0 z"
     id="path4328"
     inkscape:connector-curvature="0"
     sodipodi:nodetypes="ccccc" />
  <ellipse
     style="fill:#333333;fill-opacity:1;stroke:none;stroke-width:1.62634766"
     id="path4330"
     cx="24.18181"
     cy="23.873447"
     rx="13.781374"
     ry="13.866667" />
  <ellipse
     id="path4332"
     style="fill:#fff157;fill-opacity:1;stroke:none;stroke-width:1.25103664"
     cx="24.18181"
     cy="23.873447"
     rx="10.601057"
     ry="10.666667" />
  <ellipse
     id="path4320"
     style="fill:#ecf1f4;fill-opacity:1;stroke:none;stroke-width:0.1725032"
     cx="12.520653"
     cy="12.140114"
     rx="2.1202116"
     ry="2.1333334" />
  <ellipse
     style="fill:#ecf1f4;fill-opacity:1;stroke:none;stroke-width:0.1725032"
     id="path4322"
     cx="12.520653"
     cy="35.606781"
     rx="2.1202116"
     ry="2.1333334" />
  <ellipse
     id="path4324"
     style="fill:#ecf1f4;fill-opacity:1;stroke:none;stroke-width:0.1725032"
     cx="35.842972"
     cy="35.606781"
     rx="2.1202116"
     ry="2.1333334" />
  <ellipse
     style="fill:#ecf1f4;fill-opacity:1;stroke:none;stroke-width:0.1725032"
     id="path4326"
     cx="35.842972"
     cy="12.140114"
     rx="2.1202116"
     ry="2.1333334" />
  <ellipse
     style="fill:#5c5d5e;fill-opacity:1;stroke:none;stroke-width:0.87572563"
     id="path4335"
     cx="24.18181"
     cy="23.873447"
     rx="7.4207401"
     ry="7.4666667" />
  <ellipse
     style="fill:#bec9ce;fill-opacity:1;stroke:none;stroke-width:0.95170265"
     id="path4339"
     cx="12.520653"
     cy="12.140114"
     rx="1.0601058"
     ry="1.0666667" />
  <ellipse
     id="path4341"
     style="fill:#bec9ce;fill-opacity:1;stroke:none;stroke-width:0.95170265"
     cx="35.842979"
     cy="12.140114"
     rx="1.0601058"
     ry="1.0666667" />
  <ellipse
     style="fill:#bec9ce;fill-opacity:1;stroke:none;stroke-width:0.95170265"
     id="path4343"
     cx="35.842979"
     cy="35.606781"
     rx="1.0601058"
     ry="1.0666667" />
  <ellipse
     id="path4345"
     style="fill:#bec9ce;fill-opacity:1;stroke:none;stroke-width:0.95170265"
     cx="12.520653"
     cy="35.606781"
     rx="1.0601058"
     ry="1.0666667" />
</svg>
