<?xml version="1.0" encoding="UTF-8" standalone="no"?>
<svg
   xmlns:dc="http://purl.org/dc/elements/1.1/"
   xmlns:cc="http://creativecommons.org/ns#"
   xmlns:rdf="http://www.w3.org/1999/02/22-rdf-syntax-ns#"
   xmlns:svg="http://www.w3.org/2000/svg"
   xmlns="http://www.w3.org/2000/svg"
   xmlns:sodipodi="http://sodipodi.sourceforge.net/DTD/sodipodi-0.dtd"
   xmlns:inkscape="http://www.inkscape.org/namespaces/inkscape"
   height="48"
   width="48"
   version="1"
   id="svg20"
   sodipodi:docname="authy.svg"
   inkscape:version="0.92.2pre0 (973e216, 2017-07-25)">
  <metadata
     id="metadata26">
    <rdf:RDF>
      <cc:Work
         rdf:about="">
        <dc:format>image/svg+xml</dc:format>
        <dc:type
           rdf:resource="http://purl.org/dc/dcmitype/StillImage" />
      </cc:Work>
    </rdf:RDF>
  </metadata>
  <defs
     id="defs24" />
  <sodipodi:namedview
     pagecolor="#ffffff"
     bordercolor="#666666"
     borderopacity="1"
     objecttolerance="10"
     gridtolerance="10"
     guidetolerance="10"
     inkscape:pageopacity="0"
     inkscape:pageshadow="2"
     inkscape:window-width="1360"
     inkscape:window-height="740"
     id="namedview22"
     showgrid="false"
     inkscape:zoom="4.9166667"
     inkscape:cx="24"
     inkscape:cy="24"
     inkscape:window-x="0"
     inkscape:window-y="0"
     inkscape:window-maximized="1"
     inkscape:current-layer="svg20" />
  <rect
     transform="matrix(0,-1,-1,0,0,0)"
     rx="22.745762"
     ry="22.745764"
     height="45.491528"
     width="45.491524"
     y="-46.847458"
     x="-46.64407"
     id="rect2"
     style="fill:#e91e63;stroke-width:1.13728809" />
  <path
     d="m 24.101695,1.1525424 c -12.601153,0 -22.7457628,10.1446096 -22.7457628,22.7457626 0,0.191064 0.0091,0.378717 0.013306,0.568645 C 1.6702786,12.131922 11.691606,2.2898306 24.101353,2.2898306 c 12.409748,0 22.431872,9.8419774 22.732116,22.1771194 0.0046,-0.189769 0.0133,-0.377728 0.0133,-0.568645 0,-12.601153 -10.14461,-22.7457626 -22.745763,-22.7457626 z"
     id="path4"
     inkscape:connector-curvature="0"
     style="opacity:0.2;fill:#ffffff;stroke-width:1.13728809" />
  <g
     style="opacity:0.2;enable-background:new"
     transform="matrix(0.3202376,0,0,0.3202376,-41.839408,-71.379146)"
     id="g12">
    <path
       d="m 199.99,286.44 16.56,16.561 c 2.394,2.393 6.273,2.391 8.667,-0.002 2.395,-2.396 2.397,-6.275 0.003,-8.668 l -16.561,-16.562 c -11.85,-11.851 -31.001,-12.044 -43.104,-0.6 -0.111,0.094 -0.222,0.191 -0.326,0.295 -0.051,0.052 -0.099,0.105 -0.148,0.158 -0.052,0.05 -0.107,0.097 -0.157,0.146 -0.106,0.106 -0.2,0.215 -0.294,0.325 -11.445,12.105 -11.25,31.254 0.6,43.105 l 16.561,16.559 c 2.394,2.394 6.272,2.394 8.666,0 2.394,-2.396 2.396,-6.275 0.002,-8.667 l -16.56,-16.562 c -7.225,-7.225 -7.275,-18.949 -0.149,-26.24 7.289,-7.123 19.014,-7.074 26.24,0.152 z"
       id="path8"
       inkscape:connector-curvature="0" />
    <path
       d="m 221.37,264.39 c -2.394,2.394 -2.392,6.274 0.002,8.667 l 16.56,16.56 c 7.226,7.228 7.271,18.951 0.147,26.242 -7.29,7.122 -19.013,7.075 -26.239,-0.15 l -16.559,-16.561 c -2.394,-2.393 -6.277,-2.393 -8.671,0 -2.394,2.396 -2.394,6.279 0,8.672 l 16.56,16.56 c 11.851,11.851 31.002,12.044 43.102,0.6 0.111,-0.095 0.222,-0.188 0.327,-0.295 0.051,-0.053 0.097,-0.104 0.149,-0.155 0.051,-0.052 0.107,-0.1 0.159,-0.15 0.104,-0.106 0.196,-0.216 0.291,-0.327 11.447,-12.1 11.253,-31.251 -0.598,-43.102 l -16.558,-16.56 c -2.394,-2.395 -6.279,-2.395 -8.672,-0.001 z"
       id="path10"
       inkscape:connector-curvature="0" />
  </g>
  <g
     style="fill:#ff8bff;enable-background:new"
     transform="matrix(0.3202376,0,0,0.3202376,-41.839408,-72.516433)"
     id="g18">
    <path
       d="m 199.99,286.44 16.56,16.561 c 2.394,2.393 6.273,2.391 8.667,-0.002 2.395,-2.396 2.397,-6.275 0.003,-8.668 l -16.561,-16.562 c -11.85,-11.851 -31.001,-12.044 -43.104,-0.6 -0.111,0.094 -0.222,0.191 -0.326,0.295 -0.051,0.052 -0.099,0.105 -0.148,0.158 -0.052,0.05 -0.107,0.097 -0.157,0.146 -0.106,0.106 -0.2,0.215 -0.294,0.325 -11.445,12.105 -11.25,31.254 0.6,43.105 l 16.561,16.559 c 2.394,2.394 6.272,2.394 8.666,0 2.394,-2.396 2.396,-6.275 0.002,-8.667 l -16.56,-16.562 c -7.225,-7.225 -7.275,-18.949 -0.149,-26.24 7.289,-7.123 19.014,-7.074 26.24,0.152 z"
       id="path14"
       inkscape:connector-curvature="0" />
    <path
       d="m 221.37,264.39 c -2.394,2.394 -2.392,6.274 0.002,8.667 l 16.56,16.56 c 7.226,7.228 7.271,18.951 0.147,26.242 -7.29,7.122 -19.013,7.075 -26.239,-0.15 l -16.559,-16.561 c -2.394,-2.393 -6.277,-2.393 -8.671,0 -2.394,2.396 -2.394,6.279 0,8.672 l 16.56,16.56 c 11.851,11.851 31.002,12.044 43.102,0.6 0.111,-0.095 0.222,-0.188 0.327,-0.295 0.051,-0.053 0.097,-0.104 0.149,-0.155 0.051,-0.052 0.107,-0.1 0.159,-0.15 0.104,-0.106 0.196,-0.216 0.291,-0.327 11.447,-12.1 11.253,-31.251 -0.598,-43.102 l -16.558,-16.56 c -2.394,-2.395 -6.279,-2.395 -8.672,-0.001 z"
       id="path16"
       inkscape:connector-curvature="0" />
  </g>
</svg>
