<?xml version="1.0" encoding="UTF-8" standalone="no"?>
<svg
   xmlns:dc="http://purl.org/dc/elements/1.1/"
   xmlns:cc="http://creativecommons.org/ns#"
   xmlns:rdf="http://www.w3.org/1999/02/22-rdf-syntax-ns#"
   xmlns:svg="http://www.w3.org/2000/svg"
   xmlns="http://www.w3.org/2000/svg"
   xmlns:sodipodi="http://sodipodi.sourceforge.net/DTD/sodipodi-0.dtd"
   xmlns:inkscape="http://www.inkscape.org/namespaces/inkscape"
   viewBox="0 0 48 48"
   version="1.1"
   id="svg36"
   sodipodi:docname="brave.svg"
   inkscape:version="0.92.2pre0 (973e216, 2017-07-25)">
  <metadata
     id="metadata40">
    <rdf:RDF>
      <cc:Work
         rdf:about="">
        <dc:format>image/svg+xml</dc:format>
        <dc:type
           rdf:resource="http://purl.org/dc/dcmitype/StillImage" />
      </cc:Work>
    </rdf:RDF>
  </metadata>
  <sodipodi:namedview
     pagecolor="#ffffff"
     bordercolor="#666666"
     borderopacity="1"
     objecttolerance="10"
     gridtolerance="10"
     guidetolerance="10"
     inkscape:pageopacity="0"
     inkscape:pageshadow="2"
     inkscape:window-width="1360"
     inkscape:window-height="695"
     id="namedview38"
     showgrid="false"
     inkscape:zoom="4.9166667"
     inkscape:cx="-33.355932"
     inkscape:cy="23.186441"
     inkscape:window-x="0"
     inkscape:window-y="0"
     inkscape:window-maximized="1"
     inkscape:current-layer="svg36" />
  <defs
     id="defs12">
    <linearGradient
       id="linearGradient3825"
       x1="1"
       x2="47"
       gradientUnits="userSpaceOnUse"
       gradientTransform="matrix(0,-1,1,0,0,48)">
      <stop
         style="stop-color:#f4ed74;stop-opacity:1"
         id="stop2" />
      <stop
         offset="1"
         style="stop-color:#f6ef86;stop-opacity:1"
         id="stop4" />
    </linearGradient>
    <linearGradient
       id="linearGradient4202"
       y1="33"
       x2="0"
       y2="7"
       gradientUnits="userSpaceOnUse"
       gradientTransform="translate(37.000026,3.9999998)">
      <stop
         style="stop-color:#f0772f;stop-opacity:1"
         id="stop7" />
      <stop
         offset="1"
         style="stop-color:#f19039;stop-opacity:1"
         id="stop9" />
    </linearGradient>
  </defs>
  <g
     id="g20">
    <path
       d="m 36.31 5 c 5.859 4.062 9.688 10.831 9.688 18.5 c 0 12.426 -10.07 22.5 -22.5 22.5 c -7.669 0 -14.438 -3.828 -18.5 -9.688 c 1.037 1.822 2.306 3.499 3.781 4.969 c 4.085 3.712 9.514 5.969 15.469 5.969 c 12.703 0 23 -10.298 23 -23 c 0 -5.954 -2.256 -11.384 -5.969 -15.469 c -1.469 -1.475 -3.147 -2.744 -4.969 -3.781 z m 4.969 3.781 c 3.854 4.113 6.219 9.637 6.219 15.719 c 0 12.703 -10.297 23 -23 23 c -6.081 0 -11.606 -2.364 -15.719 -6.219 c 4.16 4.144 9.883 6.719 16.219 6.719 c 12.703 0 23 -10.298 23 -23 c 0 -6.335 -2.575 -12.06 -6.719 -16.219 z"
       style="opacity:0.05"
       id="path14" />
    <path
       d="m 41.28 8.781 c 3.712 4.085 5.969 9.514 5.969 15.469 c 0 12.703 -10.297 23 -23 23 c -5.954 0 -11.384 -2.256 -15.469 -5.969 c 4.113 3.854 9.637 6.219 15.719 6.219 c 12.703 0 23 -10.298 23 -23 c 0 -6.081 -2.364 -11.606 -6.219 -15.719 z"
       style="opacity:0.1"
       id="path16" />
    <path
       d="m 31.25 2.375 c 8.615 3.154 14.75 11.417 14.75 21.13 c 0 12.426 -10.07 22.5 -22.5 22.5 c -9.708 0 -17.971 -6.135 -21.12 -14.75 a 23 23 0 0 0 44.875 -7 a 23 23 0 0 0 -16 -21.875 z"
       style="opacity:0.2"
       id="path18" />
  </g>
  <path
     d="M 1,24 C 1,11.297 11.297,1 24,1 36.703,1 47,11.297 47,24 47,36.703 36.703,47 24,47 11.297,47 1,36.703 1,24 z"
     style="fill:#ff8800;fill-opacity:1"
     id="path22" />
  <path
     inkscape:connector-curvature="0"
     id="path24"
     style="opacity:0.1"
     d="m 40.03,7.531 c 3.712,4.084 5.969,9.514 5.969,15.469 0,12.703 -10.297,23 -23,23 C 17.045,46 11.615,43.744 7.53,40.031 11.708,44.322 17.54,47 23.999,47 c 12.703,0 23,-10.298 23,-23 0,-6.462 -2.677,-12.291 -6.969,-16.469 z" />
  <path
     d="m 20.804746,11.291902 c -0.556948,0 -2.50627,2.210922 -2.784744,2.210922 h -1.392373 c -0.556949,0 -2.50627,1.934558 -2.50627,2.487289 v 1.658192 c 0,0.276365 -2.215544,2.210923 -2.227797,2.763653 -0.01226,0.55273 3.898644,13.541902 4.455593,14.094633 0.556948,0.552731 6.683388,5.527307 8.354235,5.527307 0.370929,0 0.74297,0 1.113898,0 1.670847,0 7.797286,-4.974576 8.354236,-5.527307 0.556949,-0.552731 4.466731,-13.541903 4.455592,-14.094633 -0.01225,-0.549414 -2.227796,-2.487288 -2.227796,-2.763653 v -1.658192 c 0,-0.552731 -1.949322,-2.487289 -2.50627,-2.487289 h -1.392373 c -0.278474,0 -2.227796,-2.210922 -2.784746,-2.210922 -2.970765,0 -5.940418,0 -8.911185,0 z"
     style="opacity:0.1;fill:#000000;fill-opacity:1;stroke:none;stroke-width:1.10967171"
     id="path28"
     inkscape:connector-curvature="0" />
  <path
     d="m 19.690849,10.186441 c -0.55695,0 -2.506271,2.210921 -2.784746,2.210921 h -1.392372 c -0.556949,0 -2.506271,1.934558 -2.506271,2.487289 v 1.658192 c 0,0.276366 -2.215543,2.210923 -2.227796,2.763653 -0.01226,0.552732 3.898643,13.541902 4.455592,14.094634 0.55695,0.55273 6.683389,5.527306 8.354236,5.527306 0.370928,0 0.74297,0 1.113898,0 1.670847,0 7.797287,-4.974576 8.354236,-5.527306 0.556948,-0.552732 4.466732,-13.541902 4.455592,-14.094634 -0.01226,-0.549413 -2.227796,-2.487287 -2.227796,-2.763653 v -1.658192 c 0,-0.552731 -1.949322,-2.487289 -2.506271,-2.487289 h -1.392373 c -0.278474,0 -2.227796,-2.210921 -2.784744,-2.210921 -2.970767,0 -5.940419,0 -8.911185,0 z"
     style="opacity:1;fill:#4b422f;fill-opacity:1;stroke:none;stroke-width:1.10967171"
     id="path30"
     inkscape:connector-curvature="0" />
  <path
     d="m 25.260339,15.152173 c -0.554721,0 -1.107214,0.189033 -1.670847,0.561574 -1.670847,1.105462 -3.898643,-0.552731 -4.455593,-0.552731 -0.556948,0 -3.898643,4.027196 -3.898643,5.527308 0,1.105461 4.177119,3.648022 4.177119,4.421844 0,0.552732 -0.835424,0.818042 -0.835424,1.990937 0,0.772717 1.113898,2.154545 2.227795,2.154545 1.113899,0 3.900872,-2.170022 3.898644,-2.707276 V 26.21563 c 0,-0.663276 -2.506271,-1.499006 -2.506271,-2.763653 0,-1.105461 0.835424,-1.514483 0.835424,-2.763653 0,-1.074509 -2.227797,-1.381828 -3.898644,-1.658193 -0.556948,0 1.670847,-1.818484 4.734068,0.147027 0.775273,0.497458 -0.835424,2.464073 -0.556949,4.274819 0.417711,0.386912 1.184073,0.580367 1.949321,0.580367 0.766362,0 1.53161,-0.193455 1.949322,-0.580367 0.278474,-1.810746 -1.332222,-3.777361 -0.556949,-4.274819 3.063219,-1.965511 5.291016,-0.147027 4.734066,-0.147027 -1.670847,0.276365 -3.898643,0.583684 -3.898643,1.658193 0,1.24917 0.835423,1.658192 0.835423,2.763653 0,1.264647 -2.50627,2.100377 -2.50627,2.763653 v 0.332744 c -0.0022,0.537254 2.784746,2.707276 3.898643,2.707276 1.113899,0 2.227797,-1.381828 2.227797,-2.154545 0,-1.171789 -0.835424,-1.438205 -0.835424,-1.990937 0,-0.773822 4.177118,-3.316383 4.177118,-4.421844 0,-1.500112 -3.341694,-5.527308 -3.898644,-5.527308 -0.556948,0 -2.784744,1.658193 -4.455591,0.552731 -0.563633,-0.372541 -1.113899,-0.561574 -1.670848,-0.561574 z m 0,13.163834 c -1.113898,0 -3.620168,1.713465 -3.620168,2.045104 0,0.331638 2.50627,3.040019 3.620168,3.040019 1.113898,0 3.620169,-2.708381 3.620169,-3.040019 0,-0.331639 -2.506271,-2.045104 -3.620169,-2.045104 z"
     style="opacity:0.1;fill:#000000;fill-opacity:1;stroke:none;stroke-width:1.10967171"
     id="path32"
     inkscape:connector-curvature="0" />
  <path
     d="m 24.146441,14.046712 c -0.554721,0 -1.107215,0.189034 -1.670847,0.561574 -1.670848,1.105461 -3.898643,-0.552731 -4.455592,-0.552731 -0.55695,0 -3.898643,4.027195 -3.898643,5.527307 0,1.105462 4.177117,3.648022 4.177117,4.421846 0,0.55273 -0.835424,0.818041 -0.835424,1.990936 0,0.772717 1.113899,2.154544 2.227797,2.154544 1.113897,0 3.900871,-2.170021 3.898643,-2.707275 v -0.332745 c 0,-0.663276 -2.506271,-1.499004 -2.506271,-2.763652 0,-1.105462 0.835424,-1.514482 0.835424,-2.763654 0,-1.074508 -2.227796,-1.381828 -3.898643,-1.658192 -0.55695,0 1.670847,-1.818484 4.734066,0.147026 0.775273,0.497458 -0.835423,2.464074 -0.556949,4.27482 0.417712,0.386911 1.184074,0.580366 1.949322,0.580366 0.766362,0 1.531609,-0.193455 1.949321,-0.580366 0.278475,-1.810746 -1.332221,-3.777362 -0.556948,-4.27482 3.06322,-1.96551 5.291016,-0.147026 4.734067,-0.147026 -1.670847,0.276364 -3.898644,0.583684 -3.898644,1.658192 0,1.249172 0.835424,1.658192 0.835424,2.763654 0,1.264648 -2.506271,2.100376 -2.506271,2.763652 v 0.332745 c -0.0022,0.537254 2.784745,2.707275 3.898644,2.707275 1.113897,0 2.227796,-1.381827 2.227796,-2.154544 0,-1.17179 -0.835424,-1.438206 -0.835424,-1.990936 0,-0.773824 4.177118,-3.316384 4.177118,-4.421846 0,-1.500112 -3.341694,-5.527307 -3.898643,-5.527307 -0.55695,0 -2.784746,1.658192 -4.455593,0.552731 -0.563633,-0.37254 -1.113898,-0.561574 -1.670847,-0.561574 z m 0,13.163834 c -1.113898,0 -3.620169,1.713464 -3.620169,2.045104 0,0.331638 2.506271,3.040018 3.620169,3.040018 1.113898,0 3.620169,-2.70838 3.620169,-3.040018 0,-0.33164 -2.506271,-2.045104 -3.620169,-2.045104 z"
     style="opacity:1;fill:#f9f9f9;fill-opacity:1;stroke:none;stroke-width:1.10967171"
     id="path34"
     inkscape:connector-curvature="0" />
</svg>
