<?xml version="1.0" encoding="UTF-8" standalone="no"?>
<svg
   xmlns:dc="http://purl.org/dc/elements/1.1/"
   xmlns:cc="http://creativecommons.org/ns#"
   xmlns:rdf="http://www.w3.org/1999/02/22-rdf-syntax-ns#"
   xmlns:svg="http://www.w3.org/2000/svg"
   xmlns="http://www.w3.org/2000/svg"
   xmlns:sodipodi="http://sodipodi.sourceforge.net/DTD/sodipodi-0.dtd"
   xmlns:inkscape="http://www.inkscape.org/namespaces/inkscape"
   viewBox="0 0 48 48"
   id="svg2"
   version="1.1"
   inkscape:version="0.92.0 r15299"
   width="100%"
   height="100%"
   sodipodi:docname="grub-customizer.svg">
  <metadata
     id="metadata73">
    <rdf:RDF>
      <cc:Work
         rdf:about="">
        <dc:format>image/svg+xml</dc:format>
        <dc:type
           rdf:resource="http://purl.org/dc/dcmitype/StillImage" />
      </cc:Work>
    </rdf:RDF>
  </metadata>
  <sodipodi:namedview
     pagecolor="#ffffff"
     bordercolor="#666666"
     borderopacity="1"
     objecttolerance="10"
     gridtolerance="10"
     guidetolerance="10"
     inkscape:pageopacity="0"
     inkscape:pageshadow="2"
     inkscape:window-width="1360"
     inkscape:window-height="743"
     id="namedview71"
     showgrid="false"
     inkscape:zoom="9.8333333"
     inkscape:cx="7.0263557"
     inkscape:cy="22.36236"
     inkscape:window-x="0"
     inkscape:window-y="0"
     inkscape:window-maximized="1"
     inkscape:current-layer="svg2" />
  <defs
     id="defs4">
    <linearGradient
       id="linearGradient3764"
       x1="1"
       x2="47"
       gradientUnits="userSpaceOnUse"
       gradientTransform="matrix(0,-1,1,0,-1.5e-6,47.999998)">
      <stop
         style="stop-color:#355473;stop-opacity:1"
         id="stop7" />
      <stop
         offset="1"
         style="stop-color:#3b5d80;stop-opacity:1"
         id="stop9" />
    </linearGradient>
    <clipPath
       id="clipPath-276172342">
      <g
         transform="translate(0,-1004.3622)"
         id="g12">
        <path
           d="m -24 13 c 0 1.105 -0.672 2 -1.5 2 -0.828 0 -1.5 -0.895 -1.5 -2 0 -1.105 0.672 -2 1.5 -2 0.828 0 1.5 0.895 1.5 2 z"
           transform="matrix(15.333333,0,0,11.5,414.99999,878.8622)"
           style="fill:#1890d0"
           id="path14" />
      </g>
    </clipPath>
    <clipPath
       id="clipPath-283653061">
      <g
         transform="translate(0,-1004.3622)"
         id="g17">
        <path
           d="m -24 13 c 0 1.105 -0.672 2 -1.5 2 -0.828 0 -1.5 -0.895 -1.5 -2 0 -1.105 0.672 -2 1.5 -2 0.828 0 1.5 0.895 1.5 2 z"
           transform="matrix(15.333333,0,0,11.5,414.99999,878.8622)"
           style="fill:#1890d0"
           id="path19" />
      </g>
    </clipPath>
    <filter
       color-interpolation-filters="sRGB"
       id="filter4423"
       y="-0.15025"
       width="1.1998"
       height="1.3005"
       x="-0.099890001">
      <feGaussianBlur
         id="feGaussianBlur4425"
         stdDeviation="0.71452459" />
    </filter>
  </defs>
  <g
     id="g21">
    <path
       d="m 36.31 5 c 5.859 4.062 9.688 10.831 9.688 18.5 c 0 12.426 -10.07 22.5 -22.5 22.5 c -7.669 0 -14.438 -3.828 -18.5 -9.688 c 1.037 1.822 2.306 3.499 3.781 4.969 c 4.085 3.712 9.514 5.969 15.469 5.969 c 12.703 0 23 -10.298 23 -23 c 0 -5.954 -2.256 -11.384 -5.969 -15.469 c -1.469 -1.475 -3.147 -2.744 -4.969 -3.781 z m 4.969 3.781 c 3.854 4.113 6.219 9.637 6.219 15.719 c 0 12.703 -10.297 23 -23 23 c -6.081 0 -11.606 -2.364 -15.719 -6.219 c 4.16 4.144 9.883 6.719 16.219 6.719 c 12.703 0 23 -10.298 23 -23 c 0 -6.335 -2.575 -12.06 -6.719 -16.219 z"
       style="opacity:0.05"
       id="path23" />
    <path
       d="m 41.28 8.781 c 3.712 4.085 5.969 9.514 5.969 15.469 c 0 12.703 -10.297 23 -23 23 c -5.954 0 -11.384 -2.256 -15.469 -5.969 c 4.113 3.854 9.637 6.219 15.719 6.219 c 12.703 0 23 -10.298 23 -23 c 0 -6.081 -2.364 -11.606 -6.219 -15.719 z"
       style="opacity:0.1"
       id="path25" />
    <path
       d="m 31.25 2.375 c 8.615 3.154 14.75 11.417 14.75 21.13 c 0 12.426 -10.07 22.5 -22.5 22.5 c -9.708 0 -17.971 -6.135 -21.12 -14.75 a 23 23 0 0 0 44.875 -7 a 23 23 0 0 0 -16 -21.875 z"
       style="opacity:0.2"
       id="path27" />
  </g>
  <path
     inkscape:connector-curvature="0"
     id="path31"
     style="fill:#ff642f;fill-opacity:1"
     d="M 24,1 C 36.703,1 47,11.297 47,24 47,36.703 36.703,47 24,47 11.297,47 1,36.703 1,24 1,11.297 11.297,1 24,1 z" />
  <g
     id="g67">
    <path
       d="m 40.03 7.531 c 3.712 4.084 5.969 9.514 5.969 15.469 0 12.703 -10.297 23 -23 23 c -5.954 0 -11.384 -2.256 -15.469 -5.969 4.178 4.291 10.01 6.969 16.469 6.969 c 12.703 0 23 -10.298 23 -23 0 -6.462 -2.677 -12.291 -6.969 -16.469 z"
       style="opacity:0.1"
       id="path69" />
  </g>
  <path
     sodipodi:nodetypes="ssssssssssssssssssssscsssssssssssssssssssscssssssssssssssssssscsscsscsssssscssssssssssssssssscsssssssssssssssss"
     inkscape:connector-curvature="0"
     id="path2986-2"
     d="m 16.665186,37.012729 c -0.193133,-0.200739 -0.331161,-0.568201 -0.32938,-0.876902 9.02e-4,-0.159097 0.170279,-0.702607 0.484071,-1.553449 0.265465,-0.719784 0.486189,-1.373351 0.490498,-1.452359 0.0058,-0.104796 -0.123219,-0.2588 -0.476717,-0.569418 -0.266503,-0.234162 -0.653831,-0.618801 -0.860721,-0.854738 -0.206895,-0.235922 -0.433457,-0.452483 -0.503471,-0.481222 -0.07854,-0.03224 -0.656135,0.129652 -1.507612,0.42254 -0.75917,0.261132 -1.487886,0.482402 -1.619363,0.491689 -0.270638,0.01917 -0.778673,-0.168191 -0.996182,-0.367347 -0.172948,-0.158346 -1.4378555,-3.123037 -1.4655785,-3.435039 -0.0275,-0.309436 0.1942685,-0.776145 0.4746805,-0.998935 0.127646,-0.10139 0.818509,-0.44118 1.535253,-0.755036 0.771543,-0.33786 1.324367,-0.619065 1.355133,-0.689321 0.02859,-0.06521 0.035,-0.371381 0.01427,-0.680249 -0.02073,-0.308854 -0.01867,-0.8447 0.0047,-1.190755 0.02327,-0.346056 0.0077,-0.669783 -0.03482,-0.71938 -0.04242,-0.0496 -0.656872,-0.365535 -1.365458,-0.702087 -0.824082,-0.391405 -1.366847,-0.681986 -1.50621,-0.806381 -0.265586,-0.237079 -0.4635595,-0.756886 -0.3977865,-1.044438 0.02669,-0.116606 0.3690015,-0.921287 0.7607245,-1.788127 l 0.71222,-1.576082 0.287913,-0.151003 c 0.508802,-0.266845 0.682714,-0.243245 2.311046,0.313664 0.921637,0.315197 1.492462,0.482682 1.557253,0.456912 0.05626,-0.02233 0.321714,-0.266006 0.589903,-0.541391 0.268192,-0.275383 0.659524,-0.642234 0.869629,-0.815226 0.210107,-0.172975 0.403157,-0.362816 0.429002,-0.421842 0.02584,-0.059 -0.154002,-0.660555 -0.399657,-1.33672 -0.245661,-0.676177 -0.474557,-1.336834 -0.508668,-1.468134 -0.09594,-0.369286 -0.01816,-0.745885 0.216771,-1.049676 0.177388,-0.229377 0.357679,-0.319196 1.784483,-0.888944 0.872936,-0.34858 1.711967,-0.642833 1.864515,-0.653895 0.353996,-0.02564 0.816859,0.161963 1.042988,0.422793 0.09522,0.109882 0.43794,0.763001 0.761591,1.45151 0.323663,0.688511 0.615744,1.286312 0.649056,1.32845 0.0351,0.04441 0.36305,0.06446 0.780116,0.0477 0.395743,-0.01586 0.974928,-0.01014 1.287079,0.01289 0.42324,0.03108 0.600736,0.01289 0.698127,-0.07169 0.07175,-0.06242 0.416065,-0.674414 0.764978,-1.359954 0.671025,-1.318409 0.812296,-1.512375 1.227368,-1.685124 0.461708,-0.192161 0.657401,-0.143148 2.437804,0.61059 l 1.62164,0.68653 0.183347,0.268075 c 0.315448,0.461216 0.291973,0.657844 -0.2629,2.203476 -0.268596,0.748168 -0.499521,1.422581 -0.51317,1.498698 -0.01923,0.10708 0.08381,0.233803 0.455752,0.560637 0.26431,0.232244 0.671812,0.640153 0.905555,0.906478 0.233757,0.266327 0.448803,0.494 0.477889,0.505941 0.02914,0.01136 0.682199,-0.194966 1.451368,-0.459795 0.769168,-0.264813 1.523639,-0.49127 1.676588,-0.503247 0.361545,-0.0283 0.80147,0.15388 1.058718,0.438461 0.122155,0.135122 0.442794,0.809493 0.81776,1.719865 0.643662,1.562697 0.677224,1.725045 0.45985,2.223865 -0.153747,0.35282 -0.417092,0.517561 -1.834504,1.147542 -0.770695,0.342539 -1.41162,0.646486 -1.424299,0.675428 -0.01263,0.02892 -0.0072,0.386163 0.01236,0.793822 0.01946,0.407656 0.01199,0.964258 -0.01671,1.236888 -0.03571,0.338684 -0.02041,0.527624 0.04835,0.596521 0.05528,0.05543 0.707272,0.394322 1.448753,0.753016 1.471474,0.71183 1.688579,0.871993 1.790891,1.32114 0.09673,0.424584 0.01752,0.680553 -0.701143,2.266065 l -0.687466,1.516681 -0.296379,0.178685 c -0.529249,0.319069 -0.622833,0.308132 -2.346081,-0.274241 -0.842013,-0.284542 -1.551388,-0.509351 -1.5764,-0.499555 -0.02495,0.01014 -0.237757,0.221609 -0.472755,0.47069 -0.234996,0.249082 -0.653341,0.638899 -0.929637,0.866295 -0.27631,0.227373 -0.509541,0.452512 -0.518291,0.500308 -0.0085,0.04782 0.199403,0.673842 0.462568,1.391216 0.263164,0.717387 0.488669,1.448465 0.50111,1.624626 0.02652,0.374162 -0.101362,0.706401 -0.369343,0.960039 -0.236491,0.22383 -3.087504,1.366917 -3.482398,1.396226 -0.330171,0.0245 -0.829811,-0.163397 -1.061023,-0.399016 -0.0886,-0.09021 -0.43992,-0.754729 -0.780752,-1.47657 -0.340831,-0.721841 -0.663931,-1.330757 -0.717983,-1.353113 -0.05408,-0.02233 -0.42103,-0.02931 -0.815482,-0.01549 -0.394442,0.01385 -0.966162,0.005 -1.270471,-0.01928 -0.420624,-0.03374 -0.573453,-0.01765 -0.637306,0.06712 -0.04621,0.06141 -0.385557,0.690147 -0.754147,1.39727 -0.81069,1.555288 -0.949829,1.70285 -1.648967,1.748806 -0.202727,0.01328 -0.485088,-0.08602 -1.88183,-0.661624 -1.236178,-0.509469 -1.680297,-0.715703 -1.79256,-0.832383 z m 5.534868,-6.111234 c 1.549226,0.458362 3.039327,0.394262 4.542215,-0.195373 1.14545,-0.4494 2.047293,-1.111037 2.842514,-2.085449 0.49853,-0.610857 1.165698,-2.137748 1.275126,-2.918283 0.332078,-2.368699 -0.553276,-4.576474 -2.446115,-6.09971 -0.441042,-0.354928 -0.572211,-0.425258 -1.553463,-0.832953 -0.939874,-0.390488 -1.143362,-0.454666 -1.653641,-0.521508 -2.54789,-0.333747 -5.072299,0.726003 -6.514904,2.734968 -1.296098,1.804925 -1.554436,4.084199 -0.697134,6.150728 0.448875,1.082008 1.219136,2.0569 2.198397,2.782434 0.279241,0.206892 0.697712,0.449783 1.309368,0.759981 0.04886,0.02473 0.362799,0.126119 0.697637,0.225165 z m -0.431026,-3.115232 c -1.384633,-1.053038 -1.915089,-2.791707 -1.33538,-4.376939 0.405322,-1.108385 1.164745,-1.87522 2.291885,-2.314202 2.052677,-0.799494 4.362976,0.133445 5.185622,2.094037 0.677568,1.614857 0.253601,3.341981 -1.094215,4.45751 -1.147992,0.950139 -2.602356,1.191948 -4.027626,0.669655 -0.485218,-0.177812 -0.712109,-0.295686 -1.020286,-0.530061 z m 2.406261,-0.779621 c 0.500657,0.02081 1.380555,-0.231472 1.784487,-0.569928 0.285037,-0.238842 0.347457,-0.33168 0.579566,-0.861764 0.246914,-0.563899 0.09646,-0.617534 0.0529,-1.055908 -0.08788,-0.884897 -0.526039,-1.494879 -1.352448,-1.882743 -0.66386,-0.311569 -1.130801,-0.339116 -1.810252,-0.106718 -0.861464,0.294581 -1.442952,0.957027 -1.573524,1.792567 -0.113024,0.723225 0.05874,1.316281 0.541681,1.870577 0.450568,0.517102 1.031041,0.782907 1.777596,0.813969 z"
     style="fill:#a5a5a5;fill-opacity:1;stroke-width:0.73386985" />
  <path
     sodipodi:nodetypes="ssssssssssssssssssssscsssssssssssssssssssscssssssssssssssssssscsscsscsssssscssssssssssssssssscsssssssssssssssss"
     inkscape:connector-curvature="0"
     id="path2986"
     d="m 16.665186,36.396452 c -0.193133,-0.200737 -0.331161,-0.568199 -0.32938,-0.876888 9.02e-4,-0.159109 0.170279,-0.702607 0.484071,-1.553449 0.265465,-0.719797 0.486189,-1.373363 0.490498,-1.45236 0.0058,-0.104795 -0.123219,-0.258811 -0.476717,-0.569418 -0.266503,-0.234173 -0.653831,-0.618801 -0.860721,-0.854736 -0.206895,-0.23594 -0.433457,-0.45249 -0.503471,-0.48124 -0.07854,-0.03223 -0.656135,0.129651 -1.507612,0.422557 -0.75917,0.261135 -1.487886,0.482389 -1.619365,0.49169 -0.270636,0.01916 -0.778671,-0.168193 -0.99618,-0.367345 -0.172948,-0.158349 -1.4378545,-3.123051 -1.4655785,-3.435041 -0.0275,-0.309449 0.1942685,-0.776158 0.4746805,-0.998938 0.127647,-0.101389 0.81851,-0.441179 1.535253,-0.755045 0.771543,-0.33785 1.324367,-0.619056 1.355133,-0.689308 0.02859,-0.06522 0.035,-0.371397 0.01427,-0.680251 -0.02073,-0.308868 -0.01867,-0.8447 0.0047,-1.190756 0.02327,-0.346056 0.0077,-0.669783 -0.03482,-0.71938 -0.04242,-0.04962 -0.656874,-0.365545 -1.365458,-0.702085 -0.824083,-0.391406 -1.366847,-0.681988 -1.506213,-0.806382 -0.265584,-0.237092 -0.4635585,-0.756888 -0.3977835,-1.044438 0.02669,-0.116605 0.3690015,-0.921287 0.7607245,-1.788141 l 0.71222,-1.576081 0.287913,-0.15099 c 0.508801,-0.266856 0.682713,-0.243243 2.311045,0.313651 0.921637,0.315212 1.492461,0.482695 1.557254,0.456927 0.05626,-0.02233 0.321714,-0.266008 0.589902,-0.541391 0.26819,-0.275397 0.659523,-0.642236 0.869628,-0.815226 0.210106,-0.172991 0.403158,-0.362818 0.429002,-0.421855 0.02583,-0.059 -0.154001,-0.660545 -0.399658,-1.336723 -0.245659,-0.676161 -0.474557,-1.336822 -0.508667,-1.468117 -0.09594,-0.369291 -0.01816,-0.745899 0.21677,-1.049679 0.17739,-0.229376 0.357681,-0.319195 1.784485,-0.888944 0.872936,-0.34858 1.711967,-0.642844 1.864514,-0.653896 0.353997,-0.02563 0.816859,0.161966 1.042988,0.422796 0.09522,0.109882 0.437942,0.763001 0.761593,1.451507 0.323663,0.688499 0.615731,1.2863 0.649056,1.32845 0.0351,0.04441 0.36305,0.06446 0.780106,0.0477 0.395753,-0.01586 0.974938,-0.01014 1.287089,0.01289 0.42324,0.03123 0.600736,0.01289 0.698127,-0.07169 0.07175,-0.06242 0.416065,-0.674412 0.764978,-1.359952 0.671025,-1.318412 0.812296,-1.512375 1.227368,-1.685125 0.461708,-0.192162 0.657401,-0.143149 2.437804,0.610591 l 1.62164,0.686529 0.183347,0.268074 c 0.315436,0.461218 0.291973,0.657844 -0.262913,2.203475 -0.268583,0.74817 -0.499508,1.422582 -0.513157,1.498697 -0.01923,0.107081 0.08381,0.233806 0.455752,0.560641 0.264298,0.23223 0.6718,0.64014 0.905555,0.906465 0.233757,0.266337 0.448803,0.494 0.477889,0.505941 0.02914,0.01136 0.682199,-0.194966 1.451368,-0.459769 0.769168,-0.264827 1.523628,-0.491297 1.676575,-0.503262 0.361558,-0.0283 0.801483,0.153883 1.058731,0.438451 0.122155,0.135135 0.442794,0.809503 0.81776,1.719878 0.643653,1.562697 0.677212,1.725028 0.45985,2.223865 -0.153747,0.352817 -0.417092,0.517561 -1.834516,1.147541 -0.770683,0.342529 -1.411608,0.646473 -1.424287,0.675424 -0.01263,0.02893 -0.0072,0.386166 0.01249,0.793825 0.01945,0.407656 0.01211,0.964261 -0.01683,1.236874 -0.0357,0.338688 -0.02041,0.52764 0.04835,0.596534 0.0554,0.05545 0.707286,0.394323 1.448765,0.753004 1.471462,0.71184 1.688578,0.872004 1.790888,1.321153 0.09673,0.424596 0.01752,0.68054 -0.701141,2.266064 l -0.687477,1.516681 -0.296378,0.178675 c -0.529238,0.31907 -0.622833,0.308131 -2.346068,-0.27423 -0.841972,-0.284558 -1.551358,-0.509354 -1.576372,-0.499558 -0.02508,0.01014 -0.237757,0.221611 -0.472753,0.470695 -0.234998,0.249081 -0.653329,0.638898 -0.929639,0.866284 -0.276309,0.227383 -0.509539,0.452522 -0.51828,0.500306 -0.0085,0.04783 0.199407,0.67384 0.462557,1.391229 0.263164,0.717388 0.48867,1.448464 0.501111,1.624617 0.0264,0.374172 -0.101361,0.706398 -0.369345,0.960048 -0.236476,0.223831 -3.087504,1.366918 -3.482385,1.396217 -0.330181,0.02463 -0.829823,-0.163388 -1.061024,-0.399008 -0.08859,-0.09033 -0.43993,-0.754727 -0.780762,-1.476582 -0.34083,-0.72184 -0.663919,-1.330744 -0.717983,-1.353114 -0.05408,-0.02233 -0.421018,-0.02931 -0.81547,-0.01549 -0.394452,0.01385 -0.966164,0.005 -1.270483,-0.01928 -0.420612,-0.03375 -0.57344,-0.01765 -0.637293,0.06713 -0.04621,0.06142 -0.38557,0.690133 -0.754149,1.397256 -0.810695,1.555298 -0.949834,1.702863 -1.648973,1.748819 -0.202726,0.01328 -0.485086,-0.0859 -1.88183,-0.661624 -1.236168,-0.509469 -1.680286,-0.715713 -1.792548,-0.832382 z m 5.534868,-6.111221 c 1.549226,0.458346 3.039327,0.39426 4.542215,-0.195371 1.14545,-0.449402 2.047293,-1.111049 2.842514,-2.085448 0.49853,-0.610859 1.165698,-2.13775 1.275126,-2.918285 0.332078,-2.368713 -0.553276,-4.576473 -2.446115,-6.099711 -0.441042,-0.354939 -0.572211,-0.425269 -1.553463,-0.832951 -0.939874,-0.390491 -1.143362,-0.454668 -1.653641,-0.521522 -2.54789,-0.333747 -5.072299,0.726004 -6.514904,2.734966 -1.296098,1.804941 -1.554436,4.084201 -0.697134,6.150732 0.448875,1.082008 1.219136,2.056911 2.198397,2.782444 0.279241,0.206892 0.697712,0.449783 1.309368,0.75997 0.04886,0.02473 0.362799,0.126119 0.697637,0.225176 z m -0.431026,-3.11523 c -1.384633,-1.053041 -1.915089,-2.79171 -1.33538,-4.376953 0.405322,-1.108386 1.164745,-1.875205 2.291885,-2.314201 2.052677,-0.799493 4.362976,0.133444 5.185622,2.094048 0.677568,1.614859 0.253601,3.34197 -1.094215,4.457498 -1.147992,0.950152 -2.602356,1.191963 -4.027626,0.669656 -0.485218,-0.1778 -0.712109,-0.295673 -1.020286,-0.530048 z m 2.406261,-0.779623 c 0.500657,0.02081 1.380555,-0.231471 1.784487,-0.569938 0.285037,-0.238843 0.347457,-0.33167 0.579566,-0.861753 0.246914,-0.5639 0.09646,-0.617545 0.0529,-1.055908 -0.08788,-0.884897 -0.526039,-1.494879 -1.352448,-1.882745 -0.66386,-0.311567 -1.130801,-0.339114 -1.810252,-0.106717 -0.861464,0.294581 -1.442952,0.957017 -1.573524,1.792566 -0.113024,0.723214 0.05874,1.316283 0.541681,1.870577 0.450568,0.517105 1.031041,0.782907 1.777596,0.813968 z"
     style="fill:#f1f1f1;fill-opacity:1;stroke-width:0.73386985" />
  <path
     style="opacity:0.3;fill:#000000;fill-opacity:1;fill-rule:nonzero;stroke:none;stroke-width:0.96197683"
     d="m 24.16723,8.5144221 c -0.817382,0.0037 -1.758627,0.1719495 -2.765844,0.6489484 -2.607404,1.2319925 -2.274461,3.9027075 -1.840368,9.2372335 0.111022,1.435968 -1.406059,2.395114 -2.712609,4.278948 -1.306554,1.874179 -1.457516,3.407962 -2.440988,4.958297 -0.958306,1.485936 -0.82246,1.397297 -0.47398,2.661542 -0.04853,0.04278 -0.09702,0.08667 -0.146311,0.132076 -0.350122,0.32247 -0.772739,1.14101 -1.38474,1.539277 h -0.0019 c -0.60631,0.398268 -2.157677,0.366179 -2.5519175,0.833345 -0.384284,0.468547 0.01714,1.146677 0.0058,2.406243 0,0.538829 -0.09943,0.942677 -0.166316,1.270668 -0.09963,0.4148 -0.160669,0.705448 0.0329,1.001739 0.3501225,0.522282 0.9003585,0.658046 4.0856145,1.260264 1.700795,0.322468 3.313197,1.151449 4.386333,1.236891 1.078831,0.07027 1.312703,-0.259053 1.968827,-0.785472 0.08307,-0.06812 0.158477,-0.124729 0.22765,-0.174323 0.06593,0.0025 0.127675,-0.0064 0.183672,-0.02954 1.42896,-0.587053 0.939426,-0.403736 3.219487,-0.527763 2.240906,-0.115088 2.896386,-0.209049 4.970423,0.279331 0.124265,0.379819 0.31534,0.648807 0.494316,0.791245 0.305991,0.252188 0.768321,0.44661 1.774566,0.44661 1.011939,0 1.638737,-0.204965 2.306239,-0.812703 0.42841,-0.388611 0.883908,-0.754475 2.196143,-1.573048 1.046097,-0.644939 2.618313,-1.35597 2.930016,-1.641238 0.155135,-0.139188 0.43369,-0.273505 0.456458,-0.790293 0.0171,-0.446496 -0.379125,-0.593259 -0.656663,-0.74898 -0.388548,-0.203963 -1.39595,-0.942375 -1.901205,-1.668621 -0.306014,-0.440976 0.12778,-1.168729 -0.294934,-1.722717 v 0.0076 c -0.09802,-0.130481 -0.226414,-0.187457 -0.350323,-0.2089 0.205052,-0.438858 0.363695,-0.837557 0.451499,-1.165493 l -0.0025,0.0012 C 36.678957,27.756415 35.066495,24.467 33.515143,22.475685 31.969476,20.484362 30.702802,19.245416 30.079407,16.726285 29.446064,14.201649 30.235995,14.929317 29.679495,12.727149 29.407603,11.628876 28.923651,10.762062 28.389933,10.186034 27.856203,9.5989642 27.133194,9.2600254 26.777379,9.0877599 26.292314,8.8512915 25.362236,8.5083172 24.167595,8.5145343 Z"
     id="SVGCleanerId_0-3"
     inkscape:connector-curvature="0" />
  <path
     style="fill:#000000;fill-opacity:1;fill-rule:nonzero;stroke:none;stroke-width:0.96197683"
     inkscape:connector-curvature="0"
     id="SVGCleanerId_0"
     d="m 35.730371,29.212867 c -0.451058,1.684732 -2.726292,5.199326 -3.942413,6.748612 -1.210412,1.55483 -1.064818,2.95347 -3.30151,2.407561 -2.230997,-0.540386 -2.854751,-0.442268 -5.168526,-0.323406 -2.286659,0.124344 -1.795641,-0.05938 -3.228727,0.529336 -1.427375,0.583222 -6.227637,-7.131448 -6.618739,-8.572951 -0.379679,-1.435956 -0.563813,-1.263191 0.43535,-2.812491 0.986318,-1.554819 1.137617,-3.093065 2.447947,-4.972661 1.310331,-1.889277 2.831916,-2.851202 2.720579,-4.291296 -0.435348,-5.349967 -0.769356,-8.0284081 1.845594,-9.2639665 2.486493,-1.1775232 4.571883,-0.4754372 5.3912,-0.076007 0.356842,0.1727489 1.081954,0.5127408 1.61721,1.1014953 0.53527,0.5777032 1.020573,1.4470182 1.293204,2.5485282 0.55811,2.208535 -0.23409,1.478803 0.401091,4.010746 0.625188,2.526412 1.895551,3.768888 3.445684,5.765963 1.555841,1.997088 3.173051,5.296054 2.659202,7.201929 m 0,0" />
  <path
     style="fill:#f9f9f9;fill-opacity:1;fill-rule:nonzero;stroke:none;stroke-width:0.96197683"
     inkscape:connector-curvature="0"
     id="path88"
     d="m 20.964176,16.109531 c 0.406801,-0.145114 0.339717,-0.167229 0.61377,-0.707618 0.216961,-0.415993 0.406797,-0.594285 0.401092,-1.225889 0,-0.615006 -0.211252,-0.826468 -0.529556,-1.231411 -0.306884,-0.382837 -0.792188,-0.404941 -1.103357,-0.356574 -0.178427,0.02766 -0.406802,0.232181 -0.563816,0.534855 -0.105621,0.204547 -0.184129,0.464376 -0.195549,0.733884 -0.0171,0.733869 0.04424,1.008896 0.23409,1.506438 0.216961,0.583237 0.746518,0.885909 1.143326,0.744931 m 0,0" />
  <path
     style="fill:#000000;fill-opacity:1;fill-rule:nonzero;stroke:none;stroke-width:0.96197683"
     inkscape:connector-curvature="0"
     id="SVGCleanerId_1"
     d="m 20.585924,13.581737 c 0.20126,0 0.456759,0.1189 0.585223,0.286091 0.134174,0.167231 0.22267,0.404943 0.22267,0.674452 0,0.393878 -0.04424,0.831998 -0.306885,0.966061 -0.08422,0.03183 -0.26264,0.08158 -0.362556,0.08158 -0.228381,0 -0.251214,-0.140963 -0.468176,-0.345509 -0.07851,-0.07055 -0.30118,-0.432591 -0.30118,-0.72835 0,-0.183813 -0.04424,-0.44779 0.134175,-0.685502 0.122759,-0.172763 0.27834,-0.254297 0.496729,-0.254297 m 0,0.005" />
  <path
     style="fill:#f9f9f9;fill-opacity:1;fill-rule:nonzero;stroke:none;stroke-width:0.96197683"
     inkscape:connector-curvature="0"
     id="path91"
     d="m 25.184924,16.159283 c 1.026278,-0.0967 1.383133,-0.458843 1.567255,-1.084915 0.161293,-0.555589 0.167,-1.171989 -0.284045,-1.900339 -0.42964,-0.691023 -0.675144,-0.798833 -1.293204,-0.8472 -0.953482,-0.07042 -1.404528,0.534854 -1.617211,0.966062 -0.222676,0.469907 -0.178427,0.404941 -0.161293,0.99923 0.01707,0.626068 0.401091,0.798833 0.635181,1.192723 0.239796,0.377293 1.037704,0.685503 1.14903,0.67997 m 0.006,-0.005" />
  <path
     style="fill:#000000;fill-opacity:1;fill-rule:nonzero;stroke:none;stroke-width:0.96197683"
     inkscape:connector-curvature="0"
     id="SVGCleanerId_2"
     d="m 25.102133,13.554102 c 0.51243,0 0.807901,0.415994 0.909247,0.94533 0.03856,0.243243 -0.01707,0.518272 -0.178427,0.713147 -0.184135,0.226651 -0.512431,0.356565 -0.775067,0.356565 -0.256932,0 -0.535259,0.0373 -0.690846,-0.145115 -0.149878,-0.194863 -0.178425,-0.61502 -0.178425,-0.923213 0,-0.339994 0.111397,-0.583238 0.295471,-0.772569 0.145594,-0.140977 0.40109,-0.172762 0.619481,-0.172762 m 0,0" />
  <path
     style="fill:#f9f9f9;fill-opacity:1;fill-rule:nonzero;stroke:none;stroke-width:0.96197683"
     inkscape:connector-curvature="0"
     id="path100"
     d="m 22.057539,19.036736 c -0.886392,0.03184 -2.286649,-2.223735 -2.32519,-1.285309 -0.02284,0.793303 0.02284,0.778101 0.02284,1.543768 0,0.512738 -0.256923,0.555575 -0.813601,1.328155 -0.289757,0.404942 -0.512427,0.8472 -0.685143,1.296373 -0.111341,0.263977 -0.211251,0.540388 -0.295465,0.815416 -0.03285,0.135438 -0.0942,0.280561 -0.134176,0.416009 -0.272624,0.934263 -1.271789,2.089671 -1.500169,3.023936 -0.234091,0.928746 -0.506718,1.523048 -0.468176,2.764138 0.03285,1.246609 0.04424,0.885899 0.456757,1.198242 0.412513,0.308209 0.830735,0.59982 1.477336,1.118096 0.685138,0.550057 2.096812,1.478803 2.286652,1.775947 0.201259,0.297145 0.201259,0.960531 0.07851,1.177522 -0.12276,0.210066 -1.187575,0.328929 -1.187575,0.328929 0,0 0.930645,1.181659 1.120488,1.344752 0.178418,0.161699 0.942066,0.94533 4.042323,0.415993 1.75139,-0.308204 3.100256,-1.192723 4.080865,-2.045454 1.266076,-1.127761 0.625188,-1.44702 0.786482,-2.008126 0.239808,-0.815431 1.014865,-1.118093 1.187585,-2.035792 0.02281,-0.129915 0.06712,-0.226662 0.201255,-0.432588 0.195548,-0.259817 0.14988,-0.809884 0.14988,-1.296362 0,-1.296374 -0.161293,-2.596908 -0.491022,-3.562969 -0.301185,-0.90662 -0.775071,-1.538222 -1.181871,-2.353651 -0.813607,-1.625301 -0.775066,-2.359171 -1.505884,-3.395728 -0.825021,-1.198241 -0.418224,-1.997077 -1.521587,-1.948707 -1.371706,0.07055 -2.480774,1.781478 -3.779685,1.829858 m 0,0" />
  <path
     style="fill:#f9de69;fill-opacity:1;fill-rule:nonzero;stroke:none;stroke-width:0.96197683"
     d="m 22.525889,14.780106 c -0.351137,0.03729 -0.568988,0.005 -0.908709,0.161507 -0.362556,0.16723 -0.899223,0.561285 -1.188978,0.793467 -0.556677,0.44364 -0.952871,0.625982 -0.930039,1.171887 0.01569,0.518273 0.479572,0.923242 0.986289,1.300536 0.501011,0.378691 0.93058,0.848849 1.237468,0.945598 0.318308,0.109248 0.871178,0.08731 1.266562,0.08731 0.880685,0 2.023147,-1.009556 2.664037,-1.187851 0.797908,-0.232182 1.077178,-0.620071 1.13856,-1.494903 0.05564,-0.729741 -1.121092,-0.860048 -2.007495,-1.124011 -0.266914,-0.0746 -0.473473,-0.181682 -0.763236,-0.376546 -0.312594,-0.210078 -0.99773,-0.318702 -1.494459,-0.264801 z m -8.021237,14.627029 c -0.5581,-0.01136 -0.86985,0.260666 -1.220982,0.584075 -0.351134,0.323395 -0.774983,1.144333 -1.388755,1.543743 h -0.0018 c -0.608066,0.39941 -2.1639265,0.367208 -2.5593068,0.835717 -0.3853953,0.469905 0.017215,1.150081 0.00588,2.413273 0,0.540388 -0.09973,0.945317 -0.1668058,1.274244 -0.099912,0.416007 -0.1611527,0.707606 0.03297,1.004748 0.3511371,0.523805 0.9029436,0.659949 4.0974166,1.26392 1.705714,0.323394 3.322782,1.154747 4.399021,1.240441 1.081949,0.07041 1.316497,-0.25989 1.974516,-0.787843 0.652311,-0.534857 0.86417,-0.373021 0.842759,-1.538109 -0.02284,-1.166458 -0.842152,-1.512185 -1.772799,-2.855543 -0.9307,-1.344738 -1.08303,-1.592261 -1.701082,-2.483691 -0.619485,-0.880378 -1.844317,-2.478378 -2.540881,-2.494975 z M 29.846919,30.0344 c -0.435346,0 -0.518136,0.01014 -0.886404,0.220671 -0.199848,0.113304 -0.217232,0.847205 -0.217232,1.71652 0,0.685501 0.0047,1.457614 -0.06208,2.083685 -0.155588,1.45807 -0.483512,2.305434 -0.512059,3.245233 -0.03428,0.938414 0.316807,1.570095 0.629401,1.818871 0.306887,0.252912 0.770435,0.447916 1.77958,0.447916 1.014875,0 1.643539,-0.205585 2.312987,-0.815073 0.429639,-0.38973 0.886368,-0.756607 2.202424,-1.577542 1.049107,-0.646803 2.625884,-1.360005 2.938497,-1.646097 0.155591,-0.139581 0.434914,-0.274253 0.457744,-0.792526 0.0171,-0.44779 -0.380161,-0.595048 -0.658499,-0.751213 -0.389667,-0.204547 -1.399909,-0.944976 -1.90663,-1.673326 -0.306899,-0.442258 0.128137,-1.172208 -0.295795,-1.7278 v 0.0076 c -0.251212,-0.334459 -0.70282,-0.189674 -0.764201,-0.189674 -0.07282,0 -0.463154,0.614236 -0.618729,0.792531 -0.168434,0.189331 -0.607744,0.507195 -0.920349,0.685476 -0.311174,0.183813 -0.557346,0.281361 -1.226794,0.238512 -0.66373,-0.04835 -0.853595,-0.254282 -1.064845,-0.415982 -0.206963,-0.167242 -0.41771,-0.297433 -0.379193,-0.70239 0.04561,-0.404945 0.101251,-0.691518 -0.03296,-0.810369 -0.145594,-0.13407 -0.339519,-0.154948 -0.774865,-0.154948 z"
     id="path102"
     inkscape:connector-curvature="0"
     sodipodi:nodetypes="ccccccscccccccscccccccccccccscscccsccccccccsccccccs" />
  <path
     style="opacity:0.2;fill:#ffffff;fill-opacity:1;fill-rule:nonzero;stroke:none;stroke-width:0.96197683"
     d="m 23.69382,8.0107791 c -0.819745,0.0037 -1.7637,0.1724453 -2.773839,0.6508127 -1.785392,0.8435968 -2.195807,2.3606412 -2.138168,4.9405342 0.05144,-2.086476 0.551557,-3.368905 2.138168,-4.1185833 1.010139,-0.4783684 1.954094,-0.64655 2.773839,-0.6508125 1.198103,-0.00638 2.13087,0.3377325 2.61733,0.5748867 0.356853,0.172749 1.081954,0.5126762 1.617224,1.1014441 0.535268,0.57769 1.020617,1.44702 1.293251,2.54853 0.100763,0.398862 0.156457,0.69976 0.18553,0.943475 0.04288,-0.369936 0.06651,-0.767974 -0.18553,-1.765428 C 28.948991,11.134129 28.463642,10.2648 27.928374,9.6871103 27.393104,9.098343 26.668003,8.7584147 26.31115,8.5856646 25.82469,8.3485116 24.891923,8.0045362 23.69382,8.0107791 Z m 5.69194,6.9994259 c -0.0443,0.394094 -0.0634,0.861133 0.236931,2.058078 0.625188,2.526414 1.895538,3.768939 3.445672,5.766014 1.257206,1.613766 2.553834,4.077309 2.734373,5.969263 0.216434,-1.941309 -1.285059,-4.930864 -2.734373,-6.791213 -1.550134,-1.997077 -2.820484,-3.239602 -3.445672,-5.766013 -0.13646,-0.543953 -0.204694,-0.931791 -0.236931,-1.236129 z m -10.338166,3.408684 c -0.219734,1.187304 -1.538464,2.13224 -2.693765,3.79799 -1.310331,1.879597 -1.461732,3.417818 -2.448046,4.972637 -0.746482,1.157487 -0.829933,1.364391 -0.666685,1.992278 0.09762,-0.270433 0.303896,-0.607787 0.666685,-1.170328 0.986314,-1.554818 1.137715,-3.093025 2.448046,-4.972635 1.310331,-1.889291 2.831795,-2.851216 2.720457,-4.291321 -0.0095,-0.116733 -0.01733,-0.214465 -0.0267,-0.328621 z M 13.24573,30.02878 c -0.343798,0.344862 -0.758774,1.120912 -1.350777,1.506161 h -0.0019 c -0.608065,0.399422 -2.1639195,0.367234 -2.5593008,0.835755 -0.2126972,0.259335 -0.1841522,0.587486 -0.1188845,1.03756 0.02641,-0.07664 0.063932,-0.148603 0.1188845,-0.215609 0.3953813,-0.468523 1.9512358,-0.436333 2.5593008,-0.835756 h 0.0019 c 0.613773,-0.39941 1.03761,-1.220319 1.388745,-1.543717 0.04944,-0.04555 0.09808,-0.08959 0.146734,-0.132451 -0.07446,-0.270117 -0.138152,-0.476605 -0.184702,-0.651941 z m 22.321915,0.494773 c -0.08071,0.211881 -0.177521,0.439123 -0.290158,0.680203 0.124264,0.02156 0.253049,0.07866 0.351336,0.209505 v -0.0076 c 0.100054,0.131203 0.151349,0.272211 0.176745,0.416755 0.0012,-0.395718 0.11367,-0.858065 -0.176745,-1.238712 v 0.0076 c -0.01923,-0.02564 -0.03987,-0.04758 -0.06113,-0.06775 z m 0.259808,1.547259 c 0.0047,0.391379 -0.09611,0.784013 0.09717,1.062606 0.506722,0.728338 1.517028,1.468895 1.906707,1.67344 0.179303,0.100619 0.407367,0.19796 0.542823,0.373882 0.06159,-0.10735 0.107091,-0.248474 0.115675,-0.444682 0.0171,-0.44779 -0.380213,-0.594985 -0.65855,-0.751152 -0.389678,-0.204543 -1.399995,-0.9451 -1.906717,-1.673437 -0.05062,-0.07296 -0.07976,-0.154161 -0.09717,-0.240657 z M 9.3247095,35.134515 c -0.029898,0.370875 -0.100358,0.670304 -0.1520385,0.923723 -0.089186,0.37137 -0.1469966,0.643454 -0.020398,0.908966 0.00659,-0.02878 0.013169,-0.05698 0.020398,-0.08704 0.067094,-0.328928 0.1667946,-0.733957 0.1667946,-1.274346 0.00142,-0.167256 -0.00456,-0.32365 -0.014751,-0.471328 z"
     id="SVGCleanerId_0-7"
     inkscape:connector-curvature="0" />
  <path
     style="fill:#f9b154;fill-opacity:1;fill-rule:nonzero;stroke:none;stroke-width:0.96197683"
     d="m 26.728444,16.249406 c -0.126624,0.563455 -0.432528,0.852338 -1.075972,1.039576 -0.640902,0.178295 -1.783376,0.729837 -2.664062,0.729837 -0.395384,0 -0.948193,0.02181 -1.266497,-0.08743 -0.306885,-0.09681 -0.736374,-0.10885 -1.237386,-0.487505 -0.384199,-0.286081 -0.743364,-0.588185 -0.901624,-0.943389 -0.06047,0.11445 -0.0915,0.244094 -0.08471,0.406374 0.01569,0.518274 0.479466,0.923241 0.986183,1.30055 0.501013,0.37869 0.930653,0.848886 1.237538,0.945634 0.318304,0.109247 0.871113,0.08744 1.266496,0.08744 0.880687,0 2.023162,-1.009673 2.664063,-1.187965 0.797895,-0.232181 1.077273,-0.62002 1.138655,-1.494869 0.0086,-0.11723 -0.01432,-0.218892 -0.06269,-0.308244 z m 3.927165,13.980252 c -2.51e-4,0.0025 -4.77e-4,0.0038 -8.13e-4,0.0064 -0.01409,0.148185 0.0047,0.259219 0.04562,0.349099 0.01197,-0.157038 0.006,-0.277906 -0.04478,-0.35566 z m 5.151141,0.776822 c -0.0025,0.104794 0.0012,0.205383 0.02041,0.299302 0.0012,-0.100236 -0.0036,-0.200487 -0.02041,-0.299302 z M 9.2091381,32.604552 c -0.1237924,0.392493 0.065128,0.923976 0.117673,1.736157 0.0076,-0.101636 0.012632,-0.207401 0.012632,-0.320326 0.00517,-0.586535 -0.077405,-1.043384 -0.1303001,-1.415831 z M 38.391943,34.38291 c -0.101088,0.199356 -0.257301,0.289987 -0.359933,0.382077 -0.312593,0.286081 -1.889395,0.99928 -2.938514,1.646082 -1.316046,0.82095 -1.772667,1.187892 -2.202307,1.577631 -0.669448,0.609488 -1.298193,0.814999 -2.313057,0.814999 -1.009146,0 -1.472645,-0.194916 -1.779533,-0.447841 -0.255234,-0.203123 -0.535926,-0.661725 -0.611755,-1.333956 -0.0086,0.0925 -0.01493,0.184994 -0.01768,0.278581 -0.03428,0.938414 0.31688,1.570146 0.629475,1.818922 0.306886,0.252914 0.770375,0.447841 1.779531,0.447841 1.014866,0 1.64361,-0.20551 2.313046,-0.815 0.429651,-0.389741 0.886274,-0.756693 2.202317,-1.577629 1.049121,-0.646815 2.625934,-1.360001 2.938526,-1.646096 0.155581,-0.13958 0.434915,-0.274203 0.457744,-0.792463 0.0061,-0.146357 -0.03349,-0.260197 -0.09777,-0.353148 z M 9.1430655,36.184689 c -0.07998,0.350129 -0.1111866,0.612329 0.062533,0.878223 0.351136,0.523802 0.9030405,0.659909 4.0975095,1.263865 1.705715,0.323408 3.322684,1.154773 4.398925,1.240469 1.081949,0.07055 1.316496,-0.259916 1.974517,-0.787857 0.652308,-0.534857 0.864199,-0.372891 0.842791,-1.537969 -0.0015,-0.07815 -0.007,-0.152496 -0.01541,-0.223845 -0.06158,0.587956 -0.300904,0.566577 -0.827388,0.998267 -0.658018,0.527953 -0.892565,0.858339 -1.974514,0.787857 -1.076242,-0.08564 -2.693208,-0.91706 -4.398923,-1.240457 -3.194469,-0.603969 -3.7463755,-0.740074 -4.0975105,-1.263866 -0.024991,-0.03821 -0.045551,-0.07638 -0.062532,-0.114693 z"
     id="path102-5"
     inkscape:connector-curvature="0"
     sodipodi:nodetypes="ccsccccccsccccccccccccccccccsccccsccccccccccccccccc" />
</svg>
