<?xml version="1.0" encoding="UTF-8" standalone="no"?>
<svg
   xmlns:dc="http://purl.org/dc/elements/1.1/"
   xmlns:cc="http://creativecommons.org/ns#"
   xmlns:rdf="http://www.w3.org/1999/02/22-rdf-syntax-ns#"
   xmlns:svg="http://www.w3.org/2000/svg"
   xmlns="http://www.w3.org/2000/svg"
   xmlns:sodipodi="http://sodipodi.sourceforge.net/DTD/sodipodi-0.dtd"
   xmlns:inkscape="http://www.inkscape.org/namespaces/inkscape"
   viewBox="0 0 48 48"
   id="svg2"
   version="1.1"
   inkscape:version="0.91 r13725"
   sodipodi:docname="preferences-desktop-wallpaper.svg">
  <metadata
     id="metadata105">
    <rdf:RDF>
      <cc:Work
         rdf:about="">
        <dc:format>image/svg+xml</dc:format>
        <dc:type
           rdf:resource="http://purl.org/dc/dcmitype/StillImage" />
      </cc:Work>
    </rdf:RDF>
  </metadata>
  <sodipodi:namedview
     pagecolor="#ffffff"
     bordercolor="#666666"
     borderopacity="1"
     objecttolerance="10"
     gridtolerance="10"
     guidetolerance="10"
     inkscape:pageopacity="0"
     inkscape:pageshadow="2"
     inkscape:window-width="1360"
     inkscape:window-height="717"
     id="namedview103"
     showgrid="false"
     inkscape:zoom="4.9166667"
     inkscape:cx="24"
     inkscape:cy="40.271186"
     inkscape:window-x="0"
     inkscape:window-y="25"
     inkscape:window-maximized="1"
     inkscape:current-layer="svg2" />
  <defs
     id="defs4">
    <linearGradient
       id="linearGradient3764"
       x1="1"
       x2="47"
       gradientUnits="userSpaceOnUse"
       gradientTransform="matrix(0,-1,1,0,-1.5e-6,47.999998)">
      <stop
         stop-color="#eeda32"
         stop-opacity="1"
         id="stop7" />
      <stop
         offset="1"
         stop-color="#efdc45"
         stop-opacity="1"
         id="stop9" />
    </linearGradient>
    <clipPath
       id="clipPath-976840527">
      <g
         transform="translate(0,-1004.3622)"
         id="g12">
        <path
           d="m -24 13 c 0 1.105 -0.672 2 -1.5 2 -0.828 0 -1.5 -0.895 -1.5 -2 0 -1.105 0.672 -2 1.5 -2 0.828 0 1.5 0.895 1.5 2 z"
           transform="matrix(15.333333,0,0,11.5,414.99999,878.8622)"
           fill="#1890d0"
           id="path14" />
      </g>
    </clipPath>
    <clipPath
       id="clipPath-988687541">
      <g
         transform="translate(0,-1004.3622)"
         id="g17">
        <path
           d="m -24 13 c 0 1.105 -0.672 2 -1.5 2 -0.828 0 -1.5 -0.895 -1.5 -2 0 -1.105 0.672 -2 1.5 -2 0.828 0 1.5 0.895 1.5 2 z"
           transform="matrix(15.333333,0,0,11.5,414.99999,878.8622)"
           fill="#1890d0"
           id="path19" />
      </g>
    </clipPath>
  </defs>
  <g
     id="g21">
    <path
       d="m 36.31 5 c 5.859 4.062 9.688 10.831 9.688 18.5 c 0 12.426 -10.07 22.5 -22.5 22.5 c -7.669 0 -14.438 -3.828 -18.5 -9.688 c 1.037 1.822 2.306 3.499 3.781 4.969 c 4.085 3.712 9.514 5.969 15.469 5.969 c 12.703 0 23 -10.298 23 -23 c 0 -5.954 -2.256 -11.384 -5.969 -15.469 c -1.469 -1.475 -3.147 -2.744 -4.969 -3.781 z m 4.969 3.781 c 3.854 4.113 6.219 9.637 6.219 15.719 c 0 12.703 -10.297 23 -23 23 c -6.081 0 -11.606 -2.364 -15.719 -6.219 c 4.16 4.144 9.883 6.719 16.219 6.719 c 12.703 0 23 -10.298 23 -23 c 0 -6.335 -2.575 -12.06 -6.719 -16.219 z"
       opacity="0.05"
       id="path23" />
    <path
       d="m 41.28 8.781 c 3.712 4.085 5.969 9.514 5.969 15.469 c 0 12.703 -10.297 23 -23 23 c -5.954 0 -11.384 -2.256 -15.469 -5.969 c 4.113 3.854 9.637 6.219 15.719 6.219 c 12.703 0 23 -10.298 23 -23 c 0 -6.081 -2.364 -11.606 -6.219 -15.719 z"
       opacity="0.1"
       id="path25" />
    <path
       d="m 31.25 2.375 c 8.615 3.154 14.75 11.417 14.75 21.13 c 0 12.426 -10.07 22.5 -22.5 22.5 c -9.708 0 -17.971 -6.135 -21.12 -14.75 a 23 23 0 0 0 44.875 -7 a 23 23 0 0 0 -16 -21.875 z"
       opacity="0.2"
       id="path27" />
  </g>
  <g
     id="g29">
    <path
       d="m 24 1 c 12.703 0 23 10.297 23 23 c 0 12.703 -10.297 23 -23 23 -12.703 0 -23 -10.297 -23 -23 0 -12.703 10.297 -23 23 -23 z"
       fill="url(#linearGradient3764)"
       fill-opacity="1"
       id="path31" />
  </g>
  <g
     id="g33" />
  <g
     id="g35"
     transform="matrix(1.1732516,0,0,1.0301318,-4.1428823,0.88888893)">
    <g
       clip-path="url(#clipPath-976840527)"
       id="g37">
      <g
         transform="translate(1,1)"
         id="g39">
        <g
           id="g41"
           style="opacity:0.1">
          <!-- color: #efdc45 -->
          <g
             id="g43">
            <path
               d="m 12.773,11 22.453,0 c 0.984,0 1.773,0.789 1.773,1.773 l 0,15.227 -13,2 -13,-2 0,-15.227 C 10.999,11.789 11.788,11 12.772,11 m 0,0"
               id="path45"
               inkscape:connector-curvature="0"
               style="fill:#000000;fill-opacity:1;fill-rule:nonzero;stroke:none" />
            <path
               d="m 21,31 c 0,3 0,3 -2,5 l 5,1 5,-1 c -2,-2 -2,-2 -2,-5 l -3,-3 m -3,3"
               id="path47"
               inkscape:connector-curvature="0"
               style="fill:#000000;fill-opacity:1;fill-rule:nonzero;stroke:none" />
            <path
               d="m 17,36 14,0 0,1 -14,0 m 0,-1"
               id="path49"
               inkscape:connector-curvature="0"
               style="fill:#000000;fill-opacity:1;fill-rule:nonzero;stroke:none" />
            <path
               d="m 11,28 26,0 0,3 -26,0 m 0,-3"
               id="path51"
               inkscape:connector-curvature="0"
               style="fill:#000000;fill-opacity:1;fill-rule:nonzero;stroke:none" />
            <path
               d="m 13,13 22,0 0,13 -22,0 m 0,-13"
               id="path53"
               inkscape:connector-curvature="0"
               style="fill:#000000;fill-opacity:1;fill-rule:nonzero;stroke:none" />
            <path
               d="m 13,13 0,5.219 c 0.461,0.188 0.973,0.281 1.5,0.281 2.211,0 4,-1.789 4,-4 0,-0.527 -0.094,-1.039 -0.281,-1.5 M 13,13"
               id="path55"
               inkscape:connector-curvature="0"
               style="fill:#000000;fill-opacity:0.2;fill-rule:nonzero;stroke:none" />
            <path
               d="m 21,29 6,0 0,1 -6,0 m 0,-1"
               id="path57"
               inkscape:connector-curvature="0"
               style="fill:#000000;fill-opacity:1;fill-rule:nonzero;stroke:none" />
            <path
               d="m 18,20 -5,2.898 0,3.102 11.1,0 0,-2.102 M 17.995,20"
               id="path59"
               inkscape:connector-curvature="0"
               style="fill:#000000;fill-opacity:1;fill-rule:nonzero;stroke:none" />
            <path
               d="m 18,20 1,3 -2,1.5 1.102,1.5 6,0 0,-2.102 M 18,20"
               id="path61"
               inkscape:connector-curvature="0"
               style="fill:#000000;fill-opacity:1;fill-rule:nonzero;stroke:none" />
            <path
               d="m 29,17 -9,9 15,0 0,-5.445 M 29,17"
               id="path63"
               inkscape:connector-curvature="0"
               style="fill:#000000;fill-opacity:1;fill-rule:nonzero;stroke:none" />
            <path
               d="M 29,17 30.5,20 29,23.398 30.781,26 35,26 35,20.555 M 29,17"
               id="path65"
               inkscape:connector-curvature="0"
               style="fill:#000000;fill-opacity:1;fill-rule:nonzero;stroke:none" />
            <path
               d="m 13,13 0,3.813 c 0.316,0.113 0.645,0.188 1,0.188 1.656,0 3,-1.344 3,-3 0,-0.355 -0.074,-0.684 -0.188,-1 m -3.813,0"
               id="path67"
               inkscape:connector-curvature="0"
               style="fill:#000000;fill-opacity:1;fill-rule:nonzero;stroke:none" />
          </g>
        </g>
      </g>
    </g>
  </g>
  <g
     id="g69"
     transform="matrix(1.1732516,0,0,1.0521507,-4.1428823,0.6466809)">
    <g
       clip-path="url(#clipPath-988687541)"
       id="g71">
      <!-- color: #efdc45 -->
      <g
         id="g73">
        <path
           d="m 12.773,11 22.453,0 c 0.984,0 1.773,0.789 1.773,1.773 l 0,15.227 -13,2 -13,-2 0,-15.227 C 10.999,11.789 11.788,11 12.772,11 m 0,0"
           id="path75"
           inkscape:connector-curvature="0"
           style="fill:#546971;fill-opacity:1;fill-rule:nonzero;stroke:none" />
        <path
           d="m 21,31 c 0,3 0,3 -2,5 l 5,1 5,-1 c -2,-2 -2,-2 -2,-5 l -3,-3 m -3,3"
           id="path77"
           inkscape:connector-curvature="0"
           style="fill:#9b9da3;fill-opacity:1;fill-rule:nonzero;stroke:none" />
        <path
           d="m 17,36 14,0 0,1 -14,0 m 0,-1"
           id="path79"
           inkscape:connector-curvature="0"
           style="fill:#dddee2;fill-opacity:1;fill-rule:nonzero;stroke:none" />
        <path
           d="m 11,28 26,0 0,3 -26,0 m 0,-3"
           id="path81"
           inkscape:connector-curvature="0"
           style="fill:#dddee2;fill-opacity:1;fill-rule:nonzero;stroke:none" />
        <path
           d="m 13,13 22,0 0,13 -22,0 m 0,-13"
           id="path83"
           inkscape:connector-curvature="0"
           style="fill:#27a9de;fill-opacity:1;fill-rule:nonzero;stroke:none" />
        <path
           d="m 13,13 0,5.219 c 0.461,0.188 0.973,0.281 1.5,0.281 2.211,0 4,-1.789 4,-4 0,-0.527 -0.094,-1.039 -0.281,-1.5 M 13,13"
           id="path85"
           inkscape:connector-curvature="0"
           style="fill:#ffffff;fill-opacity:0.2;fill-rule:nonzero;stroke:none" />
        <path
           d="m 21,29 6,0 0,1 -6,0 m 0,-1"
           id="path87"
           inkscape:connector-curvature="0"
           style="fill:#546971;fill-opacity:1;fill-rule:nonzero;stroke:none" />
        <path
           d="m 18,20 -5,2.898 0,3.102 11.1,0 0,-2.102 M 17.995,20"
           id="path89"
           inkscape:connector-curvature="0"
           style="fill:#ddb842;fill-opacity:1;fill-rule:nonzero;stroke:none" />
        <path
           d="m 18,20 1,3 -2,1.5 1.102,1.5 6,0 0,-2.102 M 18,20"
           id="path91"
           inkscape:connector-curvature="0"
           style="fill:#fbdb52;fill-opacity:1;fill-rule:nonzero;stroke:none" />
        <path
           d="m 29,17 -9,9 15,0 0,-5.445 M 29,17"
           id="path93"
           inkscape:connector-curvature="0"
           style="fill:#ddb842;fill-opacity:1;fill-rule:nonzero;stroke:none" />
        <path
           d="M 29,17 30.5,20 29,23.398 30.781,26 35,26 35,20.555 M 29,17"
           id="path95"
           inkscape:connector-curvature="0"
           style="fill:#fbdb52;fill-opacity:1;fill-rule:nonzero;stroke:none" />
        <path
           d="m 13,13 0,3.813 c 0.316,0.113 0.645,0.188 1,0.188 1.656,0 3,-1.344 3,-3 0,-0.355 -0.074,-0.684 -0.188,-1 m -3.813,0"
           id="path97"
           inkscape:connector-curvature="0"
           style="fill:#f9ec2f;fill-opacity:1;fill-rule:nonzero;stroke:none" />
      </g>
    </g>
  </g>
  <g
     id="g99">
    <path
       d="m 40.03 7.531 c 3.712 4.084 5.969 9.514 5.969 15.469 0 12.703 -10.297 23 -23 23 c -5.954 0 -11.384 -2.256 -15.469 -5.969 4.178 4.291 10.01 6.969 16.469 6.969 c 12.703 0 23 -10.298 23 -23 0 -6.462 -2.677 -12.291 -6.969 -16.469 z"
       opacity="0.1"
       id="path101" />
  </g>
</svg>
