<?xml version="1.0" encoding="UTF-8" standalone="no"?>
<svg
   xmlns:dc="http://purl.org/dc/elements/1.1/"
   xmlns:cc="http://creativecommons.org/ns#"
   xmlns:rdf="http://www.w3.org/1999/02/22-rdf-syntax-ns#"
   xmlns:svg="http://www.w3.org/2000/svg"
   xmlns="http://www.w3.org/2000/svg"
   xmlns:xlink="http://www.w3.org/1999/xlink"
   xmlns:sodipodi="http://sodipodi.sourceforge.net/DTD/sodipodi-0.dtd"
   xmlns:inkscape="http://www.inkscape.org/namespaces/inkscape"
   viewBox="0 0 48 48"
   version="1.1"
   id="svg100"
   sodipodi:docname="printer.svg"
   inkscape:version="0.92.0 r15299">
  <metadata
     id="metadata104">
    <rdf:RDF>
      <cc:Work
         rdf:about="">
        <dc:format>image/svg+xml</dc:format>
        <dc:type
           rdf:resource="http://purl.org/dc/dcmitype/StillImage" />
      </cc:Work>
    </rdf:RDF>
  </metadata>
  <sodipodi:namedview
     pagecolor="#ffffff"
     bordercolor="#666666"
     borderopacity="1"
     objecttolerance="10"
     gridtolerance="10"
     guidetolerance="10"
     inkscape:pageopacity="0"
     inkscape:pageshadow="2"
     inkscape:window-width="1600"
     inkscape:window-height="872"
     id="namedview102"
     showgrid="false"
     inkscape:zoom="4.9166667"
     inkscape:cx="24.40678"
     inkscape:cy="-8.5423729"
     inkscape:window-x="0"
     inkscape:window-y="0"
     inkscape:window-maximized="1"
     inkscape:current-layer="svg100" />
  <defs
     id="defs17">
    <linearGradient
       id="linearGradient3764"
       x1="1"
       x2="47"
       gradientUnits="userSpaceOnUse"
       gradientTransform="matrix(0,-1,1,0,-1.5e-6,47.999998)">
      <stop
         stop-color="#51c8d3"
         stop-opacity="1"
         id="stop2" />
      <stop
         offset="1"
         stop-color="#61ced7"
         stop-opacity="1"
         id="stop4" />
    </linearGradient>
    <clipPath
       id="clipPath-165424667">
      <g
         transform="translate(0,-1004.3622)"
         id="g9">
        <path
           d="m -24 13 c 0 1.105 -0.672 2 -1.5 2 -0.828 0 -1.5 -0.895 -1.5 -2 0 -1.105 0.672 -2 1.5 -2 0.828 0 1.5 0.895 1.5 2 z"
           transform="matrix(15.333333,0,0,11.5,414.99999,878.8622)"
           fill="#1890d0"
           id="path7" />
      </g>
    </clipPath>
    <clipPath
       id="clipPath-178411873">
      <g
         transform="translate(0,-1004.3622)"
         id="g14">
        <path
           d="m -24 13 c 0 1.105 -0.672 2 -1.5 2 -0.828 0 -1.5 -0.895 -1.5 -2 0 -1.105 0.672 -2 1.5 -2 0.828 0 1.5 0.895 1.5 2 z"
           transform="matrix(15.333333,0,0,11.5,414.99999,878.8622)"
           fill="#1890d0"
           id="path12" />
      </g>
    </clipPath>
    <linearGradient
       inkscape:collect="always"
       xlink:href="#linearGradient5206"
       id="linearGradient5212"
       x1="744.57147"
       y1="408.86908"
       x2="744.57147"
       y2="301.798"
       gradientUnits="userSpaceOnUse"
       gradientTransform="matrix(1.0645985,0,0,1.0666667,1.5820804,0)" />
    <linearGradient
       inkscape:collect="always"
       id="linearGradient5206">
      <stop
         style="stop-color:#cbcbcb;stop-opacity:1"
         offset="0"
         id="stop5208" />
      <stop
         id="stop5214"
         offset="0.60000002"
         style="stop-color:#e9e9e9;stop-opacity:1" />
      <stop
         style="stop-color:#bebebe;stop-opacity:1"
         offset="1"
         id="stop5210" />
    </linearGradient>
    <linearGradient
       inkscape:collect="always"
       xlink:href="#linearGradient5184"
       id="linearGradient5190"
       x1="747.80255"
       y1="503.03632"
       x2="746.38837"
       y2="421.0119"
       gradientUnits="userSpaceOnUse"
       gradientTransform="matrix(1.0666667,0,0,1.0666667,0,-3.4130144)" />
    <linearGradient
       inkscape:collect="always"
       id="linearGradient5184">
      <stop
         style="stop-color:#a8a8a8;stop-opacity:1"
         offset="0"
         id="stop5186" />
      <stop
         style="stop-color:#cccccc;stop-opacity:1"
         offset="1"
         id="stop5188" />
    </linearGradient>
    <linearGradient
       inkscape:collect="always"
       xlink:href="#linearGradient5246"
       id="linearGradient5238"
       x1="744.57147"
       y1="381.798"
       x2="744.57147"
       y2="311.798"
       gradientUnits="userSpaceOnUse"
       gradientTransform="matrix(1.0666667,0,0,1.0666667,0,-0.85332267)" />
    <linearGradient
       id="linearGradient5246">
      <stop
         style="stop-color:#333333;stop-opacity:1;"
         offset="0"
         id="stop5248" />
      <stop
         id="stop5254"
         offset="0.64285713"
         style="stop-color:#4e4e4e;stop-opacity:1" />
      <stop
         style="stop-color:#333333;stop-opacity:1;"
         offset="1"
         id="stop5260" />
    </linearGradient>
    <linearGradient
       inkscape:collect="always"
       xlink:href="#linearGradient5278"
       id="linearGradient5306"
       x1="745.90625"
       y1="499.56796"
       x2="742.22821"
       y2="438.56796"
       gradientUnits="userSpaceOnUse"
       gradientTransform="scale(1.0666667)" />
    <linearGradient
       inkscape:collect="always"
       id="linearGradient5278">
      <stop
         style="stop-color:#060606;stop-opacity:1"
         offset="0"
         id="stop5280" />
      <stop
         style="stop-color:#343434;stop-opacity:1"
         offset="1"
         id="stop5282" />
    </linearGradient>
    <linearGradient
       inkscape:collect="always"
       xlink:href="#linearGradient5278"
       id="linearGradient5284"
       x1="735.7807"
       y1="464.5925"
       x2="736.69702"
       y2="504.0925"
       gradientUnits="userSpaceOnUse"
       gradientTransform="matrix(1.0666667,0,0,1.0666667,0,0.17915093)" />
    <linearGradient
       inkscape:collect="always"
       xlink:href="#linearGradient5334"
       id="linearGradient5332"
       x1="736.45404"
       y1="501.81488"
       x2="736.62952"
       y2="571.81488"
       gradientUnits="userSpaceOnUse"
       gradientTransform="matrix(1.0652485,0,0,1.0666667,0.19772485,0)" />
    <linearGradient
       id="linearGradient5334"
       inkscape:collect="always">
      <stop
         id="stop5336"
         offset="0"
         style="stop-color:#1f1f1f;stop-opacity:1" />
      <stop
         id="stop5338"
         offset="1"
         style="stop-color:#444444;stop-opacity:1" />
    </linearGradient>
    <linearGradient
       inkscape:collect="always"
       xlink:href="#linearGradient5354"
       id="linearGradient5360"
       x1="743.7807"
       y1="547.50397"
       x2="748.19672"
       y2="463.91818"
       gradientUnits="userSpaceOnUse"
       gradientTransform="scale(1.0666667)" />
    <linearGradient
       inkscape:collect="always"
       id="linearGradient5354">
      <stop
         style="stop-color:#f4f4f4;stop-opacity:1"
         offset="0"
         id="stop5356" />
      <stop
         style="stop-color:#b0b0b0;stop-opacity:1"
         offset="1"
         id="stop5358" />
    </linearGradient>
    <linearGradient
       inkscape:collect="always"
       xlink:href="#linearGradient5334"
       id="linearGradient5381"
       x1="754.57147"
       y1="302.79797"
       x2="752.57147"
       y2="258.79797"
       gradientUnits="userSpaceOnUse"
       gradientTransform="scale(1.0666667)" />
    <linearGradient
       inkscape:collect="always"
       xlink:href="#linearGradient5404"
       id="linearGradient5402"
       x1="736.81683"
       y1="307.46643"
       x2="738.93817"
       y2="233.2202"
       gradientUnits="userSpaceOnUse"
       gradientTransform="scale(1.0666667)" />
    <linearGradient
       id="linearGradient5404"
       inkscape:collect="always">
      <stop
         id="stop5406"
         offset="0"
         style="stop-color:#cbcbcb;stop-opacity:1" />
      <stop
         id="stop5408"
         offset="1"
         style="stop-color:#f3f3f3;stop-opacity:1" />
    </linearGradient>
    <linearGradient
       inkscape:collect="always"
       xlink:href="#linearGradient5206"
       id="linearGradient276"
       gradientUnits="userSpaceOnUse"
       gradientTransform="matrix(1.0645985,0,0,1.0666667,1.5820804,0)"
       x1="744.57147"
       y1="408.86908"
       x2="744.57147"
       y2="301.798" />
    <linearGradient
       inkscape:collect="always"
       xlink:href="#linearGradient5184"
       id="linearGradient278"
       gradientUnits="userSpaceOnUse"
       gradientTransform="matrix(1.0666667,0,0,1.0666667,0,-3.4130144)"
       x1="747.80255"
       y1="503.03632"
       x2="746.38837"
       y2="421.0119" />
    <linearGradient
       inkscape:collect="always"
       xlink:href="#linearGradient5246"
       id="linearGradient280"
       gradientUnits="userSpaceOnUse"
       gradientTransform="matrix(1.0666667,0,0,1.0666667,0,-0.85332267)"
       x1="744.57147"
       y1="381.798"
       x2="744.57147"
       y2="311.798" />
    <linearGradient
       inkscape:collect="always"
       xlink:href="#linearGradient5278"
       id="linearGradient282"
       gradientUnits="userSpaceOnUse"
       gradientTransform="scale(1.0666667)"
       x1="745.90625"
       y1="499.56796"
       x2="742.22821"
       y2="438.56796" />
    <linearGradient
       inkscape:collect="always"
       xlink:href="#linearGradient5278"
       id="linearGradient284"
       gradientUnits="userSpaceOnUse"
       gradientTransform="matrix(1.0666667,0,0,1.0666667,0,0.17915093)"
       x1="735.7807"
       y1="464.5925"
       x2="736.69702"
       y2="504.0925" />
    <linearGradient
       inkscape:collect="always"
       xlink:href="#linearGradient5334"
       id="linearGradient286"
       gradientUnits="userSpaceOnUse"
       gradientTransform="matrix(1.0652485,0,0,1.0666667,0.19772485,0)"
       x1="736.45404"
       y1="501.81488"
       x2="736.62952"
       y2="571.81488" />
    <linearGradient
       inkscape:collect="always"
       xlink:href="#linearGradient5354"
       id="linearGradient288"
       gradientUnits="userSpaceOnUse"
       gradientTransform="scale(1.0666667)"
       x1="743.7807"
       y1="547.50397"
       x2="748.19672"
       y2="463.91818" />
    <linearGradient
       inkscape:collect="always"
       xlink:href="#linearGradient5334"
       id="linearGradient290"
       gradientUnits="userSpaceOnUse"
       gradientTransform="scale(1.0666667)"
       x1="754.57147"
       y1="302.79797"
       x2="752.57147"
       y2="258.79797" />
    <linearGradient
       inkscape:collect="always"
       xlink:href="#linearGradient5404"
       id="linearGradient292"
       gradientUnits="userSpaceOnUse"
       gradientTransform="scale(1.0666667)"
       x1="736.81683"
       y1="307.46643"
       x2="738.93817"
       y2="233.2202" />
  </defs>
  <g
     id="g25">
    <path
       d="m 36.31 5 c 5.859 4.062 9.688 10.831 9.688 18.5 c 0 12.426 -10.07 22.5 -22.5 22.5 c -7.669 0 -14.438 -3.828 -18.5 -9.688 c 1.037 1.822 2.306 3.499 3.781 4.969 c 4.085 3.712 9.514 5.969 15.469 5.969 c 12.703 0 23 -10.298 23 -23 c 0 -5.954 -2.256 -11.384 -5.969 -15.469 c -1.469 -1.475 -3.147 -2.744 -4.969 -3.781 z m 4.969 3.781 c 3.854 4.113 6.219 9.637 6.219 15.719 c 0 12.703 -10.297 23 -23 23 c -6.081 0 -11.606 -2.364 -15.719 -6.219 c 4.16 4.144 9.883 6.719 16.219 6.719 c 12.703 0 23 -10.298 23 -23 c 0 -6.335 -2.575 -12.06 -6.719 -16.219 z"
       opacity="0.05"
       id="path19" />
    <path
       d="m 41.28 8.781 c 3.712 4.085 5.969 9.514 5.969 15.469 c 0 12.703 -10.297 23 -23 23 c -5.954 0 -11.384 -2.256 -15.469 -5.969 c 4.113 3.854 9.637 6.219 15.719 6.219 c 12.703 0 23 -10.298 23 -23 c 0 -6.081 -2.364 -11.606 -6.219 -15.719 z"
       opacity="0.1"
       id="path21" />
    <path
       d="m 31.25 2.375 c 8.615 3.154 14.75 11.417 14.75 21.13 c 0 12.426 -10.07 22.5 -22.5 22.5 c -9.708 0 -17.971 -6.135 -21.12 -14.75 a 23 23 0 0 0 44.875 -7 a 23 23 0 0 0 -16 -21.875 z"
       opacity="0.2"
       id="path23" />
  </g>
  <g
     id="g29"
     style="fill:#5599ff">
    <path
       d="m 24 1 c 12.703 0 23 10.297 23 23 c 0 12.703 -10.297 23 -23 23 -12.703 0 -23 -10.297 -23 -23 0 -12.703 10.297 -23 23 -23 z"
       fill="url(#linearGradient3764)"
       fill-opacity="1"
       id="path27"
       style="fill:#5599ff" />
  </g>
  <g
     id="g31" />
  <g
     id="g98">
    <path
       d="m 40.03 7.531 c 3.712 4.084 5.969 9.514 5.969 15.469 0 12.703 -10.297 23 -23 23 c -5.954 0 -11.384 -2.256 -15.469 -5.969 4.178 4.291 10.01 6.969 16.469 6.969 c 12.703 0 23 -10.298 23 -23 0 -6.462 -2.677 -12.291 -6.969 -16.469 z"
       opacity="0.1"
       id="path96" />
  </g>
  <g
     transform="matrix(0.51503129,0,0,0.47313564,-40.69153,-297.58966)"
     id="g5462">
    <path
       sodipodi:nodetypes="ccccccc"
       inkscape:connector-curvature="0"
       id="rect5459"
       d="m 100.86021,706.46524 h 49.3984 l 0.32,0.53742 v 0.87679 h -50.0384 v -0.90603 z"
       style="opacity:1;fill:#2a2a2a;fill-opacity:1;fill-rule:evenodd;stroke:none;stroke-width:3.20000005;stroke-linecap:round;stroke-linejoin:miter;stroke-miterlimit:4;stroke-dasharray:none;stroke-dashoffset:0;stroke-opacity:1" />
    <g
       transform="matrix(0.15590772,0,0,0.15590772,2.4599296,612.73297)"
       id="g5445">
      <path
         style="opacity:1;fill:url(#linearGradient276);fill-opacity:1;fill-rule:evenodd;stroke:none;stroke-width:3.20000005;stroke-linecap:round;stroke-linejoin:miter;stroke-miterlimit:4;stroke-dasharray:none;stroke-dashoffset:0;stroke-opacity:1"
         d="M 628.21287,331.02076 H 946.7517 l 33.97307,32.54277 v 80.59432 h -384.3616 v -80.97144 z"
         id="rect5203"
         inkscape:connector-curvature="0"
         sodipodi:nodetypes="ccccccc" />
      <path
         style="opacity:1;fill:url(#linearGradient278);fill-opacity:1;fill-rule:evenodd;stroke:none;stroke-width:3.20000005;stroke-linecap:round;stroke-linejoin:miter;stroke-miterlimit:4;stroke-dasharray:none;stroke-dashoffset:0;stroke-opacity:1"
         d="m 980.93812,444.10482 v 79.71276 c 0,8.15488 -6.56512,14.72 -14.72,14.72 H 610.99201 c -8.15489,0 -14.72001,-6.56512 -14.72001,-14.72 v -80.51276 z"
         id="rect5181"
         inkscape:connector-curvature="0"
         sodipodi:nodetypes="csssscc" />
      <path
         style="opacity:1;fill:url(#linearGradient280);fill-opacity:1;fill-rule:evenodd;stroke:none;stroke-width:3.20000005;stroke-linecap:round;stroke-linejoin:miter;stroke-miterlimit:4;stroke-dasharray:none;stroke-dashoffset:0;stroke-opacity:1"
         d="m 671.15677,330.26193 h 235.11074 l 10.66667,22.80258 v 41.30845 c 0,0 0.0612,16.59343 -16.59348,16.59343 H 677.08351 c 0,0 -16.06008,-0.6545 -16.59341,-15.83919 v -42.32935 z"
         id="rect5229"
         inkscape:connector-curvature="0"
         sodipodi:nodetypes="ccccccccc" />
      <path
         style="opacity:1;fill:url(#linearGradient282);fill-opacity:1;fill-rule:evenodd;stroke:none;stroke-width:3.20000005;stroke-linecap:round;stroke-linejoin:miter;stroke-miterlimit:4;stroke-dasharray:none;stroke-dashoffset:0;stroke-opacity:1"
         d="m 663.02291,472.67408 h 251.16427 c 10.44635,0 18.85621,8.40988 18.85621,18.85621 v 47.14062 H 644.1667 v -47.14062 c 0,-10.44633 8.40988,-18.85621 18.85621,-18.85621 z"
         id="rect5297"
         inkscape:connector-curvature="0"
         sodipodi:nodetypes="sssccss" />
      <path
         style="opacity:1;fill:url(#linearGradient284);fill-opacity:1;fill-rule:evenodd;stroke:none;stroke-width:3.20000005;stroke-linecap:round;stroke-linejoin:miter;stroke-miterlimit:4;stroke-dasharray:none;stroke-dashoffset:0;stroke-opacity:1"
         d="m 681.02223,492.28469 h 218.73172 c 10.44633,0 18.85618,8.40986 18.85618,18.85618 v 27.53004 H 662.16606 v -27.53004 c 0,-10.44632 8.40985,-18.85618 18.85617,-18.85618 z"
         id="rect5273"
         inkscape:connector-curvature="0"
         sodipodi:nodetypes="sssccss" />
      <path
         style="opacity:1;fill:url(#linearGradient286);fill-opacity:1;fill-rule:evenodd;stroke:none;stroke-width:3.20000005;stroke-linecap:round;stroke-linejoin:miter;stroke-miterlimit:4;stroke-dasharray:none;stroke-dashoffset:0;stroke-opacity:1"
         d="m 644.09157,538.53758 h 288.86921 l 17.04399,65.99664 H 629.1781 Z"
         id="rect5323"
         inkscape:connector-curvature="0"
         sodipodi:nodetypes="ccccc" />
      <path
         style="opacity:1;fill:url(#linearGradient288);fill-opacity:1;fill-rule:evenodd;stroke:none;stroke-width:3.20000005;stroke-linecap:round;stroke-linejoin:miter;stroke-miterlimit:4;stroke-dasharray:none;stroke-dashoffset:0;stroke-opacity:1"
         d="m 678.75462,492.2847 h 224.38856 l 10.66667,95.7894 H 668.08796 Z"
         id="rect5351"
         inkscape:connector-curvature="0"
         sodipodi:nodetypes="ccccc" />
      <rect
         style="opacity:1;fill:url(#linearGradient290);fill-opacity:1;fill-rule:evenodd;stroke:none;stroke-width:3.20000005;stroke-linecap:round;stroke-linejoin:miter;stroke-miterlimit:4;stroke-dasharray:none;stroke-dashoffset:0;stroke-opacity:1"
         id="rect5373"
         width="259.20001"
         height="65.066681"
         x="657.67621"
         y="265.59784" />
      <rect
         style="opacity:1;fill:url(#linearGradient292);fill-opacity:1;fill-rule:evenodd;stroke:none;stroke-width:3.20000005;stroke-linecap:round;stroke-linejoin:miter;stroke-miterlimit:4;stroke-dasharray:none;stroke-dashoffset:0;stroke-opacity:1"
         id="rect5394"
         width="225.14281"
         height="82.212959"
         x="676.19501"
         y="248.76822" />
      <path
         style="opacity:1;fill:#3b3b3b;fill-opacity:1;fill-rule:evenodd;stroke:none;stroke-width:3.20000005;stroke-linecap:round;stroke-linejoin:miter;stroke-miterlimit:4;stroke-dasharray:none;stroke-dashoffset:0;stroke-opacity:1"
         d="m 957.11621,394.1845 h 23.59992 v 15.73333 h -23.59992 c -4.35813,0 -7.86666,-3.50853 -7.86666,-7.86666 0,-4.35814 3.50853,-7.86667 7.86666,-7.86667 z"
         id="rect5423"
         inkscape:connector-curvature="0"
         sodipodi:nodetypes="sccsss" />
      <rect
         style="opacity:1;fill:#d5d5d5;fill-opacity:1;fill-rule:evenodd;stroke:none;stroke-width:3.20000005;stroke-linecap:round;stroke-linejoin:miter;stroke-miterlimit:4;stroke-dasharray:none;stroke-dashoffset:0;stroke-opacity:1"
         id="rect5443"
         width="21.314383"
         height="9.5547228"
         x="954.97559"
         y="397.37646"
         ry="4.7773614" />
    </g>
  </g>
  <g
     transform="matrix(0.51503129,0,0,0.47313564,-40.69153,-297.58966)"
     id="g5478">
    <path
       style="opacity:1;fill:#2a2a2a;fill-opacity:1;fill-rule:evenodd;stroke:none;stroke-width:3.20000005;stroke-linecap:round;stroke-linejoin:miter;stroke-miterlimit:4;stroke-dasharray:none;stroke-dashoffset:0;stroke-opacity:1"
       d="m 100.86021,706.46524 h 49.3984 l 0.32,0.53742 v 0.87679 h -50.0384 v -0.90603 z"
       id="path5480"
       inkscape:connector-curvature="0"
       sodipodi:nodetypes="ccccccc" />
    <g
       id="g5482"
       transform="matrix(0.15590772,0,0,0.15590772,2.4599296,612.73297)">
      <path
         sodipodi:nodetypes="ccccccc"
         inkscape:connector-curvature="0"
         id="path5484"
         d="M 628.21287,331.02076 H 946.7517 l 33.97307,32.54277 c 0,26.86477 0,-1.01059 0,80.59432 h -384.3616 v -80.97144 z"
         style="opacity:1;fill:url(#linearGradient5212);fill-opacity:1;fill-rule:evenodd;stroke:none;stroke-width:3.20000005;stroke-linecap:round;stroke-linejoin:miter;stroke-miterlimit:4;stroke-dasharray:none;stroke-dashoffset:0;stroke-opacity:1" />
      <path
         sodipodi:nodetypes="csssscc"
         inkscape:connector-curvature="0"
         id="path5486"
         d="m 980.93812,444.10482 v 79.71276 c 0,8.15488 -6.56512,14.72 -14.72,14.72 H 610.99201 c -8.15489,0 -14.72001,-6.56512 -14.72001,-14.72 v -80.51276 z"
         style="opacity:1;fill:url(#linearGradient5190);fill-opacity:1;fill-rule:evenodd;stroke:none;stroke-width:3.20000005;stroke-linecap:round;stroke-linejoin:miter;stroke-miterlimit:4;stroke-dasharray:none;stroke-dashoffset:0;stroke-opacity:1" />
      <path
         sodipodi:nodetypes="ccccccccc"
         inkscape:connector-curvature="0"
         id="path5490"
         d="m 671.15677,330.26193 h 235.11074 l 10.66667,22.80258 v 41.30845 c 0,0 0.0612,16.59343 -16.59348,16.59343 H 677.08351 c 0,0 -16.06008,-0.6545 -16.59341,-15.83919 v -42.32935 z"
         style="opacity:1;fill:url(#linearGradient5238);fill-opacity:1;fill-rule:evenodd;stroke:none;stroke-width:3.20000005;stroke-linecap:round;stroke-linejoin:miter;stroke-miterlimit:4;stroke-dasharray:none;stroke-dashoffset:0;stroke-opacity:1" />
      <path
         sodipodi:nodetypes="sssccss"
         inkscape:connector-curvature="0"
         id="path5492"
         d="m 663.02291,472.67408 h 251.16427 c 10.44635,0 18.85621,8.40988 18.85621,18.85621 v 47.14062 H 644.1667 v -47.14062 c 0,-10.44633 8.40988,-18.85621 18.85621,-18.85621 z"
         style="opacity:1;fill:url(#linearGradient5306);fill-opacity:1;fill-rule:evenodd;stroke:none;stroke-width:3.20000005;stroke-linecap:round;stroke-linejoin:miter;stroke-miterlimit:4;stroke-dasharray:none;stroke-dashoffset:0;stroke-opacity:1" />
      <path
         sodipodi:nodetypes="sssccss"
         inkscape:connector-curvature="0"
         id="path5494"
         d="m 681.02223,492.28469 h 218.73172 c 10.44633,0 18.85618,8.40986 18.85618,18.85618 v 27.53004 H 662.16606 v -27.53004 c 0,-10.44632 8.40985,-18.85618 18.85617,-18.85618 z"
         style="opacity:1;fill:url(#linearGradient5284);fill-opacity:1;fill-rule:evenodd;stroke:none;stroke-width:3.20000005;stroke-linecap:round;stroke-linejoin:miter;stroke-miterlimit:4;stroke-dasharray:none;stroke-dashoffset:0;stroke-opacity:1" />
      <path
         sodipodi:nodetypes="ccccc"
         inkscape:connector-curvature="0"
         id="path5496"
         d="m 644.09157,538.53758 h 288.86921 l 17.04399,65.99664 H 629.1781 Z"
         style="opacity:1;fill:url(#linearGradient5332);fill-opacity:1;fill-rule:evenodd;stroke:none;stroke-width:3.20000005;stroke-linecap:round;stroke-linejoin:miter;stroke-miterlimit:4;stroke-dasharray:none;stroke-dashoffset:0;stroke-opacity:1" />
      <path
         sodipodi:nodetypes="ccccc"
         inkscape:connector-curvature="0"
         id="path5498"
         d="m 678.75462,492.2847 h 224.38856 l 10.66667,95.7894 H 668.08796 Z"
         style="opacity:1;fill:url(#linearGradient5360);fill-opacity:1;fill-rule:evenodd;stroke:none;stroke-width:3.20000005;stroke-linecap:round;stroke-linejoin:miter;stroke-miterlimit:4;stroke-dasharray:none;stroke-dashoffset:0;stroke-opacity:1" />
      <rect
         y="265.59784"
         x="657.67621"
         height="65.066681"
         width="259.20001"
         id="rect5500"
         style="opacity:1;fill:url(#linearGradient5381);fill-opacity:1;fill-rule:evenodd;stroke:none;stroke-width:3.20000005;stroke-linecap:round;stroke-linejoin:miter;stroke-miterlimit:4;stroke-dasharray:none;stroke-dashoffset:0;stroke-opacity:1" />
      <rect
         y="248.76822"
         x="676.19501"
         height="82.212959"
         width="225.14281"
         id="rect5502"
         style="opacity:1;fill:url(#linearGradient5402);fill-opacity:1;fill-rule:evenodd;stroke:none;stroke-width:3.20000005;stroke-linecap:round;stroke-linejoin:miter;stroke-miterlimit:4;stroke-dasharray:none;stroke-dashoffset:0;stroke-opacity:1" />
      <path
         sodipodi:nodetypes="sccsss"
         inkscape:connector-curvature="0"
         id="path5504"
         d="m 957.11621,394.1845 h 23.59992 v 15.73333 h -23.59992 c -4.35813,0 -7.86666,-3.50853 -7.86666,-7.86666 0,-4.35814 3.50853,-7.86667 7.86666,-7.86667 z"
         style="opacity:1;fill:#3b3b3b;fill-opacity:1;fill-rule:evenodd;stroke:none;stroke-width:3.20000005;stroke-linecap:round;stroke-linejoin:miter;stroke-miterlimit:4;stroke-dasharray:none;stroke-dashoffset:0;stroke-opacity:1" />
      <rect
         ry="4.7773614"
         y="397.37646"
         x="954.97559"
         height="9.5547228"
         width="21.314383"
         id="rect5506"
         style="opacity:1;fill:#d5d5d5;fill-opacity:1;fill-rule:evenodd;stroke:none;stroke-width:3.20000005;stroke-linecap:round;stroke-linejoin:miter;stroke-miterlimit:4;stroke-dasharray:none;stroke-dashoffset:0;stroke-opacity:1" />
    </g>
  </g>
</svg>
