<?xml version="1.0" encoding="UTF-8" standalone="no"?>
<svg
   xmlns:dc="http://purl.org/dc/elements/1.1/"
   xmlns:cc="http://creativecommons.org/ns#"
   xmlns:rdf="http://www.w3.org/1999/02/22-rdf-syntax-ns#"
   xmlns:svg="http://www.w3.org/2000/svg"
   xmlns="http://www.w3.org/2000/svg"
   xmlns:sodipodi="http://sodipodi.sourceforge.net/DTD/sodipodi-0.dtd"
   xmlns:inkscape="http://www.inkscape.org/namespaces/inkscape"
   viewBox="0 0 48 48"
   version="1.1"
   id="svg57"
   sodipodi:docname="datagrip.svg"
   inkscape:version="0.92.2pre0 (973e216, 2017-07-25)">
  <metadata
     id="metadata61">
    <rdf:RDF>
      <cc:Work
         rdf:about="">
        <dc:format>image/svg+xml</dc:format>
        <dc:type
           rdf:resource="http://purl.org/dc/dcmitype/StillImage" />
      </cc:Work>
    </rdf:RDF>
  </metadata>
  <sodipodi:namedview
     pagecolor="#ffffff"
     bordercolor="#666666"
     borderopacity="1"
     objecttolerance="10"
     gridtolerance="10"
     guidetolerance="10"
     inkscape:pageopacity="0"
     inkscape:pageshadow="2"
     inkscape:window-width="1360"
     inkscape:window-height="691"
     id="namedview59"
     showgrid="false"
     inkscape:zoom="6.9532167"
     inkscape:cx="39.528036"
     inkscape:cy="13.467268"
     inkscape:window-x="0"
     inkscape:window-y="0"
     inkscape:window-maximized="1"
     inkscape:current-layer="svg57" />
  <defs
     id="defs17">
    <linearGradient
       id="linearGradient3764"
       x1="1"
       x2="47"
       gradientUnits="userSpaceOnUse"
       gradientTransform="matrix(0,-1,1,0,-1.5e-6,47.999998)">
      <stop
         style="stop-color:#e4e4e4;stop-opacity:1"
         id="stop2" />
      <stop
         offset="1"
         style="stop-color:#eee;stop-opacity:1"
         id="stop4" />
    </linearGradient>
    <clipPath
       id="clipPath-895085227">
      <g
         transform="translate(0,-1004.3622)"
         id="g9">
        <path
           d="m -24 13 c 0 1.105 -0.672 2 -1.5 2 -0.828 0 -1.5 -0.895 -1.5 -2 0 -1.105 0.672 -2 1.5 -2 0.828 0 1.5 0.895 1.5 2 z"
           transform="matrix(15.333333,0,0,11.5,414.99999,878.8622)"
           style="fill:#1890d0"
           id="path7" />
      </g>
    </clipPath>
    <clipPath
       id="clipPath-903165139">
      <g
         transform="translate(0,-1004.3622)"
         id="g14">
        <path
           d="m -24 13 c 0 1.105 -0.672 2 -1.5 2 -0.828 0 -1.5 -0.895 -1.5 -2 0 -1.105 0.672 -2 1.5 -2 0.828 0 1.5 0.895 1.5 2 z"
           transform="matrix(15.333333,0,0,11.5,414.99999,878.8622)"
           style="fill:#1890d0"
           id="path12" />
      </g>
    </clipPath>
    <filter
       height="1.072"
       y="-0.036"
       width="1.072"
       x="-0.036"
       id="filter6329"
       style="color-interpolation-filters:sRGB"
       inkscape:collect="always">
      <feGaussianBlur
         id="feGaussianBlur6331"
         stdDeviation="0.63"
         inkscape:collect="always" />
    </filter>
  </defs>
  <g
     id="g25">
    <path
       d="m 36.31 5 c 5.859 4.062 9.688 10.831 9.688 18.5 c 0 12.426 -10.07 22.5 -22.5 22.5 c -7.669 0 -14.438 -3.828 -18.5 -9.688 c 1.037 1.822 2.306 3.499 3.781 4.969 c 4.085 3.712 9.514 5.969 15.469 5.969 c 12.703 0 23 -10.298 23 -23 c 0 -5.954 -2.256 -11.384 -5.969 -15.469 c -1.469 -1.475 -3.147 -2.744 -4.969 -3.781 z m 4.969 3.781 c 3.854 4.113 6.219 9.637 6.219 15.719 c 0 12.703 -10.297 23 -23 23 c -6.081 0 -11.606 -2.364 -15.719 -6.219 c 4.16 4.144 9.883 6.719 16.219 6.719 c 12.703 0 23 -10.298 23 -23 c 0 -6.335 -2.575 -12.06 -6.719 -16.219 z"
       style="opacity:0.05"
       id="path19" />
    <path
       d="m 41.28 8.781 c 3.712 4.085 5.969 9.514 5.969 15.469 c 0 12.703 -10.297 23 -23 23 c -5.954 0 -11.384 -2.256 -15.469 -5.969 c 4.113 3.854 9.637 6.219 15.719 6.219 c 12.703 0 23 -10.298 23 -23 c 0 -6.081 -2.364 -11.606 -6.219 -15.719 z"
       style="opacity:0.1"
       id="path21" />
    <path
       d="m 31.25 2.375 c 8.615 3.154 14.75 11.417 14.75 21.13 c 0 12.426 -10.07 22.5 -22.5 22.5 c -9.708 0 -17.971 -6.135 -21.12 -14.75 a 23 23 0 0 0 44.875 -7 a 23 23 0 0 0 -16 -21.875 z"
       style="opacity:0.2"
       id="path23" />
  </g>
  <g
     id="g29">
    <path
       d="m 24 1 c 12.703 0 23 10.297 23 23 c 0 12.703 -10.297 23 -23 23 -12.703 0 -23 -10.297 -23 -23 0 -12.703 10.297 -23 23 -23 z"
       style="fill:url(#linearGradient3764);fill-opacity:1"
       id="path27" />
  </g>
  <g
     id="g37">
    <g
       style="clip-path:url(#clipPath-895085227)"
       clip-path="url(#clipPath-895085227)"
       id="g35">
      <g
         transform="translate(1,1)"
         id="g33">
        <g
           style="opacity:0.1"
           id="g31">
          <!-- color: #eeeeee -->
        </g>
      </g>
    </g>
  </g>
  <g
     transform="matrix(0.7863779,0,0,0.74090326,5.0066477,-738.41025)"
     id="layer1"
     inkscape:label="Layer 1">
    <path
       inkscape:connector-curvature="0"
       id="path6266"
       d="m 10.03125,1008.2997 -6.9999999,16 5.673828,0.4063 -4.673828,7.5937 6.0156249,5.1895 v 1.1601 l -3.0156249,9.6504 12.1445309,-4.25 8.855469,6.25 17,-7 v -24 l -13,-10 -4.974609,5.5273 -4.025391,-4.5273 z"
       style="opacity:0.3;fill:#000000;fill-opacity:1;fill-rule:evenodd;stroke:none;stroke-width:1px;stroke-linecap:butt;stroke-linejoin:miter;stroke-opacity:1;filter:url(#filter6329)" />
    <path
       sodipodi:nodetypes="cccccc"
       inkscape:connector-curvature="0"
       id="path4958"
       d="m 4,1031.3622 8,-13 15,12 -2,11 -10.910318,-1.296 z"
       style="fill:#f2912c;fill-opacity:1;fill-rule:evenodd;stroke:none;stroke-width:1px;stroke-linecap:butt;stroke-linejoin:miter;stroke-opacity:1" />
    <path
       inkscape:connector-curvature="0"
       id="path4960"
       d="m 7,1047.3622 5,-16 15,9 z"
       style="fill:#9f5ba1;fill-opacity:1;fill-rule:evenodd;stroke:none;stroke-width:1px;stroke-linecap:butt;stroke-linejoin:miter;stroke-opacity:1" />
    <path
       inkscape:connector-curvature="0"
       id="path4956"
       d="m 10,1007.3622 13,2 8,9 v 7 l -28,-2 z"
       style="fill:#f94275;fill-opacity:1;fill-rule:evenodd;stroke:none;stroke-width:1px;stroke-linecap:butt;stroke-linejoin:miter;stroke-opacity:1" />
    <path
       inkscape:connector-curvature="0"
       id="path4948"
       d="m 32,1008.3622 13,10 v 24 l -17,7 -17,-12 3,-9 z"
       style="fill:#1c81ef;fill-opacity:1;fill-rule:evenodd;stroke:none;stroke-width:1px;stroke-linecap:butt;stroke-linejoin:miter;stroke-opacity:1" />
    <path
       sodipodi:nodetypes="sssssssss"
       inkscape:connector-curvature="0"
       id="rect4270"
       d="m 11.018951,1014.3935 c -0.556101,0 -1.003906,0.4389 -1.003906,0.9843 v 26.0313 c 0,0.5454 0.447805,0.9844 1.003906,0.9844 h 25.992188 c 0.5561,0 1.003906,-0.439 1.003906,-0.9844 v -26.0313 c 0,-0.5454 -0.447806,-0.9843 -1.003906,-0.9843 z"
       style="opacity:1;fill:#000000;fill-opacity:1;stroke:none;stroke-width:0.5;stroke-opacity:1" />
    <rect
       ry="1.7382812e-05"
       rx="1.5427246e-05"
       y="1033.3828"
       x="14.020365"
       height="2"
       width="8.875"
       id="rect4954"
       style="opacity:1;fill:#ffffff;fill-opacity:1;stroke:none;stroke-width:0.47103611;stroke-opacity:1" />
    <text
       transform="scale(0.99801028,1.0019937)"
       id="text28"
       y="1027.7676"
       x="13.049706"
       style="font-style:normal;font-variant:normal;font-weight:bold;font-stretch:normal;font-size:13.04383945px;line-height:1.25;font-family:'DejaVu Sans';-inkscape-font-specification:'DejaVu Sans Bold';letter-spacing:0px;word-spacing:0px;fill:#ffffff;fill-opacity:1;stroke:none;stroke-width:0.32609594"
       xml:space="preserve"><tspan
         style="font-style:normal;font-variant:normal;font-weight:bold;font-stretch:normal;font-family:'DejaVu Sans';-inkscape-font-specification:'DejaVu Sans Bold';fill:#ffffff;stroke-width:0.32609594"
         y="1027.7676"
         x="13.049706"
         id="tspan26"
         sodipodi:role="line">DG</tspan></text>
  </g>
</svg>
