<?xml version="1.0" encoding="UTF-8" standalone="no"?>
<svg
   xmlns:dc="http://purl.org/dc/elements/1.1/"
   xmlns:cc="http://creativecommons.org/ns#"
   xmlns:rdf="http://www.w3.org/1999/02/22-rdf-syntax-ns#"
   xmlns:svg="http://www.w3.org/2000/svg"
   xmlns="http://www.w3.org/2000/svg"
   xmlns:sodipodi="http://sodipodi.sourceforge.net/DTD/sodipodi-0.dtd"
   xmlns:inkscape="http://www.inkscape.org/namespaces/inkscape"
   viewBox="0 0 48 48"
   version="1.1"
   id="svg69"
   sodipodi:docname="deepin.com.weixin.work.svg"
   inkscape:version="0.92.2pre0 (973e216, 2017-07-25)">
  <metadata
     id="metadata73">
    <rdf:RDF>
      <cc:Work
         rdf:about="">
        <dc:format>image/svg+xml</dc:format>
        <dc:type
           rdf:resource="http://purl.org/dc/dcmitype/StillImage" />
      </cc:Work>
    </rdf:RDF>
  </metadata>
  <sodipodi:namedview
     pagecolor="#ffffff"
     bordercolor="#666666"
     borderopacity="1"
     objecttolerance="10"
     gridtolerance="10"
     guidetolerance="10"
     inkscape:pageopacity="0"
     inkscape:pageshadow="2"
     inkscape:window-width="1360"
     inkscape:window-height="658"
     id="namedview71"
     showgrid="false"
     inkscape:zoom="4.9166667"
     inkscape:cx="24"
     inkscape:cy="24"
     inkscape:window-x="0"
     inkscape:window-y="28"
     inkscape:window-maximized="1"
     inkscape:current-layer="svg69" />
  <defs
     id="defs17">
    <linearGradient
       id="linearGradient3764"
       x1="1"
       x2="47"
       gradientUnits="userSpaceOnUse"
       gradientTransform="matrix(0,-1,1,0,-1.5e-6,47.999998)">
      <stop
         stop-color="#e4e4e4"
         stop-opacity="1"
         id="stop2" />
      <stop
         offset="1"
         stop-color="#eee"
         stop-opacity="1"
         id="stop4" />
    </linearGradient>
    <clipPath
       id="clipPath-505380455">
      <g
         transform="translate(0,-1004.3622)"
         id="g9">
        <path
           d="m -24 13 c 0 1.105 -0.672 2 -1.5 2 -0.828 0 -1.5 -0.895 -1.5 -2 0 -1.105 0.672 -2 1.5 -2 0.828 0 1.5 0.895 1.5 2 z"
           transform="matrix(15.333333,0,0,11.5,414.99999,878.8622)"
           fill="#1890d0"
           id="path7" />
      </g>
    </clipPath>
    <clipPath
       id="clipPath-514880478">
      <g
         transform="translate(0,-1004.3622)"
         id="g14">
        <path
           d="m -24 13 c 0 1.105 -0.672 2 -1.5 2 -0.828 0 -1.5 -0.895 -1.5 -2 0 -1.105 0.672 -2 1.5 -2 0.828 0 1.5 0.895 1.5 2 z"
           transform="matrix(15.333333,0,0,11.5,414.99999,878.8622)"
           fill="#1890d0"
           id="path12" />
      </g>
    </clipPath>
    <path
       id="path-1"
       d="M4.28910015,2.01589848 C4.24567328,0.895372482 3.30249198,-5.68434189e-14 2.14533133,-5.68434189e-14 C0.960497551,-5.68434189e-14 0,0.938709641 0,2.09666667 C0,3.25462369 0.960497551,4.19333333 2.14533133,4.19333333 C2.14578379,4.19333333 2.14623623,4.1933332 2.14668863,4.19333292 C3.28367897,4.47666639 3.97900967,4.75999986 4.23268072,5.04333333 C5.19904618,5.91222222 5.70155622,6.34666667 5.74021084,6.34666667 C5.76946965,6.34666667 6.11730529,6.54479289 6.37801205,6.29 C6.57128514,6.10111111 6.60993976,5.89333333 6.4939759,5.66666667 L5.21837349,4.25 C4.5998996,3.11666667 4.29066265,2.38 4.29066265,2.04 C4.29066265,2.03128333 4.29014182,2.02324949 4.28910015,2.01589848 Z" />
    <path
       id="path-2"
       d="M8.56162421,8.675724 C8.51819733,7.555198 7.57501603,6.65982552 6.41785538,6.65982552 C5.23302161,6.65982552 4.27252405,7.59853516 4.27252405,8.75649219 C4.27252405,9.91444921 5.23302161,10.8531589 6.41785538,10.8531589 C6.41830785,10.8531589 6.41876028,10.8531587 6.41921268,10.8531584 C7.55620302,11.1364919 8.25153372,11.4198254 8.50520478,11.7031589 C9.47157024,12.5720477 9.97408028,13.0064922 10.0127349,13.0064922 C10.0419937,13.0064922 10.3898293,13.2046184 10.6505361,12.9498255 C10.8438092,12.7609366 10.8824638,12.5531589 10.7665,12.3264922 L9.49089755,10.9098255 C8.87242365,9.77649219 8.5631867,9.03982552 8.5631867,8.69982552 C8.5631867,8.69110885 8.56266587,8.68307501 8.56162421,8.675724 Z" />
    <path
       id="path-3"
       d="M4.28910015,2.01589848 C4.24567328,0.895372482 3.30249198,0 2.14533133,0 C0.960497551,0 0,0.938709641 0,2.09666667 C0,3.25462369 0.960497551,4.19333333 2.14533133,4.19333333 C2.14578379,4.19333333 2.14623623,4.1933332 2.14668863,4.19333292 C3.28367897,4.47666639 3.97900967,4.75999986 4.23268072,5.04333333 C5.19904618,5.91222222 5.70155622,6.34666667 5.74021084,6.34666667 C5.76946965,6.34666667 6.11730529,6.54479289 6.37801205,6.29 C6.57128514,6.10111111 6.60993976,5.89333333 6.4939759,5.66666667 L5.21837349,4.25 C4.5998996,3.11666667 4.29066265,2.38 4.29066265,2.04 C4.29066265,2.03128333 4.29014182,2.02324949 4.28910015,2.01589848 Z" />
    <path
       id="path-4"
       d="M8.56162421,8.675724 C8.51819733,7.555198 7.57501603,6.65982552 6.41785538,6.65982552 C5.23302161,6.65982552 4.27252405,7.59853516 4.27252405,8.75649219 C4.27252405,9.91444921 5.23302161,10.8531589 6.41785538,10.8531589 C6.41830785,10.8531589 6.41876028,10.8531587 6.41921268,10.8531584 C7.55620302,11.1364919 8.25153372,11.4198254 8.50520478,11.7031589 C9.47157024,12.5720477 9.97408028,13.0064922 10.0127349,13.0064922 C10.0419937,13.0064922 10.3898293,13.2046184 10.6505361,12.9498255 C10.8438092,12.7609366 10.8824638,12.5531589 10.7665,12.3264922 L9.49089755,10.9098255 C8.87242365,9.77649219 8.5631867,9.03982552 8.5631867,8.69982552 C8.5631867,8.69110885 8.56266587,8.68307501 8.56162421,8.675724 Z" />
  </defs>
  <g
     id="g25">
    <path
       d="m 36.31 5 c 5.859 4.062 9.688 10.831 9.688 18.5 c 0 12.426 -10.07 22.5 -22.5 22.5 c -7.669 0 -14.438 -3.828 -18.5 -9.688 c 1.037 1.822 2.306 3.499 3.781 4.969 c 4.085 3.712 9.514 5.969 15.469 5.969 c 12.703 0 23 -10.298 23 -23 c 0 -5.954 -2.256 -11.384 -5.969 -15.469 c -1.469 -1.475 -3.147 -2.744 -4.969 -3.781 z m 4.969 3.781 c 3.854 4.113 6.219 9.637 6.219 15.719 c 0 12.703 -10.297 23 -23 23 c -6.081 0 -11.606 -2.364 -15.719 -6.219 c 4.16 4.144 9.883 6.719 16.219 6.719 c 12.703 0 23 -10.298 23 -23 c 0 -6.335 -2.575 -12.06 -6.719 -16.219 z"
       opacity="0.05"
       id="path19" />
    <path
       d="m 41.28 8.781 c 3.712 4.085 5.969 9.514 5.969 15.469 c 0 12.703 -10.297 23 -23 23 c -5.954 0 -11.384 -2.256 -15.469 -5.969 c 4.113 3.854 9.637 6.219 15.719 6.219 c 12.703 0 23 -10.298 23 -23 c 0 -6.081 -2.364 -11.606 -6.219 -15.719 z"
       opacity="0.1"
       id="path21" />
    <path
       d="m 31.25 2.375 c 8.615 3.154 14.75 11.417 14.75 21.13 c 0 12.426 -10.07 22.5 -22.5 22.5 c -9.708 0 -17.971 -6.135 -21.12 -14.75 a 23 23 0 0 0 44.875 -7 a 23 23 0 0 0 -16 -21.875 z"
       opacity="0.2"
       id="path23" />
  </g>
  <g
     id="g29"
     style="fill:#999999">
    <path
       d="m 24 1 c 12.703 0 23 10.297 23 23 c 0 12.703 -10.297 23 -23 23 -12.703 0 -23 -10.297 -23 -23 0 -12.703 10.297 -23 23 -23 z"
       id="path27"
       fill-opacity="1"
       fill="url(#linearGradient3764)"
       style="fill:#999999" />
  </g>
  <g
     id="g31" />
  <g
     id="g54"
     transform="translate(-0.44677993,-0.22644065)">
    <path
       inkscape:connector-curvature="0"
       style="fill:#ffffff"
       d="M 34.724,20.191 29.439,7.098 26.047,14.772 c 0,0 -0.968,-0.274 -1.649,-0.274 -0.681,0 -1.649,0.274 -1.649,0.274 L 19.357,7.098 14.072,20.191 c 0,0 -2.11,4.355 1.178,9.231 l 8.298,11.486 c 0.404,0.559 1.239,0.551 1.632,-0.015 l 7.965,-11.471 c 3.29,-4.876 1.579,-9.231 1.579,-9.231 z"
       id="path52" />
  </g>
  <ellipse
     transform="rotate(-39.469598)"
     cx="-1.4713625"
     cy="31.011993"
     rx="2.4251194"
     ry="4.9172421"
     id="ellipse56"
     style="stroke-width:1.00004923" />
  <ellipse
     transform="rotate(-140.5304)"
     cx="-38.397449"
     cy="-0.63023686"
     rx="2.4251194"
     ry="4.9172421"
     id="ellipse58"
     style="stroke-width:1.00004923" />
  <g
     id="g62"
     transform="translate(-0.44677993,-0.22644065)">
    <path
       inkscape:connector-curvature="0"
       d="m 26.797,36.531 c -0.172,0 -0.339,-0.089 -0.432,-0.248 l -1.999,-3.429 -1.973,3.406 c -0.14,0.24 -0.447,0.32 -0.684,0.182 -0.238,-0.138 -0.32,-0.444 -0.182,-0.683 l 2.403,-4.15 c 0.089,-0.154 0.254,-0.249 0.432,-0.25 h 0.001 c 0.178,0 0.343,0.094 0.432,0.248 l 2.433,4.172 c 0.14,0.239 0.059,0.545 -0.18,0.684 -0.078,0.046 -0.165,0.068 -0.251,0.068 z"
       id="path60" />
  </g>
</svg>
