<?xml version="1.0" encoding="UTF-8" standalone="no"?>
<svg
   xmlns:dc="http://purl.org/dc/elements/1.1/"
   xmlns:cc="http://creativecommons.org/ns#"
   xmlns:rdf="http://www.w3.org/1999/02/22-rdf-syntax-ns#"
   xmlns:svg="http://www.w3.org/2000/svg"
   xmlns="http://www.w3.org/2000/svg"
   xmlns:sodipodi="http://sodipodi.sourceforge.net/DTD/sodipodi-0.dtd"
   xmlns:inkscape="http://www.inkscape.org/namespaces/inkscape"
   viewBox="0 0 48 48"
   version="1.1"
   id="svg49"
   sodipodi:docname="buzztrax.svg"
   inkscape:version="0.92.2pre0 (973e216, 2017-07-25)">
  <metadata
     id="metadata53">
    <rdf:RDF>
      <cc:Work
         rdf:about="">
        <dc:format>image/svg+xml</dc:format>
        <dc:type
           rdf:resource="http://purl.org/dc/dcmitype/StillImage" />
      </cc:Work>
    </rdf:RDF>
  </metadata>
  <sodipodi:namedview
     pagecolor="#ffffff"
     bordercolor="#666666"
     borderopacity="1"
     objecttolerance="10"
     gridtolerance="10"
     guidetolerance="10"
     inkscape:pageopacity="0"
     inkscape:pageshadow="2"
     inkscape:window-width="1360"
     inkscape:window-height="691"
     id="namedview51"
     showgrid="false"
     inkscape:zoom="4.9166667"
     inkscape:cx="24"
     inkscape:cy="24"
     inkscape:window-x="0"
     inkscape:window-y="0"
     inkscape:window-maximized="1"
     inkscape:current-layer="svg49" />
  <defs
     id="defs7">
    <linearGradient
       id="linearGradient3764"
       x1="1"
       x2="47"
       gradientUnits="userSpaceOnUse"
       gradientTransform="matrix(0,-1,1,0,-1.5e-6,47.999998)">
      <stop
         style="stop-color:#3d3d3d;stop-opacity:1"
         id="stop2" />
      <stop
         offset="1"
         style="stop-color:#474747;stop-opacity:1"
         id="stop4" />
    </linearGradient>
    <linearGradient
       id="linearGradient-1"
       y2="2.5736216"
       x2="18.439089"
       y1="36.878178"
       x1="18.439089"
       gradientTransform="matrix(1.0846523,0,0,0.92195445,-51.322034,-1.9322034)"
       gradientUnits="userSpaceOnUse">
      <stop
         id="stop59"
         offset="0%"
         stop-color="#DADADA" />
      <stop
         id="stop61"
         offset="100%"
         stop-color="#FFFFFF" />
    </linearGradient>
    <linearGradient
       id="linearGradient-2"
       y2="19.515227"
       x2="10.916758"
       y1="2.3558713"
       x1="2.2637517"
       gradientTransform="scale(1.114172,0.89752747)"
       gradientUnits="userSpaceOnUse">
      <stop
         id="stop64"
         offset="0%"
         stop-color="#707785" />
      <stop
         id="stop66"
         offset="2.15163209%"
         stop-color="#4B4E57" />
      <stop
         id="stop68"
         offset="100%"
         stop-color="#3C414C" />
    </linearGradient>
  </defs>
  <g
     id="g15">
    <path
       d="m 36.31 5 c 5.859 4.062 9.688 10.831 9.688 18.5 c 0 12.426 -10.07 22.5 -22.5 22.5 c -7.669 0 -14.438 -3.828 -18.5 -9.688 c 1.037 1.822 2.306 3.499 3.781 4.969 c 4.085 3.712 9.514 5.969 15.469 5.969 c 12.703 0 23 -10.298 23 -23 c 0 -5.954 -2.256 -11.384 -5.969 -15.469 c -1.469 -1.475 -3.147 -2.744 -4.969 -3.781 z m 4.969 3.781 c 3.854 4.113 6.219 9.637 6.219 15.719 c 0 12.703 -10.297 23 -23 23 c -6.081 0 -11.606 -2.364 -15.719 -6.219 c 4.16 4.144 9.883 6.719 16.219 6.719 c 12.703 0 23 -10.298 23 -23 c 0 -6.335 -2.575 -12.06 -6.719 -16.219 z"
       style="opacity:0.05"
       id="path9" />
    <path
       d="m 41.28 8.781 c 3.712 4.085 5.969 9.514 5.969 15.469 c 0 12.703 -10.297 23 -23 23 c -5.954 0 -11.384 -2.256 -15.469 -5.969 c 4.113 3.854 9.637 6.219 15.719 6.219 c 12.703 0 23 -10.298 23 -23 c 0 -6.081 -2.364 -11.606 -6.219 -15.719 z"
       style="opacity:0.1"
       id="path11" />
    <path
       d="m 31.25 2.375 c 8.615 3.154 14.75 11.417 14.75 21.13 c 0 12.426 -10.07 22.5 -22.5 22.5 c -9.708 0 -17.971 -6.135 -21.12 -14.75 a 23 23 0 0 0 44.875 -7 a 23 23 0 0 0 -16 -21.875 z"
       style="opacity:0.2"
       id="path13" />
  </g>
  <g
     id="g19"
     style="fill:#1a1a1a">
    <path
       d="m 24 1 c 12.703 0 23 10.297 23 23 c 0 12.703 -10.297 23 -23 23 -12.703 0 -23 -10.297 -23 -23 0 -12.703 10.297 -23 23 -23 z"
       style="fill:#1a1a1a;fill-opacity:1"
       id="path17" />
  </g>
  <g
     id="g23">
    <path
       d="m 40.03 7.531 c 3.712 4.084 5.969 9.514 5.969 15.469 0 12.703 -10.297 23 -23 23 c -5.954 0 -11.384 -2.256 -15.469 -5.969 4.178 4.291 10.01 6.969 16.469 6.969 c 12.703 0 23 -10.298 23 -23 0 -6.462 -2.677 -12.291 -6.969 -16.469 z"
       style="opacity:0.1"
       id="path21" />
  </g>
  <path
     style="fill:#242130;fill-rule:evenodd;stroke:none;stroke-width:0.89768523"
     inkscape:connector-curvature="0"
     d="M 38.353932,11.013371 V 33.667932 H 6.218339 v -8.361123 z"
     id="Combined-Shape" />
  <rect
     style="fill:#09bb07;fill-rule:evenodd;stroke:none;stroke-width:1.34203076"
     id="Rectangle-18"
     transform="matrix(0.88980556,0.45633986,-0.30329906,0.95289542,0,0)"
     x="29.452614"
     y="5.0929222"
     width="1.2326667"
     height="13.466744" />
  <ellipse
     style="fill:#ff6058;fill-rule:evenodd;stroke:none;stroke-width:1.84371483"
     id="Oval-11"
     cx="11.432458"
     cy="11.220748"
     rx="1.7748477"
     ry="1.9152542" />
  <ellipse
     style="fill:#e4e557;fill-rule:evenodd;stroke:none;stroke-width:1.84371483"
     id="Oval-11-Copy"
     cx="15.714046"
     cy="11.220748"
     rx="1.7748477"
     ry="1.9152542" />
  <ellipse
     style="fill:#34c849;fill-rule:evenodd;stroke:none;stroke-width:1.84371483"
     id="Oval-11-Copy-2"
     cx="19.99564"
     cy="11.220748"
     rx="1.7748477"
     ry="1.9152542" />
  <path
     style="fill:#09bb07;fill-rule:evenodd;stroke:none;stroke-width:1.33280551"
     inkscape:connector-curvature="0"
     d="m 19.402328,23.466822 0.02435,-1.794502 -7.610054,4.382726 7.491147,4.382725 0.02435,-1.794502 -4.423906,-2.588223 z"
     id="path81" />
  <path
     style="fill:#09bb07;fill-rule:evenodd;stroke:none;stroke-width:1.33280551"
     inkscape:connector-curvature="0"
     d="m 26.585441,23.466822 -0.02435,-1.794502 7.610055,4.382726 -7.491147,4.382725 -0.02435,-1.794502 4.423906,-2.588223 z"
     id="Combined-Shape-Copy" />
</svg>
