<?xml version="1.0" encoding="UTF-8" standalone="no"?>
<svg
   xmlns:dc="http://purl.org/dc/elements/1.1/"
   xmlns:cc="http://creativecommons.org/ns#"
   xmlns:rdf="http://www.w3.org/1999/02/22-rdf-syntax-ns#"
   xmlns:svg="http://www.w3.org/2000/svg"
   xmlns="http://www.w3.org/2000/svg"
   xmlns:sodipodi="http://sodipodi.sourceforge.net/DTD/sodipodi-0.dtd"
   xmlns:inkscape="http://www.inkscape.org/namespaces/inkscape"
   viewBox="0 0 48 48"
   version="1.1"
   id="svg35"
   sodipodi:docname="deepin-font-installer.svg"
   inkscape:version="0.92.2pre0 (973e216, 2017-07-25)">
  <metadata
     id="metadata39">
    <rdf:RDF>
      <cc:Work
         rdf:about="">
        <dc:format>image/svg+xml</dc:format>
        <dc:type
           rdf:resource="http://purl.org/dc/dcmitype/StillImage" />
      </cc:Work>
    </rdf:RDF>
  </metadata>
  <sodipodi:namedview
     pagecolor="#ffffff"
     bordercolor="#666666"
     borderopacity="1"
     objecttolerance="10"
     gridtolerance="10"
     guidetolerance="10"
     inkscape:pageopacity="0"
     inkscape:pageshadow="2"
     inkscape:window-width="1360"
     inkscape:window-height="691"
     id="namedview37"
     showgrid="false"
     inkscape:zoom="8.4591018"
     inkscape:cx="18.665237"
     inkscape:cy="27.888584"
     inkscape:window-x="0"
     inkscape:window-y="0"
     inkscape:window-maximized="1"
     inkscape:current-layer="svg35"
     inkscape:measure-start="0,0"
     inkscape:measure-end="0,0" />
  <defs
     id="defs7">
    <linearGradient
       id="linearGradient3845"
       y1="47"
       x2="0"
       y2="1"
       gradientUnits="userSpaceOnUse">
      <stop
         style="stop-color:#b33c29;stop-opacity:1"
         id="stop2" />
      <stop
         offset="1"
         style="stop-color:#c3412d;stop-opacity:1"
         id="stop4" />
    </linearGradient>
    <linearGradient
       gradientUnits="userSpaceOnUse"
       gradientTransform="scale(2.2184661,0.4507619)"
       x1="10.817503"
       y1="37.852578"
       x2="10.817503"
       y2="57.818773"
       id="linearGradient-1">
      <stop
         stop-color="#FFFFFF"
         offset="0%"
         id="stop6" />
      <stop
         stop-color="#C7D9E8"
         offset="100%"
         id="stop8" />
    </linearGradient>
  </defs>
  <text
     x="17"
     y="18"
     line-height="125%"
     style="letter-spacing:0;word-spacing:0;font-size:20;font-family:Montserrat;fill:#000;fill-opacity:1;font-weight:normal;stroke:none;font-style:normal;font-variant:normal;font-stretch:normal"
     id="text27">
    <tspan
       x="17"
       y="18"
       style="font-family:Changa"
       id="tspan25" />
  </text>
  <g
     id="g853">
    <path
       d="m 24.005025,0.76638268 c 13.007106,0 23.550611,10.46964732 23.550611,23.38563132 0,12.915985 -10.543505,23.385631 -23.550611,23.385631 -13.007101,0 -23.55060401,-10.469646 -23.55060401,-23.385631 0,-12.915984 10.54350301,-23.38563132 23.55060401,-23.38563132 z"
       style="fill:#cccccc;fill-opacity:1;stroke-width:1.02034676"
       id="path17-3"
       inkscape:connector-curvature="0" />
    <path
       d="m 24.06582,2.443287 c 11.987381,0 21.7043,9.683754 21.7043,21.630216 0,11.946461 -9.716919,21.630215 -21.7043,21.630215 -11.987373,0 -21.7042941,-9.683754 -21.7042941,-21.630215 0,-11.946462 9.7169211,-21.630216 21.7042941,-21.630216 z"
       style="fill:#900066;fill-opacity:1;stroke-width:0.9420532"
       id="path17"
       inkscape:connector-curvature="0" />
    <g
       transform="matrix(1.0016078,0,0,0.99952769,-52.199866,3.6668486)"
       id="g933">
      <path
         id="path14361-6"
         d="m 86.245698,33.122814 h -20 c -1,0 -1,-1 -1,-1 V 8.1228136 c 0,0 0,-1 1,-1 h 14 l 7,7.0000004 v 18 c 0,1 -1,1 -1,1 z"
         inkscape:connector-curvature="0"
         style="fill:#e5b400;fill-rule:evenodd;stroke:none;stroke-width:1" />
      <path
         id="Aa"
         d="m 77.904068,19.122814 h -3.638167 v -0.444058 c 0.320111,-0.02085 0.585841,-0.06254 0.797196,-0.125087 0.211355,-0.06254 0.317031,-0.13968 0.317031,-0.231411 0,-0.03753 -0.0041,-0.08339 -0.01231,-0.137595 -0.0082,-0.0542 -0.02052,-0.102155 -0.03693,-0.14385 l -0.726402,-1.988882 h -3.059508 c -0.114912,0.291871 -0.208276,0.546212 -0.280096,0.76303 -0.07182,0.216819 -0.136456,0.416956 -0.193912,0.600417 -0.05335,0.179292 -0.09029,0.325226 -0.110807,0.437804 -0.02052,0.112579 -0.03078,0.204309 -0.03078,0.275191 0,0.166784 0.129274,0.296039 0.387825,0.38777 0.258551,0.09173 0.54993,0.145934 0.874145,0.162613 v 0.444058 h -3.287285 v -0.444058 c 0.106704,-0.0083 0.240081,-0.03231 0.400137,-0.07193 0.160055,-0.03961 0.291381,-0.09277 0.393981,-0.159486 0.164159,-0.112579 0.291381,-0.230368 0.381669,-0.35337 0.09029,-0.123003 0.178522,-0.292911 0.264706,-0.509729 0.439126,-1.113279 0.92339,-2.364135 1.452804,-3.752607 0.529414,-1.388466 1.001366,-2.624729 1.415869,-3.70882 h 0.492476 l 2.911764,7.655316 c 0.06156,0.162614 0.131327,0.293954 0.209303,0.394024 0.07798,0.10007 0.186729,0.198053 0.326265,0.293954 0.09439,0.05837 0.21751,0.107366 0.369357,0.146977 0.151848,0.03961 0.279069,0.0615 0.381669,0.06567 z m -3.468925,-3.759888 -1.336159,-3.41808 -1.311299,3.41808 z m 9.514691,3.490879 c -0.194728,0.0709 -0.36563,0.128248 -0.512712,0.172041 -0.147081,0.04379 -0.313841,0.06569 -0.500282,0.06569 -0.323166,0 -0.581073,-0.07611 -0.773729,-0.228345 -0.192656,-0.15223 -0.315913,-0.374316 -0.369774,-0.666265 h -0.03729 c -0.269305,0.30029 -0.558285,0.529675 -0.86695,0.688161 -0.308662,0.158485 -0.680504,0.237727 -1.115535,0.237727 -0.459889,0 -0.837946,-0.141802 -1.134181,-0.425409 -0.296235,-0.283608 -0.44435,-0.654794 -0.44435,-1.113571 0,-0.23773 0.03315,-0.450432 0.09943,-0.638113 0.06629,-0.187682 0.165724,-0.356593 0.298305,-0.506738 0.103579,-0.12512 0.240301,-0.236685 0.41017,-0.334696 0.169869,-0.09801 0.329377,-0.176211 0.478531,-0.234601 0.186441,-0.0709 0.564498,-0.202277 1.134181,-0.394129 0.569683,-0.191852 0.953954,-0.341995 1.152825,-0.450433 v -0.619346 c 0,-0.05422 -0.01139,-0.158485 -0.03418,-0.312801 -0.02279,-0.154316 -0.07147,-0.300288 -0.146045,-0.437921 -0.08286,-0.154316 -0.199905,-0.288819 -0.35113,-0.403513 -0.151225,-0.114694 -0.36563,-0.17204 -0.643221,-0.17204 -0.190584,0 -0.367701,0.03232 -0.531356,0.09697 -0.163654,0.06465 -0.278625,0.132418 -0.344915,0.20332 0,0.08341 0.01968,0.206448 0.05904,0.369105 0.03936,0.162657 0.05904,0.3128 0.05904,0.450434 0,0.145974 -0.06525,0.279435 -0.195763,0.400385 -0.130509,0.12095 -0.311769,0.181424 -0.543785,0.181424 -0.207157,0 -0.359416,-0.07403 -0.45678,-0.222088 -0.09736,-0.14806 -0.146045,-0.313843 -0.146045,-0.497354 0,-0.191852 0.06733,-0.37536 0.201977,-0.550529 0.134656,-0.175169 0.309701,-0.331568 0.525145,-0.469201 0.186441,-0.11678 0.41224,-0.215832 0.677401,-0.297161 0.265162,-0.08133 0.524104,-0.121992 0.776836,-0.121992 0.348025,0 0.651506,0.02398 0.910453,0.07194 0.258946,0.04796 0.494066,0.151186 0.705367,0.309672 0.211301,0.154316 0.371845,0.363891 0.481639,0.62873 0.109793,0.264839 0.164689,0.605789 0.164689,1.022859 0,0.59641 -0.0062,1.125038 -0.01864,1.5859 -0.01243,0.460862 -0.01864,0.964466 -0.01864,1.510828 0,0.162657 0.02797,0.291946 0.0839,0.387873 0.05593,0.09593 0.141902,0.177253 0.25791,0.243984 0.06215,0.03754 0.160545,0.05839 0.295197,0.06256 0.134653,0.0042 0.27241,0.0063 0.413277,0.0063 z m -2.168927,-3.279579 c -0.352167,0.103578 -0.660827,0.205084 -0.925989,0.304519 -0.265161,0.09944 -0.511675,0.223729 -0.739548,0.372882 -0.207157,0.140867 -0.370809,0.307626 -0.49096,0.500283 -0.120152,0.192656 -0.180226,0.421561 -0.180226,0.686723 0,0.343881 0.09011,0.596609 0.270339,0.758192 0.180227,0.161583 0.409132,0.242373 0.686723,0.242373 0.294163,0 0.553106,-0.07147 0.776836,-0.214407 0.22373,-0.142938 0.412241,-0.311769 0.565537,-0.506497 z"
         inkscape:connector-curvature="0"
         style="fill:#ffffff;fill-rule:evenodd;stroke:none;stroke-width:1" />
      <path
         id="path14363-7"
         d="m 81.245698,14.141481 c -1,0 -1,-1.018667 -1,-1.018667 V 7.1228136 l 7,7.0186674 z"
         inkscape:connector-curvature="0"
         style="fill:#f7d760;fill-rule:evenodd;stroke:none;stroke-width:1" />
      <path
         id="rect11806-5"
         d="m 64.245698,17.122774 c 0,-0.552263 0.447469,-0.99996 1.000695,-0.99996 h 21.99861 c 0.552669,0 1.000695,0.454709 1.000695,0.99996 v 15.00008 c 0,0.552263 -0.447469,0.99996 -1.000695,0.99996 h -21.99861 c -0.552669,0 -1.000695,-0.454709 -1.000695,-0.99996 z"
         inkscape:connector-curvature="0"
         style="fill:#d0dfed;fill-rule:evenodd;stroke:none;stroke-width:1" />
      <g
         transform="translate(68.945698,24.122814)"
         id="Page-1-3"
         style="fill:#10acff;fill-rule:evenodd;stroke:none;stroke-width:1">
        <path
           id="Fill-1-5"
           d="m 5.0937364,1.8618047 c -0.058091,0 -1.6379091,9.3e-5 -1.6379091,9.3e-5 0,0 3.636e-4,-0.2408372 3.636e-4,-0.2775814 0,-0.094512 0.087727,-0.1871628 0.1829091,-0.1875349 0.088273,-2.791e-4 1.275,0 1.3664545,0 0.082364,0 0.178,0.094512 0.1775455,0.1860465 -3.636e-4,0.072558 -0.00145,0.1169302 -0.00145,0.1860465 0,0 0,0.09293 -0.087909,0.09293 m 0.4515454,1.3010232 c 0.093818,0 0.094364,-0.08586 0.094364,-0.094512 -1.818e-4,-0.032279 -6.363e-4,-0.2436279 -6.363e-4,-0.2761861 0,-0.093023 -0.092273,-0.094419 -0.092273,-0.094419 0,0 -1.795,-0.00149 -1.9105455,-0.00149 -0.1831818,0 -0.1803636,-0.1813954 -0.1803636,-0.1813954 -0.00236,-0.011814 9.09e-5,-0.1892093 0,-0.1892093 h 1.8189091 c 0.505,0 0.4538181,-0.372093 0.4538181,-0.372093 V 1.5847814 c 0,0 0.049273,-0.65451163 -0.634909,-0.65451163 H 3.5612818 c -0.6963636,0 -0.6491818,0.64576743 -0.6491818,0.64576743 0,0.3497674 1.818e-4,0.4747907 1.818e-4,0.9348837 0,0.651907 0.6372728,0.6489303 0.6372728,0.6489303 z"
           inkscape:connector-curvature="0" />
        <path
           id="Fill-3-6"
           d="m 2.1816909,2.6069302 c 0,0 0.00145,0.090698 -0.090909,0.090698 -0.099091,0 -0.583,0.00121 -0.8803636,2.791e-4 C 0.91305455,2.6969767 0.54832727,2.630186 0.54814545,2.0537209 0.54796364,1.4773488 0.95323636,1.3974419 1.2061454,1.3974419 c 0.2528182,0 0.975091,0.00102 0.975091,0.00102 0,0 4.545e-4,1.1258605 4.545e-4,1.2084651 m 0.455,-2.51395346 c -0.039,1.8605e-4 -0.3235454,1.8605e-4 -0.3624545,0 0,0 -0.091,0 -0.091,0.096 0,0.007628 -4.546e-4,0.74120931 -4.546e-4,0.74120931 -0.3826364,-9.303e-5 -0.7790909,1.8604e-4 -1.1773636,0 C 0.14987273,0.92990698 -7.6363636e-4,1.6880465 -3.6363636e-5,2.0478605 8.7272727e-4,2.4074884 0.15378182,3.1612558 1.0188727,3.1604186 1.8840545,3.1595814 1.9083273,3.1615386 2.2745091,3.1615386 2.7280546,3.1615386 2.7286,2.69912 2.7286,2.69912 V 0.186 c 0,-0.09302326 -0.091909,-0.09302326 -0.091909,-0.09302326"
           inkscape:connector-curvature="0" />
        <path
           id="Fill-6-2"
           d="m 12.274018,0.65116279 h -0.363636 c -0.05018,0 -0.09091,-0.0416744 -0.09091,-0.0930233 V 0.18604651 c 0,-0.0513488 0.04073,-0.09302325 0.09091,-0.09302325 h 0.363636 c 0.05018,0 0.09091,0.04167441 0.09091,0.09302325 v 0.37209302 c 0,0.0513488 -0.04073,0.0930233 -0.09091,0.0930233"
           inkscape:connector-curvature="0" />
        <path
           id="Fill-9-9"
           d="m 12.274018,3.1627907 h -0.363636 c -0.05018,0 -0.09091,-0.041674 -0.09091,-0.093023 V 1.0232558 c 0,-0.0513488 0.04073,-0.0930232 0.09091,-0.0930232 h 0.363636 c 0.05018,0 0.09091,0.0416744 0.09091,0.0930232 v 2.0465116 c 0,0.051349 -0.04073,0.093023 -0.09091,0.093023"
           inkscape:connector-curvature="0" />
        <path
           id="Fill-11-1"
           d="M 14.0013,0.93084651 C 13.333482,0.92991628 12.546755,0.93066046 12.546755,0.93066046 V 3.0683349 c 0,0.04214 0.02636,0.1043721 0.108818,0.093581 0.08891,-2.791e-4 0.228636,-8.372e-4 0.317545,-0.00112 0.125273,0.018326 0.121637,-0.093954 0.121637,-0.093954 L 13.092027,1.3968 c 0,0 0.665182,-6.512e-4 0.908546,-6.512e-4 0.01518,0 0.367182,0.00698 0.367182,0.4642791 l -0.0026,1.2094884 c -9.1e-5,0.051442 0.04064,0.093209 0.091,0.093209 l 0.363455,-2.791e-4 c 0.05018,0 0.09082,-0.041674 0.09082,-0.093023 V 1.8181954 c 0,-0.515628 -0.241273,-0.88641866 -0.909091,-0.88734889"
           inkscape:connector-curvature="0" />
        <path
           id="Fill-16-2"
           d="m 9.4559636,1.4848093 c 0,0 -0.00145,-0.090698 0.090909,-0.090698 0.099091,0 0.5830004,-0.00121 0.8803634,-2.79e-4 0.297364,9.302e-4 0.662091,0.067721 0.662273,0.644186 1.82e-4,0.5763721 -0.405091,0.6562791 -0.658,0.6562791 -0.252909,0 -0.9750909,-0.00102 -0.9750909,-0.00102 0,0 -4.546e-4,-1.1258605 -4.546e-4,-1.2084651 M 9.0016,3.9987628 c 0.039,-1.861e-4 0.3231818,-1.861e-4 0.3620909,0 0,0 0.090909,0 0.090909,-0.096 0,-0.00763 2.727e-4,-0.7412093 2.727e-4,-0.7412093 0.3827273,9.3e-5 0.7790914,-1.861e-4 1.1774544,0 0.855455,2.791e-4 1.006091,-0.7578605 1.005364,-1.1176744 -9.09e-4,-0.3596279 -0.153818,-1.11339538 -1.018909,-1.11255817 -0.8651821,8.3721e-4 -0.8887275,-0.001116 -1.2550003,-0.001116 -0.4535454,0 -0.4533636,0.46241867 -0.4533636,0.46241867 v 2.5131162 c 0,0.093023 0.091182,0.093023 0.091182,0.093023"
           inkscape:connector-curvature="0" />
        <path
           id="Fill-21-7"
           d="m 8.0937364,1.8618047 c -0.058091,0 -1.6379091,9.3e-5 -1.6379091,9.3e-5 0,0 3.636e-4,-0.2408372 3.636e-4,-0.2775814 0,-0.094512 0.087727,-0.1871628 0.1829091,-0.1875349 0.088273,-2.791e-4 1.275,0 1.3664545,0 0.082364,0 0.1780001,0.094512 0.1775455,0.1860465 -3.636e-4,0.072558 -0.00136,0.1169302 -0.00136,0.1860465 0,0 0,0.09293 -0.088,0.09293 m 0.4515454,1.3010232 c 0.093818,0 0.094364,-0.08586 0.094364,-0.094512 -1.819e-4,-0.032279 -6.364e-4,-0.2436279 -6.364e-4,-0.2761861 0,-0.093023 -0.092273,-0.094419 -0.092273,-0.094419 0,0 -1.795,-0.00149 -1.9105455,-0.00149 -0.1831818,0 -0.1803636,-0.1813954 -0.1803636,-0.1813954 -0.00236,-0.011814 9.09e-5,-0.1892093 0,-0.1892093 H 8.27474 c 0.505,0 0.4538182,-0.372093 0.4538182,-0.372093 V 1.5847814 c 0,0 0.049273,-0.65451163 -0.6349091,-0.65451163 H 6.5612818 c -0.6963636,0 -0.6491818,0.64576743 -0.6491818,0.64576743 0,0.3497674 1.818e-4,0.4747907 1.818e-4,0.9348837 0,0.651907 0.6372727,0.6489303 0.6372727,0.6489303 z"
           inkscape:connector-curvature="0" />
      </g>
      <path
         id="polygon11815-0"
         d="m 90.651065,21.501611 c 0.131057,0.343081 -0.05309,0.621203 -0.430649,0.621203 h -28.00477 c -0.368897,0 -0.560109,-0.283078 -0.431299,-0.621203 l 2.193369,-5.757594 c 0.130697,-0.343081 0.540097,-0.621203 0.903595,-0.621203 h 22.666107 c 0.368345,0 0.775082,0.283078 0.904246,0.621203 z"
         inkscape:connector-curvature="0"
         style="fill:#ccdcea;fill-rule:evenodd;stroke:none;stroke-width:1" />
      <polygon
         points="4.9686667,11 26.968667,11 29,17 3,17 "
         id="polygon860"
         style="fill:#ffffff;fill-rule:evenodd;stroke:none;stroke-width:1"
         transform="translate(60.245698,4.1228136)" />
    </g>
  </g>
</svg>
