<?xml version="1.0" encoding="UTF-8" standalone="no"?>
<svg
   xmlns:dc="http://purl.org/dc/elements/1.1/"
   xmlns:cc="http://creativecommons.org/ns#"
   xmlns:rdf="http://www.w3.org/1999/02/22-rdf-syntax-ns#"
   xmlns:svg="http://www.w3.org/2000/svg"
   xmlns="http://www.w3.org/2000/svg"
   xmlns:xlink="http://www.w3.org/1999/xlink"
   xmlns:sodipodi="http://sodipodi.sourceforge.net/DTD/sodipodi-0.dtd"
   xmlns:inkscape="http://www.inkscape.org/namespaces/inkscape"
   viewBox="0 0 48 48"
   version="1.1"
   id="svg73"
   sodipodi:docname="deepin-system-monitor.svg"
   inkscape:version="0.92.2pre0 (973e216, 2017-07-25)">
  <metadata
     id="metadata77">
    <rdf:RDF>
      <cc:Work
         rdf:about="">
        <dc:format>image/svg+xml</dc:format>
        <dc:type
           rdf:resource="http://purl.org/dc/dcmitype/StillImage" />
      </cc:Work>
    </rdf:RDF>
  </metadata>
  <sodipodi:namedview
     pagecolor="#ffffff"
     bordercolor="#666666"
     borderopacity="1"
     objecttolerance="10"
     gridtolerance="10"
     guidetolerance="10"
     inkscape:pageopacity="0"
     inkscape:pageshadow="2"
     inkscape:window-width="1360"
     inkscape:window-height="691"
     id="namedview75"
     showgrid="false"
     inkscape:zoom="6.9532167"
     inkscape:cx="10.420068"
     inkscape:cy="26.623927"
     inkscape:window-x="0"
     inkscape:window-y="0"
     inkscape:window-maximized="1"
     inkscape:current-layer="svg73" />
  <defs
     id="defs17">
    <linearGradient
       id="linearGradient3764"
       y1="47"
       x2="0"
       y2="1"
       gradientUnits="userSpaceOnUse">
      <stop
         stop-color="#23bd88"
         stop-opacity="1"
         id="stop2" />
      <stop
         offset="1"
         stop-color="#26cd93"
         stop-opacity="1"
         id="stop4" />
    </linearGradient>
    <clipPath
       id="clipPath-496265931">
      <g
         transform="translate(0,-1004.3622)"
         id="g9">
        <path
           d="m -24 13 c 0 1.105 -0.672 2 -1.5 2 -0.828 0 -1.5 -0.895 -1.5 -2 0 -1.105 0.672 -2 1.5 -2 0.828 0 1.5 0.895 1.5 2 z"
           transform="matrix(15.333333,0,0,11.5,414.99999,878.8622)"
           fill="#1890d0"
           id="path7" />
      </g>
    </clipPath>
    <clipPath
       id="clipPath-505734700">
      <g
         transform="translate(0,-1004.3622)"
         id="g14">
        <path
           d="m -24 13 c 0 1.105 -0.672 2 -1.5 2 -0.828 0 -1.5 -0.895 -1.5 -2 0 -1.105 0.672 -2 1.5 -2 0.828 0 1.5 0.895 1.5 2 z"
           transform="matrix(15.333333,0,0,11.5,414.99999,878.8622)"
           fill="#1890d0"
           id="path12" />
      </g>
    </clipPath>
    <linearGradient
       inkscape:collect="always"
       xlink:href="#linearGradient-2"
       id="linearGradient137"
       gradientUnits="userSpaceOnUse"
       x1="23"
       y1="5.5"
       x2="23"
       y2="38.5"
       gradientTransform="translate(-78.118642,-6.9491509)" />
    <linearGradient
       x1="23"
       y1="5.5"
       x2="23"
       y2="38.5"
       id="linearGradient-2"
       gradientUnits="userSpaceOnUse">
      <stop
         stop-color="#1E007E"
         offset="0%"
         id="stop11" />
      <stop
         stop-color="#3721B2"
         offset="100%"
         id="stop13" />
    </linearGradient>
    <linearGradient
       inkscape:collect="always"
       xlink:href="#linearGradient-1"
       id="linearGradient135"
       gradientUnits="userSpaceOnUse"
       x1="25.7234"
       y1="43"
       x2="18.28051"
       y2="1"
       gradientTransform="translate(-78.118642,-6.9491509)" />
    <linearGradient
       x1="25.7234"
       y1="43"
       x2="18.28051"
       y2="1"
       id="linearGradient-1"
       gradientUnits="userSpaceOnUse">
      <stop
         stop-color="#5F3EFF"
         offset="0%"
         id="stop6" />
      <stop
         stop-color="#6E62FF"
         offset="100%"
         id="stop8" />
    </linearGradient>
  </defs>
  <g
     id="g31" />
  <g
     id="g158"
     transform="matrix(1.0208468,0,0,1.0216009,-0.55328999,-0.51189519)">
    <g
       transform="matrix(1.1016949,0,0,1.1016949,84.825624,7.5202529)"
       id="g141">
      <circle
         id="Oval-3"
         cx="-55.118645"
         cy="15.050847"
         r="21"
         style="fill:url(#linearGradient135);fill-rule:evenodd;stroke:none;stroke-width:1" />
      <circle
         id="Oval"
         cx="-55.118645"
         cy="15.050847"
         r="16.5"
         style="fill:url(#linearGradient137);fill-rule:evenodd;stroke:none;stroke-width:1" />
      <path
         d="m -71.118644,10.550848 h 31.5"
         id="Path-6"
         inkscape:connector-curvature="0"
         style="opacity:0.1;fill:none;fill-rule:evenodd;stroke:#ffffff;stroke-width:1" />
      <path
         d="m -65.118644,1.5508491 h 19.5"
         id="path22"
         inkscape:connector-curvature="0"
         style="opacity:0.1;fill:none;fill-rule:evenodd;stroke:#ffffff;stroke-width:1" />
      <path
         d="m -71.118644,19.550848 h 31.5"
         id="path24"
         inkscape:connector-curvature="0"
         style="opacity:0.1;fill:none;fill-rule:evenodd;stroke:#ffffff;stroke-width:1" />
      <path
         d="M -50.618644,31.050848 V -0.94915093"
         id="path26"
         inkscape:connector-curvature="0"
         style="opacity:0.1;fill:none;fill-rule:evenodd;stroke:#ffffff;stroke-width:1" />
      <path
         d="M -41.618644,24.050848 V 6.0508481"
         id="path28"
         inkscape:connector-curvature="0"
         style="opacity:0.1;fill:none;fill-rule:evenodd;stroke:#ffffff;stroke-width:1" />
      <path
         d="M -59.618644,31.050848 V -1.9491509"
         id="path30"
         inkscape:connector-curvature="0"
         style="opacity:0.1;fill:none;fill-rule:evenodd;stroke:#ffffff;stroke-width:1" />
      <path
         d="M -68.618644,24.050848 V 6.0508481"
         id="path32"
         inkscape:connector-curvature="0"
         style="opacity:0.1;fill:none;fill-rule:evenodd;stroke:#ffffff;stroke-width:1" />
      <path
         d="m -44.182896,28.714001 c 4.001777,-3.207105 6.564252,-8.13588 6.564252,-13.663153 0,-9.6649829 -7.835017,-17.4999989 -17.5,-17.4999989 -9.664983,0 -17.5,7.835016 -17.5,17.4999989 0,5.416008 2.460347,10.257371 6.324342,13.467391"
         id="Oval-2"
         inkscape:connector-curvature="0"
         style="opacity:0.5;fill:none;fill-rule:evenodd;stroke:#ffffff;stroke-width:2;stroke-linecap:round" />
      <path
         d="m -55.118644,-2.4491509 c -9.664983,0 -17.5,7.835016 -17.5,17.4999989 0,5.416008 2.460347,10.257371 6.324342,13.467391"
         id="path35"
         inkscape:connector-curvature="0"
         style="fill:none;fill-rule:evenodd;stroke:#ffffff;stroke-width:2;stroke-linecap:round;stroke-linejoin:round" />
      <path
         d="m -68.618644,17.550848 c 0,0 1,2 3,2 4.5,0 3,-10.9999999 7.5,-10.9999999 4.5,0 2,10.9999999 6.5,10.9999999 3,0 1.5,-5 4,-5 2.5,0 0.5,5.5 6,5"
         id="Path-5"
         inkscape:connector-curvature="0"
         style="fill:none;fill-rule:evenodd;stroke:#ffffff;stroke-width:1.5;stroke-linecap:round;stroke-linejoin:round" />
      <rect
         id="Rectangle-2"
         x="-64.118645"
         y="24.050848"
         width="18"
         height="9"
         rx="4.5"
         style="fill:#6040ff;fill-rule:evenodd;stroke:none;stroke-width:1" />
      <path
         d="m -59.024644,30.682848 c 0.582,0 1.08,-0.222 1.458,-0.66 l -0.564,-0.672 c -0.21,0.228 -0.498,0.408 -0.852,0.408 -0.63,0 -1.038,-0.516 -1.038,-1.404 0,-0.87 0.474,-1.386 1.05,-1.386 0.318,0 0.552,0.144 0.774,0.348 l 0.564,-0.684 c -0.306,-0.312 -0.774,-0.582 -1.356,-0.582 -1.134,0 -2.13,0.852 -2.13,2.34 0,1.512 0.96,2.292 2.094,2.292 z m 2.112,-0.084 v -4.464 h 1.566 c 0.984,0 1.794,0.348 1.794,1.452 0,1.062 -0.822,1.53 -1.764,1.53 h -0.522 v 1.482 z m 1.074,-2.328 h 0.468 c 0.522,0 0.774,-0.246 0.774,-0.684 0,-0.45 -0.288,-0.606 -0.804,-0.606 h -0.438 z m 4.836,2.412 c 1.188,0 1.788,-0.678 1.788,-2.184 v -2.364 h -1.032 v 2.478 c 0,0.846 -0.27,1.146 -0.756,1.146 -0.492,0 -0.744,-0.3 -0.744,-1.146 v -2.478 h -1.068 v 2.364 c 0,1.506 0.618,2.184 1.812,2.184 z"
         id="CPU"
         inkscape:connector-curvature="0"
         style="fill:#ffffff;fill-rule:evenodd;stroke:none;stroke-width:1" />
    </g>
  </g>
</svg>
