<?xml version="1.0" encoding="UTF-8" standalone="no"?>
<!-- Generator: Adobe Illustrator 18.0.0, SVG Export Plug-In . SVG Version: 6.00 Build 0)  -->

<svg
   xmlns:dc="http://purl.org/dc/elements/1.1/"
   xmlns:cc="http://creativecommons.org/ns#"
   xmlns:rdf="http://www.w3.org/1999/02/22-rdf-syntax-ns#"
   xmlns:svg="http://www.w3.org/2000/svg"
   xmlns="http://www.w3.org/2000/svg"
   xmlns:sodipodi="http://sodipodi.sourceforge.net/DTD/sodipodi-0.dtd"
   xmlns:inkscape="http://www.inkscape.org/namespaces/inkscape"
   version="1.1"
   id="图层_1"
   x="0px"
   y="0px"
   viewBox="0 0 48 48"
   style="enable-background:new 0 0 48 48;"
   xml:space="preserve"
   sodipodi:docname="Deepin camera.svg"
   inkscape:version="0.92.2pre0 (973e216, 2017-07-25)"><metadata
     id="metadata39"><rdf:RDF><cc:Work
         rdf:about=""><dc:format>image/svg+xml</dc:format><dc:type
           rdf:resource="http://purl.org/dc/dcmitype/StillImage" /><dc:title /></cc:Work></rdf:RDF></metadata><defs
     id="defs37"><linearGradient
       gradientUnits="userSpaceOnUse"
       id="SVGID_2_"
       x1="42.666668"
       x2="469.33334"
       y1="256.00052"
       y2="256.00052"
       gradientTransform="matrix(-0.04488234,-0.09936931,0.09958671,-0.04478435,9.9584617,61.012292)"><stop
         offset="0"
         style="stop-color:#0095DA"
         id="stop9" /><stop
         offset="1"
         style="stop-color:#00AEEE"
         id="stop11-3" /></linearGradient><linearGradient
       gradientTransform="rotate(-90,23.999998,24)"
       gradientUnits="userSpaceOnUse"
       x2="47"
       x1="1"
       id="linearGradient3764"><stop
         id="stop2"
         stop-opacity="1"
         stop-color="#5e6670" /><stop
         id="stop4"
         stop-opacity="1"
         stop-color="#67707b"
         offset="1" /></linearGradient><clipPath
       id="clipPath-561578208"><g
         id="g9"
         transform="translate(0,-1004.3622)"><path
           id="path7"
           fill="#1890d0"
           transform="matrix(15.333333,0,0,11.5,414.99999,878.8622)"
           d="m -24 13 c 0 1.105 -0.672 2 -1.5 2 -0.828 0 -1.5 -0.895 -1.5 -2 0 -1.105 0.672 -2 1.5 -2 0.828 0 1.5 0.895 1.5 2 z" /></g></clipPath><clipPath
       id="clipPath-572739784"><g
         id="g14"
         transform="translate(0,-1004.3622)"><path
           id="path12"
           fill="#1890d0"
           transform="matrix(15.333333,0,0,11.5,414.99999,878.8622)"
           d="m -24 13 c 0 1.105 -0.672 2 -1.5 2 -0.828 0 -1.5 -0.895 -1.5 -2 0 -1.105 0.672 -2 1.5 -2 0.828 0 1.5 0.895 1.5 2 z" /></g></clipPath><linearGradient
       gradientUnits="userSpaceOnUse"
       gradientTransform="matrix(0.31423376,0,0,0.17763144,7.7990471,-7.9630189)"
       id="linearGradient-3"
       y2="255.83865"
       x2="18.330301"
       y1="252.17261"
       x1="18.330301"><stop
         id="stop18"
         offset="0%"
         stop-color="#FFFFFF" /><stop
         id="stop20"
         offset="100%"
         stop-opacity="0"
         stop-color="#FFFFFF" /></linearGradient></defs><sodipodi:namedview
     pagecolor="#ffffff"
     bordercolor="#666666"
     borderopacity="1"
     objecttolerance="10"
     gridtolerance="10"
     guidetolerance="10"
     inkscape:pageopacity="0"
     inkscape:pageshadow="2"
     inkscape:window-width="1360"
     inkscape:window-height="691"
     id="namedview35"
     showgrid="false"
     inkscape:zoom="9.8333333"
     inkscape:cx="19.70339"
     inkscape:cy="25.221205"
     inkscape:window-x="0"
     inkscape:window-y="0"
     inkscape:window-maximized="1"
     inkscape:current-layer="图层_1" /><g
     style="display:none;opacity:0.5;"
     id="g4"><rect
       x="0.006"
       y="0.022"
       style="display:inline;"
       width="48"
       height="48"
       id="rect2" /></g><g
     id="g31"
     transform="matrix(0.93220101,0,0,0.92650889,1.7952597,1.6462452)" /><g
     id="g859"
     transform="matrix(1.0247084,0,0,1.0065442,-1.0598099,-0.51488526)"><path
       style="opacity:0;fill:#ffffff;fill-rule:evenodd;stroke-width:0.09388749"
       id="path25"
       d="m 24.061966,3.5296541 c -0.82458,0.013053 -1.63667,0.075931 -2.434604,0.1875871 l 22.82216,23.4993628 c 0.108438,-0.821229 0.169413,-1.658083 0.182181,-2.506847 L 24.062523,3.5302256 M 26.823832,3.6791333 44.49051,21.870038 C 44.354868,20.705739 44.125131,19.573072 43.811007,18.476035 L 30.117344,4.3760352 C 29.05368,4.0531643 27.952727,3.8191803 26.824017,3.6793237 m -7.390416,0.4733978 c -0.68126,0.1761548 -1.34892,0.3889887 -2.000848,0.6341191 L 43.411857,31.536824 c 0.238159,-0.671653 0.444766,-1.358743 0.615844,-2.060217 L 19.433691,4.1528169 M 15.591048,5.5847291 C 15.009898,5.873398 14.445312,6.1919818 13.896642,6.5344783 L 41.715138,35.178437 c 0.332627,-0.564954 0.64203,-1.146101 0.922379,-1.744684 L 15.591602,5.5853006 m 19.190562,0.8991608 6.98562,7.1929056 C 40.050895,10.727322 37.646825,8.2527729 34.782164,6.4844614 M 12.333806,7.6187491 c -0.49871,0.3807001 -0.980763,0.7835028 -1.442833,1.2087892 L 39.489454,38.274625 c 0.412939,-0.475782 0.804225,-0.972139 1.173955,-1.485643 L 12.33325,7.6181777 M 9.569072,10.16075 C 9.1467889,10.626812 8.7460641,11.112119 8.3662499,11.616575 L 36.779682,40.873121 c 0.489455,-0.390702 0.96161,-0.804177 1.413871,-1.238512 L 9.5691649,10.160846 M 7.284913,13.197586 C 6.9423865,13.751581 6.6252115,14.324536 6.3336658,14.91245 L 33.579436,42.966687 c 0.570969,-0.3002 1.127412,-0.626786 1.665445,-0.979475 L 7.2848205,13.19749 m -1.7635219,3.572635 c -0.2503722,0.657366 -0.4707661,1.330641 -0.6563708,2.018778 l 24.9502282,25.69058 c 0.668123,-0.191494 1.321994,-0.417951 1.960601,-0.675848 L 5.5218535,16.770697 m -1.124731,4.230951 c -0.126574,0.798939 -0.2128996,1.611689 -0.2487066,2.438348 L 25.295877,45.214968 c 0.803856,-0.03668 1.59411,-0.122611 2.370946,-0.253039 L 4.3968449,21.001458 m -0.1908786,5.192231 c 0.092247,1.103992 0.2677667,2.182166 0.5204519,3.230234 L 19.486894,44.622386 c 1.017772,0.260184 2.065061,0.440912 3.137145,0.535896 L 4.2060588,26.193783 m 2.0503489,7.499676 c 1.9615252,4.042318 5.1591803,7.334381 9.0850073,9.354587 L 6.2564077,33.693459"
       inkscape:connector-curvature="0" /><path
       inkscape:connector-curvature="0"
       d="m 1.7346578,24.289242 c 0,12.873484 10.1349132,23.309633 22.6368162,23.309633 12.501901,0 22.636819,-10.436149 22.636819,-23.309633 0,-12.873491 -10.134918,-23.30964103 -22.636819,-23.30964103 -12.501903,0 -22.6368162,10.43615003 -22.6368162,23.30964103"
       id="path903"
       style="fill:#e6e6e6;fill-opacity:1;fill-rule:evenodd;stroke-width:0.10493247" /><path
       style="fill:#999999;fill-opacity:1;fill-rule:evenodd;stroke-width:0.09391765"
       id="path913"
       d="M 43.941732,29.691121 C 46.836631,18.561578 40.421478,7.1206698 29.613181,4.1373056 18.804885,1.1539416 7.6961151,7.7578041 4.8012203,18.887347 1.9063156,30.016893 8.32147,41.457808 19.12977,44.441173 29.938068,47.424535 41.046835,40.820668 43.941732,29.691121"
       inkscape:connector-curvature="0" /><g
       id="g857"
       transform="matrix(1.3322339,0,0,1.3846818,-7.4150754,-9.4758006)"><g
         id="g8"
         transform="matrix(0.68697267,0,0,0.68169452,7.4183243,7.9736663)"><g
           id="g6"><circle
             cx="24"
             cy="24"
             r="21"
             id="circle4"
             style="fill:#2e3133" /></g></g><ellipse
         cx="23.905668"
         cy="24.334335"
         id="circle10"
         style="fill:#00040c;stroke-width:0.6843285"
         rx="11.678535"
         ry="11.588807" /><ellipse
         cx="23.905668"
         cy="24.334335"
         id="circle12"
         style="fill:#35c8e2;fill-opacity:1;stroke-width:0.6843285"
         rx="10.304589"
         ry="10.225418" /><ellipse
         cx="23.905668"
         cy="24.334335"
         id="circle14"
         style="fill:#00abdd;fill-opacity:1;stroke-width:0.6843285"
         rx="9.0165167"
         ry="8.9472408" /><ellipse
         cx="23.905668"
         cy="24.334335"
         id="circle16"
         style="fill:#128ed0;fill-opacity:1;stroke-width:0.6843285"
         rx="6.182754"
         ry="6.135251" /><ellipse
         cx="23.905668"
         cy="24.334335"
         id="circle18"
         style="fill:#005fff;fill-opacity:1;stroke-width:0.6843285"
         rx="4.1218362"
         ry="4.090167" /><ellipse
         cx="23.905668"
         cy="24.334335"
         id="circle20"
         style="fill:#052314;stroke-width:0.6843285"
         rx="2.5761473"
         ry="2.5563545" /><ellipse
         enable-background="new    "
         cx="19.676664"
         cy="18.8167"
         id="circle22"
         style="opacity:0.6;fill:#fffce4;fill-opacity:0.68159204;stroke-width:0.6843285"
         rx="2.7478905"
         ry="2.7267783" /><ellipse
         enable-background="new    "
         cx="23.261288"
         cy="23.140688"
         id="circle24"
         style="opacity:0.8;fill:#ffffff;stroke-width:0.6843285"
         rx="0.75086117"
         ry="0.74509215" /></g></g></svg>