<?xml version="1.0" encoding="UTF-8" standalone="no"?>
<svg
   xmlns:dc="http://purl.org/dc/elements/1.1/"
   xmlns:cc="http://creativecommons.org/ns#"
   xmlns:rdf="http://www.w3.org/1999/02/22-rdf-syntax-ns#"
   xmlns:svg="http://www.w3.org/2000/svg"
   xmlns="http://www.w3.org/2000/svg"
   xmlns:sodipodi="http://sodipodi.sourceforge.net/DTD/sodipodi-0.dtd"
   xmlns:inkscape="http://www.inkscape.org/namespaces/inkscape"
   viewBox="0 0 48 48"
   version="1.1"
   id="svg69"
   sodipodi:docname="deepin.com.foxmail.svg"
   inkscape:version="0.92.2pre0 (973e216, 2017-07-25)">
  <metadata
     id="metadata73">
    <rdf:RDF>
      <cc:Work
         rdf:about="">
        <dc:format>image/svg+xml</dc:format>
        <dc:type
           rdf:resource="http://purl.org/dc/dcmitype/StillImage" />
      </cc:Work>
    </rdf:RDF>
  </metadata>
  <sodipodi:namedview
     pagecolor="#ffffff"
     bordercolor="#666666"
     borderopacity="1"
     objecttolerance="10"
     gridtolerance="10"
     guidetolerance="10"
     inkscape:pageopacity="0"
     inkscape:pageshadow="2"
     inkscape:window-width="1360"
     inkscape:window-height="658"
     id="namedview71"
     showgrid="false"
     inkscape:zoom="4.9166667"
     inkscape:cx="24"
     inkscape:cy="24"
     inkscape:window-x="0"
     inkscape:window-y="28"
     inkscape:window-maximized="1"
     inkscape:current-layer="g54" />
  <defs
     id="defs17">
    <linearGradient
       id="linearGradient3764"
       x1="1"
       x2="47"
       gradientUnits="userSpaceOnUse"
       gradientTransform="matrix(0,-1,1,0,-1.5e-6,47.999998)">
      <stop
         stop-color="#e4e4e4"
         stop-opacity="1"
         id="stop2" />
      <stop
         offset="1"
         stop-color="#eee"
         stop-opacity="1"
         id="stop4" />
    </linearGradient>
    <clipPath
       id="clipPath-505380455">
      <g
         transform="translate(0,-1004.3622)"
         id="g9">
        <path
           d="m -24 13 c 0 1.105 -0.672 2 -1.5 2 -0.828 0 -1.5 -0.895 -1.5 -2 0 -1.105 0.672 -2 1.5 -2 0.828 0 1.5 0.895 1.5 2 z"
           transform="matrix(15.333333,0,0,11.5,414.99999,878.8622)"
           fill="#1890d0"
           id="path7" />
      </g>
    </clipPath>
    <clipPath
       id="clipPath-514880478">
      <g
         transform="translate(0,-1004.3622)"
         id="g14">
        <path
           d="m -24 13 c 0 1.105 -0.672 2 -1.5 2 -0.828 0 -1.5 -0.895 -1.5 -2 0 -1.105 0.672 -2 1.5 -2 0.828 0 1.5 0.895 1.5 2 z"
           transform="matrix(15.333333,0,0,11.5,414.99999,878.8622)"
           fill="#1890d0"
           id="path12" />
      </g>
    </clipPath>
    <path
       id="path-1"
       d="M4.28910015,2.01589848 C4.24567328,0.895372482 3.30249198,-5.68434189e-14 2.14533133,-5.68434189e-14 C0.960497551,-5.68434189e-14 0,0.938709641 0,2.09666667 C0,3.25462369 0.960497551,4.19333333 2.14533133,4.19333333 C2.14578379,4.19333333 2.14623623,4.1933332 2.14668863,4.19333292 C3.28367897,4.47666639 3.97900967,4.75999986 4.23268072,5.04333333 C5.19904618,5.91222222 5.70155622,6.34666667 5.74021084,6.34666667 C5.76946965,6.34666667 6.11730529,6.54479289 6.37801205,6.29 C6.57128514,6.10111111 6.60993976,5.89333333 6.4939759,5.66666667 L5.21837349,4.25 C4.5998996,3.11666667 4.29066265,2.38 4.29066265,2.04 C4.29066265,2.03128333 4.29014182,2.02324949 4.28910015,2.01589848 Z" />
    <path
       id="path-2"
       d="M8.56162421,8.675724 C8.51819733,7.555198 7.57501603,6.65982552 6.41785538,6.65982552 C5.23302161,6.65982552 4.27252405,7.59853516 4.27252405,8.75649219 C4.27252405,9.91444921 5.23302161,10.8531589 6.41785538,10.8531589 C6.41830785,10.8531589 6.41876028,10.8531587 6.41921268,10.8531584 C7.55620302,11.1364919 8.25153372,11.4198254 8.50520478,11.7031589 C9.47157024,12.5720477 9.97408028,13.0064922 10.0127349,13.0064922 C10.0419937,13.0064922 10.3898293,13.2046184 10.6505361,12.9498255 C10.8438092,12.7609366 10.8824638,12.5531589 10.7665,12.3264922 L9.49089755,10.9098255 C8.87242365,9.77649219 8.5631867,9.03982552 8.5631867,8.69982552 C8.5631867,8.69110885 8.56266587,8.68307501 8.56162421,8.675724 Z" />
    <path
       id="path-3"
       d="M4.28910015,2.01589848 C4.24567328,0.895372482 3.30249198,0 2.14533133,0 C0.960497551,0 0,0.938709641 0,2.09666667 C0,3.25462369 0.960497551,4.19333333 2.14533133,4.19333333 C2.14578379,4.19333333 2.14623623,4.1933332 2.14668863,4.19333292 C3.28367897,4.47666639 3.97900967,4.75999986 4.23268072,5.04333333 C5.19904618,5.91222222 5.70155622,6.34666667 5.74021084,6.34666667 C5.76946965,6.34666667 6.11730529,6.54479289 6.37801205,6.29 C6.57128514,6.10111111 6.60993976,5.89333333 6.4939759,5.66666667 L5.21837349,4.25 C4.5998996,3.11666667 4.29066265,2.38 4.29066265,2.04 C4.29066265,2.03128333 4.29014182,2.02324949 4.28910015,2.01589848 Z" />
    <path
       id="path-4"
       d="M8.56162421,8.675724 C8.51819733,7.555198 7.57501603,6.65982552 6.41785538,6.65982552 C5.23302161,6.65982552 4.27252405,7.59853516 4.27252405,8.75649219 C4.27252405,9.91444921 5.23302161,10.8531589 6.41785538,10.8531589 C6.41830785,10.8531589 6.41876028,10.8531587 6.41921268,10.8531584 C7.55620302,11.1364919 8.25153372,11.4198254 8.50520478,11.7031589 C9.47157024,12.5720477 9.97408028,13.0064922 10.0127349,13.0064922 C10.0419937,13.0064922 10.3898293,13.2046184 10.6505361,12.9498255 C10.8438092,12.7609366 10.8824638,12.5531589 10.7665,12.3264922 L9.49089755,10.9098255 C8.87242365,9.77649219 8.5631867,9.03982552 8.5631867,8.69982552 C8.5631867,8.69110885 8.56266587,8.68307501 8.56162421,8.675724 Z" />
  </defs>
  <g
     id="g25">
    <path
       d="m 36.31 5 c 5.859 4.062 9.688 10.831 9.688 18.5 c 0 12.426 -10.07 22.5 -22.5 22.5 c -7.669 0 -14.438 -3.828 -18.5 -9.688 c 1.037 1.822 2.306 3.499 3.781 4.969 c 4.085 3.712 9.514 5.969 15.469 5.969 c 12.703 0 23 -10.298 23 -23 c 0 -5.954 -2.256 -11.384 -5.969 -15.469 c -1.469 -1.475 -3.147 -2.744 -4.969 -3.781 z m 4.969 3.781 c 3.854 4.113 6.219 9.637 6.219 15.719 c 0 12.703 -10.297 23 -23 23 c -6.081 0 -11.606 -2.364 -15.719 -6.219 c 4.16 4.144 9.883 6.719 16.219 6.719 c 12.703 0 23 -10.298 23 -23 c 0 -6.335 -2.575 -12.06 -6.719 -16.219 z"
       opacity="0.05"
       id="path19" />
    <path
       d="m 41.28 8.781 c 3.712 4.085 5.969 9.514 5.969 15.469 c 0 12.703 -10.297 23 -23 23 c -5.954 0 -11.384 -2.256 -15.469 -5.969 c 4.113 3.854 9.637 6.219 15.719 6.219 c 12.703 0 23 -10.298 23 -23 c 0 -6.081 -2.364 -11.606 -6.219 -15.719 z"
       opacity="0.1"
       id="path21" />
    <path
       d="m 31.25 2.375 c 8.615 3.154 14.75 11.417 14.75 21.13 c 0 12.426 -10.07 22.5 -22.5 22.5 c -9.708 0 -17.971 -6.135 -21.12 -14.75 a 23 23 0 0 0 44.875 -7 a 23 23 0 0 0 -16 -21.875 z"
       opacity="0.2"
       id="path23" />
  </g>
  <g
     id="g29">
    <path
       d="m 24 1 c 12.703 0 23 10.297 23 23 c 0 12.703 -10.297 23 -23 23 -12.703 0 -23 -10.297 -23 -23 0 -12.703 10.297 -23 23 -23 z"
       id="path27"
       fill-opacity="1"
       fill="url(#linearGradient3764)" />
  </g>
  <g
     id="g31" />
  <g
     id="g54"
     transform="matrix(0.66838614,0,0,0.70868645,7.4422277,7.2073556)"
     style="stroke-width:1.45297861">
    <path
       inkscape:connector-curvature="0"
       style="fill:#184a78;stroke-width:2.11114693"
       d="m 34.315717,41.680159 c 1.15673,-1.890479 1.40536,-3.913603 0.83897,-5.973394 -0.5664,-2.06087 -1.888,-3.937329 -3.42765,-5.639084 -0.64617,-0.713916 -1.33224,-1.40303 -2.05685,-2.064105 -1.40669,-1.285482 -2.99288,-2.508416 -3.80924,-4.094779 -0.9626,-1.867831 -0.68473,-4.122818 0.71532,-5.799768 0.92937,-1.114014 2.80407,-1.739499 4.68941,-2.028517 1.34154,-0.148823 2.72297,-0.06147 4.00867,0.287939 0.48796,0.132646 0.96261,0.299802 1.45855,0.414115 0.99851,0.229705 2.05152,0.235097 3.08992,0.238332 0.37228,0.0011 0.77116,-0.0032 1.07829,-0.173626 0.42546,-0.235097 0.52119,-0.781859 0.19146,-1.103229 -0.32973,-0.32137 -1.00915,-0.346174 -1.37212,-0.04961 -0.16885,0.138038 -0.27522,0.331076 -0.48397,0.427056 -0.13162,0.06039 -0.28851,0.07441 -0.44009,0.08088 -1.52236,0.06686 -3.00882,-0.403331 -4.33707,-1.009406 -1.09557,-0.500389 -2.15791,-1.107542 -3.39175,-1.302737 -1.05701,-0.167155 -2.13397,-0.09274 -3.1019,0.291175 -0.63155,0.250194 -1.11285,0.597447 -1.67526,1.130189 -0.36963,0.415193 -1.26044,1.153914 -1.87204,0.964112 -0.23268,-0.07226 -0.46004,-0.354802 0.0186,-1.051465 0.23932,-0.332154 0.54511,-0.749505 0.26059,-1.054699 -0.29117,-0.310586 -0.90145,-0.169313 -1.3083,0.0399 -0.59034,0.304116 -1.65532,1.10215 -1.91193,1.659695 -0.35367,0.766761 -0.22603,1.774009 0.65016,2.180576 0.27523,0.128332 0.59432,0.185489 0.86688,0.318134 0.27256,0.132648 0.60231,0.472351 0.23135,0.915583 -0.82832,0.989995 -1.18067,2.242046 -0.88816,3.414293 0.27656,1.106464 1.06499,2.083517 1.95182,2.953806 2.24699,2.206458 5.25448,3.968604 6.77286,6.551431 1.2139,2.065183 1.3216,4.53909 0.28985,6.6679 -1.03176,2.128811 -4.95401,4.428012 -4.95401,4.428012 1.60879,-1.378227 2.82801,-3.090765 3.24018,-4.958596 0.41217,-1.867833 -0.14625,-4.355759 -3.08328,-6.85986 -0.9081,-0.775388 -1.89465,-1.489305 -2.84131,-2.233419 -0.76849,-0.603918 -1.54098,-1.211071 -2.20178,-1.893714 -2.23767,-2.312142 -3.0394,-5.337124 -2.60197,-8.255341 -1.18333,1.090287 -1.90263,2.505181 -2.00767,3.955662 -0.10636,1.449402 0.41617,2.91606 1.41734,4.120661 1.0118,1.217542 2.64452,2.410279 3.1378,2.830865 1.84811,1.5745 3.78795,3.297823 4.15758,5.450359 0.11966,0.693427 0.0652,1.40303 -0.10504,2.089987 -0.37893,1.527049 -1.2046,2.701454 -2.66048,4.035466 0,0 0.37095,-2.030674 0.42413,-2.726258 0.17551,-2.27332 -0.0359,-4.83997 -4.48465,-7.642797 -2.13663,-1.345874 -3.94619,-3.106941 -4.81707,-5.185066 -0.87087,-2.077046 -0.68871,-4.506737 0.86025,-6.30555 0.24863,-0.289018 0.53182,-0.564016 0.69669,-0.8897 0.16488,-0.325684 0.19014,-0.724702 -0.0665,-1.009406 -0.29782,-0.329997 -1.01446,-0.706368 -2.29617,-0.19843 -6.4776999,2.947335 -10.8107799,8.310341 -10.8107799,14.440108 -8.9e-4,9.303571 9.9811199,16.846073 22.2969799,16.846073 5.07367,-1.886165 8.48934,-5.311242 9.66336,-7.22976 z"
       id="path31" />
    <g
       id="g43"
       transform="matrix(1.3295756,0,0,1.0784248,-6.7801309,0.38080367)"
       style="stroke-width:1.7630595">
      <path
         inkscape:connector-curvature="0"
         style="fill:#f30000;stroke-width:1.7630595"
         d="m 39.774,11.603 c -1.522,0.359 -3.109,-0.004 -4.657,-0.22 -1.549,-0.216 -3.228,-0.28 -4.567,0.527 2.208,-0.156 4.38,0.513 6.572,0.822 1.614,0.228 3.39,0.221 4.713,-0.733 0.503,-0.362 0.814,-0.797 1.323,-1.151 0.569,-0.395 1.124,-0.812 1.742,-0.77 -1.548,-0.405 -3.341,1.104 -5.126,1.525 z"
         id="path33" />
      <path
         inkscape:connector-curvature="0"
         style="fill:#f30000;stroke-width:1.7630595"
         d="m 18.568,11.237 c -0.253,-0.089 -0.528,-0.089 -0.796,-0.08 -1.737,0.056 -3.437,0.573 -5.175,0.593 -0.36,0.004 -0.723,-0.014 -1.071,-0.106 -1.419,-0.376 -3.87,-2.601 -4.006,-2.557 0.545,0.676 1.085,1.285 1.63,1.961 0.549,0.681 1.121,1.382 1.9,1.781 0.614,0.314 1.316,0.417 2.005,0.424 0.689,0.007 1.376,-0.077 2.065,-0.114 0.562,-0.031 1.151,-0.025 1.654,0.227 0.503,0.252 0.897,0.818 0.767,1.366 0.738,-0.586 1.066,-1.019 1.481,-1.619 0.244,-0.351 0.538,-1.529 -0.454,-1.876 z"
         id="path35" />
      <path
         inkscape:connector-curvature="0"
         style="fill:#f30000;stroke-width:1.7630595"
         d="m 14.852,4.698 c 0.43,0.464 0.961,0.828 1.517,1.13 1.612,0.874 3.709,1.151 4.859,0.941 C 22.039,6.621 23.491,6.003 24.165,5.48 23.363,4.657 22.17,4.233 21.029,4.366 20.574,4.419 20.134,4.555 19.685,4.645 19.193,4.745 18.69,4.791 18.187,4.784 17.185,4.77 16.157,4.527 15.362,3.916 14.758,3.453 14.294,2.695 14.462,1.952 14.527,1.664 14.666,1.315 14.453,1.112 14.347,1.011 14.187,0.992 14.041,0.999 c -0.378,0.018 -0.747,0.18 -1.016,0.446 0.244,0.818 0.666,1.511 1.107,2.242 0.215,0.356 0.439,0.708 0.72,1.011 z"
         id="path37" />
      <path
         inkscape:connector-curvature="0"
         style="fill:#f30000;stroke-width:1.7630595"
         d="M 31.938,9.664 C 33.718,9.084 36.05,9.253 36.995,9.125 39.476,8.788 39.776,7.247 39.778,6.657 39.78,6.067 38.91,5.875 37.642,7.196 36.601,8.281 35.134,8.356 33.327,8.086 32.128,7.907 31.129,7.884 29.902,8.477 29.407,8.716 28.806,8.945 28.257,8.976 27.235,9.033 27.286,8.086 27.964,7.798 28.548,7.55 29.297,7.647 29.525,7.331 30.007,6.66 28.945,5.713 27.974,5.578 27.156,5.464 26.432,5.609 25.682,5.956 24.719,6.401 23.773,6.779 22.81,7.224 21.465,7.845 20.273,8.396 18.872,7.912 18.404,7.75 17.51,7.17 16.849,7.143 15.508,7.088 14.483,8.113 13.141,8.073 11.68,8.03 10.72,6.745 9.353,6.229 8.585,5.94 7.739,5.984 6.92,5.924 6.102,5.863 5.223,5.652 4.708,5.013 c 0.287,0.74 0.901,1.301 1.534,1.78 2.402,1.814 5.401,2.824 8.411,2.832 1.528,0.004 2.47,-0.264 3.975,-10e-4 1.389,0.243 1.605,1.127 3.304,1.578 4.221,1.119 5.708,-0.137 10.006,-1.538 z"
         id="path39" />
      <path
         inkscape:connector-curvature="0"
         style="fill:#f30000;stroke-width:1.7630595"
         d="m 33.313,16.772 c -1.297,-0.78 -4.078,-0.835 -5.558,0.801 -1.172,1.296 -1.078,3.163 -0.241,4.696 0.867,1.588 2.565,2.902 3.648,4.272 1.275,1.613 1.819,2.654 2.455,4.61 0.656,2.017 0.561,7.425 -3.81,10.788 -1.672,1.413 -3.709,2.311 -6.154,3.059 9.085,-0.19 16.758,-7.11 16.758,-15.617 10e-4,-5.603 -3.442,-10.412 -7.098,-12.609 z"
         id="path41" />
    </g>
    <polygon
       style="opacity:0.6;fill:#184a77;stroke-width:1.7630595"
       points="23.653,44.997 23.641,45 23.647,45 "
       id="polygon45"
       transform="matrix(1.3295756,0,0,1.0784248,-6.7801309,0.38080367)" />
  </g>
</svg>
