<?xml version="1.0" encoding="UTF-8" standalone="no"?>
<svg
   xmlns:dc="http://purl.org/dc/elements/1.1/"
   xmlns:cc="http://creativecommons.org/ns#"
   xmlns:rdf="http://www.w3.org/1999/02/22-rdf-syntax-ns#"
   xmlns:svg="http://www.w3.org/2000/svg"
   xmlns="http://www.w3.org/2000/svg"
   xmlns:sodipodi="http://sodipodi.sourceforge.net/DTD/sodipodi-0.dtd"
   xmlns:inkscape="http://www.inkscape.org/namespaces/inkscape"
   viewBox="0 0 48 48"
   id="svg2"
   version="1.1"
   inkscape:version="0.92.2pre0 (973e216, 2017-07-25)"
   sodipodi:docname="deepin-calculator.svg"
   width="51.200001"
   height="51.200001">
  <metadata
     id="metadata58">
    <rdf:RDF>
      <cc:Work
         rdf:about="">
        <dc:format>image/svg+xml</dc:format>
        <dc:type
           rdf:resource="http://purl.org/dc/dcmitype/StillImage" />
      </cc:Work>
    </rdf:RDF>
  </metadata>
  <sodipodi:namedview
     pagecolor="#ffffff"
     bordercolor="#666666"
     borderopacity="1"
     objecttolerance="10"
     gridtolerance="10"
     guidetolerance="10"
     inkscape:pageopacity="0"
     inkscape:pageshadow="2"
     inkscape:window-width="1360"
     inkscape:window-height="740"
     id="namedview56"
     showgrid="false"
     inkscape:zoom="9.8333334"
     inkscape:cx="18.829423"
     inkscape:cy="27.345655"
     inkscape:window-x="0"
     inkscape:window-y="0"
     inkscape:window-maximized="1"
     inkscape:current-layer="svg2" />
  <defs
     id="defs4">
    <clipPath
       id="clipPath6">
      <g
         transform="translate(0,-1004.3622)"
         id="g8">
        <path
           d="m -24,13 c 0,1.105 -0.672,2 -1.5,2 -0.828,0 -1.5,-0.895 -1.5,-2 0,-1.105 0.672,-2 1.5,-2 0.828,0 1.5,0.895 1.5,2 z"
           transform="matrix(15.333333,0,0,11.5,414.99999,878.8622)"
           id="path10"
           inkscape:connector-curvature="0"
           style="fill:#1890d0" />
      </g>
    </clipPath>
    <clipPath
       id="clipPath12">
      <g
         transform="translate(0,-1004.3622)"
         id="g14">
        <path
           d="m -24,13 c 0,1.105 -0.672,2 -1.5,2 -0.828,0 -1.5,-0.895 -1.5,-2 0,-1.105 0.672,-2 1.5,-2 0.828,0 1.5,0.895 1.5,2 z"
           transform="matrix(15.333333,0,0,11.5,414.99999,878.8622)"
           id="path16"
           inkscape:connector-curvature="0"
           style="fill:#1890d0" />
      </g>
    </clipPath>
  </defs>
  <g
     id="g885">
    <path
       inkscape:connector-curvature="0"
       style="fill:#4a4642;fill-opacity:0.93048126;fill-rule:evenodd;stroke:none"
       id="path26"
       d="M 24,1 C 11.297,1 1,11.297 1,24 h 23 z" />
    <path
       inkscape:connector-curvature="0"
       style="fill:#6a6a6a;fill-opacity:0.76862745;fill-rule:evenodd;stroke:none"
       id="path28"
       d="M 24,1 V 24 H 47 C 47,11.297 36.703,1 24,1 Z" />
    <path
       inkscape:connector-curvature="0"
       style="fill:#1bb4e6;fill-opacity:1;fill-rule:evenodd;stroke:none"
       id="path30"
       d="M 24,24 V 47 C 36.703,47 47,36.703 47,24 Z" />
    <path
       inkscape:connector-curvature="0"
       style="fill:#3f3f3f;fill-opacity:1;fill-rule:evenodd;stroke:none"
       id="path32"
       d="M 1,24 C 1,36.703 11.297,47 24,47 V 24 Z" />
    <path
       style="opacity:0.1;fill:#000000;fill-opacity:1;fill-rule:nonzero;stroke:none"
       inkscape:connector-curvature="0"
       id="path34"
       d="m 15,12 v 3 h -3 v 2 h 3 v 3 h 2 v -3 h 3 v -2 h -3 v -3 z m 15,3 v 2 h 8 V 15 Z M 14.97,30 v 2 h 2 V 30 Z M 30,31 v 2 h 8 v -2 z m -18,1.969 v 2 h 8 v -2 z M 30,35 v 2 h 8 v -2 z m -15.03,1 v 2 h 2 v -2 z" />
    <path
       style="fill:#f9f9f9;fill-opacity:1;fill-rule:nonzero;stroke:none"
       inkscape:connector-curvature="0"
       id="path36"
       d="m 37,30 v 2 h -8 v -2 m 8,0" />
    <path
       style="fill:#f9f9f9;fill-opacity:1;fill-rule:nonzero;stroke:none"
       inkscape:connector-curvature="0"
       id="path38"
       d="m 37,34 v 2 h -8 v -2 m 8,0" />
    <path
       style="fill:#f9f9f9;fill-opacity:1;fill-rule:nonzero;stroke:none"
       inkscape:connector-curvature="0"
       id="path40"
       d="m 37,14 v 1.996 H 29 V 14 m 8,0" />
    <path
       style="fill:#f9f9f9;fill-opacity:1;fill-rule:nonzero;stroke:none"
       inkscape:connector-curvature="0"
       id="path42"
       d="m 19,31.961 v 2 h -8 v -2 m 8,0" />
    <path
       style="fill:#f9f9f9;fill-opacity:1;fill-rule:nonzero;stroke:none"
       inkscape:connector-curvature="0"
       id="path44"
       d="m 15.969,29 v 2 h -2 v -2 m 2,0" />
    <path
       style="fill:#f9f9f9;fill-opacity:1;fill-rule:nonzero;stroke:none"
       inkscape:connector-curvature="0"
       id="path46"
       d="m 15.969,35 v 2 h -2 v -2 m 2,0" />
    <path
       style="fill:#f9f9f9;fill-opacity:1;fill-rule:nonzero;stroke:none"
       inkscape:connector-curvature="0"
       id="path48"
       d="m 14,11 h 1.996 v 8 H 14 m 0,-8" />
    <path
       style="fill:#f9f9f9;fill-opacity:1;fill-rule:nonzero;stroke:none"
       inkscape:connector-curvature="0"
       id="path50"
       d="m 19,13.996 v 2 h -8 v -2 m 8,0" />
  </g>
</svg>
