<?xml version="1.0" encoding="UTF-8" standalone="no"?>
<svg
   xmlns:dc="http://purl.org/dc/elements/1.1/"
   xmlns:cc="http://creativecommons.org/ns#"
   xmlns:rdf="http://www.w3.org/1999/02/22-rdf-syntax-ns#"
   xmlns:svg="http://www.w3.org/2000/svg"
   xmlns="http://www.w3.org/2000/svg"
   xmlns:sodipodi="http://sodipodi.sourceforge.net/DTD/sodipodi-0.dtd"
   xmlns:inkscape="http://www.inkscape.org/namespaces/inkscape"
   viewBox="0 0 48 48"
   version="1.1"
   id="svg61"
   sodipodi:docname="fjt.svg"
   inkscape:version="0.92.2pre0 (973e216, 2017-07-25)">
  <metadata
     id="metadata65">
    <rdf:RDF>
      <cc:Work
         rdf:about="">
        <dc:format>image/svg+xml</dc:format>
        <dc:type
           rdf:resource="http://purl.org/dc/dcmitype/StillImage" />
      </cc:Work>
    </rdf:RDF>
  </metadata>
  <sodipodi:namedview
     pagecolor="#ffffff"
     bordercolor="#666666"
     borderopacity="1"
     objecttolerance="10"
     gridtolerance="10"
     guidetolerance="10"
     inkscape:pageopacity="0"
     inkscape:pageshadow="2"
     inkscape:window-width="1360"
     inkscape:window-height="658"
     id="namedview63"
     showgrid="false"
     inkscape:zoom="4.9166667"
     inkscape:cx="24"
     inkscape:cy="24"
     inkscape:window-x="0"
     inkscape:window-y="28"
     inkscape:window-maximized="1"
     inkscape:current-layer="g79" />
  <defs
     id="defs17">
    <linearGradient
       id="linearGradient3764"
       x1="1"
       x2="47"
       gradientUnits="userSpaceOnUse"
       gradientTransform="matrix(0,-1,1,0,-1.5e-6,47.999998)">
      <stop
         stop-color="#e4e4e4"
         stop-opacity="1"
         id="stop2" />
      <stop
         offset="1"
         stop-color="#eee"
         stop-opacity="1"
         id="stop4" />
    </linearGradient>
    <clipPath
       id="clipPath-402420635">
      <g
         transform="translate(0,-1004.3622)"
         id="g9">
        <path
           d="m -24 13 c 0 1.105 -0.672 2 -1.5 2 -0.828 0 -1.5 -0.895 -1.5 -2 0 -1.105 0.672 -2 1.5 -2 0.828 0 1.5 0.895 1.5 2 z"
           transform="matrix(15.333333,0,0,11.5,414.99999,878.8622)"
           fill="#1890d0"
           id="path7" />
      </g>
    </clipPath>
    <clipPath
       id="clipPath-416961016">
      <g
         transform="translate(0,-1004.3622)"
         id="g14">
        <path
           d="m -24 13 c 0 1.105 -0.672 2 -1.5 2 -0.828 0 -1.5 -0.895 -1.5 -2 0 -1.105 0.672 -2 1.5 -2 0.828 0 1.5 0.895 1.5 2 z"
           transform="matrix(15.333333,0,0,11.5,414.99999,878.8622)"
           fill="#1890d0"
           id="path12" />
      </g>
    </clipPath>
  </defs>
  <g
     id="g25">
    <path
       d="m 36.31 5 c 5.859 4.062 9.688 10.831 9.688 18.5 c 0 12.426 -10.07 22.5 -22.5 22.5 c -7.669 0 -14.438 -3.828 -18.5 -9.688 c 1.037 1.822 2.306 3.499 3.781 4.969 c 4.085 3.712 9.514 5.969 15.469 5.969 c 12.703 0 23 -10.298 23 -23 c 0 -5.954 -2.256 -11.384 -5.969 -15.469 c -1.469 -1.475 -3.147 -2.744 -4.969 -3.781 z m 4.969 3.781 c 3.854 4.113 6.219 9.637 6.219 15.719 c 0 12.703 -10.297 23 -23 23 c -6.081 0 -11.606 -2.364 -15.719 -6.219 c 4.16 4.144 9.883 6.719 16.219 6.719 c 12.703 0 23 -10.298 23 -23 c 0 -6.335 -2.575 -12.06 -6.719 -16.219 z"
       opacity="0.05"
       id="path19" />
    <path
       d="m 41.28 8.781 c 3.712 4.085 5.969 9.514 5.969 15.469 c 0 12.703 -10.297 23 -23 23 c -5.954 0 -11.384 -2.256 -15.469 -5.969 c 4.113 3.854 9.637 6.219 15.719 6.219 c 12.703 0 23 -10.298 23 -23 c 0 -6.081 -2.364 -11.606 -6.219 -15.719 z"
       opacity="0.1"
       id="path21" />
    <path
       d="m 31.25 2.375 c 8.615 3.154 14.75 11.417 14.75 21.13 c 0 12.426 -10.07 22.5 -22.5 22.5 c -9.708 0 -17.971 -6.135 -21.12 -14.75 a 23 23 0 0 0 44.875 -7 a 23 23 0 0 0 -16 -21.875 z"
       opacity="0.2"
       id="path23" />
  </g>
  <g
     id="g29">
    <path
       d="m 24 1 c 12.703 0 23 10.297 23 23 c 0 12.703 -10.297 23 -23 23 -12.703 0 -23 -10.297 -23 -23 0 -12.703 10.297 -23 23 -23 z"
       fill="url(#linearGradient3764)"
       fill-opacity="1"
       id="path27" />
  </g>
  <g
     id="g31" />
  <g
     id="g79"
     transform="translate(-38.215788,1.1601288)">
    <g
       id="g77"
       transform="matrix(0.82566269,0,0,0.85439879,42.621179,2.8750059)"
       style="stroke-width:1.19060683">
      <g
         id="g75"
         style="stroke-width:1.19060683">
        <path
           id="path69"
           d="m 26.755,30.62 c -6.989,0 -12.654,-4.961 -12.654,-11.081 0,-6.12 5.666,-11.081 12.654,-11.081 1.321,0 2.595,0.179 3.792,0.507 C 27.758,6.583 23.951,5.11 19.747,5.11 11.199,5.11 4.27,11.177 4.27,18.662 c 0,7.485 6.929,13.552 15.477,13.552 2.646,0 5.135,-0.584 7.314,-1.609 -0.103,0.004 -0.203,0.015 -0.306,0.015 z"
           style="fill:#2e7acb;stroke-width:1.19060683"
           inkscape:connector-curvature="0" />
        <path
           id="path71"
           d="m 44.979,21.932 c 0,-10.465 -9.387,-18.949 -20.966,-18.949 -11.579,0 -20.967,8.484 -20.967,18.949 0,9.531 7.786,17.415 17.923,18.747 -2.959,1.019 -6.214,1.598 -9.639,1.645 2.626,0.753 5.451,1.169 8.396,1.169 13.148,0 23.92,-8.495 24.989,-18.564 0.172,-0.977 0.264,-1.977 0.264,-2.997 z M 4.293,18.52 c 0,-7.288 6.747,-13.197 15.071,-13.197 8.323,0 15.071,5.908 15.071,13.197 0,7.288 -6.747,13.197 -15.071,13.197 -8.324,0 -15.071,-5.909 -15.071,-13.197 z"
           style="fill:#71a5e7;stroke-width:1.19060683"
           inkscape:connector-curvature="0" />
        <path
           id="path73"
           d="m 44.431,20.16 c -0.062,-0.316 -0.291,-0.576 -0.595,-0.674 -1.847,-0.593 -8.691,-2.095 -16.888,4.66 -0.538,0.443 -0.38,1.321 0.282,1.534 0.723,0.232 1.637,0.582 2.609,1.09 -2.591,2.474 -6.17,4.207 -10.829,4.207 -8.323,0 -14.903,-5.744 -14.654,-13.028 0.095,-2.781 1.276,-4.552 2.095,-6.266 0,0 -3.2,3.885 -3.454,9.683 -0.466,10.599 8.583,19.21 19.17,19.21 5.559,0 10.561,-2.375 14.062,-6.164 0.22,0.816 0.369,1.702 0.428,2.665 0.044,0.717 0.892,1.066 1.434,0.602 2.704,-2.311 8.162,-8.266 6.34,-17.519 z"
           style="fill:#9ac9f4;stroke-width:1.19060683"
           inkscape:connector-curvature="0" />
      </g>
    </g>
  </g>
</svg>
