<?xml version="1.0" encoding="UTF-8" standalone="no"?>
<svg
   xmlns:dc="http://purl.org/dc/elements/1.1/"
   xmlns:cc="http://creativecommons.org/ns#"
   xmlns:rdf="http://www.w3.org/1999/02/22-rdf-syntax-ns#"
   xmlns:svg="http://www.w3.org/2000/svg"
   xmlns="http://www.w3.org/2000/svg"
   xmlns:sodipodi="http://sodipodi.sourceforge.net/DTD/sodipodi-0.dtd"
   xmlns:inkscape="http://www.inkscape.org/namespaces/inkscape"
   viewBox="0 0 48 48"
   version="1.1"
   id="svg57"
   sodipodi:docname="deepin-remote-assistance.svg"
   inkscape:version="0.92.1 r15371">
  <metadata
     id="metadata61">
    <rdf:RDF>
      <cc:Work
         rdf:about="">
        <dc:format>image/svg+xml</dc:format>
        <dc:type
           rdf:resource="http://purl.org/dc/dcmitype/StillImage" />
      </cc:Work>
    </rdf:RDF>
  </metadata>
  <sodipodi:namedview
     pagecolor="#ffffff"
     bordercolor="#666666"
     borderopacity="1"
     objecttolerance="10"
     gridtolerance="10"
     guidetolerance="10"
     inkscape:pageopacity="0"
     inkscape:pageshadow="2"
     inkscape:window-width="1360"
     inkscape:window-height="740"
     id="namedview59"
     showgrid="false"
     inkscape:zoom="4.9166667"
     inkscape:cx="52.200469"
     inkscape:cy="32.135593"
     inkscape:window-x="0"
     inkscape:window-y="0"
     inkscape:window-maximized="1"
     inkscape:current-layer="svg57" />
  <defs
     id="defs17">
    <linearGradient
       id="linearGradient3764"
       x1="1"
       x2="47"
       gradientUnits="userSpaceOnUse"
       gradientTransform="rotate(-90,23.999998,24)">
      <stop
         stop-color="#31af54"
         stop-opacity="1"
         id="stop2" />
      <stop
         offset="1"
         stop-color="#35bf5c"
         stop-opacity="1"
         id="stop4" />
    </linearGradient>
    <clipPath
       id="clipPath-389701993">
      <g
         transform="translate(0,-1004.3622)"
         id="g9">
        <path
           d="m -24 13 c 0 1.105 -0.672 2 -1.5 2 -0.828 0 -1.5 -0.895 -1.5 -2 0 -1.105 0.672 -2 1.5 -2 0.828 0 1.5 0.895 1.5 2 z"
           transform="matrix(15.333333,0,0,11.5,414.99999,878.8622)"
           fill="#1890d0"
           id="path7" />
      </g>
    </clipPath>
    <clipPath
       id="clipPath-398118914">
      <g
         transform="translate(0,-1004.3622)"
         id="g14">
        <path
           d="m -24 13 c 0 1.105 -0.672 2 -1.5 2 -0.828 0 -1.5 -0.895 -1.5 -2 0 -1.105 0.672 -2 1.5 -2 0.828 0 1.5 0.895 1.5 2 z"
           transform="matrix(15.333333,0,0,11.5,414.99999,878.8622)"
           fill="#1890d0"
           id="path12" />
      </g>
    </clipPath>
  </defs>
  <g
     id="g25">
    <path
       d="m 36.31 5 c 5.859 4.062 9.688 10.831 9.688 18.5 c 0 12.426 -10.07 22.5 -22.5 22.5 c -7.669 0 -14.438 -3.828 -18.5 -9.688 c 1.037 1.822 2.306 3.499 3.781 4.969 c 4.085 3.712 9.514 5.969 15.469 5.969 c 12.703 0 23 -10.298 23 -23 c 0 -5.954 -2.256 -11.384 -5.969 -15.469 c -1.469 -1.475 -3.147 -2.744 -4.969 -3.781 z m 4.969 3.781 c 3.854 4.113 6.219 9.637 6.219 15.719 c 0 12.703 -10.297 23 -23 23 c -6.081 0 -11.606 -2.364 -15.719 -6.219 c 4.16 4.144 9.883 6.719 16.219 6.719 c 12.703 0 23 -10.298 23 -23 c 0 -6.335 -2.575 -12.06 -6.719 -16.219 z"
       opacity="0.05"
       id="path19" />
    <path
       d="m 41.28 8.781 c 3.712 4.085 5.969 9.514 5.969 15.469 c 0 12.703 -10.297 23 -23 23 c -5.954 0 -11.384 -2.256 -15.469 -5.969 c 4.113 3.854 9.637 6.219 15.719 6.219 c 12.703 0 23 -10.298 23 -23 c 0 -6.081 -2.364 -11.606 -6.219 -15.719 z"
       opacity="0.1"
       id="path21" />
    <path
       d="m 31.25 2.375 c 8.615 3.154 14.75 11.417 14.75 21.13 c 0 12.426 -10.07 22.5 -22.5 22.5 c -9.708 0 -17.971 -6.135 -21.12 -14.75 a 23 23 0 0 0 44.875 -7 a 23 23 0 0 0 -16 -21.875 z"
       opacity="0.2"
       id="path23" />
  </g>
  <path
     inkscape:connector-curvature="0"
     style="fill:#00cfba;fill-opacity:1"
     id="path27"
     d="M 24,1 C 36.703,1 47,11.297 47,24 47,36.703 36.703,47 24,47 11.297,47 1,36.703 1,24 1,11.297 11.297,1 24,1 Z" />
  <g
     id="g31" />
  <g
     id="g55">
    <path
       d="m 40.03 7.531 c 3.712 4.084 5.969 9.514 5.969 15.469 0 12.703 -10.297 23 -23 23 c -5.954 0 -11.384 -2.256 -15.469 -5.969 4.178 4.291 10.01 6.969 16.469 6.969 c 12.703 0 23 -10.298 23 -23 0 -6.462 -2.677 -12.291 -6.969 -16.469 z"
       opacity="0.1"
       id="path53" />
  </g>
  <path
     d="m 32.434805,12.114084 c -1.16258,1.358994 -5.32058,6.137877 -7.54149,8.638134 l 6.23225,7.115013 -7.45079,8.662101 C 20.61375,33.172611 17.60587,29.791505 14.561274,26.439969 l -0.06049,-0.06125 c -1.507119,-1.439432 -2.378603,-3.778171 -2.065014,-5.946042 0.334409,-2.906374 2.8353,-5.418704 5.35555,-5.35756 0.48856,-0.0073 0.98154,0.116949 1.35575,0.207699 1.19144,0.29264 2.29677,1.523638 3.318445,2.708072 -0.002,0.0023 0.55346,0.639073 0.55346,0.639073 l 1.45109,1.6536 2.92544,-3.349807 c 0.44929,-0.514394 0.69751,-1.49981 0,-2.290011 -0.35684,-0.408596 -0.74902,-0.534683 -1.10693,-0.495282 -0.35791,0.03954 -0.68157,0.243743 -0.89995,0.495282 -0.45997,0.52681 -0.94881,1.086454 -1.3604,1.55774 -1.05329,-1.20186 -2.684355,-3.018203 -4.390475,-3.443004 -0.60926,-0.178463 -1.23706,-0.269698 -1.86503,-0.271606 -3.806255,-0.08596 -7.081998,3.316284 -7.578695,7.535733 -0.4558961,3.191889 0.762061,6.360746 2.851021,8.355879 l -0.06044,-0.06125 c 3.053944,3.361761 6.342084,6.983012 9.429769,10.337003 0.43488,0.433957 0.78902,0.505931 1.24644,0.505931 0.35271,0.0053 0.75397,-0.132405 1.16506,-0.585816 l 6.89269,-7.911188 c 0,0 4.61674,-5.268585 6.895,-7.860597 0.48619,-0.556795 0.52102,-1.336459 0.0328,-1.893254 -0.48605,-0.556249 -1.18151,-0.537609 -1.66732,0.01863 l -4.92535,5.63982 c -0.12902,0.03136 -0.40154,-0.293271 -0.38834,-0.476642 l 7.27637,-8.334575 c 0.48619,-0.556796 0.52233,-1.352437 0.0328,-1.909231 -0.48614,-0.556795 -1.13464,-0.479028 -1.62082,0.07722 l -5.75831,6.601095 c -0.15084,0.02999 -0.47873,-0.295722 -0.43717,-0.516586 l 6.82057,-7.812664 c 0.39138,-0.479084 0.62434,-1.330248 0.12312,-1.930533 -0.48618,-0.556793 -1.23234,-0.519169 -1.71849,0.03994 l -7.03687,8.060306 c -0.16882,0 -0.42631,-0.270903 -0.42322,-0.471317 l 5.1509,-5.898113 c 0.48569,-0.556523 0.57414,-1.33403 0.044,-1.90923 -0.26498,-0.287667 -0.5737,-0.412321 -0.87206,-0.39942 -0.29836,0.01294 -0.58668,0.162716 -0.81158,0.426048 z"
     id="path4620"
     inkscape:connector-curvature="0"
     style="fill:#ffffff;fill-rule:evenodd;stroke:none;stroke-width:1.2740736" />
</svg>
