<?xml version="1.0" encoding="UTF-8" standalone="no"?>
<svg
   xmlns:dc="http://purl.org/dc/elements/1.1/"
   xmlns:cc="http://creativecommons.org/ns#"
   xmlns:rdf="http://www.w3.org/1999/02/22-rdf-syntax-ns#"
   xmlns:svg="http://www.w3.org/2000/svg"
   xmlns="http://www.w3.org/2000/svg"
   xmlns:sodipodi="http://sodipodi.sourceforge.net/DTD/sodipodi-0.dtd"
   xmlns:inkscape="http://www.inkscape.org/namespaces/inkscape"
   viewBox="0 0 48 48"
   id="svg2"
   version="1.1"
   inkscape:version="0.92.0 r15299"
   width="100%"
   height="100%"
   sodipodi:docname="deepin-multitasking-view.svg">
  <metadata
     id="metadata73">
    <rdf:RDF>
      <cc:Work
         rdf:about="">
        <dc:format>image/svg+xml</dc:format>
        <dc:type
           rdf:resource="http://purl.org/dc/dcmitype/StillImage" />
        <dc:title />
      </cc:Work>
    </rdf:RDF>
  </metadata>
  <sodipodi:namedview
     pagecolor="#ffffff"
     bordercolor="#666666"
     borderopacity="1"
     objecttolerance="10"
     gridtolerance="10"
     guidetolerance="10"
     inkscape:pageopacity="0"
     inkscape:pageshadow="2"
     inkscape:window-width="1600"
     inkscape:window-height="872"
     id="namedview71"
     showgrid="false"
     inkscape:zoom="5.6568542"
     inkscape:cx="-35.021705"
     inkscape:cy="25.330735"
     inkscape:window-x="0"
     inkscape:window-y="0"
     inkscape:window-maximized="1"
     inkscape:current-layer="svg2">
    <inkscape:grid
       type="xygrid"
       id="grid3050" />
  </sodipodi:namedview>
  <defs
     id="defs4">
    <linearGradient
       id="linearGradient3764"
       x1="1"
       x2="47"
       gradientUnits="userSpaceOnUse"
       gradientTransform="rotate(-90,23.999998,24)">
      <stop
         stop-color="#48a1e0"
         stop-opacity="1"
         id="stop7" />
      <stop
         offset="1"
         stop-color="#5aa9e3"
         stop-opacity="1"
         id="stop9" />
    </linearGradient>
    <clipPath
       id="clipPath-764797814">
      <g
         transform="translate(0,-1004.3622)"
         id="g12">
        <path
           d="m -24 13 c 0 1.105 -0.672 2 -1.5 2 -0.828 0 -1.5 -0.895 -1.5 -2 0 -1.105 0.672 -2 1.5 -2 0.828 0 1.5 0.895 1.5 2 z"
           transform="matrix(15.333333,0,0,11.5,414.99999,878.8622)"
           fill="#1890d0"
           id="path14" />
      </g>
    </clipPath>
    <clipPath
       id="clipPath-774341736">
      <g
         transform="translate(0,-1004.3622)"
         id="g17">
        <path
           d="m -24 13 c 0 1.105 -0.672 2 -1.5 2 -0.828 0 -1.5 -0.895 -1.5 -2 0 -1.105 0.672 -2 1.5 -2 0.828 0 1.5 0.895 1.5 2 z"
           transform="matrix(15.333333,0,0,11.5,414.99999,878.8622)"
           fill="#1890d0"
           id="path19" />
      </g>
    </clipPath>
  </defs>
  <g
     id="g33" />
  <path
     inkscape:connector-curvature="0"
     style="fill:#ff5e49;fill-opacity:1"
     id="path31"
     d="M 24,1 C 36.703,1 47,11.297 47,24 47,36.703 36.703,47 24,47 11.297,47 1,36.703 1,24 1,11.297 11.297,1 24,1 Z" />
  <path
     sodipodi:nodetypes="cssssssc"
     style="fill:#cccccc;fill-opacity:1;fill-rule:nonzero;stroke:none;stroke-width:0.90294796"
     inkscape:connector-curvature="0"
     id="path61"
     d="m 23.938717,13.712311 c 0.70402,0 0.959156,0.226109 0.959156,0.850033 v 7.650293 c 0,0.623922 -0.255136,0.850031 -0.959156,0.850031 H 12.428828 c -0.700185,0 -0.959158,-0.226109 -0.959158,-0.850031 v -7.650293 c 0,-0.623924 0.258973,-0.850033 0.959158,-0.850033" />
  <path
     sodipodi:nodetypes="cssssssc"
     style="fill:#cccccc;fill-opacity:1;fill-rule:nonzero;stroke:none;stroke-width:0.90294796"
     inkscape:connector-curvature="0"
     id="path65"
     d="m 35.360932,15.767902 c 0.697307,0 0.959158,0.226108 0.959158,0.850032 v 8.500326 c 0,0.623923 -0.26281,0.850031 -0.959158,0.850031 h -7.67326 c -0.697307,0 -0.959157,-0.226108 -0.959157,-0.850031 v -8.500326 c 0,-0.623924 0.266646,-0.850032 0.959157,-0.850032" />
  <path
     d="m 24.897873,15.412376 v 6.800261 c 0,0.623922 -0.255136,0.850031 -0.959156,0.850031 H 12.428828 c -0.700185,0 -0.959158,-0.226109 -0.959158,-0.850031 v -6.800261"
     id="path3822"
     inkscape:connector-curvature="0"
     style="fill:#f2f2f2;fill-opacity:1;fill-rule:nonzero;stroke:none;stroke-width:0.90294796"
     sodipodi:nodetypes="cssssc" />
  <path
     d="m 36.32009,17.467967 v 7.650293 c 0,0.623923 -0.26281,0.850031 -0.959158,0.850031 h -7.67326 c -0.697307,0 -0.959157,-0.226108 -0.959157,-0.850031 v -7.650293"
     id="path3824"
     inkscape:connector-curvature="0"
     style="fill:#f2f2f2;fill-opacity:1;fill-rule:nonzero;stroke:none;stroke-width:0.90294796"
     sodipodi:nodetypes="cssssc" />
  <path
     d="m 30.12888,28.023883 c 0.70402,0 0.959156,0.226108 0.959156,0.850032 v 5.950228 c 0,0.623924 -0.255136,0.850032 -0.959156,0.850032 H 14.78236 c -0.700184,0 -0.959156,-0.226108 -0.959156,-0.850032 v -5.950228 c 0,-0.623924 0.258972,-0.850032 0.959156,-0.850032"
     id="path3828"
     inkscape:connector-curvature="0"
     style="fill:#cccccc;fill-opacity:1;fill-rule:nonzero;stroke:none;stroke-width:0.90294796"
     sodipodi:nodetypes="cssssssc" />
  <path
     sodipodi:nodetypes="cssssc"
     style="fill:#f2f2f2;fill-opacity:1;fill-rule:nonzero;stroke:none;stroke-width:0.90294796"
     inkscape:connector-curvature="0"
     id="path3830"
     d="m 31.088036,29.723948 v 5.100195 c 0,0.623924 -0.255136,0.850032 -0.959156,0.850032 H 14.78236 c -0.700184,0 -0.959156,-0.226108 -0.959156,-0.850032 v -5.100195" />
</svg>
