<?xml version="1.0" encoding="UTF-8" standalone="no"?>
<svg
   xmlns:dc="http://purl.org/dc/elements/1.1/"
   xmlns:cc="http://creativecommons.org/ns#"
   xmlns:rdf="http://www.w3.org/1999/02/22-rdf-syntax-ns#"
   xmlns:svg="http://www.w3.org/2000/svg"
   xmlns="http://www.w3.org/2000/svg"
   xmlns:xlink="http://www.w3.org/1999/xlink"
   xmlns:sodipodi="http://sodipodi.sourceforge.net/DTD/sodipodi-0.dtd"
   xmlns:inkscape="http://www.inkscape.org/namespaces/inkscape"
   viewBox="0 0 48 48"
   version="1.1"
   id="svg69"
   sodipodi:docname="desktop-effect.svg"
   inkscape:version="0.92.2pre0 (973e216, 2017-07-25)">
  <metadata
     id="metadata73">
    <rdf:RDF>
      <cc:Work
         rdf:about="">
        <dc:format>image/svg+xml</dc:format>
        <dc:type
           rdf:resource="http://purl.org/dc/dcmitype/StillImage" />
      </cc:Work>
    </rdf:RDF>
  </metadata>
  <sodipodi:namedview
     pagecolor="#ffffff"
     bordercolor="#666666"
     borderopacity="1"
     objecttolerance="10"
     gridtolerance="10"
     guidetolerance="10"
     inkscape:pageopacity="0"
     inkscape:pageshadow="2"
     inkscape:window-width="1360"
     inkscape:window-height="658"
     id="namedview71"
     showgrid="false"
     inkscape:zoom="4.9166667"
     inkscape:cx="24"
     inkscape:cy="24"
     inkscape:window-x="0"
     inkscape:window-y="28"
     inkscape:window-maximized="1"
     inkscape:current-layer="svg69" />
  <defs
     id="defs17">
    <linearGradient
       id="linearGradient3764"
       x1="1"
       x2="47"
       gradientUnits="userSpaceOnUse"
       gradientTransform="matrix(0,-1,1,0,-1.5e-6,47.999998)">
      <stop
         stop-color="#e4e4e4"
         stop-opacity="1"
         id="stop2" />
      <stop
         offset="1"
         stop-color="#eee"
         stop-opacity="1"
         id="stop4" />
    </linearGradient>
    <clipPath
       id="clipPath-505380455">
      <g
         transform="translate(0,-1004.3622)"
         id="g9">
        <path
           d="m -24 13 c 0 1.105 -0.672 2 -1.5 2 -0.828 0 -1.5 -0.895 -1.5 -2 0 -1.105 0.672 -2 1.5 -2 0.828 0 1.5 0.895 1.5 2 z"
           transform="matrix(15.333333,0,0,11.5,414.99999,878.8622)"
           fill="#1890d0"
           id="path7" />
      </g>
    </clipPath>
    <clipPath
       id="clipPath-514880478">
      <g
         transform="translate(0,-1004.3622)"
         id="g14">
        <path
           d="m -24 13 c 0 1.105 -0.672 2 -1.5 2 -0.828 0 -1.5 -0.895 -1.5 -2 0 -1.105 0.672 -2 1.5 -2 0.828 0 1.5 0.895 1.5 2 z"
           transform="matrix(15.333333,0,0,11.5,414.99999,878.8622)"
           fill="#1890d0"
           id="path12" />
      </g>
    </clipPath>
    <path
       id="path-1"
       d="M4.28910015,2.01589848 C4.24567328,0.895372482 3.30249198,-5.68434189e-14 2.14533133,-5.68434189e-14 C0.960497551,-5.68434189e-14 0,0.938709641 0,2.09666667 C0,3.25462369 0.960497551,4.19333333 2.14533133,4.19333333 C2.14578379,4.19333333 2.14623623,4.1933332 2.14668863,4.19333292 C3.28367897,4.47666639 3.97900967,4.75999986 4.23268072,5.04333333 C5.19904618,5.91222222 5.70155622,6.34666667 5.74021084,6.34666667 C5.76946965,6.34666667 6.11730529,6.54479289 6.37801205,6.29 C6.57128514,6.10111111 6.60993976,5.89333333 6.4939759,5.66666667 L5.21837349,4.25 C4.5998996,3.11666667 4.29066265,2.38 4.29066265,2.04 C4.29066265,2.03128333 4.29014182,2.02324949 4.28910015,2.01589848 Z" />
    <path
       id="path-2"
       d="M8.56162421,8.675724 C8.51819733,7.555198 7.57501603,6.65982552 6.41785538,6.65982552 C5.23302161,6.65982552 4.27252405,7.59853516 4.27252405,8.75649219 C4.27252405,9.91444921 5.23302161,10.8531589 6.41785538,10.8531589 C6.41830785,10.8531589 6.41876028,10.8531587 6.41921268,10.8531584 C7.55620302,11.1364919 8.25153372,11.4198254 8.50520478,11.7031589 C9.47157024,12.5720477 9.97408028,13.0064922 10.0127349,13.0064922 C10.0419937,13.0064922 10.3898293,13.2046184 10.6505361,12.9498255 C10.8438092,12.7609366 10.8824638,12.5531589 10.7665,12.3264922 L9.49089755,10.9098255 C8.87242365,9.77649219 8.5631867,9.03982552 8.5631867,8.69982552 C8.5631867,8.69110885 8.56266587,8.68307501 8.56162421,8.675724 Z" />
    <path
       id="path-3"
       d="M4.28910015,2.01589848 C4.24567328,0.895372482 3.30249198,0 2.14533133,0 C0.960497551,0 0,0.938709641 0,2.09666667 C0,3.25462369 0.960497551,4.19333333 2.14533133,4.19333333 C2.14578379,4.19333333 2.14623623,4.1933332 2.14668863,4.19333292 C3.28367897,4.47666639 3.97900967,4.75999986 4.23268072,5.04333333 C5.19904618,5.91222222 5.70155622,6.34666667 5.74021084,6.34666667 C5.76946965,6.34666667 6.11730529,6.54479289 6.37801205,6.29 C6.57128514,6.10111111 6.60993976,5.89333333 6.4939759,5.66666667 L5.21837349,4.25 C4.5998996,3.11666667 4.29066265,2.38 4.29066265,2.04 C4.29066265,2.03128333 4.29014182,2.02324949 4.28910015,2.01589848 Z" />
    <path
       id="path-4"
       d="M8.56162421,8.675724 C8.51819733,7.555198 7.57501603,6.65982552 6.41785538,6.65982552 C5.23302161,6.65982552 4.27252405,7.59853516 4.27252405,8.75649219 C4.27252405,9.91444921 5.23302161,10.8531589 6.41785538,10.8531589 C6.41830785,10.8531589 6.41876028,10.8531587 6.41921268,10.8531584 C7.55620302,11.1364919 8.25153372,11.4198254 8.50520478,11.7031589 C9.47157024,12.5720477 9.97408028,13.0064922 10.0127349,13.0064922 C10.0419937,13.0064922 10.3898293,13.2046184 10.6505361,12.9498255 C10.8438092,12.7609366 10.8824638,12.5531589 10.7665,12.3264922 L9.49089755,10.9098255 C8.87242365,9.77649219 8.5631867,9.03982552 8.5631867,8.69982552 C8.5631867,8.69110885 8.56266587,8.68307501 8.56162421,8.675724 Z" />
  </defs>
  <g
     id="g25">
    <path
       d="m 36.31 5 c 5.859 4.062 9.688 10.831 9.688 18.5 c 0 12.426 -10.07 22.5 -22.5 22.5 c -7.669 0 -14.438 -3.828 -18.5 -9.688 c 1.037 1.822 2.306 3.499 3.781 4.969 c 4.085 3.712 9.514 5.969 15.469 5.969 c 12.703 0 23 -10.298 23 -23 c 0 -5.954 -2.256 -11.384 -5.969 -15.469 c -1.469 -1.475 -3.147 -2.744 -4.969 -3.781 z m 4.969 3.781 c 3.854 4.113 6.219 9.637 6.219 15.719 c 0 12.703 -10.297 23 -23 23 c -6.081 0 -11.606 -2.364 -15.719 -6.219 c 4.16 4.144 9.883 6.719 16.219 6.719 c 12.703 0 23 -10.298 23 -23 c 0 -6.335 -2.575 -12.06 -6.719 -16.219 z"
       opacity="0.05"
       id="path19" />
    <path
       d="m 41.28 8.781 c 3.712 4.085 5.969 9.514 5.969 15.469 c 0 12.703 -10.297 23 -23 23 c -5.954 0 -11.384 -2.256 -15.469 -5.969 c 4.113 3.854 9.637 6.219 15.719 6.219 c 12.703 0 23 -10.298 23 -23 c 0 -6.081 -2.364 -11.606 -6.219 -15.719 z"
       opacity="0.1"
       id="path21" />
    <path
       d="m 31.25 2.375 c 8.615 3.154 14.75 11.417 14.75 21.13 c 0 12.426 -10.07 22.5 -22.5 22.5 c -9.708 0 -17.971 -6.135 -21.12 -14.75 a 23 23 0 0 0 44.875 -7 a 23 23 0 0 0 -16 -21.875 z"
       opacity="0.2"
       id="path23" />
  </g>
  <g
     id="g29">
    <path
       d="m 24 1 c 12.703 0 23 10.297 23 23 c 0 12.703 -10.297 23 -23 23 -12.703 0 -23 -10.297 -23 -23 0 -12.703 10.297 -23 23 -23 z"
       id="path27"
       fill-opacity="1"
       fill="url(#linearGradient3764)" />
  </g>
  <g
     id="g31" />
  <g
     style="fill:none;fill-rule:evenodd;stroke:none;stroke-width:1"
     id="Group-7"
     transform="matrix(0.91370459,0,0,1.0269014,6.4890984,8.312134)">
    <g
       id="Group-10">
      <path
         style="stroke:#0087fb;stroke-width:2"
         inkscape:connector-curvature="0"
         d="m 29.389384,13.56908 c 0.0433,-0.383155 0.06544,-0.771308 0.06544,-1.163623 C 29.454819,5.5307757 22.861133,0 14.72741,0 6.5936859,0 0,5.5307757 0,12.405457 c 0,3.760977 2.0346822,7.13942 5.2377683,9.39976 0.6213783,0.438492 -0.6397111,3.376291 -0.097625,4.130537 0.5420858,0.754246 3.6354889,-2.253953 4.4665054,-1.995733 1.5948863,0.495577 3.3200843,0.766646 5.1207613,0.766646 v 0 c 2.165116,0 4.22111,-0.391895 6.072662,-1.094749"
         id="Oval" />
      <g
         id="Group-9"
         transform="translate(19.873494,13.94)">
        <g
           id="Group-5"
           transform="translate(7.725904)">
          <g
             id="Group-8">
            <g
               id="Combined-Shape">
              <use
                 height="100%"
                 width="100%"
                 y="0"
                 x="0"
                 style="fill:#32bf09;fill-rule:evenodd"
                 xlink:href="#path-1"
                 id="use88" />
              <path
                 style="stroke:#ffffff;stroke-width:1"
                 inkscape:connector-curvature="0"
                 d="m 4.7881229,1.9820435 c 0.0018,0.018486 0.00198,0.028195 0.00254,0.057956 0,0.2177883 0.2834408,0.8965638 0.8386979,1.9192081 l 1.2361839,1.3728889 0.07356,0.1068398 C 7.1569158,5.8646785 7.074327,6.308613 6.7274864,6.6475859 6.6189114,6.753698 6.4928668,6.8294105 6.3557378,6.8737184 6.1242309,6.9485209 5.9059038,6.9292015 5.689506,6.8588969 5.5488328,6.8131943 5.6353,6.8466667 5.7402108,6.8466667 5.4843315,6.8466667 5.6446785,6.9852944 3.860166,5.3768492 3.7005391,5.1985566 3.0876499,4.9467595 2.0820023,4.692603 0.65268731,4.6596035 -0.5,3.5125141 -0.5,2.0966667 -0.5,0.65996694 0.68689034,-0.5 2.1453313,-0.5 c 1.4155695,0 2.5812522,1.09471451 2.6427916,2.4820435 z"
                 id="path90" />
            </g>
            <g
               id="Combined-Shape-Copy"
               transform="rotate(89,7.552127,9.869856)">
              <use
                 height="100%"
                 width="100%"
                 y="0"
                 x="0"
                 style="fill:#0087f5;fill-rule:evenodd"
                 xlink:href="#path-2"
                 id="use93" />
              <path
                 style="stroke:#ffffff;stroke-width:1"
                 inkscape:connector-curvature="0"
                 d="m 9.0606469,8.641869 c 0.0018,0.018486 0.00198,0.028195 0.00254,0.057956 0,0.2177884 0.2834407,0.8965639 0.8386979,1.919209 l 1.2361832,1.372888 0.07356,0.10684 c 0.217812,0.425742 0.135223,0.869677 -0.211617,1.208649 -0.108575,0.106113 -0.23462,0.181825 -0.371749,0.226133 -0.231507,0.0748 -0.449834,0.05548 -0.6662318,-0.01482 -0.1406731,-0.0457 -0.054206,-0.01223 0.050705,-0.01223 -0.2558766,0 -0.095532,0.138629 -1.8800421,-1.469817 -0.159627,-0.178293 -0.7725161,-0.43009 -1.7781638,-0.684246 -1.4293149,-0.033 -2.5820022,-1.180089 -2.5820022,-2.5959363 0,-1.4366997 1.1868903,-2.5966667 2.6453313,-2.5966667 1.4155695,0 2.5812522,1.0947145 2.6427915,2.4820435 z"
                 id="path95" />
            </g>
          </g>
        </g>
        <g
           id="Group-3-Copy"
           transform="rotate(-180,5.950301,8.6133335)">
          <g
             id="Group-4">
            <g
               id="Group-3">
              <g
                 id="g104">
                <use
                   height="100%"
                   width="100%"
                   y="0"
                   x="0"
                   style="fill:#ff6502;fill-rule:evenodd"
                   xlink:href="#path-3"
                   id="use100" />
                <path
                   style="stroke:#ffffff;stroke-width:1"
                   inkscape:connector-curvature="0"
                   d="m 4.7881229,1.9820435 c 0.0018,0.018486 0.00198,0.028195 0.00254,0.057956 0,0.2177883 0.2834408,0.8965638 0.8386979,1.9192081 l 1.2361839,1.3728889 0.07356,0.1068398 C 7.1569158,5.8646785 7.074327,6.308613 6.7274864,6.6475859 6.6189114,6.753698 6.4928668,6.8294105 6.3557378,6.8737184 6.1242309,6.9485209 5.9059038,6.9292015 5.689506,6.8588969 5.5488328,6.8131943 5.6353,6.8466667 5.7402108,6.8466667 5.4843315,6.8466667 5.6446785,6.9852944 3.860166,5.3768492 3.7005391,5.1985566 3.0876499,4.9467595 2.0820023,4.692603 0.65268731,4.6596035 -0.5,3.5125141 -0.5,2.0966667 -0.5,0.65996694 0.68689034,-0.5 2.1453313,-0.5 c 1.4155695,0 2.5812522,1.09471451 2.6427916,2.4820435 z"
                   id="path102" />
              </g>
              <g
                 id="g110"
                 transform="rotate(89,7.552127,9.869856)">
                <use
                   height="100%"
                   width="100%"
                   y="0"
                   x="0"
                   style="fill:#fcd500;fill-rule:evenodd"
                   xlink:href="#path-4"
                   id="use106" />
                <path
                   style="stroke:#ffffff;stroke-width:1"
                   inkscape:connector-curvature="0"
                   d="m 9.0606469,8.641869 c 0.0018,0.018486 0.00198,0.028195 0.00254,0.057956 0,0.2177884 0.2834407,0.8965639 0.8386979,1.919209 l 1.2361832,1.372888 0.07356,0.10684 c 0.217812,0.425742 0.135223,0.869677 -0.211617,1.208649 -0.108575,0.106113 -0.23462,0.181825 -0.371749,0.226133 -0.231507,0.0748 -0.449834,0.05548 -0.6662318,-0.01482 -0.1406731,-0.0457 -0.054206,-0.01223 0.050705,-0.01223 -0.2558766,0 -0.095532,0.138629 -1.8800421,-1.469817 -0.159627,-0.178293 -0.7725161,-0.43009 -1.7781638,-0.684246 -1.4293149,-0.033 -2.5820022,-1.180089 -2.5820022,-2.5959363 0,-1.4366997 1.1868903,-2.5966667 2.6453313,-2.5966667 1.4155695,0 2.5812522,1.0947145 2.6427915,2.4820435 z"
                   id="path108" />
              </g>
            </g>
          </g>
        </g>
      </g>
    </g>
    <g
       id="Group-6"
       transform="translate(19.873494,13.94)" />
  </g>
</svg>
