<?xml version="1.0" encoding="UTF-8" standalone="no"?>
<svg
   xmlns:dc="http://purl.org/dc/elements/1.1/"
   xmlns:cc="http://creativecommons.org/ns#"
   xmlns:rdf="http://www.w3.org/1999/02/22-rdf-syntax-ns#"
   xmlns:svg="http://www.w3.org/2000/svg"
   xmlns="http://www.w3.org/2000/svg"
   xmlns:sodipodi="http://sodipodi.sourceforge.net/DTD/sodipodi-0.dtd"
   xmlns:inkscape="http://www.inkscape.org/namespaces/inkscape"
   viewBox="0 0 48 48"
   version="1.1"
   id="svg61"
   sodipodi:docname="uberwriter.svg"
   inkscape:version="0.92.2pre0 (973e216, 2017-07-25)">
  <metadata
     id="metadata65">
    <rdf:RDF>
      <cc:Work
         rdf:about="">
        <dc:format>image/svg+xml</dc:format>
        <dc:type
           rdf:resource="http://purl.org/dc/dcmitype/StillImage" />
      </cc:Work>
    </rdf:RDF>
  </metadata>
  <sodipodi:namedview
     pagecolor="#ffffff"
     bordercolor="#666666"
     borderopacity="1"
     objecttolerance="10"
     gridtolerance="10"
     guidetolerance="10"
     inkscape:pageopacity="0"
     inkscape:pageshadow="2"
     inkscape:window-width="1360"
     inkscape:window-height="691"
     id="namedview63"
     showgrid="false"
     inkscape:zoom="4.9166667"
     inkscape:cx="24"
     inkscape:cy="24"
     inkscape:window-x="0"
     inkscape:window-y="0"
     inkscape:window-maximized="1"
     inkscape:current-layer="svg61" />
  <defs
     id="defs17">
    <linearGradient
       id="linearGradient3764"
       x1="1"
       x2="47"
       gradientUnits="userSpaceOnUse"
       gradientTransform="matrix(0,-1,1,0,-1.5e-6,47.999998)">
      <stop
         stop-color="#cdc2b7"
         stop-opacity="1"
         id="stop2" />
      <stop
         offset="1"
         stop-color="#d5ccc2"
         stop-opacity="1"
         id="stop4" />
    </linearGradient>
    <clipPath
       id="clipPath-749153527">
      <g
         transform="translate(0,-1004.3622)"
         id="g9">
        <path
           d="m -24 13 c 0 1.105 -0.672 2 -1.5 2 -0.828 0 -1.5 -0.895 -1.5 -2 0 -1.105 0.672 -2 1.5 -2 0.828 0 1.5 0.895 1.5 2 z"
           transform="matrix(15.333333,0,0,11.5,414.99999,878.8622)"
           fill="#1890d0"
           id="path7" />
      </g>
    </clipPath>
    <clipPath
       id="clipPath-760664867">
      <g
         transform="translate(0,-1004.3622)"
         id="g14">
        <path
           d="m -24 13 c 0 1.105 -0.672 2 -1.5 2 -0.828 0 -1.5 -0.895 -1.5 -2 0 -1.105 0.672 -2 1.5 -2 0.828 0 1.5 0.895 1.5 2 z"
           transform="matrix(15.333333,0,0,11.5,414.99999,878.8622)"
           fill="#1890d0"
           id="path12" />
      </g>
    </clipPath>
    <linearGradient
       gradientUnits="userSpaceOnUse"
       y2="1"
       x2="0"
       y1="47"
       id="linearGradient3845">
      <stop
         id="stop2-3"
         style="stop-color:#b33c29;stop-opacity:1" />
      <stop
         id="stop4-6"
         style="stop-color:#c3412d;stop-opacity:1"
         offset="1" />
    </linearGradient>
    <linearGradient
       id="linearGradient-1"
       y2="57.818773"
       x2="10.817503"
       y1="37.852578"
       x1="10.817503"
       gradientTransform="scale(2.2184661,0.4507619)"
       gradientUnits="userSpaceOnUse">
      <stop
         id="stop6"
         offset="0%"
         stop-color="#FFFFFF" />
      <stop
         id="stop8"
         offset="100%"
         stop-color="#C7D9E8" />
    </linearGradient>
  </defs>
  <g
     id="g25">
    <path
       d="m 36.31 5 c 5.859 4.062 9.688 10.831 9.688 18.5 c 0 12.426 -10.07 22.5 -22.5 22.5 c -7.669 0 -14.438 -3.828 -18.5 -9.688 c 1.037 1.822 2.306 3.499 3.781 4.969 c 4.085 3.712 9.514 5.969 15.469 5.969 c 12.703 0 23 -10.298 23 -23 c 0 -5.954 -2.256 -11.384 -5.969 -15.469 c -1.469 -1.475 -3.147 -2.744 -4.969 -3.781 z m 4.969 3.781 c 3.854 4.113 6.219 9.637 6.219 15.719 c 0 12.703 -10.297 23 -23 23 c -6.081 0 -11.606 -2.364 -15.719 -6.219 c 4.16 4.144 9.883 6.719 16.219 6.719 c 12.703 0 23 -10.298 23 -23 c 0 -6.335 -2.575 -12.06 -6.719 -16.219 z"
       opacity="0.05"
       id="path19" />
    <path
       d="m 41.28 8.781 c 3.712 4.085 5.969 9.514 5.969 15.469 c 0 12.703 -10.297 23 -23 23 c -5.954 0 -11.384 -2.256 -15.469 -5.969 c 4.113 3.854 9.637 6.219 15.719 6.219 c 12.703 0 23 -10.298 23 -23 c 0 -6.081 -2.364 -11.606 -6.219 -15.719 z"
       opacity="0.1"
       id="path21" />
    <path
       d="m 31.25 2.375 c 8.615 3.154 14.75 11.417 14.75 21.13 c 0 12.426 -10.07 22.5 -22.5 22.5 c -9.708 0 -17.971 -6.135 -21.12 -14.75 a 23 23 0 0 0 44.875 -7 a 23 23 0 0 0 -16 -21.875 z"
       opacity="0.2"
       id="path23" />
  </g>
  <g
     id="g29">
    <path
       d="m 24 1 c 12.703 0 23 10.297 23 23 c 0 12.703 -10.297 23 -23 23 -12.703 0 -23 -10.297 -23 -23 0 -12.703 10.297 -23 23 -23 z"
       fill="url(#linearGradient3764)"
       fill-opacity="1"
       id="path27" />
  </g>
  <g
     id="g31" />
  <g
     id="g59">
    <path
       d="m 40.03 7.531 c 3.712 4.084 5.969 9.514 5.969 15.469 0 12.703 -10.297 23 -23 23 c -5.954 0 -11.384 -2.256 -15.469 -5.969 4.178 4.291 10.01 6.969 16.469 6.969 c 12.703 0 23 -10.298 23 -23 0 -6.462 -2.677 -12.291 -6.969 -16.469 z"
       opacity="0.1"
       id="path57" />
  </g>
  <text
     x="-39.344013"
     y="19.068325"
     line-height="125%"
     style="font-style:normal;font-variant:normal;font-weight:normal;font-stretch:normal;font-size:20px;line-height:125%;font-family:Montserrat;letter-spacing:0;word-spacing:0;fill:#000000;fill-opacity:1;stroke:none"
     id="text27">
    <tspan
       x="-39.344013"
       y="19.068325"
       style="font-family:Changa"
       id="tspan25" />
  </text>
  <g
     id="g851"
     transform="matrix(1.0978239,0,0,1.0841779,-2.7910289,-2.7185785)">
    <path
       style="fill:#e5b400;fill-rule:evenodd;stroke:none;stroke-width:0.97873855"
       inkscape:connector-curvature="0"
       d="M 34.493575,36.892234 H 14.788107 c -0.985273,0 -0.985273,-0.972246 -0.985273,-0.972246 V 12.586057 c 0,0 0,-0.972248 0.985273,-0.972248 h 13.793828 l 6.896914,6.805731 v 17.500448 c 0,0.972246 -0.985274,0.972246 -0.985274,0.972246 z"
       id="path14361-6" />
    <path
       style="fill:#ffffff;fill-rule:evenodd;stroke:none;stroke-width:0.97873855"
       inkscape:connector-curvature="0"
       d="M 23.498286,21.707174 H 19.913697 V 21.27544 c 0.315397,-0.02027 0.577214,-0.06081 0.785456,-0.121616 0.208242,-0.06081 0.312362,-0.135803 0.312362,-0.224988 0,-0.03649 -0.0041,-0.08108 -0.01213,-0.133777 -0.0081,-0.05269 -0.02022,-0.09932 -0.03638,-0.139858 L 20.2473,18.721516 h -3.014452 c -0.113219,0.283771 -0.205209,0.531054 -0.275971,0.741854 -0.07077,0.210802 -0.134446,0.405384 -0.191056,0.583754 -0.05256,0.174316 -0.08896,0.316199 -0.109176,0.425655 -0.02022,0.109454 -0.03033,0.198638 -0.03033,0.267552 0,0.162156 0.12737,0.287823 0.382113,0.377009 0.254743,0.08918 0.541832,0.141884 0.861272,0.1581 v 0.431734 H 14.630826 V 21.27544 c 0.105132,-0.0081 0.236545,-0.03141 0.394244,-0.06993 0.157698,-0.03851 0.28709,-0.0902 0.388179,-0.155059 0.161742,-0.109456 0.287089,-0.223975 0.376048,-0.343564 0.08896,-0.119589 0.175893,-0.284781 0.260808,-0.495582 0.432659,-1.082382 0.909791,-2.298523 1.431409,-3.648461 0.521618,-1.349932 0.986619,-2.551886 1.395018,-3.605889 h 0.485224 l 2.868883,7.442858 c 0.06066,0.1581 0.129393,0.285795 0.206221,0.383088 0.07683,0.09729 0.183979,0.192557 0.321461,0.285797 0.093,0.05674 0.214306,0.104387 0.363917,0.142897 0.149611,0.03851 0.274959,0.0598 0.376048,0.06384 z m -3.41784,-3.65554 -1.316481,-3.323219 -1.291988,3.323219 z m 9.374573,3.393997 c -0.191861,0.06893 -0.360246,0.124689 -0.505162,0.167267 -0.144915,0.04257 -0.309219,0.06386 -0.492915,0.06386 -0.318406,0 -0.572515,-0.074 -0.762335,-0.222007 -0.189818,-0.148006 -0.31126,-0.363927 -0.364328,-0.647774 h -0.03674 c -0.26534,0.291956 -0.550064,0.514975 -0.854184,0.669062 -0.304116,0.154087 -0.670482,0.23113 -1.099107,0.23113 -0.453116,0 -0.825605,-0.137867 -1.117477,-0.413603 -0.291873,-0.275737 -0.437807,-0.636622 -0.437807,-1.082667 0,-0.231132 0.03266,-0.437931 0.09797,-0.620403 0.06531,-0.182473 0.163283,-0.346696 0.293912,-0.492674 0.102055,-0.121647 0.236762,-0.230117 0.40413,-0.325407 0.167367,-0.09528 0.324526,-0.171321 0.471483,-0.22809 0.183695,-0.06894 0.556185,-0.196664 1.117478,-0.383192 0.561294,-0.186527 0.939906,-0.332503 1.135849,-0.437932 v -0.602157 c 0,-0.05271 -0.01122,-0.154086 -0.03368,-0.30412 -0.02246,-0.150033 -0.07042,-0.291953 -0.143894,-0.425768 -0.08164,-0.150033 -0.196962,-0.280802 -0.34596,-0.392314 -0.148997,-0.11151 -0.360245,-0.167265 -0.633748,-0.167265 -0.187777,0 -0.362286,0.03142 -0.523531,0.09427 -0.161244,0.06286 -0.274522,0.128742 -0.339836,0.197677 0,0.0811 0.01939,0.200719 0.05817,0.358862 0.03878,0.158142 0.05818,0.304118 0.05818,0.437933 0,0.141922 -0.06429,0.271679 -0.19288,0.389273 -0.128587,0.117592 -0.307177,0.176388 -0.535777,0.176388 -0.204106,0 -0.354122,-0.07197 -0.450052,-0.215923 -0.09593,-0.143952 -0.143895,-0.305134 -0.143895,-0.483552 0,-0.186527 0.06633,-0.364943 0.199003,-0.535249 0.132673,-0.170309 0.30514,-0.322368 0.517411,-0.45618 0.183696,-0.113539 0.406169,-0.209842 0.667425,-0.288914 0.261257,-0.07907 0.516386,-0.118606 0.765396,-0.118606 0.3429,0 0.641911,0.02331 0.897045,0.06994 0.255133,0.04663 0.48679,0.14699 0.69498,0.301077 0.208189,0.150034 0.366369,0.353793 0.474546,0.611282 0.108176,0.257489 0.162263,0.588977 0.162263,0.994471 0,0.579858 -0.0061,1.093815 -0.01836,1.541887 -0.01224,0.448072 -0.01836,0.937699 -0.01836,1.468898 0,0.158143 0.02756,0.283844 0.08266,0.377109 0.0551,0.09327 0.139812,0.172333 0.254111,0.237212 0.06124,0.03649 0.158181,0.05677 0.290851,0.06083 0.132669,0.0041 0.268398,0.0062 0.40719,0.0062 z m -2.136987,-3.188562 c -0.34698,0.100706 -0.651095,0.199393 -0.912352,0.296069 -0.261256,0.09668 -0.50414,0.217519 -0.728657,0.362532 -0.204106,0.136958 -0.365348,0.299089 -0.48373,0.486399 -0.118382,0.18731 -0.177572,0.409862 -0.177572,0.667664 0,0.334339 0.08878,0.580052 0.266358,0.73715 0.177573,0.157099 0.403107,0.235647 0.676611,0.235647 0.28983,0 0.54496,-0.06948 0.765395,-0.208457 0.220435,-0.13897 0.40617,-0.303116 0.557208,-0.492439 z"
       id="Aa" />
    <path
       style="fill:#f7d760;fill-rule:evenodd;stroke:none;stroke-width:0.97873855"
       inkscape:connector-curvature="0"
       d="m 29.567209,18.437688 c -0.985274,0 -0.985274,-0.990397 -0.985274,-0.990397 v -5.833482 l 6.896914,6.823879 z"
       id="path14363-7" />
    <path
       style="fill:#d0dfed;fill-rule:evenodd;stroke:none;stroke-width:0.97873855"
       inkscape:connector-curvature="0"
       d="m 12.817561,21.336243 c 0,-0.536936 0.440879,-0.97221 0.985958,-0.97221 h 21.674645 c 0.54453,0 0.985958,0.442091 0.985958,0.97221 v 14.583784 c 0,0.536936 -0.44088,0.972207 -0.985958,0.972207 H 13.803519 c -0.54453,0 -0.985958,-0.442089 -0.985958,-0.972207 z"
       id="rect11806-5" />
    <g
       style="fill:#10acff;fill-rule:evenodd;stroke:none;stroke-width:1"
       id="Page-1-3"
       transform="matrix(0.98527337,0,0,0.97224711,17.448346,28.142011)">
      <path
         inkscape:connector-curvature="0"
         d="m 5.0937364,1.8618047 c -0.058091,0 -1.6379091,9.3e-5 -1.6379091,9.3e-5 0,0 3.636e-4,-0.2408372 3.636e-4,-0.2775814 0,-0.094512 0.087727,-0.1871628 0.1829091,-0.1875349 0.088273,-2.791e-4 1.275,0 1.3664545,0 0.082364,0 0.178,0.094512 0.1775455,0.1860465 -3.636e-4,0.072558 -0.00145,0.1169302 -0.00145,0.1860465 0,0 0,0.09293 -0.087909,0.09293 m 0.4515454,1.3010232 c 0.093818,0 0.094364,-0.08586 0.094364,-0.094512 -1.818e-4,-0.032279 -6.363e-4,-0.2436279 -6.363e-4,-0.2761861 0,-0.093023 -0.092273,-0.094419 -0.092273,-0.094419 0,0 -1.795,-0.00149 -1.9105455,-0.00149 -0.1831818,0 -0.1803636,-0.1813954 -0.1803636,-0.1813954 -0.00236,-0.011814 9.09e-5,-0.1892093 0,-0.1892093 h 1.8189091 c 0.505,0 0.4538181,-0.372093 0.4538181,-0.372093 V 1.5847814 c 0,0 0.049273,-0.65451163 -0.634909,-0.65451163 H 3.5612818 c -0.6963636,0 -0.6491818,0.64576743 -0.6491818,0.64576743 0,0.3497674 1.818e-4,0.4747907 1.818e-4,0.9348837 0,0.651907 0.6372728,0.6489303 0.6372728,0.6489303 z"
         id="Fill-1-5" />
      <path
         inkscape:connector-curvature="0"
         d="m 2.1816909,2.6069302 c 0,0 0.00145,0.090698 -0.090909,0.090698 -0.099091,0 -0.583,0.00121 -0.8803636,2.791e-4 C 0.91305455,2.6969767 0.54832727,2.630186 0.54814545,2.0537209 0.54796364,1.4773488 0.95323636,1.3974419 1.2061454,1.3974419 c 0.2528182,0 0.975091,0.00102 0.975091,0.00102 0,0 4.545e-4,1.1258605 4.545e-4,1.2084651 m 0.455,-2.51395346 c -0.039,1.8605e-4 -0.3235454,1.8605e-4 -0.3624545,0 0,0 -0.091,0 -0.091,0.096 0,0.007628 -4.546e-4,0.74120931 -4.546e-4,0.74120931 -0.3826364,-9.303e-5 -0.7790909,1.8604e-4 -1.1773636,0 C 0.14987273,0.92990698 -7.6363636e-4,1.6880465 -3.6363636e-5,2.0478605 8.7272727e-4,2.4074884 0.15378182,3.1612558 1.0188727,3.1604186 1.8840545,3.1595814 1.9083273,3.1615386 2.2745091,3.1615386 2.7280546,3.1615386 2.7286,2.69912 2.7286,2.69912 V 0.186 c 0,-0.09302326 -0.091909,-0.09302326 -0.091909,-0.09302326"
         id="Fill-3-6" />
      <path
         inkscape:connector-curvature="0"
         d="m 12.274018,0.65116279 h -0.363636 c -0.05018,0 -0.09091,-0.0416744 -0.09091,-0.0930233 V 0.18604651 c 0,-0.0513488 0.04073,-0.09302325 0.09091,-0.09302325 h 0.363636 c 0.05018,0 0.09091,0.04167441 0.09091,0.09302325 v 0.37209302 c 0,0.0513488 -0.04073,0.0930233 -0.09091,0.0930233"
         id="Fill-6-2" />
      <path
         inkscape:connector-curvature="0"
         d="m 12.274018,3.1627907 h -0.363636 c -0.05018,0 -0.09091,-0.041674 -0.09091,-0.093023 V 1.0232558 c 0,-0.0513488 0.04073,-0.0930232 0.09091,-0.0930232 h 0.363636 c 0.05018,0 0.09091,0.0416744 0.09091,0.0930232 v 2.0465116 c 0,0.051349 -0.04073,0.093023 -0.09091,0.093023"
         id="Fill-9-9" />
      <path
         inkscape:connector-curvature="0"
         d="M 14.0013,0.93084651 C 13.333482,0.92991628 12.546755,0.93066046 12.546755,0.93066046 V 3.0683349 c 0,0.04214 0.02636,0.1043721 0.108818,0.093581 0.08891,-2.791e-4 0.228636,-8.372e-4 0.317545,-0.00112 0.125273,0.018326 0.121637,-0.093954 0.121637,-0.093954 L 13.092027,1.3968 c 0,0 0.665182,-6.512e-4 0.908546,-6.512e-4 0.01518,0 0.367182,0.00698 0.367182,0.4642791 l -0.0026,1.2094884 c -9.1e-5,0.051442 0.04064,0.093209 0.091,0.093209 l 0.363455,-2.791e-4 c 0.05018,0 0.09082,-0.041674 0.09082,-0.093023 V 1.8181954 c 0,-0.515628 -0.241273,-0.88641866 -0.909091,-0.88734889"
         id="Fill-11-1" />
      <path
         inkscape:connector-curvature="0"
         d="m 9.4559636,1.4848093 c 0,0 -0.00145,-0.090698 0.090909,-0.090698 0.099091,0 0.5830004,-0.00121 0.8803634,-2.79e-4 0.297364,9.302e-4 0.662091,0.067721 0.662273,0.644186 1.82e-4,0.5763721 -0.405091,0.6562791 -0.658,0.6562791 -0.252909,0 -0.9750909,-0.00102 -0.9750909,-0.00102 0,0 -4.546e-4,-1.1258605 -4.546e-4,-1.2084651 M 9.0016,3.9987628 c 0.039,-1.861e-4 0.3231818,-1.861e-4 0.3620909,0 0,0 0.090909,0 0.090909,-0.096 0,-0.00763 2.727e-4,-0.7412093 2.727e-4,-0.7412093 0.3827273,9.3e-5 0.7790914,-1.861e-4 1.1774544,0 0.855455,2.791e-4 1.006091,-0.7578605 1.005364,-1.1176744 -9.09e-4,-0.3596279 -0.153818,-1.11339538 -1.018909,-1.11255817 -0.8651821,8.3721e-4 -0.8887275,-0.001116 -1.2550003,-0.001116 -0.4535454,0 -0.4533636,0.46241867 -0.4533636,0.46241867 v 2.5131162 c 0,0.093023 0.091182,0.093023 0.091182,0.093023"
         id="Fill-16-2" />
      <path
         inkscape:connector-curvature="0"
         d="m 8.0937364,1.8618047 c -0.058091,0 -1.6379091,9.3e-5 -1.6379091,9.3e-5 0,0 3.636e-4,-0.2408372 3.636e-4,-0.2775814 0,-0.094512 0.087727,-0.1871628 0.1829091,-0.1875349 0.088273,-2.791e-4 1.275,0 1.3664545,0 0.082364,0 0.1780001,0.094512 0.1775455,0.1860465 -3.636e-4,0.072558 -0.00136,0.1169302 -0.00136,0.1860465 0,0 0,0.09293 -0.088,0.09293 m 0.4515454,1.3010232 c 0.093818,0 0.094364,-0.08586 0.094364,-0.094512 -1.819e-4,-0.032279 -6.364e-4,-0.2436279 -6.364e-4,-0.2761861 0,-0.093023 -0.092273,-0.094419 -0.092273,-0.094419 0,0 -1.795,-0.00149 -1.9105455,-0.00149 -0.1831818,0 -0.1803636,-0.1813954 -0.1803636,-0.1813954 -0.00236,-0.011814 9.09e-5,-0.1892093 0,-0.1892093 H 8.27474 c 0.505,0 0.4538182,-0.372093 0.4538182,-0.372093 V 1.5847814 c 0,0 0.049273,-0.65451163 -0.6349091,-0.65451163 H 6.5612818 c -0.6963636,0 -0.6491818,0.64576743 -0.6491818,0.64576743 0,0.3497674 1.818e-4,0.4747907 1.818e-4,0.9348837 0,0.651907 0.6372727,0.6489303 0.6372727,0.6489303 z"
         id="Fill-21-7" />
    </g>
    <path
       style="fill:#ccdcea;fill-rule:evenodd;stroke:none;stroke-width:0.97873855"
       inkscape:connector-curvature="0"
       d="m 38.834066,25.593554 c 0.129127,0.333559 -0.0523,0.603963 -0.424307,0.603963 H 10.817404 c -0.363463,0 -0.55186,-0.275222 -0.424947,-0.603963 l 2.161068,-5.597805 c 0.128773,-0.333559 0.532143,-0.603962 0.890288,-0.603962 h 22.332312 c 0.36292,0 0.763668,0.275221 0.890929,0.603962 z"
       id="polygon11815-0" />
    <polygon
       transform="matrix(0.98527337,0,0,0.97224711,8.8764676,8.6970678)"
       style="fill:#ffffff;fill-rule:evenodd;stroke:none;stroke-width:1"
       id="polygon860"
       points="26.968667,11 29,17 3,17 4.9686667,11 " />
  </g>
</svg>
