<?xml version="1.0" encoding="UTF-8" standalone="no"?>
<!-- Generator: Adobe Illustrator 18.0.0, SVG Export Plug-In . SVG Version: 6.00 Build 0)  -->

<svg
   xmlns:dc="http://purl.org/dc/elements/1.1/"
   xmlns:cc="http://creativecommons.org/ns#"
   xmlns:rdf="http://www.w3.org/1999/02/22-rdf-syntax-ns#"
   xmlns:svg="http://www.w3.org/2000/svg"
   xmlns="http://www.w3.org/2000/svg"
   xmlns:sodipodi="http://sodipodi.sourceforge.net/DTD/sodipodi-0.dtd"
   xmlns:inkscape="http://www.inkscape.org/namespaces/inkscape"
   version="1.1"
   id="图层_1"
   x="0px"
   y="0px"
   viewBox="0 0 48 48"
   style="enable-background:new 0 0 48 48;"
   xml:space="preserve"
   sodipodi:docname="Deepin camera.svg"
   inkscape:version="0.92.2pre0 (973e216, 2017-07-25)"><metadata
     id="metadata39"><rdf:RDF><cc:Work
         rdf:about=""><dc:format>image/svg+xml</dc:format><dc:type
           rdf:resource="http://purl.org/dc/dcmitype/StillImage" /><dc:title /></cc:Work></rdf:RDF></metadata><defs
     id="defs37"><linearGradient
       gradientUnits="userSpaceOnUse"
       id="SVGID_2_"
       x1="42.666668"
       x2="469.33334"
       y1="256.00052"
       y2="256.00052"
       gradientTransform="matrix(-0.04488234,-0.09936931,0.09958671,-0.04478435,9.9584617,61.012292)"><stop
         offset="0"
         style="stop-color:#0095DA"
         id="stop9" /><stop
         offset="1"
         style="stop-color:#00AEEE"
         id="stop11-3" /></linearGradient><linearGradient
       gradientTransform="rotate(-90,23.999998,24)"
       gradientUnits="userSpaceOnUse"
       x2="47"
       x1="1"
       id="linearGradient3764"><stop
         id="stop2"
         stop-opacity="1"
         stop-color="#5e6670" /><stop
         id="stop4"
         stop-opacity="1"
         stop-color="#67707b"
         offset="1" /></linearGradient><clipPath
       id="clipPath-561578208"><g
         id="g9"
         transform="translate(0,-1004.3622)"><path
           id="path7"
           fill="#1890d0"
           transform="matrix(15.333333,0,0,11.5,414.99999,878.8622)"
           d="m -24 13 c 0 1.105 -0.672 2 -1.5 2 -0.828 0 -1.5 -0.895 -1.5 -2 0 -1.105 0.672 -2 1.5 -2 0.828 0 1.5 0.895 1.5 2 z" /></g></clipPath><clipPath
       id="clipPath-572739784"><g
         id="g14"
         transform="translate(0,-1004.3622)"><path
           id="path12"
           fill="#1890d0"
           transform="matrix(15.333333,0,0,11.5,414.99999,878.8622)"
           d="m -24 13 c 0 1.105 -0.672 2 -1.5 2 -0.828 0 -1.5 -0.895 -1.5 -2 0 -1.105 0.672 -2 1.5 -2 0.828 0 1.5 0.895 1.5 2 z" /></g></clipPath><linearGradient
       gradientUnits="userSpaceOnUse"
       gradientTransform="matrix(0.31423376,0,0,0.17763144,7.7990471,-7.9630189)"
       id="linearGradient-3"
       y2="255.83865"
       x2="18.330301"
       y1="252.17261"
       x1="18.330301"><stop
         id="stop18"
         offset="0%"
         stop-color="#FFFFFF" /><stop
         id="stop20"
         offset="100%"
         stop-opacity="0"
         stop-color="#FFFFFF" /></linearGradient></defs><sodipodi:namedview
     pagecolor="#ffffff"
     bordercolor="#666666"
     borderopacity="1"
     objecttolerance="10"
     gridtolerance="10"
     guidetolerance="10"
     inkscape:pageopacity="0"
     inkscape:pageshadow="2"
     inkscape:window-width="1360"
     inkscape:window-height="695"
     id="namedview35"
     showgrid="false"
     inkscape:zoom="4.9166667"
     inkscape:cx="97.969545"
     inkscape:cy="41.270688"
     inkscape:window-x="0"
     inkscape:window-y="0"
     inkscape:window-maximized="1"
     inkscape:current-layer="图层_1" /><g
     style="display:none;opacity:0.5;"
     id="g4"><rect
       x="0.006"
       y="0.022"
       style="display:inline;"
       width="48"
       height="48"
       id="rect2" /></g><g
     id="g31"
     transform="matrix(0.93220101,0,0,0.92650889,1.7952597,1.6462452)" /><path
     inkscape:connector-curvature="0"
     d="m 23.872481,4.7531269 c -0.787536,0.012027 -1.563143,0.069967 -2.32523,0.1728559 L 43.344135,26.579939 c 0.103567,-0.756738 0.161802,-1.527874 0.173997,-2.309984 L 23.873012,4.7536536 M 26.510271,4.8908674 43.383282,21.653238 C 43.253734,20.580373 43.034317,19.536653 42.734306,18.525767 L 29.655823,5.5330415 C 28.639943,5.2355257 27.58845,5.0199167 26.510447,4.891043 m -7.058404,0.4362218 c -0.650655,0.1623213 -1.28832,0.3584413 -1.910961,0.5843216 L 42.353086,30.560892 c 0.22746,-0.61891 0.424786,-1.252042 0.588178,-1.89843 L 19.45213,5.3273527 m -3.670016,1.3194639 c -0.55504,0.2659997 -1.094263,0.559565 -1.618285,0.8751653 L 40.732591,33.916527 c 0.317684,-0.520587 0.613187,-1.056098 0.880942,-1.607674 L 15.782644,6.6473433 m 18.328435,0.8285496 6.671794,6.6280451 C 39.143114,11.385562 36.847045,9.1053386 34.111079,7.4758929 M 12.671202,8.5211049 C 12.194898,8.8719085 11.7345,9.2430791 11.293189,9.6349677 L 38.606896,36.769571 c 0.394387,-0.438417 0.768095,-0.895795 1.121215,-1.368976 L 12.670672,8.5205782 M 10.030674,10.863483 C 9.6273615,11.292945 9.2446391,11.74014 8.8818879,12.204981 L 36.018858,39.164007 c 0.467468,-0.360021 0.91841,-0.741024 1.350354,-1.141252 L 10.030762,10.86357 M 7.8491296,13.661834 C 7.5219908,14.172326 7.2190648,14.700287 6.9406168,15.242031 L 32.962382,41.093164 c 0.545319,-0.276623 1.076765,-0.577562 1.590625,-0.902555 L 7.8490412,13.661747 M 6.1647446,16.953822 C 5.9256204,17.559564 5.7151275,18.179967 5.5378611,18.814065 L 29.367212,42.48716 c 0.638107,-0.176455 1.262604,-0.385128 1.872521,-0.622772 L 6.1652748,16.954349 m -1.074203,3.898695 C 4.9701841,21.589241 4.8877366,22.338166 4.8535382,23.099908 L 25.050959,43.164889 c 0.767743,-0.0338 1.522494,-0.112984 2.264433,-0.233167 L 5.0908066,20.852869 m -0.1823034,4.784483 c 0.088103,1.017295 0.2557374,2.0108 0.4970707,2.976563 L 19.502943,42.618843 c 0.972049,0.239751 1.972288,0.406286 2.996209,0.493812 L 4.9085915,25.63744 m 1.9582379,6.910725 c 1.8734045,3.724873 4.9274076,6.758411 8.6768676,8.619971 L 6.8668294,32.548165"
     id="path25"
     style="opacity:0;fill:#ffffff;fill-rule:evenodd;stroke-width:0.08807794" /><path
     style="fill:#e6e6e6;fill-opacity:1;fill-rule:evenodd;stroke-width:0.09843948"
     id="path903"
     d="m 2.5482171,23.882461 c 0,11.862529 9.6796069,21.479126 21.6198669,21.479126 11.94026,0 21.619871,-9.616597 21.619871,-21.479126 0,-11.862533 -9.679611,-21.4791312 -21.619871,-21.4791312 -11.94026,0 -21.6198669,9.6165982 -21.6198669,21.4791312"
     inkscape:connector-curvature="0" /><path
     inkscape:connector-curvature="0"
     d="M 42.859158,28.860131 C 45.624004,18.604593 39.497048,8.0621398 29.17431,5.3130595 18.851571,2.5639793 8.2418585,8.6492399 5.4770156,18.904778 2.7121633,29.160319 8.8391197,39.702779 19.161862,42.451859 29.484601,45.200939 40.094311,39.115673 42.859158,28.860131"
     id="path913"
     style="fill:#999999;fill-opacity:1;fill-rule:evenodd;stroke-width:0.08810624" /><g
     transform="matrix(1.2723839,0,0,1.2759426,-6.1904684,-7.2310079)"
     id="g857"><g
       transform="matrix(0.68697267,0,0,0.68169452,7.4183243,7.9736663)"
       id="g8"><g
         id="g6"><circle
           style="fill:#2e3133"
           id="circle4"
           r="21"
           cy="24"
           cx="24" /></g></g><ellipse
       ry="11.588807"
       rx="11.678535"
       style="fill:#00040c;stroke-width:0.6843285"
       id="circle10"
       cy="24.334335"
       cx="23.905668" /><ellipse
       ry="10.225418"
       rx="10.304589"
       style="fill:#35c8e2;fill-opacity:1;stroke-width:0.6843285"
       id="circle12"
       cy="24.334335"
       cx="23.905668" /><ellipse
       ry="8.9472408"
       rx="9.0165167"
       style="fill:#00abdd;fill-opacity:1;stroke-width:0.6843285"
       id="circle14"
       cy="24.334335"
       cx="23.905668" /><ellipse
       ry="6.135251"
       rx="6.182754"
       style="fill:#128ed0;fill-opacity:1;stroke-width:0.6843285"
       id="circle16"
       cy="24.334335"
       cx="23.905668" /><ellipse
       ry="4.090167"
       rx="4.1218362"
       style="fill:#005fff;fill-opacity:1;stroke-width:0.6843285"
       id="circle18"
       cy="24.334335"
       cx="23.905668" /><ellipse
       ry="2.5563545"
       rx="2.5761473"
       style="fill:#052314;stroke-width:0.6843285"
       id="circle20"
       cy="24.334335"
       cx="23.905668" /><ellipse
       ry="2.7267783"
       rx="2.7478905"
       style="opacity:0.6;fill:#fffce4;fill-opacity:0.68159204;stroke-width:0.6843285"
       id="circle22"
       cy="18.8167"
       cx="19.676664"
       enable-background="new    " /><ellipse
       ry="0.74509215"
       rx="0.75086117"
       style="opacity:0.8;fill:#ffffff;stroke-width:0.6843285"
       id="circle24"
       cy="23.140688"
       cx="23.261288"
       enable-background="new    " /></g></svg>