<?xml version="1.0" encoding="UTF-8" standalone="no"?>
<svg
   xmlns:dc="http://purl.org/dc/elements/1.1/"
   xmlns:cc="http://creativecommons.org/ns#"
   xmlns:rdf="http://www.w3.org/1999/02/22-rdf-syntax-ns#"
   xmlns:svg="http://www.w3.org/2000/svg"
   xmlns="http://www.w3.org/2000/svg"
   xmlns:sodipodi="http://sodipodi.sourceforge.net/DTD/sodipodi-0.dtd"
   xmlns:inkscape="http://www.inkscape.org/namespaces/inkscape"
   viewBox="0 0 48 48"
   version="1.1"
   id="svg65"
   sodipodi:docname="draw.io.svg"
   inkscape:version="0.92.2pre0 (973e216, 2017-07-25)">
  <metadata
     id="metadata69">
    <rdf:RDF>
      <cc:Work
         rdf:about="">
        <dc:format>image/svg+xml</dc:format>
        <dc:type
           rdf:resource="http://purl.org/dc/dcmitype/StillImage" />
      </cc:Work>
    </rdf:RDF>
  </metadata>
  <sodipodi:namedview
     pagecolor="#ffffff"
     bordercolor="#666666"
     borderopacity="1"
     objecttolerance="10"
     gridtolerance="10"
     guidetolerance="10"
     inkscape:pageopacity="0"
     inkscape:pageshadow="2"
     inkscape:window-width="1360"
     inkscape:window-height="696"
     id="namedview67"
     showgrid="false"
     inkscape:zoom="9.8333333"
     inkscape:cx="37.290355"
     inkscape:cy="24.035535"
     inkscape:window-x="0"
     inkscape:window-y="0"
     inkscape:window-maximized="1"
     inkscape:current-layer="svg65"
     showguides="false">
    <inkscape:grid
       type="xygrid"
       id="grid27" />
  </sodipodi:namedview>
  <defs
     id="defs17">
    <linearGradient
       id="linearGradient3764"
       x1="1"
       x2="47"
       gradientUnits="userSpaceOnUse"
       gradientTransform="matrix(0,-1,1,0,-1.5e-6,47.999998)">
      <stop
         stop-color="#d6740a"
         stop-opacity="1"
         id="stop2" />
      <stop
         offset="1"
         stop-color="#e87e0b"
         stop-opacity="1"
         id="stop4" />
    </linearGradient>
    <clipPath
       id="clipPath-059275953">
      <g
         transform="translate(0,-1004.3622)"
         id="g9">
        <path
           d="m -24 13 c 0 1.105 -0.672 2 -1.5 2 -0.828 0 -1.5 -0.895 -1.5 -2 0 -1.105 0.672 -2 1.5 -2 0.828 0 1.5 0.895 1.5 2 z"
           transform="matrix(15.333333,0,0,11.5,414.99999,878.8622)"
           fill="#1890d0"
           id="path7" />
      </g>
    </clipPath>
    <clipPath
       id="clipPath-069049578">
      <g
         transform="translate(0,-1004.3622)"
         id="g14">
        <path
           d="m -24 13 c 0 1.105 -0.672 2 -1.5 2 -0.828 0 -1.5 -0.895 -1.5 -2 0 -1.105 0.672 -2 1.5 -2 0.828 0 1.5 0.895 1.5 2 z"
           transform="matrix(15.333333,0,0,11.5,414.99999,878.8622)"
           fill="#1890d0"
           id="path12" />
      </g>
    </clipPath>
  </defs>
  <path
     inkscape:connector-curvature="0"
     style="fill:#fa6e0c;fill-opacity:1"
     id="path27"
     d="M 24,1 C 36.703,1 47,11.297 47,24 47,36.703 36.703,47 24,47 11.297,47 1,36.703 1,24 1,11.297 11.297,1 24,1 Z" />
  <g
     id="g31" />
  <g
     id="g48"
     transform="matrix(1.0349447,0,0,1.0158769,-1.5768931,-0.56171243)">
    <path
       d="m 14.001662,31.569547 a 1.25,2.0101328 0 0 0 2.148009,1.395719 l 8.77328,-14.146849 8.390807,14.736231 a 1.2504692,2.0108874 0 1 0 1.843401,-2.717921 L 25,13 14.37987,30.125223 a 1.25,2.0101328 0 0 0 -0.378208,1.444324"
       mix-blend-mode="normal"
       isolation="auto"
       style="color:#000000;white-space:normal;display:inline;visibility:visible;opacity:1;isolation:auto;mix-blend-mode:normal;color-interpolation:sRGB;color-interpolation-filters:linearRGB;solid-color:#000000;solid-opacity:1;fill:#ffffff;fill-opacity:1;fill-rule:evenodd;stroke:none;stroke-width:1.26811135;color-rendering:auto;image-rendering:auto;shape-rendering:auto"
       id="path24"
       inkscape:connector-curvature="0" />
    <path
       d="m 20.610169,16.629101 c 0,0 0,2.289682 2.237288,2.289682 h 4.474577 c 2.237288,0 2.237288,-2.289682 2.237288,-2.289682 v -4.581047 c 0,-2.2896833 -2.237288,-2.2896833 -2.237288,-2.2896833 h -4.474577 c -2.237288,0 -2.237288,2.2896833 -2.237288,2.2896833 m 0,4.581047"
       id="path51"
       inkscape:connector-curvature="0"
       style="fill:#ffffff;fill-opacity:1;fill-rule:nonzero;stroke:none;stroke-width:0.39569017" />
    <path
       d="m 10.20339,32.784436 c 0,0 0,2.289683 2.237288,2.289683 h 4.474577 c 2.237288,0 2.237288,-2.289683 2.237288,-2.289683 v -4.581047 c 0,-2.289682 -2.237288,-2.289682 -2.237288,-2.289682 h -4.474577 c -2.237288,0 -2.237288,2.289682 -2.237288,2.289682 m 0,4.581047"
       id="path51-3"
       inkscape:connector-curvature="0"
       style="fill:#ffffff;fill-opacity:1;fill-rule:nonzero;stroke:none;stroke-width:0.39569017" />
    <path
       d="m 30.355931,33.089522 c 0,0 0,2.289683 2.237288,2.289683 h 4.474577 c 2.237288,0 2.237288,-2.289683 2.237288,-2.289683 v -4.581047 c 0,-2.289682 -2.237288,-2.289682 -2.237288,-2.289682 h -4.474577 c -2.237288,0 -2.237288,2.289682 -2.237288,2.289682 m 0,4.581047"
       id="path51-6"
       inkscape:connector-curvature="0"
       style="fill:#ffffff;fill-opacity:1;fill-rule:nonzero;stroke:none;stroke-width:0.39569017" />
  </g>
</svg>
