<?xml version="1.0" encoding="UTF-8" standalone="no"?>
<svg
   xmlns:dc="http://purl.org/dc/elements/1.1/"
   xmlns:cc="http://creativecommons.org/ns#"
   xmlns:rdf="http://www.w3.org/1999/02/22-rdf-syntax-ns#"
   xmlns:svg="http://www.w3.org/2000/svg"
   xmlns="http://www.w3.org/2000/svg"
   xmlns:sodipodi="http://sodipodi.sourceforge.net/DTD/sodipodi-0.dtd"
   xmlns:inkscape="http://www.inkscape.org/namespaces/inkscape"
   height="48"
   width="48"
   version="1"
   id="svg12"
   sodipodi:docname="drweb-gui.svg"
   inkscape:version="0.92.2pre0 (973e216, 2017-07-25)">
  <metadata
     id="metadata18">
    <rdf:RDF>
      <cc:Work
         rdf:about="">
        <dc:format>image/svg+xml</dc:format>
        <dc:type
           rdf:resource="http://purl.org/dc/dcmitype/StillImage" />
      </cc:Work>
    </rdf:RDF>
  </metadata>
  <defs
     id="defs16" />
  <sodipodi:namedview
     pagecolor="#ffffff"
     bordercolor="#666666"
     borderopacity="1"
     objecttolerance="10"
     gridtolerance="10"
     guidetolerance="10"
     inkscape:pageopacity="0"
     inkscape:pageshadow="2"
     inkscape:window-width="1360"
     inkscape:window-height="740"
     id="namedview14"
     showgrid="false"
     inkscape:zoom="4.9166667"
     inkscape:cx="24"
     inkscape:cy="24"
     inkscape:window-x="0"
     inkscape:window-y="0"
     inkscape:window-maximized="1"
     inkscape:current-layer="svg12" />
  <rect
     transform="matrix(0,-1,-1,0,0,0)"
     rx="22.949152"
     ry="22.74552"
     height="45.491039"
     width="45.898304"
     y="-46.643826"
     x="-46.847458"
     id="rect2"
     style="fill:#5db43e;stroke-width:1.14235544" />
  <path
     d="m 23.898305,0.94915254 c -12.601017,0 -22.7455187,10.23532246 -22.7455187,22.94915246 0,0.192773 -0.00454,0.382104 0,0.573729 C 1.453482,12.026709 11.48835,2.0966101 23.898305,2.0966101 c 12.409955,0 22.445278,9.9300989 22.745518,22.3754239 0.0046,-0.191625 0,-0.380956 0,-0.573729 0,-12.71383 -10.144501,-22.94915246 -22.745518,-22.94915246 z"
     id="path4"
     inkscape:connector-curvature="0"
     style="opacity:0.2;fill:#ffffff;stroke-width:1.14235544" />
  <path
     d="m 13.662821,13.571187 3.980467,4.58983 1.705913,-1.147458 -2.274551,-2.294915 2.274551,-1.147457 z m 14.784588,0 2.274552,1.147457 -2.274552,2.294915 1.705914,1.147458 3.980465,-4.58983 z m -4.549104,2.294915 c -2.327095,0.0074 -5.129228,0.684034 -5.117742,5.163559 l 5.117742,-2.868644 5.117742,2.868644 c 0.01137,-4.479674 -2.790875,-5.156674 -5.117742,-5.163559 z m -13.647311,1.147457 1.705914,5.737288 0.568638,-2.294914 3.411827,0.573728 1.137277,-1.721186 z m 27.294622,0 -6.823655,2.294916 1.137275,1.721186 3.411828,-0.573728 0.568638,2.294914 z m -13.647311,2.868644 -2.84319,1.721187 0.568638,2.294915 1.137276,-2.294915 h 2.274551 l 1.137276,2.294915 0.568638,-2.294915 z m -9.098208,2.868644 -7.9609311,2.294915 4.5491041,2.294916 v -1.721187 l 2.843189,-0.573729 z m 4.549104,0 -3.411828,1.147458 c 0.02237,2.945983 1.658945,5.862017 3.305152,7.216475 1.153198,0.925999 2.24157,1.65693 2.950093,1.9633 0.813505,0.307324 0.39285,-0.861866 0.568638,-1.147457 h 2.274553 c 0.175788,0.285591 -0.244867,1.454747 0.568638,1.147457 0.70892,-0.306153 1.797122,-1.036807 2.949866,-1.963184 1.645638,-1.354 3.282177,-4.270837 3.304923,-7.216361 L 28.447409,22.751077 27.310133,26.19345 H 25.03558 l -1.137275,-3.442373 -1.137276,3.442373 h -2.274552 l -1.137276,-3.442373 z m 13.647311,0 0.568638,2.294915 2.84319,0.573729 v 1.721187 l 4.549104,-2.294916 z m -18.196415,4.589831 -4.549103,2.294915 7.960932,9.179662 z m 18.196415,0 -3.411827,11.474577 7.960931,-9.179662 z"
     id="path8"
     inkscape:connector-curvature="0"
     style="opacity:0.2;stroke-width:1.14235544" />
  <path
     d="m 13.662821,12.423728 3.980467,4.589831 1.705913,-1.147457 -2.274551,-2.294915 2.274551,-1.147459 z m 14.784588,0 2.274552,1.147459 -2.274552,2.294915 1.705914,1.147457 3.980465,-4.589831 z m -4.549104,2.294916 c -2.326866,0.0069 -5.129114,0.683884 -5.117742,5.163559 l 5.117742,-2.868644 5.117742,2.868644 c 0.01137,-4.479675 -2.790875,-5.156675 -5.117742,-5.163559 z m -13.647311,1.147458 1.705914,5.737288 0.568638,-2.294915 3.411827,0.573728 1.137277,-1.721186 z m 27.294622,0 -6.823655,2.294915 1.137275,1.721186 3.411828,-0.573728 0.568638,2.294915 z m -13.647311,2.868644 -2.84319,1.721187 0.568638,2.294914 1.137276,-2.294914 h 2.274551 l 1.137276,2.294914 0.568638,-2.294914 z m -9.098208,2.868644 -7.9609311,2.294915 4.5491041,2.294916 v -1.721187 l 2.843189,-0.573729 z m 4.549104,0 -3.411828,1.147457 c 0.02274,2.945524 1.659286,5.862362 3.304924,7.216362 1.153198,0.925997 2.241571,1.656928 2.950094,1.9633 0.813152,0.307518 0.39236,-0.861741 0.568638,-1.147459 h 2.274551 c 0.176278,0.285718 -0.244513,1.454977 0.568638,1.147459 0.708524,-0.306372 1.796897,-1.037303 2.950095,-1.9633 1.645638,-1.354 3.282177,-4.270838 3.304923,-7.216362 L 28.447409,21.60339 27.310133,25.045762 H 25.03558 l -1.137275,-3.442372 -1.137276,3.442372 h -2.274552 z m 13.647311,0 0.568638,2.294915 2.84319,0.573729 v 1.721187 l 4.549104,-2.294916 z m -18.196415,4.589831 -4.549103,2.294915 7.960932,9.179661 z m 18.196415,0 -3.411827,11.474576 7.960931,-9.179661 z"
     id="path10"
     inkscape:connector-curvature="0"
     style="fill:#ffffff;stroke-width:1.14235544" />
</svg>
