<?xml version="1.0" encoding="UTF-8" standalone="no"?>
<svg
   xmlns:dc="http://purl.org/dc/elements/1.1/"
   xmlns:cc="http://creativecommons.org/ns#"
   xmlns:rdf="http://www.w3.org/1999/02/22-rdf-syntax-ns#"
   xmlns:svg="http://www.w3.org/2000/svg"
   xmlns="http://www.w3.org/2000/svg"
   xmlns:xlink="http://www.w3.org/1999/xlink"
   xmlns:sodipodi="http://sodipodi.sourceforge.net/DTD/sodipodi-0.dtd"
   xmlns:inkscape="http://www.inkscape.org/namespaces/inkscape"
   viewBox="0 0 48 48"
   version="1.1"
   id="svg69"
   sodipodi:docname="apps.com.wunderlist.svg"
   inkscape:version="0.92.2pre0 (973e216, 2017-07-25)">
  <metadata
     id="metadata73">
    <rdf:RDF>
      <cc:Work
         rdf:about="">
        <dc:format>image/svg+xml</dc:format>
        <dc:type
           rdf:resource="http://purl.org/dc/dcmitype/StillImage" />
      </cc:Work>
    </rdf:RDF>
  </metadata>
  <sodipodi:namedview
     pagecolor="#ffffff"
     bordercolor="#666666"
     borderopacity="1"
     objecttolerance="10"
     gridtolerance="10"
     guidetolerance="10"
     inkscape:pageopacity="0"
     inkscape:pageshadow="2"
     inkscape:window-width="1360"
     inkscape:window-height="691"
     id="namedview71"
     showgrid="false"
     inkscape:zoom="4.9166667"
     inkscape:cx="24"
     inkscape:cy="24"
     inkscape:window-x="0"
     inkscape:window-y="0"
     inkscape:window-maximized="1"
     inkscape:current-layer="svg69" />
  <defs
     id="defs25">
    <clipPath
       id="clipPath-394982469">
      <g
         transform="translate(0,-1004.3622)"
         id="g4">
        <path
           d="m -24 13 c 0 1.105 -0.672 2 -1.5 2 -0.828 0 -1.5 -0.895 -1.5 -2 0 -1.105 0.672 -2 1.5 -2 0.828 0 1.5 0.895 1.5 2 z"
           transform="matrix(15.333333,0,0,11.5,414.99999,878.8622)"
           fill="#1890d0"
           id="path2" />
      </g>
    </clipPath>
    <clipPath
       id="clipPath-404544769">
      <g
         transform="translate(0,-1004.3622)"
         id="g9">
        <path
           d="m -24 13 c 0 1.105 -0.672 2 -1.5 2 -0.828 0 -1.5 -0.895 -1.5 -2 0 -1.105 0.672 -2 1.5 -2 0.828 0 1.5 0.895 1.5 2 z"
           transform="matrix(15.333333,0,0,11.5,414.99999,878.8622)"
           fill="#1890d0"
           id="path7" />
      </g>
    </clipPath>
    <linearGradient
       id="linear0"
       gradientUnits="userSpaceOnUse"
       y1="1009.36"
       x2="0"
       y2="1039.36"
       gradientTransform="matrix(1,0,0,1,-0.0000000472441,-1006.3622)">
      <stop
         stop-color="#f45b45"
         stop-opacity="1"
         id="stop12" />
      <stop
         offset="0.5"
         stop-color="#db3d28"
         stop-opacity="1"
         id="stop14" />
      <stop
         offset="1"
         stop-color="#f45b45"
         stop-opacity="1"
         id="stop16" />
    </linearGradient>
    <linearGradient
       xlink:href="#linear0"
       id="linearGradient3064"
       gradientUnits="userSpaceOnUse"
       gradientTransform="matrix(0,-1,1,0,-1.5e-6,47.999998)"
       x1="1"
       x2="47" />
    <linearGradient
       id="linearGradient3834"
       gradientUnits="userSpaceOnUse"
       gradientTransform="matrix(0,-1,1,0,-1.5e-6,47.999998)"
       x1="1"
       x2="47">
      <stop
         stop-color="#eaeaea"
         stop-opacity="1"
         id="stop20" />
      <stop
         offset="1"
         stop-color="#f4f4f4"
         stop-opacity="1"
         id="stop22" />
    </linearGradient>
    <linearGradient
       gradientTransform="matrix(0.9982,0.0591,-0.0591,0.9982,-71.67198,1.4141729)"
       gradientUnits="userSpaceOnUse"
       id="SVGID_1_"
       y2="27.289801"
       x2="43.380402"
       y1="5.9912"
       x1="4.6557002">
      <stop
         offset="0"
         style="stop-color:#e64404;stop-opacity:1"
         id="stop16-3" />
      <stop
         offset="1"
         style="stop-color:#ee6525;stop-opacity:1"
         id="stop18" />
    </linearGradient>
  </defs>
  <g
     id="g33">
    <path
       d="m 36.31 5 c 5.859 4.062 9.688 10.831 9.688 18.5 c 0 12.426 -10.07 22.5 -22.5 22.5 c -7.669 0 -14.438 -3.828 -18.5 -9.688 c 1.037 1.822 2.306 3.499 3.781 4.969 c 4.085 3.712 9.514 5.969 15.469 5.969 c 12.703 0 23 -10.298 23 -23 c 0 -5.954 -2.256 -11.384 -5.969 -15.469 c -1.469 -1.475 -3.147 -2.744 -4.969 -3.781 z m 4.969 3.781 c 3.854 4.113 6.219 9.637 6.219 15.719 c 0 12.703 -10.297 23 -23 23 c -6.081 0 -11.606 -2.364 -15.719 -6.219 c 4.16 4.144 9.883 6.719 16.219 6.719 c 12.703 0 23 -10.298 23 -23 c 0 -6.335 -2.575 -12.06 -6.719 -16.219 z"
       opacity="0.05"
       id="path27" />
    <path
       d="m 41.28 8.781 c 3.712 4.085 5.969 9.514 5.969 15.469 c 0 12.703 -10.297 23 -23 23 c -5.954 0 -11.384 -2.256 -15.469 -5.969 c 4.113 3.854 9.637 6.219 15.719 6.219 c 12.703 0 23 -10.298 23 -23 c 0 -6.081 -2.364 -11.606 -6.219 -15.719 z"
       opacity="0.1"
       id="path29" />
    <path
       d="m 31.25 2.375 c 8.615 3.154 14.75 11.417 14.75 21.13 c 0 12.426 -10.07 22.5 -22.5 22.5 c -9.708 0 -17.971 -6.135 -21.12 -14.75 a 23 23 0 0 0 44.875 -7 a 23 23 0 0 0 -16 -21.875 z"
       opacity="0.2"
       id="path31" />
  </g>
  <path
     d="M 24,1 C 36.703,1 47,11.297 47,24 47,36.703 36.703,47 24,47 11.297,47 1,36.703 1,24 1,11.297 11.297,1 24,1 z"
     fill="url(#linearGradient3064)"
     fill-opacity="1"
     id="path35" />
  <g
     id="g67">
    <path
       d="m 40.03 7.531 c 3.712 4.084 5.969 9.514 5.969 15.469 0 12.703 -10.297 23 -23 23 c -5.954 0 -11.384 -2.256 -15.469 -5.969 4.178 4.291 10.01 6.969 16.469 6.969 c 12.703 0 23 -10.298 23 -23 0 -6.462 -2.677 -12.291 -6.969 -16.469 z"
       opacity="0.1"
       id="path65" />
  </g>
  <g
     id="g3"
     style="display:none;opacity:0.6"
     transform="translate(-72.87858,-4.0425271)">
    <rect
       width="48"
       height="48"
       x="-0.0099999998"
       y="0.023"
       id="rect5"
       style="display:inline;opacity:0.4" />
  </g>
  <path
     style="fill:#ffffff;stroke-width:1.03342605"
     id="path26"
     inkscape:connector-curvature="0"
     d="m 34.957978,16.191588 -1.302,-4.818678 c 0,0 -20.463,-2.0569099 -22.871,7.75773 0,0 -1.3069985,6.230533 5.701,7.340154 0,0 3.851,0.544664 8.572,0.504081 0,0 6.601,-0.287284 3.263,2.711575 0,0 -3.494,3.811582 -14.804,1.675644 l 1.201,4.785571 c 0,0 9.095,1.912733 16.275,-1.025251 0,0 8.34,-3.007402 6.912,-9.261431 0,0 -0.864,-4.469452 -7.982,-4.476928 0,0 -4.559,-0.0011 -6.538,-0.26272 0,0 -4.894,-0.634374 -3.463,-2.772449 0.001,-0.0011 1.996,-3.22954 15.036,-2.157298 z" />
</svg>
