<?xml version="1.0" encoding="UTF-8" standalone="no"?>
<svg
   xmlns:dc="http://purl.org/dc/elements/1.1/"
   xmlns:cc="http://creativecommons.org/ns#"
   xmlns:rdf="http://www.w3.org/1999/02/22-rdf-syntax-ns#"
   xmlns:svg="http://www.w3.org/2000/svg"
   xmlns="http://www.w3.org/2000/svg"
   xmlns:sodipodi="http://sodipodi.sourceforge.net/DTD/sodipodi-0.dtd"
   xmlns:inkscape="http://www.inkscape.org/namespaces/inkscape"
   viewBox="0 0 48 48"
   version="1.1"
   id="svg33"
   sodipodi:docname="flowblade.svg"
   inkscape:version="0.92.2pre0 (973e216, 2017-07-25)">
  <metadata
     id="metadata37">
    <rdf:RDF>
      <cc:Work
         rdf:about="">
        <dc:format>image/svg+xml</dc:format>
        <dc:type
           rdf:resource="http://purl.org/dc/dcmitype/StillImage" />
      </cc:Work>
    </rdf:RDF>
  </metadata>
  <sodipodi:namedview
     pagecolor="#ffffff"
     bordercolor="#666666"
     borderopacity="1"
     objecttolerance="10"
     gridtolerance="10"
     guidetolerance="10"
     inkscape:pageopacity="0"
     inkscape:pageshadow="2"
     inkscape:window-width="1360"
     inkscape:window-height="695"
     id="namedview35"
     showgrid="false"
     inkscape:zoom="4.9166667"
     inkscape:cx="24"
     inkscape:cy="24"
     inkscape:window-x="0"
     inkscape:window-y="0"
     inkscape:window-maximized="1"
     inkscape:current-layer="svg33" />
  <defs
     id="defs7">
    <linearGradient
       id="linearGradient4178"
       y1="47"
       x2="0"
       y2="1"
       gradientUnits="userSpaceOnUse">
      <stop
         style="stop-color:#96ae7c;stop-opacity:1"
         id="stop2" />
      <stop
         offset="1"
         style="stop-color:#a0b688;stop-opacity:1"
         id="stop4" />
    </linearGradient>
  </defs>
  <g
     id="g15">
    <path
       d="m 36.31 5 c 5.859 4.062 9.688 10.831 9.688 18.5 c 0 12.426 -10.07 22.5 -22.5 22.5 c -7.669 0 -14.438 -3.828 -18.5 -9.688 c 1.037 1.822 2.306 3.499 3.781 4.969 c 4.085 3.712 9.514 5.969 15.469 5.969 c 12.703 0 23 -10.298 23 -23 c 0 -5.954 -2.256 -11.384 -5.969 -15.469 c -1.469 -1.475 -3.147 -2.744 -4.969 -3.781 z m 4.969 3.781 c 3.854 4.113 6.219 9.637 6.219 15.719 c 0 12.703 -10.297 23 -23 23 c -6.081 0 -11.606 -2.364 -15.719 -6.219 c 4.16 4.144 9.883 6.719 16.219 6.719 c 12.703 0 23 -10.298 23 -23 c 0 -6.335 -2.575 -12.06 -6.719 -16.219 z"
       style="opacity:0.05"
       id="path9" />
    <path
       d="m 41.28 8.781 c 3.712 4.085 5.969 9.514 5.969 15.469 c 0 12.703 -10.297 23 -23 23 c -5.954 0 -11.384 -2.256 -15.469 -5.969 c 4.113 3.854 9.637 6.219 15.719 6.219 c 12.703 0 23 -10.298 23 -23 c 0 -6.081 -2.364 -11.606 -6.219 -15.719 z"
       style="opacity:0.1"
       id="path11" />
    <path
       d="m 31.25 2.375 c 8.615 3.154 14.75 11.417 14.75 21.13 c 0 12.426 -10.07 22.5 -22.5 22.5 c -9.708 0 -17.971 -6.135 -21.12 -14.75 a 23 23 0 0 0 44.875 -7 a 23 23 0 0 0 -16 -21.875 z"
       style="opacity:0.2"
       id="path13" />
  </g>
  <path
     inkscape:connector-curvature="0"
     id="path17"
     style="fill:#6ac87c;fill-opacity:1"
     d="M 24,1 C 36.703,1 47,11.297 47,24 47,36.703 36.703,47 24,47 11.297,47 1,36.703 1,24 1,11.297 11.297,1 24,1 Z" />
  <g
     id="g23">
    <path
       d="m 40.03 7.531 c 3.712 4.084 5.969 9.514 5.969 15.469 0 12.703 -10.297 23 -23 23 c -5.954 0 -11.384 -2.256 -15.469 -5.969 4.178 4.291 10.01 6.969 16.469 6.969 c 12.703 0 23 -10.298 23 -23 0 -6.462 -2.677 -12.291 -6.969 -16.469 z"
       style="opacity:0.1"
       id="path21" />
  </g>
  <path
     inkscape:connector-curvature="0"
     id="path25"
     style="fill:#000000;fill-opacity:0.09800002;stroke-width:1.06210184"
     d="m 11.629001,11.79661 c -0.624945,0 -1.12806,0.446 -1.12806,1 v 24 c 0,0.554 0.503115,1 1.12806,1 h 27.073445 c 0.624945,0 1.12806,-0.446 1.12806,-1 v -24 c 0,-0.554 -0.503115,-1 -1.12806,-1 z m 1.12806,2 h 4.512241 v 4 h -4.512241 z m 6.768361,0 h 4.512241 v 4 h -4.512241 z m 6.768362,0 h 4.51224 v 4 h -4.51224 z m 6.768361,0 h 4.512241 v 4 h -4.512241 z m -20.305084,18 h 4.512241 v 4 h -4.512241 z m 6.768361,0 h 4.512241 v 4 h -4.512241 z m 6.768362,0 h 4.51224 v 4 h -4.51224 z m 6.768361,0 h 4.512241 v 4 h -4.512241 z" />
  <path
     inkscape:connector-curvature="0"
     id="path27"
     style="fill:#464646;fill-opacity:1;stroke-width:1.06210184"
     d="m 10.500941,10.79661 c -0.6249455,0 -1.1280603,0.446 -1.1280603,1 v 24 c 0,0.554 0.5031148,1 1.1280603,1 h 27.073445 c 0.624945,0 1.12806,-0.446 1.12806,-1 v -24 c 0,-0.554 -0.503115,-1 -1.12806,-1 z m 1.12806,2 h 4.512241 v 4 h -4.512241 z m 6.768361,0 h 4.512241 v 4 h -4.512241 z m 6.768361,0 h 4.512241 v 4 h -4.512241 z m 6.768362,0 h 4.51224 v 4 h -4.51224 z m -20.305084,18 h 4.512241 v 4 h -4.512241 z m 6.768361,0 h 4.512241 v 4 h -4.512241 z m 6.768361,0 h 4.512241 v 4 h -4.512241 z m 6.768362,0 h 4.51224 v 4 h -4.51224 z" />
  <path
     inkscape:connector-curvature="0"
     id="path29"
     style="fill:#ff5555;fill-opacity:1;stroke-width:1.06210184"
     d="m 12.757061,26.79661 c 0,0 0,0 0,-6 1.840995,0 1.801512,4 3.759825,4 1.958312,0 1.80264,-4 3.760953,-4 1.958312,0 1.801512,4 3.759824,4 1.958313,0 1.801512,-4 3.759825,-4 1.958312,0 1.801512,4 3.759825,4 1.958312,0 1.989898,-4 3.760952,-4 0,6 0,6 0,6 z" />
</svg>
