<?xml version="1.0" encoding="UTF-8" standalone="no"?>
<svg
   xmlns:dc="http://purl.org/dc/elements/1.1/"
   xmlns:cc="http://creativecommons.org/ns#"
   xmlns:rdf="http://www.w3.org/1999/02/22-rdf-syntax-ns#"
   xmlns:svg="http://www.w3.org/2000/svg"
   xmlns="http://www.w3.org/2000/svg"
   xmlns:sodipodi="http://sodipodi.sourceforge.net/DTD/sodipodi-0.dtd"
   xmlns:inkscape="http://www.inkscape.org/namespaces/inkscape"
   viewBox="0 0 48 48"
   id="svg2"
   version="1.1"
   inkscape:version="0.92.0 r15299"
   sodipodi:docname="calc.svg"
   width="51.200001"
   height="51.200001">
  <metadata
     id="metadata58">
    <rdf:RDF>
      <cc:Work
         rdf:about="">
        <dc:format>image/svg+xml</dc:format>
        <dc:type
           rdf:resource="http://purl.org/dc/dcmitype/StillImage" />
      </cc:Work>
    </rdf:RDF>
  </metadata>
  <sodipodi:namedview
     pagecolor="#ffffff"
     bordercolor="#666666"
     borderopacity="1"
     objecttolerance="10"
     gridtolerance="10"
     guidetolerance="10"
     inkscape:pageopacity="0"
     inkscape:pageshadow="2"
     inkscape:window-width="1360"
     inkscape:window-height="715"
     id="namedview56"
     showgrid="false"
     inkscape:zoom="4.9166667"
     inkscape:cx="2.9491532"
     inkscape:cy="19.284545"
     inkscape:window-x="0"
     inkscape:window-y="27"
     inkscape:window-maximized="1"
     inkscape:current-layer="svg2" />
  <defs
     id="defs4">
    <clipPath
       id="clipPath6">
      <g
         transform="translate(0,-1004.3622)"
         id="g8">
        <path
           d="m -24,13 c 0,1.105 -0.672,2 -1.5,2 -0.828,0 -1.5,-0.895 -1.5,-2 0,-1.105 0.672,-2 1.5,-2 0.828,0 1.5,0.895 1.5,2 z"
           transform="matrix(15.333333,0,0,11.5,414.99999,878.8622)"
           id="path10"
           inkscape:connector-curvature="0"
           style="fill:#1890d0" />
      </g>
    </clipPath>
    <clipPath
       id="clipPath12">
      <g
         transform="translate(0,-1004.3622)"
         id="g14">
        <path
           d="m -24,13 c 0,1.105 -0.672,2 -1.5,2 -0.828,0 -1.5,-0.895 -1.5,-2 0,-1.105 0.672,-2 1.5,-2 0.828,0 1.5,0.895 1.5,2 z"
           transform="matrix(15.333333,0,0,11.5,414.99999,878.8622)"
           id="path16"
           inkscape:connector-curvature="0"
           style="fill:#1890d0" />
      </g>
    </clipPath>
  </defs>
  <g
     id="g18">
    <path
       d="m 36.31,5 c 5.859,4.062 9.688,10.831 9.688,18.5 0,12.426 -10.07,22.5 -22.5,22.5 -7.669,0 -14.438,-3.828 -18.5,-9.688 1.037,1.822 2.306,3.499 3.781,4.969 4.085,3.712 9.514,5.969 15.469,5.969 12.703,0 23,-10.298 23,-23 0,-5.954 -2.256,-11.384 -5.969,-15.469 C 39.81,7.306 38.132,6.037 36.31,5 Z m 4.969,3.781 c 3.854,4.113 6.219,9.637 6.219,15.719 0,12.703 -10.297,23 -23,23 -6.081,0 -11.606,-2.364 -15.719,-6.219 4.16,4.144 9.883,6.719 16.219,6.719 12.703,0 23,-10.298 23,-23 0,-6.335 -2.575,-12.06 -6.719,-16.219 z"
       id="path20"
       inkscape:connector-curvature="0"
       style="opacity:0.05" />
    <path
       d="m 41.28,8.781 c 3.712,4.085 5.969,9.514 5.969,15.469 0,12.703 -10.297,23 -23,23 -5.954,0 -11.384,-2.256 -15.469,-5.969 4.113,3.854 9.637,6.219 15.719,6.219 12.703,0 23,-10.298 23,-23 0,-6.081 -2.364,-11.606 -6.219,-15.719 z"
       id="path22"
       inkscape:connector-curvature="0"
       style="opacity:0.1" />
    <path
       d="M 31.25,2.375 C 39.865,5.529 46,13.792 46,23.505 c 0,12.426 -10.07,22.5 -22.5,22.5 -9.708,0 -17.971,-6.135 -21.12,-14.75 a 23,23 0 0 0 44.875,-7 23,23 0 0 0 -16,-21.875 z"
       id="path24"
       inkscape:connector-curvature="0"
       style="opacity:0.2" />
  </g>
  <path
     d="M 24,1 C 11.297,1 1,11.297 1,24 h 23 z"
     id="path26"
     style="fill:#4a4642;fill-opacity:0.93048126;fill-rule:evenodd;stroke:none"
     inkscape:connector-curvature="0" />
  <path
     d="M 24,1 V 24 H 47 C 47,11.297 36.703,1 24,1 Z"
     id="path28"
     style="fill:#6a6a6a;fill-opacity:0.76862746;fill-rule:evenodd;stroke:none"
     inkscape:connector-curvature="0" />
  <path
     d="M 24,24 V 47 C 36.703,47 47,36.703 47,24 Z"
     id="path30"
     style="fill:#1bb4e6;fill-opacity:1;fill-rule:evenodd;stroke:none"
     inkscape:connector-curvature="0" />
  <path
     d="M 1,24 C 1,36.703 11.297,47 24,47 V 24 Z"
     id="path32"
     style="fill:#3f3f3f;fill-opacity:1;fill-rule:evenodd;stroke:none"
     inkscape:connector-curvature="0" />
  <path
     d="m 15,12 v 3 h -3 v 2 h 3 v 3 h 2 v -3 h 3 v -2 h -3 v -3 z m 15,3 v 2 h 8 V 15 Z M 14.97,30 v 2 h 2 V 30 Z M 30,31 v 2 h 8 v -2 z m -18,1.969 v 2 h 8 v -2 z M 30,35 v 2 h 8 v -2 z m -15.03,1 v 2 h 2 v -2 z"
     id="path34"
     inkscape:connector-curvature="0"
     style="opacity:0.1;fill:#000000;fill-opacity:1;fill-rule:nonzero;stroke:none" />
  <path
     d="m 37,30 v 2 h -8 v -2 m 8,0"
     id="path36"
     inkscape:connector-curvature="0"
     style="fill:#f9f9f9;fill-opacity:1;fill-rule:nonzero;stroke:none" />
  <path
     d="m 37,34 v 2 h -8 v -2 m 8,0"
     id="path38"
     inkscape:connector-curvature="0"
     style="fill:#f9f9f9;fill-opacity:1;fill-rule:nonzero;stroke:none" />
  <path
     d="m 37,14 v 1.996 H 29 V 14 m 8,0"
     id="path40"
     inkscape:connector-curvature="0"
     style="fill:#f9f9f9;fill-opacity:1;fill-rule:nonzero;stroke:none" />
  <path
     d="m 19,31.961 v 2 h -8 v -2 m 8,0"
     id="path42"
     inkscape:connector-curvature="0"
     style="fill:#f9f9f9;fill-opacity:1;fill-rule:nonzero;stroke:none" />
  <path
     d="m 15.969,29 v 2 h -2 v -2 m 2,0"
     id="path44"
     inkscape:connector-curvature="0"
     style="fill:#f9f9f9;fill-opacity:1;fill-rule:nonzero;stroke:none" />
  <path
     d="m 15.969,35 v 2 h -2 v -2 m 2,0"
     id="path46"
     inkscape:connector-curvature="0"
     style="fill:#f9f9f9;fill-opacity:1;fill-rule:nonzero;stroke:none" />
  <path
     d="m 14,11 h 1.996 v 8 H 14 m 0,-8"
     id="path48"
     inkscape:connector-curvature="0"
     style="fill:#f9f9f9;fill-opacity:1;fill-rule:nonzero;stroke:none" />
  <path
     d="m 19,13.996 v 2 h -8 v -2 m 8,0"
     id="path50"
     inkscape:connector-curvature="0"
     style="fill:#f9f9f9;fill-opacity:1;fill-rule:nonzero;stroke:none" />
  <g
     id="g52">
    <path
       d="m 40.03,7.531 c 3.712,4.084 5.969,9.514 5.969,15.469 0,12.703 -10.297,23 -23,23 C 17.045,46 11.615,43.744 7.53,40.031 11.708,44.322 17.54,47 23.999,47 c 12.703,0 23,-10.298 23,-23 0,-6.462 -2.677,-12.291 -6.969,-16.469 z"
       id="path54"
       inkscape:connector-curvature="0"
       style="opacity:0.1" />
  </g>
</svg>
