<?xml version="1.0" encoding="UTF-8" standalone="no"?>
<svg
   xmlns:dc="http://purl.org/dc/elements/1.1/"
   xmlns:cc="http://creativecommons.org/ns#"
   xmlns:rdf="http://www.w3.org/1999/02/22-rdf-syntax-ns#"
   xmlns:svg="http://www.w3.org/2000/svg"
   xmlns="http://www.w3.org/2000/svg"
   xmlns:sodipodi="http://sodipodi.sourceforge.net/DTD/sodipodi-0.dtd"
   xmlns:inkscape="http://www.inkscape.org/namespaces/inkscape"
   viewBox="0 0 48 48"
   id="svg2"
   version="1.1"
   inkscape:version="0.91 r13725"
   sodipodi:docname="thunderbird.svg">
  <metadata
     id="metadata77">
    <rdf:RDF>
      <cc:Work
         rdf:about="">
        <dc:format>image/svg+xml</dc:format>
        <dc:type
           rdf:resource="http://purl.org/dc/dcmitype/StillImage" />
      </cc:Work>
    </rdf:RDF>
  </metadata>
  <sodipodi:namedview
     pagecolor="#ffffff"
     bordercolor="#666666"
     borderopacity="1"
     objecttolerance="10"
     gridtolerance="10"
     guidetolerance="10"
     inkscape:pageopacity="0"
     inkscape:pageshadow="2"
     inkscape:window-width="1360"
     inkscape:window-height="716"
     id="namedview75"
     showgrid="false"
     inkscape:zoom="4.9166667"
     inkscape:cx="-9.1525422"
     inkscape:cy="24"
     inkscape:window-x="0"
     inkscape:window-y="27"
     inkscape:window-maximized="1"
     inkscape:current-layer="svg2" />
  <defs
     id="defs4">
    <linearGradient
       id="linearGradient3764"
       x1="1"
       x2="47"
       gradientUnits="userSpaceOnUse"
       gradientTransform="matrix(0,-1,1,0,-1.5e-6,47.999998)">
      <stop
         stop-color="#d8d8d2"
         stop-opacity="1"
         id="stop7" />
      <stop
         offset="1"
         stop-color="#e1e1dd"
         stop-opacity="1"
         id="stop9" />
    </linearGradient>
    <clipPath
       id="clipPath-764464246">
      <g
         transform="translate(0,-1004.3622)"
         id="g12">
        <path
           d="m -24 13 c 0 1.105 -0.672 2 -1.5 2 -0.828 0 -1.5 -0.895 -1.5 -2 0 -1.105 0.672 -2 1.5 -2 0.828 0 1.5 0.895 1.5 2 z"
           transform="matrix(15.333333,0,0,11.5,414.99999,878.8622)"
           fill="#1890d0"
           id="path14" />
      </g>
    </clipPath>
    <clipPath
       id="clipPath-776451640">
      <g
         transform="translate(0,-1004.3622)"
         id="g17">
        <path
           d="m -24 13 c 0 1.105 -0.672 2 -1.5 2 -0.828 0 -1.5 -0.895 -1.5 -2 0 -1.105 0.672 -2 1.5 -2 0.828 0 1.5 0.895 1.5 2 z"
           transform="matrix(15.333333,0,0,11.5,414.99999,878.8622)"
           fill="#1890d0"
           id="path19" />
      </g>
    </clipPath>
  </defs>
  <g
     id="g21">
    <path
       d="m 36.31 5 c 5.859 4.062 9.688 10.831 9.688 18.5 c 0 12.426 -10.07 22.5 -22.5 22.5 c -7.669 0 -14.438 -3.828 -18.5 -9.688 c 1.037 1.822 2.306 3.499 3.781 4.969 c 4.085 3.712 9.514 5.969 15.469 5.969 c 12.703 0 23 -10.298 23 -23 c 0 -5.954 -2.256 -11.384 -5.969 -15.469 c -1.469 -1.475 -3.147 -2.744 -4.969 -3.781 z m 4.969 3.781 c 3.854 4.113 6.219 9.637 6.219 15.719 c 0 12.703 -10.297 23 -23 23 c -6.081 0 -11.606 -2.364 -15.719 -6.219 c 4.16 4.144 9.883 6.719 16.219 6.719 c 12.703 0 23 -10.298 23 -23 c 0 -6.335 -2.575 -12.06 -6.719 -16.219 z"
       opacity="0.05"
       id="path23" />
    <path
       d="m 41.28 8.781 c 3.712 4.085 5.969 9.514 5.969 15.469 c 0 12.703 -10.297 23 -23 23 c -5.954 0 -11.384 -2.256 -15.469 -5.969 c 4.113 3.854 9.637 6.219 15.719 6.219 c 12.703 0 23 -10.298 23 -23 c 0 -6.081 -2.364 -11.606 -6.219 -15.719 z"
       opacity="0.1"
       id="path25" />
    <path
       d="m 31.25 2.375 c 8.615 3.154 14.75 11.417 14.75 21.13 c 0 12.426 -10.07 22.5 -22.5 22.5 c -9.708 0 -17.971 -6.135 -21.12 -14.75 a 23 23 0 0 0 44.875 -7 a 23 23 0 0 0 -16 -21.875 z"
       opacity="0.2"
       id="path27" />
  </g>
  <g
     id="g29">
    <path
       d="m 24 1 c 12.703 0 23 10.297 23 23 c 0 12.703 -10.297 23 -23 23 -12.703 0 -23 -10.297 -23 -23 0 -12.703 10.297 -23 23 -23 z"
       fill="url(#linearGradient3764)"
       fill-opacity="1"
       id="path31" />
  </g>
  <g
     id="g33" />
  <path
     style="fill:#e55353;fill-opacity:1;fill-rule:nonzero;stroke:none"
     inkscape:connector-curvature="0"
     id="path61"
     d="m 18.339101,26.408255 4.764239,0 c 0.550025,0 0.999737,0.46486 0.999737,1.043874 l 0,0.267148 c 0,0.574308 -0.448586,1.039168 -0.999737,1.039168 l -4.764239,0 c -0.550025,0 -0.999736,-0.46486 -0.999736,-1.039168 l 0,-0.267148 c 0,-0.579014 0.448585,-1.043874 0.999736,-1.043874 m 0,0" />
  <path
     style="fill:#c83e44;fill-opacity:1;fill-rule:nonzero;stroke:none"
     inkscape:connector-curvature="0"
     id="path63"
     d="M 10.576781,20.523949 24.10195,9.9322037 37.627117,20.523949 l 0,3.530583 -27.050336,0 m -0.0045,-3.530583" />
  <path
     style="fill:#ffe588;fill-opacity:1;fill-rule:nonzero;stroke:none"
     inkscape:connector-curvature="0"
     id="path65"
     d="m 13.830711,12.285925 20.543603,0 c 0.550025,0 0.995227,0.468391 0.995227,1.043876 l 0,21.45064 c 0,0.574308 -0.445202,1.043876 -0.995227,1.043876 l -20.543603,0 c -0.554532,0 -0.999735,-0.468392 -0.999735,-1.043876 l 0,-21.45064 c 0,-0.574309 0.445203,-1.043876 0.999735,-1.043876 m 0,0" />
  <path
     style="fill:#fa535a;fill-opacity:1;fill-rule:nonzero;stroke:none"
     inkscape:connector-curvature="0"
     id="path69"
     d="m 10.576781,20.523949 0,16.476051 27.050336,0 0,-16.476051 -13.525167,7.061167 M 10.576781,20.523949" />
  <g
     id="g71">
    <path
       d="m 40.03 7.531 c 3.712 4.084 5.969 9.514 5.969 15.469 0 12.703 -10.297 23 -23 23 c -5.954 0 -11.384 -2.256 -15.469 -5.969 4.178 4.291 10.01 6.969 16.469 6.969 c 12.703 0 23 -10.298 23 -23 0 -6.462 -2.677 -12.291 -6.969 -16.469 z"
       opacity="0.1"
       id="path73" />
  </g>
  <path
     style="fill:#1d85cf;fill-opacity:1"
     inkscape:connector-curvature="0"
     id="path4469"
     d="m 23.905568,14.679476 c -2.599696,0 -4.707142,2.24804 -4.707142,5.02117 0,2.773127 2.107446,5.021168 4.707142,5.021168 l 2.941966,0 c 0,0 0.551618,0 0.588393,-0.627646 0,-0.627648 -0.588393,-0.627648 -0.588393,-0.627648 l -2.941966,0 c -1.949757,0 -3.530359,-1.686046 -3.530359,-3.765874 0,-2.079833 1.580602,-3.765876 3.530359,-3.765876 1.949758,0 3.530359,1.686043 3.530359,3.765876 l 0,0.627645 c 0,0.346636 -0.263436,0.627643 -0.588393,0.627643 -0.324956,0 -0.588392,-0.281007 -0.588392,-0.627643 l 0,-0.627645 c 0,-1.386536 -1.053752,-2.510588 -2.353574,-2.510588 -1.29982,0 -2.353572,1.124052 -2.353572,2.510588 0,1.386528 1.053752,2.510584 2.353572,2.510584 0.615578,0 1.171082,-0.2579 1.590488,-0.670577 0.335381,0.424916 0.83022,0.670324 1.351539,0.670324 0.974847,0 1.765179,-0.843056 1.765179,-1.882938 l 0,-0.627646 c 0,-2.773129 -2.107448,-5.021169 -4.707146,-5.021169 z m 0,3.765877 c 0.649942,0 1.176787,0.562013 1.176787,1.255293 0,0.693277 -0.526866,1.255288 -1.176787,1.255288 -0.649922,0 -1.176782,-0.562011 -1.176782,-1.255288 0,-0.69328 0.52686,-1.255293 1.176782,-1.255293 z" />
</svg>
