<?xml version="1.0" encoding="UTF-8" standalone="no"?>
<svg
   xmlns:dc="http://purl.org/dc/elements/1.1/"
   xmlns:cc="http://creativecommons.org/ns#"
   xmlns:rdf="http://www.w3.org/1999/02/22-rdf-syntax-ns#"
   xmlns:svg="http://www.w3.org/2000/svg"
   xmlns="http://www.w3.org/2000/svg"
   xmlns:sodipodi="http://sodipodi.sourceforge.net/DTD/sodipodi-0.dtd"
   xmlns:inkscape="http://www.inkscape.org/namespaces/inkscape"
   viewBox="0 0 48 48"
   version="1.1"
   id="svg77"
   sodipodi:docname="gitg.svg"
   inkscape:version="0.92.1 r15371">
  <metadata
     id="metadata81">
    <rdf:RDF>
      <cc:Work
         rdf:about="">
        <dc:format>image/svg+xml</dc:format>
        <dc:type
           rdf:resource="http://purl.org/dc/dcmitype/StillImage" />
      </cc:Work>
    </rdf:RDF>
  </metadata>
  <sodipodi:namedview
     pagecolor="#ffffff"
     bordercolor="#666666"
     borderopacity="1"
     objecttolerance="10"
     gridtolerance="10"
     guidetolerance="10"
     inkscape:pageopacity="0"
     inkscape:pageshadow="2"
     inkscape:window-width="1360"
     inkscape:window-height="687"
     id="namedview79"
     showgrid="false"
     inkscape:zoom="4.9166667"
     inkscape:cx="24"
     inkscape:cy="24"
     inkscape:window-x="0"
     inkscape:window-y="0"
     inkscape:window-maximized="1"
     inkscape:current-layer="svg77" />
  <defs
     id="defs17">
    <linearGradient
       id="linearGradient3764"
       x1="1"
       x2="47"
       gradientUnits="userSpaceOnUse"
       gradientTransform="rotate(-90,23.999998,24)">
      <stop
         stop-color="#e4e4e4"
         stop-opacity="1"
         id="stop2" />
      <stop
         offset="1"
         stop-color="#eee"
         stop-opacity="1"
         id="stop4" />
    </linearGradient>
    <clipPath
       id="clipPath-125205684">
      <g
         transform="translate(0,-1004.3622)"
         id="g9">
        <path
           d="m -24 13 c 0 1.105 -0.672 2 -1.5 2 -0.828 0 -1.5 -0.895 -1.5 -2 0 -1.105 0.672 -2 1.5 -2 0.828 0 1.5 0.895 1.5 2 z"
           transform="matrix(15.333333,0,0,11.5,414.99999,878.8622)"
           fill="#1890d0"
           id="path7" />
      </g>
    </clipPath>
    <clipPath
       id="clipPath-130435007">
      <g
         transform="translate(0,-1004.3622)"
         id="g14">
        <path
           d="m -24 13 c 0 1.105 -0.672 2 -1.5 2 -0.828 0 -1.5 -0.895 -1.5 -2 0 -1.105 0.672 -2 1.5 -2 0.828 0 1.5 0.895 1.5 2 z"
           transform="matrix(15.333333,0,0,11.5,414.99999,878.8622)"
           fill="#1890d0"
           id="path12" />
      </g>
    </clipPath>
  </defs>
  <g
     id="g31" />
  <g
     id="g71"
     transform="matrix(1.4880786,0,0,1.5084873,-11.713886,-12.576386)">
    <g
       clip-path="url(#clipPath-130435007)"
       id="g69">
      <!-- color: #eeeeee -->
      <g
         id="g67">
        <path
           d="m 24,9 c -3.844,0 -7.664,1.469 -10.598,4.398 -5.871,5.855 -5.871,15.352 0,21.21 5.867,5.855 15.332,5.855 21.2,0 5.867,-5.859 5.867,-15.355 0,-21.21 C 31.668,10.468 27.848,9 24.004,9 M 24,9"
           id="path55"
           inkscape:connector-curvature="0"
           style="fill:#d4201e;fill-opacity:1;fill-rule:nonzero;stroke:none" />
        <path
           d="m 15,19 h 17 v 1.996 H 15 M 15,19"
           id="path57"
           inkscape:connector-curvature="0"
           style="fill:#f9f9f9;fill-opacity:1;fill-rule:nonzero;stroke:none" />
        <path
           d="m 25,20 c 0,1.656 -1.344,3 -3,3 -1.66,0 -3,-1.344 -3,-3 0,-1.656 1.344,-3 3,-3 1.656,0 3,1.344 3,3 m 0,0"
           id="path59"
           inkscape:connector-curvature="0"
           style="fill:#f9f9f9;fill-opacity:1;fill-rule:nonzero;stroke:none" />
        <path
           d="m 33,20 c 0,1.656 -1.344,3 -3,3 -1.66,0 -3,-1.344 -3,-3 0,-1.656 1.344,-3 3,-3 1.656,0 3,1.344 3,3 m 0,0"
           id="path61"
           inkscape:connector-curvature="0"
           style="fill:#f9f9f9;fill-opacity:1;fill-rule:nonzero;stroke:none" />
        <path
           d="m 33,28 c 0,1.656 -1.344,3 -3,3 -1.66,0 -3,-1.344 -3,-3 0,-1.656 1.344,-3 3,-3 1.656,0 3,1.344 3,3 m 0,0"
           id="path63"
           inkscape:connector-curvature="0"
           style="fill:#f9f9f9;fill-opacity:1;fill-rule:nonzero;stroke:none" />
        <path
           d="M 30.734,30 20,19.262 21.262,18 31.996,28.734 M 30.734,30"
           id="path65"
           inkscape:connector-curvature="0"
           style="fill:#f9f9f9;fill-opacity:1;fill-rule:nonzero;stroke:none" />
      </g>
    </g>
  </g>
</svg>
