<?xml version="1.0" encoding="UTF-8" standalone="no"?>
<svg
   xmlns:dc="http://purl.org/dc/elements/1.1/"
   xmlns:cc="http://creativecommons.org/ns#"
   xmlns:rdf="http://www.w3.org/1999/02/22-rdf-syntax-ns#"
   xmlns:svg="http://www.w3.org/2000/svg"
   xmlns="http://www.w3.org/2000/svg"
   xmlns:sodipodi="http://sodipodi.sourceforge.net/DTD/sodipodi-0.dtd"
   xmlns:inkscape="http://www.inkscape.org/namespaces/inkscape"
   width="48"
   height="48"
   version="1"
   id="svg12"
   sodipodi:docname="gitkraken.svg"
   inkscape:version="0.92.2pre0 (973e216, 2017-07-25)">
  <metadata
     id="metadata18">
    <rdf:RDF>
      <cc:Work
         rdf:about="">
        <dc:format>image/svg+xml</dc:format>
        <dc:type
           rdf:resource="http://purl.org/dc/dcmitype/StillImage" />
      </cc:Work>
    </rdf:RDF>
  </metadata>
  <defs
     id="defs16" />
  <sodipodi:namedview
     pagecolor="#ffffff"
     bordercolor="#666666"
     borderopacity="1"
     objecttolerance="10"
     gridtolerance="10"
     guidetolerance="10"
     inkscape:pageopacity="0"
     inkscape:pageshadow="2"
     inkscape:window-width="1360"
     inkscape:window-height="740"
     id="namedview14"
     showgrid="false"
     inkscape:zoom="6.9532167"
     inkscape:cx="25.549285"
     inkscape:cy="25.487072"
     inkscape:window-x="0"
     inkscape:window-y="0"
     inkscape:window-maximized="1"
     inkscape:current-layer="svg12" />
  <g
     id="g12"
     transform="matrix(1,0,0,1.0062165,0,-0.00485293)">
    <rect
       style="fill:#4f4f4f;stroke-width:1.15407634"
       id="rect2"
       transform="matrix(0,-1,-1,0,0,0)"
       ry="23.028093"
       rx="23.135094"
       y="-47.100002"
       x="-47.050846"
       height="46.056187"
       width="46.270187" />
    <path
       style="opacity:0.2;stroke-width:1.15407634"
       inkscape:connector-curvature="0"
       id="path8"
       d="m 14.936665,14.704515 c -2.868147,2.540234 -4.68161,6.249947 -4.68161,10.410793 0,5.620672 3.299235,10.428837 8.059832,12.615568 v 0.108448 h 0.222636 c 0.665512,0.291501 1.365566,0.514756 2.080588,0.700992 v 2.356427 A 16.119662,16.194567 0 0 1 7.9526607,25.115135 16.119662,16.194567 0 0 1 8.6318051,20.488116 H 6.25024 A 18.422473,18.508075 0 0 0 5.6496673,25.115135 18.422473,18.508075 0 0 0 22.920735,43.580409 v -8.17409 c 0.396704,0.06246 0.790843,0.110966 1.17616,0.119746 0.398536,-0.01629 0.762344,-0.06534 1.126671,-0.112968 v 8.150841 a 18.422473,18.508075 0 0 0 17.27107,-18.449081 18.422473,18.508075 0 0 0 -0.60944,-4.627019 H 39.505934 A 16.119662,16.194567 0 0 1 40.191825,25.114857 16.119662,16.194567 0 0 1 27.526376,40.9115 v -2.372273 c 0.715333,-0.185242 1.414616,-0.409122 2.080128,-0.70038 h 0.222636 v -0.108449 c 4.760596,-2.186961 8.059831,-6.995128 8.059831,-12.615569 0,-4.160845 -1.813693,-7.870904 -4.682072,-10.410791 h -4.124331 c 3.851679,1.866887 6.503593,5.811421 6.503593,10.410791 0,4.295841 -2.314092,8.022326 -5.757021,10.017728 v -1.500195 c 0.795597,-0.771556 0.839972,-1.936985 0.02699,-2.817276 l -0.454268,-0.490266 0.155175,-0.899193 c 0.230016,-1.338712 0.780721,-2.345435 1.594464,-2.914443 0.367277,-0.256845 0.739595,-0.550338 0.827574,-0.655198 0.196923,-0.234648 0.2067,-1.409159 0.01798,-2.085281 -0.517429,-1.853815 -3.230382,-5.802281 -5.233019,-7.616074 -1.137598,-1.030286 -2.028889,-1.498807 -2.889795,-1.445943 -0.516543,0.03171 -1.02064,0.251433 -1.562916,0.650674 -0.723415,0.532582 -2.579031,2.488758 -3.456516,3.646439 -1.874487,2.474298 -2.842819,4.470857 -2.842819,5.858962 0,0.920165 0.08196,1.068067 0.874802,1.597362 0.876981,0.585423 1.384336,1.443284 1.650656,2.79472 l 0.211385,1.079934 -0.332824,0.30049 c -0.547114,0.496006 -0.776853,1.051941 -0.710637,1.72611 0.0455,0.463234 0.282071,0.920523 0.609439,1.267456 v 1.502393 c -3.442924,-1.995282 -5.757018,-5.721768 -5.757018,-10.017723 0,-4.599373 2.652031,-8.543907 6.503595,-10.410793 h -4.124332 z m 5.68057,16.194566 a 1.1514044,1.1567547 0 0 1 1.151404,1.156755 1.1514044,1.1567547 0 0 1 -1.151404,1.156754 1.1514044,1.1567547 0 0 1 -1.151404,-1.156754 1.1514044,1.1567547 0 0 1 1.151404,-1.156755 z m 6.908428,0 a 1.1514044,1.1567547 0 0 1 1.151403,1.156755 1.1514044,1.1567547 0 0 1 -1.151403,1.156754 1.1514044,1.1567547 0 0 1 -1.151405,-1.156754 1.1514044,1.1567547 0 0 1 1.151405,-1.156755 z" />
    <path
       style="fill:#3fb2ab;stroke-width:1.15407634"
       inkscape:connector-curvature="0"
       id="path10"
       d="m 14.936665,13.504961 c -2.868147,2.540233 -4.68161,6.249945 -4.68161,10.410792 0,5.620671 3.299235,10.428838 8.059832,12.615567 v 0.108736 h 0.222221 c 0.665512,0.291501 1.365565,0.514754 2.080588,0.699836 v 2.356425 A 16.119662,16.194567 0 0 1 7.9522461,23.915869 16.119662,16.194567 0 0 1 8.6315748,19.28885 H 6.2498946 A 18.422473,18.508075 0 0 0 5.649437,23.915869 18.422473,18.508075 0 0 0 22.920505,42.381144 v -8.174785 c 0.397235,0.06247 0.791015,0.111048 1.175584,0.120302 0.399538,-0.01619 0.763382,-0.06478 1.127225,-0.113362 v 8.151652 A 18.422473,18.508075 0 0 0 42.494382,23.915869 18.422473,18.508075 0 0 0 41.885289,19.28885 h -2.379262 a 16.119662,16.194567 0 0 1 0.685085,4.627019 16.119662,16.194567 0 0 1 -12.665449,15.796642 v -2.372272 c 0.715021,-0.185081 1.415076,-0.408335 2.080588,-0.699836 h 0.22222 v -0.108736 c 4.761058,-2.186266 8.059831,-6.994896 8.059831,-12.615566 0,-4.160848 -1.813462,-7.870559 -4.681609,-10.410793 h -4.124332 c 3.851448,1.867002 6.503133,5.811536 6.503133,10.410793 0,4.295839 -2.314093,8.022325 -5.757023,10.017726 v -1.500195 c 0.795597,-0.771555 0.839973,-1.936986 0.02699,-2.817276 l -0.454264,-0.490267 0.155174,-0.899193 c 0.230017,-1.338711 0.780722,-2.345434 1.594465,-2.914443 0.367275,-0.256845 0.739594,-0.550337 0.827572,-0.655197 0.196925,-0.234647 0.2067,-1.409158 0.01798,-2.085282 -0.51743,-1.853814 -3.23038,-5.802281 -5.233018,-7.616072 -1.1376,-1.030287 -2.028891,-1.498807 -2.889795,-1.445944 -0.516543,0.03171 -1.02064,0.251432 -1.562917,0.650675 -0.723417,0.53258 -2.579031,2.488757 -3.456517,3.646438 -1.873334,2.471984 -2.841666,4.4697 -2.841666,5.857805 0,0.920165 0.08196,1.068067 0.874803,1.597363 0.876979,0.585422 1.384333,1.443283 1.650653,2.794719 l 0.211388,1.079934 -0.332827,0.300491 c -0.547113,0.496004 -0.776852,1.051941 -0.710634,1.72611 0.0455,0.463234 0.282071,0.920522 0.609438,1.267455 v 1.502393 c -3.442701,-1.9954 -5.757022,-5.721308 -5.757022,-10.017495 0,-4.599373 2.65203,-8.543906 6.503593,-10.410793 h -4.124331 z m 5.681031,16.194567 a 1.1514044,1.1567547 0 0 1 1.151404,1.156753 1.1514044,1.1567547 0 0 1 -1.151404,1.156755 1.1514044,1.1567547 0 0 1 -1.151405,-1.156755 1.1514044,1.1567547 0 0 1 1.151405,-1.156753 z m 6.908427,0 a 1.1514044,1.1567547 0 0 1 1.151404,1.156753 1.1514044,1.1567547 0 0 1 -1.151404,1.156755 1.1514044,1.1567547 0 0 1 -1.151405,-1.156755 1.1514044,1.1567547 0 0 1 1.151405,-1.156753 z" />
  </g>
</svg>
