<?xml version="1.0" encoding="UTF-8" standalone="no"?>
<svg
   xmlns:dc="http://purl.org/dc/elements/1.1/"
   xmlns:cc="http://creativecommons.org/ns#"
   xmlns:rdf="http://www.w3.org/1999/02/22-rdf-syntax-ns#"
   xmlns:svg="http://www.w3.org/2000/svg"
   xmlns="http://www.w3.org/2000/svg"
   xmlns:sodipodi="http://sodipodi.sourceforge.net/DTD/sodipodi-0.dtd"
   xmlns:inkscape="http://www.inkscape.org/namespaces/inkscape"
   viewBox="0 0 48 48"
   version="1.1"
   id="svg57"
   sodipodi:docname="utilities-system-monitor.svg"
   inkscape:version="0.92.0 r15299">
  <metadata
     id="metadata61">
    <rdf:RDF>
      <cc:Work
         rdf:about="">
        <dc:format>image/svg+xml</dc:format>
        <dc:type
           rdf:resource="http://purl.org/dc/dcmitype/StillImage" />
        <dc:title />
      </cc:Work>
    </rdf:RDF>
  </metadata>
  <sodipodi:namedview
     pagecolor="#ffffff"
     bordercolor="#666666"
     borderopacity="1"
     objecttolerance="10"
     gridtolerance="10"
     guidetolerance="10"
     inkscape:pageopacity="0"
     inkscape:pageshadow="2"
     inkscape:window-width="1600"
     inkscape:window-height="872"
     id="namedview59"
     showgrid="false"
     inkscape:zoom="9.8333333"
     inkscape:cx="-16.220988"
     inkscape:cy="22.735426"
     inkscape:window-x="0"
     inkscape:window-y="0"
     inkscape:window-maximized="1"
     inkscape:current-layer="svg57" />
  <defs
     id="defs17">
    <linearGradient
       id="linearGradient3764"
       x1="1"
       x2="47"
       gradientUnits="userSpaceOnUse"
       gradientTransform="rotate(-90,23.999998,24)">
      <stop
         stop-color="#31af54"
         stop-opacity="1"
         id="stop2" />
      <stop
         offset="1"
         stop-color="#35bf5c"
         stop-opacity="1"
         id="stop4" />
    </linearGradient>
    <clipPath
       id="clipPath-389701993">
      <g
         transform="translate(0,-1004.3622)"
         id="g9">
        <path
           d="m -24 13 c 0 1.105 -0.672 2 -1.5 2 -0.828 0 -1.5 -0.895 -1.5 -2 0 -1.105 0.672 -2 1.5 -2 0.828 0 1.5 0.895 1.5 2 z"
           transform="matrix(15.333333,0,0,11.5,414.99999,878.8622)"
           fill="#1890d0"
           id="path7" />
      </g>
    </clipPath>
    <clipPath
       id="clipPath-398118914">
      <g
         transform="translate(0,-1004.3622)"
         id="g14">
        <path
           d="m -24 13 c 0 1.105 -0.672 2 -1.5 2 -0.828 0 -1.5 -0.895 -1.5 -2 0 -1.105 0.672 -2 1.5 -2 0.828 0 1.5 0.895 1.5 2 z"
           transform="matrix(15.333333,0,0,11.5,414.99999,878.8622)"
           fill="#1890d0"
           id="path12" />
      </g>
    </clipPath>
  </defs>
  <path
     inkscape:connector-curvature="0"
     style="fill:#00de97;fill-opacity:1;stroke-width:1.01839137"
     id="path27"
     d="m 23.939435,0.69491525 c 12.950383,0 23.44791,10.47523875 23.44791,23.39812475 0,12.922886 -10.497527,23.398125 -23.44791,23.398125 -12.950383,0 -23.44790958,-10.475239 -23.44790958,-23.398125 0,-12.922886 10.49752658,-23.39812475 23.44790958,-23.39812475 z" />
  <g
     id="g31" />
  <path
     style="fill:#373d4f;fill-opacity:1;stroke:none;stroke-width:1.49825859"
     d="m 43.987923,23.988703 c 0,11.14863 -8.968796,20.186379 -20.032364,20.186379 -11.06357,0 -20.0323636,-9.037749 -20.0323636,-20.186379 0,-11.148626 8.9687936,-20.1863752 20.0323636,-20.1863752 11.063568,0 20.032364,9.0377492 20.032364,20.1863752 z"
     id="path3763"
     inkscape:connector-curvature="0" />
  <path
     inkscape:connector-curvature="0"
     d="m 23.972294,10.514068 c -0.462705,0 -0.702335,0.34472 -0.803413,0.520138 -0.101081,0.17542 -0.142036,0.306984 -0.182119,0.444667 -0.08016,0.274348 -0.13245,0.567053 -0.187347,0.92809 -0.633495,5.488986 -0.892296,11.685768 -1.233877,16.675016 -0.499302,-4.828106 -0.550714,-8.889263 -1.215577,-13.28902 -0.0575,-0.316161 -0.113279,-0.576231 -0.202162,-0.83426 -0.04443,-0.129524 -0.09236,-0.260069 -0.205645,-0.426309 -0.113279,-0.166241 -0.363366,-0.444667 -0.762458,-0.444667 -0.308471,0 -0.5481,0.178478 -0.677065,0.320242 -0.129834,0.141762 -0.195188,0.268227 -0.250087,0.384493 -0.109794,0.233553 -0.170788,0.450787 -0.235272,0.704736 -0.716276,3.62363 -1.043043,7.774535 -1.455205,11.091181 -0.227433,-1.731754 -0.355526,-3.562437 -0.54113,-5.268695 -0.05925,-0.537474 -0.116764,-0.9903 -0.182118,-1.352358 -0.03223,-0.181538 -0.06187,-0.334521 -0.122865,-0.516058 -0.0305,-0.09077 -0.06187,-0.187658 -0.156847,-0.33452 -0.09498,-0.146862 -0.324154,-0.440587 -0.73719,-0.440587 -0.318055,0 -0.501044,0.148902 -0.619554,0.254969 -0.118507,0.106067 -0.189087,0.201936 -0.255314,0.296784 -0.131579,0.188678 -0.232657,0.380415 -0.338966,0.595609 -0.212618,0.431409 -0.431333,0.949507 -0.646564,1.458426 -0.216103,0.50892 -0.429591,1.009682 -0.596026,1.340122 -0.03486,0.06833 -0.04618,0.08262 -0.07495,0.133604 H 3.9514326 c -0.012193,0.338599 -0.021776,0.678219 -0.021776,1.019879 0,0.341659 0.00958,0.681278 0.021776,1.019878 h 8.6920324 c 0.604737,0 0.737188,-0.346759 0.871381,-0.537475 0.136806,-0.190718 0.241371,-0.386535 0.350294,-0.603769 0.170792,-0.33962 0.341582,-0.746552 0.512374,-1.145324 0.251828,2.325323 0.388634,4.582315 0.748517,6.842366 0.08974,0.553794 0.182117,1.01988 0.309339,1.43191 0.0636,0.203976 0.129836,0.393674 0.262286,0.605809 0.13245,0.212134 0.408676,0.545634 0.862668,0.545634 0.308466,0 0.548098,-0.178478 0.677062,-0.320242 0.129836,-0.141762 0.195189,-0.268228 0.250087,-0.384494 0.109793,-0.233552 0.170791,-0.450786 0.235274,-0.704736 0.128092,-0.5079 0.238757,-1.146344 0.350294,-1.906153 0.389507,-2.967848 0.683164,-5.659308 1.007319,-8.374224 0.602994,5.521623 0.610836,10.113117 1.361967,15.085026 0.0575,0.316162 0.113279,0.576232 0.202163,0.834261 0.04443,0.129525 0.09236,0.26007 0.205643,0.42631 0.11328,0.16624 0.36511,0.444667 0.764201,0.444667 0.462704,0 0.700593,-0.344719 0.801673,-0.520138 0.10108,-0.175419 0.142034,-0.306984 0.182118,-0.444667 0.08016,-0.274348 0.134193,-0.567054 0.189091,-0.928091 0.601253,-5.21974 0.863537,-11.10648 1.179848,-15.868293 0.497559,5.781693 0.519344,10.591441 1.179851,15.868293 0.0549,0.361037 0.108053,0.653743 0.189092,0.928091 0.04007,0.137683 0.08104,0.269248 0.182118,0.444667 0.10108,0.175419 0.338965,0.520138 0.80167,0.520138 0.399094,0 0.650921,-0.277407 0.764201,-0.444667 0.113282,-0.16624 0.161207,-0.296785 0.205648,-0.42631 0.08974,-0.258029 0.144649,-0.518099 0.202159,-0.834261 0.693619,-4.96273 0.966362,-10.591441 1.361968,-15.085026 0.372084,2.794468 0.608226,5.624631 1.007317,8.374224 0.111538,0.759809 0.222204,1.398253 0.350297,1.906153 0.06362,0.25395 0.12548,0.472203 0.235274,0.704736 0.0549,0.116266 0.120251,0.241712 0.250086,0.384494 0.129837,0.141764 0.368592,0.320242 0.677063,0.320242 0.453985,0 0.73022,-0.3335 0.862667,-0.545634 0.132448,-0.212135 0.197803,-0.401833 0.262285,-0.605809 0.648306,-2.706758 0.819101,-5.864303 1.067444,-8.361986 0.172532,0.422229 0.344192,0.85262 0.515859,1.212636 0.102821,0.216214 0.202158,0.407951 0.333741,0.601729 0.131575,0.192758 0.260539,0.559913 0.88009,0.559913 h 8.692029 c 0.0122,-0.3386 0.02182,-0.678219 0.02182,-1.019878 0,-0.34166 -0.0095,-0.68128 -0.02182,-1.019879 h -8.32082 c -0.02441,-0.0459 -0.03313,-0.05507 -0.06102,-0.113207 -0.551587,-1.26261 -0.980301,-2.426291 -1.606827,-3.456368 -0.154236,-0.198877 -0.359877,-0.509939 -0.881838,-0.509939 -0.413036,0 -0.642212,0.292705 -0.737184,0.440587 -0.09499,0.146862 -0.126355,0.24375 -0.156854,0.33452 -0.06013,0.181537 -0.08974,0.33452 -0.122863,0.516058 -0.330251,2.175402 -0.479257,4.62617 -0.723246,6.621053 -0.59254,-4.043819 -0.714534,-7.465511 -1.455208,-11.091181 -0.0636,-0.253949 -0.125479,-0.472203 -0.235273,-0.704736 -0.05491,-0.116266 -0.120251,-0.241711 -0.250089,-0.384493 -0.129833,-0.141764 -0.368591,-0.320242 -0.677062,-0.320242 -0.399091,0 -0.649177,0.277406 -0.762458,0.444667 -0.11328,0.16624 -0.161204,0.296785 -0.205646,0.426309 -0.08974,0.258029 -0.14465,0.518099 -0.20216,0.83426 -0.610838,4.362022 -0.892294,9.297214 -1.215578,13.28902 -0.538511,-6.096835 -0.536769,-11.141156 -1.233877,-16.675016 -0.0549,-0.361037 -0.106308,-0.653742 -0.187344,-0.92809 -0.04007,-0.137683 -0.08104,-0.269247 -0.182121,-0.444667 -0.101081,-0.175418 -0.340711,-0.520138 -0.803414,-0.520138"
     style="fill:#00de97;fill-opacity:1;stroke-width:0.94271064"
     id="path25" />
</svg>
