<?xml version="1.0" encoding="UTF-8" standalone="no"?>
<svg
   xmlns:dc="http://purl.org/dc/elements/1.1/"
   xmlns:cc="http://creativecommons.org/ns#"
   xmlns:rdf="http://www.w3.org/1999/02/22-rdf-syntax-ns#"
   xmlns:svg="http://www.w3.org/2000/svg"
   xmlns="http://www.w3.org/2000/svg"
   xmlns:sodipodi="http://sodipodi.sourceforge.net/DTD/sodipodi-0.dtd"
   xmlns:inkscape="http://www.inkscape.org/namespaces/inkscape"
   width="48"
   height="48"
   version="1.1"
   viewBox="0 0 48 48"
   id="svg32"
   sodipodi:docname="recipes.svg"
   inkscape:version="0.92.2pre0 (973e216, 2017-07-25)">
  <metadata
     id="metadata38">
    <rdf:RDF>
      <cc:Work
         rdf:about="">
        <dc:format>image/svg+xml</dc:format>
        <dc:type
           rdf:resource="http://purl.org/dc/dcmitype/StillImage" />
      </cc:Work>
    </rdf:RDF>
  </metadata>
  <defs
     id="defs36" />
  <sodipodi:namedview
     pagecolor="#ffffff"
     bordercolor="#666666"
     borderopacity="1"
     objecttolerance="10"
     gridtolerance="10"
     guidetolerance="10"
     inkscape:pageopacity="0"
     inkscape:pageshadow="2"
     inkscape:window-width="1360"
     inkscape:window-height="740"
     id="namedview34"
     showgrid="false"
     inkscape:zoom="11.611646"
     inkscape:cx="24.557079"
     inkscape:cy="32.166015"
     inkscape:window-x="0"
     inkscape:window-y="0"
     inkscape:window-maximized="1"
     inkscape:current-layer="svg32" />
  <g
     id="g841"
     transform="matrix(1.0152766,0,0,1.0405181,-0.71849488,-1.3693988)">
    <ellipse
       ry="21.627415"
       rx="22.394821"
       id="circle2"
       cy="24.922752"
       cx="24.32793"
       style="opacity:0.2;stroke-width:1.10038865" />
    <ellipse
       ry="21.713535"
       rx="22.26564"
       id="circle4"
       cy="24.425774"
       cx="24.457111"
       style="fill:#c2a176;fill-opacity:1;stroke-width:1.09939277" />
    <path
       inkscape:connector-curvature="0"
       id="path6"
       d="M 14.070316,28.985512 V 39.43684 c 0,1.158007 0.842332,2.090265 1.888636,2.090265 h 1.888635 c 1.046304,0 1.888636,-0.932258 1.888636,-2.090265 V 28.985512 Z"
       style="opacity:0.2;stroke-width:0.9934473" />
    <path
       inkscape:connector-curvature="0"
       id="path8"
       d="m 14.070316,8.0828536 c 0,0 9.443177,5.7800004 9.443177,20.9026584 h -9.443177 z"
       style="opacity:0.2;stroke-width:0.9934473" />
    <path
       inkscape:connector-curvature="0"
       id="path10"
       d="m 14.070316,27.940379 v 10.451328 c 0,1.158007 0.842332,2.090266 1.888636,2.090266 h 1.888635 c 1.046304,0 1.888636,-0.932259 1.888636,-2.090266 V 27.940379 Z"
       style="fill:#855629;stroke-width:0.9934473" />
    <path
       inkscape:connector-curvature="0"
       id="path12"
       d="m 14.070316,7.0377207 c 0,0 9.443177,5.7800013 9.443177,20.9026583 h -9.443177 z"
       style="fill:#cccccc;stroke-width:0.9934473" />
    <ellipse
       ry="1.0451329"
       rx="0.9443177"
       id="circle14"
       cy="32.120907"
       cx="16.903271"
       style="opacity:0.2;stroke-width:0.9934473" />
    <ellipse
       ry="1.0451329"
       rx="0.9443177"
       id="circle16"
       cy="31.075777"
       cx="16.903271"
       style="fill:#cccccc;stroke-width:0.9934473" />
    <ellipse
       ry="1.0451329"
       rx="0.9443177"
       id="circle18"
       cy="38.391705"
       cx="16.903271"
       style="opacity:0.2;stroke-width:0.9934473" />
    <ellipse
       ry="1.0451329"
       rx="0.9443177"
       id="circle20"
       cy="37.346573"
       cx="16.903271"
       style="fill:#cccccc;stroke-width:0.9934473" />
    <ellipse
       ry="7.5935092"
       rx="7.9892445"
       id="circle22"
       cy="28.562979"
       cx="34.835522"
       style="opacity:0.2;stroke-width:0.86542934" />
    <ellipse
       ry="7.5935092"
       rx="7.9892445"
       id="circle24"
       cy="27.719259"
       cx="34.835522"
       style="fill:#e74c3c;stroke-width:0.86542934" />
    <path
       inkscape:connector-curvature="0"
       id="path26"
       d="m 33.060137,20.125744 v 1.04312 a 7.9892443,7.5935096 0 0 0 -5.340034,3.958249 c 0.599395,-0.0997 1.838616,-0.396396 3.712016,-1.367755 0.743801,-0.385751 1.383147,-0.72738 1.628018,-1.102444 -2.123488,2.53117 0.179405,2.902358 1.331541,4.218617 0,0 2.699698,-1.687447 0.443847,-4.218617 2.663082,1.232395 5.326162,0.843725 5.326162,0.843725 0,0 0.01444,-0.24813 -0.0035,-0.589948 a 7.9892443,7.5935096 0 0 0 -5.322729,-1.941223 v -0.843724 z"
       style="opacity:0.1;fill-rule:evenodd;stroke-width:0.86542934" />
    <path
       inkscape:connector-curvature="0"
       id="path28"
       d="m 33.060137,19.282021 v 1.043119 a 7.9892443,7.5935096 0 0 0 -5.340034,3.958249 c 0.599395,-0.09972 1.838616,-0.396395 3.712016,-1.367754 0.743801,-0.38575 1.383147,-0.72738 1.628018,-1.102444 -2.123488,2.53117 0.179405,2.902359 1.331541,4.218616 0,0 2.699698,-1.687446 0.443847,-4.218616 2.663082,1.232395 5.326162,0.843723 5.326162,0.843723 0,0 0.01444,-0.248129 -0.0035,-0.589946 a 7.9892443,7.5935096 0 0 0 -5.322729,-1.941224 v -0.843723 z"
       style="fill:#a6ef4d;fill-rule:evenodd;stroke-width:0.86542934" />
    <path
       inkscape:connector-curvature="0"
       id="path30"
       d="M 24.6375,1.9150046 A 22.39482,21.627415 0 0 0 2.24268,23.54242 22.39482,21.627415 0 0 0 2.266737,24.171811 22.39482,21.627415 0 0 1 24.6375,2.9963753 22.39482,21.627415 0 0 1 47.008265,23.9944 22.39482,21.627415 0 0 0 47.032316,23.54242 22.39482,21.627415 0 0 0 24.637495,1.9150046 Z"
       style="opacity:0.2;fill:#ffffff;stroke-width:1.10038865" />
  </g>
</svg>
