<?xml version="1.0" encoding="UTF-8" standalone="no"?>
<svg id="svg2" xmlns:rdf="http://www.w3.org/1999/02/22-rdf-syntax-ns#" xmlns="http://www.w3.org/2000/svg" height="96" width="96" version="1.1" xmlns:cc="http://creativecommons.org/ns#" xmlns:dc="http://purl.org/dc/elements/1.1/">
 <metadata id="metadata57">
  <rdf:RDF>
   <cc:Work rdf:about="">
    <dc:format>image/svg+xml</dc:format>
    <dc:type rdf:resource="http://purl.org/dc/dcmitype/StillImage"/>
   </cc:Work>
  </rdf:RDF>
 </metadata>
 <path id="path45" style="color:#000000;stroke:#000;stroke-opacity:.047059;fill:#4d4d4d" d="m46.982 18.371c-10.417 0.14876-20.356 6.6902-24.625 16.188-4.8322 10.092-2.75 22.958 5.0312 31 7.2288 7.8604 19.112 10.786 29.188 7.3438 10.341-3.2883 18.114-13.13 19-23.938 1.174-10.968-4.849-22.253-14.656-27.313-4.245-2.299-9.12-3.394-13.938-3.281zm0.75 7.969c8.7374-0.1349 17.006 6.1581 19.25 14.594 0.13923 0.46558 0.24331 0.9335 0.34375 1.4062h-39.188c0.47915-2.4374 1.4048-4.788 2.8125-6.875 3.609-5.6 10.1-9.199 16.782-9.125zm-19.562 24h39.125c-1.152 5.46-4.517 10.462-9.438 13.219-7.679 4.764-18.451 3.213-24.594-3.375-2.661-2.691-4.36-6.176-5.093-9.844z"/>
</svg>
