<?xml version="1.0" encoding="UTF-8" standalone="no"?>
<svg
   xmlns:dc="http://purl.org/dc/elements/1.1/"
   xmlns:cc="http://creativecommons.org/ns#"
   xmlns:rdf="http://www.w3.org/1999/02/22-rdf-syntax-ns#"
   xmlns:svg="http://www.w3.org/2000/svg"
   xmlns="http://www.w3.org/2000/svg"
   xmlns:sodipodi="http://sodipodi.sourceforge.net/DTD/sodipodi-0.dtd"
   xmlns:inkscape="http://www.inkscape.org/namespaces/inkscape"
   viewBox="0 0 48 48"
   version="1.1"
   id="svg114"
   sodipodi:docname="gnome-disks.svg"
   inkscape:version="0.92.0 r15299">
  <metadata
     id="metadata118">
    <rdf:RDF>
      <cc:Work
         rdf:about="">
        <dc:format>image/svg+xml</dc:format>
        <dc:type
           rdf:resource="http://purl.org/dc/dcmitype/StillImage" />
      </cc:Work>
    </rdf:RDF>
  </metadata>
  <sodipodi:namedview
     pagecolor="#ffffff"
     bordercolor="#666666"
     borderopacity="1"
     objecttolerance="10"
     gridtolerance="10"
     guidetolerance="10"
     inkscape:pageopacity="0"
     inkscape:pageshadow="2"
     inkscape:window-width="1360"
     inkscape:window-height="743"
     id="namedview116"
     showgrid="false"
     inkscape:zoom="13.906433"
     inkscape:cx="22.23239"
     inkscape:cy="28.092651"
     inkscape:window-x="0"
     inkscape:window-y="0"
     inkscape:window-maximized="1"
     inkscape:current-layer="svg114" />
  <defs
     id="defs39">
    <linearGradient
       id="linearGradient3764"
       x1="1"
       x2="47"
       gradientUnits="userSpaceOnUse"
       gradientTransform="matrix(0,-1,1,0,-1.5e-6,47.999998)">
      <stop
         stop-color="#7b7b7d"
         stop-opacity="1"
         id="stop2" />
      <stop
         offset="1"
         stop-color="#858587"
         stop-opacity="1"
         id="stop4" />
    </linearGradient>
    <clipPath
       id="clipPath-005673839">
      <g
         transform="translate(0,-1004.3622)"
         id="g9">
        <path
           d="m -24 13 c 0 1.105 -0.672 2 -1.5 2 -0.828 0 -1.5 -0.895 -1.5 -2 0 -1.105 0.672 -2 1.5 -2 0.828 0 1.5 0.895 1.5 2 z"
           transform="matrix(15.333333,0,0,11.5,414.99999,878.8622)"
           fill="#1890d0"
           id="path7" />
      </g>
    </clipPath>
    <clipPath
       id="clipPath-020457064">
      <g
         transform="translate(0,-1004.3622)"
         id="g14">
        <path
           d="m -24 13 c 0 1.105 -0.672 2 -1.5 2 -0.828 0 -1.5 -0.895 -1.5 -2 0 -1.105 0.672 -2 1.5 -2 0.828 0 1.5 0.895 1.5 2 z"
           transform="matrix(15.333333,0,0,11.5,414.99999,878.8622)"
           fill="#1890d0"
           id="path12" />
      </g>
    </clipPath>
    <linearGradient
       id="linear0"
       gradientUnits="userSpaceOnUse"
       x1="-8.184"
       x2="-5.362"
       gradientTransform="matrix(0,-3.543307,-3.543307,0,0,0)">
      <stop
         stop-color="#c7b953"
         stop-opacity="1"
         id="stop17" />
      <stop
         offset="1"
         stop-color="#de7d53"
         stop-opacity="1"
         id="stop19" />
    </linearGradient>
    <linearGradient
       id="linear1"
       gradientUnits="userSpaceOnUse"
       y1="-4.219"
       x2="0"
       y2="12.607"
       gradientTransform="matrix(0.377409,0,0,0.356586,25.072993,22.504552)">
      <stop
         stop-color="#fff"
         stop-opacity="0.6"
         id="stop22" />
      <stop
         offset="1"
         stop-color="#000"
         stop-opacity="0"
         id="stop24" />
    </linearGradient>
    <linearGradient
       id="linearGradient31"
       gradientUnits="userSpaceOnUse"
       x1="-8.184"
       x2="-5.362"
       gradientTransform="matrix(0,-3.543307,-3.543307,0,0,0)">
      <stop
         stop-color="#c7b953"
         stop-opacity="1"
         id="stop27" />
      <stop
         offset="1"
         stop-color="#de7d53"
         stop-opacity="1"
         id="stop29" />
    </linearGradient>
    <linearGradient
       id="linearGradient37"
       gradientUnits="userSpaceOnUse"
       y1="-4.219"
       x2="0"
       y2="12.607"
       gradientTransform="matrix(0.377409,0,0,0.356586,25.072993,22.504552)">
      <stop
         stop-color="#fff"
         stop-opacity="0.6"
         id="stop33" />
      <stop
         offset="1"
         stop-color="#000"
         stop-opacity="0"
         id="stop35" />
    </linearGradient>
  </defs>
  <g
     id="g47">
    <path
       d="m 36.31 5 c 5.859 4.062 9.688 10.831 9.688 18.5 c 0 12.426 -10.07 22.5 -22.5 22.5 c -7.669 0 -14.438 -3.828 -18.5 -9.688 c 1.037 1.822 2.306 3.499 3.781 4.969 c 4.085 3.712 9.514 5.969 15.469 5.969 c 12.703 0 23 -10.298 23 -23 c 0 -5.954 -2.256 -11.384 -5.969 -15.469 c -1.469 -1.475 -3.147 -2.744 -4.969 -3.781 z m 4.969 3.781 c 3.854 4.113 6.219 9.637 6.219 15.719 c 0 12.703 -10.297 23 -23 23 c -6.081 0 -11.606 -2.364 -15.719 -6.219 c 4.16 4.144 9.883 6.719 16.219 6.719 c 12.703 0 23 -10.298 23 -23 c 0 -6.335 -2.575 -12.06 -6.719 -16.219 z"
       opacity="0.05"
       id="path41" />
    <path
       d="m 41.28 8.781 c 3.712 4.085 5.969 9.514 5.969 15.469 c 0 12.703 -10.297 23 -23 23 c -5.954 0 -11.384 -2.256 -15.469 -5.969 c 4.113 3.854 9.637 6.219 15.719 6.219 c 12.703 0 23 -10.298 23 -23 c 0 -6.081 -2.364 -11.606 -6.219 -15.719 z"
       opacity="0.1"
       id="path43" />
    <path
       d="m 31.25 2.375 c 8.615 3.154 14.75 11.417 14.75 21.13 c 0 12.426 -10.07 22.5 -22.5 22.5 c -9.708 0 -17.971 -6.135 -21.12 -14.75 a 23 23 0 0 0 44.875 -7 a 23 23 0 0 0 -16 -21.875 z"
       opacity="0.2"
       id="path45" />
  </g>
  <g
     id="g51">
    <path
       d="m 24 1 c 12.703 0 23 10.297 23 23 c 0 12.703 -10.297 23 -23 23 -12.703 0 -23 -10.297 -23 -23 0 -12.703 10.297 -23 23 -23 z"
       fill="url(#linearGradient3764)"
       fill-opacity="1"
       id="path49" />
  </g>
  <g
     id="g53" />
  <g
     id="g83">
    <g
       clip-path="url(#clipPath-005673839)"
       id="g81">
      <g
         transform="translate(1,1)"
         id="g79">
        <g
           opacity="0.1"
           id="g77">
          <!-- color: #858587 -->
          <g
             id="g75">
            <path
               d="m 39.01 24.01 l 0 -0.004 c 0 -8.281 -6.715 -14.996 -15 -14.996 l -0.004 0 c -8.281 0 -14.996 6.715 -14.996 14.996 l 0 0.004 c 0 8.285 6.715 15 14.996 15 l 0.004 0 c 8.285 0 15 -6.715 15 -15 m 0 0"
               fill="#000"
               stroke="none"
               fill-rule="evenodd"
               fill-opacity="1"
               id="path55" />
            <path
               d="m 37 24 c 0 -7.18 -5.82 -13 -13 -13 c -7.18 0 -13 5.82 -13 13 c 0 7.18 5.82 13 13 13 c 7.18 0 13 -5.82 13 -13 m 0 0"
               fill="#000"
               stroke="none"
               fill-rule="evenodd"
               fill-opacity="1"
               id="path57" />
            <path
               d="m 35 24 l 0 -0.004 c 0 -6.074 -4.922 -11 -10.996 -11 l -0.004 0 c -6.074 0 -11 4.926 -11 11 l 0 0.004 c 0 6.074 4.926 10.996 11 10.996 l 0.004 0 c 6.074 0 10.996 -4.922 10.996 -10.996 m 0 0"
               fill="#000"
               stroke="none"
               fill-rule="evenodd"
               fill-opacity="1"
               id="path59" />
            <path
               d="m 33 24 c 0 -4.973 -4.03 -9 -9 -9 c -4.973 0 -9 4.03 -9 9 c 0 4.969 4.03 9 9 9 c 4.969 0 9 -4.03 9 -9 m 0 0"
               fill="#000"
               stroke="none"
               fill-rule="evenodd"
               fill-opacity="1"
               id="path61" />
            <path
               d="m 31 24 l 0 -0.004 c 0 -3.867 -3.133 -7 -6.996 -7 l -0.004 0 c -3.867 0 -7 3.133 -7 7 l 0 0.004 c 0 3.863 3.133 6.996 7 6.996 l 0.004 0 c 3.863 0 6.996 -3.133 6.996 -6.996 m 0 0"
               fill="#000"
               stroke="none"
               fill-rule="evenodd"
               fill-opacity="1"
               id="path63" />
            <path
               d="m 29 24 c 0 -2.762 -2.238 -5 -5 -5 c -2.762 0 -5 2.238 -5 5 c 0 2.762 2.238 5 5 5 c 2.762 0 5 -2.238 5 -5 m 0 0"
               fill="#000"
               stroke="none"
               fill-rule="evenodd"
               id="path65" />
            <path
               d="m 27 24 c 0 1.656 -1.344 3 -3 3 c -1.656 0 -3 -1.344 -3 -3 c 0 -1.656 1.344 -3 3 -3 c 1.656 0 3 1.344 3 3 m 0 0"
               fill="#000"
               stroke="none"
               fill-rule="nonzero"
               id="path67" />
            <path
               d="m 24,15.152542 v 12.54611 L 34.474576,31.75 V 15.152542 m -10.474576,0"
               id="use69"
               inkscape:connector-curvature="0"
               style="fill:#000000;fill-opacity:0.30199998;fill-rule:nonzero;stroke:none;stroke-width:0.47765192" />
            <path
               d="M 0 0 L 0 32 L 24 24 L 24 0 M 0 0 "
               fill="#000"
               stroke="none"
               fill-rule="nonzero"
               fill-opacity="0.302"
               id="path71" />
            <path
               d="M 24 24 L 0 32 L 0 48 L 48 48 L 48 31.75 L 24.003906 24.003906 M 24 24 "
               fill="#000"
               stroke="none"
               fill-rule="nonzero"
               fill-opacity="0.282"
               id="path73" />
          </g>
        </g>
      </g>
    </g>
  </g>
  <path
     style="fill:#282828;fill-opacity:1;fill-rule:evenodd;stroke:none"
     inkscape:connector-curvature="0"
     id="path85"
     d="M 39.01,24.01 V 24.006 C 39.01,15.725 32.295,9.01 24.01,9.01 H 24.006 C 15.725,9.01 9.01,15.725 9.01,24.006 v 0.004 c 0,8.285 6.715,15 14.996,15 h 0.004 c 8.285,0 15,-6.715 15,-15 m 0,0" />
  <path
     style="fill:#2f2f2f;fill-opacity:1;fill-rule:evenodd;stroke:none"
     inkscape:connector-curvature="0"
     id="path87"
     d="m 37,24 c 0,-7.18 -5.82,-13 -13,-13 -7.18,0 -13,5.82 -13,13 0,7.18 5.82,13 13,13 7.18,0 13,-5.82 13,-13 m 0,0" />
  <path
     style="fill:#333333;fill-opacity:1;fill-rule:evenodd;stroke:none"
     inkscape:connector-curvature="0"
     id="path89"
     d="m 35,24 v -0.004 c 0,-6.074 -4.922,-11 -10.996,-11 H 24 c -6.074,0 -11,4.926 -11,11 V 24 c 0,6.074 4.926,10.996 11,10.996 h 0.004 C 30.078,34.996 35,30.074 35,24 m 0,0" />
  <path
     style="fill:#444444;fill-opacity:1;fill-rule:evenodd;stroke:none"
     inkscape:connector-curvature="0"
     id="path91"
     d="m 33,24 c 0,-4.973 -4.03,-9 -9,-9 -4.973,0 -9,4.03 -9,9 0,4.969 4.03,9 9,9 4.969,0 9,-4.03 9,-9 m 0,0" />
  <path
     style="fill:#535353;fill-opacity:1;fill-rule:evenodd;stroke:none"
     inkscape:connector-curvature="0"
     id="path93"
     d="m 31,24 v -0.004 c 0,-3.867 -3.133,-7 -6.996,-7 H 24 c -3.867,0 -7,3.133 -7,7 V 24 c 0,3.863 3.133,6.996 7,6.996 h 0.004 C 27.867,30.996 31,27.863 31,24 m 0,0" />
  <path
     inkscape:connector-curvature="0"
     style="fill:url(#linear0);fill-rule:evenodd;stroke:none"
     id="path95"
     d="m 29,24 c 0,-2.762 -2.238,-5 -5,-5 -2.762,0 -5,2.238 -5,5 0,2.762 2.238,5 5,5 2.762,0 5,-2.238 5,-5 m 0,0" />
  <path
     inkscape:connector-curvature="0"
     style="fill:url(#linear1);fill-rule:nonzero;stroke:none"
     id="path97"
     d="m 27,24 c 0,1.656 -1.344,3 -3,3 -1.656,0 -3,-1.344 -3,-3 0,-1.656 1.344,-3 3,-3 1.656,0 3,1.344 3,3 m 0,0" />
  <g
     id="g112">
    <path
       d="m 40.03 7.531 c 3.712 4.084 5.969 9.514 5.969 15.469 0 12.703 -10.297 23 -23 23 c -5.954 0 -11.384 -2.256 -15.469 -5.969 4.178 4.291 10.01 6.969 16.469 6.969 c 12.703 0 23 -10.298 23 -23 0 -6.462 -2.677 -12.291 -6.969 -16.469 z"
       opacity="0.1"
       id="path110" />
  </g>
  <path
     style="fill:#000000;fill-opacity:0.37438422;fill-rule:nonzero;stroke:none;stroke-width:1.75419271"
     inkscape:connector-curvature="0"
     id="path35"
     d="M 46.557592,28.49759 23.65052,24.302412 36.489148,4.784273 c 5.318788,3.267019 11.788946,11.928032 10.068444,23.713317 m 0,0" />
  <g
     id="g4605"
     transform="rotate(108.01388,-12.182757,32.225136)">
    <path
       d="m -37.380601,-7.8525827 c 0,0 -2.72146,-6.5502583 -4.56654,-9.4196193 -0.89864,-1.077356 -2.49804,-1.216476 -3.56486,-0.313849 -1.06929,0.902627 -1.21109,2.500857 -0.31246,3.577385 2.4898,2.322816 8.44386,6.1560833 8.44386,6.1560833 m 0,0"
       id="path111"
       inkscape:connector-curvature="0"
       style="fill:#f9f9f9;fill-opacity:1;fill-rule:nonzero;stroke:none;stroke-width:0.82626444" />
    <path
       d="m -43.106301,-15.768375 c 0,0.456282 -0.36687,0.828098 -0.82443,0.828098 -0.45426,0 -0.82444,-0.371816 -0.82444,-0.828098 0,-0.456282 0.37018,-0.828098 0.82444,-0.828098 0.45756,0 0.82443,0.371816 0.82443,0.828098 m 0,0"
       id="path113"
       inkscape:connector-curvature="0"
       style="fill:#868686;fill-opacity:1;fill-rule:nonzero;stroke:none;stroke-width:0.82626444" />
  </g>
</svg>
