<?xml version="1.0" encoding="UTF-8" standalone="no"?>
<svg id="svg2" xmlns:rdf="http://www.w3.org/1999/02/22-rdf-syntax-ns#" xmlns="http://www.w3.org/2000/svg" height="96" width="96" version="1.1" xmlns:cc="http://creativecommons.org/ns#" xmlns:dc="http://purl.org/dc/elements/1.1/">
 <metadata id="metadata57">
  <rdf:RDF>
   <cc:Work rdf:about="">
    <dc:format>image/svg+xml</dc:format>
    <dc:type rdf:resource="http://purl.org/dc/dcmitype/StillImage"/>
    <dc:title/>
   </cc:Work>
  </rdf:RDF>
 </metadata>
 <path id="path45" style="color:#000000;stroke:#000;stroke-opacity:.047059;fill:#4d4d4d" d="m47.504 16.01c-2.216 0-4 1.784-4 4v24c0 2.216 1.784 4 4 4s4-1.784 4-4v-24c0-2.216-1.784-4-4-4zm11.688 7.1875a4.0004 4.0004 0 0 0 -1.688 7.5c9.607 5.546 12.859 17.705 7.312 27.312-5.546 9.607-17.705 12.859-27.312 7.312-9.607-5.546-12.859-17.705-7.312-27.312 1.755-3.041 4.271-5.557 7.312-7.312a4.0042 4.0042 0 0 0 -4 -6.938c-4.256 2.457-7.793 5.994-10.25 10.25-7.708 13.351-3.101 30.542 10.25 38.25s30.542 3.101 38.25-10.25 3.101-30.542-10.25-38.25a4.0004 4.0004 0 0 0 -2.312 -0.563z"/>
</svg>
