<?xml version="1.0" encoding="UTF-8" standalone="no"?>
<svg id="svg2" xmlns:rdf="http://www.w3.org/1999/02/22-rdf-syntax-ns#" xmlns="http://www.w3.org/2000/svg" height="96" width="96" version="1.1" xmlns:cc="http://creativecommons.org/ns#" xmlns:dc="http://purl.org/dc/elements/1.1/">
 <metadata id="metadata57">
  <rdf:RDF>
   <cc:Work rdf:about="">
    <dc:format>image/svg+xml</dc:format>
    <dc:type rdf:resource="http://purl.org/dc/dcmitype/StillImage"/>
    <dc:title/>
   </cc:Work>
  </rdf:RDF>
 </metadata>
 <path id="path45" style="color:#000000;stroke:#000;stroke-opacity:.047059;fill:#4d4d4d" d="m59.68 22.178c-3.1453 0.01609-4.9877 4.1855-2.882 6.522 2.1548 1.834 4.845 3.1049 6.5612 5.4713 5.9079 6.8039 6.1875 17.643 0.66457 24.757-1.7446 2.439-4.1555 4.2925-6.6948 5.8344-2.5148 1.8939-1.5 6.3422 1.5874 6.9581 2.5579 0.60082 4.5824-1.514 6.5183-2.8323 8.6102-6.6826 12.556-18.666 9.5745-29.158-1.949-7.316-6.971-13.86-13.73-17.33-0.511-0.182-1.059-0.258-1.599-0.222zm-24 0.03125c-2.1903 0.361-3.9154 2.0308-5.6562 3.3125-8.1776 6.6696-11.875 18.198-9.1387 28.384 1.8839 7.4558 6.9526 14.151 13.821 17.674 2.9036 1.1913 6.2578-1.897 5.2206-4.8925-0.911-2.765-4.29-3.251-5.963-5.434-6.459-6.104-7.877-16.659-3.284-24.263 1.8478-3.3041 4.7526-5.8611 7.9701-7.7797 2.4676-1.955 1.344-6.377-1.7575-6.917-0.39674-0.08965-0.8072-0.11827-1.2125-0.08453z"/>
</svg>
