<?xml version="1.0" encoding="UTF-8" standalone="no"?>
<svg id="svg2" xmlns:rdf="http://www.w3.org/1999/02/22-rdf-syntax-ns#" xmlns="http://www.w3.org/2000/svg" height="96" width="96" version="1.1" xmlns:cc="http://creativecommons.org/ns#" xmlns:dc="http://purl.org/dc/elements/1.1/">
 <metadata id="metadata57">
  <rdf:RDF>
   <cc:Work rdf:about="">
    <dc:format>image/svg+xml</dc:format>
    <dc:type rdf:resource="http://purl.org/dc/dcmitype/StillImage"/>
   </cc:Work>
  </rdf:RDF>
 </metadata>
 <path id="path45" style="color:#000000;stroke:#000;stroke-opacity:.047059;fill:#4d4d4d" d="m80 46c0-2.216-1.784-4-4-4h-10c-2.216 0-4 1.784-4 4s1.784 4 4 4h10c2.216 0 4-1.784 4-4zm-8.188-19.812c0-1.0225-0.40403-2.029-1.1875-2.8125-1.5669-1.5669-4.0893-1.5669-5.6562 0l-7.0625 7.0625c-1.5669 1.5669-1.5669 4.0893 0 5.6562s4.0893 1.5669 5.6562 0l7.0625-7.0625c0.78347-0.78347 1.1875-1.8213 1.1875-2.8438zm0 39.625c0-1.0225-0.40403-2.0603-1.1875-2.8438l-7.062-7.062c-1.5669-1.5669-4.0893-1.5669-5.6562 0s-1.5669 4.0893 0 5.6562l7.0625 7.0625c1.5669 1.5669 4.0893 1.5669 5.6562 0 0.78347-0.78347 1.1875-1.79 1.1875-2.8125zm-19.812-47.813c0-2.216-1.784-4-4-4s-4 1.784-4 4v10c0 2.216 1.784 4 4 4s4-1.784 4-4v-10zm0 46c0-2.216-1.784-4-4-4s-4 1.784-4 4v10c0 2.216 1.784 4 4 4s4-1.784 4-4v-10zm-12.719-30.719c0-1.0225-0.40403-2.0603-1.1875-2.8438l-7.063-7.062c-1.5669-1.5669-4.0893-1.5669-5.6562 0s-1.5669 4.0893 0 5.6562l7.0625 7.0625c1.5669 1.5669 4.0893 1.5669 5.6562 0 0.78347-0.78347 1.1875-1.79 1.1875-2.8125zm0 25.438c0-1.0225-0.40403-2.029-1.1875-2.8125-1.5669-1.5669-4.0893-1.5669-5.6562 0l-7.0625 7.0625c-1.5669 1.5669-1.5669 4.0893 0 5.6562s4.0893 1.5669 5.6562 0l7.0625-7.0625c0.78347-0.78347 1.1875-1.8213 1.1875-2.8438zm-5.281-12.719c0-2.216-1.784-4-4-4h-10c-2.216 0-4 1.784-4 4s1.784 4 4 4h10c2.216 0 4-1.784 4-4z"/>
</svg>
