<?xml version="1.0" encoding="UTF-8" standalone="no"?>
<svg
   xmlns:dc="http://purl.org/dc/elements/1.1/"
   xmlns:cc="http://creativecommons.org/ns#"
   xmlns:rdf="http://www.w3.org/1999/02/22-rdf-syntax-ns#"
   xmlns:svg="http://www.w3.org/2000/svg"
   xmlns="http://www.w3.org/2000/svg"
   xmlns:sodipodi="http://sodipodi.sourceforge.net/DTD/sodipodi-0.dtd"
   xmlns:inkscape="http://www.inkscape.org/namespaces/inkscape"
   width="48"
   viewBox="0 0 13.546667 13.546667"
   height="48"
   version="1.1"
   id="svg18"
   sodipodi:docname="goa-account-pocket.svg"
   inkscape:version="0.92.2pre0 (973e216, 2017-07-25)">
  <metadata
     id="metadata24">
    <rdf:RDF>
      <cc:Work
         rdf:about="">
        <dc:format>image/svg+xml</dc:format>
        <dc:type
           rdf:resource="http://purl.org/dc/dcmitype/StillImage" />
      </cc:Work>
    </rdf:RDF>
  </metadata>
  <defs
     id="defs22" />
  <sodipodi:namedview
     pagecolor="#ffffff"
     bordercolor="#666666"
     borderopacity="1"
     objecttolerance="10"
     gridtolerance="10"
     guidetolerance="10"
     inkscape:pageopacity="0"
     inkscape:pageshadow="2"
     inkscape:window-width="640"
     inkscape:window-height="480"
     id="namedview20"
     showgrid="false"
     inkscape:zoom="4.9166667"
     inkscape:cx="24.40678"
     inkscape:cy="22.983051"
     inkscape:window-x="0"
     inkscape:window-y="0"
     inkscape:window-maximized="0"
     inkscape:current-layer="svg18" />
  <path
     d="M 3.6169027,4.2704879 C 3.2663908,4.2709637 2.9274136,4.322042 2.7267994,4.5544391 2.4193353,4.9106347 2.5411935,5.6187134 2.5411935,6.0547182 c 0,0.6573382 -0.04524,1.3595277 0.088226,2.0074076 0.142889,0.6936043 0.6451752,1.4491916 1.2125309,1.9189341 0.4118318,0.3410071 0.8524476,0.5826931 1.3618446,0.7798661 0.4988958,0.174678 0.976466,0.254319 1.4772554,0.259505 0.4593571,0 0.9210815,-0.04829 1.3575159,-0.18952 C 8.48366,10.686789 8.9343137,10.482736 9.3080818,10.216798 9.6980019,9.9154183 10.009802,9.6182318 10.258056,9.2454394 10.43837,8.9670105 10.58981,8.6651544 10.701663,8.3579642 10.97934,7.5953677 10.89908,6.6998221 10.89908,5.9067988 c 0,-0.3590013 0.09547,-1.0066036 -0.145482,-1.3101056 C 10.390401,4.1391252 9.5871562,4.3008547 8.9892602,4.3008547 H 4.3959234 c -0.226962,0 -0.5063998,-0.030734 -0.779021,-0.030437 z m 5.0910454,1.956568 c 0.097184,-7.04e-4 0.1980101,0.025282 0.3036754,0.089226 0.2405609,0.1453026 0.3166673,0.49319 0.1478685,0.7105183 C 9.0032259,7.2279886 8.7697733,7.3899067 8.5737838,7.5570493 L 7.5581697,8.4425518 C 7.3341116,8.6426491 7.1047953,8.9269772 6.7733808,8.9576219 6.4425692,8.9882566 6.2242804,8.7418898 6.0116705,8.548207 L 4.9498917,7.6217193 C 4.7308202,7.4402606 4.423991,7.2392017 4.2718561,7.0056242 4.0579093,6.6771286 4.3054241,6.2850734 4.6959912,6.2330341 c 0.249885,-0.033311 0.4258883,0.10963 0.6001323,0.250273 l 0.9925331,0.8623825 c 0.1032478,0.088037 0.2702652,0.3217242 0.4154772,0.3407393 0.1602346,0.020918 0.404607,-0.2939842 0.5078084,-0.3843121 L 7.9505662,6.6675416 C 8.1630838,6.4752962 8.4163956,6.2298121 8.7079481,6.2270856 Z"
     id="path2"
     inkscape:connector-curvature="0"
     style="fill:#ee4055;stroke-width:1.49154139" />
  <g
     transform="matrix(0.02528544,0,0,0.02536736,-13.589981,0.0451593)"
     id="g16">
    <path
       d="m 672.9661,87.889831 36,-20.6913 c 29.384,-13.4902 60.752,-20.3087 93,-20.3087 v -30 c -34.064,2.68839 -66.247,7.02716 -98,20.7191 -8.073,3.4809 -25.338,8.627 -29.972,16.4939 -4.416,7.4966 -1.028,25.149 -1.028,33.787 z"
       id="path4"
       inkscape:connector-curvature="0"
       style="fill:#51bbb7" />
    <path
       d="m 801.9661,16.889831 v 30 c 30.987,0 61.751,6.3394 90,19.3087 l 39,21.6913 c 0,-8.6229 3.687,-28.2051 -1.028,-35.4707 -4.649,-7.1642 -21.306,-12.0867 -28.972,-15.3788 -30.898,-13.26934 -65.396,-20.12834 -99,-20.1505 z"
       id="path6"
       inkscape:connector-curvature="0"
       style="fill:#ef4155" />
    <path
       d="m 930.9661,52.889831 c 0,9.6197 -3.161,25.8462 0.603,34.6999 2.463,5.7952 11.53,10.3609 16.115,14.510799 11.311,10.2359 22.14,21.4353 31.091,33.8283 24.544,33.978 43.123,77.349 43.191,119.961 0.076,47.388 -9.709,91.836 -36.1,132 -9.534,14.508 -21.138,27.875 -33.81,39.711 -5.53,5.164 -17.523,11.617 -20.487,18.589 -3.664,8.618 -0.603,24.341 -0.603,33.7 28.171,-10.662 54.321,-40.57 71.895,-64 65.574,-87.425 65.574,-211.575 0,-299 -17.574,-23.429899 -43.724,-53.337899 -71.895,-63.999999 z"
       id="path8"
       inkscape:connector-curvature="0"
       style="fill:#fbb74b" />
    <path
       d="m 671.9661,53.889831 c -31.5206,21.264 -58.5881,45.8152 -79.3079,77.999999 -56.0142,87.009 -50.6752,202.532 11.1814,285 17.681,23.573 42.0664,49.199 69.1265,62 0,-9.065 2.98,-24.365 -0.603,-32.7 -2.907,-6.76 -14.102,-12.276 -19.397,-17.339 -13.0154,-12.445 -25.0115,-25.881 -34.9213,-40.961 -26.4853,-40.303 -39.2864,-88.851 -35.9892,-137 3.0596,-44.679 21.0332,-88.457 49.3349,-123 l 24.5756,-25.7137 15.972,-13.749999 c 3.572,-5.8894 2.638,-28.3164 0.028,-34.5363 z"
       id="path10"
       inkscape:connector-curvature="0"
       style="fill:#83edb9" />
    <path
       d="m 672.9661,445.88983 c 0,8.414 -3.278,25.478 1.028,32.787 4.634,7.867 21.899,13.013 29.972,16.494 31.753,13.692 63.936,18.031 98,20.719 v -29 c -33.152,0 -66.113,-7.061 -96,-21.756 -9.838,-4.837 -23.203,-10.443 -30,-19.244 z"
       id="path12"
       inkscape:connector-curvature="0"
       style="fill:#51bbb7" />
    <path
       d="m 801.9661,486.88983 v 29 c 33.604,-0.022 68.102,-6.881 99,-20.15 7.666,-3.293 24.323,-8.215 28.972,-15.379 4.604,-7.095 1.028,-26.059 1.028,-34.471 l -39,21.691 c -28.249,12.97 -59.013,19.309 -90,19.309 m 173,-41 1,1 z"
       id="path14"
       inkscape:connector-curvature="0"
       style="fill:#ef4155" />
  </g>
</svg>
