<?xml version="1.0" encoding="UTF-8" standalone="no"?>
<svg
   xmlns:dc="http://purl.org/dc/elements/1.1/"
   xmlns:cc="http://creativecommons.org/ns#"
   xmlns:rdf="http://www.w3.org/1999/02/22-rdf-syntax-ns#"
   xmlns:svg="http://www.w3.org/2000/svg"
   xmlns="http://www.w3.org/2000/svg"
   xmlns:sodipodi="http://sodipodi.sourceforge.net/DTD/sodipodi-0.dtd"
   xmlns:inkscape="http://www.inkscape.org/namespaces/inkscape"
   viewBox="0 0 48 48"
   version="1.1"
   id="svg48"
   sodipodi:docname="google-chromium.svg"
   inkscape:version="0.92.1 r15371">
  <metadata
     id="metadata52">
    <rdf:RDF>
      <cc:Work
         rdf:about="">
        <dc:format>image/svg+xml</dc:format>
        <dc:type
           rdf:resource="http://purl.org/dc/dcmitype/StillImage" />
        <dc:title></dc:title>
      </cc:Work>
    </rdf:RDF>
  </metadata>
  <sodipodi:namedview
     pagecolor="#ffffff"
     bordercolor="#666666"
     borderopacity="1"
     objecttolerance="10"
     gridtolerance="10"
     guidetolerance="10"
     inkscape:pageopacity="0"
     inkscape:pageshadow="2"
     inkscape:window-width="790"
     inkscape:window-height="480"
     id="namedview50"
     showgrid="false"
     inkscape:zoom="4.9166667"
     inkscape:cx="24"
     inkscape:cy="24"
     inkscape:window-x="113"
     inkscape:window-y="54"
     inkscape:window-maximized="0"
     inkscape:current-layer="svg48" />
  <defs
     id="defs14">
    <clipPath
       id="clipPath6">
      <g
         transform="translate(0,-1004.3622)"
         id="g4">
        <path
           d="m -24 13 c 0 1.105 -0.672 2 -1.5 2 -0.828 0 -1.5 -0.895 -1.5 -2 0 -1.105 0.672 -2 1.5 -2 0.828 0 1.5 0.895 1.5 2 z"
           transform="matrix(15.333333,0,0,11.5,414.99999,878.8622)"
           fill="#1890d0"
           id="path2" />
      </g>
    </clipPath>
    <clipPath
       id="clipPath12">
      <g
         transform="translate(0,-1004.3622)"
         id="g10">
        <path
           d="m -24 13 c 0 1.105 -0.672 2 -1.5 2 -0.828 0 -1.5 -0.895 -1.5 -2 0 -1.105 0.672 -2 1.5 -2 0.828 0 1.5 0.895 1.5 2 z"
           transform="matrix(15.333333,0,0,11.5,414.99999,878.8622)"
           fill="#1890d0"
           id="path8" />
      </g>
    </clipPath>
  </defs>
  <g
     id="g22">
    <path
       d="m 36.31 5 c 5.859 4.062 9.688 10.831 9.688 18.5 c 0 12.426 -10.07 22.5 -22.5 22.5 c -7.669 0 -14.438 -3.828 -18.5 -9.688 c 1.037 1.822 2.306 3.499 3.781 4.969 c 4.085 3.712 9.514 5.969 15.469 5.969 c 12.703 0 23 -10.298 23 -23 c 0 -5.954 -2.256 -11.384 -5.969 -15.469 c -1.469 -1.475 -3.147 -2.744 -4.969 -3.781 z m 4.969 3.781 c 3.854 4.113 6.219 9.637 6.219 15.719 c 0 12.703 -10.297 23 -23 23 c -6.081 0 -11.606 -2.364 -15.719 -6.219 c 4.16 4.144 9.883 6.719 16.219 6.719 c 12.703 0 23 -10.298 23 -23 c 0 -6.335 -2.575 -12.06 -6.719 -16.219 z"
       opacity="0.05"
       id="path16" />
    <path
       d="m 41.28 8.781 c 3.712 4.085 5.969 9.514 5.969 15.469 c 0 12.703 -10.297 23 -23 23 c -5.954 0 -11.384 -2.256 -15.469 -5.969 c 4.113 3.854 9.637 6.219 15.719 6.219 c 12.703 0 23 -10.298 23 -23 c 0 -6.081 -2.364 -11.606 -6.219 -15.719 z"
       opacity="0.1"
       id="path18" />
    <path
       d="m 31.25 2.375 c 8.615 3.154 14.75 11.417 14.75 21.13 c 0 12.426 -10.07 22.5 -22.5 22.5 c -9.708 0 -17.971 -6.135 -21.12 -14.75 a 23 23 0 0 0 44.875 -7 a 23 23 0 0 0 -16 -21.875 z"
       opacity="0.2"
       id="path20" />
  </g>
  <path
     d="m 31.996 24 c 0 4.418 -3.578 8 -8 8 -4.418 0 -8 -3.578 -8 -8 0 -4.418 3.578 -8 8 -8 4.418 0 8 3.582 8 8 m 0 0"
     fill="#209cc8"
     fill-rule="nonzero"
     stroke="none"
     fill-opacity="1"
     id="path24" />
  <path
     d="m 33.965 24 c 0 5.504 -4.461 9.965 -9.965 9.965 -5.508 0 -9.969 -4.461 -9.969 -9.965 0 -5.508 4.461 -9.969 9.969 -9.969 5.504 0 9.965 4.461 9.965 9.969 m 0 0"
     fill="#f9f9f9"
     fill-rule="nonzero"
     stroke="none"
     fill-opacity="1"
     id="path26" />
  <path
     d="M 8.313,7.188 C 3.816,11.386 1,17.363 1,24.001 1,34.962 8.674,44.131 18.938,46.439 l 8.313,-14.03 c -1.227,0.477 -2.52,0.711 -3.844,0.625 -1.328,-0.086 -2.645,-0.508 -3.875,-1.219 -1.078,-0.621 -1.98,-1.406 -2.688,-2.344 -0.703,-0.934 -1.234,-2.02 -1.531,-3.125 -0.297,-1.113 -0.395,-2.273 -0.25,-3.438 0.116,-0.932 0.541,-1.829 0.969,-2.719 l -7.719,-13 z"
     id="path28"
     style="fill:#00bbf2;fill-opacity:1;fill-rule:nonzero;stroke:none"
     inkscape:connector-curvature="0" />
  <path
     d="m 31.961 24 c -0.09 4.336 -3.637 7.809 -7.973 7.809 -4.34 0 -7.883 -3.473 -7.977 -7.809 -0.059 -2.891 1.445 -5.586 3.938 -7.05 2.492 -1.465 5.582 -1.465 8.07 0 2.492 1.461 4 4.156 3.938 7.05 m 0 0"
     fill="#209dc8"
     fill-rule="nonzero"
     stroke="none"
     fill-opacity="1"
     id="path30" />
  <path
     d="m 29.563,17 c 1.023,0.828 1.945,1.906 2.531,3.094 0.59,1.191 0.906,2.515 0.906,3.938 0,1.242 -0.23,2.422 -0.688,3.5 -0.457,1.078 -1.125,2.058 -1.938,2.875 -0.816,0.813 -1.797,1.485 -2.875,1.938 -0.866,0.367 -1.83,0.488 -2.813,0.563 l -7.531,13.06 c 2.161,0.672 4.462,1.031 6.844,1.031 12.703,0 23,-10.297 23,-23 0,-2.441 -0.389,-4.793 -1.094,-7 H 29.561 Z"
     id="path32"
     style="fill:#6fc9d3;fill-opacity:1;fill-rule:nonzero;stroke:none"
     inkscape:connector-curvature="0" />
  <path
     d="M 24,1 C 17.252,1 11.176,3.902 6.97,8.531 l 8.188,14.13 c 0.203,-1.301 0.668,-2.551 1.406,-3.656 0.738,-1.102 1.738,-2.043 2.969,-2.75 1.078,-0.621 2.215,-1.016 3.375,-1.156 1.156,-0.145 2.355,-0.051 3.469,0.25 1.113,0.301 2.16,0.797 3.094,1.5 0.758,0.574 1.344,1.366 1.906,2.188 l 15.06,-0.031 C 44.15,8.713 34.982,1.006 23.999,1.006 Z"
     id="path34"
     style="fill:#4a8eb8;fill-opacity:1;fill-rule:nonzero;stroke:none"
     inkscape:connector-curvature="0" />
  <path
     d="m 33 24 c 0 4.969 -4.03 9 -9 9 -4.973 0 -9 -4.03 -9 -9 0 -4.973 4.03 -9 9 -9 4.969 0 9 4.03 9 9 m 0 0"
     fill="#f9f9f9"
     fill-rule="nonzero"
     stroke="none"
     fill-opacity="1"
     id="path36" />
  <path
     d="m 32 25 c -0.086 3.805 -3.195 6.844 -7 6.844 -3.805 0 -6.914 -3.039 -7 -6.844 -0.055 -2.539 1.266 -4.91 3.453 -6.195 2.191 -1.285 4.906 -1.285 7.094 0 2.188 1.285 3.512 3.656 3.453 6.195 m 0 0"
     opacity="0.1"
     fill="#000"
     fill-rule="nonzero"
     stroke="none"
     fill-opacity="1"
     id="path38" />
  <path
     d="m 31,24 c -0.086,3.805 -3.195,6.844 -7,6.844 -3.805,0 -6.914,-3.039 -7,-6.844 -0.055,-2.539 1.266,-4.91 3.453,-6.195 2.191,-1.285 4.906,-1.285 7.094,0 C 29.735,19.09 31.059,21.461 31,24 m 0,0"
     fill="#3d7fe6"
     fill-rule="nonzero"
     stroke="none"
     fill-opacity="1"
     id="path40"
     style="fill:#3d77e6;fill-opacity:1" />
  <g
     id="g44">
    <path
       d="m 40.03 7.531 c 3.712 4.084 5.969 9.514 5.969 15.469 0 12.703 -10.297 23 -23 23 c -5.954 0 -11.384 -2.256 -15.469 -5.969 4.178 4.291 10.01 6.969 16.469 6.969 c 12.703 0 23 -10.298 23 -23 0 -6.462 -2.677 -12.291 -6.969 -16.469 z"
       opacity="0.1"
       id="path42" />
  </g>
  <path
     d="m 24 15 c -4.97 0 -9 4.03 -9 9 0 2.708 1.201 5.131 3.094 6.781 -0.085 -0.102 -0.17 -0.207 -0.25 -0.313 -0.703 -0.934 -1.234 -2.02 -1.531 -3.125 -0.297 -1.113 -0.395 -2.273 -0.25 -3.438 0.013 -0.106 0.042 -0.207 0.063 -0.313 l 0.031 0.009 c 0.039 -0.253 0.097 -0.448 0.156 -0.696 0.191 -0.578 0.393 -1.298 0.665 -1.863 l -0.009 0.019 c 0.177 -0.368 0.365 -0.72 0.594 -1.063 c 0.738 -1.102 1.738 -2.043 2.969 -2.75 1.078 -0.621 2.215 -1.016 3.375 -1.156 1.156 -0.145 2.355 -0.051 3.469 0.25 1.113 0.301 2.16 0.797 3.094 1.5 0.136 0.103 0.249 0.228 0.375 0.344 c -1.651 -1.942 -4.096 -3.188 -6.844 -3.188 z"
     opacity="0.1"
     fill="#000"
     fill-rule="nonzero"
     stroke="none"
     fill-opacity="1"
     id="path46" />
</svg>
