<?xml version="1.0" encoding="UTF-8" standalone="no"?>
<svg
   xmlns:dc="http://purl.org/dc/elements/1.1/"
   xmlns:cc="http://creativecommons.org/ns#"
   xmlns:rdf="http://www.w3.org/1999/02/22-rdf-syntax-ns#"
   xmlns:svg="http://www.w3.org/2000/svg"
   xmlns="http://www.w3.org/2000/svg"
   xmlns:sodipodi="http://sodipodi.sourceforge.net/DTD/sodipodi-0.dtd"
   xmlns:inkscape="http://www.inkscape.org/namespaces/inkscape"
   width="48"
   height="48"
   version="1.1"
   viewBox="0 0 48 48"
   id="svg16"
   sodipodi:docname="groovy.svg"
   inkscape:version="0.92.2pre0 (973e216, 2017-07-25)">
  <metadata
     id="metadata22">
    <rdf:RDF>
      <cc:Work
         rdf:about="">
        <dc:format>image/svg+xml</dc:format>
        <dc:type
           rdf:resource="http://purl.org/dc/dcmitype/StillImage" />
      </cc:Work>
    </rdf:RDF>
  </metadata>
  <defs
     id="defs20" />
  <sodipodi:namedview
     pagecolor="#ffffff"
     bordercolor="#666666"
     borderopacity="1"
     objecttolerance="10"
     gridtolerance="10"
     guidetolerance="10"
     inkscape:pageopacity="0"
     inkscape:pageshadow="2"
     inkscape:window-width="640"
     inkscape:window-height="480"
     id="namedview18"
     showgrid="false"
     inkscape:zoom="4.9166667"
     inkscape:cx="24"
     inkscape:cy="24"
     inkscape:window-x="0"
     inkscape:window-y="28"
     inkscape:window-maximized="0"
     inkscape:current-layer="svg16" />
  <ellipse
     style="opacity:0.2;fill:#546e7a;stroke-width:1.12530124"
     cx="23.79661"
     cy="25.27284"
     id="circle2"
     rx="22.237288"
     ry="22.778008" />
  <ellipse
     style="fill:#3f9142;stroke-width:1.12530124"
     cx="23.79661"
     cy="24.13394"
     id="circle4"
     rx="22.237288"
     ry="22.778008" />
  <ellipse
     style="fill:#79de7d;stroke-width:1.12530124"
     cx="23.79661"
     cy="24.13394"
     id="circle6"
     rx="17.789829"
     ry="18.222406" />
  <path
     style="opacity:0.2;stroke-width:1.12530124"
     d="m 34.915255,27.309194 c 0,3.452462 -0.875405,6.067036 -2.626224,7.843607 -1.750075,1.765296 -4.370739,2.647943 -7.860881,2.647943 -2.455664,0 -4.57599,-0.530727 -6.360866,-1.592182 -1.773534,-1.072617 -3.114999,-2.558654 -4.024504,-4.458112 -0.909505,-1.910619 -1.364258,-4.128514 -1.364258,-6.65357 0,-2.391121 0.477468,-4.519613 1.432415,-6.385473 0.954947,-1.86586 2.330579,-3.323995 4.126907,-4.374288 1.796217,-1.061455 3.876738,-1.592183 6.24145,-1.592183 2.603432,0 4.734986,0.653615 6.394889,1.960844 1.671243,1.30723 2.837478,2.66013 3.485472,4.872444 h -4.391864 c -0.611525,-1.1389 -1.139661,-1.470092 -2.128776,-2.140563 -0.989036,-0.670368 -2.131554,-1.005558 -3.427655,-1.005558 -2.091862,0 -3.88819,0.821226 -5.388874,2.46367 -1.500682,1.631246 -2.251079,3.69277 -2.251079,6.184342 l -3.57e-4,1.48e-4 c 0,1.676006 0.301271,3.195527 0.903802,4.558677 0.613915,1.351989 1.500682,2.435766 2.660246,3.251333 1.170905,0.815601 2.518151,1.223406 4.041628,1.223406 1.193809,0 2.251081,-0.145255 3.171926,-0.435754 0.932266,-0.301684 1.693926,-0.78214 2.285104,-1.441393 0.602531,-0.670368 0.920846,-1.458475 0.954946,-2.408205 h -4.767673 v -3.4167 h 8.894914"
     id="path8"
     inkscape:connector-curvature="0" />
  <path
     style="fill:#3f9142;stroke-width:1.12530124"
     d="m 34.915255,26.170294 c 0,3.452462 -0.875405,6.067035 -2.626224,7.843606 -1.750853,1.765409 -4.371296,2.648058 -7.861549,2.648058 -2.455664,0 -4.575989,-0.530728 -6.360865,-1.592183 -1.773535,-1.072617 -3.114999,-2.558653 -4.024505,-4.458112 -0.909505,-1.910619 -1.364258,-4.128513 -1.364258,-6.65357 0,-2.39112 0.477469,-4.519612 1.432416,-6.385472 0.954947,-1.865861 2.330579,-3.323995 4.126907,-4.374289 1.796217,-1.061455 3.876738,-1.592182 6.241451,-1.592182 2.60343,0 4.734986,0.653614 6.394888,1.960844 1.672244,1.307458 2.83859,2.659332 3.486807,4.872216 h -4.391865 c -0.611525,-1.1389 -1.13966,-1.470321 -2.12922,-2.141133 -0.989037,-0.670368 -2.131555,-1.005558 -3.427655,-1.005558 -2.091863,0 -3.888191,0.821227 -5.388873,2.46367 -1.500684,1.631247 -2.251081,3.69277 -2.251081,6.184343 v 0.0012 c 0,1.676005 0.30127,3.195526 0.903801,4.558677 0.613916,1.351988 1.500683,2.435765 2.660247,3.251332 1.170904,0.815601 2.51815,1.223407 4.041626,1.223407 1.193809,0 2.251081,-0.145255 3.171928,-0.435754 0.932264,-0.301684 1.693925,-0.782141 2.285104,-1.441393 0.60263,-0.669673 0.921735,-1.457793 0.955091,-2.407635 h -4.767675 v -3.416701 h 8.894915"
     id="path10"
     inkscape:connector-curvature="0" />
  <path
     style="opacity:0.2;stroke-width:1.12530124"
     d="M 23.79661,5.9115337 A 17.78983,18.222406 0 0 0 6.0067796,24.133939 17.78983,18.222406 0 0 0 6.0306848,24.794502 17.78983,18.222406 0 0 1 23.796055,7.0504341 17.78983,18.222406 0 0 1 41.562535,24.612278 17.78983,18.222406 0 0 0 41.585885,24.133939 17.78983,18.222406 0 0 0 23.796055,5.9115337 Z"
     id="path12"
     inkscape:connector-curvature="0" />
  <path
     style="opacity:0.1;fill:#ffffff;stroke-width:1.12530124"
     d="M 23.79661,1.3559322 A 22.237288,22.778007 0 0 0 1.559322,24.133939 22.237288,22.778007 0 0 0 1.5832271,24.796779 22.237288,22.778007 0 0 1 23.796055,2.4948326 22.237288,22.778007 0 0 1 46.009993,24.61 22.237288,22.778007 0 0 0 46.033343,24.133939 22.237288,22.778007 0 0 0 23.796055,1.3559322 Z"
     id="path14"
     inkscape:connector-curvature="0" />
</svg>
