<?xml version="1.0" encoding="UTF-8" standalone="no"?>
<svg
   xmlns:dc="http://purl.org/dc/elements/1.1/"
   xmlns:cc="http://creativecommons.org/ns#"
   xmlns:rdf="http://www.w3.org/1999/02/22-rdf-syntax-ns#"
   xmlns:svg="http://www.w3.org/2000/svg"
   xmlns="http://www.w3.org/2000/svg"
   xmlns:xlink="http://www.w3.org/1999/xlink"
   xmlns:sodipodi="http://sodipodi.sourceforge.net/DTD/sodipodi-0.dtd"
   xmlns:inkscape="http://www.inkscape.org/namespaces/inkscape"
   viewBox="0 0 48 48"
   id="svg2"
   version="1.1"
   inkscape:version="0.48.4 r9939"
   width="100%"
   height="100%"
   sodipodi:docname="gufw.svg">
  <metadata
     id="metadata43">
    <rdf:RDF>
      <cc:Work
         rdf:about="">
        <dc:format>image/svg+xml</dc:format>
        <dc:type
           rdf:resource="http://purl.org/dc/dcmitype/StillImage" />
      </cc:Work>
    </rdf:RDF>
  </metadata>
  <sodipodi:namedview
     pagecolor="#ffffff"
     bordercolor="#666666"
     borderopacity="1"
     objecttolerance="10"
     gridtolerance="10"
     guidetolerance="10"
     inkscape:pageopacity="0"
     inkscape:pageshadow="2"
     inkscape:window-width="1360"
     inkscape:window-height="715"
     id="namedview41"
     showgrid="false"
     inkscape:zoom="4.9166667"
     inkscape:cx="-9.4576272"
     inkscape:cy="24"
     inkscape:window-x="0"
     inkscape:window-y="30"
     inkscape:window-maximized="1"
     inkscape:current-layer="svg2" />
  <defs
     id="defs4">
    <linearGradient
       id="linearGradient4170"
       y1="1"
       x2="0"
       y2="47"
       gradientUnits="userSpaceOnUse">
      <stop
         style="stop-color:#f4764c;stop-opacity:1;"
         id="stop7"
         offset="0" />
      <stop
         offset="1"
         style="stop-color:#f38f39;stop-opacity:1"
         id="stop9" />
    </linearGradient>
    <linearGradient
       inkscape:collect="always"
       xlink:href="#linearGradient4170"
       id="linearGradient3056"
       gradientUnits="userSpaceOnUse"
       y1="1"
       x2="0"
       y2="47" />
    <linearGradient
       inkscape:collect="always"
       xlink:href="#linearGradient4170"
       id="linearGradient3059"
       gradientUnits="userSpaceOnUse"
       y1="1"
       x2="0"
       y2="47" />
  </defs>
  <g
     id="g11">
    <path
       d="m 36.31 5 c 5.859 4.062 9.688 10.831 9.688 18.5 c 0 12.426 -10.07 22.5 -22.5 22.5 c -7.669 0 -14.438 -3.828 -18.5 -9.688 c 1.037 1.822 2.306 3.499 3.781 4.969 c 4.085 3.712 9.514 5.969 15.469 5.969 c 12.703 0 23 -10.298 23 -23 c 0 -5.954 -2.256 -11.384 -5.969 -15.469 c -1.469 -1.475 -3.147 -2.744 -4.969 -3.781 z m 4.969 3.781 c 3.854 4.113 6.219 9.637 6.219 15.719 c 0 12.703 -10.297 23 -23 23 c -6.081 0 -11.606 -2.364 -15.719 -6.219 c 4.16 4.144 9.883 6.719 16.219 6.719 c 12.703 0 23 -10.298 23 -23 c 0 -6.335 -2.575 -12.06 -6.719 -16.219 z"
       style="opacity:0.05"
       id="path13" />
    <path
       d="m 41.28 8.781 c 3.712 4.085 5.969 9.514 5.969 15.469 c 0 12.703 -10.297 23 -23 23 c -5.954 0 -11.384 -2.256 -15.469 -5.969 c 4.113 3.854 9.637 6.219 15.719 6.219 c 12.703 0 23 -10.298 23 -23 c 0 -6.081 -2.364 -11.606 -6.219 -15.719 z"
       style="opacity:0.1"
       id="path15" />
    <path
       d="m 31.25 2.375 c 8.615 3.154 14.75 11.417 14.75 21.13 c 0 12.426 -10.07 22.5 -22.5 22.5 c -9.708 0 -17.971 -6.135 -21.12 -14.75 a 23 23 0 0 0 44.875 -7 a 23 23 0 0 0 -16 -21.875 z"
       style="opacity:0.2"
       id="path17" />
  </g>
  <path
     d="M 24,1 C 36.703,1 47,11.297 47,24 47,36.703 36.703,47 24,47 11.297,47 1,36.703 1,24 1,11.297 11.297,1 24,1 z"
     style="fill:url(#linearGradient3059);fill-opacity:1"
     id="path23"
     inkscape:connector-curvature="0" />
  <g
     id="g25">
    <path
       d="m 40.03 7.531 c 3.712 4.084 5.969 9.514 5.969 15.469 0 12.703 -10.297 23 -23 23 c -5.954 0 -11.384 -2.256 -15.469 -5.969 4.178 4.291 10.01 6.969 16.469 6.969 c 12.703 0 23 -10.298 23 -23 0 -6.462 -2.677 -12.291 -6.969 -16.469 z"
       style="opacity:0.1"
       id="path27" />
  </g>
  <g
     style="fill:#7e97de"
     id="g4486"
     transform="matrix(0.09879484,0,0,0.09555055,6.3762246,8.4743493)">
    <path
       style="fill:#7e97de"
       inkscape:connector-curvature="0"
       id="path4448"
       d="M 324.48,51.943 177.99,0.285 c -1.076,-0.38 -2.25,-0.38 -3.326,0 L 28.174,51.943 c -1.999,0.705 -3.337,2.595 -3.337,4.715 0,52.278 13.834,112.71 37.956,165.8 19.566,43.069 54.751,100.52 111.25,129.62 0.719,0.37 1.504,0.555 2.29,0.555 0.786,0 1.571,-0.185 2.29,-0.555 56.496,-29.106 91.68,-86.556 111.25,-129.62 24.121,-53.094 37.955,-113.53 37.955,-165.8 0,-2.12 -1.338,-4.01 -3.337,-4.715 z" />
  </g>
  <g
     style="fill:#ffffff"
     id="g4660"
     transform="matrix(0.05230176,0,0,0.05255238,14.573502,16.055721)">
    <path
       style="fill:#ffffff"
       inkscape:connector-curvature="0"
       id="path4662"
       d="M 324.48,51.943 177.99,0.285 c -1.076,-0.38 -2.25,-0.38 -3.326,0 L 28.174,51.943 c -1.999,0.705 -3.337,2.595 -3.337,4.715 0,52.278 13.834,112.71 37.956,165.8 19.566,43.069 54.751,100.52 111.25,129.62 0.719,0.37 1.504,0.555 2.29,0.555 0.786,0 1.571,-0.185 2.29,-0.555 56.496,-29.106 91.68,-86.556 111.25,-129.62 24.121,-53.094 37.955,-113.53 37.955,-165.8 0,-2.12 -1.338,-4.01 -3.337,-4.715 z" />
  </g>
  <g
     style="opacity:0.1"
     id="g4504"
     transform="matrix(0.09879484,0,0,0.09555055,6.3762246,8.4743493)">
    <path
       inkscape:connector-curvature="0"
       id="path4506"
       d="M 324.48,51.943 176.32,0 v 352.64 c 0.786,0 1.571,-0.185 2.29,-0.555 56.496,-29.106 91.68,-86.556 111.25,-129.62 24.121,-53.094 37.955,-113.53 37.955,-165.8 0,-2.12 -1.338,-4.01 -3.337,-4.715 z" />
  </g>
  <g
     style="fill:#5c7bd5"
     id="g4538"
     transform="matrix(0.09879484,0,0,0.09555055,6.3762246,8.4743493)">
    <path
       style="opacity:0.2;fill:#ffffff"
       inkscape:connector-curvature="0"
       id="path4540"
       d="M 24,4 C 23.937,4 23.875,4.0117 23.814,4.0332 L 7.375,9.8926 C 7.1507,9.9725 7,10.185 7,10.426 c 0,0.27 0.0209,0.552 0.0273,0.826 0.0528,-0.166 0.1795,-0.299 0.3477,-0.359 L 23.814,5.0332 c 0.121,-0.0431 0.253,-0.0431 0.374,0 l 16.437,5.8598 c 0.168,0.06 0.295,0.193 0.348,0.359 C 40.979,10.978 41,10.696 41,10.426 41,10.185 40.849,9.9725 40.625,9.8926 L 24.188,4.0332 C 24.127,4.0117 24.063,4 24,4 z"
       transform="matrix(8.9114,0,0,8.8161,-37.55,-35.264)" />
  </g>
  <g
     style="opacity:0.3"
     id="g4537"
     transform="matrix(0.09879484,0,0,0.09555055,6.3762246,8.4743493)">
    <path
       inkscape:connector-curvature="0"
       id="path4539"
       d="M 7.0273,10.258 C 7.0109,10.311 7,10.368 7,10.426 c 0,5.93 1.5529,12.786 4.26,18.808 2.195,4.886 6.142,11.402 12.482,14.704 C 23.823,43.979 23.912,44 24,44 24.088,44 24.177,43.979 24.258,43.938 30.598,40.636 34.544,34.12 36.74,29.234 39.447,23.212 41,16.356 41,10.426 41,10.368 40.989,10.311 40.973,10.258 40.837,15.993 39.323,22.489 36.74,28.234 34.544,33.12 30.598,39.636 24.258,42.938 24.177,42.979 24.088,43 24,43 23.912,43 23.823,42.979 23.742,42.938 17.402,39.636 13.455,33.12 11.26,28.234 8.6773,22.489 7.1626,15.993 7.0273,10.258 z"
       transform="matrix(8.9114,0,0,8.8161,-37.55,-35.264)" />
  </g>
</svg>
