<?xml version="1.0" encoding="UTF-8" standalone="no"?>
<svg
   xmlns:dc="http://purl.org/dc/elements/1.1/"
   xmlns:cc="http://creativecommons.org/ns#"
   xmlns:rdf="http://www.w3.org/1999/02/22-rdf-syntax-ns#"
   xmlns:svg="http://www.w3.org/2000/svg"
   xmlns="http://www.w3.org/2000/svg"
   xmlns:sodipodi="http://sodipodi.sourceforge.net/DTD/sodipodi-0.dtd"
   xmlns:inkscape="http://www.inkscape.org/namespaces/inkscape"
   height="48"
   width="48"
   version="1"
   id="svg20"
   sodipodi:docname="half-life2.svg"
   inkscape:version="0.92.2pre0 (973e216, 2017-07-25)">
  <metadata
     id="metadata26">
    <rdf:RDF>
      <cc:Work
         rdf:about="">
        <dc:format>image/svg+xml</dc:format>
        <dc:type
           rdf:resource="http://purl.org/dc/dcmitype/StillImage" />
      </cc:Work>
    </rdf:RDF>
  </metadata>
  <defs
     id="defs24" />
  <sodipodi:namedview
     pagecolor="#ffffff"
     bordercolor="#666666"
     borderopacity="1"
     objecttolerance="10"
     gridtolerance="10"
     guidetolerance="10"
     inkscape:pageopacity="0"
     inkscape:pageshadow="2"
     inkscape:window-width="1360"
     inkscape:window-height="691"
     id="namedview22"
     showgrid="false"
     inkscape:zoom="6.9532167"
     inkscape:cx="25.187674"
     inkscape:cy="18.275449"
     inkscape:window-x="0"
     inkscape:window-y="0"
     inkscape:window-maximized="1"
     inkscape:current-layer="svg20" />
  <path
     d="m 23.957876,0.86490574 c -12.694858,0 -23.03339878,10.24349526 -23.03339878,22.81910326 0,12.57789 10.33969278,22.819103 23.03339878,22.819103 12.693707,0 23.0334,-10.242355 23.0334,-22.819103 0,-12.575608 -10.338542,-22.81910326 -23.0334,-22.81910326 z"
     id="path2"
     inkscape:connector-curvature="0"
     style="fill:#f37b21;stroke-width:1.14629996" />
  <path
     d="M 23.957876,6.5696816 A 18.426719,18.255282 0 0 0 5.5311571,24.824964 18.426719,18.255282 0 0 0 23.957876,43.080247 18.426719,18.255282 0 0 0 42.384596,24.824964 18.426719,18.255282 0 0 0 23.957876,6.5696816 Z m -7.391418,5.3749254 h 7.060773 l 8.106721,20.425379 3.565225,-1.149855 1.187602,3.955465 -7.688549,2.199761 -5.170999,-12.987492 -7.582594,11.83741 H 11.289506 L 21.879457,19.282089 20.691855,15.934984 h -4.125282 v -3.991061 z"
     id="path4"
     inkscape:connector-curvature="0"
     style="opacity:0.2;stroke-width:1.14629996" />
  <path
     d="M 23.957876,5.4287264 A 18.426719,18.255282 0 0 0 5.5311571,23.684009 18.426719,18.255282 0 0 0 23.957876,41.939292 18.426719,18.255282 0 0 0 42.384596,23.684009 18.426719,18.255282 0 0 0 23.957876,5.4287264 Z m -7.391418,5.3749256 h 7.060773 l 8.106721,20.42538 3.565225,-1.149855 1.187602,3.955463 -7.688549,2.199762 -5.170999,-12.987493 -7.582594,11.837409 H 11.289506 L 21.879457,18.141135 20.691855,14.794029 h -4.125282 v -3.991061 z"
     id="path6"
     inkscape:connector-curvature="0"
     style="fill:#ffffff;stroke-width:1.14629996" />
  <path
     d="m 23.957876,0.86490574 c -12.694858,0 -23.03339878,10.24349526 -23.03339878,22.81910326 0,0.191681 0.008749,0.379938 0.0134743,0.570478 C 1.2457931,11.941299 11.456499,2.005861 23.95753,2.005861 c 12.501033,0 22.712084,9.935438 23.01958,22.248626 0.0047,-0.19054 0.01381,-0.378797 0.01381,-0.570478 4e-6,-12.575608 -10.338537,-22.81910326 -23.033396,-22.81910326 z"
     id="path8"
     inkscape:connector-curvature="0"
     style="opacity:0.2;fill:#ffffff;stroke-width:1.14629996" />
  <path
     style="color:#000000;opacity:0.2;stroke-width:1.14629996"
     d="m 0.93795178,24.254487 c -0.004719,0.190539 -0.0134743,0.378797 -0.0134743,0.570477 0,12.57789 10.33969252,22.819104 23.03339852,22.819104 12.693707,0 23.0334,-10.242354 23.0334,-22.819104 0,-0.19168 -0.0092,-0.379938 -0.01382,-0.570477 -0.307495,12.314329 -10.5182,22.248625 -23.019578,22.248625 -12.501377,0 -22.7120829,-9.934296 -23.01957886,-22.248625 z"
     id="path10"
     inkscape:connector-curvature="0" />
  <ellipse
     style="opacity:0.2;stroke-width:0.53042752;enable-background:new"
     cx="34.667896"
     cy="19.503466"
     id="circle12"
     rx="5.8870759"
     ry="5.782794" />
  <ellipse
     style="fill:#42a1cd;stroke-width:0.53042752;enable-background:new"
     cx="34.667896"
     cy="18.977755"
     id="circle14"
     rx="5.8870759"
     ry="5.782794" />
  <g
     transform="matrix(0.53484928,-0.01893657,0.0188407,0.52537512,15.295189,1.2560227)"
     id="g18"
     style="fill:#ffffff">
    <path
       d="m 39.417,41 h -8.3826 v -1.8372 l 2.9395,-3.1702 q 0.55542,-0.59814 1.0083,-1.1023 0.45288,-0.50415 0.77759,-0.98267 0.32471,-0.47852 0.50415,-0.97412 0.17944,-0.49561 0.17944,-1.0681 0,-0.63232 -0.38452,-0.98267 -0.37598,-0.35034 -1.0168,-0.35034 -0.67505,0 -1.2988,0.33325 -0.62378,0.33325 -1.3074,0.94849 l -1.436,-1.7 q 0.38452,-0.35034 0.80322,-0.6665 0.4187,-0.32471 0.92285,-0.57251 0.50415,-0.2478 1.1108,-0.39307 0.60669,-0.15381 1.3586,-0.15381 0.89722,0 1.6064,0.2478 0.71777,0.2478 1.2219,0.70923 0.50415,0.45288 0.76904,1.1023 0.27344,0.64941 0.27344,1.4612 0,0.73486 -0.25635,1.4099 -0.25635,0.6665 -0.70068,1.3159 -0.44434,0.64087 -1.0339,1.2817 -0.58105,0.63232 -1.2476,1.2903 l -1.5039,1.5125 v 0.11963 h 5.0928 v 2.2217 z"
       id="path16"
       inkscape:connector-curvature="0" />
  </g>
</svg>
