<?xml version="1.0" encoding="UTF-8" standalone="no"?>
<svg
   xmlns:dc="http://purl.org/dc/elements/1.1/"
   xmlns:cc="http://creativecommons.org/ns#"
   xmlns:rdf="http://www.w3.org/1999/02/22-rdf-syntax-ns#"
   xmlns:svg="http://www.w3.org/2000/svg"
   xmlns="http://www.w3.org/2000/svg"
   xmlns:sodipodi="http://sodipodi.sourceforge.net/DTD/sodipodi-0.dtd"
   xmlns:inkscape="http://www.inkscape.org/namespaces/inkscape"
   height="48"
   width="48"
   version="1"
   id="svg12"
   sodipodi:docname="half-life.svg"
   inkscape:version="0.92.2pre0 (973e216, 2017-07-25)">
  <metadata
     id="metadata18">
    <rdf:RDF>
      <cc:Work
         rdf:about="">
        <dc:format>image/svg+xml</dc:format>
        <dc:type
           rdf:resource="http://purl.org/dc/dcmitype/StillImage" />
      </cc:Work>
    </rdf:RDF>
  </metadata>
  <defs
     id="defs16" />
  <sodipodi:namedview
     pagecolor="#ffffff"
     bordercolor="#666666"
     borderopacity="1"
     objecttolerance="10"
     gridtolerance="10"
     guidetolerance="10"
     inkscape:pageopacity="0"
     inkscape:pageshadow="2"
     inkscape:window-width="1360"
     inkscape:window-height="691"
     id="namedview14"
     showgrid="false"
     inkscape:zoom="4.9166667"
     inkscape:cx="24"
     inkscape:cy="24"
     inkscape:window-x="0"
     inkscape:window-y="0"
     inkscape:window-maximized="1"
     inkscape:current-layer="svg12" />
  <path
     d="m 23.79661,0.94915254 c -12.480278,0 -22.6440676,10.18051046 -22.6440676,22.67879246 0,12.50055 10.1649216,22.678793 22.6440676,22.678793 12.479146,0 22.644068,-10.179377 22.644068,-22.678793 0,-12.498282 -10.16379,-22.67879246 -22.644068,-22.67879246 z"
     id="path2"
     inkscape:connector-curvature="0"
     style="fill:#f37b21;stroke-width:1.13307118" />
  <path
     d="M 23.79661,6.6188508 A 18.115254,18.143035 0 0 0 5.6813559,24.761885 18.115254,18.143035 0 0 0 23.79661,42.904919 18.115254,18.143035 0 0 0 41.911864,24.761885 18.115254,18.143035 0 0 0 23.79661,6.6188508 Z m -7.266481,5.3418752 h 6.941426 l 7.969693,20.299789 3.504962,-1.142786 1.167528,3.931143 -7.55859,2.186235 -5.083593,-12.907635 -7.454427,11.764625 H 11.342372 L 21.753323,19.253093 20.585795,15.926567 h -4.055553 v -3.966521 z"
     id="path4"
     inkscape:connector-curvature="0"
     style="opacity:0.2;stroke-width:1.13307118" />
  <path
     d="M 23.79661,5.4849111 A 18.115254,18.143035 0 0 0 5.6813559,23.627945 18.115254,18.143035 0 0 0 23.79661,41.770979 18.115254,18.143035 0 0 0 41.911864,23.627945 18.115254,18.143035 0 0 0 23.79661,5.4849111 Z M 16.530129,10.8269 h 6.941539 l 7.96958,20.299788 3.505301,-1.143011 1.167301,3.931369 -7.558589,2.186235 L 23.471668,23.193645 16.01724,34.95827 H 11.342372 L 21.752983,18.1204 20.58568,14.793421 h -4.055551 z"
     id="path6"
     inkscape:connector-curvature="0"
     style="fill:#ffffff;stroke-width:1.13307118" />
  <path
     d="m 23.79661,0.94915254 c -12.480278,0 -22.6440676,10.18051046 -22.6440676,22.67879246 0,0.190502 0.0086,0.377603 0.013246,0.56697 C 1.4684272,11.957438 11.506542,2.0830922 23.796271,2.0830922 c 12.289727,0 22.328183,9.8743458 22.630481,22.1118228 0.0046,-0.189367 0.01358,-0.376468 0.01358,-0.56697 4e-6,-12.498282 -10.163787,-22.67879246 -22.644064,-22.67879246 z"
     id="path8"
     inkscape:connector-curvature="0"
     style="opacity:0.2;fill:#ffffff;stroke-width:1.13307118" />
  <path
     style="color:#000000;opacity:0.2;stroke-width:1.13307118"
     d="m 1.1657892,24.194915 c -0.00464,0.189368 -0.013247,0.376468 -0.013247,0.56697 0,12.500551 10.1649208,22.678792 22.6440668,22.678792 12.479147,0 22.644068,-10.179375 22.644068,-22.678792 0,-0.190502 -0.0091,-0.377602 -0.01358,-0.56697 -0.302304,12.238611 -10.340418,22.111823 -22.630487,22.111823 -12.290066,0 -22.3281822,-9.873212 -22.6304805,-22.111823 z"
     id="path10"
     inkscape:connector-curvature="0" />
</svg>
