<?xml version="1.0" encoding="UTF-8" standalone="no"?>
<svg
   xmlns:dc="http://purl.org/dc/elements/1.1/"
   xmlns:cc="http://creativecommons.org/ns#"
   xmlns:rdf="http://www.w3.org/1999/02/22-rdf-syntax-ns#"
   xmlns:svg="http://www.w3.org/2000/svg"
   xmlns="http://www.w3.org/2000/svg"
   xmlns:sodipodi="http://sodipodi.sourceforge.net/DTD/sodipodi-0.dtd"
   xmlns:inkscape="http://www.inkscape.org/namespaces/inkscape"
   height="48"
   width="48"
   version="1"
   id="svg12"
   sodipodi:docname="harmony.svg"
   inkscape:version="0.92.2pre0 (973e216, 2017-07-25)">
  <metadata
     id="metadata18">
    <rdf:RDF>
      <cc:Work
         rdf:about="">
        <dc:format>image/svg+xml</dc:format>
        <dc:type
           rdf:resource="http://purl.org/dc/dcmitype/StillImage" />
      </cc:Work>
    </rdf:RDF>
  </metadata>
  <defs
     id="defs16" />
  <sodipodi:namedview
     pagecolor="#ffffff"
     bordercolor="#666666"
     borderopacity="1"
     objecttolerance="10"
     gridtolerance="10"
     guidetolerance="10"
     inkscape:pageopacity="0"
     inkscape:pageshadow="2"
     inkscape:window-width="1360"
     inkscape:window-height="658"
     id="namedview14"
     showgrid="false"
     inkscape:zoom="9.8333333"
     inkscape:cx="30.113068"
     inkscape:cy="26.935637"
     inkscape:window-x="0"
     inkscape:window-y="28"
     inkscape:window-maximized="1"
     inkscape:current-layer="svg12" />
  <rect
     ry="23.508472"
     rx="23.044647"
     transform="matrix(0,-1,-1,0,0,0)"
     height="47.016945"
     width="46.089294"
     y="-47.457623"
     x="-46.936752"
     id="rect2"
     style="fill:#ff6089;fill-opacity:1;stroke-width:1.16377008" />
  <path
     d="m 12.487254,38.409605 c 0.08747,-0.867292 0.600555,-2.742585 1.874841,-6.852496 2.156061,-6.953785 3.508224,-15.087381 2.934833,-17.384463 -0.142523,-0.571119 -0.158244,-0.864003 -0.05344,-0.995804 0.326378,-0.410483 1.635457,-0.856588 2.713546,-0.924695 2.226251,-0.04667 2.115491,0.783916 2.042305,2.592436 -0.06561,1.620947 -0.490798,5.357899 -0.885222,7.401474 -0.1224,0.634111 -0.187656,1.247758 -0.145024,1.363764 0.06427,0.174889 0.662078,0.210438 3.507187,0.208575 1.886365,-0.0011 3.505111,-0.05235 3.59743,-0.113578 0.287813,-0.191021 0.456349,-1.296849 1.678331,-6.889402 0.653666,-2.991608 1.300185,-5.63785 1.436761,-5.88055 0.311186,-0.555299 1.078779,-0.992181 1.739186,-0.992181 0.674468,0 1.862739,0.378132 2.270047,0.722348 l 0.327323,0.278226 -0.313493,0.936998 c -0.717526,2.14693 -2.70882,11.724537 -3.490013,16.786623 -0.206478,1.337896 -0.498198,3.07565 -0.648271,3.861579 -0.32534,1.70384 -0.333925,1.894344 -0.04143,2.681881 0.462825,1.246265 0.440719,1.367672 -0.312041,1.715223 -0.372858,0.172144 -1.227111,0.409657 -1.898352,0.5278 -2.270162,0.399552 -2.963186,-0.109899 -2.964108,-2.179124 -6.81e-4,-1.392273 0.127437,-1.676248 0.997756,-5.331686 0.383163,-1.609336 0.696826,-2.596689 0.696826,-2.755921 0,-0.269568 -0.06743,-0.282559 -0.97988,-0.188712 -0.538928,0.05543 -2.186256,0.109215 -3.660589,0.119478 -1.474447,0.01032 -2.723918,0.06371 -2.776589,0.118716 -0.05267,0.05501 -0.344024,0.756359 -0.647396,2.120373 -0.303359,1.363991 -0.849365,3.607956 -1.21328,4.986435 -0.363973,1.378479 -0.688967,2.917453 -0.722217,3.419984 -0.03954,0.596826 -0.140646,0.987962 -0.291663,1.127844 -0.343136,0.317833 -2.03954,0.822007 -3.108177,0.923754 -1.303179,0.13817 -1.761545,-0.438722 -1.665769,-1.405497 z"
     id="path4"
     inkscape:connector-curvature="0"
     style="opacity:0.2;stroke-width:1.15111518" />
  <path
     d="m 12.487254,37.259916 c 0.08747,-0.867292 0.600555,-2.742586 1.874841,-6.852498 2.156061,-6.953784 3.508224,-15.08738 2.934833,-17.384462 -0.142523,-0.57112 -0.158244,-0.864003 -0.05344,-0.995802 0.326378,-0.410487 1.635457,-0.85659 2.713546,-0.924697 2.226251,-0.04667 2.115491,0.783917 2.042305,2.592436 -0.06561,1.620948 -0.490798,5.3579 -0.885222,7.401474 -0.1224,0.634112 -0.187656,1.247759 -0.145024,1.363762 0.06427,0.174891 0.662078,0.210439 3.507187,0.208577 1.886365,-0.0011 3.389972,-0.05235 3.482176,-0.113577 0.287813,-0.191022 0.456349,-1.296851 1.678332,-6.889403 0.653664,-2.991607 1.300183,-5.637849 1.43676,-5.8805492 0.311186,-0.5553 1.078779,-0.9921817 1.739186,-0.9921817 0.674468,0 1.977993,0.3781319 2.385185,0.72235 l 0.327322,0.2782239 -0.31349,0.936997 c -0.717528,2.146932 -2.708821,11.72454 -3.490014,16.786624 -0.206478,1.337894 -0.498198,3.07565 -0.64827,3.861579 -0.32534,1.703841 -0.333926,1.894342 -0.04143,2.681883 0.462827,1.246262 0.440721,1.36767 -0.312039,1.715221 -0.37286,0.172142 -1.227112,0.409658 -1.898353,0.5278 -2.270163,0.399551 -2.963187,-0.109899 -2.964109,-2.179122 -6.81e-4,-1.392275 0.127438,-1.676248 0.997757,-5.331687 0.383163,-1.609337 0.696827,-2.596691 0.696827,-2.755922 0,-0.269568 -0.06743,-0.28256 -0.97988,-0.188711 -0.538929,0.05541 -2.186257,0.109213 -3.66059,0.119476 -1.474448,0.01032 -2.723917,0.06372 -2.776589,0.118717 -0.05267,0.05501 -0.344023,0.756358 -0.647394,2.120374 -0.303362,1.363991 -0.849367,3.607957 -1.213283,4.986434 -0.363971,1.378479 -0.688966,2.917454 -0.722217,3.419983 -0.03954,0.596828 -0.140644,0.987963 -0.291663,1.127845 -0.343134,0.317834 -2.039539,0.822006 -3.108176,0.923753 -1.30318,0.13817 -1.761545,-0.438721 -1.665769,-1.405495 z"
     id="path6"
     inkscape:connector-curvature="0"
     style="fill:#ffffff;stroke-width:1.15111518" />
</svg>
