<?xml version="1.0" encoding="UTF-8" standalone="no"?>
<svg
   xmlns:dc="http://purl.org/dc/elements/1.1/"
   xmlns:cc="http://creativecommons.org/ns#"
   xmlns:rdf="http://www.w3.org/1999/02/22-rdf-syntax-ns#"
   xmlns:svg="http://www.w3.org/2000/svg"
   xmlns="http://www.w3.org/2000/svg"
   xmlns:sodipodi="http://sodipodi.sourceforge.net/DTD/sodipodi-0.dtd"
   xmlns:inkscape="http://www.inkscape.org/namespaces/inkscape"
   viewBox="0 0 48 48"
   id="svg2"
   version="1.1"
   inkscape:version="0.92.0 r15299"
   width="100%"
   height="100%"
   sodipodi:docname="inkscape.svg">
  <metadata
     id="metadata73">
    <rdf:RDF>
      <cc:Work
         rdf:about="">
        <dc:format>image/svg+xml</dc:format>
        <dc:type
           rdf:resource="http://purl.org/dc/dcmitype/StillImage" />
      </cc:Work>
    </rdf:RDF>
  </metadata>
  <sodipodi:namedview
     pagecolor="#ffffff"
     bordercolor="#666666"
     borderopacity="1"
     objecttolerance="10"
     gridtolerance="10"
     guidetolerance="10"
     inkscape:pageopacity="0"
     inkscape:pageshadow="2"
     inkscape:window-width="1360"
     inkscape:window-height="740"
     id="namedview71"
     showgrid="false"
     inkscape:zoom="9.8333333"
     inkscape:cx="7.0263557"
     inkscape:cy="22.36236"
     inkscape:window-x="0"
     inkscape:window-y="0"
     inkscape:window-maximized="1"
     inkscape:current-layer="svg2" />
  <defs
     id="defs4">
    <linearGradient
       id="linearGradient3764"
       x1="1"
       x2="47"
       gradientUnits="userSpaceOnUse"
       gradientTransform="matrix(0,-1,1,0,-1.5e-6,47.999998)">
      <stop
         style="stop-color:#355473;stop-opacity:1"
         id="stop7" />
      <stop
         offset="1"
         style="stop-color:#3b5d80;stop-opacity:1"
         id="stop9" />
    </linearGradient>
    <clipPath
       id="clipPath-276172342">
      <g
         transform="translate(0,-1004.3622)"
         id="g12">
        <path
           d="m -24 13 c 0 1.105 -0.672 2 -1.5 2 -0.828 0 -1.5 -0.895 -1.5 -2 0 -1.105 0.672 -2 1.5 -2 0.828 0 1.5 0.895 1.5 2 z"
           transform="matrix(15.333333,0,0,11.5,414.99999,878.8622)"
           style="fill:#1890d0"
           id="path14" />
      </g>
    </clipPath>
    <clipPath
       id="clipPath-283653061">
      <g
         transform="translate(0,-1004.3622)"
         id="g17">
        <path
           d="m -24 13 c 0 1.105 -0.672 2 -1.5 2 -0.828 0 -1.5 -0.895 -1.5 -2 0 -1.105 0.672 -2 1.5 -2 0.828 0 1.5 0.895 1.5 2 z"
           transform="matrix(15.333333,0,0,11.5,414.99999,878.8622)"
           style="fill:#1890d0"
           id="path19" />
      </g>
    </clipPath>
    <filter
       color-interpolation-filters="sRGB"
       id="filter4423"
       y="-0.15025"
       width="1.1998"
       height="1.3005"
       x="-0.099890001">
      <feGaussianBlur
         id="feGaussianBlur4425"
         stdDeviation="0.71452459" />
    </filter>
  </defs>
  <g
     id="g21">
    <path
       d="m 36.31 5 c 5.859 4.062 9.688 10.831 9.688 18.5 c 0 12.426 -10.07 22.5 -22.5 22.5 c -7.669 0 -14.438 -3.828 -18.5 -9.688 c 1.037 1.822 2.306 3.499 3.781 4.969 c 4.085 3.712 9.514 5.969 15.469 5.969 c 12.703 0 23 -10.298 23 -23 c 0 -5.954 -2.256 -11.384 -5.969 -15.469 c -1.469 -1.475 -3.147 -2.744 -4.969 -3.781 z m 4.969 3.781 c 3.854 4.113 6.219 9.637 6.219 15.719 c 0 12.703 -10.297 23 -23 23 c -6.081 0 -11.606 -2.364 -15.719 -6.219 c 4.16 4.144 9.883 6.719 16.219 6.719 c 12.703 0 23 -10.298 23 -23 c 0 -6.335 -2.575 -12.06 -6.719 -16.219 z"
       style="opacity:0.05"
       id="path23" />
    <path
       d="m 41.28 8.781 c 3.712 4.085 5.969 9.514 5.969 15.469 c 0 12.703 -10.297 23 -23 23 c -5.954 0 -11.384 -2.256 -15.469 -5.969 c 4.113 3.854 9.637 6.219 15.719 6.219 c 12.703 0 23 -10.298 23 -23 c 0 -6.081 -2.364 -11.606 -6.219 -15.719 z"
       style="opacity:0.1"
       id="path25" />
    <path
       d="m 31.25 2.375 c 8.615 3.154 14.75 11.417 14.75 21.13 c 0 12.426 -10.07 22.5 -22.5 22.5 c -9.708 0 -17.971 -6.135 -21.12 -14.75 a 23 23 0 0 0 44.875 -7 a 23 23 0 0 0 -16 -21.875 z"
       style="opacity:0.2"
       id="path27" />
  </g>
  <path
     inkscape:connector-curvature="0"
     id="path31"
     style="fill:#ffcc00;fill-opacity:1"
     d="M 24,1 C 36.703,1 47,11.297 47,24 47,36.703 36.703,47 24,47 11.297,47 1,36.703 1,24 1,11.297 11.297,1 24,1 z" />
  <g
     id="g67">
    <path
       d="m 40.03 7.531 c 3.712 4.084 5.969 9.514 5.969 15.469 0 12.703 -10.297 23 -23 23 c -5.954 0 -11.384 -2.256 -15.469 -5.969 4.178 4.291 10.01 6.969 16.469 6.969 c 12.703 0 23 -10.298 23 -23 0 -6.462 -2.677 -12.291 -6.969 -16.469 z"
       style="opacity:0.1"
       id="path69" />
  </g>
  <path
     inkscape:connector-curvature="0"
     id="path4421"
     style="opacity:0.2;fill-rule:evenodd;filter:url(#filter4423);enable-background:new"
     d="m 21.37452,4.3948 c 1.1747,0.01 4.3936,3.9825 7.2655,6.9575 0.80782,1.081 -0.31247,2.1889 -0.31247,2.1889 l -6.0156,-3.2833 -2.6562,3.596 -2.3436,-3.5179 -1.4063,5.4722 -4.1406,-2.5016 1.0937,-1.4071 6.4842,-6.6448 c 0.497,-0.5054 0.878,-0.8687 2.031,-0.8597 z"
     transform="matrix(0.76709564,0,0,0.75798689,7.8430293,8.1837985)" />
  <path
     inkscape:connector-curvature="0"
     id="path3158"
     d="m 23.999997,8.1841015 c -0.918673,0 -1.812955,0.340564 -2.516994,1.0611806 L 8.9609333,22.042375 c -0.690002,0.706314 -1.055984,1.637629 -1.069715,2.559418 -2.07e-4,0.01402 0,0.047 0,0.06231 -1.3e-4,2.742472 7.3869007,0.08024 8.0545057,3.433302 0.36124,1.814696 -4.027177,0.983259 -4.027177,2.8091 0,2.141768 6.211633,0.668915 7.991602,2.434501 0.73112,1.765579 -2.377996,1.480651 -1.824765,3.121163 1.042557,1.067246 3.387876,0.462055 3.838392,2.184822 0.51459,1.967886 3.88511,1.628382 5.852019,0.186887 1.04256,-1.067244 -1.608907,-1.554553 -0.566277,-2.621723 1.042558,-1.067246 6.192303,-0.851372 6.229507,-3.183622 -0.492123,-1.465111 -2.424408,-1.701679 -2.454093,-3.4333 -0.103674,-1.466477 1.582365,-1.037534 6.921735,-2.496961 2.134979,-0.992509 2.210538,-1.520446 2.202406,-2.434501 -1.67e-4,-0.01812 0,-0.04291 0,-0.06223 C 40.096913,23.67983 39.666392,22.74849 38.976458,22.0422 L 26.515755,9.2451015 C 25.811561,8.5244065 24.917129,8.1839185 23.998916,8.1839185 z M 38.598595,30.094469 c -0.254462,-0.008 -0.511117,0.01212 -0.692175,0.06223 -0.341281,0.09753 -1.958012,0.154576 -1.824766,1.373322 1.464769,0.609086 3.69809,1.093927 3.964274,-0.124679 0.199842,-0.91383 -0.683783,-1.282893 -1.44728,-1.310862 z m -24.981238,4.057506 c -0.142135,0.01608 -0.23862,0.07223 -0.377532,0.124665 -1.110832,0.419016 -1.855835,1.300326 -0.818032,1.68546 1.037957,0.385043 1.732946,-0.0219 2.642796,-0.4994 0.910006,-0.477721 0.883848,-0.564776 0.818031,-0.749058 -0.126141,0.02503 -0.953576,-0.485893 -1.824765,-0.561852 -0.145175,-0.01198 -0.298401,-0.01607 -0.440498,0 z"
     style="fill:#4d4d4d;fill-rule:evenodd;enable-background:new" />
  <path
     inkscape:connector-curvature="0"
     id="path4428"
     d="m 24.05753,12.731871 c 0.94483,0.008 3.533778,3.173766 5.843658,5.544673 0.649729,0.861453 -0.251316,1.744356 -0.251316,1.744356 l -4.838073,-2.616572 -2.136362,2.86595 -1.884754,-2.803036 -1.131466,4.360699 -3.329962,-1.993505 0.879859,-1.12182 5.214717,-5.295071 c 0.400002,-0.402915 0.706309,-0.692429 1.633685,-0.685297 z"
     style="opacity:0.2;fill-rule:evenodd;enable-background:new" />
  <path
     inkscape:connector-curvature="0"
     id="path4409"
     d="m 24.05753,11.973884 c 0.94483,0.008 3.533778,3.173766 5.843658,5.544674 0.649729,0.861453 -0.251316,1.744355 -0.251316,1.744355 l -4.838073,-2.61657 -2.136362,2.865947 -1.884754,-2.803036 -1.131466,4.360701 -3.329962,-1.993506 0.879859,-1.121823 5.214717,-5.295067 c 0.400002,-0.402916 0.706309,-0.692428 1.633685,-0.685296 z"
     style="fill:#ffffff;fill-rule:evenodd;enable-background:new" />
  <path
     inkscape:connector-curvature="0"
     id="path3239"
     style="opacity:0.2;fill:#ffffff;fill-rule:evenodd;enable-background:new"
     d="m 23.999997,8.1837985 c -0.921742,0 -1.810728,0.345286 -2.516994,1.0658807 L 8.9218123,22.040706 c -0.692288,0.706317 -1.06496,1.636495 -1.07869,2.558207 -2.08e-4,0.01403 0,0.05578 0,0.07103 -8e-6,0.114934 0.02294,0.211142 0.04795,0.307936 0.09561,-0.792702 0.434192,-1.570549 1.030823,-2.179212 L 21.483085,10.007629 c 0.706497,-0.7204667 1.594793,-1.0657289 2.516843,-1.0657289 0.921742,0 1.81073,0.3452015 2.516994,1.0658799 l 12.512859,12.791028 c 0.650292,0.66352 1.044017,1.526207 1.102701,2.39236 0.02463,-0.167016 0.02569,-0.327557 0.02393,-0.521118 -1.67e-4,-0.01813 0,-0.05178 0,-0.07103 -0.01219,-0.921712 -0.434445,-1.851913 -1.126711,-2.558206 L 26.516837,9.2497934 C 25.810343,8.5292515 24.922044,8.1840635 23.999997,8.1840635 z M 15.849608,28.672942 c -0.599948,1.081496 -3.979311,0.629045 -3.979311,2.226585 0,0.133862 0.02584,0.271702 0.07187,0.378994 0.582011,-1.330798 4.313456,-0.742971 3.97931,-2.416083 -0.01311,-0.0657 -0.0537,-0.128326 -0.07187,-0.189496 z m 15.173917,1.279103 c -0.02992,0.1155 -0.03473,0.250642 -0.02393,0.40268 0.02777,1.615422 1.745758,1.925892 2.373241,3.150344 0.05568,-0.146822 0.09311,-0.300314 0.09587,-0.47374 -0.458049,-1.359223 -2.177633,-1.660296 -2.445119,-3.079323 z m 7.239464,0.142122 c -0.119001,0.0104 -0.2208,0.04601 -0.311633,0.07103 -0.342407,0.09752 -1.955478,0.155094 -1.821851,1.373855 0.04535,0.01879 0.09716,0.02888 0.143829,0.04738 0.405243,-0.55669 1.417515,-0.58904 1.678022,-0.663239 0.181657,-0.05018 0.439877,-0.07904 0.695181,-0.07103 0.566854,0.0207 1.2048,0.233815 1.414371,0.71061 0.02156,-0.05072 0.03513,-0.107419 0.04795,-0.165809 0.200502,-0.913828 -0.696258,-1.274857 -1.46224,-1.302829 -0.127652,-0.0038 -0.264546,-0.0104 -0.383547,0 z m -24.691276,4.050531 c -0.142601,0.01607 -0.2202,0.08969 -0.359573,0.142122 -0.97521,0.366639 -1.689912,1.083542 -1.150644,1.515975 0.222816,-0.289265 0.647742,-0.568924 1.150644,-0.75799 0.139373,-0.05245 0.216972,-0.126053 0.359573,-0.142121 0.142567,-0.01607 0.309809,-0.01212 0.455465,0 0.501074,0.0435 0.97053,0.232482 1.318485,0.378993 0.55513,-0.316399 0.559564,-0.411724 0.503404,-0.568491 -0.126555,0.02503 -0.947744,-0.492531 -1.82185,-0.568488 -0.145657,-0.01212 -0.312899,-0.01607 -0.455464,0 z m 6.352475,0.04738 c -0.415283,0.873881 -2.312103,0.966658 -1.869796,2.27396 0.0081,0.0083 0.0158,0.01568 0.02393,0.02365 0.416863,-0.864788 2.319313,-0.942786 1.845786,-2.29761 z m 7.191519,2.889824 c -0.488845,0.656562 0.406562,1.110755 0.767097,1.634372 0.490344,-0.65863 -0.408959,-1.108557 -0.767097,-1.634372 z" />
  <path
     inkscape:connector-curvature="0"
     id="path4443"
     d="m 7.9329483,24.219769 c -0.01534,0.127341 -0.04004,0.254683 -0.04196,0.382024 -2.3e-4,0.0144 0,0.047 0,0.06217 -1.54e-4,2.680241 7.0496077,0.201623 7.9946717,3.21538 0.07519,-0.149323 0.102781,-0.325176 0.05982,-0.540444 -0.639757,-3.212354 -7.4428977,-0.906557 -8.0123127,-3.119121 z m 32.1505127,0.181158 c -0.08055,0.639741 -0.458722,1.140013 -2.177017,1.938931 -5.339752,1.459883 -7.02583,1.030862 -6.922271,2.497567 0.0021,0.122799 0.0161,0.236492 0.03605,0.344883 0.273853,-0.980077 2.127156,-0.783758 6.886218,-2.084464 2.134827,-0.992204 2.210767,-1.519762 2.202331,-2.433895 v -0.06367 c -7.69e-4,-0.06671 -0.01996,-0.132647 -0.02532,-0.199351 z m -28.081837,6.127566 c -0.04941,0.112182 -0.08391,0.234218 -0.08391,0.377479 0,2.141311 6.211941,0.669301 7.991601,2.434654 0.01382,0.03411 0.01766,0.0614 0.02839,0.09324 0.1051,-0.222091 0.119666,-0.492692 -0.02839,-0.85122 -1.660762,-1.647107 -7.178403,-0.477532 -7.907988,-2.054145 z m 27.993621,0.264539 c -0.397355,0.987655 -2.347314,0.59426 -3.74266,0.04471 -0.128872,0.175097 -0.203281,0.398702 -0.171061,0.692801 1.465152,0.608664 3.698165,1.093777 3.96435,-0.124311 0.05292,-0.242556 0.02609,-0.443423 -0.05063,-0.613212 z m -6.664528,1.976829 c -0.72107,1.802492 -5.161019,1.700164 -6.121421,2.684032 -0.332153,0.339577 -0.274622,0.617757 -0.09587,0.877747 0.02915,-0.04017 0.05523,-0.07883 0.09587,-0.119758 1.042482,-1.067245 6.191994,-0.851217 6.229582,-3.183543 -0.03069,-0.09022 -0.0675,-0.177369 -0.10816,-0.258474 z m -17.948502,1.757013 c -0.09895,0.05608 -0.179502,0.104596 -0.317578,0.177368 -0.910543,0.477532 -1.605532,0.885329 -2.64326,0.500271 -0.134548,-0.04926 -0.236878,-0.108393 -0.314585,-0.172819 -0.276306,0.35398 -0.258894,0.718572 0.314585,0.930807 1.037728,0.385058 1.732717,-0.02274 2.64326,-0.50027 0.909775,-0.477532 0.883693,-0.564701 0.817726,-0.748893 -0.05292,0.01062 -0.248542,-0.07959 -0.500148,-0.186464 z m 2.724723,1.196103 c -0.101254,0.197077 -0.125035,0.435085 -0.02226,0.739038 1.042484,1.067245 3.388261,0.462371 3.838547,2.184517 0.514721,1.968492 3.885339,1.628157 5.852172,0.187224 0.332154,-0.340336 0.273088,-0.618518 0.09435,-0.878507 -0.02992,0.03942 -0.05447,0.07884 -0.09435,0.120516 -1.966833,1.44093 -5.337451,1.781268 -5.852172,-0.187224 -0.447217,-1.710777 -2.763079,-1.127127 -3.8163,-2.16557 z"
     style="opacity:0.3;fill-rule:evenodd;enable-background:new" />
</svg>
