<?xml version="1.0" encoding="UTF-8" standalone="no"?>
<!-- Generator: Adobe Illustrator 18.1.1, SVG Export Plug-In . SVG Version: 6.00 Build 0)  -->

<svg
   xmlns:ns="&amp;ns_sfw;"
   xmlns:dc="http://purl.org/dc/elements/1.1/"
   xmlns:cc="http://creativecommons.org/ns#"
   xmlns:rdf="http://www.w3.org/1999/02/22-rdf-syntax-ns#"
   xmlns:svg="http://www.w3.org/2000/svg"
   xmlns="http://www.w3.org/2000/svg"
   xmlns:sodipodi="http://sodipodi.sourceforge.net/DTD/sodipodi-0.dtd"
   xmlns:inkscape="http://www.inkscape.org/namespaces/inkscape"
   version="1.1"
   id="图层_1"
   x="0px"
   y="0px"
   viewBox="0 0 48 48"
   enable-background="new 0 0 48 48"
   xml:space="preserve"
   sodipodi:docname="isomaster.svg"
   inkscape:version="0.92.2pre0 (973e216, 2017-07-25)"><defs
     id="defs57" /><sodipodi:namedview
     pagecolor="#ffffff"
     bordercolor="#666666"
     borderopacity="1"
     objecttolerance="10"
     gridtolerance="10"
     guidetolerance="10"
     inkscape:pageopacity="0"
     inkscape:pageshadow="2"
     inkscape:window-width="1360"
     inkscape:window-height="658"
     id="namedview55"
     showgrid="false"
     inkscape:zoom="9.8333333"
     inkscape:cx="32.640472"
     inkscape:cy="16.146269"
     inkscape:window-x="0"
     inkscape:window-y="28"
     inkscape:window-maximized="1"
     inkscape:current-layer="图层_1" /><metadata
     id="metadata2"><ns:sfw><ns:slices /><ns:sliceSourceBounds
         width="438.618"
         height="290.108"
         x="2"
         y="-151.549"
         bottomLeftOrigin="true" /></ns:sfw><rdf:RDF><cc:Work
         rdf:about=""><dc:format>image/svg+xml</dc:format><dc:type
           rdf:resource="http://purl.org/dc/dcmitype/StillImage" /></cc:Work></rdf:RDF></metadata><g
     id="g30"
     transform="matrix(1.1703433,0,0,1.1423764,-2.9579252,-3.2159228)"><linearGradient
       y2="6.6149998"
       x2="13.6856"
       y1="41.2579"
       x1="32.299702"
       gradientUnits="userSpaceOnUse"
       id="SVGID_1_"><stop
         id="stop6"
         style="stop-color:#B0C9D9"
         offset="0" /><stop
         id="stop8"
         style="stop-color:#D2E0EA"
         offset="1" /></linearGradient><path
       inkscape:connector-curvature="0"
       style="fill:url(#SVGID_1_)"
       id="path11"
       d="m 37.178,9.874 c -7.81,-7.81 -20.474,-7.81 -28.284,0 -7.81,7.81 -7.81,20.474 0,28.284 7.81,7.81 20.474,7.81 28.284,0 7.81,-7.81 7.81,-20.473 0,-28.284 z M 23.036,34.016 c -5.523,0 -10,-4.477 -10,-10 0,-5.523 4.477,-10 10,-10 5.523,0 10,4.477 10,10 0,5.523 -4.478,10 -10,10 z" /><linearGradient
       gradientTransform="matrix(0.7866,0.6175,-0.6175,0.7866,-16.0449,106.4197)"
       y2="-88.960602"
       x2="-0.65689999"
       y1="-88.960602"
       x1="-39.656898"
       gradientUnits="userSpaceOnUse"
       id="SVGID_2_"><stop
         id="stop13"
         style="stop-color:#FFFFFF;stop-opacity:0"
         offset="0" /><stop
         id="stop15"
         style="stop-color:#FFFFFF;stop-opacity:0"
         offset="0.15" /><stop
         id="stop17"
         style="stop-color:#FFFFFF"
         offset="0.5" /><stop
         id="stop19"
         style="stop-color:#FFFFFF;stop-opacity:0"
         offset="0.85" /><stop
         id="stop21"
         style="stop-color:#FFFFFF;stop-opacity:0"
         offset="1" /></linearGradient><path
       inkscape:connector-curvature="0"
       style="opacity:0.8;fill:url(#SVGID_2_)"
       id="path24"
       d="M 42.396,21.669 C 41.109,10.977 31.397,3.353 20.705,4.64 10.013,5.927 2.388,15.638 3.675,26.331 4.962,37.024 14.674,44.647 25.366,43.36 36.058,42.073 43.683,32.362 42.396,21.669 Z m -24.431,8.789 c -3.567,-2.8 -4.188,-7.962 -1.388,-11.528 2.8,-3.567 7.962,-4.188 11.528,-1.388 3.567,2.8 4.188,7.962 1.388,11.528 -2.8,3.567 -7.961,4.188 -11.528,1.388 z"
       enable-background="new    " /><circle
       style="opacity:0.15;fill:none;stroke:#000000;stroke-width:4.80000019;stroke-linecap:round"
       id="circle26"
       r="8"
       cy="24"
       cx="23.035999"
       enable-background="new    " /><path
       style="opacity:0.3;fill:#ffffff"
       inkscape:connector-curvature="0"
       id="path28"
       d="m 33.642,13.41 c -5.858,-5.858 -15.355,-5.858 -21.213,0 -5.858,5.858 -5.858,15.355 0,21.213 5.858,5.858 15.355,5.858 21.213,0 5.858,-5.858 5.858,-15.355 0,-21.213 z M 23.036,29.016 c -2.761,0 -5,-2.239 -5,-5 0,-2.761 2.239,-5 5,-5 2.761,0 5,2.239 5,5 0,2.762 -2.239,5 -5,5 z"
       enable-background="new    " /></g><g
     id="g46"
     transform="matrix(0.82912506,0,0,0.85333206,6.0167069,7.9828134)"><g
       id="g42"><path
         style="fill:#ebbd1c"
         inkscape:connector-curvature="0"
         id="path32"
         d="m 35.031,31.554 -8.214,7.19 0.454,-10.734 12.07,-21.313 c 0.885,-1.488 2.601,-2.116 3.958,-1.449 v 0 c 1.357,0.668 1.906,2.411 1.267,4.02 z" /><path
         style="fill:#efd581"
         inkscape:connector-curvature="0"
         id="path34"
         d="m 29.354,30.077 -2.37,8.328 5.157,-6.851 c 0,0 0.517,-0.837 -0.861,-1.771 -1.379,-0.934 -1.926,0.294 -1.926,0.294 z" /><path
         style="fill:#0060de"
         inkscape:connector-curvature="0"
         id="path36"
         d="m 35.031,31.554 c 0,0 -1.221,-0.698 -2.891,0 C 31.855,28.906 30.446,29.283 29.265,30.139 29.143,27.575 27.27,28.01 27.27,28.01 L 39.34,6.697 c 0.885,-1.488 2.601,-2.116 3.958,-1.449 v 0 c 1.357,0.668 1.906,2.411 1.267,4.02 z" /><g
         id="g40"><path
           style="fill:#1c7eff"
           inkscape:connector-curvature="0"
           id="path38"
           d="M 43.3,5.249 C 43.035,5.119 42.757,5.039 42.473,5.006 42.189,4.973 29.266,30.14 29.266,30.14 c 1.02,-0.426 2.753,-0.01 2.875,1.415 0,0 12.071,-25.572 11.884,-25.77 C 43.819,5.568 43.577,5.386 43.3,5.249 Z" /></g></g><path
       style="fill:#231815"
       inkscape:connector-curvature="0"
       id="path44"
       d="m 26.905,36.656 -0.088,2.088 1.544,-1.352 c 0,10e-4 -0.892,0.124 -1.456,-0.736 z" /></g></svg>