<?xml version="1.0" encoding="UTF-8" standalone="no"?>
<svg
   xmlns:dc="http://purl.org/dc/elements/1.1/"
   xmlns:cc="http://creativecommons.org/ns#"
   xmlns:rdf="http://www.w3.org/1999/02/22-rdf-syntax-ns#"
   xmlns:svg="http://www.w3.org/2000/svg"
   xmlns="http://www.w3.org/2000/svg"
   xmlns:sodipodi="http://sodipodi.sourceforge.net/DTD/sodipodi-0.dtd"
   xmlns:inkscape="http://www.inkscape.org/namespaces/inkscape"
   viewBox="0 0 48 48"
   id="svg2"
   version="1.1"
   inkscape:version="0.91 r13725"
   width="100%"
   height="100%"
   sodipodi:docname="jdownloader.svg">
  <metadata
     id="metadata43">
    <rdf:RDF>
      <cc:Work
         rdf:about="">
        <dc:format>image/svg+xml</dc:format>
        <dc:type
           rdf:resource="http://purl.org/dc/dcmitype/StillImage" />
      </cc:Work>
    </rdf:RDF>
  </metadata>
  <sodipodi:namedview
     pagecolor="#ffffff"
     bordercolor="#666666"
     borderopacity="1"
     objecttolerance="10"
     gridtolerance="10"
     guidetolerance="10"
     inkscape:pageopacity="0"
     inkscape:pageshadow="2"
     inkscape:window-width="1360"
     inkscape:window-height="717"
     id="namedview41"
     showgrid="false"
     inkscape:zoom="6.9532167"
     inkscape:cx="17.824216"
     inkscape:cy="38.01769"
     inkscape:window-x="0"
     inkscape:window-y="25"
     inkscape:window-maximized="1"
     inkscape:current-layer="svg2" />
  <defs
     id="defs4">
    <linearGradient
       id="linearGradient4297"
       y1="1"
       x2="0"
       y2="47"
       gradientUnits="userSpaceOnUse">
      <stop
         style="stop-color:#5c6894;stop-opacity:1"
         id="stop7" />
      <stop
         offset="1"
         style="stop-color:#545f88;stop-opacity:1"
         id="stop9" />
    </linearGradient>
    <clipPath
       id="clipPath4186"
       clipPathUnits="userSpaceOnUse">
      <circle
         sodipodi:ry="10"
         sodipodi:rx="10"
         sodipodi:cy="26"
         sodipodi:cx="286"
         id="path4188"
         style="color:#000000;fill:url(#linearGradient4190)"
         cx="286"
         cy="26"
         r="10" />
    </clipPath>
    <clipPath
       id="clipPath3423"
       clipPathUnits="userSpaceOnUse">
      <circle
         sodipodi:ry="10"
         sodipodi:rx="10"
         sodipodi:cy="26"
         sodipodi:cx="286"
         id="circle3425"
         style="color:#000000;fill:url(#linearGradient4190)"
         cx="286"
         cy="26"
         r="10" />
    </clipPath>
  </defs>
  <g
     id="g11">
    <path
       d="m 36.31 5 c 5.859 4.062 9.688 10.831 9.688 18.5 c 0 12.426 -10.07 22.5 -22.5 22.5 c -7.669 0 -14.438 -3.828 -18.5 -9.688 c 1.037 1.822 2.306 3.499 3.781 4.969 c 4.085 3.712 9.514 5.969 15.469 5.969 c 12.703 0 23 -10.298 23 -23 c 0 -5.954 -2.256 -11.384 -5.969 -15.469 c -1.469 -1.475 -3.147 -2.744 -4.969 -3.781 z m 4.969 3.781 c 3.854 4.113 6.219 9.637 6.219 15.719 c 0 12.703 -10.297 23 -23 23 c -6.081 0 -11.606 -2.364 -15.719 -6.219 c 4.16 4.144 9.883 6.719 16.219 6.719 c 12.703 0 23 -10.298 23 -23 c 0 -6.335 -2.575 -12.06 -6.719 -16.219 z"
       style="opacity:0.05"
       id="path13" />
    <path
       d="m 41.28 8.781 c 3.712 4.085 5.969 9.514 5.969 15.469 c 0 12.703 -10.297 23 -23 23 c -5.954 0 -11.384 -2.256 -15.469 -5.969 c 4.113 3.854 9.637 6.219 15.719 6.219 c 12.703 0 23 -10.298 23 -23 c 0 -6.081 -2.364 -11.606 -6.219 -15.719 z"
       style="opacity:0.1"
       id="path15" />
    <path
       d="m 31.25 2.375 c 8.615 3.154 14.75 11.417 14.75 21.13 c 0 12.426 -10.07 22.5 -22.5 22.5 c -9.708 0 -17.971 -6.135 -21.12 -14.75 a 23 23 0 0 0 44.875 -7 a 23 23 0 0 0 -16 -21.875 z"
       style="opacity:0.2"
       id="path17" />
  </g>
  <g
     style="fill:#65719f;fill-opacity:1"
     id="g19">
    <path
       d="M 24,1 C 36.703,1 47,11.297 47,24 47,36.703 36.703,47 24,47 11.297,47 1,36.703 1,24 1,11.297 11.297,1 24,1 Z"
       style="fill:url(#linearGradient4297)"
       id="path21" />
  </g>
  <g
     id="g23">
    <path
       d="m 40.03 7.531 c 3.712 4.084 5.969 9.514 5.969 15.469 0 12.703 -10.297 23 -23 23 c -5.954 0 -11.384 -2.256 -15.469 -5.969 4.178 4.291 10.01 6.969 16.469 6.969 c 12.703 0 23 -10.298 23 -23 0 -6.462 -2.677 -12.291 -6.969 -16.469 z"
       style="opacity:0.1"
       id="path25" />
  </g>
  <ellipse
     id="path4230"
     style="color:#000000;fill:#37a0f2"
     cx="23.945749"
     cy="23.98234"
     rx="19.928089"
     ry="19.712364" />
  <path
     style="fill:#a2f46a"
     inkscape:connector-curvature="0"
     id="path4276"
     d="m 15.361725,6.2123341 a 19.92809,19.712363 0 0 0 -1.559373,0.8277215 l 0.204263,0 0.103633,0.3291972 -0.293939,0.271439 1.255469,0.034695 0.192305,0.4485546 -1.4129,-0.052036 -0.06974,-0.3445715 -0.823031,-0.1771157 a 19.92809,19.712363 0 0 0 -0.842958,0.5967918 l 0.492225,0 0,0.3253532 -0.21622,0.2848434 -1.031279,0 0,-0.042283 a 19.92809,19.712363 0 0 0 -6.2156729,8.797824 l 0.1089018,0.05125 0,1.645982 0.8348866,1.415346 0.6811436,0.103489 0.087587,-0.484924 -0.803701,-1.22611 -0.155737,-1.193583 0.4690079,0 0.1984825,1.228079 1.1599157,1.676538 -0.2977261,0.541104 0.737538,1.118677 1.8312925,0.450427 0,-0.29471 0.7313604,0.103488 -0.06776,0.518435 0.573928,0.103489 0.88979,0.240489 1.25547,1.419292 1.605206,0.119259 0.155441,1.297074 -1.097043,0.760897 -0.05082,1.159087 -0.157431,0.707675 1.587273,1.971235 0.120564,0.674162 c 0,0 0.575922,0.155729 0.646666,0.155729 0.06975,0 1.290344,0.916625 1.290344,0.916625 l 0,3.561038 0.435428,0.121231 -0.295931,1.642038 0.732357,0.968865 -0.134515,1.628241 0.96751,1.686392 1.233548,1.066438 a 19.92809,19.712363 0 0 0 0.06576,0.01183 l 1.193693,0.02069 0.120566,-0.398188 -0.916692,-0.765826 0.0528,-0.381435 0.16341,-0.466195 0.03488,-0.475069 -0.620762,-0.01972 -0.313867,-0.388335 0.516137,-0.492809 0.06975,-0.369607 -0.575923,-0.163612 0.03488,-0.344967 0.819044,-0.123202 1.247498,-0.594328 0.41849,-0.760897 1.30828,-1.658794 -0.295932,-1.29806 0.400554,-0.690919 1.20266,0.03647 0.810077,-0.63671 0.26305,-2.504454 0.896765,-1.130504 0.157432,-0.727386 -0.819045,-0.260204 -0.541047,-0.878186 -1.849327,-0.01872 -1.464714,-0.554903 -0.06875,-1.0349 -0.490231,-0.847631 -1.325217,-0.01872 -0.764243,-1.191611 -0.681541,-0.329198 -0.03488,0.361722 -1.237534,0.07294 -0.454361,-0.625866 -1.289346,-0.25922 -1.065159,1.218224 -1.672962,-0.2809 -0.123554,-1.871689 -1.221591,-0.205993 0.49023,-0.917612 -0.140492,-0.527306 -1.605209,1.064468 -1.010354,-0.121231 -0.359603,-0.783567 0.2199061,-0.807221 0.5561929,-1.016172 1.283369,-0.642623 2.47507,-0.0019 -0.0061,0.74907 0.889789,0.410017 -0.07074,-1.278346 0.640688,-0.641639 1.294328,-0.840732 0.08968,-0.593342 1.290344,-1.33157 1.371052,-0.753013 -0.120565,-0.09955 0.928649,-0.866357 0.340771,0.08772 0.157432,0.195152 0.352727,-0.389319 0.08469,-0.03647 -0.38461,-0.05422 -0.393581,-0.130101 0,-0.37355 0.208249,-0.167555 0.45735,0 0.210241,0.09069 0.181346,0.363694 0.223194,-0.03253 0,-0.03352 0.06278,0.02168 0.643678,-0.09659 0.09166,-0.311454 0.36568,0.09068 0,0.338067 -0.338777,0.231619 0.05082,0.369607 1.1638,0.355809 c 0,0 0.002,0.0059 0.0041,0.01577 l 0.269029,-0.02366 0.01694,-0.500693 -0.923669,-0.416917 -0.05282,-0.239506 0.766235,-0.259217 0.03387,-0.728372 -0.800114,-0.482952 -0.0528,-1.2261098 -1.099034,0.5351898 -0.401553,0 0.105614,-0.9336522 -1.494605,-0.350389 -0.618767,0.4640304 0,1.4133748 -1.113981,0.349895 -0.445393,0.922539 -0.484252,0.07687 0,-1.18076 -1.045228,-0.14193 -0.523113,-0.337082 -0.21024,-0.764148 1.870251,-1.0857571 0.914699,-0.2752819 0.09267,0.6083233 0.51016,-0.025028 0.03887,-0.3060341 0.533076,-0.076973 0.0099,-0.1059482 -0.229174,-0.094317 -0.05282,-0.3252545 0.655634,-0.053913 0.394577,-0.4100171 0.02193,-0.028865 0.006,0.00191 0.120564,-0.1232019 1.378028,-0.1732723 0.608805,0.5140005 -1.597237,0.8431957 2.033661,0.4754632 0.262055,-0.6737689 0.889788,0 0.312872,-0.5871419 -0.626739,-0.1559249 0,-0.7430567 -1.970887,-0.8662597 -1.360092,0.1559237 -0.767233,0.3984853 0.05282,0.9682718 -0.804098,-0.1212307 -0.122557,-0.5351904 0.769224,-0.6929875 -1.395963,-0.067426 -0.400555,0.1193576 -0.173374,0.4659023 0.521119,0.088506 -0.10263,0.5178438 -0.88979,0.051943 -0.137505,0.3446702 -1.290343,0.036564 c 0,0 -0.03588,-0.7258092 -0.08768,-0.7258092 -0.05182,9.99e-5 1.010354,-0.017246 1.010354,-0.017246 L 17.75704,6.6070374 17.33855,6.3991709 16.780564,6.9362345 15.8559,6.8841981 15.361683,6.2124015 Z m 21.603046,2.8586863 -0.633712,0.2464051 -0.407532,0.4388948 0.09366,0.5121277 0.500195,0.069 0.299917,0.747098 0.861891,-0.344966 0.142485,0.997445 -0.259064,0 -0.708444,-0.103489 -0.78417,0.131088 -0.759261,1.062496 -1.08608,0.169528 -0.157432,0.921553 0.459342,0.105467 -0.132522,0.593341 -1.07811,-0.213877 -0.988433,0.213877 -0.210242,0.545049 0.171382,1.145287 0.579907,0.269074 0.973488,-0.0059 0.657627,-0.05717 0.200277,-0.519419 1.027292,-1.322701 0.677556,0.136016 0.665599,-0.5963 0.12455,0.466198 1.638091,1.096993 -0.200278,0.265132 -0.739334,-0.03844 0.283977,0.399176 0.455357,0.09758 0.531084,-0.218807 -0.01092,-0.635725 0.237145,-0.117288 -0.190314,-0.20008 -1.094053,-0.604184 -0.285968,-0.80328 0.908721,0 0.289955,0.284846 0.782176,0.67022 0.03288,0.808206 0.81207,0.854531 0.300913,-1.1719 0.560975,-0.304556 0.104624,0.959007 0.549019,0.596298 0.255079,-0.0039 A 19.92809,19.712363 0 0 0 39.457813,11.619758 L 38.13658,11.607929 38.0469,11.312243 38.833063,10.91504 A 19.92809,19.712363 0 0 0 36.964771,9.071027 Z M 12.590724,9.275044 c 0.03887,0 0,0.4523983 0,0.4523983 L 11.556458,9.7928885 11.360165,9.559987 12.092522,9.3520231 c 0,0 0.458346,-0.076973 0.498202,-0.076973 z m 1.256466,2.203743 0.49621,0.118274 -0.171382,0.660364 -0.537061,0.168542 -0.338778,-0.688949 0.551011,-0.258231 z m 1.360093,1.567133 0.824025,0 0,0.248376 0.18035,0 0,0.427757 -1.254472,0 -0.469308,-0.129116 0.11658,-0.298641 0.602825,-0.248376 z m 1.228565,0.183325 0.431445,0.388333 -0.431445,0.104472 0,-0.492808 z m 0.949575,0.596298 0.318849,0.198108 -0.256076,0.209938 -0.253087,-0.209938 0.190314,-0.198108 z m -2.413292,0.06604 0.692502,0 -0.888794,1.230051 -0.365681,-0.195152 0.07772,-0.517449 0.484252,-0.51745 z m 1.112983,0 0.704459,0 0,0.413959 -0.312871,0.200081 -0.391588,0.07294 0,-0.686974 z m 0.875841,0.454369 0.05282,0 0.798121,0.232605 0,0.402134 -0.667592,0 -0.183338,-0.261191 0,-0.373548 z m -0.328813,0.373548 0,0.404106 -0.299919,0.297658 -0.66759,0 0.105613,-0.4524 0.314864,-0.02661 0.06477,-0.155728 0.482259,-0.06702 z m 20.74514,1.713006 -2.354504,0.180369 -0.729367,0.389318 -0.934628,0 -0.459342,-0.04632 -1.133908,0.625869 0,1.175841 -2.321623,1.65978 0.192307,0.70866 0.471298,0 -0.122557,0.673177 -0.330806,0.121233 -0.01993,1.76327 2.006759,2.263966 0.871854,0 0.0538,-0.137002 1.569337,0 0.451372,-0.414946 0.890784,0 0.486247,0.484925 1.328207,0.136015 -0.175368,1.748486 1.470693,2.575422 -0.774207,1.468569 0.05282,0.691905 0.608803,0.604184 0,1.662738 0.802107,1.06841 0,0.728373 a 19.92809,19.712363 0 0 0 4.596423,-12.582402 19.92809,19.712363 0 0 0 -0.846945,-5.630838 l -0.990426,0 -1.019322,-0.753013 -1.072131,0.104473 0,0.648538 -0.340769,0 -0.365681,-0.260203 -1.861285,-0.467183 0,-1.191612 z" />
  <circle
     id="path4240"
     style="color:#000000;opacity:0;stroke-width:0.45455"
     clip-path="url(#clipPath4186)"
     r="10"
     transform="matrix(1.992809,0,0,1.9712363,-545.99761,-27.269805)"
     cy="26"
     cx="286" />
  <circle
     id="path4242"
     style="color:#000000;opacity:0;stroke-width:0.90908998"
     clip-path="url(#clipPath4186)"
     r="10"
     transform="matrix(1.992809,0,0,1.9712363,-545.99761,-27.269805)"
     cy="26"
     cx="286" />
  <path
     style="opacity:0.2;fill:#ffffff"
     inkscape:connector-curvature="0"
     id="rect3436"
     d="m 23.945749,4.269976 c -11.039164,0 -19.9260955,8.791713 -19.9260955,19.712364 0,0.165306 -0.00405,0.328495 0,0.492807 C 4.2829039,13.785134 13.073981,5.2555933 23.945749,5.2555933 c 10.871771,0 19.663049,8.5291447 19.926099,19.2195537 0.0041,-0.164312 0,-0.327501 0,-0.492807 0,-10.920651 -8.886932,-19.712364 -19.926099,-19.712364 z" />
  <path
     inkscape:connector-curvature="0"
     id="circle4330"
     style="color:#000000;opacity:0.3"
     d="M 43.852918,23.40871 A 19.92809,19.712363 0 0 1 23.945749,42.709084 19.92809,19.712363 0 0 1 4.0395827,23.570352 19.92809,19.712363 0 0 0 4.0176664,23.98234 19.92809,19.712363 0 0 0 23.945756,43.694702 19.92809,19.712363 0 0 0 43.873848,23.98234 19.92809,19.712363 0 0 0 43.852926,23.40871 Z" />
  <ellipse
     id="path4058"
     style="fill:#ffc921;enable-background:new"
     cx="28.623785"
     cy="30.213451"
     rx="11.956854"
     ry="11.827418" />
  <path
     id="circle4689"
     d="M 40.560712,29.627993 A 11.956855,11.827418 0 0 1 28.623785,41.055251 11.956855,11.827418 0 0 1 16.686858,29.81329 11.956855,11.827418 0 0 0 16.666931,30.213451 11.956855,11.827418 0 0 0 28.623786,42.040869 11.956855,11.827418 0 0 0 40.58064,30.213451 11.956855,11.827418 0 0 0 40.560713,29.627993 Z"
     style="opacity:0.3;enable-background:new"
     inkscape:connector-curvature="0" />
  <path
     id="path5972"
     d="m 29.09608,37.112778 -4.457913,-5.913709 2.989214,0 0,-5.91371 2.989212,0.0285 0,5.885225 2.989214,0 z"
     inkscape:connector-curvature="0"
     style="fill:#ffffff" />
</svg>
