<?xml version="1.0" encoding="UTF-8" standalone="no"?>
<svg
   xmlns:dc="http://purl.org/dc/elements/1.1/"
   xmlns:cc="http://creativecommons.org/ns#"
   xmlns:rdf="http://www.w3.org/1999/02/22-rdf-syntax-ns#"
   xmlns:svg="http://www.w3.org/2000/svg"
   xmlns="http://www.w3.org/2000/svg"
   xmlns:sodipodi="http://sodipodi.sourceforge.net/DTD/sodipodi-0.dtd"
   xmlns:inkscape="http://www.inkscape.org/namespaces/inkscape"
   width="48"
   height="48"
   version="1"
   id="svg16"
   sodipodi:docname="k4dirstat.svg"
   inkscape:version="0.92.2pre0 (973e216, 2017-07-25)">
  <metadata
     id="metadata22">
    <rdf:RDF>
      <cc:Work
         rdf:about="">
        <dc:format>image/svg+xml</dc:format>
        <dc:type
           rdf:resource="http://purl.org/dc/dcmitype/StillImage" />
      </cc:Work>
    </rdf:RDF>
  </metadata>
  <defs
     id="defs20" />
  <sodipodi:namedview
     pagecolor="#ffffff"
     bordercolor="#666666"
     borderopacity="1"
     objecttolerance="10"
     gridtolerance="10"
     guidetolerance="10"
     inkscape:pageopacity="0"
     inkscape:pageshadow="2"
     inkscape:window-width="1360"
     inkscape:window-height="691"
     id="namedview18"
     showgrid="false"
     inkscape:zoom="4.9166667"
     inkscape:cx="24"
     inkscape:cy="9.995361"
     inkscape:window-x="0"
     inkscape:window-y="0"
     inkscape:window-maximized="1"
     inkscape:current-layer="svg16" />
  <rect
     width="44.563869"
     height="46.305084"
     x="-46.326584"
     y="-47.050846"
     rx="22.281935"
     ry="23.152542"
     transform="matrix(0,-1,-1,0,0,0)"
     id="rect2"
     style="fill:#c6ae91;stroke-width:1.13565338" />
  <path
     d="m 23.898305,6.2190988 c -10.261207,0 -18.5220338,7.9501942 -18.5220338,17.8255482 0,9.875353 8.2608268,17.825547 18.5220338,17.825547 V 37.413807 A 13.891525,13.369161 0 0 1 10.00678,24.044647 13.891525,13.369161 0 0 1 23.898305,10.675486 Z"
     id="path4"
     inkscape:connector-curvature="0"
     style="fill:#ffffff;stroke-width:1.13565338" />
  <path
     d="M 23.898305,1.7627119 C 11.279012,1.7627119 1.1069424,11.385166 0.78164915,23.453062 1.3997062,11.646978 11.472336,2.3197602 23.898305,2.3197602 c 12.42597,0 22.498483,9.3272178 23.116656,21.1333018 C 46.689668,11.385166 36.517598,1.7627119 23.898305,1.7627119 Z"
     id="path6"
     inkscape:connector-curvature="0"
     style="opacity:0.2;fill:#ffffff;stroke-width:1.13565338" />
  <path
     d="m 0.75930695,24.601695 c -0.004746,0.186054 -0.0135443,0.369879 -0.0135443,0.557047 4e-8,12.344193 10.32603435,22.281936 23.15254235,22.281936 12.826509,0 23.152543,-9.937743 23.152543,-22.281936 0,-0.187168 -0.0093,-0.370993 -0.0139,-0.557047 -0.305614,12.083493 -10.506624,21.724886 -23.138651,21.724886 -12.632027,0 -22.8330374,-9.641393 -23.13865098,-21.724886 z"
     id="path8"
     inkscape:connector-curvature="0"
     style="opacity:0.2;stroke-width:1.13565338" />
  <path
     d="m 23.898305,6.2190988 v 4.4563872 a 13.891525,13.369161 0 0 1 13.891526,13.369161 13.891525,13.369161 0 0 1 -13.891526,13.36916 v 4.456387 c 10.261207,0 18.522034,-7.950194 18.522034,-17.825547 0,-9.875354 -8.260827,-17.8255482 -18.522034,-17.8255482 z"
     id="path10"
     inkscape:connector-curvature="0"
     style="opacity:0.5;fill:#ffffff;stroke-width:1.13565338" />
  <path
     d="m 33.159322,24.044647 c 0,4.922413 -4.146273,8.912773 -9.261017,8.912773 -5.114743,0 -9.261017,-3.99036 -9.261017,-8.912773 z"
     id="path12"
     inkscape:connector-curvature="0"
     style="fill:#ffffff;stroke-width:1.13565338" />
  <path
     d="m 33.159322,24.044647 c 0,-4.922414 -4.146273,-8.912774 -9.261017,-8.912774 -5.114743,0 -9.261017,3.99036 -9.261017,8.912774 z"
     id="path14"
     inkscape:connector-curvature="0"
     style="opacity:0.5;fill:#ffffff;stroke-width:1.13565338" />
</svg>
