<?xml version="1.0" encoding="UTF-8" standalone="no"?>
<svg
   xmlns:dc="http://purl.org/dc/elements/1.1/"
   xmlns:cc="http://creativecommons.org/ns#"
   xmlns:rdf="http://www.w3.org/1999/02/22-rdf-syntax-ns#"
   xmlns:svg="http://www.w3.org/2000/svg"
   xmlns="http://www.w3.org/2000/svg"
   xmlns:sodipodi="http://sodipodi.sourceforge.net/DTD/sodipodi-0.dtd"
   xmlns:inkscape="http://www.inkscape.org/namespaces/inkscape"
   viewBox="0 0 48 48"
   version="1.1"
   id="svg35"
   sodipodi:docname="KissKass.svg"
   inkscape:version="0.92.0 r15299">
  <metadata
     id="metadata39">
    <rdf:RDF>
      <cc:Work
         rdf:about="">
        <dc:format>image/svg+xml</dc:format>
        <dc:type
           rdf:resource="http://purl.org/dc/dcmitype/StillImage" />
      </cc:Work>
    </rdf:RDF>
  </metadata>
  <sodipodi:namedview
     pagecolor="#ffffff"
     bordercolor="#666666"
     borderopacity="1"
     objecttolerance="10"
     gridtolerance="10"
     guidetolerance="10"
     inkscape:pageopacity="0"
     inkscape:pageshadow="2"
     inkscape:window-width="1360"
     inkscape:window-height="715"
     id="namedview37"
     showgrid="false"
     inkscape:zoom="4.9166667"
     inkscape:cx="-1.8504633"
     inkscape:cy="23.977361"
     inkscape:window-x="0"
     inkscape:window-y="27"
     inkscape:window-maximized="1"
     inkscape:current-layer="svg35" />
  <defs
     id="defs7">
    <linearGradient
       id="linearGradient3845"
       y1="47"
       x2="0"
       y2="1"
       gradientUnits="userSpaceOnUse">
      <stop
         style="stop-color:#b33c29;stop-opacity:1"
         id="stop2" />
      <stop
         offset="1"
         style="stop-color:#c3412d;stop-opacity:1"
         id="stop4" />
    </linearGradient>
  </defs>
  <g
     id="g15">
    <path
       d="m 36.31 5 c 5.859 4.062 9.688 10.831 9.688 18.5 c 0 12.426 -10.07 22.5 -22.5 22.5 c -7.669 0 -14.438 -3.828 -18.5 -9.688 c 1.037 1.822 2.306 3.499 3.781 4.969 c 4.085 3.712 9.514 5.969 15.469 5.969 c 12.703 0 23 -10.298 23 -23 c 0 -5.954 -2.256 -11.384 -5.969 -15.469 c -1.469 -1.475 -3.147 -2.744 -4.969 -3.781 z m 4.969 3.781 c 3.854 4.113 6.219 9.637 6.219 15.719 c 0 12.703 -10.297 23 -23 23 c -6.081 0 -11.606 -2.364 -15.719 -6.219 c 4.16 4.144 9.883 6.719 16.219 6.719 c 12.703 0 23 -10.298 23 -23 c 0 -6.335 -2.575 -12.06 -6.719 -16.219 z"
       style="opacity:0.05"
       id="path9" />
    <path
       d="m 41.28 8.781 c 3.712 4.085 5.969 9.514 5.969 15.469 c 0 12.703 -10.297 23 -23 23 c -5.954 0 -11.384 -2.256 -15.469 -5.969 c 4.113 3.854 9.637 6.219 15.719 6.219 c 12.703 0 23 -10.298 23 -23 c 0 -6.081 -2.364 -11.606 -6.219 -15.719 z"
       style="opacity:0.1"
       id="path11" />
    <path
       d="m 31.25 2.375 c 8.615 3.154 14.75 11.417 14.75 21.13 c 0 12.426 -10.07 22.5 -22.5 22.5 c -9.708 0 -17.971 -6.135 -21.12 -14.75 a 23 23 0 0 0 44.875 -7 a 23 23 0 0 0 -16 -21.875 z"
       style="opacity:0.2"
       id="path13" />
  </g>
  <path
     inkscape:connector-curvature="0"
     id="path17"
     style="fill:#5b59a3;fill-opacity:1"
     d="M 24,1 C 36.703,1 47,11.297 47,24 47,36.703 36.703,47 24,47 11.297,47 1,36.703 1,24 1,11.297 11.297,1 24,1 Z" />
  <g
     id="g23">
    <path
       d="m 40.03 7.531 c 3.712 4.084 5.969 9.514 5.969 15.469 0 12.703 -10.297 23 -23 23 c -5.954 0 -11.384 -2.256 -15.469 -5.969 4.178 4.291 10.01 6.969 16.469 6.969 c 12.703 0 23 -10.298 23 -23 0 -6.462 -2.677 -12.291 -6.969 -16.469 z"
       style="opacity:0.1"
       id="path21" />
  </g>
  <text
     x="17"
     y="18"
     line-height="125%"
     style="letter-spacing:0;word-spacing:0;font-size:20;font-family:Montserrat;fill:#000;fill-opacity:1;font-weight:normal;stroke:none;font-style:normal;font-variant:normal;font-stretch:normal"
     id="text27">
    <tspan
       x="17"
       y="18"
       style="font-family:Changa"
       id="tspan25" />
  </text>
  <text
     xml:space="preserve"
     style="font-style:normal;font-variant:normal;font-weight:bold;font-stretch:normal;font-size:34.04070282px;line-height:21.2754364px;font-family:'URW Chancery L';-inkscape-font-specification:'URW Chancery L Bold';letter-spacing:0px;word-spacing:0px;fill:#ef1960;fill-opacity:1;stroke:none;stroke-width:0.85101753px;stroke-linecap:butt;stroke-linejoin:miter;stroke-opacity:1"
     x="2.2472608"
     y="32.781788"
     id="text3692"
     transform="matrix(0.95918311,-0.13107041,0.16666705,1.0197791,0,0)"><tspan
       sodipodi:role="line"
       id="tspan3690"
       x="2.2472608"
       y="32.781788"
       style="font-style:normal;font-variant:normal;font-weight:bold;font-stretch:normal;font-family:'URW Chancery L';-inkscape-font-specification:'URW Chancery L Bold';fill:#ef1960;fill-opacity:1;stroke-width:0.85101753px">K</tspan></text>
  <g
     id="g229"
     transform="matrix(0.93578458,0,0,0.880736,89.01311,26.892273)">
    <path
       d="m -56.682298,-8.4284404 c -0.031,0 -0.063,0.012 -0.09,0.027 l -12.703,5.7149998 c -0.094,0.043 -0.152,0.133 -0.148,0.234 l 0.133,10.922 c -0.512,-0.09 -1.082,-0.055 -1.656,0.129 -0.754,0.238 -1.379,0.691 -1.793,1.234 -0.41,0.5469996 -0.609,1.2069996 -0.453,1.8319996 0.156,0.629 0.641,1.086 1.25,1.313 0.609,0.227 1.355,0.234 2.109,-0.008 0.75,-0.242 1.371,-0.684 1.785,-1.223 0.398,-0.527 0.602,-1.16 0.473,-1.7699996 0.004,-2.645 0.059,-9.37500001 0.059,-9.66000001 l 9.621,-4.37499999 0.027,9.242 c -0.496,-0.082 -1.047,-0.043 -1.602,0.137 -0.758,0.238 -1.383,0.688 -1.793,1.234 -0.414,0.547 -0.609,1.207 -0.457,1.832 0.156,0.629 0.641,1.086 1.25,1.313 0.609,0.227 1.355,0.234 2.109,-0.008 0.758,-0.242 1.383,-0.688 1.793,-1.238 0.414,-0.543 0.609,-1.203 0.453,-1.828 l -0.113,-14.7969998 c 0,-0.07 -0.027,-0.133 -0.074,-0.184 -0.051,-0.047 -0.117,-0.074 -0.188,-0.07 m 0.008,-0.004"
       id="path134"
       inkscape:connector-curvature="0"
       style="fill:#000000;fill-opacity:1;fill-rule:evenodd;stroke:none" />
    <path
       d="m -56.060373,-9.9354406 c -0.031,0 -0.063,0.012 -0.09,0.027 l -12.702998,5.715 c -0.094,0.043 -0.152,0.133 -0.148,0.234 l 0.133,10.9219999 c -0.512,-0.09 -1.082,-0.055 -1.655999,0.129 -0.754,0.238 -1.379,0.6910001 -1.793,1.2340001 -0.41,0.5470002 -0.609,1.2070002 -0.453,1.8320006 0.156,0.629 0.641,1.086 1.25,1.313 0.609,0.227 1.354999,0.234 2.108999,-0.008 0.75,-0.242 1.371,-0.684 1.785,-1.223 0.398,-0.5270005 0.602,-1.1600004 0.473,-1.7700006 0.004,-2.6450001 0.059,-9.375 0.059,-9.66 l 9.620999,-4.375 0.027,9.2419999 c -0.496,-0.082 -1.047,-0.043 -1.602,0.137 -0.758,0.238 -1.383,0.688 -1.793,1.234 -0.414,0.547 -0.609,1.207 -0.457,1.832 0.156,0.629 0.641,1.0860001 1.25,1.3130001 0.609,0.227 1.355,0.234 2.109,-0.008 0.757999,-0.242 1.382999,-0.6880001 1.792999,-1.2380001 0.414,-0.543 0.609,-1.203 0.453,-1.828 l -0.113,-14.7969999 c 0,-0.07 -0.027,-0.133 -0.074,-0.184 -0.051,-0.047 -0.117,-0.074 -0.188,-0.07 m 0.008,-0.004"
       id="path154"
       inkscape:connector-curvature="0"
       style="fill:#ffffff;fill-opacity:1;fill-rule:evenodd;stroke:none" />
  </g>
</svg>
