<?xml version="1.0" encoding="UTF-8" standalone="no"?>
<svg
   xmlns:dc="http://purl.org/dc/elements/1.1/"
   xmlns:cc="http://creativecommons.org/ns#"
   xmlns:rdf="http://www.w3.org/1999/02/22-rdf-syntax-ns#"
   xmlns:svg="http://www.w3.org/2000/svg"
   xmlns="http://www.w3.org/2000/svg"
   xmlns:sodipodi="http://sodipodi.sourceforge.net/DTD/sodipodi-0.dtd"
   xmlns:inkscape="http://www.inkscape.org/namespaces/inkscape"
   viewBox="0 0 48 48"
   version="1.1"
   id="svg85"
   sodipodi:docname="krita.svg"
   inkscape:version="0.92.2pre0 (973e216, 2017-07-25)">
  <metadata
     id="metadata89">
    <rdf:RDF>
      <cc:Work
         rdf:about="">
        <dc:format>image/svg+xml</dc:format>
        <dc:type
           rdf:resource="http://purl.org/dc/dcmitype/StillImage" />
      </cc:Work>
    </rdf:RDF>
  </metadata>
  <sodipodi:namedview
     pagecolor="#ffffff"
     bordercolor="#666666"
     borderopacity="1"
     objecttolerance="10"
     gridtolerance="10"
     guidetolerance="10"
     inkscape:pageopacity="0"
     inkscape:pageshadow="2"
     inkscape:window-width="1360"
     inkscape:window-height="658"
     id="namedview87"
     showgrid="false"
     inkscape:zoom="4.9166667"
     inkscape:cx="24"
     inkscape:cy="32.101646"
     inkscape:window-x="0"
     inkscape:window-y="28"
     inkscape:window-maximized="1"
     inkscape:current-layer="svg85" />
  <defs
     id="defs17">
    <linearGradient
       id="linearGradient3764"
       x1="1"
       x2="47"
       gradientUnits="userSpaceOnUse"
       gradientTransform="rotate(-90,1.999998,46)">
      <stop
         stop-color="#d0ab6c"
         stop-opacity="1"
         id="stop2" />
      <stop
         offset="1"
         stop-color="#d5b47c"
         stop-opacity="1"
         id="stop4" />
    </linearGradient>
    <clipPath
       id="clipPath-345652273">
      <g
         transform="translate(0,-1004.3622)"
         id="g9">
        <path
           d="m -24 13 c 0 1.105 -0.672 2 -1.5 2 -0.828 0 -1.5 -0.895 -1.5 -2 0 -1.105 0.672 -2 1.5 -2 0.828 0 1.5 0.895 1.5 2 z"
           transform="matrix(15.333333,0,0,11.5,414.99999,878.8622)"
           fill="#1890d0"
           id="path7" />
      </g>
    </clipPath>
    <clipPath
       id="clipPath-352356867">
      <g
         transform="translate(0,-1004.3622)"
         id="g14">
        <path
           d="m -24 13 c 0 1.105 -0.672 2 -1.5 2 -0.828 0 -1.5 -0.895 -1.5 -2 0 -1.105 0.672 -2 1.5 -2 0.828 0 1.5 0.895 1.5 2 z"
           transform="matrix(15.333333,0,0,11.5,414.99999,878.8622)"
           fill="#1890d0"
           id="path12" />
      </g>
    </clipPath>
    <linearGradient
       id="SVGID_1_"
       gradientUnits="userSpaceOnUse"
       x1="45"
       y1="26"
       x2="7"
       y2="26"
       gradientTransform="matrix(0.65851016,-0.54459798,0.56855118,0.63076696,57.968787,14.487454)">
      <stop
         offset="0"
         style="stop-color:#FFFFFF;stop-opacity:0"
         id="stop95" />
      <stop
         offset="0.1387"
         style="stop-color:#E8FFFC;stop-opacity:0.1387"
         id="stop97" />
      <stop
         offset="0.43"
         style="stop-color:#ADFFF3;stop-opacity:0.43"
         id="stop99" />
      <stop
         offset="0.8463"
         style="stop-color:#4FFFE5;stop-opacity:0.8463"
         id="stop101" />
      <stop
         offset="1"
         style="stop-color:#2BFFE0"
         id="stop103" />
    </linearGradient>
    <linearGradient
       id="SVGID_2_"
       gradientUnits="userSpaceOnUse"
       x1="7"
       y1="26"
       x2="45"
       y2="26"
       gradientTransform="matrix(0.59604348,0.60701632,-0.63371489,0.57093202,90.851839,-13.900809)">
      <stop
         offset="0"
         style="stop-color:#FFFFFF;stop-opacity:0"
         id="stop108" />
      <stop
         offset="0.0883"
         style="stop-color:#FFFFF8;stop-opacity:0.0883"
         id="stop110" />
      <stop
         offset="0.2164"
         style="stop-color:#FFFEE5;stop-opacity:0.2164"
         id="stop112" />
      <stop
         offset="0.3689"
         style="stop-color:#FFFCC5;stop-opacity:0.3689"
         id="stop114" />
      <stop
         offset="0.5402"
         style="stop-color:#FFF999;stop-opacity:0.5402"
         id="stop116" />
      <stop
         offset="0.7272"
         style="stop-color:#FFF660;stop-opacity:0.7272"
         id="stop118" />
      <stop
         offset="0.9242"
         style="stop-color:#FFF31C;stop-opacity:0.9242"
         id="stop120" />
      <stop
         offset="1"
         style="stop-color:#FFF100"
         id="stop122" />
    </linearGradient>
    <linearGradient
       id="SVGID_3_"
       gradientUnits="userSpaceOnUse"
       x1="16.636499"
       y1="32.6502"
       x2="36.970001"
       y2="32.6502"
       gradientTransform="matrix(0.87000946,0,0,0.83335574,67.252832,-4.9403183)">
      <stop
         offset="0"
         style="stop-color:#A3D8F1;stop-opacity:0.4382"
         id="stop127" />
      <stop
         offset="0.3612"
         style="stop-color:#77C6EB;stop-opacity:0.6411"
         id="stop129" />
      <stop
         offset="1"
         style="stop-color:#2EA7E0"
         id="stop131" />
    </linearGradient>
  </defs>
  <g
     id="g289"
     transform="matrix(1.3937328,0,0,1.4367412,-101.22622,0.05290501)">
    <ellipse
       ry="15.833759"
       rx="16.53018"
       id="circle93"
       cy="16.726931"
       cx="89.873077"
       style="fill:#ff57ec;stroke-width:0.85148537" />
    <ellipse
       ry="15.833759"
       rx="16.53018"
       id="circle106"
       cy="16.726931"
       cx="89.873077"
       style="fill:url(#SVGID_1_);stroke-width:0.85148537" />
    <ellipse
       ry="15.833759"
       rx="16.53018"
       id="circle125"
       cy="16.726931"
       cx="89.873077"
       style="fill:url(#SVGID_2_);stroke-width:0.85148537" />
    <path
       id="path134"
       d="m 99.417082,22.230412 c 0,-2.212559 -1.893141,-4.005941 -4.228246,-4.005941 -1.414636,0 -2.658749,0.664185 -3.426968,1.675045 l -0.0052,-0.0058 c 0,0 -1.184952,1.820049 -3.083313,1.859216 -1.977532,0.04084 -5.420159,-0.578348 -6.807824,-4.475953 0,0 -1.323284,5.231807 4.210846,8.371891 6.125736,3.476761 10.815087,0.248341 10.831617,0.24084 l -0.0035,-0.0042 c 1.331985,-0.885858 2.512588,-2.022555 2.512588,-3.655098 z"
       inkscape:connector-curvature="0"
       style="fill:url(#SVGID_3_);stroke-width:0.85148537" />
  </g>
  <g
     id="g31" />
  <g
     id="g57">
    <g
       clip-path="url(#clipPath-345652273)"
       id="g55">
      <g
         transform="translate(1,1)"
         id="g53">
        <g
           opacity="0.1"
           id="g51">
          <!-- color: #d5b47c -->
          <g
             id="g49">
            <path
               d="m 23.953 34.17 l -3.035 -2.598 c -1.563 -0.527 -2.566 1.156 -2.098 2.434 c 0.848 2.27 4.449 2.395 5.133 0.164 m 0 0"
               fill="#000"
               stroke="none"
               fill-rule="nonzero"
               fill-opacity="1"
               id="path33" />
            <path
               d="m 21.938 18.637 l 1.039 0 l 2.59 -1.488 c -0.395 -4.93 -4.957 -2.863 -3.629 1.488 m 0 0"
               fill="#000"
               stroke="none"
               fill-rule="nonzero"
               fill-opacity="1"
               id="path35" />
            <path
               d="m 12.453 24.504 c 0.34 4.113 5.629 3.055 6.242 -0.473 c 0.246 -1.434 -1.223 -3.836 -2.988 -2.797 m -3.254 3.27"
               fill="#000"
               stroke="none"
               fill-rule="nonzero"
               fill-opacity="1"
               id="path37" />
            <path
               d="m 35.992 21.613 l -5.03 -4.289 c -2.594 -0.891 -4.254 1.918 -3.477 4.02 c 1.398 3.77 7.375 3.973 8.504 0.27 m 0 0"
               fill="#000"
               stroke="none"
               fill-rule="nonzero"
               fill-opacity="1"
               id="path39" />
            <path
               d="m 12.08 36 c 3.918 -0.996 5.195 -2.125 4.848 -4.785 c -2.746 -0.238 -3.316 0.926 -4.93 4.078 l 0.984 -0.777 m -0.902 1.484"
               fill="#000"
               stroke="none"
               fill-rule="nonzero"
               fill-opacity="1"
               id="path41" />
            <path
               d="m 16.926 31.33 c 4.887 0.852 17.04 -15.664 19.07 -19.32 c -3.855 1.977 -20.15 14.605 -19.07 19.32 m 0 0"
               fill="#000"
               stroke="none"
               fill-rule="nonzero"
               fill-opacity="1"
               id="path43" />
            <path
               d="m 16.926 31.33 c 1.32 0.23 3.172 -0.852 5.211 -2.563 l -2.82 -2.637 c -1.66 2.066 -2.676 3.922 -2.391 5.199 m 0 0"
               fill="#000"
               stroke="none"
               fill-rule="nonzero"
               fill-opacity="1"
               id="path45" />
            <path
               d="m 33.01 30.566 c -0.898 -1.539 -2.211 -2.402 -4.16 -2.215 c -2.621 0.93 -0.191 3.195 -0.426 3.738 c 1.02 2.77 4.977 -0.102 4.586 -1.523 m 0 0"
               fill="#000"
               stroke="none"
               fill-rule="nonzero"
               fill-opacity="1"
               id="path47" />
          </g>
        </g>
      </g>
    </g>
  </g>
  <g
     id="g77"
     clip-path="url(#clipPath-352356867)">
    <!-- color: #d5b47c -->
    <g
       id="g75">
      <path
         style="fill:#36b24b;fill-opacity:1;fill-rule:nonzero;stroke:none"
         inkscape:connector-curvature="0"
         id="path59"
         d="m 23.953,34.17 -3.035,-2.598 c -1.563,-0.527 -2.566,1.156 -2.098,2.434 0.848,2.27 4.449,2.395 5.133,0.164 m 0,0" />
      <path
         style="fill:#db1f27;fill-opacity:1;fill-rule:nonzero;stroke:none"
         inkscape:connector-curvature="0"
         id="path61"
         d="m 21.938,18.637 h 1.039 l 2.59,-1.488 c -0.395,-4.93 -4.957,-2.863 -3.629,1.488 m 0,0" />
      <path
         style="fill:#2753a3;fill-opacity:1;fill-rule:nonzero;stroke:none"
         inkscape:connector-curvature="0"
         id="path63"
         d="m 12.453,24.504 c 0.34,4.113 5.629,3.055 6.242,-0.473 0.246,-1.434 -1.223,-3.836 -2.988,-2.797 m -3.254,3.27" />
      <path
         style="fill:#f8de45;fill-opacity:1;fill-rule:nonzero;stroke:none"
         inkscape:connector-curvature="0"
         id="path65"
         d="m 35.992,21.613 -5.03,-4.289 c -2.594,-0.891 -4.254,1.918 -3.477,4.02 1.398,3.77 7.375,3.973 8.504,0.27 m 0,0" />
      <path
         style="fill:#f4b21a;fill-opacity:1;fill-rule:nonzero;stroke:none"
         inkscape:connector-curvature="0"
         id="path67"
         d="m 12.08,36 c 3.918,-0.996 5.195,-2.125 4.848,-4.785 -2.746,-0.238 -3.316,0.926 -4.93,4.078 l 0.984,-0.777 M 12.08,36" />
      <path
         style="fill:#533c36;fill-opacity:1;fill-rule:nonzero;stroke:none"
         inkscape:connector-curvature="0"
         id="path69"
         d="m 16.926,31.33 c 4.887,0.852 17.04,-15.664 19.07,-19.32 -3.855,1.977 -20.15,14.605 -19.07,19.32 m 0,0" />
      <path
         style="fill:#f9f9f9;fill-opacity:1;fill-rule:nonzero;stroke:none"
         inkscape:connector-curvature="0"
         id="path71"
         d="m 16.926,31.33 c 1.32,0.23 3.172,-0.852 5.211,-2.563 l -2.82,-2.637 c -1.66,2.066 -2.676,3.922 -2.391,5.199 m 0,0" />
      <path
         style="fill:#353535;fill-opacity:1;fill-rule:nonzero;stroke:none"
         inkscape:connector-curvature="0"
         id="path73"
         d="m 33.01,30.566 c -0.898,-1.539 -2.211,-2.402 -4.16,-2.215 -2.621,0.93 -0.191,3.195 -0.426,3.738 1.02,2.77 4.977,-0.102 4.586,-1.523 m 0,0" />
    </g>
  </g>
</svg>
