<?xml version="1.0" encoding="UTF-8" standalone="no"?>
<svg
   xmlns:dc="http://purl.org/dc/elements/1.1/"
   xmlns:cc="http://creativecommons.org/ns#"
   xmlns:rdf="http://www.w3.org/1999/02/22-rdf-syntax-ns#"
   xmlns:svg="http://www.w3.org/2000/svg"
   xmlns="http://www.w3.org/2000/svg"
   xmlns:sodipodi="http://sodipodi.sourceforge.net/DTD/sodipodi-0.dtd"
   xmlns:inkscape="http://www.inkscape.org/namespaces/inkscape"
   width="48"
   version="1.1"
   height="48"
   viewBox="0 0 48 48"
   id="svg16"
   sodipodi:docname="l4d.svg"
   inkscape:version="0.92.2pre0 (973e216, 2017-07-25)">
  <metadata
     id="metadata22">
    <rdf:RDF>
      <cc:Work
         rdf:about="">
        <dc:format>image/svg+xml</dc:format>
        <dc:type
           rdf:resource="http://purl.org/dc/dcmitype/StillImage" />
      </cc:Work>
    </rdf:RDF>
  </metadata>
  <defs
     id="defs20" />
  <sodipodi:namedview
     pagecolor="#ffffff"
     bordercolor="#666666"
     borderopacity="1"
     objecttolerance="10"
     gridtolerance="10"
     guidetolerance="10"
     inkscape:pageopacity="0"
     inkscape:pageshadow="2"
     inkscape:window-width="1360"
     inkscape:window-height="691"
     id="namedview18"
     showgrid="false"
     inkscape:zoom="6.9532167"
     inkscape:cx="29.301864"
     inkscape:cy="16.85142"
     inkscape:window-x="0"
     inkscape:window-y="0"
     inkscape:window-maximized="1"
     inkscape:current-layer="svg16" />
  <ellipse
     style="fill:#5aa331;stroke-width:1.14419115"
     id="circle2"
     cx="24.01738"
     cy="23.889832"
     rx="22.829943"
     ry="22.937832" />
  <ellipse
     style="opacity:0.2;stroke-width:1.14419115"
     id="circle4"
     cx="24.01738"
     cy="25.036722"
     rx="17.122458"
     ry="17.203373" />
  <ellipse
     style="fill:#efefef;stroke-width:1.14419115"
     id="circle6"
     cx="24.01738"
     cy="23.889832"
     rx="17.122458"
     ry="17.203373" />
  <path
     style="fill:#ff352e;stroke-width:1.14419115"
     inkscape:connector-curvature="0"
     id="path8"
     d="m 17.959455,37.537814 c -0.09971,-0.04931 -0.264553,-0.198757 -0.366329,-0.333172 -0.101776,-0.134416 -0.364639,-0.424236 -0.584161,-0.644095 -0.3356,-0.336039 -0.4316,-0.402215 -0.603213,-0.41506 -0.114697,-0.01147 -0.291755,-0.07914 -0.40425,-0.160679 -0.212706,-0.154257 -0.594161,-0.61439 -0.594161,-0.716693 0,-0.08143 -0.243595,-0.165726 -0.479051,-0.165726 -0.414467,0 -0.726712,-0.212404 -0.821923,-0.559225 -0.03291,-0.119849 -0.112998,-0.358976 -0.177983,-0.531239 -0.09963,-0.264244 -0.149845,-0.326291 -0.319973,-0.395104 -0.932386,-0.377099 -0.956084,-0.393499 -1.108154,-0.765436 -0.05423,-0.132695 -0.148155,-0.309316 -0.208711,-0.392466 -0.08877,-0.121915 -0.102998,-0.202197 -0.07343,-0.414258 0.02895,-0.207702 0.01245,-0.308055 -0.07875,-0.478024 -0.104882,-0.195545 -0.108146,-0.231787 -0.03569,-0.39671 0.04384,-0.09978 0.107849,-0.197953 0.14223,-0.218138 0.0344,-0.02064 0.101845,-0.108955 0.149925,-0.197496 0.08686,-0.159761 0.0859,-0.162055 -0.155381,-0.371019 -0.133543,-0.115721 -0.351227,-0.276974 -0.483743,-0.358518 -0.194283,-0.119391 -0.257043,-0.199215 -0.32406,-0.412308 -0.146123,-0.46472 -0.11794,-0.592943 0.198677,-0.903636 0.154993,-0.152077 0.28179,-0.319867 0.28179,-0.372853 0,-0.05276 -0.09654,-0.198298 -0.214533,-0.322966 -0.117996,-0.124552 -0.305897,-0.347164 -0.41757,-0.494539 C 10.99872,27.145829 10.846228,27.021735 10.526882,26.904867 10.059919,26.73398 9.5222393,26.525131 9.4333282,26.480173 9.386835,26.457235 9.2828218,26.323164 9.2021978,26.183472 8.9742409,25.788482 8.8638352,25.709003 8.504492,25.680674 7.9957154,25.640535 7.9531489,25.482148 8.1341105,24.302684 8.2121659,23.793923 8.2954268,23.59425 8.5549918,23.293191 8.882533,22.91334 9.1613208,22.778695 9.6939778,22.74337 10.109619,22.71585 10.164663,22.72502 10.5605,22.893613 c 0.232477,0.09864 0.46258,0.203115 0.511344,0.231558 0.200128,0.117212 1.033809,1.278669 1.095244,1.525824 0.01831,0.0734 0.102084,0.22915 0.186155,0.345444 0.13633,0.188549 0.212673,0.230411 0.705811,0.387076 0.304117,0.09634 0.629147,0.236603 0.722294,0.311151 0.216096,0.172837 0.268183,0.170314 0.528124,-0.02637 0.378225,-0.285805 0.554962,-0.362302 0.928826,-0.4021 0.595918,-0.06308 0.619946,-0.08029 0.619946,-0.43513 0,-0.229837 0.03526,-0.362074 0.14327,-0.537319 0.203974,-0.330993 0.337357,-0.314936 0.707717,0.08487 0.161727,0.174672 0.410504,0.376983 0.552827,0.449352 0.255261,0.129943 0.261825,0.130401 0.484211,0.03784 0.239954,-0.09978 0.522726,-0.399691 0.642617,-0.681254 0.100132,-0.235112 0.03064,-0.574477 -0.160619,-0.784588 -0.348134,-0.382258 -0.791971,-1.080716 -0.791971,-1.246327 0,-0.232475 0.390061,-0.788259 0.672034,-0.95754 0.270592,-0.162514 0.356409,-0.281447 0.485318,-0.672537 0.14997,-0.455086 0.260319,-0.644095 0.461325,-0.789864 0.209076,-0.151619 0.221701,-0.225135 0.09571,-0.556702 -0.214396,-0.564271 -0.05476,-0.903062 0.5514,-1.170058 0.420026,-0.185108 0.49186,-0.321015 0.270375,-0.511629 -0.174364,-0.150013 -0.143611,-0.351751 0.07946,-0.521032 0.268709,-0.203918 0.402093,-0.591911 0.312394,-0.908682 -0.036,-0.127191 -0.113544,-0.320786 -0.172309,-0.430314 -0.206268,-0.384553 -0.123898,-0.594893 0.298616,-0.762798 0.221896,-0.08831 0.439922,-0.313675 0.439922,-0.455087 0,-0.04931 -0.113031,-0.194283 -0.251187,-0.323194 -0.270649,-0.25266 -0.356603,-0.466784 -0.257807,-0.642259 0.08998,-0.159991 0.316845,-0.14015 0.49808,0.04358 0.08349,0.08487 0.215995,0.16802 0.29445,0.185682 0.2133,0.04816 0.676874,-0.178686 0.89022,-0.434901 0.138988,-0.166874 0.233218,-0.22548 0.407947,-0.253463 0.124972,-0.0195 0.333775,-0.114689 0.464031,-0.209194 0.214886,-0.156551 0.236803,-0.194398 0.236803,-0.408752 0,-0.230295 0.0052,-0.236948 0.206497,-0.268602 0.24791,-0.03899 0.463813,-0.16584 0.587254,-0.344985 0.085,-0.12329 0.08324,-0.143476 -0.02739,-0.313789 -0.06503,-0.09978 -0.118235,-0.232934 -0.118235,-0.295325 0,-0.06308 -0.0292,-0.217336 -0.06486,-0.344182 -0.03647,-0.129714 -0.04749,-0.318721 -0.02513,-0.432034 0.0709,-0.359436 0.46112,-0.3999212 0.774894,-0.08028 0.188381,0.19176 0.200469,0.31895 0.0521,0.547755 -0.09392,0.144737 -0.09802,0.180521 -0.03072,0.267799 0.0741,0.09634 0.09067,0.09634 0.358522,0.01377 0.38852,-0.120883 0.617185,-0.110102 0.94049,0.04703 0.155986,0.0757 0.375861,0.134185 0.502693,0.134759 0.324014,0 0.495638,0.100922 0.541458,0.314134 0.08376,0.389484 0.316994,0.40382 0.557165,0.03441 0.148828,-0.229033 0.294916,-0.270666 0.595404,-0.169854 0.19329,0.06537 0.25,0.06537 0.366341,0 0.199671,-0.105514 0.35625,-0.0929 0.754838,0.05849 0.209099,0.07914 0.398119,0.12008 0.460502,0.09864 0.05819,-0.0195 0.270695,-0.201279 0.472249,-0.402903 0.316879,-0.31723 0.393029,-0.366775 0.563581,-0.366547 0.24694,2.3e-4 0.532154,0.161941 0.641978,0.363795 0.04618,0.08487 0.170744,0.217335 0.276847,0.294292 0.140449,0.102073 0.20233,0.196004 0.227569,0.346132 0.01917,0.113542 0.12238,0.323538 0.2296,0.466899 0.153177,0.20495 0.203152,0.333975 0.233402,0.602577 0.03444,0.304041 0.05612,0.350491 0.197981,0.420336 0.246084,0.120997 0.475879,0.09749 0.68443,-0.0711 0.101833,-0.08257 0.281574,-0.216877 0.39941,-0.299683 0.132357,-0.0929 0.272464,-0.266537 0.366341,-0.453825 0.139559,-0.278466 0.170585,-0.30622 0.377493,-0.338448 0.253915,-0.03899 0.546046,0.06193 0.672502,0.233737 0.126295,0.171575 0.04942,0.713252 -0.148749,1.048488 -0.140416,0.237521 -0.160768,0.317345 -0.128053,0.501421 0.04012,0.225938 0.09186,0.289705 0.441873,0.545118 0.11294,0.08257 0.255947,0.244058 0.317816,0.359435 0.149068,0.277892 0.568237,0.521836 0.756482,0.440292 0.100223,-0.04358 0.136192,-0.112395 0.159158,-0.30645 0.01644,-0.137741 0.05937,-0.278464 0.09564,-0.312757 0.08214,-0.07799 0.797805,-0.06537 0.958653,0.0172 0.08085,0.04129 0.115291,0.112395 0.115291,0.237865 0,0.09863 0.04156,0.272501 0.09235,0.386617 0.06645,0.149326 0.08959,0.346705 0.0825,0.703274 -0.0113,0.563468 0.0058,0.607279 0.411931,1.058581 0.424421,0.471717 0.558261,0.654531 0.816867,1.11604 0.316012,0.563927 0.445709,0.905357 0.490753,1.291745 0.02661,0.226626 0.08613,0.392695 0.196303,0.546034 0.386614,0.538122 0.420938,0.880354 0.263104,2.623401 -0.06105,0.674257 -0.07534,1.093216 -0.04208,1.232678 0.03287,0.138201 0.0227,0.475845 -0.03014,0.97612 -0.08446,0.801907 -0.166248,1.082551 -0.563192,1.932741 -0.158109,0.338563 -0.212694,0.532732 -0.226164,0.803857 -0.09063,1.827227 -0.493104,2.635442 -1.312379,2.635442 -0.16949,0 -0.33261,0.06881 -0.720787,0.302894 -0.789197,0.476419 -0.924727,0.540072 -1.387718,0.652008 -0.556423,0.13453 -0.779609,0.258853 -0.907274,0.505435 -0.124412,0.240274 -0.09488,0.301977 0.270968,0.566909 0.385405,0.279038 0.404935,0.32285 0.292064,0.655218 -0.172389,0.507615 -0.376636,0.543054 -0.911462,0.158157 -0.222877,-0.160451 -0.430527,-0.268028 -0.517327,-0.268028 -0.07975,0 -0.338362,0.09404 -0.574697,0.209078 -0.736175,0.35806 -0.91886,0.387764 -1.32779,0.21573 -0.296641,-0.124781 -0.328341,-0.115147 -0.734451,0.223988 -0.160494,0.133957 -0.199157,0.204721 -0.199157,0.364368 0,0.239699 -0.08066,0.326749 -0.302713,0.326749 -0.09208,0 -0.216531,0.04243 -0.276528,0.09404 -0.06121,0.05276 -0.197833,0.09404 -0.3114,0.09404 -0.191407,0 -0.2062,0.01262 -0.275045,0.241191 -0.07885,0.261263 -0.295899,0.482383 -0.473732,0.482383 -0.06128,0 -0.232466,0.05849 -0.380393,0.129599 -0.577163,0.278121 -0.991801,0.249449 -1.564079,-0.107808 -0.507383,-0.316886 -0.574778,-0.378474 -0.727602,-0.664853 -0.17845,-0.334434 -0.301446,-0.423891 -0.705741,-0.513578 -0.1928,-0.04243 -0.515751,-0.140609 -0.717682,-0.217451 -0.325453,-0.123865 -0.415893,-0.135791 -0.796298,-0.105514 -0.236026,0.01835 -0.454509,0.03326 -0.485502,0.03211 -0.03099,-0.0011 -0.255113,-0.01147 -0.498034,-0.01491 -0.392983,-0.01147 -0.455104,-0.02752 -0.563581,-0.146916 -0.151202,-0.166643 -0.515523,-0.374805 -0.656223,-0.374805 -0.130839,0 -0.388074,0.240045 -0.534494,0.498669 -0.09816,0.17341 -0.102952,0.22307 -0.04227,0.4388 0.103545,0.368153 0.08769,0.446256 -0.114743,0.565762 -0.155723,0.09175 -0.242272,0.103221 -0.577678,0.0757 -0.344881,-0.02867 -0.424785,-0.0172 -0.635095,0.09175 -0.132322,0.06881 -0.394547,0.268946 -0.582722,0.445567 -0.31744,0.297848 -0.339858,0.334549 -0.310499,0.509105 0.0684,0.406802 -0.103169,0.544774 -0.400677,0.322162 -0.176955,-0.132352 -0.261072,-0.132581 -0.564881,0 -0.295454,0.127534 -0.304072,0.201509 -0.02818,0.24188 0.116238,0.0172 0.331205,0.06881 0.477704,0.114689 0.245034,0.07684 0.286608,0.07684 0.519371,-0.01147 0.248515,-0.09061 0.257818,-0.08946 0.522234,0.03556 0.320601,0.151505 0.400061,0.33042 0.301402,0.678845 -0.0813,0.287183 -0.192799,0.340742 -0.820349,0.39476 -1.241264,0.106661 -1.345027,0.107808 -1.533944,0.01491 z m 14.756133,-5.040131 c 0.0652,-0.0562 0.170358,-0.198411 0.23371,-0.316312 0.125508,-0.233622 0.124103,-0.204147 0.105269,-2.226575 -0.01175,-1.251489 0.02036,-1.404025 0.376797,-1.800621 0.169843,-0.189007 0.318409,-0.280988 0.682592,-0.422743 0.801297,-0.311955 1.25188,-0.617716 1.419566,-0.963389 0.134502,-0.27709 0.132939,-0.493852 -0.0063,-0.870262 -0.142528,-0.385699 -0.228311,-0.47378 -0.38392,-0.394645 -0.152116,0.07684 -0.274415,0.02752 -0.315784,-0.129369 -0.02973,-0.112396 -0.06539,-0.126847 -0.308466,-0.125012 -0.234613,0 -0.283959,0.02064 -0.336685,0.130975 -0.08128,0.169511 -0.221975,0.164006 -0.292178,-0.01147 -0.04814,-0.120423 -0.08015,-0.135906 -0.224053,-0.108955 -0.137642,0.02638 -0.167891,0.01377 -0.167891,-0.06652 0,-0.05391 0.05381,-0.163661 0.11956,-0.243141 0.118898,-0.143821 0.118933,-0.144738 0.0058,-0.172836 -0.0625,-0.01606 -0.189419,-0.128682 -0.28204,-0.251284 -0.159627,-0.211373 -0.169182,-0.253923 -0.18272,-0.812574 -0.02466,-1.012934 -0.01252,-1.128312 0.133532,-1.295642 0.104995,-0.12008 0.139708,-0.240275 0.167698,-0.580213 0.01957,-0.235801 0.06214,-0.69192 0.09502,-1.013623 0.06468,-0.633084 0.01331,-1.038166 -0.170905,-1.344615 -0.118419,-0.197151 -0.224989,-0.987818 -0.204671,-1.518371 0.01331,-0.342232 0,-0.402444 -0.09846,-0.46839 -0.101673,-0.06767 -0.128682,-0.06193 -0.259896,0.05735 -0.177012,0.161254 -0.203187,0.164121 -0.241107,0.02638 -0.01761,-0.06423 -0.07686,-0.107809 -0.147459,-0.107809 -0.170037,0 -0.146089,-0.112394 0.05773,-0.272157 0.148086,-0.115722 0.167103,-0.155403 0.117174,-0.244058 -0.119594,-0.212519 0.129457,-0.310349 0.580646,-0.227888 0.07471,0.01377 0.106958,0 0.09561,-0.05505 -0.0093,-0.04129 0.01252,-0.144165 0.04912,-0.227773 0.08058,-0.185108 -0.0038,-0.312872 -0.205972,-0.312872 -0.14828,0 -0.248709,-0.139118 -0.248709,-0.344412 0,-0.07913 -0.04775,-0.165381 -0.112711,-0.204032 -0.135999,-0.08028 -0.142413,-0.142673 -0.02349,-0.225364 0.08035,-0.0562 0.07686,-0.08257 -0.03483,-0.262523 -0.143463,-0.231214 -0.370804,-0.360698 -0.730695,-0.416322 -0.13948,-0.02179 -0.431155,-0.06652 -0.648119,-0.09978 -0.216999,-0.03326 -0.597403,-0.09864 -0.845393,-0.145311 -0.873337,-0.164464 -1.407238,-0.193251 -1.850367,-0.09978 -0.908598,0.191645 -1.554262,0.542938 -1.757335,0.956277 -0.154661,0.314822 -0.335486,0.599366 -0.572472,0.900999 -0.129297,0.164578 -0.262533,0.393269 -0.296082,0.508187 -0.05907,0.202427 -0.137937,0.33065 -0.57891,0.941254 -0.114583,0.15873 -0.577255,0.654761 -1.028169,1.102507 -0.659123,0.654416 -0.859764,0.890561 -1.023466,1.204695 -0.111992,0.214927 -0.223893,0.463115 -0.248653,0.55154 -0.02477,0.08831 -0.09702,0.281332 -0.160574,0.428708 -0.06355,0.147375 -0.173736,0.419074 -0.244862,0.603724 -0.113431,0.294522 -0.19522,0.393958 -0.665573,0.809361 -0.652549,0.576428 -0.9041,0.982084 -0.791879,1.277293 0.06141,0.161482 0.0504,0.206096 -0.128601,0.521262 -0.190014,0.334549 -0.192663,0.347279 -0.0905,0.435246 0.102427,0.08831 0.101617,0.09519 -0.03014,0.280071 -0.09475,0.132581 -0.126044,0.233737 -0.104298,0.337186 0.02391,0.113543 0.0035,0.161712 -0.08764,0.208161 -0.06529,0.03326 -0.118727,0.09404 -0.118727,0.13453 0,0.04014 -0.062,0.118245 -0.137778,0.172264 -0.130394,0.09289 -0.134424,0.112395 -0.0752,0.35221 0.05318,0.215845 0.04876,0.268487 -0.02943,0.350604 -0.05706,0.05964 -0.09949,0.218254 -0.111673,0.416667 -0.01883,0.306564 -0.01241,0.324455 0.153132,0.427446 0.09503,0.05963 0.199751,0.186485 0.232728,0.282938 0.115703,0.338562 0.297406,0.447173 0.879478,0.525391 0.289245,0.03899 0.655951,0.0711 0.814903,0.07225 0.158954,0.001 0.374526,0.03556 0.479053,0.07684 0.104527,0.04129 0.479611,0.103221 0.833532,0.136365 0.353921,0.03326 0.667582,0.0757 0.697044,0.09289 0.137231,0.08028 0.518867,0.13155 1.139259,0.152078 0.849412,0.02752 1.381898,0.06078 1.763614,0.110102 0.266551,0.03326 0.313512,0.02409 0.441325,-0.08946 0.140222,-0.125241 0.144639,-0.1257 0.223026,-0.02409 0.04402,0.05735 0.08003,0.15873 0.08003,0.22548 0,0.0757 0.07608,0.178685 0.199043,0.271125 0.274336,0.206325 0.421487,0.461279 0.421053,0.729423 -1.95e-4,0.123291 0.0058,0.405197 0.0137,0.626202 0.01291,0.36758 0.02466,0.403477 0.137288,0.418616 0.151807,0.02064 0.21693,0.249563 0.131648,0.463 -0.06621,0.165611 0.0038,0.297504 0.154034,0.297504 0.0859,0 0.08343,0.05963 -0.02036,0.495801 -0.05053,0.211945 0.135758,0.200706 0.220719,-0.01377 0.07918,-0.199444 0.264519,-0.222268 0.264519,-0.03211 0,0.246007 0.255673,0.215845 0.357574,-0.04243 0.05036,-0.127534 0.234224,0.132352 0.234224,0.331108 0,0.168249 0.01722,0.196692 0.112711,0.18419 0.293399,-0.03899 1.081934,0.01147 1.141954,0.06652 0.02271,0.02294 0.28889,0.02982 0.591216,0.01606 0.436748,-0.01949 0.574036,-0.04588 0.668198,-0.126502 z m -6.269331,-7.794046 c -0.336159,-0.0539 -0.723823,-0.219629 -0.863153,-0.368725 -0.09886,-0.105514 -0.102644,-0.139462 -0.03859,-0.342806 0.03906,-0.123978 0.09051,-0.326749 0.114332,-0.450499 0.02383,-0.123864 0.107929,-0.317918 0.186909,-0.43146 0.211611,-0.304042 0.438643,-0.746397 0.439248,-0.855811 0.0016,-0.272616 0.456998,-0.792273 1.013923,-1.156869 0.07749,-0.05046 0.234258,-0.154372 0.34842,-0.230411 0.140655,-0.09404 0.235079,-0.123291 0.293125,-0.0929 0.163153,0.08717 0.575086,0.6457 0.648975,0.880353 0.07976,0.253464 0.156191,0.456235 0.331239,0.878979 0.06101,0.147375 0.126056,0.329387 0.144559,0.404508 0.03365,0.136137 0.387288,0.372625 0.557405,0.372625 0.115177,0 0.262875,0.168708 0.323375,0.369299 0.05702,0.189123 -0.0038,0.389141 -0.213871,0.71199 -0.210469,0.322278 -0.438906,0.367006 -1.837354,0.359552 -0.65321,0 -1.30496,-0.02524 -1.44856,-0.04818 z m 6.883114,-7.576823 c 0,-0.04129 -0.0634,-0.113543 -0.140929,-0.162056 -0.132517,-0.08257 -0.140883,-0.08143 -0.140883,0.01147 0,0.113542 0.103555,0.226396 0.208551,0.226396 0.04027,0 0.07326,-0.03326 0.07326,-0.07455 z M 29.36849,36.21453 c -0.06699,-0.178456 0.252271,-0.481466 0.409741,-0.388911 0.09235,0.0539 0.06504,0.271469 -0.04622,0.367234 -0.121559,0.104367 -0.327793,0.116869 -0.363522,0.02179 z m 3.030904,-0.375034 c -0.09299,-0.06423 -0.186327,-0.140608 -0.20741,-0.16951 -0.05616,-0.07684 0.03679,-0.212748 0.203928,-0.297847 0.127231,-0.06423 0.171646,-0.06308 0.342552,0.01491 0.224749,0.102073 0.230936,0.125355 0.101365,0.38375 -0.109378,0.218138 -0.203655,0.232818 -0.440424,0.06881 z m -2.328312,-0.245205 c -0.132585,-0.09749 -0.183542,-0.355881 -0.09643,-0.489952 0.05083,-0.07799 0.456507,-0.03441 0.579744,0.06308 0.146522,0.115606 -0.05983,0.525735 -0.263149,0.522983 -0.04946,-6.89e-4 -0.148521,-0.04358 -0.220172,-0.09634 z" />
  <path
     style="opacity:0.2;fill:#ffffff;stroke-width:1.14419115"
     inkscape:connector-curvature="0"
     id="path10"
     d="M 24.01738,0.95197161 A 22.829942,22.937832 0 0 0 1.1874386,23.889803 22.829942,22.937832 0 0 0 1.2119626,24.557294 22.829942,22.937832 0 0 1 24.017932,2.0782192 22.829942,22.937832 0 0 1 46.823903,24.34856 22.829942,22.937832 0 0 0 46.848422,23.86916 22.829942,22.937832 0 0 0 24.01848,0.93132756 Z" />
</svg>
