<?xml version="1.0" encoding="UTF-8" standalone="no"?>
<svg
   xmlns:dc="http://purl.org/dc/elements/1.1/"
   xmlns:cc="http://creativecommons.org/ns#"
   xmlns:rdf="http://www.w3.org/1999/02/22-rdf-syntax-ns#"
   xmlns:svg="http://www.w3.org/2000/svg"
   xmlns="http://www.w3.org/2000/svg"
   xmlns:sodipodi="http://sodipodi.sourceforge.net/DTD/sodipodi-0.dtd"
   xmlns:inkscape="http://www.inkscape.org/namespaces/inkscape"
   viewBox="0 0 48 48"
   version="1.1"
   id="svg53"
   sodipodi:docname="lutris.svg"
   inkscape:version="0.92.0 r15299">
  <metadata
     id="metadata57">
    <rdf:RDF>
      <cc:Work
         rdf:about="">
        <dc:format>image/svg+xml</dc:format>
        <dc:type
           rdf:resource="http://purl.org/dc/dcmitype/StillImage" />
      </cc:Work>
    </rdf:RDF>
  </metadata>
  <sodipodi:namedview
     pagecolor="#ffffff"
     bordercolor="#666666"
     borderopacity="1"
     objecttolerance="10"
     gridtolerance="10"
     guidetolerance="10"
     inkscape:pageopacity="0"
     inkscape:pageshadow="2"
     inkscape:window-width="1360"
     inkscape:window-height="743"
     id="namedview55"
     showgrid="false"
     inkscape:zoom="4.9166667"
     inkscape:cx="-11.389831"
     inkscape:cy="24"
     inkscape:window-x="0"
     inkscape:window-y="0"
     inkscape:window-maximized="1"
     inkscape:current-layer="svg53" />
  <defs
     id="defs7">
    <linearGradient
       id="linearGradient5688"
       y1="1"
       x2="0"
       y2="47"
       gradientUnits="userSpaceOnUse">
      <stop
         style="stop-color:#e8a862;stop-opacity:1"
         id="stop2" />
      <stop
         offset="1"
         style="stop-color:#e59e51;stop-opacity:1"
         id="stop4" />
    </linearGradient>
  </defs>
  <g
     id="g15">
    <path
       inkscape:connector-curvature="0"
       id="path9"
       style="opacity:0.05"
       d="m 36.31,5 c 5.859,4.062 9.688,10.831 9.688,18.5 0,12.426 -10.07,22.5 -22.5,22.5 -7.669,0 -14.438,-3.828 -18.5,-9.688 1.037,1.822 2.306,3.499 3.781,4.969 4.085,3.712 9.514,5.969 15.469,5.969 12.703,0 23,-10.298 23,-23 0,-5.954 -2.256,-11.384 -5.969,-15.469 C 39.81,7.306 38.132,6.037 36.31,5 Z m 4.969,3.781 c 3.854,4.113 6.219,9.637 6.219,15.719 0,12.703 -10.297,23 -23,23 -6.081,0 -11.606,-2.364 -15.719,-6.219 4.16,4.144 9.883,6.719 16.219,6.719 12.703,0 23,-10.298 23,-23 0,-6.335 -2.575,-12.06 -6.719,-16.219 z" />
    <path
       inkscape:connector-curvature="0"
       id="path11"
       style="opacity:0.1"
       d="m 41.28,8.781 c 3.712,4.085 5.969,9.514 5.969,15.469 0,12.703 -10.297,23 -23,23 -5.954,0 -11.384,-2.256 -15.469,-5.969 4.113,3.854 9.637,6.219 15.719,6.219 12.703,0 23,-10.298 23,-23 0,-6.081 -2.364,-11.606 -6.219,-15.719 z" />
    <path
       inkscape:connector-curvature="0"
       id="path13"
       style="opacity:0.2"
       d="M 31.25,2.375 C 39.865,5.529 46,13.792 46,23.505 c 0,12.426 -10.07,22.5 -22.5,22.5 -9.708,0 -17.971,-6.135 -21.12,-14.75 a 23,23 0 0 0 44.875,-7 23,23 0 0 0 -16,-21.875 z" />
  </g>
  <path
     inkscape:connector-curvature="0"
     id="path17"
     style="fill:#fcce28;fill-opacity:1;fill-rule:evenodd"
     d="M 24,1 C 36.703,1 47,11.297 47,24 47,36.703 36.703,47 24,47 11.297,47 1,36.703 1,24 1,11.297 11.297,1 24,1 Z" />
  <g
     id="g25">
    <path
       inkscape:connector-curvature="0"
       id="path23"
       style="opacity:0.1"
       d="m 40.03,7.531 c 3.712,4.084 5.969,9.514 5.969,15.469 0,12.703 -10.297,23 -23,23 C 17.045,46 11.615,43.744 7.53,40.031 11.708,44.322 17.54,47 23.999,47 c 12.703,0 23,-10.298 23,-23 0,-6.462 -2.677,-12.291 -6.969,-16.469 z" />
  </g>
  <g
     style="display:inline"
     id="g51">
    <path
       d="m 25.21,12 c -0.08,0 -0.16,0 -0.24,0.002 -1.323,0.023 -2.38,0.378 -2.363,0.795 0,0.018 0.003,0.037 0.008,0.055 l 0.771,12.268 c -0.259,0.059 -0.509,0.126 -0.734,0.213 l -8.611,3.313 c -0.598,0.23 -0.929,0.516 -1.01,0.803 H 13 v 3.857 h 0.025 c -0.08,0.331 0.178,0.661 0.807,0.902 l 9.03,3.473 c 1.185,0.456 3.185,0.42 4.486,-0.08 l 8.611,-3.313 C 36.727,33.993 37,33.599 37,33.241 c 0.005,-1.339 0.028,-2.741 0,-3.85 -0.067,-0.248 -0.354,-0.482 -0.832,-0.666 l -9.03,-3.473 c -0.164,-0.063 -0.345,-0.116 -0.537,-0.16 l 0.803,-12.32 h -0.002 c 0.005,-0.018 0.007,-0.036 0.008,-0.055 H 27.408 C 27.391,12.328 26.441,12.018 25.211,12 Z"
       style="opacity:0.1;fill:#000000;fill-opacity:1;stroke:none"
       id="path29"
       inkscape:connector-curvature="0" />
    <path
       d="m 12,28.447 v 3.857 h 0.025 c -0.08,0.331 0.178,0.661 0.807,0.902 l 9.03,3.473 c 1.185,0.456 3.185,0.42 4.486,-0.08 l 8.611,-3.313 C 35.727,32.991 36,32.602 36,32.239 c 0,-1.24 -0.002,-2.567 -0.002,-3.85 0,0 -16.47,0.057 -23.998,0.057 z"
       style="opacity:1;fill:#4d4d4d;fill-opacity:1;stroke:none"
       id="path31"
       inkscape:connector-curvature="0" />
    <rect
       width="14.259"
       height="14.259"
       x="45.490002"
       y="19.775999"
       rx="2.2920001"
       ry="2.516"
       transform="matrix(0.93334899,0.35897028,-0.93334899,0.35897028,0,0)"
       style="opacity:1;fill:#666666;fill-opacity:1;stroke:none"
       id="rect33" />
    <g
       transform="matrix(1,0,0,0.99997144,0,0.11719163)"
       id="g41">
      <path
         d="m 28,28.13 a 4,1.875 0 0 1 -4,1.87 4,1.875 0 0 1 -4,-1.874 4,1.875 0 0 1 3.995,-1.876 4,1.875 0 0 1 4,1.872"
         style="opacity:1;fill:#4d4d4d;fill-opacity:1;stroke:none"
         id="path35"
         inkscape:connector-curvature="0" />
      <path
         d="m 27.5,27.64 a 3.5,1.61 0 0 1 -3.5,1.61 3.5,1.61 0 0 1 -3.501,-1.609 3.5,1.61 0 0 1 3.496,-1.612 3.5,1.61 0 0 1 3.504,1.608"
         style="opacity:1;fill:#808080;fill-opacity:1;stroke:none"
         id="path37"
         inkscape:connector-curvature="0" />
      <path
         d="m 27,27.25 a 3,1.25 0 0 1 -2.999,1.25 3,1.25 0 0 1 -3,-1.249 3,1.25 0 0 1 2.996,-1.251 3,1.25 0 0 1 3,1.248"
         style="opacity:1;fill:#b3b3b3;fill-opacity:1;stroke:none"
         id="path39"
         inkscape:connector-curvature="0" />
    </g>
    <path
       d="m 30.879,28.04 v 0.551 c 0,0.005 0,10e-5 0,0.016 0.035,0.469 0.961,0.835 2.068,0.818 1.074,-0.017 1.931,-0.389 1.945,-0.844 0,-0.012 0.002,-0.025 0.002,-0.037 V 28.542 L 34.892,28.53 v -0.5 z"
       style="opacity:1;fill:#d05c5c;fill-opacity:1"
       id="path43"
       inkscape:connector-curvature="0" />
    <path
       d="m 32.869,28.584 a 2.01,0.852 0 0 1 -2.01,0.852 2.01,0.852 0 0 1 -2.01,-0.852 2.01,0.852 0 0 1 2.01,-0.853 2.01,0.852 0 0 1 2.01,0.851"
       transform="matrix(0.99988515,-0.01515543,0.07103729,0.99747366,0,0)"
       style="opacity:1;fill:#d56b6b;fill-opacity:1"
       id="path45"
       inkscape:connector-curvature="0" />
    <path
       d="m 21.611,11.789 0.977,15.543 c 0,0.005 -0.002,10e-5 -0.002,0.016 -0.002,0.235 0.626,0.426 1.4,0.426 0.774,0 1.4,-0.191 1.398,-0.426 h 0.004 l 1.016,-15.576 z"
       style="opacity:1;fill:#4d4d4d;fill-opacity:1"
       id="path47"
       inkscape:connector-curvature="0" />
    <path
       d="m 25.876,12.159 a 2.402,0.757 0 0 1 -2.401,0.757 2.402,0.757 0 0 1 -2.403,-0.756 2.402,0.757 0 0 1 2.399,-0.758 2.402,0.757 0 0 1 2.405,0.756"
       transform="matrix(0.99986249,-0.01658313,0.04418127,0.99902353,0,0)"
       style="fill:#666666;fill-opacity:1"
       id="path49"
       inkscape:connector-curvature="0" />
  </g>
</svg>
