<?xml version="1.0" encoding="UTF-8" standalone="no"?>
<svg
   xmlns:dc="http://purl.org/dc/elements/1.1/"
   xmlns:cc="http://creativecommons.org/ns#"
   xmlns:rdf="http://www.w3.org/1999/02/22-rdf-syntax-ns#"
   xmlns:svg="http://www.w3.org/2000/svg"
   xmlns="http://www.w3.org/2000/svg"
   xmlns:sodipodi="http://sodipodi.sourceforge.net/DTD/sodipodi-0.dtd"
   xmlns:inkscape="http://www.inkscape.org/namespaces/inkscape"
   width="48"
   height="48"
   version="1"
   id="svg12"
   sodipodi:docname="magnatune.svg"
   inkscape:version="0.92.2pre0 (973e216, 2017-07-25)">
  <metadata
     id="metadata18">
    <rdf:RDF>
      <cc:Work
         rdf:about="">
        <dc:format>image/svg+xml</dc:format>
        <dc:type
           rdf:resource="http://purl.org/dc/dcmitype/StillImage" />
      </cc:Work>
    </rdf:RDF>
  </metadata>
  <defs
     id="defs16" />
  <sodipodi:namedview
     pagecolor="#ffffff"
     bordercolor="#666666"
     borderopacity="1"
     objecttolerance="10"
     gridtolerance="10"
     guidetolerance="10"
     inkscape:pageopacity="0"
     inkscape:pageshadow="2"
     inkscape:window-width="640"
     inkscape:window-height="480"
     id="namedview14"
     showgrid="false"
     inkscape:zoom="4.9166667"
     inkscape:cx="24"
     inkscape:cy="24"
     inkscape:window-x="0"
     inkscape:window-y="28"
     inkscape:window-maximized="0"
     inkscape:current-layer="svg12" />
  <rect
     width="45.357586"
     height="46.503822"
     x="-46.306736"
     y="-47.050846"
     rx="22.678793"
     ry="23.251911"
     transform="matrix(0,-1,-1,0,0,0)"
     id="rect2"
     style="fill:#246e9a;stroke-width:1.14823568" />
  <path
     d="m 23.79661,0.94915256 c -12.881685,0 -23.25191174,10.11474144 -23.25191174,22.67879244 0,0.190185 -0.004656,0.377931 0,0.56697 C 0.85188679,11.896205 11.110261,2.0830922 23.79661,2.0830922 c 12.68635,0 22.944956,9.8126608 23.251912,22.1118228 0.0046,-0.189039 0,-0.376785 0,-0.56697 0,-12.564051 -10.370227,-22.67879244 -23.251912,-22.67879244 z"
     id="path4"
     inkscape:connector-curvature="0"
     style="opacity:0.2;fill:#ffffff;stroke-width:1.14823568" />
  <path
     d="m 0.55597664,24.194915 c -0.004767,0.189368 -0.0136038,0.376469 -0.0136038,0.56697 0,12.564052 10.37139016,22.678793 23.25423716,22.678793 12.882847,0 23.254237,-10.114741 23.254237,-22.678793 0,-0.190501 -0.0093,-0.377602 -0.01395,-0.56697 -0.306952,12.29871 -10.552769,22.111824 -23.240281,22.111824 -12.687512,0 -22.93332929,-9.813114 -23.24028513,-22.111824 z"
     id="path6"
     inkscape:connector-curvature="0"
     style="opacity:0.2;stroke-width:1.14823568" />
  <path
     d="M 23.79661,7.75279 A 17.440678,17.009095 0 0 0 6.3559322,24.761885 17.440678,17.009095 0 0 0 23.79661,41.77098 17.440678,17.009095 0 0 0 41.237289,24.761885 17.440678,17.009095 0 0 0 23.79661,7.75279 Z m 0,3.401819 c 1.932427,0 3.488135,1.517211 3.488135,3.40182 v 15.875154 c 0,1.884609 -1.555708,3.401819 -3.488135,3.401819 -1.932427,0 -3.488136,-1.51721 -3.488136,-3.401819 V 14.556429 c 0,-1.884609 1.555709,-3.40182 3.488136,-3.40182 z m -10.464407,9.071517 c 1.932428,0 3.488136,1.517212 3.488136,3.401819 v 6.803638 c 0,1.884609 -1.555708,3.401819 -3.488136,3.401819 -1.932427,0 -3.4881357,-1.51721 -3.4881357,-3.401819 v -6.803638 c 0,-1.884607 1.5557087,-3.401819 3.4881357,-3.401819 z m 20.928814,0 c 1.932427,0 3.488136,1.517212 3.488136,3.401819 v 6.803638 c 0,1.884609 -1.555709,3.401819 -3.488136,3.401819 -1.932427,0 -3.488135,-1.51721 -3.488135,-3.401819 v -6.803638 c 0,-1.884607 1.555708,-3.401819 3.488135,-3.401819 z"
     id="path8"
     inkscape:connector-curvature="0"
     style="opacity:0.2;stroke-width:1.14823568" />
  <path
     d="M 23.79661,6.6188508 A 17.440678,17.009095 0 0 0 6.3559322,23.627945 17.440678,17.009095 0 0 0 23.79661,40.63704 17.440678,17.009095 0 0 0 41.237289,23.627945 17.440678,17.009095 0 0 0 23.79661,6.6188508 Z m 0,3.4018192 c 1.932427,0 3.488135,1.517211 3.488135,3.401818 v 15.875156 c 0,1.884607 -1.555708,3.401818 -3.488135,3.401818 -1.932427,0 -3.488136,-1.517211 -3.488136,-3.401818 V 13.422488 c 0,-1.884607 1.555709,-3.401818 3.488136,-3.401818 z m -10.464407,9.071518 c 1.932428,0 3.488136,1.51721 3.488136,3.401818 v 6.803638 c 0,1.884607 -1.555708,3.401818 -3.488136,3.401818 -1.932427,0 -3.4881357,-1.517211 -3.4881357,-3.401818 v -6.803638 c 0,-1.884608 1.5557087,-3.401818 3.4881357,-3.401818 z m 20.928814,0 c 1.932427,0 3.488136,1.51721 3.488136,3.401818 v 6.803638 c 0,1.884607 -1.555709,3.401818 -3.488136,3.401818 -1.932427,0 -3.488135,-1.517211 -3.488135,-3.401818 v -6.803638 c 0,-1.884608 1.555708,-3.401818 3.488135,-3.401818 z"
     id="path10"
     inkscape:connector-curvature="0"
     style="fill:#ffffff;stroke-width:1.14823568" />
</svg>
