<?xml version="1.0" encoding="UTF-8" standalone="no"?>
<svg
   xmlns:dc="http://purl.org/dc/elements/1.1/"
   xmlns:cc="http://creativecommons.org/ns#"
   xmlns:rdf="http://www.w3.org/1999/02/22-rdf-syntax-ns#"
   xmlns:svg="http://www.w3.org/2000/svg"
   xmlns="http://www.w3.org/2000/svg"
   xmlns:sodipodi="http://sodipodi.sourceforge.net/DTD/sodipodi-0.dtd"
   xmlns:inkscape="http://www.inkscape.org/namespaces/inkscape"
   width="48"
   height="48"
   version="1.1"
   viewBox="0 0 48 48"
   id="svg12"
   sodipodi:docname="mailspring.svg"
   inkscape:version="0.92.2pre0 (973e216, 2017-07-25)">
  <metadata
     id="metadata18">
    <rdf:RDF>
      <cc:Work
         rdf:about="">
        <dc:format>image/svg+xml</dc:format>
        <dc:type
           rdf:resource="http://purl.org/dc/dcmitype/StillImage" />
      </cc:Work>
    </rdf:RDF>
  </metadata>
  <defs
     id="defs16" />
  <sodipodi:namedview
     pagecolor="#ffffff"
     bordercolor="#666666"
     borderopacity="1"
     objecttolerance="10"
     gridtolerance="10"
     guidetolerance="10"
     inkscape:pageopacity="0"
     inkscape:pageshadow="2"
     inkscape:window-width="1360"
     inkscape:window-height="669"
     id="namedview14"
     showgrid="false"
     inkscape:zoom="4.9166667"
     inkscape:cx="24"
     inkscape:cy="24"
     inkscape:window-x="0"
     inkscape:window-y="28"
     inkscape:window-maximized="1"
     inkscape:current-layer="svg12" />
  <path
     style="fill:#23b7fb;stroke-width:1.15613806"
     d="M 24.101695,0.74576274 A 23.152543,23.093015 0 0 0 0.94915254,23.838777 23.152543,23.093015 0 0 0 24.101695,46.93179 23.152543,23.093015 0 0 0 47.254237,23.838777 23.152543,23.093015 0 0 0 24.101695,0.74576274 Z"
     id="path2"
     inkscape:connector-curvature="0" />
  <path
     style="opacity:0.2;stroke-width:1.15613806"
     d="M 10.210169,14.601571 24.101695,28.45738 37.99322,14.601571 Z m 0,3.265496 v 17.518216 l 8.781688,-8.759108 z m 27.783051,0 -8.781687,8.759108 8.781687,8.759108 z m -17.364406,10.391856 -7.14473,7.12636 h 21.235222 l -7.14473,-7.12636 -1.835925,1.831203 a 2.3154857,2.3095323 0 0 1 -3.273913,0 z"
     id="path4"
     inkscape:connector-curvature="0" />
  <path
     style="fill:#a7ffe8;stroke-width:1.15613806"
     d="M 10.210169,13.44692 24.101695,27.302729 37.99322,13.44692 Z m 0,3.265497 v 17.518216 l 8.781688,-8.75911 z m 27.783051,0 -8.781687,8.759106 8.781687,8.75911 z m -17.364406,10.391856 -7.14473,7.12636 h 21.235222 l -7.14473,-7.12636 -1.835925,1.831203 a 2.3154857,2.3095323 0 0 1 -3.273913,0 z"
     id="path10"
     inkscape:connector-curvature="0" />
</svg>
