<?xml version="1.0" encoding="UTF-8" standalone="no"?>
<svg
   xmlns:dc="http://purl.org/dc/elements/1.1/"
   xmlns:cc="http://creativecommons.org/ns#"
   xmlns:rdf="http://www.w3.org/1999/02/22-rdf-syntax-ns#"
   xmlns:svg="http://www.w3.org/2000/svg"
   xmlns="http://www.w3.org/2000/svg"
   xmlns:sodipodi="http://sodipodi.sourceforge.net/DTD/sodipodi-0.dtd"
   xmlns:inkscape="http://www.inkscape.org/namespaces/inkscape"
   width="48"
   height="48"
   version="1"
   id="svg10"
   sodipodi:docname="marsshooter.svg"
   inkscape:version="0.92.2pre0 (973e216, 2017-07-25)">
  <metadata
     id="metadata16">
    <rdf:RDF>
      <cc:Work
         rdf:about="">
        <dc:format>image/svg+xml</dc:format>
        <dc:type
           rdf:resource="http://purl.org/dc/dcmitype/StillImage" />
      </cc:Work>
    </rdf:RDF>
  </metadata>
  <defs
     id="defs14" />
  <sodipodi:namedview
     pagecolor="#ffffff"
     bordercolor="#666666"
     borderopacity="1"
     objecttolerance="10"
     gridtolerance="10"
     guidetolerance="10"
     inkscape:pageopacity="0"
     inkscape:pageshadow="2"
     inkscape:window-width="640"
     inkscape:window-height="480"
     id="namedview12"
     showgrid="false"
     inkscape:zoom="4.9166667"
     inkscape:cx="24.40678"
     inkscape:cy="22.983051"
     inkscape:window-x="0"
     inkscape:window-y="0"
     inkscape:window-maximized="0"
     inkscape:current-layer="svg10" />
  <ellipse
     cx="23.898306"
     cy="24.039686"
     id="circle2"
     rx="22.949152"
     ry="22.480364"
     style="fill:#f24f37;stroke-width:1.13567734" />
  <path
     d="m 21.730758,1.6800416 a 22.949153,22.480364 0 0 0 -8.305299,2.3599885 c 0.115894,0.3597983 -0.01951,0.7656813 -0.441771,1.1240183 -0.285717,0.2425631 -0.519798,0.6203456 -0.519798,0.840878 0,0.6740737 0.621922,1.7090697 1.118771,1.8594632 0.659788,0.2000756 0.438329,0.8897729 -0.41079,1.2708146 -0.392431,0.1764712 -0.87551,0.6845274 -1.072872,1.1285148 -0.198511,0.445112 -0.489965,0.883478 -0.648315,0.974524 -0.157201,0.09216 -0.286863,0.439491 -0.286863,0.773324 0,0.466468 0.218016,0.692395 0.932882,0.972276 0.511766,0.201199 1.124509,0.347321 1.362033,0.324841 1.366622,-0.12589 1.46186,0.654179 0.267357,2.178348 -0.634544,0.809292 -0.939768,1.01274 -1.372359,0.910455 -0.402757,-0.09441 -0.623069,0.01685 -0.806663,0.408018 -0.192772,0.414763 -0.509471,0.555265 -1.359737,0.61259 -0.8364968,0.05732 -1.2105683,0.223679 -1.5238243,0.672162 -0.2294912,0.32709 -0.5599593,0.592359 -0.7355198,0.592359 -0.17602,0 -0.5893343,0.220306 -0.9188842,0.487822 -0.6705742,0.54515 -0.932424,0.600228 -1.1675381,0.243913 -0.3107315,-0.472088 -0.981191,-0.233795 -1.9789054,0.702511 -0.8823949,0.827279 -0.9892232,1.04871 -0.8561181,1.766957 0.2368353,1.278009 0.9444723,2.412143 1.752512,2.807797 0.7051127,0.345075 0.7188822,0.382166 0.2913395,0.82503 -0.2459002,0.255151 -0.6678203,0.528288 -0.9367844,0.608094 -0.7768289,0.231547 -0.3395327,0.521544 1.0465961,0.694642 1.4187166,0.176471 1.8595699,0.680031 1.1967983,1.366806 -0.3695961,0.38329 -0.3488271,0.455228 0.2442938,0.81941 1.1589316,0.712628 2.0805696,0.276509 0.9927806,-0.469839 -0.6991463,-0.479956 -0.2102149,-0.675535 0.8158418,-0.32709 0.8181373,0.277633 0.9799286,0.261897 1.4630088,-0.149494 0.9925504,-0.84189 2.0711604,0.403522 1.1635224,1.343201 -0.577172,0.599102 -0.402758,1.320721 0.345384,1.42076 0.330468,0.04384 1.016647,0.345073 1.526119,0.669915 0.509471,0.323717 1.06484,0.590109 1.232369,0.590109 0.16753,0 0.640281,0.329337 1.051071,0.731736 0.833054,0.814913 1.295481,0.918322 1.530709,0.343949 0.282275,-0.690147 0.168676,-1.046461 -0.592088,-1.859126 -0.604711,-0.647434 -1.588081,-2.367182 -1.588081,-2.779697 0,-0.254028 0.999435,-0.03821 1.559395,0.336081 0.349974,0.23492 0.916818,0.537281 1.259908,0.674413 0.364892,0.146121 0.743552,0.600225 0.916819,1.097041 0.269652,0.780068 0.376366,0.847509 1.331051,0.847509 h 1.037301 l 0.157202,1.82653 c 0.188183,2.197455 0.368334,2.642566 1.138278,2.823533 0.566844,0.133758 1.171554,0.993633 1.171554,1.665795 0,0.178719 -0.407348,0.617086 -0.905344,0.9734 -0.617332,0.441739 -0.883542,0.817161 -0.842234,1.184715 0.05163,0.459724 -0.05508,0.531661 -0.719456,0.483328 -0.428001,-0.03148 -1.171554,0.115774 -1.648896,0.32709 -0.565697,0.249531 -1.178439,0.329336 -1.753315,0.228175 -0.660937,-0.115774 -0.88469,-0.07081 -0.88469,0.18209 0,0.186588 -0.231787,0.535034 -0.514062,0.775574 -0.697654,0.592357 -0.409642,0.905957 0.662084,0.717123 0.665525,-0.116897 0.92485,-0.06519 1.039596,0.215812 0.244409,0.596853 -0.375218,1.451107 -0.950095,1.310605 -0.364892,-0.08991 -0.539305,0.0326 -0.652904,0.454103 -0.03901,0.149495 -0.111303,0.276508 -0.197362,0.384414 a 22.949153,22.480364 0 0 0 3.631703,1.050957 c -0.114745,-0.214688 -0.245555,-0.410267 -0.372923,-0.49794 -0.590941,-0.409142 -0.195068,-1.472463 0.618479,-1.663547 0.829612,-0.195579 0.698802,-0.722743 -0.2031,-0.823905 -0.790598,-0.08767 -1.631685,-0.872237 -1.367769,-1.273512 0.177856,-0.26864 0.934031,-0.2293 2.463591,0.12589 0.69077,0.15961 1.162375,-0.161859 2.763078,-1.877111 0.925999,-0.993632 1.63857,-1.407271 2.419989,-1.407271 0.298339,0 1.362032,-0.26864 2.36491,-0.596853 1.893304,-0.621583 2.633415,-0.599102 2.56342,0.07869 -0.144579,1.409519 0.781418,1.362311 2.290325,-0.11465 0.628808,-0.614837 1.203684,-1.059949 1.278268,-0.99026 0.288012,0.270889 -0.230638,1.589362 -0.836497,2.123271 -0.767649,0.676659 -0.805515,1.103785 -0.129662,1.442115 0.369481,0.186588 0.526683,0.563133 0.585203,1.409519 l 0.07803,1.155491 h 0.959275 c 0.336205,0 0.615038,0.04496 0.839939,0.129263 A 22.949153,22.480364 0 0 0 46.811887,24.744445 c -0.351122,-0.735108 -0.325878,-1.179094 0,-1.679283 a 22.949153,22.480364 0 0 0 -0.103275,-1.260024 c -0.208837,-0.01012 -0.422265,-0.01911 -0.66782,-0.009 -1.156637,0.04721 -2.146893,-0.399027 -2.146893,-0.96778 0,-0.12027 -0.41079,-0.615963 -0.912229,-1.100414 -0.569139,-0.548521 -0.860593,-1.034096 -0.775682,-1.285876 0.07803,-0.2293 -0.0895,-0.599103 -0.385545,-0.849758 -0.288012,-0.245036 -0.524388,-0.638444 -0.524388,-0.874487 0,-0.376547 -0.244409,-0.423755 -2.012641,-0.382166 l -2.012641,0.04834 0.03442,1.943428 c 0.05967,3.403527 0.577172,4.287005 2.173285,3.717127 0.730931,-0.261896 2.526702,-0.06406 3.037321,0.33271 0.18474,0.143875 0.452098,0.665419 0.593235,1.159988 0.142284,0.493443 0.667821,1.348821 1.170406,1.898466 1.016649,1.115026 1.095822,1.550021 0.512915,2.858377 -0.508324,1.142003 -1.056809,1.010493 -0.9478,-0.228175 l 0.08032,-0.921695 -0.860593,0.157363 c -0.476194,0.0888 -1.072872,0.432747 -1.340231,0.773325 -0.380956,0.484451 -0.558812,0.555264 -0.844528,0.333832 -0.199657,-0.155113 -0.36145,-0.482203 -0.36145,-0.724991 0,-0.242787 -0.245556,-0.512552 -0.543894,-0.60135 -0.299487,-0.0888 -0.709129,-0.530536 -0.909934,-0.983516 -0.322435,-0.723868 -0.314404,-0.945299 0.06081,-1.824281 0.379809,-0.891347 0.38325,-1.038593 0.03327,-1.36793 -0.321287,-0.301238 -0.487669,-0.311354 -0.909934,-0.06294 -0.424559,0.248407 -0.625363,0.230424 -1.130245,-0.101163 -0.336205,-0.221431 -0.92485,-0.404646 -1.305806,-0.404646 -0.774534,0 -1.008616,-0.368678 -1.008616,-1.589362 0,-1.12739 -0.68618,-1.536533 -2.320159,-1.389287 -1.133688,0.102285 -1.383834,0.02923 -2.298358,-0.660922 -0.565697,-0.426004 -1.458419,-1.451108 -1.986249,-2.280633 -0.52783,-0.829525 -1.095822,-1.696143 -1.262203,-1.925443 -0.238671,-0.331585 -0.180152,-0.649683 0.286864,-1.552269 l 0.589793,-1.135259 -1.246139,0.165231 c -2.216888,0.293369 -2.665544,0.574374 -1.712007,1.075685 0.371777,0.194455 0.387841,0.294493 0.100982,0.619334 -0.188183,0.211315 -0.276537,0.547397 -0.195068,0.746349 0.08147,0.197826 -0.0218,0.665419 -0.228344,1.037469 -0.20769,0.373173 -0.380956,0.895841 -0.38784,1.164482 -0.0218,0.837394 -1.485959,1.503936 -3.117643,1.415139 -2.471623,-0.133758 -2.672429,-0.09554 -3.550234,0.702511 -1.096969,0.998128 -1.238107,1.462349 -0.727488,2.388539 0.494555,0.899214 1.373506,1.257776 2.895036,1.183591 1.360885,-0.06631 1.514644,0.0517 1.203683,0.932935 -0.265063,0.748596 -1.153195,1.036344 -1.75561,0.568754 -0.463573,-0.36081 -2.061982,-0.08206 -2.551947,0.446234 -0.205394,0.220308 -0.510618,0.800302 -0.677,1.285877 -0.286863,0.838519 -0.370628,0.890223 -1.655781,1.011617 -1.282857,0.122518 -1.406782,0.08206 -2.329338,-0.750844 -1.02927,-0.928439 -1.203684,-1.638819 -0.707982,-2.86175 0.220312,-0.541778 0.383251,-0.630575 0.97075,-0.524917 1.163522,0.207944 1.622504,-0.187711 1.622504,-1.405023 0,-0.59011 -0.11704,-1.142002 -0.260472,-1.225179 -0.142285,-0.08319 -0.259326,-0.395655 -0.259326,-0.695769 0,-0.300112 -0.146874,-0.686775 -0.32473,-0.8565 -0.260473,-0.247285 -0.222607,-0.379919 0.192772,-0.667668 0.28457,-0.196703 0.752733,-0.329337 1.039597,-0.295617 0.285717,0.03372 1.076315,-0.08767 1.756758,-0.26864 0.98337,-0.259647 1.27253,-0.456351 1.405635,-0.963283 0.252441,-0.96216 0.868626,-1.73436 1.384982,-1.73436 0.815842,0 0.833053,-1.879359 0.04016,-4.6129714 C 18.622295,9.2824507 18.299859,9.026175 17.730721,8.8879211 17.269443,8.7755189 16.768003,8.4675378 16.616539,8.2024942 16.466222,7.9374509 16.189684,7.7216393 16.002649,7.7216393 c -0.187035,0 -0.553074,-0.2194083 -0.811253,-0.4873742 -0.260472,-0.2697644 -0.79863,-0.4873744 -1.208272,-0.4873744 -0.969602,0 -0.985666,-0.6539537 -0.02409,-0.9988025 1.0155,-0.3646315 2.596696,0.113301 2.9788,0.9000014 0.517503,1.0668056 1.092379,0.6216944 1.277119,-0.9900353 0.228344,-1.9934463 0.930589,-2.5663582 3.144034,-2.5663582 h 1.591525 L 22.25285,2.4089674 C 22.035981,2.1958536 21.855831,1.9354185 21.730758,1.6800416 Z m 8.25022,0.706895 c -0.04476,0.039565 -0.08835,0.071938 -0.131957,0.116336 -0.532421,0.532335 -0.782566,0.6082061 -1.605294,0.4852385 -1.436617,-0.214575 -1.251877,0.3520425 0.3385,1.0362325 0.859446,0.3699144 1.41252,0.7916459 1.600704,1.2183232 0.906491,2.0587518 1.530708,3.167146 1.843964,3.2795482 0.633396,0.2281756 1.01091,-0.2297494 1.152048,-1.4003021 0.161791,-1.342977 0.625363,-1.6276908 1.458418,-0.8934821 0.323583,0.2849387 0.775682,0.5180599 1.004026,0.5180599 0.712571,0 1.239253,0.2802178 1.239253,0.6586748 0,0.1994008 0.240966,0.6799187 0.535863,1.0687163 0.434887,0.5721251 0.729784,0.7092557 1.542184,0.7092557 0.99714,0 1.608735,0.1832152 2.857169,0.8587495 0.01951,0.01017 0.03901,0.01349 0.05852,0.0236 A 22.949153,22.480364 0 0 0 29.980978,2.3869366 Z M 0.95374232,23.943357 a 22.949153,22.480364 0 0 0 -0.004478,0.09666 22.949153,22.480364 0 0 0 0.44819688,4.318479 c 0.8314478,0.331586 1.0611689,0.200075 1.1474577,-0.557514 0.044636,-0.392281 0.2537029,-0.836269 0.466212,-0.990259 C 3.3394216,26.57356 3.2802128,26.452166 2.6076878,26.002559 2.1723423,25.711438 1.7433079,25.203382 1.6551832,24.874044 1.5698123,24.554823 1.281112,24.206378 0.95374232,23.943357 Z m 7.22336108,7.430884 c -0.2145747,-0.02135 -0.4730977,0.09104 -0.7599614,0.36081 -0.6068907,0.568754 -0.5152088,1.71188 0.1725771,2.163736 0.7881887,0.518172 1.0922656,0.367554 1.1920942,-0.587862 0.122778,-1.177972 -0.1342527,-1.888351 -0.6047099,-1.936684 z m 3.8944706,3.399031 c -0.234082,0.0079 -0.49226,0.171975 -0.750438,0.518173 -0.274241,0.36643 -0.348826,0.839642 -0.244407,1.557889 0.129662,0.883478 0.07344,1.072313 -0.398168,1.309482 -0.607006,0.303485 -0.7366686,1.207195 -0.239819,1.672538 0.493406,0.463096 0.963865,0.341702 1.133688,-0.292244 0.240966,-0.903711 1.591524,-1.009369 2.51408,-0.197828 0.393578,0.346199 0.714866,0.521545 0.714866,0.388911 0,-0.132634 -0.409643,-0.614837 -0.909934,-1.068942 -0.765354,-0.696891 -0.907639,-0.993632 -0.907639,-1.890598 0,-1.265644 -0.395873,-2.013116 -0.912229,-1.997381 z M 5.67576,37.675488 a 22.949153,22.480364 0 0 0 0.5311581,0.656426 C 6.0505197,38.094747 5.8719753,37.867695 5.67576,37.675488 Z m 7.73375,3.450735 c -0.115893,0.03934 -0.165234,0.182091 -0.165234,0.432748 0,0.254028 -0.165234,0.52042 -0.367187,0.592357 -0.268504,0.09666 -0.330468,0.401275 -0.227197,1.128515 0.01951,0.136005 0.02525,0.245035 0.03213,0.35856 a 22.949153,22.480364 0 0 0 0.954685,0.479957 c -0.01607,-0.38891 0.05623,-0.846386 0.263915,-1.419635 0.35227,-0.973399 0.364892,-1.217312 0.07803,-1.388163 -0.268504,-0.15961 -0.452098,-0.22368 -0.569138,-0.184339 z"
     id="path4"
     inkscape:connector-curvature="0"
     style="opacity:0.2;stroke-width:1.13567734" />
  <path
     d="m 23.898305,1.559322 c -12.712683,0 -22.94685751,10.026242 -22.94685751,22.480364 0,0.188521 -0.004585,0.374624 0,0.562009 C 1.2546057,12.410593 11.378395,2.6833402 23.898305,2.6833402 c 12.51991,0 22.643929,9.7268038 22.946857,21.9183548 0.0046,-0.187385 0,-0.373488 0,-0.562009 0,-12.454122 -10.234174,-22.480364 -22.946857,-22.480364 z"
     id="path6"
     inkscape:connector-curvature="0"
     style="opacity:0.2;fill:#ffffff;stroke-width:1.13567734" />
  <path
     d="M 46.823361,24.509526 A 22.949153,22.480364 0 0 1 23.898305,46.52005 22.949153,22.480364 0 0 1 0.97439661,24.693864 22.949153,22.480364 0 0 0 0.94915254,25.163703 22.949153,22.480364 0 0 0 23.898305,47.644068 22.949153,22.480364 0 0 0 46.847458,25.163703 a 22.949153,22.480364 0 0 0 -0.0241,-0.654177 z"
     id="path8"
     inkscape:connector-curvature="0"
     style="opacity:0.2;stroke-width:1.13567734" />
</svg>
