<?xml version="1.0" encoding="UTF-8" standalone="no"?>
<svg
   xmlns:dc="http://purl.org/dc/elements/1.1/"
   xmlns:cc="http://creativecommons.org/ns#"
   xmlns:rdf="http://www.w3.org/1999/02/22-rdf-syntax-ns#"
   xmlns:svg="http://www.w3.org/2000/svg"
   xmlns="http://www.w3.org/2000/svg"
   xmlns:sodipodi="http://sodipodi.sourceforge.net/DTD/sodipodi-0.dtd"
   xmlns:inkscape="http://www.inkscape.org/namespaces/inkscape"
   width="48"
   height="48"
   version="1.1"
   viewBox="0 0 48 48"
   id="svg28"
   sodipodi:docname="mullvad.svg"
   inkscape:version="0.92.2pre0 (973e216, 2017-07-25)">
  <metadata
     id="metadata34">
    <rdf:RDF>
      <cc:Work
         rdf:about="">
        <dc:format>image/svg+xml</dc:format>
        <dc:type
           rdf:resource="http://purl.org/dc/dcmitype/StillImage" />
      </cc:Work>
    </rdf:RDF>
  </metadata>
  <defs
     id="defs32" />
  <sodipodi:namedview
     pagecolor="#ffffff"
     bordercolor="#666666"
     borderopacity="1"
     objecttolerance="10"
     gridtolerance="10"
     guidetolerance="10"
     inkscape:pageopacity="0"
     inkscape:pageshadow="2"
     inkscape:window-width="640"
     inkscape:window-height="480"
     id="namedview30"
     showgrid="false"
     inkscape:zoom="4.9166667"
     inkscape:cx="24"
     inkscape:cy="24"
     inkscape:window-x="0"
     inkscape:window-y="0"
     inkscape:window-maximized="0"
     inkscape:current-layer="svg28" />
  <rect
     style="fill:#4e6275;stroke-width:1.12307525"
     width="44.762299"
     height="45.084293"
     x="-46.118282"
     y="-46.238838"
     rx="22.381149"
     ry="22.542147"
     transform="matrix(0,-1,-1,0,0,0)"
     id="rect2" />
  <path
     style="opacity:0.1;fill:#ffffff;stroke-width:1.12307525"
     d="m 23.696692,1.3559826 c -12.488349,0 -22.5421461,9.9819934 -22.5421461,22.3811504 0,0.188001 -0.00451,0.372646 0,0.559528 C 1.4525531,12.159364 11.397697,2.4750401 23.696692,2.4750401 c 12.298995,0 22.24459,9.6843239 22.542146,21.8216209 0.0045,-0.186882 0,-0.371527 0,-0.559528 0,-12.399157 -10.053797,-22.3811504 -22.542146,-22.3811504 z"
     id="path4"
     inkscape:connector-curvature="0" />
  <path
     style="opacity:0.2;stroke-width:1.12307525"
     d="m 27.433657,41.277005 c 0.814061,-0.209342 2.3609,-0.640208 3.023492,-0.957488 1.345784,-0.644418 3.385695,-2.280718 3.385695,-2.715811 -0.855522,-1.471058 -2.107163,-3.011709 -3.383508,-3.795058 0.947448,-0.606723 1.263055,-1.007292 1.069898,-2.094589 0,0 -0.09902,-0.392669 0.587146,-0.918424 2.817673,-2.807252 6.983118,-6.072235 8.486875,-9.404716 0,-0.859614 -0.492232,-1.0463 -1.789753,-1.010961 -0.630287,0.01717 -2.731223,-0.02246 -4.668803,0 -3.501251,0.04059 -4.803915,0 -4.803915,0 0,0 -3.659378,-0.06778 -4.774954,0.807953 -2.821482,2.214889 -4.090467,2.078712 -6.452528,2.860115 -2.200962,0.728109 -2.306361,-0.310896 -2.306361,4.885151 -0.477587,2.941602 -0.101045,5.554875 -2.120391,8.168724 -0.245638,0.321291 -0.186784,0.470132 0.460208,1.163845 1.279764,1.372182 3.976738,2.704638 6.438026,3.180743 1.666113,0.322289 5.284694,0.232741 6.848829,-0.169484 z"
     id="path8"
     inkscape:connector-curvature="0" />
  <path
     style="fill:#d2943b;stroke-width:1.12307525"
     d="m 27.433657,40.15795 c 0.814061,-0.209342 2.3609,-0.640209 3.023492,-0.957488 1.345784,-0.644419 3.385695,-2.280718 3.385695,-2.715811 -0.855522,-1.471058 -2.107163,-3.011709 -3.383508,-3.795058 0.947448,-0.606723 1.263055,-1.007292 1.069898,-2.09459 0,0 -0.09902,-0.392668 0.587146,-0.918423 2.817673,-2.807252 6.983118,-6.072235 8.486875,-9.404716 0,-0.859614 -0.492232,-1.0463 -1.789753,-1.010961 -0.630287,0.01717 -2.731223,-0.02246 -4.668803,0 -3.501251,0.04059 -4.803915,0 -4.803915,0 0,0 -3.659378,-0.06778 -4.774954,0.807952 -2.821482,2.214889 -4.090467,2.078712 -6.452528,2.860116 -2.200962,0.728109 -2.306361,-0.310896 -2.306361,4.885151 -0.477587,2.941602 -0.101045,5.554875 -2.120391,8.168724 -0.245638,0.321291 -0.186784,0.470131 0.460208,1.163845 1.279764,1.372182 3.976738,2.704638 6.438026,3.180743 1.666113,0.322289 5.284694,0.232741 6.848829,-0.169484 z"
     id="path10"
     inkscape:connector-curvature="0" />
  <path
     style="fill:#ffffff;stroke-width:1.12307525"
     d="m 26.208469,31.285985 c -0.962121,-0.320183 -2.200491,-1.189936 -3.158446,-2.218288 -0.536484,-0.57591 -0.589859,-0.712728 -0.326681,-0.837378 0.19595,-0.0928 0.791182,0.199497 1.578455,0.775137 1.41994,1.038242 2.763437,1.660216 3.66028,1.694536 0.331445,0.01268 0.813496,0.100033 1.071225,0.194124 0.443388,0.161861 0.428263,0.185442 -0.28116,0.438345 -0.923879,0.329357 -1.442836,0.319874 -2.543673,-0.04647 z"
     id="path12"
     inkscape:connector-curvature="0" />
  <path
     style="opacity:0.2;stroke-width:1.12307525"
     d="m 20.878924,13.664715 c -4.046148,0 -7.326198,3.256624 -7.326198,7.273874 0,1.728465 0.610427,3.313438 1.624619,4.561471 0.223483,0.568602 0.398144,1.039386 0.391846,1.164957 -0.02148,0.428388 0.300459,0.777045 3.035706,-0.194525 2.884896,-1.024724 4.153736,-1.762537 7.18751,-4.181166 1.134973,-0.904839 2.52201,-1.759655 3.790779,-2.336469 1.100193,-0.500175 2.003257,-0.585531 2.003257,-0.692854 0,-1.119058 -1.450516,-1.015336 -2.254215,-1.119058 h -1.710473 c -1.10635,-2.623604 -3.698831,-4.47623 -6.742831,-4.47623 z"
     id="path14"
     inkscape:connector-curvature="0" />
  <path
     style="fill:#ffd548;stroke-width:1.12307525"
     d="m 20.878924,12.546558 c -4.046148,0 -7.326198,3.256624 -7.326198,7.273873 0,1.728465 0.610427,3.313438 1.624619,4.561471 0.223483,0.568602 0.398144,1.039386 0.391846,1.164957 -0.02149,0.428389 0.300459,0.777046 3.035706,-0.194525 2.884896,-1.024724 4.153736,-1.762537 7.18751,-4.181166 1.134973,-0.904839 2.52201,-1.759655 3.790779,-2.336469 1.100193,-0.500175 2.003257,-0.585531 2.003257,-0.692854 0,-1.119057 -1.450516,-1.015335 -2.254215,-1.119057 h -1.710473 c -1.10635,-2.623605 -3.698831,-4.47623 -6.742831,-4.47623 z"
     id="path16"
     inkscape:connector-curvature="0" />
  <path
     style="opacity:0.2;stroke-width:1.12307525"
     d="m 26.208469,32.405042 c -0.962121,-0.320182 -2.200491,-1.189935 -3.158446,-2.218288 -0.536484,-0.575909 -0.589859,-0.712727 -0.326681,-0.837378 0.19595,-0.0928 0.791182,0.199498 1.578455,0.775138 1.41994,1.038241 2.763437,1.660215 3.66028,1.694536 0.331445,0.01268 0.813496,0.100032 1.071225,0.194124 0.443388,0.16186 0.428263,0.185441 -0.28116,0.438345 -0.923879,0.329356 -1.442836,0.319873 -2.543673,-0.04648 z"
     id="path18"
     inkscape:connector-curvature="0" />
  <ellipse
     style="opacity:0.2;stroke-width:1.12307525"
     cx="40.603302"
     cy="20.379961"
     id="circle20"
     rx="2.2542145"
     ry="2.2381151" />
  <ellipse
     style="fill:#efc286;stroke-width:1.12307525"
     cx="40.603302"
     cy="19.260902"
     id="circle22"
     rx="2.2542145"
     ry="2.2381151" />
</svg>
