<?xml version="1.0" encoding="UTF-8" standalone="no"?>
<svg
   xmlns:dc="http://purl.org/dc/elements/1.1/"
   xmlns:cc="http://creativecommons.org/ns#"
   xmlns:rdf="http://www.w3.org/1999/02/22-rdf-syntax-ns#"
   xmlns:svg="http://www.w3.org/2000/svg"
   xmlns="http://www.w3.org/2000/svg"
   xmlns:sodipodi="http://sodipodi.sourceforge.net/DTD/sodipodi-0.dtd"
   xmlns:inkscape="http://www.inkscape.org/namespaces/inkscape"
   height="48"
   width="48"
   version="1"
   id="svg16"
   sodipodi:docname="museeks.svg"
   inkscape:version="0.92.2pre0 (973e216, 2017-07-25)">
  <metadata
     id="metadata22">
    <rdf:RDF>
      <cc:Work
         rdf:about="">
        <dc:format>image/svg+xml</dc:format>
        <dc:type
           rdf:resource="http://purl.org/dc/dcmitype/StillImage" />
      </cc:Work>
    </rdf:RDF>
  </metadata>
  <defs
     id="defs20" />
  <sodipodi:namedview
     pagecolor="#ffffff"
     bordercolor="#666666"
     borderopacity="1"
     objecttolerance="10"
     gridtolerance="10"
     guidetolerance="10"
     inkscape:pageopacity="0"
     inkscape:pageshadow="2"
     inkscape:window-width="640"
     inkscape:window-height="480"
     id="namedview18"
     showgrid="false"
     inkscape:zoom="4.9166667"
     inkscape:cx="24"
     inkscape:cy="24"
     inkscape:window-x="0"
     inkscape:window-y="28"
     inkscape:window-maximized="0"
     inkscape:current-layer="svg16" />
  <rect
     transform="matrix(0,-1,-1,0,0,0)"
     rx="22.579578"
     ry="22.946856"
     height="45.893711"
     width="45.159157"
     y="-46.847458"
     x="-46.311699"
     id="rect2"
     style="fill:#469ed7;stroke-width:1.13818073" />
  <path
     d="m 30.78305,13.57131 -13.769491,15.805705 6.884746,5.644895 4.589831,-5.644895 v 6.773874 h 6.884745 V 13.57131 Z"
     id="path4"
     inkscape:connector-curvature="0"
     style="opacity:0.2;stroke-width:1.13818073" />
  <path
     d="m 23.898305,1.1525424 c -12.712683,0 -22.94685751,10.0704916 -22.94685751,22.5795786 0,0.189352 -0.004585,0.376277 0,0.564489 C 1.2546057,12.051704 11.378395,2.2815213 23.898305,2.2815213 c 12.51991,0 22.643929,9.7697327 22.946857,22.0150887 0.0046,-0.188212 0,-0.375137 0,-0.564489 0,-12.509087 -10.234174,-22.5795786 -22.946857,-22.5795786 z"
     id="path6"
     inkscape:connector-curvature="0"
     style="opacity:0.2;fill:#ffffff;stroke-width:1.13818073" />
  <path
     d="m 0.96257782,24.29661 c -0.004705,0.188539 -0.0134253,0.374822 -0.0134253,0.564489 0,12.509087 10.23532248,22.579579 22.94915248,22.579579 12.713831,0 22.949153,-10.070492 22.949153,-22.579579 0,-0.189667 -0.0092,-0.37595 -0.01378,-0.564489 C 46.530754,36.541516 36.419357,46.311699 23.8983,46.311699 11.377242,46.311699 1.2658455,36.541516 0.96291664,24.29661 Z"
     id="path8"
     inkscape:connector-curvature="0"
     style="opacity:0.2;stroke-width:1.13818073" />
  <path
     d="m 30.78305,12.442331 -13.769491,15.805706 6.884746,5.644894 4.589831,-5.644894 v 6.773873 h 6.884745 V 12.442331 Z"
     id="path10"
     inkscape:connector-curvature="0"
     style="fill:#abfaff;stroke-width:1.13818073" />
  <path
     d="m 26.193221,24.861099 -6.884746,5.644895 -6.884747,5.644895 V 13.57131 l 6.884747,5.644895 z"
     id="path12"
     inkscape:connector-curvature="0"
     style="opacity:0.2;stroke-width:1.13818073" />
  <path
     d="m 26.193449,23.732704 -6.884808,5.64498 -6.88481,5.64498 V 12.442745 l 6.88481,5.64498 z"
     id="path14"
     inkscape:connector-curvature="0"
     style="fill:#ffffff;stroke-width:0.97598249" />
</svg>
