<?xml version="1.0" encoding="UTF-8" standalone="no"?>
<svg
   xmlns:dc="http://purl.org/dc/elements/1.1/"
   xmlns:cc="http://creativecommons.org/ns#"
   xmlns:rdf="http://www.w3.org/1999/02/22-rdf-syntax-ns#"
   xmlns:svg="http://www.w3.org/2000/svg"
   xmlns="http://www.w3.org/2000/svg"
   xmlns:sodipodi="http://sodipodi.sourceforge.net/DTD/sodipodi-0.dtd"
   xmlns:inkscape="http://www.inkscape.org/namespaces/inkscape"
   viewBox="0 0 48 48"
   version="1.1"
   id="svg57"
   sodipodi:docname="netbeans.svg"
   inkscape:version="0.92.2pre0 (973e216, 2017-07-25)">
  <metadata
     id="metadata61">
    <rdf:RDF>
      <cc:Work
         rdf:about="">
        <dc:format>image/svg+xml</dc:format>
        <dc:type
           rdf:resource="http://purl.org/dc/dcmitype/StillImage" />
      </cc:Work>
    </rdf:RDF>
  </metadata>
  <sodipodi:namedview
     pagecolor="#ffffff"
     bordercolor="#666666"
     borderopacity="1"
     objecttolerance="10"
     gridtolerance="10"
     guidetolerance="10"
     inkscape:pageopacity="0"
     inkscape:pageshadow="2"
     inkscape:window-width="1360"
     inkscape:window-height="691"
     id="namedview59"
     showgrid="false"
     inkscape:zoom="6.9532167"
     inkscape:cx="37.192476"
     inkscape:cy="20.786227"
     inkscape:window-x="0"
     inkscape:window-y="0"
     inkscape:window-maximized="1"
     inkscape:current-layer="svg57" />
  <defs
     id="defs17">
    <linearGradient
       id="linearGradient3764"
       x1="1"
       x2="47"
       gradientUnits="userSpaceOnUse"
       gradientTransform="matrix(0,-1,1,0,-1.5e-6,47.999998)">
      <stop
         stop-color="#3d3d3d"
         stop-opacity="1"
         id="stop2" />
      <stop
         offset="1"
         stop-color="#474747"
         stop-opacity="1"
         id="stop4" />
    </linearGradient>
    <clipPath
       id="clipPath-827788284">
      <g
         transform="translate(0,-1004.3622)"
         id="g9">
        <path
           d="m -24 13 c 0 1.105 -0.672 2 -1.5 2 -0.828 0 -1.5 -0.895 -1.5 -2 0 -1.105 0.672 -2 1.5 -2 0.828 0 1.5 0.895 1.5 2 z"
           transform="matrix(15.333333,0,0,11.5,414.99999,878.8622)"
           fill="#1890d0"
           id="path7" />
      </g>
    </clipPath>
    <clipPath
       id="clipPath-834711963">
      <g
         transform="translate(0,-1004.3622)"
         id="g14">
        <path
           d="m -24 13 c 0 1.105 -0.672 2 -1.5 2 -0.828 0 -1.5 -0.895 -1.5 -2 0 -1.105 0.672 -2 1.5 -2 0.828 0 1.5 0.895 1.5 2 z"
           transform="matrix(15.333333,0,0,11.5,414.99999,878.8622)"
           fill="#1890d0"
           id="path12" />
      </g>
    </clipPath>
  </defs>
  <g
     id="g31" />
  <path
     inkscape:connector-curvature="0"
     style="fill:#52bdff;fill-opacity:1"
     id="path27"
     d="M 24,1 C 36.703,1 47,11.297 47,24 47,36.703 36.703,47 24,47 11.297,47 1,36.703 1,24 1,11.297 11.297,1 24,1 Z" />
  <g
     id="g51"
     style="fill:#4d4d4d;fill-opacity:1">
    <g
       clip-path="url(#clipPath-834711963)"
       id="g49"
       style="fill:#4d4d4d;fill-opacity:1">
      <!-- color: #474747 -->
      <g
         id="g47"
         style="fill:#4d4d4d;fill-opacity:1">
        <path
           inkscape:connector-curvature="0"
           d="M 6.469,0 C 3.996,1.805 1.809,4 0,6.469 v 34.969 c 4.926,3.09 10.637,5.086 16.344,5 6.04,-0.09 12.02,-2.512 16.844,-8.531 4.93,-6.156 1.441,-14.77 -2.875,-17.25 -3.488,-1.617 -5.859,1.629 -6.313,3.344 1.254,-0.574 4.605,-1.477 5.344,0.969 0.773,5.688 -3.01,9.953 -8.313,10.531 C 12.074,36.481 5.152,27.591 4.437,19.22 3.835,12.21 6.828,5.236 11.625,0.001 m 20.04,1.563 c -6.04,0.09 -12.02,2.512 -16.844,8.531 -4.93,6.156 -1.441,14.77 2.875,17.25 3.488,1.617 5.859,-1.629 6.313,-3.344 -1.254,0.574 -4.574,1.258 -5.313,-1.188 -0.777,-5.684 2.977,-9.734 8.281,-10.313 8.953,-0.98 15.875,7.91 16.594,16.281 0.598,7.01 -2.395,13.984 -7.188,19.219 h 5.152 c 2.473,-1.805 4.664,-4 6.473,-6.469 V 6.562 c -4.93,-3.09 -10.641,-5.086 -16.348,-5 m 0.004,0"
           id="path45"
           style="fill:#4d4d4d;fill-opacity:1;fill-rule:evenodd;stroke:none" />
      </g>
    </g>
  </g>
  <path
     style="fill:#f2f2f2;fill-rule:evenodd;stroke-width:0"
     inkscape:connector-curvature="0"
     d="M 8.164261,15.449786 24,6.7889413 39.83574,15.449786 24,24.001 Z"
     id="path890" />
  <path
     style="fill:#b3b3b3;fill-rule:evenodd;stroke-width:0"
     inkscape:connector-curvature="0"
     d="M 24,24.001 39.83574,15.449786 V 32.552214 L 24,41.213059 Z"
     id="path892" />
  <path
     style="fill:#cccccc;fill-rule:evenodd;stroke-width:0"
     inkscape:connector-curvature="0"
     d="M 8.164261,15.449786 24,24.001 V 41.213059 L 8.164261,32.552214 Z"
     id="path894" />
</svg>
