<?xml version="1.0" encoding="UTF-8" standalone="no"?>
<svg
   xmlns:dc="http://purl.org/dc/elements/1.1/"
   xmlns:cc="http://creativecommons.org/ns#"
   xmlns:rdf="http://www.w3.org/1999/02/22-rdf-syntax-ns#"
   xmlns:svg="http://www.w3.org/2000/svg"
   xmlns="http://www.w3.org/2000/svg"
   xmlns:sodipodi="http://sodipodi.sourceforge.net/DTD/sodipodi-0.dtd"
   xmlns:inkscape="http://www.inkscape.org/namespaces/inkscape"
   viewBox="0 0 48 48"
   version="1.1"
   id="svg129"
   sodipodi:docname="drive-harddisk.svg"
   inkscape:version="0.92.2pre0 (973e216, 2017-07-25)">
  <metadata
     id="metadata133">
    <rdf:RDF>
      <cc:Work
         rdf:about="">
        <dc:format>image/svg+xml</dc:format>
        <dc:type
           rdf:resource="http://purl.org/dc/dcmitype/StillImage" />
        <dc:title />
      </cc:Work>
    </rdf:RDF>
  </metadata>
  <sodipodi:namedview
     pagecolor="#ffffff"
     bordercolor="#666666"
     borderopacity="1"
     objecttolerance="10"
     gridtolerance="10"
     guidetolerance="10"
     inkscape:pageopacity="0"
     inkscape:pageshadow="2"
     inkscape:window-width="1360"
     inkscape:window-height="658"
     id="namedview131"
     showgrid="false"
     inkscape:zoom="6.9532165"
     inkscape:cx="30.964345"
     inkscape:cy="29.019644"
     inkscape:window-x="0"
     inkscape:window-y="28"
     inkscape:window-maximized="1"
     inkscape:current-layer="svg129"
     showguides="true">
    <inkscape:grid
       type="xygrid"
       id="grid31" />
  </sodipodi:namedview>
  <defs
     id="defs17">
    <linearGradient
       id="linearGradient3764"
       x1="1"
       x2="47"
       gradientUnits="userSpaceOnUse"
       gradientTransform="matrix(0,-1,1,0,-1.5e-6,47.999998)">
      <stop
         stop-color="#5e6670"
         stop-opacity="1"
         id="stop2" />
      <stop
         offset="1"
         stop-color="#67707b"
         stop-opacity="1"
         id="stop4" />
    </linearGradient>
    <clipPath
       id="clipPath-561578208">
      <g
         transform="translate(0,-1004.3622)"
         id="g9">
        <path
           d="m -24 13 c 0 1.105 -0.672 2 -1.5 2 -0.828 0 -1.5 -0.895 -1.5 -2 0 -1.105 0.672 -2 1.5 -2 0.828 0 1.5 0.895 1.5 2 z"
           transform="matrix(15.333333,0,0,11.5,414.99999,878.8622)"
           fill="#1890d0"
           id="path7" />
      </g>
    </clipPath>
    <clipPath
       id="clipPath-572739784">
      <g
         transform="translate(0,-1004.3622)"
         id="g14">
        <path
           d="m -24 13 c 0 1.105 -0.672 2 -1.5 2 -0.828 0 -1.5 -0.895 -1.5 -2 0 -1.105 0.672 -2 1.5 -2 0.828 0 1.5 0.895 1.5 2 z"
           transform="matrix(15.333333,0,0,11.5,414.99999,878.8622)"
           fill="#1890d0"
           id="path12" />
      </g>
    </clipPath>
    <linearGradient
       x1="18.330301"
       y1="252.17261"
       x2="18.330301"
       y2="255.83865"
       id="linearGradient-3"
       gradientTransform="matrix(0.31423376,0,0,0.17763144,7.7990471,-7.9630189)"
       gradientUnits="userSpaceOnUse">
      <stop
         stop-color="#FFFFFF"
         offset="0%"
         id="stop18" />
      <stop
         stop-color="#FFFFFF"
         stop-opacity="0"
         offset="100%"
         id="stop20" />
    </linearGradient>
  </defs>
  <g
     id="g25">
    <path
       d="m 36.31 5 c 5.859 4.062 9.688 10.831 9.688 18.5 c 0 12.426 -10.07 22.5 -22.5 22.5 c -7.669 0 -14.438 -3.828 -18.5 -9.688 c 1.037 1.822 2.306 3.499 3.781 4.969 c 4.085 3.712 9.514 5.969 15.469 5.969 c 12.703 0 23 -10.298 23 -23 c 0 -5.954 -2.256 -11.384 -5.969 -15.469 c -1.469 -1.475 -3.147 -2.744 -4.969 -3.781 z m 4.969 3.781 c 3.854 4.113 6.219 9.637 6.219 15.719 c 0 12.703 -10.297 23 -23 23 c -6.081 0 -11.606 -2.364 -15.719 -6.219 c 4.16 4.144 9.883 6.719 16.219 6.719 c 12.703 0 23 -10.298 23 -23 c 0 -6.335 -2.575 -12.06 -6.719 -16.219 z"
       opacity="0.05"
       id="path19" />
    <path
       d="m 41.28 8.781 c 3.712 4.085 5.969 9.514 5.969 15.469 c 0 12.703 -10.297 23 -23 23 c -5.954 0 -11.384 -2.256 -15.469 -5.969 c 4.113 3.854 9.637 6.219 15.719 6.219 c 12.703 0 23 -10.298 23 -23 c 0 -6.081 -2.364 -11.606 -6.219 -15.719 z"
       opacity="0.1"
       id="path21" />
    <path
       d="m 31.25 2.375 c 8.615 3.154 14.75 11.417 14.75 21.13 c 0 12.426 -10.07 22.5 -22.5 22.5 c -9.708 0 -17.971 -6.135 -21.12 -14.75 a 23 23 0 0 0 44.875 -7 a 23 23 0 0 0 -16 -21.875 z"
       opacity="0.2"
       id="path23" />
  </g>
  <g
     id="g29">
    <path
       d="m 24 1 c 12.703 0 23 10.297 23 23 c 0 12.703 -10.297 23 -23 23 -12.703 0 -23 -10.297 -23 -23 0 -12.703 10.297 -23 23 -23 z"
       id="path27"
       fill-opacity="1"
       fill="url(#linearGradient3764)" />
  </g>
  <g
     id="g31" />
  <path
     id="rect8476"
     style="fill:#ececeb;stroke-width:1.18575692;enable-background:new;fill-opacity:1"
     d="m 24.069297,11.756453 c 6.56865,0 11.893696,5.292746 11.893696,11.821553 0,6.528808 -5.325046,11.821553 -11.893696,11.821553 H 12.175605 V 23.578006 c 0,-6.528807 5.325045,-11.821553 11.893692,-11.821553 z m 0,5.910776 c -3.284322,0 -5.946845,2.646373 -5.946845,5.910777 0,3.264404 2.662523,5.910776 5.946845,5.910776 3.284325,0 5.946847,-2.646372 5.946847,-5.910776 0,-3.264404 -2.662522,-5.910777 -5.946847,-5.910777 z"
     inkscape:connector-curvature="0" />
  <path
     id="path844"
     d="m 19.886443,37.823205 c -0.389722,-0.243166 -1.022693,-0.243166 -1.413916,0 -0.194861,0.122519 -0.293042,0.281548 -0.293042,0.44245 v 1.870493 c 0,0.160901 0.09818,0.319989 0.293042,0.442449 0.391223,0.243166 1.024194,0.243166 1.413916,0 0.196362,-0.122518 0.293042,-0.281548 0.293042,-0.441572 v 0 -1.872306 0 c 0,-0.159907 -0.09668,-0.318995 -0.293042,-0.441514 z"
     inkscape:connector-curvature="0"
     style="fill:#00ff00;fill-opacity:1;fill-rule:nonzero;stroke:none;stroke-width:0.99999994" />
  <path
     id="path846"
     d="m 22.886443,37.823205 c -0.389722,-0.243166 -1.022693,-0.243166 -1.413916,0 -0.194861,0.122519 -0.293042,0.281548 -0.293042,0.44245 v 1.870493 c 0,0.160901 0.09818,0.319989 0.293042,0.442449 0.391223,0.243166 1.024194,0.243166 1.413916,0 0.196362,-0.122518 0.293042,-0.281548 0.293042,-0.441572 v 0 -1.872306 0 c 0,-0.159907 -0.09668,-0.318995 -0.293042,-0.441514 z"
     inkscape:connector-curvature="0"
     style="fill:#00ff00;fill-opacity:1;fill-rule:nonzero;stroke:none;stroke-width:0.99999994" />
  <path
     id="path848"
     d="m 26.179485,38.265643 c 0,-0.160899 -0.09668,-0.319983 -0.293042,-0.442441 -0.389722,-0.243162 -1.024194,-0.243162 -1.413916,0 -0.194861,0.122517 -0.293042,0.281542 -0.293042,0.442441 v 1.870517 c 0,0.160898 0.09818,0.319983 0.293042,0.442441 0.389722,0.243161 1.024194,0.243161 1.413916,0 0.196362,-0.122517 0.293042,-0.281543 0.293042,-0.442441 z"
     inkscape:connector-curvature="0"
     style="fill:#00ff00;fill-opacity:1;fill-rule:nonzero;stroke:none;stroke-width:0.99999994" />
  <g
     style="fill:none;fill-rule:nonzero;stroke:none;stroke-width:1.19713771"
     transform="matrix(0.83220339,0,0,0.8384599,19.933704,19.48602)"
     id="Group">
    <g
       id="Group-2"
       style="stroke-width:1.19713771">
      <path
         id="path852"
         d="M 5,8.00025 C 2.7942445,8.00025 1,6.2057812 1,3.99975 1,1.7944687 2.7942445,0 5,0 7.2057555,0 9,1.7944687 9,3.99975 9,6.2057812 7.2057555,8.00025 5,8.00025 Z"
         inkscape:connector-curvature="0"
         style="fill:#4a4a4e;stroke-width:1.19713771" />
      <path
         id="path854"
         d="M 5,0 C 2.2385051,0 0,2.2383372 0,4.999625 0,7.7609128 2.2385051,10 5,10 7.7614949,10 10,7.7609128 10,4.999625 10,2.2383372 7.7614949,0 5,0 Z M 5,7.9997 C 3.3459909,7.9997 1.9997,6.6541663 1.9997,4.999625 1.9997,3.3457399 3.3459909,1.99955 5,1.99955 c 1.6540091,0 3.0003,1.3461899 3.0003,3.000075 C 8.0003,6.6541663 6.6540091,7.9997 5,7.9997 Z"
         inkscape:connector-curvature="0"
         style="fill:#000200;stroke-width:1.19713771" />
      <path
         id="path856"
         d="M 6,4.999625 C 6,5.5518373 5.5520052,6 5,6 4.4479948,6 4,5.5518373 4,4.999625 4,4.4474128 4.4479948,4 5,4 5.5520052,4 6,4.4474128 6,4.999625 Z"
         inkscape:connector-curvature="0"
         style="fill:#f1f5f9;stroke-width:1.19713771" />
    </g>
  </g>
</svg>
