<?xml version="1.0" encoding="UTF-8" standalone="no"?>
<svg
   xmlns:dc="http://purl.org/dc/elements/1.1/"
   xmlns:cc="http://creativecommons.org/ns#"
   xmlns:rdf="http://www.w3.org/1999/02/22-rdf-syntax-ns#"
   xmlns:svg="http://www.w3.org/2000/svg"
   xmlns="http://www.w3.org/2000/svg"
   xmlns:xlink="http://www.w3.org/1999/xlink"
   xmlns:sodipodi="http://sodipodi.sourceforge.net/DTD/sodipodi-0.dtd"
   xmlns:inkscape="http://www.inkscape.org/namespaces/inkscape"
   viewBox="0 0 48 48"
   version="1.1"
   id="svg57"
   sodipodi:docname="numix.svg"
   inkscape:version="0.92.2pre0 (973e216, 2017-07-25)">
  <metadata
     id="metadata61">
    <rdf:RDF>
      <cc:Work
         rdf:about="">
        <dc:format>image/svg+xml</dc:format>
        <dc:type
           rdf:resource="http://purl.org/dc/dcmitype/StillImage" />
      </cc:Work>
    </rdf:RDF>
  </metadata>
  <sodipodi:namedview
     pagecolor="#ffffff"
     bordercolor="#666666"
     borderopacity="1"
     objecttolerance="10"
     gridtolerance="10"
     guidetolerance="10"
     inkscape:pageopacity="0"
     inkscape:pageshadow="2"
     inkscape:window-width="1360"
     inkscape:window-height="658"
     id="namedview59"
     showgrid="false"
     inkscape:zoom="4.9166667"
     inkscape:cx="24"
     inkscape:cy="24"
     inkscape:window-x="0"
     inkscape:window-y="28"
     inkscape:window-maximized="1"
     inkscape:current-layer="svg57" />
  <defs
     id="defs17">
    <linearGradient
       id="linearGradient3764"
       x1="1"
       x2="47"
       gradientUnits="userSpaceOnUse"
       gradientTransform="rotate(-90,23.999998,24)"
       xlink:href="#linearGradient-1">
      <stop
         stop-color="#c83e2c"
         stop-opacity="1"
         id="stop2" />
      <stop
         offset="1"
         stop-color="#d34836"
         stop-opacity="1"
         id="stop4" />
    </linearGradient>
    <clipPath
       id="clipPath-506823739">
      <g
         transform="translate(0,-1004.3622)"
         id="g9">
        <path
           d="m -24 13 c 0 1.105 -0.672 2 -1.5 2 -0.828 0 -1.5 -0.895 -1.5 -2 0 -1.105 0.672 -2 1.5 -2 0.828 0 1.5 0.895 1.5 2 z"
           transform="matrix(15.333333,0,0,11.5,414.99999,878.8622)"
           fill="#1890d0"
           id="path7" />
      </g>
    </clipPath>
    <clipPath
       id="clipPath-513803881">
      <g
         transform="translate(0,-1004.3622)"
         id="g14">
        <path
           d="m -24 13 c 0 1.105 -0.672 2 -1.5 2 -0.828 0 -1.5 -0.895 -1.5 -2 0 -1.105 0.672 -2 1.5 -2 0.828 0 1.5 0.895 1.5 2 z"
           transform="matrix(15.333333,0,0,11.5,414.99999,878.8622)"
           fill="#1890d0"
           id="path12" />
      </g>
    </clipPath>
    <linearGradient
       id="linearGradient-1"
       y2="41.272143"
       x2="2.7419522"
       y1="1.4112441"
       x1="39.975527"
       gradientUnits="userSpaceOnUse"
       gradientTransform="translate(-61.864407,-4.8050853)">
      <stop
         id="stop875"
         offset="0%"
         stop-color="#AD44D9" />
      <stop
         id="stop877"
         offset="100%"
         stop-color="#4BAFF8" />
    </linearGradient>
    <path
       id="path-2"
       d="M13.4170404,34.3318386 L4.73542601,22.0986547 L22.0986547,22.0986547 L13.4170404,34.3318386 Z M30.7802691,34.3318386 L22.0986547,22.0986547 L39.4618834,22.0986547 L30.7802691,34.3318386 Z M22.0986547,22.0986547 L13.4170404,9.86547085 L30.7802691,9.86547085 L22.0986547,22.0986547 Z" />
    <filter
       id="filter-3"
       filterUnits="objectBoundingBox"
       height="112.3%"
       width="108.6%"
       y="-6.1%"
       x="-4.3%">
      <feOffset
         id="feOffset881"
         result="shadowOffsetOuter1"
         in="SourceAlpha"
         dy="0"
         dx="0" />
      <feGaussianBlur
         id="feGaussianBlur883"
         result="shadowBlurOuter1"
         in="shadowOffsetOuter1"
         stdDeviation="0.5" />
      <feColorMatrix
         id="feColorMatrix885"
         in="shadowBlurOuter1"
         type="matrix"
         values="0 0 0 0 0.22745098   0 0 0 0 0.0745098039   0 0 0 0 0.352941176  0 0 0 0.6 0" />
    </filter>
  </defs>
  <g
     id="g25">
    <path
       d="m 36.31 5 c 5.859 4.062 9.688 10.831 9.688 18.5 c 0 12.426 -10.07 22.5 -22.5 22.5 c -7.669 0 -14.438 -3.828 -18.5 -9.688 c 1.037 1.822 2.306 3.499 3.781 4.969 c 4.085 3.712 9.514 5.969 15.469 5.969 c 12.703 0 23 -10.298 23 -23 c 0 -5.954 -2.256 -11.384 -5.969 -15.469 c -1.469 -1.475 -3.147 -2.744 -4.969 -3.781 z m 4.969 3.781 c 3.854 4.113 6.219 9.637 6.219 15.719 c 0 12.703 -10.297 23 -23 23 c -6.081 0 -11.606 -2.364 -15.719 -6.219 c 4.16 4.144 9.883 6.719 16.219 6.719 c 12.703 0 23 -10.298 23 -23 c 0 -6.335 -2.575 -12.06 -6.719 -16.219 z"
       opacity="0.05"
       id="path19" />
    <path
       d="m 41.28 8.781 c 3.712 4.085 5.969 9.514 5.969 15.469 c 0 12.703 -10.297 23 -23 23 c -5.954 0 -11.384 -2.256 -15.469 -5.969 c 4.113 3.854 9.637 6.219 15.719 6.219 c 12.703 0 23 -10.298 23 -23 c 0 -6.081 -2.364 -11.606 -6.219 -15.719 z"
       opacity="0.1"
       id="path21" />
    <path
       d="m 31.25 2.375 c 8.615 3.154 14.75 11.417 14.75 21.13 c 0 12.426 -10.07 22.5 -22.5 22.5 c -9.708 0 -17.971 -6.135 -21.12 -14.75 a 23 23 0 0 0 44.875 -7 a 23 23 0 0 0 -16 -21.875 z"
       opacity="0.2"
       id="path23" />
  </g>
  <path
     inkscape:connector-curvature="0"
     style="fill:#7544d9;fill-opacity:0.95686275"
     id="path27"
     d="M 24,1 C 36.703,1 47,11.297 47,24 47,36.703 36.703,47 24,47 11.297,47 1,36.703 1,24 1,11.297 11.297,1 24,1 Z" />
  <g
     id="g31" />
  <g
     style="fill:none;fill-rule:evenodd;stroke:none;stroke-width:1"
     id="shadow"
     transform="translate(-61.864407,-4.8050853)" />
  <g
     style="fill:none;fill-rule:evenodd;stroke:none;stroke-width:1"
     id="Combined-Shape"
     transform="translate(2.2033896,2.1101689)">
    <use
       height="100%"
       width="100%"
       y="0"
       x="0"
       style="fill:#000000;fill-opacity:1;filter:url(#filter-3)"
       xlink:href="#path-2"
       id="use893" />
    <use
       height="100%"
       width="100%"
       y="0"
       x="0"
       style="fill:#ffffff;fill-rule:evenodd"
       xlink:href="#path-2"
       id="use895" />
  </g>
  <g
     style="fill:none;fill-rule:evenodd;stroke:none;stroke-width:1"
     id="Group-2"
     transform="translate(-2640.8644,-1641.8051)" />
</svg>
