<?xml version="1.0" encoding="UTF-8" standalone="no"?>
<svg
   xmlns:dc="http://purl.org/dc/elements/1.1/"
   xmlns:cc="http://creativecommons.org/ns#"
   xmlns:rdf="http://www.w3.org/1999/02/22-rdf-syntax-ns#"
   xmlns:svg="http://www.w3.org/2000/svg"
   xmlns="http://www.w3.org/2000/svg"
   xmlns:sodipodi="http://sodipodi.sourceforge.net/DTD/sodipodi-0.dtd"
   xmlns:inkscape="http://www.inkscape.org/namespaces/inkscape"
   viewBox="0 0 48 48"
   version="1.1"
   id="svg92"
   sodipodi:docname="corebird.svg"
   inkscape:version="0.92.1 r15371">
  <metadata
     id="metadata96">
    <rdf:RDF>
      <cc:Work
         rdf:about="">
        <dc:format>image/svg+xml</dc:format>
        <dc:type
           rdf:resource="http://purl.org/dc/dcmitype/StillImage" />
      </cc:Work>
    </rdf:RDF>
  </metadata>
  <sodipodi:namedview
     pagecolor="#ffffff"
     bordercolor="#666666"
     borderopacity="1"
     objecttolerance="10"
     gridtolerance="10"
     guidetolerance="10"
     inkscape:pageopacity="0"
     inkscape:pageshadow="2"
     inkscape:window-width="1600"
     inkscape:window-height="875"
     id="namedview94"
     showgrid="false"
     inkscape:zoom="4.9166667"
     inkscape:cx="25.22034"
     inkscape:cy="24"
     inkscape:window-x="0"
     inkscape:window-y="0"
     inkscape:window-maximized="1"
     inkscape:current-layer="svg92" />
  <defs
     id="defs34">
    <clipPath
       id="clipPath-384566808">
      <g
         transform="translate(0,-1004.3622)"
         id="g4">
        <path
           d="m -24 13 c 0 1.105 -0.672 2 -1.5 2 -0.828 0 -1.5 -0.895 -1.5 -2 0 -1.105 0.672 -2 1.5 -2 0.828 0 1.5 0.895 1.5 2 z"
           transform="matrix(15.333333,0,0,11.5,414.99999,878.8622)"
           fill="#1890d0"
           id="path2" />
      </g>
    </clipPath>
    <clipPath
       id="clipPath11">
      <g
         transform="translate(0,-1004.3622)"
         id="g9">
        <path
           d="m -24 13 c 0 1.105 -0.672 2 -1.5 2 -0.828 0 -1.5 -0.895 -1.5 -2 0 -1.105 0.672 -2 1.5 -2 0.828 0 1.5 0.895 1.5 2 z"
           transform="matrix(15.333333,0,0,11.5,414.99999,878.8622)"
           fill="#1890d0"
           id="path7" />
      </g>
    </clipPath>
    <clipPath
       id="clip1">
      <path
         d="m 0 0 l 48 0 l 0 16 l -48 0 m 0 -16"
         id="path13" />
    </clipPath>
    <clipPath
       id="clip2">
      <path
         d="m 0.07 0.035 l 0 15.04 c 7.598 2.047 16.05 3.184 24.984 3.184 c 8.949 0 17.441 -1.164 25.05 -3.215 l 0 -15 m -50.03 0"
         id="path16" />
    </clipPath>
    <linearGradient
       id="linearGradient3139"
       gradientUnits="userSpaceOnUse"
       gradientTransform="matrix(0.35538082,0,0,0.35757037,-45.113033,-7.7821588)"
       y1="105.44"
       x2="0"
       y2="132.01">
      <stop
         stop-color="#ecd400"
         stop-opacity="1"
         id="stop19" />
      <stop
         offset="1"
         stop-color="#fbe64c"
         stop-opacity="1"
         id="stop21" />
    </linearGradient>
    <linearGradient
       id="linearGradient3146"
       gradientUnits="userSpaceOnUse"
       gradientTransform="matrix(0,0.99139775,-3.5177432,0,25.719614,-35.572064)"
       x1="-8.847"
       x2="52.37">
      <stop
         stop-color="#ea69a2"
         stop-opacity="1"
         id="stop24" />
      <stop
         offset="1"
         stop-color="#e54587"
         stop-opacity="1"
         id="stop26" />
    </linearGradient>
    <linearGradient
       id="linearGradient3201"
       gradientUnits="userSpaceOnUse"
       gradientTransform="matrix(0,-0.99139775,0.97859539,0,0.642371,47.788612)"
       x1="1"
       x2="47">
      <stop
         stop-color="#487bb4"
         stop-opacity="1"
         id="stop29" />
      <stop
         offset="1"
         stop-color="#5584bb"
         stop-opacity="1"
         id="stop31" />
    </linearGradient>
  </defs>
  <path
     d="m 3.853145,14.110836 c -2.141167,22.451193 -1.070584,11.225595 0,0 z M 43.730907,12.80913 c 0.234864,0.422337 0.463855,0.862517 0.673275,1.301706 -0.20942,-0.440181 -0.436454,-0.877388 -0.673275,-1.301706 z m 0.733947,1.425631 c -6.308025,1.358214 -13.176788,2.106721 -20.367507,2.106721 -7.177018,0 -14.011528,-0.727687 -20.305854,-2.075987 -1.378841,2.953373 -2.171503,6.244813 -2.171503,9.728585 0,12.593725 10.076596,22.802149 22.507695,22.802149 12.431097,0 22.507694,-10.208424 22.507694,-22.802149 0,-3.493686 -0.784834,-6.799997 -2.171503,-9.759319 z"
     id="path44"
     style="fill:url(#linearGradient3201);fill-opacity:1;stroke-width:0.98497581"
     inkscape:connector-curvature="0" />
  <path
     d="m 24.128662,1.192924 c -8.992313,0 -16.7339805,5.351565 -20.3361903,13.074552 6.2943263,1.348301 13.1288363,2.075987 20.3058553,2.075987 7.189739,0 14.058502,-0.748504 20.367506,-2.106719 C 40.855794,6.527635 33.112169,1.193915 24.129642,1.193915 Z"
     id="path74"
     style="fill:url(#linearGradient3146);fill-rule:nonzero;stroke:none;stroke-width:0.98497581"
     inkscape:connector-curvature="0" />
  <path
     d="m 23.276477,2.9786723 c -0.866275,0.015171 -1.563639,0.3641484 -1.863416,0.8668154 -0.358208,-0.1201887 -0.752,-0.1769907 -1.159853,-0.1698478 -1.060746,0.01858 -1.88148,0.5060129 -2.111752,1.1788884 -0.115216,-0.1136706 -0.24977,-0.2110789 -0.394206,-0.300351 -0.126898,0.11557 -0.252788,0.2189442 -0.372151,0.3432804 0.400392,0.1157029 0.749813,0.3180112 1.017244,0.5821752 0.230272,-0.6728755 1.052651,-1.1603392 2.111751,-1.1788874 0.409498,-0.00716 0.801789,0.050588 1.159854,0.1698469 0.297938,-0.5012302 0.998785,-0.8516725 1.863416,-0.8668154 1.017576,-0.017821 1.946248,0.438974 2.316644,1.0718214 0.03822,-0.00354 0.08881,-0.00155 0.128687,-0.00224 L 25.787343,4.808215 c 0.04786,-0.034563 0.09988,-0.052798 0.155699,-0.075797 0.06567,-0.025967 0.127372,-0.050942 0.196577,-0.061989 0.21035,0.00337 0.413279,0.02274 0.602446,0.062515 0.427353,0.156915 0.847596,0.5406498 1.115101,1.0488382 0.248542,0.4733909 0.31022,0.9594229 0.206875,1.3429601 C 27.633737,6.8924702 27.097875,6.8259785 26.583086,6.9605205 l 0.006,-0.044133 c -0.0025,0.00293 -0.01004,-0.00121 -0.01275,2.123e-4 C 26.364148,6.3634155 25.862477,5.8284157 25.186648,5.5062993 24.107909,4.9959258 23.003576,5.2293156 22.716692,6.0324552 c -0.02854,0.071697 -0.04732,0.1450886 -0.05629,0.2206546 l 0.0022,0.014472 -0.05747,0.6305052 c 0.01349,-0.075641 0.03085,-0.1476102 0.05629,-0.2206546 0.288529,-0.8031681 1.398978,-1.0530582 2.480401,-0.5413264 0.476094,0.2244449 0.860486,0.5600964 1.122603,0.9316122 -0.08566,0.038041 -0.165483,0.087206 -0.249489,0.135984 -0.573363,0.3430569 -0.908148,0.8941125 -0.948885,1.4512572 -0.0031,-0.00129 -0.0097,0.00147 -0.01275,2.114e-4 l 0.250887,0.6251047 c 0.0018,0.00138 0.0113,-0.00155 0.01275,-2.123e-4 0.041,-0.5580874 0.375665,-1.1072653 0.948884,-1.4512572 0.918587,-0.545354 2.096089,-0.3519285 2.631077,0.4368165 0.04794,0.070354 0.08713,0.1427333 0.123787,0.2174996 l -0.261402,-0.6104003 0.01052,-0.014705 C 28.736015,7.7832038 28.693555,7.710877 28.646018,7.6405174 28.510356,7.4396175 28.336248,7.2754559 28.132484,7.1516254 l 0.27684,-0.2099975 c -0.0029,5.35e-5 -0.01352,-0.012876 -0.01497,-0.014248 0.15444,-0.397081 0.105187,-0.9362568 -0.17347,-1.4606427 -0.131848,-0.2510836 -0.295146,-0.4735134 -0.486822,-0.6500122 0.190645,-0.095141 0.401343,-0.1564421 0.628376,-0.1866468 0.263798,0.00242 0.54132,0.091221 0.809098,0.2345367 -0.383414,-0.3052251 -0.77282,-0.5770896 -1.184211,-0.8284287 -0.296136,0.0553 -0.566911,0.1574673 -0.787826,0.3210532 -0.362691,-0.2081645 -0.87625,-0.3359363 -1.428824,-0.3262588 -0.05879,0.00104 -0.117844,0.013773 -0.17785,0.017631 C 25.219942,3.4129957 24.290878,2.9590169 23.276182,2.9767884 Z m -4.311341,2.622543 c -0.290481,0.00371 -0.590911,0.07124 -0.870362,0.2054047 -0.261156,0.1244778 -0.469048,0.2976714 -0.632566,0.4939759 -0.46896,-0.092488 -0.904523,-0.032397 -1.241337,0.1388362 -0.219802,0.3715252 -0.411759,0.7552091 -0.580487,1.1665898 0.340067,-0.7281941 1.395362,-0.9293434 2.430788,-0.4378832 0.442884,0.2095695 0.808609,0.5043309 1.0705,0.8449383 -0.0123,0.00578 -0.02495,0.00933 -0.03641,0.015145 l 0.220591,0.2598316 c 0.05326,0.094148 0.09818,0.1931257 0.13501,0.2903717 0.0014,-0.00143 0.01173,0.00117 0.01275,-2.124e-4 l 0.0079,-0.1172319 0.03489,0.05793 c 0.288312,-0.084676 0.629045,-0.1046925 0.984673,-0.046759 0.656903,0.1055894 1.223235,0.4581942 1.557416,0.9094778 0.0014,-0.00147 0.01172,0.00112 0.01275,-2.122e-4 L 21.94039,8.7837223 C 21.606907,8.3343008 21.028776,7.980028 20.370227,7.8744681 c -0.3122,-0.051676 -0.607635,-0.031974 -0.871445,0.029773 -0.219947,-0.5366541 -0.716079,-1.05442 -1.370179,-1.3666137 0.116763,-0.09572 0.252695,-0.1847508 0.398834,-0.2556929 0.558369,-0.2664501 1.196214,-0.2551389 1.695959,-0.029704 l -0.0022,-0.014472 -0.431714,-0.4608163 C 19.538795,5.6642344 19.25232,5.5975899 18.963483,5.601243 Z m 11.177227,0.1410049 c 0.06698,0.097655 0.120794,0.2114647 0.178194,0.3191227 0.347187,0.6641671 0.418355,1.350967 0.221455,1.8551105 L 31.012487,7.54241 C 31.096297,7.3264268 31.130642,7.0757107 31.118336,6.8084822 30.812935,6.4316367 30.483101,6.0781678 30.142363,5.7422202 Z M 15.566299,7.7834269 c -0.0079,0.020746 -0.02172,0.038317 -0.02965,0.059063 -0.0015,0.0038 0.0038,0.011176 0.0022,0.014472 l -0.0037,0.058614 c 0.0062,-0.045074 0.01929,-0.08886 0.03117,-0.1321601 z"
     id="path76"
     inkscape:connector-curvature="0"
     style="fill:#2b0000;fill-opacity:1;fill-rule:nonzero;stroke:none;stroke-width:0.43882713" />
  <path
     d="m 16.758861,9.1241055 c -5.115119,0 -9.270234,4.8290995 -9.270234,10.7854165 0,5.948386 4.155115,10.785416 9.270234,10.785416 3.008202,0 5.672918,-1.669516 7.365888,-4.256071 1.690034,2.586555 4.365513,4.256071 7.369801,4.256071 5.115119,0 9.270235,-4.833066 9.270235,-10.785416 0,-5.958301 -4.155116,-10.7854165 -9.270235,-10.7854165 -3.004288,0 -5.680746,1.6695125 -7.369801,4.2521055 -1.69297,-2.582593 -4.357686,-4.2521055 -7.365888,-4.2521055 m 0,0"
     id="path78"
     inkscape:connector-curvature="0"
     style="fill:#f9f9f9;fill-opacity:1;fill-rule:nonzero;stroke:none;stroke-width:0.98497581" />
  <path
     d="m 24.074841,26.412098 c -3.325268,0 -6.942156,3.353899 -6.796346,5.472516 0.141896,2.118617 5.930288,10.945031 7.232799,10.945031 1.303489,0 6.364785,-8.651928 6.218974,-11.126456 -0.144832,-2.470563 -4.483925,-5.472516 -6.655427,-5.294064 m 0,0"
     id="path80"
     style="fill:url(#linearGradient3139);fill-rule:nonzero;stroke:none;stroke-width:0.98497581"
     inkscape:connector-curvature="0" />
  <path
     d="m 30.428861,30.621574 c -0.791684,3.24881 -4.932121,10.103334 -6.0898,10.103334 -1.131256,0 -5.642582,-6.657235 -6.899098,-9.797984 -0.11841,0.333111 -0.172232,0.658288 -0.15266,0.956699 0.144832,2.118618 5.930287,10.945031 7.232798,10.945031 1.303489,0 6.368699,-8.651927 6.222888,-11.118524 -0.02251,-0.355913 -0.134067,-0.720748 -0.3063,-1.092522 m -0.0038,0.0039"
     id="path82"
     inkscape:connector-curvature="0"
     style="fill:#ecc100;fill-opacity:1;fill-rule:nonzero;stroke:none;stroke-width:0.98497581" />
  <path
     d="m 19.827737,17.423096 c -1.762451,0 -3.196094,1.444466 -3.196094,3.214112 0,1.77361 1.437557,3.218077 3.196094,3.218077 1.758535,0 3.196092,-1.444467 3.196092,-3.218077 0,-1.769646 -1.437557,-3.214112 -3.196092,-3.214112 m -0.966853,1.56839 c 0.386545,0 0.695781,0.313283 0.695781,0.700919 0,0.383671 -0.309236,0.696953 -0.695781,0.696953 -0.386546,0 -0.695782,-0.313282 -0.695782,-0.696953 0,-0.387636 0.309236,-0.700919 0.695782,-0.700919 m 0,0"
     id="path84"
     inkscape:connector-curvature="0"
     style="fill:#034c77;fill-opacity:1;fill-rule:nonzero;stroke:none;stroke-width:0.98497581" />
  <path
     d="m 28.872894,17.423096 c -1.758536,0 -3.196093,1.444466 -3.196093,3.214112 0,1.77361 1.441471,3.218077 3.196093,3.218077 1.758536,0 3.200007,-1.444467 3.200007,-3.218077 0,-1.769646 -1.441471,-3.214112 -3.200007,-3.214112 m -0.966853,1.56839 c 0.386546,0 0.699697,0.313283 0.699697,0.700919 0,0.383671 -0.313151,0.696953 -0.699697,0.696953 -0.38263,0 -0.695781,-0.313282 -0.695781,-0.696953 0,-0.387636 0.313151,-0.700919 0.695781,-0.700919 m 0,0"
     id="path86"
     inkscape:connector-curvature="0"
     style="fill:#034c77;fill-opacity:1;fill-rule:nonzero;stroke:none;stroke-width:0.98497581" />
</svg>
