<?xml version="1.0" encoding="UTF-8" standalone="no"?>
<svg
   xmlns:dc="http://purl.org/dc/elements/1.1/"
   xmlns:cc="http://creativecommons.org/ns#"
   xmlns:rdf="http://www.w3.org/1999/02/22-rdf-syntax-ns#"
   xmlns:svg="http://www.w3.org/2000/svg"
   xmlns="http://www.w3.org/2000/svg"
   xmlns:sodipodi="http://sodipodi.sourceforge.net/DTD/sodipodi-0.dtd"
   xmlns:inkscape="http://www.inkscape.org/namespaces/inkscape"
   viewBox="0 0 48 48"
   version="1.1"
   id="svg57"
   sodipodi:docname="deepin-note.svg"
   inkscape:version="0.92.2pre0 (973e216, 2017-07-25)">
  <metadata
     id="metadata61">
    <rdf:RDF>
      <cc:Work
         rdf:about="">
        <dc:format>image/svg+xml</dc:format>
        <dc:type
           rdf:resource="http://purl.org/dc/dcmitype/StillImage" />
      </cc:Work>
    </rdf:RDF>
  </metadata>
  <sodipodi:namedview
     pagecolor="#ffffff"
     bordercolor="#666666"
     borderopacity="1"
     objecttolerance="10"
     gridtolerance="10"
     guidetolerance="10"
     inkscape:pageopacity="0"
     inkscape:pageshadow="2"
     inkscape:window-width="1360"
     inkscape:window-height="740"
     id="namedview59"
     showgrid="false"
     inkscape:zoom="13.906433"
     inkscape:cx="33.361959"
     inkscape:cy="9.1306536"
     inkscape:window-x="0"
     inkscape:window-y="0"
     inkscape:window-maximized="1"
     inkscape:current-layer="svg57" />
  <defs
     id="defs17">
    <linearGradient
       id="linearGradient3764"
       x1="1"
       x2="47"
       gradientUnits="userSpaceOnUse"
       gradientTransform="rotate(-90,23.999998,24)">
      <stop
         stop-color="#ec9a52"
         stop-opacity="1"
         id="stop2" />
      <stop
         offset="1"
         stop-color="#eea664"
         stop-opacity="1"
         id="stop4" />
    </linearGradient>
    <clipPath
       id="clipPath-386539285">
      <g
         transform="translate(0,-1004.3622)"
         id="g9">
        <path
           d="m -24 13 c 0 1.105 -0.672 2 -1.5 2 -0.828 0 -1.5 -0.895 -1.5 -2 0 -1.105 0.672 -2 1.5 -2 0.828 0 1.5 0.895 1.5 2 z"
           transform="matrix(15.333333,0,0,11.5,414.99999,878.8622)"
           fill="#1890d0"
           id="path7" />
      </g>
    </clipPath>
    <clipPath
       id="clipPath-395816732">
      <g
         transform="translate(0,-1004.3622)"
         id="g14">
        <path
           d="m -24 13 c 0 1.105 -0.672 2 -1.5 2 -0.828 0 -1.5 -0.895 -1.5 -2 0 -1.105 0.672 -2 1.5 -2 0.828 0 1.5 0.895 1.5 2 z"
           transform="matrix(15.333333,0,0,11.5,414.99999,878.8622)"
           fill="#1890d0"
           id="path12" />
      </g>
    </clipPath>
    <linearGradient
       id="linearGradient-1"
       y2="246.60216"
       x2="23.764775"
       y1="223.15008"
       x1="23.764775"
       gradientTransform="matrix(0.78375127,0,0,0.1567067,-62.697876,15.609287)"
       gradientUnits="userSpaceOnUse">
      <stop
         id="stop67"
         offset="0%"
         stop-color="#CCA46B" />
      <stop
         id="stop69"
         offset="100%"
         stop-color="#D7B672" />
    </linearGradient>
    <filter
       id="filter-2"
       filterUnits="objectBoundingBox"
       height="110.0%"
       width="109.1%"
       y="-3.3%"
       x="-4.5%">
      <feOffset
         id="feOffset72"
         result="shadowOffsetOuter1"
         in="SourceAlpha"
         dy="2"
         dx="0" />
      <feGaussianBlur
         id="feGaussianBlur74"
         result="shadowBlurOuter1"
         in="shadowOffsetOuter1"
         stdDeviation="1" />
      <feColorMatrix
         id="feColorMatrix76"
         result="shadowMatrixOuter1"
         in="shadowBlurOuter1"
         type="matrix"
         values="0 0 0 0 0   0 0 0 0 0   0 0 0 0 0  0 0 0 0.2 0" />
      <feMerge
         id="feMerge82">
        <feMergeNode
           id="feMergeNode78"
           in="shadowMatrixOuter1" />
        <feMergeNode
           id="feMergeNode80"
           in="SourceGraphic" />
      </feMerge>
    </filter>
    <linearGradient
       id="linearGradient-3"
       y2="57.477796"
       x2="57.179792"
       y1="13.62561"
       x1="57.179788"
       gradientTransform="scale(1.0093976,0.99068991)"
       gradientUnits="userSpaceOnUse">
      <stop
         id="stop85"
         offset="0%"
         stop-color="#3E2409" />
      <stop
         id="stop87"
         offset="100%"
         stop-color="#765720" />
    </linearGradient>
    <linearGradient
       id="linearGradient-4"
       y2="71.847421"
       x2="51.164073"
       y1="2.0351746"
       x1="84.297547"
       gradientTransform="scale(1.0093976,0.99068991)"
       gradientUnits="userSpaceOnUse">
      <stop
         id="stop90"
         offset="0%"
         stop-color="#351C03" />
      <stop
         id="stop92"
         offset="100%"
         stop-color="#5B410F" />
    </linearGradient>
    <linearGradient
       id="linearGradient-5"
       y2="87.557015"
       x2="0.43078958"
       y1="5.983382"
       x1="82.004422"
       gradientTransform="scale(0.9781717,1.0223154)"
       gradientUnits="userSpaceOnUse">
      <stop
         id="stop95"
         offset="0%"
         stop-color="#241400" />
      <stop
         id="stop97"
         offset="100%"
         stop-color="#53402E" />
    </linearGradient>
    <linearGradient
       x1="23.764772"
       y1="223.15009"
       x2="23.764772"
       y2="246.60216"
       id="linearGradient-1-3"
       gradientTransform="matrix(0.47318394,0,0,0.09189706,5.9411799,40.652539)"
       gradientUnits="userSpaceOnUse">
      <stop
         stop-color="#CCA46B"
         offset="0%"
         id="stop6" />
      <stop
         stop-color="#D7B672"
         offset="100%"
         id="stop8" />
    </linearGradient>
  </defs>
  <path
     inkscape:connector-curvature="0"
     style="fill:#fbe9a9;fill-opacity:1"
     id="path27"
     d="M 24,1 C 36.703,1 47,11.297 47,24 47,36.703 36.703,47 24,47 11.297,47 1,36.703 1,24 1,11.297 11.297,1 24,1 Z" />
  <g
     id="g31" />
  <g
     style="fill:#eccf87;fill-rule:evenodd;stroke:none;stroke-width:1"
     id="Group"
     transform="matrix(0.38555213,0,0,0.37208203,7.9516397,8.1350037)">
    <path
       inkscape:connector-curvature="0"
       d="m 10.462312,63.756714 h 2 v -2 h -2 v 2 h 2 v -2 H 6.4623116 v 2 z m 17,5 h 5 v 2 h -5 -5 v -2 z m 53,14 h 2 v 2 h -2 z m -6,0 h 2 v 2 h -2 z m -6,0 h 6 v 2 h -6 z m -4,0 h 2 v 2 h -2 z m -6,0 h 2 v 2 h -2 z m -6,0 h 6 v 2 h -6 z m -4,0 h 2 v 2 h -2 z m -10,0 h 6 v 2 h -6 z m -6,0 h 2 v 2 h -2 z m -6,0 h 2 v 2 h -2 z m -4,0 h 2 v 2 h -2 z m -6,0 h 2 v 2 h -2 z m -6,0 h 6 v 2 h -6 z m -4.0000004,0 h 2 v 2 h -2 z m -6.00000004,0 H 2.4623116 v 2 H 0.46231156 Z m 80.00000044,-7 h 2 v 2 h -2 z m -6,0 h 6 v 2 h -6 z m -6,0 h 2 v 2 h -2 z m -4,0 h 2 v 2 h -2 z m -6,0 h 6 v 2 h -6 z m -6,0 h 2 v 2 h -2 z m -4,0 h 2 v 2 h -2 z m -10,0 h 6 v 2 h -6 z m -12,0 h 10 v 2 h -10 z m -4,0 h 2 v 2 h -2 z m -6,0 h 2 v 2 h -2 z m -6,0 h 6 v 2 h -6 z m -4.0000004,0 h 2 v 2 h -2 z m -6.00000004,0 H 2.4623116 v 2 H 0.46231156 Z m 80.00000044,-7 h 2 v 2 h -2 z m -6,0 h 2 v 2 h -2 z m -6,0 h 6 v 2 h -6 z m -4,0 h 2 v 2 h -2 z m -6,0 h 6 v 2 h -6 z m -6,0 h 2 v 2 h -2 z m -4,0 h 2 v 2 h -2 z m -6,0 h 6 v 2 h -6 z m -4,0 h 2 v 2 h -2 z m -6,0 h 2 v 2 h -2 z m -16,0 h 2 v 2 h -2 z m -6,0 h 2 v 2 h -2 z m -4.0000004,0 h 2 v 2 h -2 z m -6.00000004,0 H 6.4623116 v 2 H 0.46231156 Z m 80.00000044,-7 h 2 v 2 h -2 z m -12,0 h 10 v 2 h -10 z m -4,0 h 2 v 2 h -2 z m -6,0 h 2 v 2 h -2 z m -6,0 h 2 v 2 h -2 z m -4,0 h 2 v 2 h -2 z m -6,0 h 6 v 2 h -6 z m -4,0 h 2 v 2 h -2 z m -6,0 h 6 v 2 h -6 z m -6,0 h 2 v 2 h -2 z m -4,0 h 2 v 2 h -2 z m -6,0 h 2 v 2 h -2 z m -16.00000044,0 H 2.4623116 v 2 H 0.46231156 Z m 80.00000044,-8 h 2 v 2 h -2 z m -6,0 h 2 v 2 h -2 z m -6,0 h 2 v 2 h -2 z m -10,0 h 10 v 2 h -10 z m -6,0 h 6 v 2 h -6 z m -4,0 h 2 v 2 h -2 z m -6,0 h 2 v 2 h -2 z m -4,0 h 2 v 2 h -2 z m -6,0 h 2 v 2 h -2 z m -6,0 h 2 v 2 h -2 z m -4,0 h 2 v 2 h -2 z m -6,0 h 6 v 2 h -6 z m -6,0 h 2 v 2 h -2 z m -4.0000004,0 h 2 v 2 h -2 z m -6.00000004,0 H 6.4623116 v 2 H 0.46231156 Z m 80.00000044,-8 h 2 v 2 h -2 z m -6,0 h 2 v 2 h -2 z m -10,0 h 6 v 2 h -6 z m -6,0 h 2 v 2 h -2 z m -6,0 h 2 v 2 h -2 z m -4,0 h 2 v 2 h -2 z m -6,0 h 2 v 2 h -2 z m -4,0 h 2 v 2 h -2 z m -6,0 h 2 v 2 h -2 z m -6,0 h 2 v 2 h -2 z m -4,0 h 2 v 2 h -2 z m -6,0 h 2 v 2 h -2 z m -6,0 h 6 v 2 h -6 z m -4.0000004,0 h 2 v 2 h -2 z m -6.00000004,0 H 2.4623116 v 2 H 0.46231156 Z m 80.00000044,-8 h 2 v 2 h -2 z m -12,0 h 10 v 2 h -10 z m -4,0 h 2 v 2 h -2 z m -6,0 h 2 v 2 h -2 z m -6,0 h 2 v 2 h -2 z m -4,0 h 2 v 2 h -2 z m -6,0 h 2 v 2 h -2 z m -4,0 h 2 v 2 h -2 z m -6,0 h 2 v 2 h -2 z m -6,0 h 2 v 2 h -2 z m -4,0 h 2 v 2 h -2 z m -6,0 h 6 v 2 h -6 z m -10.0000004,0 h 6.0000004 v 2 H 6.4623116 Z m -6.00000004,0 H 2.4623116 v 2 H 0.46231156 Z m 80.00000044,-8 h 2 v 2 h -2 z m -6,0 h 6 v 2 h -6 z m -6,0 h 2 v 2 h -2 z m -4,0 h 2 v 2 h -2 z m -6,0 h 2 v 2 h -2 z m -6,0 h 2 v 2 h -2 z m -4,0 h 2 v 2 h -2 z m -6,0 h 2 v 2 h -2 z m -4,0 h 2 v 2 h -2 z m -6,0 h 2 v 2 h -2 z m -6,0 h 2 v 2 h -2 z m -4,0 h 2 v 2 h -2 z m -12,0 h 10 v 2 h -10 z m -4.0000004,0 h 2 v 2 h -2 z m -6.00000004,0 H 6.4623116 v 2 H 0.46231156 Z m 80.00000044,-7 h 2 v 2 h -2 z m -6,0 h 2 v 2 h -2 z m -6,0 h 2 v 2 h -2 z m -4,0 h 2 v 2 h -2 z m -6,0 h 2 v 2 h -2 z m -6,0 h 2 v 2 h -2 z m -4,0 h 2 v 2 h -2 z m -6,0 h 2 v 2 h -2 z m -4,0 h 2 v 2 h -2 z m -16,0 h 16 v 2 h -16 z m -6,0 h 2 v 2 h -2 z m -10.0000004,0 h 6.0000004 v 2 H 6.4623116 Z m -6.00000004,0 H 6.4623116 v 2 H 0.46231156 Z m 80.00000044,-7 h 2 v 2 h -2 z m -6,0 h 2 v 2 h -2 z m -6,0 h 2 v 2 h -2 z m -4,0 h 2 v 2 h -2 z m -6,0 h 2 v 2 h -2 z m -6,0 h 2 v 2 h -2 z m -10,0 h 6 v 2 h -6 z m -4,0 h 2 v 2 h -2 z m -6,0 h 2 v 2 h -2 z m -6,0 h 6 v 2 h -6 z m -10,0 h 2 v 2 h -2 z m -6,0 h 6 v 2 h -6 z m -4.0000004,0 h 2 v 2 h -2 z m -6.00000004,0 H 6.4623116 v 2 H 0.46231156 Z M 80.462312,8.7567141 h 2 v 1.9999999 h -2 z m -6,0 h 2 v 1.9999999 h -2 z m -6,0 h 2 v 1.9999999 h -2 z m -4,0 h 2 v 1.9999999 h -2 z m -6,0 h 2 v 1.9999999 h -2 z m -20,0 h 16 v 1.9999999 h -16 z m -6,0 h 6 v 1.9999999 h -6 z m -10,0 h 6 v 1.9999999 h -6 z m -6,0 h 2 v 1.9999999 h -2 z m -10.0000004,0 H 12.462312 V 10.756714 H 6.4623116 Z m -6.00000004,0 H 6.4623116 V 10.756714 H 0.46231156 Z M 80.462312,0.75671406 h 2 V 2.7567141 h -2 z m -6,0 h 2 V 2.7567141 h -2 z m -6,0 h 2 V 2.7567141 h -2 z m -4,0 h 2 V 2.7567141 h -2 z m -6,0 h 2 V 2.7567141 h -2 z m -6,0 h 2 V 2.7567141 h -2 z m -10,0 h 10 V 2.7567141 h -10 z m -4,0 h 2 V 2.7567141 h -2 z m -6,0 h 6 V 2.7567141 h -6 z m -10,0 h 6 V 2.7567141 h -6 z m -6,0 h 2 V 2.7567141 h -2 z m -10.0000004,0 H 12.462312 V 2.7567141 H 6.4623116 Z m -6.00000004,0 H 2.4623116 V 2.7567141 H 0.46231156 Z"
       id="path115" />
  </g>
  <g
     style="fill:none;fill-rule:evenodd;stroke:none;stroke-width:1;filter:url(#filter-2)"
     id="Group-3"
     transform="matrix(0.30174551,0,0,0.3284077,13.087151,7.0269932)">
    <path
       style="fill:url(#linearGradient-3)"
       inkscape:connector-curvature="0"
       d="m 15.38369,68.728855 c -0.0076,-5.234115 0.398828,-8.99159 1.219362,-11.272428 -0.01601,1.01938 0.404929,2.098792 1.26283,3.238236 1.286851,1.709166 1.078667,-12.993874 6.471429,-16.888761 0.05452,4.605724 0.681173,7.515342 1.879946,8.728852 C 28.015416,54.355018 22.75763,44.95899 28.950528,39.23916 35.143425,33.519329 60.677974,5.2599068 76.093874,2.2684275 91.509773,-0.72305193 87.970648,-0.42659375 86.445873,1.2621069 c -1.524775,1.6887006 1.632298,8.2347545 -2.185359,12.5640961 -3.817657,4.329342 -7.393386,4.329342 -7.393386,4.329342 2.098234,0.627611 3.147351,0.941416 3.147351,0.941416 -3.257734,9.462882 -10.329884,18.567131 -21.21645,27.312744 -5.368932,5.440719 -12.188669,7.48747 -20.45921,6.140251 4.5137,2.386869 7.791261,3.477196 9.832683,3.270981 -1.687967,3.373893 -3.890293,6.004204 -6.606978,7.890933 -6.182221,0.06159 -9.810187,-0.08556 -10.883897,-0.441471 4.213245,1.254441 7.191112,1.819875 8.933603,1.696302 2.613737,-0.18536 -9.070295,6.341983 -12.173607,6.209834 -2.068875,-0.0881 -6.087852,-0.903993 -12.056933,-2.44768 z"
       id="Path-3" />
    <path
       style="fill:url(#linearGradient-4);fill-rule:nonzero"
       inkscape:connector-curvature="0"
       d="m 36.475847,64.708748 c 1.300918,0.228088 2.347046,0.314073 3.138383,0.257953 2.613737,-0.18536 -9.070295,6.341983 -12.173607,6.209834 -2.068875,-0.0881 -6.087852,-0.903993 -12.056933,-2.44768 -0.0076,-5.234115 0.398828,-8.99159 1.219362,-11.272428 -0.0131,0.834152 0.26638,1.708501 0.838452,2.623048 0.134288,0.213586 0.272484,0.413446 0.424378,0.615188 0.258551,0.343401 0.456751,0.02428 0.652152,-0.736602 0.784973,-3.131581 1.532747,-13.05624 5.819277,-16.152159 0.03808,3.216469 0.355187,5.605727 0.951328,7.167775 0.0995,0.477438 0.306008,1.452941 0.322439,1.596297 0.03304,-0.204926 0.09866,-0.370019 0.224875,-0.506856 0.119923,0.178493 0.247024,0.335705 0.381304,0.471636 0.504138,0.510335 0.453653,0.13903 0.256387,-0.785722 0.291196,-0.06849 0.350698,-0.02266 0.455026,0.08295 -0.252088,-0.25519 -0.478345,-0.631927 -0.675801,-1.128338 C 25.692342,47.905927 25.048733,42.842901 28.950528,39.23916 35.143425,33.519329 60.677974,5.2599068 76.093874,2.2684275 91.509773,-0.72305193 87.970648,-0.42659375 86.445873,1.2621069 c -1.524775,1.6887006 1.632298,8.2347545 -2.185359,12.5640961 -2.031399,2.30367 -3.994299,3.381543 -5.386433,3.885873 0,0 -1.089182,0.441426 -2.012479,0.43667 -0.0018,-0.0061 0.786456,0.242142 2.036252,0.614217 l 1.116625,0.333998 c -3.257734,9.462882 -10.329884,18.567131 -21.21645,27.312744 -4.724583,4.787754 -10.572632,6.947306 -17.544147,6.478654 -1.64921,-0.153364 -2.566926,-0.257507 -2.753147,-0.312432 -0.113451,-3.41e-4 0.382116,0.312432 2.497669,1.296761 3.16585,1.462095 5.556883,2.111511 7.173098,1.948249 -1.687967,3.373893 -3.890293,6.004204 -6.606978,7.890933 -1.273634,0.01269 -4.137234,0.01269 -8.5908,0 -0.0045,0.173659 1.162834,0.505952 3.502123,0.996878 z M 17.067,61.29615 c -0.0861,-0.11436 -0.168514,-0.228583 -0.247204,-0.342667 -0.268858,1.862008 -0.415174,4.198156 -0.434103,7.000377 5.488095,1.40112 9.207253,2.143089 11.097475,2.22358 1.14722,0.04885 4.41747,-1.246267 7.717187,-3.007928 0.84537,-0.451328 1.624727,-0.898217 2.271223,-1.299715 -1.802279,-0.22218 -6.950821,-1.624492 -8.819276,-2.967975 l 2.198915,-0.186957 c 0.41588,0 4.553676,0.05192 10.39108,0 2.083822,-1.502676 3.845056,-3.484279 5.284987,-5.95345 -2.175772,-0.301787 -5.042972,-1.416896 -8.655934,-3.327449 l -5.392935,-2.851812 6.021178,0.980811 C 46.45865,52.859445 52.95137,50.910839 58.171747,45.630108 68.541688,37.29952 75.382403,28.670548 78.716676,19.752547 78.306719,19.629923 77.669833,19.439421 76.580559,19.113605 l -6.546207,-1.95806 h 6.832776 c 0.05662,0 0.21074,-0.01238 0.449509,-0.05329 0.427135,-0.07317 0.913972,-0.207106 1.448438,-0.418051 1.567637,-0.618722 3.180352,-1.744582 4.745399,-3.519395 0.949743,-1.077038 1.463349,-2.375713 1.649824,-3.9606816 0.131058,-1.1139423 0.106256,-2.1311771 -0.03795,-3.9351177 -0.164238,-2.0545232 -0.205903,-3.0635689 0.03038,-3.7747208 -2.654956,0.5232347 -6.692527,1.3336003 -8.86836,1.7558241 -4.682389,0.908625 -10.723192,4.3476668 -17.848108,9.89523 -3.238997,2.52193 -6.646814,5.435743 -10.241423,8.721624 -5.651185,5.165826 -18.721685,18.250756 -18.565821,18.106798 -1.274069,1.176745 -2.074271,2.580614 -2.479994,4.193205 -0.478382,1.901383 -0.396825,3.878257 0.05506,6.192176 0.02416,0.123691 0.360886,1.694372 0.393978,1.983081 0.01982,0.172886 0.02381,0.320344 0.0013,0.474116 -0.05817,0.396528 -0.274637,0.762185 -0.762114,0.905499 -0.589066,0.173181 -0.865311,-0.01253 -1.331363,-0.484317 -1.187568,-1.202167 -1.850802,-3.520657 -2.080011,-7.012507 -0.938244,1.391496 -1.707084,3.371062 -2.337739,5.872824 -0.507937,2.014947 -1.493951,7.670008 -1.569863,7.982311 -0.137661,0.566332 -0.271063,0.942764 -0.478015,1.22772 -0.526233,0.724581 -1.452694,0.679622 -1.973216,-0.01173 z"
       id="path121" />
    <path
       style="fill:url(#linearGradient-5)"
       inkscape:connector-curvature="0"
       d="M 0.42138618,89.205347 C 13.443025,63.400222 40.040698,35.704074 80.214405,6.1169036 42.02762,37.712569 19.263174,60.751268 11.921065,75.233001 9.117303,80.763202 6.2063766,86.627033 5.0448579,87.525639 2.6630039,89.368353 1.1218467,89.928256 0.42138618,89.205347 Z"
       id="Path-2" />
  </g>
  <path
     style="fill:#c69857;fill-rule:evenodd;stroke:none;stroke-width:0.16688775"
     inkscape:connector-curvature="0"
     id="Combined-Shape"
     d="m 28.9897,42.926067 v 2.819524 0 c 0,0.408441 -0.119903,0.739548 -0.267807,0.739548 h -9.50712 v 0 c -0.147905,0 -0.267805,-0.331107 -0.267805,-0.739548 v -2.819524 2.542194 c 0,0.408441 0.1199,0.739548 0.267805,0.739548 v 0 h 9.50712 c 0.147904,0 0.267807,-0.331107 0.267807,-0.739548 v 0 z" />
  <path
     style="fill:#c69857;fill-rule:evenodd;stroke:none;stroke-width:0.22113456"
     inkscape:connector-curvature="0"
     id="path46"
     d="m 31.92369,41.748844 v 3.141778 0 c 0,0.455123 -0.188926,0.824074 -0.421974,0.824074 h -14.98006 v 0 c -0.23305,0 -0.421975,-0.368951 -0.421975,-0.824074 v -3.141778 2.832751 c 0,0.455123 0.188925,0.824074 0.421975,0.824074 v 0 h 14.98006 c 0.233048,0 0.421974,-0.368951 0.421974,-0.824074 v 0 z" />
  <path
     style="fill:#c69857;fill-rule:evenodd;stroke:none;stroke-width:0.24967334"
     inkscape:connector-curvature="0"
     id="path48"
     d="m 34.107643,40.897214 v 3.141778 0 c 0,0.455123 -0.240836,0.824074 -0.537919,0.824074 H 14.473627 v 0 c -0.297084,0 -0.537917,-0.368951 -0.537917,-0.824074 v -3.141778 2.832751 c 0,0.455123 0.240833,0.824074 0.537917,0.824074 v 0 h 19.096097 c 0.297083,0 0.537919,-0.368951 0.537919,-0.824074 v 0 z" />
  <path
     style="fill:#c69857;fill-rule:evenodd;stroke:none;stroke-width:0.27065682"
     inkscape:connector-curvature="0"
     id="path50"
     d="m 35.831869,39.987951 v 3.141778 0 c 0,0.455123 -0.283023,0.824074 -0.632141,0.824074 H 12.758935 v 0 c -0.349119,0 -0.632134,-0.368951 -0.632134,-0.824074 v -3.141778 2.832751 c 0,0.455123 0.283015,0.824074 0.632134,0.824074 v 0 h 22.440793 c 0.349118,0 0.632141,-0.368951 0.632141,-0.824074 v 0 z" />
  <path
     style="fill:#c69857;fill-rule:evenodd;stroke:none;stroke-width:0.28466257"
     inkscape:connector-curvature="0"
     id="path50-3"
     d="m 37.096541,39.178972 v 3.141778 0 c 0,0.455123 -0.313071,0.824074 -0.699256,0.824074 H 11.573902 v 0 c -0.386185,0 -0.699249,-0.368951 -0.699249,-0.824074 v -3.141778 2.832751 c 0,0.455123 0.313064,0.824074 0.699249,0.824074 v 0 h 24.823383 c 0.386185,0 0.699256,-0.368951 0.699256,-0.824074 v 0 z" />
  <path
     style="fill:#c69857;fill-rule:evenodd;stroke:none;stroke-width:0.29754439"
     inkscape:connector-curvature="0"
     id="path50-6"
     d="m 38.315106,38.286839 v 3.141778 0 c 0,0.455123 -0.342047,0.824074 -0.763974,0.824074 h -27.12088 v 0 c -0.421929,0 -0.7639682,-0.368951 -0.7639682,-0.824074 v -3.141778 2.832751 c 0,0.455123 0.3420392,0.824074 0.7639682,0.824074 v 0 h 27.12088 c 0.421927,0 0.763974,-0.368951 0.763974,-0.824074 v 0 z" />
</svg>
