<?xml version="1.0" encoding="UTF-8" standalone="no"?>
<svg
   xmlns:dc="http://purl.org/dc/elements/1.1/"
   xmlns:cc="http://creativecommons.org/ns#"
   xmlns:rdf="http://www.w3.org/1999/02/22-rdf-syntax-ns#"
   xmlns:svg="http://www.w3.org/2000/svg"
   xmlns="http://www.w3.org/2000/svg"
   xmlns:sodipodi="http://sodipodi.sourceforge.net/DTD/sodipodi-0.dtd"
   xmlns:inkscape="http://www.inkscape.org/namespaces/inkscape"
   viewBox="0 0 48 48"
   version="1.1"
   id="svg30"
   sodipodi:docname="pdf-xchange.svg"
   inkscape:version="0.92.2pre0 (973e216, 2017-07-25)">
  <metadata
     id="metadata36">
    <rdf:RDF>
      <cc:Work
         rdf:about="">
        <dc:format>image/svg+xml</dc:format>
        <dc:type
           rdf:resource="http://purl.org/dc/dcmitype/StillImage" />
      </cc:Work>
    </rdf:RDF>
  </metadata>
  <defs
     id="defs34" />
  <sodipodi:namedview
     pagecolor="#ffffff"
     bordercolor="#666666"
     borderopacity="1"
     objecttolerance="10"
     gridtolerance="10"
     guidetolerance="10"
     inkscape:pageopacity="0"
     inkscape:pageshadow="2"
     inkscape:window-width="1360"
     inkscape:window-height="691"
     id="namedview32"
     showgrid="false"
     inkscape:zoom="9.8333333"
     inkscape:cx="23.80113"
     inkscape:cy="25.446801"
     inkscape:window-x="0"
     inkscape:window-y="0"
     inkscape:window-maximized="1"
     inkscape:current-layer="svg30" />
  <g
     transform="matrix(0.09200503,0,0,0.09256831,0.53160233,-49.638613)"
     id="layer1"
     inkscape:label="Layer 1">
    <circle
       transform="matrix(0.69444444,0,0,0.69444444,115.12698,1016.2035)"
       id="path2985"
       style="fill:#ffd459;fill-rule:evenodd;stroke:none"
       cx="202.85715"
       cy="-316.57144"
       r="360" />
    <path
       id="path2994"
       transform="translate(0,540.36218)"
       d="M 432.78125,79.21875 79.21875,432.78125 C 124.45985,478.02235 186.96441,506 256,506 394.07119,506 506,394.07119 506,256 506,186.96441 478.02235,124.45985 432.78125,79.21875 Z"
       style="fill:#83b848;fill-opacity:1;stroke:none;stroke-width:1px;stroke-linecap:butt;stroke-linejoin:miter;stroke-opacity:1"
       inkscape:connector-curvature="0" />
    <path
       id="path3770"
       d="M 432.78068,619.58528 C 240.54005,625.99616 85.238947,780.43978 79.254821,973.12046 271.49567,966.70979 426.7966,812.2661 432.78068,619.58528 Z"
       style="fill:#88a43b;fill-opacity:1;fill-rule:evenodd;stroke:none"
       inkscape:connector-curvature="0" />
    <circle
       style="fill:#83b848;fill-opacity:1;fill-rule:evenodd;stroke:none"
       id="path3777"
       transform="matrix(1.4089098,0.01453207,-0.01453207,1.4089098,-1298.6616,417.53683)"
       cx="1106.1171"
       cy="256.4314"
       r="49.497475" />
    <circle
       transform="matrix(0.75864372,0.00782496,-0.00782496,0.75864372,-581.11115,591.70431)"
       id="path3775"
       style="fill:#ffd459;fill-rule:evenodd;stroke:none"
       cx="1106.1171"
       cy="256.4314"
       r="49.497475" />
    <circle
       transform="matrix(1.0063642,0.01038005,-0.01038005,1.0063642,-954.342,623.19374)"
       id="path3779"
       style="fill:#83b848;fill-opacity:1;fill-rule:evenodd;stroke:none"
       cx="1106.1171"
       cy="256.4314"
       r="49.497475" />
    <circle
       style="fill:#ffd459;fill-rule:evenodd;stroke:none"
       id="path3781"
       transform="matrix(0.37158066,0.00383263,-0.00383263,0.37158066,-253.87608,793.21438)"
       cx="1106.1171"
       cy="256.4314"
       r="49.497475" />
    <circle
       style="fill:#83b848;fill-opacity:1;fill-rule:evenodd;stroke:none"
       id="path3789"
       transform="matrix(1.0063642,0.01038005,-0.01038005,1.0063642,-755.35969,428.27429)"
       cx="1106.1171"
       cy="256.4314"
       r="49.497475" />
    <circle
       transform="matrix(0.37158066,0.00383263,-0.00383263,0.37158066,-54.893767,598.29492)"
       id="path3791"
       style="fill:#ffd459;fill-rule:evenodd;stroke:none"
       cx="1106.1171"
       cy="256.4314"
       r="49.497475" />
  </g>
</svg>
