<?xml version="1.0" encoding="UTF-8" standalone="no"?>
<svg
   xmlns:dc="http://purl.org/dc/elements/1.1/"
   xmlns:cc="http://creativecommons.org/ns#"
   xmlns:rdf="http://www.w3.org/1999/02/22-rdf-syntax-ns#"
   xmlns:svg="http://www.w3.org/2000/svg"
   xmlns="http://www.w3.org/2000/svg"
   xmlns:sodipodi="http://sodipodi.sourceforge.net/DTD/sodipodi-0.dtd"
   xmlns:inkscape="http://www.inkscape.org/namespaces/inkscape"
   height="48"
   viewBox="0 0 48 48"
   width="48"
   version="1.1"
   id="svg12"
   sodipodi:docname="peek.svg"
   inkscape:version="0.92.2pre0 (973e216, 2017-07-25)">
  <metadata
     id="metadata18">
    <rdf:RDF>
      <cc:Work
         rdf:about="">
        <dc:format>image/svg+xml</dc:format>
        <dc:type
           rdf:resource="http://purl.org/dc/dcmitype/StillImage" />
      </cc:Work>
    </rdf:RDF>
  </metadata>
  <defs
     id="defs16" />
  <sodipodi:namedview
     pagecolor="#ffffff"
     bordercolor="#666666"
     borderopacity="1"
     objecttolerance="10"
     gridtolerance="10"
     guidetolerance="10"
     inkscape:pageopacity="0"
     inkscape:pageshadow="2"
     inkscape:window-width="1360"
     inkscape:window-height="691"
     id="namedview14"
     showgrid="false"
     inkscape:zoom="4.9166667"
     inkscape:cx="24.40678"
     inkscape:cy="22.983051"
     inkscape:window-x="0"
     inkscape:window-y="0"
     inkscape:window-maximized="1"
     inkscape:current-layer="svg12" />
  <path
     d="M 24.305085,2.4650682 A 23.152543,22.18272 0 0 0 1.1525424,24.647789 23.152543,22.18272 0 0 0 24.305085,46.830508 23.152543,22.18272 0 0 0 47.457627,24.647789 23.152543,22.18272 0 0 0 24.305085,2.4650682 Z"
     style="opacity:0.2;fill:#000000;fill-opacity:1;stroke-width:1.13312221"
     id="path2"
     inkscape:connector-curvature="0" />
  <path
     d="M 24.305085,1.3559322 A 23.152543,22.18272 0 0 0 1.1525424,23.538652 23.152543,22.18272 0 0 0 24.305085,45.721373 23.152543,22.18272 0 0 0 47.457627,23.538652 23.152543,22.18272 0 0 0 24.305085,1.3559322 Z"
     style="fill:#ff8e20;fill-opacity:1;stroke-width:1.13312221"
     id="path4"
     inkscape:connector-curvature="0" />
  <path
     style="font-variant-ligatures:normal;font-variant-position:normal;font-variant-caps:normal;font-variant-numeric:normal;font-variant-alternates:normal;font-feature-settings:normal;text-orientation:mixed;shape-padding:0;opacity:0.2;vector-effect:none;fill:#000000;fill-opacity:1;stroke-width:0.93891472"
     d="m 25.466949,7.1649881 c -3.101492,0.00366 -6.154943,0.7482687 -8.893886,2.1688612 L 11.018097,36.835082 a 19.005298,18.554 0 0 0 6.75579,4.897604 l 2.030449,-10.396763 c 2.032827,0.112771 4.52953,0.12111 7.126986,-0.224677 3.005383,-0.400094 6.237097,-1.238198 8.995964,-3.319426 2.758868,-2.081231 4.743904,-5.275605 4.743904,-9.494431 0,-1.635601 -0.24356,-3.155644 -0.675588,-4.538844 C 36.38468,9.5778651 31.068507,7.1652208 25.466949,7.1649881 Z M 25.971777,12.5808 c 0.765902,-0.0029 1.520146,0.04003 2.268015,0.110527 1.514076,0.217371 2.716163,0.708897 3.459558,1.413294 0.743397,0.704397 1.369719,1.696814 1.369719,4.192768 0,2.275074 -0.628197,3.487276 -1.789171,4.363089 -1.160976,0.875815 -3.155718,1.637631 -5.376793,1.933312 -1.568751,0.208842 -3.17477,0.238858 -4.608413,0.1975 l 2.338542,-12.043793 c 0.795083,-0.114793 1.572641,-0.163728 2.338543,-0.166697 z"
     id="path6"
     inkscape:connector-curvature="0" />
  <path
     style="font-variant-ligatures:normal;font-variant-position:normal;font-variant-caps:normal;font-variant-numeric:normal;font-variant-alternates:normal;font-feature-settings:normal;text-orientation:mixed;shape-padding:0;opacity:1;vector-effect:none;fill:#ffffff;fill-opacity:1;stroke-width:0.93891472"
     d="m 25.466949,6.2372882 c -3.101492,0.00365 -6.154943,0.7482686 -8.893886,2.168861 L 10.865907,36.661139 c 1.833629,2.139261 4.137746,3.84737 6.740942,4.997258 l 2.197487,-11.24974 c 2.032827,0.11277 4.52953,0.121111 7.126986,-0.224677 3.005383,-0.400094 6.237097,-1.238197 8.995964,-3.319426 2.758868,-2.08123 4.743904,-5.276038 4.743904,-9.494864 0,-1.635603 -0.24356,-3.155644 -0.675588,-4.538846 C 36.38468,8.6501652 31.068507,6.2375208 25.466949,6.2372882 Z m 0.504828,5.4158108 c 0.765902,-0.0029 1.520146,0.04002 2.268015,0.110527 1.514076,0.217372 2.716163,0.708897 3.459558,1.413294 0.743397,0.704397 1.369719,1.696815 1.369719,4.19277 0,2.275073 -0.628197,3.487275 -1.789171,4.363089 -1.160976,0.875814 -3.155718,1.638044 -5.376793,1.933725 -1.568751,0.208842 -3.17477,0.238859 -4.608413,0.197499 l 2.338542,-12.044207 c 0.795083,-0.114791 1.572641,-0.163727 2.338543,-0.166697 z"
     id="path8"
     inkscape:connector-curvature="0" />
  <path
     d="M 24.305085,1.3559322 A 23.152543,22.18272 0 0 0 1.3157678,21.156228 23.152543,21.073584 0 0 1 24.305085,2.4650682 23.152543,21.073584 0 0 1 47.367332,21.816164 23.152543,22.18272 0 0 0 24.305085,1.3559322 Z M 47.367332,21.816164 a 23.152543,22.18272 0 0 1 0.09029,1.722488 23.152543,21.073584 0 0 0 -0.09029,-1.722488 z M 1.3157678,21.156228 a 23.152543,21.073584 0 0 0 -0.056492,0.434782 23.152543,22.18272 0 0 1 0.056492,-0.434782 z M 1.2592759,21.59101 A 23.152543,22.18272 0 0 0 1.153006,23.538652 23.152543,21.073584 0 0 1 1.2592759,21.59101 Z"
     id="path10"
     inkscape:connector-curvature="0"
     style="opacity:0.2;fill:#ffffff;stroke-width:1.13312221" />
</svg>
