<?xml version="1.0" encoding="UTF-8" standalone="no"?>
<svg
   xmlns:dc="http://purl.org/dc/elements/1.1/"
   xmlns:cc="http://creativecommons.org/ns#"
   xmlns:rdf="http://www.w3.org/1999/02/22-rdf-syntax-ns#"
   xmlns:svg="http://www.w3.org/2000/svg"
   xmlns="http://www.w3.org/2000/svg"
   xmlns:xlink="http://www.w3.org/1999/xlink"
   xmlns:sodipodi="http://sodipodi.sourceforge.net/DTD/sodipodi-0.dtd"
   xmlns:inkscape="http://www.inkscape.org/namespaces/inkscape"
   viewBox="0 0 48 48"
   version="1.1"
   id="svg41"
   sodipodi:docname="pick.svg"
   inkscape:version="0.92.1 r15371">
  <metadata
     id="metadata45">
    <rdf:RDF>
      <cc:Work
         rdf:about="">
        <dc:format>image/svg+xml</dc:format>
        <dc:type
           rdf:resource="http://purl.org/dc/dcmitype/StillImage" />
      </cc:Work>
    </rdf:RDF>
  </metadata>
  <sodipodi:namedview
     pagecolor="#ffffff"
     bordercolor="#666666"
     borderopacity="1"
     objecttolerance="10"
     gridtolerance="10"
     guidetolerance="10"
     inkscape:pageopacity="0"
     inkscape:pageshadow="2"
     inkscape:window-width="1360"
     inkscape:window-height="686"
     id="namedview43"
     showgrid="false"
     inkscape:zoom="6.9532166"
     inkscape:cx="16.303802"
     inkscape:cy="25.741912"
     inkscape:window-x="0"
     inkscape:window-y="0"
     inkscape:window-maximized="1"
     inkscape:current-layer="svg41" />
  <defs
     id="defs7">
    <clipPath
       id="clipPath-121880098">
      <g
         transform="translate(0,-1004.3622)"
         id="g4">
        <path
           d="m -24 13 c 0 1.105 -0.672 2 -1.5 2 -0.828 0 -1.5 -0.895 -1.5 -2 0 -1.105 0.672 -2 1.5 -2 0.828 0 1.5 0.895 1.5 2 z"
           transform="matrix(15.333333,0,0,11.5,414.99999,878.8622)"
           style="fill:#1890d0"
           id="path2" />
      </g>
    </clipPath>
    <linearGradient
       gradientUnits="userSpaceOnUse"
       gradientTransform="scale(1.0827806,0.92354812)"
       x1="18.890306"
       y1="31.450382"
       x2="18.890306"
       y2="62.851021"
       id="linearGradient-1">
      <stop
         stop-color="#FBCA48"
         offset="0%"
         id="stop6" />
      <stop
         stop-color="#C38F0C"
         offset="100%"
         id="stop8" />
    </linearGradient>
    <linearGradient
       inkscape:collect="always"
       xlink:href="#linearGradient8467-5"
       id="linearGradient4331"
       gradientUnits="userSpaceOnUse"
       gradientTransform="matrix(1.560817,0,0,1.5454078,-601.20089,-797.92189)"
       x1="400.32349"
       y1="545.86066"
       x2="400.3681"
       y2="517.72125" />
    <linearGradient
       id="linearGradient8467-5">
      <stop
         id="stop8469-7"
         style="stop-color:#d8d8d8;stop-opacity:1"
         offset="0" />
      <stop
         id="stop8471-0"
         style="stop-color:#ffffff;stop-opacity:1"
         offset="1" />
    </linearGradient>
    <linearGradient
       inkscape:collect="always"
       xlink:href="#linearGradient4470-8"
       id="linearGradient4468-6"
       x1="384.65826"
       y1="531.63562"
       x2="415.93533"
       y2="531.46417"
       gradientUnits="userSpaceOnUse"
       gradientTransform="matrix(1.469033,0,0,1.4545301,-564.50487,-749.50566)" />
    <linearGradient
       id="linearGradient4470-8"
       inkscape:collect="always">
      <stop
         id="stop4472-2"
         offset="0"
         style="stop-color:#ac92ec;stop-opacity:1" />
      <stop
         style="stop-color:#64a9ff;stop-opacity:1"
         offset="0.1366801"
         id="stop4474-2" />
      <stop
         style="stop-color:#4cdbb7;stop-opacity:1"
         offset="0.26767892"
         id="stop4476-1" />
      <stop
         style="stop-color:#aee672;stop-opacity:1"
         offset="0.49417827"
         id="stop4478-1" />
      <stop
         style="stop-color:#ffce53;stop-opacity:1"
         offset="0.74118012"
         id="stop4480-5" />
      <stop
         style="stop-color:#fb6e51;stop-opacity:1"
         offset="0.93032265"
         id="stop4482-7" />
      <stop
         id="stop4484-6"
         offset="1"
         style="stop-color:#ed5565;stop-opacity:1" />
    </linearGradient>
  </defs>
  <ellipse
     cy="23.910431"
     cx="24.017664"
     id="path3377-8"
     style="opacity:1;fill:url(#linearGradient4331);fill-opacity:1;stroke:url(#linearGradient4468-6);stroke-width:2.57143998;stroke-linecap:round;stroke-linejoin:round;stroke-miterlimit:4;stroke-dasharray:none;stroke-dashoffset:0;stroke-opacity:1"
     rx="21.851368"
     ry="21.635639" />
  <g
     id="g849"
     transform="matrix(1.0416323,0,0,1.0209823,-0.77817019,-0.13854762)">
    <g
       transform="matrix(0.46458486,0,0,0.46733369,12.902926,12.998965)"
       id="g13">
      <path
         d="m 11.96,41.243 c 0,2.272 -1.553,3.738 -3.468,3.738 -1.915,0 -3.468,-1.465 -3.468,-3.738 0,-2.336 3.468,-6.645 3.468,-6.645 0,0 3.468,4.239 3.468,6.645 z"
         id="path15"
         inkscape:connector-curvature="0"
         style="fill:#5c67d7" />
    </g>
    <polygon
       transform="matrix(0.46458486,0,0,0.46733369,12.902926,12.998965)"
       points="15.673,23.434 23.886,23.54 34.904,12.517 30.745,8.357 "
       id="polygon17"
       style="fill:#c3c6ca" />
    <g
       transform="matrix(0.46458486,0,0,0.46733369,12.902926,12.998965)"
       id="g19">
      <path
         d="m 13.491,33.655 c 0,0 -3.298,0.435 -4.86,1.19 -0.136,0.066 -0.276,-0.074 -0.211,-0.21 0.749,-1.559 1.191,-4.859 1.191,-4.859 0.075,-0.26 0.215,-0.496 0.406,-0.687 l 6.058,-6.058 8.346,-0.027 -10.243,10.245 c -0.192,0.191 -0.428,0.331 -0.687,0.406 z"
         id="path21-3"
         inkscape:connector-curvature="0"
         style="fill:#5c67d7" />
    </g>
    <g
       style="fill:#ff0000"
       transform="matrix(0.46458486,0,0,0.46733369,12.902926,12.998965)"
       id="g23">
      <path
         d="m 37.035,16.623 c 0,0 -1.666,-1.945 -2.03,-3.841 1.576,-0.199 3.485,-1.309 4.914,-2.738 C 42.596,7.367 42.87,4.057 40.998,2.185 39.126,0.313 35.816,0.587 33.139,3.264 31.649,4.754 30.596,6.595 30.446,8.224 28.526,7.835 26.957,6.546 26.957,6.546 26.331,6.198 25.55,6.307 25.043,6.814 L 24.01,7.849 c -0.418,0.418 -0.418,1.095 0,1.513 l 10.21,10.21 c 0.418,0.418 1.095,0.418 1.513,0 l 1.035,-1.035 c 0.506,-0.507 0.615,-1.288 0.267,-1.914 z"
         id="path25-3"
         inkscape:connector-curvature="0"
         style="fill:#ff0000" />
    </g>
  </g>
</svg>
