<?xml version="1.0" encoding="UTF-8" standalone="no"?>
<svg
   xmlns:dc="http://purl.org/dc/elements/1.1/"
   xmlns:cc="http://creativecommons.org/ns#"
   xmlns:rdf="http://www.w3.org/1999/02/22-rdf-syntax-ns#"
   xmlns:svg="http://www.w3.org/2000/svg"
   xmlns="http://www.w3.org/2000/svg"
   xmlns:sodipodi="http://sodipodi.sourceforge.net/DTD/sodipodi-0.dtd"
   xmlns:inkscape="http://www.inkscape.org/namespaces/inkscape"
   width="48"
   height="48"
   version="1.1"
   viewBox="0 0 12.7 12.7"
   id="svg14"
   sodipodi:docname="reddit.svg"
   inkscape:version="0.92.2pre0 (973e216, 2017-07-25)">
  <metadata
     id="metadata20">
    <rdf:RDF>
      <cc:Work
         rdf:about="">
        <dc:format>image/svg+xml</dc:format>
        <dc:type
           rdf:resource="http://purl.org/dc/dcmitype/StillImage" />
      </cc:Work>
    </rdf:RDF>
  </metadata>
  <defs
     id="defs18" />
  <sodipodi:namedview
     pagecolor="#ffffff"
     bordercolor="#666666"
     borderopacity="1"
     objecttolerance="10"
     gridtolerance="10"
     guidetolerance="10"
     inkscape:pageopacity="0"
     inkscape:pageshadow="2"
     inkscape:window-width="1360"
     inkscape:window-height="740"
     id="namedview16"
     showgrid="false"
     inkscape:zoom="10.443296"
     inkscape:cx="24.40678"
     inkscape:cy="22.983051"
     inkscape:window-x="0"
     inkscape:window-y="0"
     inkscape:window-maximized="1"
     inkscape:current-layer="svg14" />
  <g
     id="g32"
     transform="matrix(1.1364426,0,0,1.08253,-0.96545418,-0.80091338)">
    <ellipse
       ry="5.3785071"
       rx="5.2919998"
       style="opacity:0.2;stroke-width:1.00814033"
       cx="6.4260058"
       cy="6.781868"
       id="circle2" />
    <ellipse
       ry="5.4545131"
       rx="5.2919998"
       style="fill:#ff6a33;stroke-width:1.01523852"
       cx="6.4260058"
       cy="6.5885272"
       id="circle4" />
    <path
       style="opacity:0.2;fill:#ffffff;stroke-width:0.26734692"
       d="M 6.4260056,1.1090136 A 5.2916663,5.4027869 0 0 0 1.134339,6.5118008 5.2916663,5.4027869 0 0 0 1.140019,6.6690302 5.2916663,5.4027869 0 0 1 6.4260012,1.3791529 5.2916663,5.4027869 0 0 1 11.711984,6.6247105 5.2916663,5.4027869 0 0 0 11.717684,6.5118008 5.2916663,5.4027869 0 0 0 6.4260172,1.1090136 Z"
       id="path6"
       inkscape:connector-curvature="0" />
    <path
       style="opacity:0.2;stroke-width:1.00814033"
       d="M 6.6756027,3.5540029 A 0.26460981,0.26893533 0 0 0 6.4275558,3.7903442 L 6.1919113,5.7147257 A 2.9104166,2.1512672 0 0 0 4.4183762,6.3029567 0.79374999,0.80672526 0 0 0 3.7801723,5.974697 0.79374999,0.80672526 0 0 0 2.9864223,6.7814223 0.79374999,0.80672526 0 0 0 3.5481452,7.5519148 2.9104166,2.1512672 0 0 0 3.5155892,7.8570628 2.9104166,2.1512672 0 0 0 6.4260058,10.008323 2.9104166,2.1512672 0 0 0 9.3364225,7.8570628 2.9104166,2.1512672 0 0 0 9.3038665,7.5524331 0.79374999,0.80672526 0 0 0 9.8655893,6.7814223 0.79374999,0.80672526 0 0 0 9.0718393,5.974697 0.79374999,0.80672526 0 0 0 8.434669,6.3019099 2.9104166,2.1512672 0 0 0 6.724179,5.71997 L 6.9195158,4.1275274 8.0517465,4.2919215 A 0.52916663,0.53781681 0 0 0 8.5426727,4.6301617 0.52916663,0.53781681 0 0 0 9.0718393,4.0923414 0.52916663,0.53781681 0 0 0 8.5426727,3.5545212 0.52916663,0.53781681 0 0 0 8.1271943,3.7604127 L 6.7283127,3.5582004 a 0.26460981,0.26893533 0 0 0 -0.05271,-0.00407 z M 5.3676723,6.7814223 A 0.52916663,0.53781681 0 0 1 5.896839,7.3192425 0.52916663,0.53781681 0 0 1 5.3676723,7.8570628 0.52916663,0.53781681 0 0 1 4.8385056,7.3192425 0.52916663,0.53781681 0 0 1 5.3676723,6.7814223 Z m 2.1166666,0 A 0.52916663,0.53781681 0 0 1 8.0135056,7.3192425 0.52916663,0.53781681 0 0 1 7.4843389,7.8570628 0.52916663,0.53781681 0 0 1 6.9551723,7.3192425 0.52916663,0.53781681 0 0 1 7.4843389,6.7814223 Z M 7.743238,8.3869962 a 0.2655331,0.26987372 0 0 1 0.242879,0.3975847 c 3e-7,0 -0.1119381,0.2062675 -0.3555339,0.3713223 C 7.3869874,9.3209579 6.9987529,9.4694563 6.4254889,9.4694563 5.8522247,9.4694563 5.4639904,9.3209579 5.2203944,9.1559032 4.9767986,8.9908484 4.8669277,8.7845809 4.8669277,8.7845809 a 0.26460981,0.26893533 0 0 1 0.2129068,-0.3928587 0.26460981,0.26893533 0 0 1 0.026872,-0.00102 0.26460981,0.26893533 0 0 1 0.2330606,0.1517812 c 0,0 0.020354,0.063115 0.1736328,0.1670265 0.1532792,0.1038503 0.4270197,0.2242569 0.9120891,0.2242569 0.4850691,0 0.7588107,-0.1204066 0.9120888,-0.2242569 C 7.4908571,8.6056733 7.5117276,8.542487 7.5117276,8.542487 A 0.2655331,0.26987372 0 0 1 7.7432381,8.3870266 Z"
       id="path8"
       inkscape:connector-curvature="0" />
    <path
       style="fill:#ffffff;stroke-width:0.2667371"
       d="M 6.6756027,3.2850909 A 0.26460981,0.26893534 0 0 0 6.4275558,3.5214362 L 6.1919113,5.445812 A 2.9104166,2.1512672 0 0 0 4.4183762,6.0340492 0.79374999,0.80672526 0 0 0 3.7801723,5.7057919 0.79374999,0.80672526 0 0 0 2.9864223,6.5125172 0.79374999,0.80672526 0 0 0 3.5481452,7.2830027 2.9104166,2.1512672 0 0 0 3.515589,7.5881508 2.9104166,2.1512672 0 0 0 6.4260056,9.7394182 2.9104166,2.1512672 0 0 0 9.3364223,7.5881508 2.9104166,2.1512672 0 0 0 9.3038661,7.2835282 0.79374999,0.80672526 0 0 0 9.8655889,6.5125172 0.79374999,0.80672526 0 0 0 9.0718389,5.7057919 0.79374999,0.80672526 0 0 0 8.4346686,6.0329989 2.9104166,2.1512672 0 0 0 6.7241786,5.4510641 L 6.9195154,3.858622 8.0517461,4.0230136 A 0.52916663,0.53781681 0 0 0 8.5426723,4.3612498 0.52916663,0.53781681 0 0 0 9.0718389,3.823433 0.52916663,0.53781681 0 0 0 8.5426723,3.2856161 0.52916663,0.53781681 0 0 0 8.1271939,3.4914991 L 6.7283127,3.2892926 a 0.26460981,0.26893534 0 0 0 -0.05271,-0.0042 z M 5.3676723,6.5125172 A 0.52916663,0.53781681 0 0 1 5.896839,7.050334 0.52916663,0.53781681 0 0 1 5.3676723,7.5881508 0.52916663,0.53781681 0 0 1 4.8385056,7.050334 0.52916663,0.53781681 0 0 1 5.3676723,6.5125172 Z m 2.1166666,0 A 0.52916663,0.53781681 0 0 1 8.0135056,7.050334 0.52916663,0.53781681 0 0 1 7.4843389,7.5881508 0.52916663,0.53781681 0 0 1 6.9551723,7.050334 0.52916663,0.53781681 0 0 1 7.4843389,6.5125172 Z M 7.743238,8.1180895 a 0.2655331,0.26987372 0 0 1 0.242879,0.3975854 c 3e-7,0 -0.1119381,0.2062699 -0.3555339,0.3713246 C 7.3869874,9.0520541 6.9987529,9.200551 6.4254889,9.200551 5.8522247,9.200551 5.4639904,9.0520541 5.2203944,8.8869995 4.9767986,8.7219448 4.8669277,8.5156749 4.8669277,8.5156749 a 0.26460981,0.26893534 0 0 1 0.2129068,-0.3928586 0.26460981,0.26893534 0 0 1 0.026872,-0.00105 0.26460981,0.26893534 0 0 1 0.2330606,0.1517862 c 0,0 0.020354,0.063157 0.1736328,0.1670174 0.1532792,0.1038503 0.4270197,0.2242653 0.9120891,0.2242653 0.4850691,0 0.7588107,-0.120415 0.9120888,-0.2242653 C 7.490857,8.3367311 7.5117275,8.2735538 7.5117275,8.2735538 A 0.2655331,0.26987372 0 0 1 7.743238,8.1180911 Z"
       id="path10"
       inkscape:connector-curvature="0" />
  </g>
</svg>
