<?xml version="1.0" encoding="UTF-8" standalone="no"?>
<svg
   xmlns:dc="http://purl.org/dc/elements/1.1/"
   xmlns:cc="http://creativecommons.org/ns#"
   xmlns:rdf="http://www.w3.org/1999/02/22-rdf-syntax-ns#"
   xmlns:svg="http://www.w3.org/2000/svg"
   xmlns="http://www.w3.org/2000/svg"
   xmlns:sodipodi="http://sodipodi.sourceforge.net/DTD/sodipodi-0.dtd"
   xmlns:inkscape="http://www.inkscape.org/namespaces/inkscape"
   viewBox="0 0 48 48"
   id="svg2"
   version="1.1"
   inkscape:version="0.92.2pre0 (973e216, 2017-07-25)"
   width="100%"
   height="100%"
   sodipodi:docname="redhat-preferences.svg">
  <metadata
     id="metadata69">
    <rdf:RDF>
      <cc:Work
         rdf:about="">
        <dc:format>image/svg+xml</dc:format>
        <dc:type
           rdf:resource="http://purl.org/dc/dcmitype/StillImage" />
      </cc:Work>
    </rdf:RDF>
  </metadata>
  <sodipodi:namedview
     pagecolor="#ffffff"
     bordercolor="#666666"
     borderopacity="1"
     objecttolerance="10"
     gridtolerance="10"
     guidetolerance="10"
     inkscape:pageopacity="0"
     inkscape:pageshadow="2"
     inkscape:window-width="1360"
     inkscape:window-height="691"
     id="namedview67"
     showgrid="false"
     inkscape:zoom="4.9166667"
     inkscape:cx="20.427966"
     inkscape:cy="22.983051"
     inkscape:window-x="0"
     inkscape:window-y="0"
     inkscape:window-maximized="1"
     inkscape:current-layer="svg2" />
  <defs
     id="defs4">
    <linearGradient
       id="linearGradient3764"
       x1="1"
       x2="47"
       gradientUnits="userSpaceOnUse"
       gradientTransform="matrix(0,-1,1,0,-1.5e-6,47.999998)">
      <stop
         style="stop-color:#dddccd;stop-opacity:1"
         id="stop7" />
      <stop
         offset="1"
         style="stop-color:#e5e4d9;stop-opacity:1"
         id="stop9" />
    </linearGradient>
    <clipPath
       id="clipPath-036475325">
      <g
         transform="translate(0,-1004.3622)"
         id="g12">
        <path
           d="m -24 13 c 0 1.105 -0.672 2 -1.5 2 -0.828 0 -1.5 -0.895 -1.5 -2 0 -1.105 0.672 -2 1.5 -2 0.828 0 1.5 0.895 1.5 2 z"
           transform="matrix(15.333333,0,0,11.5,414.99999,878.8622)"
           style="fill:#1890d0"
           id="path14" />
      </g>
    </clipPath>
    <clipPath
       id="clipPath-048432972">
      <g
         transform="translate(0,-1004.3622)"
         id="g17">
        <path
           d="m -24 13 c 0 1.105 -0.672 2 -1.5 2 -0.828 0 -1.5 -0.895 -1.5 -2 0 -1.105 0.672 -2 1.5 -2 0.828 0 1.5 0.895 1.5 2 z"
           transform="matrix(15.333333,0,0,11.5,414.99999,878.8622)"
           style="fill:#1890d0"
           id="path19" />
      </g>
    </clipPath>
  </defs>
  <g
     id="g856">
    <g
       id="g21">
      <path
         id="path23"
         style="opacity:0.05"
         d="m 36.31 5 c 5.859 4.062 9.688 10.831 9.688 18.5 c 0 12.426 -10.07 22.5 -22.5 22.5 c -7.669 0 -14.438 -3.828 -18.5 -9.688 c 1.037 1.822 2.306 3.499 3.781 4.969 c 4.085 3.712 9.514 5.969 15.469 5.969 c 12.703 0 23 -10.298 23 -23 c 0 -5.954 -2.256 -11.384 -5.969 -15.469 c -1.469 -1.475 -3.147 -2.744 -4.969 -3.781 z m 4.969 3.781 c 3.854 4.113 6.219 9.637 6.219 15.719 c 0 12.703 -10.297 23 -23 23 c -6.081 0 -11.606 -2.364 -15.719 -6.219 c 4.16 4.144 9.883 6.719 16.219 6.719 c 12.703 0 23 -10.298 23 -23 c 0 -6.335 -2.575 -12.06 -6.719 -16.219 z" />
      <path
         id="path25"
         style="opacity:0.1"
         d="m 41.28 8.781 c 3.712 4.085 5.969 9.514 5.969 15.469 c 0 12.703 -10.297 23 -23 23 c -5.954 0 -11.384 -2.256 -15.469 -5.969 c 4.113 3.854 9.637 6.219 15.719 6.219 c 12.703 0 23 -10.298 23 -23 c 0 -6.081 -2.364 -11.606 -6.219 -15.719 z" />
      <path
         id="path27"
         style="opacity:0.2"
         d="m 31.25 2.375 c 8.615 3.154 14.75 11.417 14.75 21.13 c 0 12.426 -10.07 22.5 -22.5 22.5 c -9.708 0 -17.971 -6.135 -21.12 -14.75 a 23 23 0 0 0 44.875 -7 a 23 23 0 0 0 -16 -21.875 z" />
    </g>
    <g
       id="g29">
      <path
         id="path31"
         style="fill:url(#linearGradient3764);fill-opacity:1"
         d="m 24 1 c 12.703 0 23 10.297 23 23 c 0 12.703 -10.297 23 -23 23 -12.703 0 -23 -10.297 -23 -23 0 -12.703 10.297 -23 23 -23 z" />
    </g>
    <g
       id="g33">
      <g
         clip-path="url(#clipPath-036475325)"
         id="g35"
         style="clip-path:url(#clipPath-036475325)">
        <g
           id="g37"
           transform="translate(1,1)">
          <g
             id="g39"
             style="opacity:0.1">
            <!-- color: #e5e4d9 -->
            <g
               id="g41">
              <path
                 id="path43"
                 transform="translate(-1,-1)"
                 d="m 18 11 c -3.312 0 -6 2.687 -6 6 c 0 3.312 2.687 6 6 6 l 14 0 c 3.312 0 6 -2.687 6 -6 c 0 -3.312 -2.687 -6 -6 -6 l -14 0 z m 0 16 c -3.313 0 -6 2.688 -6 6 c 0 3.313 2.688 6 6 6 l 14 0 c 3.313 0 6 -2.688 6 -6 c 0 -3.313 -2.688 -6 -6 -6 l -14 0 z" />
            </g>
          </g>
        </g>
      </g>
    </g>
    <path
       d="m 17,10 c -3.312,0 -6,2.687 -6,6 0,3.312 2.687,6 6,6 l 14,0 c 3.312,0 6,-2.687 6,-6 0,-3.312 -2.687,-6 -6,-6 l -14,0 z"
       style="fill:#1185d5;fill-opacity:1;fill-rule:nonzero;stroke:none"
       id="path51"
       inkscape:connector-curvature="0" />
    <path
       d="m 22,16 c 0,2.762 -2.238,5 -5,5 -2.762,0 -5,-2.238 -5,-5 0,-2.762 2.238,-5 5,-5 2.762,0 5,2.238 5,5 m 0,0"
       style="fill:#ededed;fill-opacity:1;fill-rule:nonzero;stroke:none"
       id="path53"
       inkscape:connector-curvature="0" />
    <path
       d="m 17,26 c -3.313,0 -6,2.688 -6,6 0,3.313 2.688,6 6,6 l 14,0 c 3.313,0 6,-2.688 6,-6 0,-3.313 -2.688,-6 -6,-6 l -14,0 z"
       style="fill:#848484;fill-opacity:1;fill-rule:nonzero;stroke:none"
       id="path57"
       inkscape:connector-curvature="0" />
    <path
       d="m 26,32 c 0,2.762 2.238,5 5,5 2.762,0 5,-2.238 5,-5 0,-2.762 -2.238,-5 -5,-5 -2.762,0 -5,2.238 -5,5 m 0,0"
       style="fill:#ededed;fill-opacity:1;fill-rule:nonzero;stroke:none"
       id="path59"
       inkscape:connector-curvature="0" />
    <g
       id="g63">
      <path
         id="path65"
         style="opacity:0.1"
         d="m 40.03 7.531 c 3.712 4.084 5.969 9.514 5.969 15.469 0 12.703 -10.297 23 -23 23 c -5.954 0 -11.384 -2.256 -15.469 -5.969 4.178 4.291 10.01 6.969 16.469 6.969 c 12.703 0 23 -10.298 23 -23 0 -6.462 -2.677 -12.291 -6.969 -16.469 z" />
    </g>
  </g>
</svg>
