<?xml version="1.0" encoding="UTF-8" standalone="no"?>
<svg
   xmlns:dc="http://purl.org/dc/elements/1.1/"
   xmlns:cc="http://creativecommons.org/ns#"
   xmlns:rdf="http://www.w3.org/1999/02/22-rdf-syntax-ns#"
   xmlns:svg="http://www.w3.org/2000/svg"
   xmlns="http://www.w3.org/2000/svg"
   xmlns:sodipodi="http://sodipodi.sourceforge.net/DTD/sodipodi-0.dtd"
   xmlns:inkscape="http://www.inkscape.org/namespaces/inkscape"
   width="48"
   height="48"
   version="1.1"
   viewBox="0 0 48 48"
   id="svg22"
   sodipodi:docname="runescape.svg"
   inkscape:version="0.92.2pre0 (973e216, 2017-07-25)">
  <metadata
     id="metadata28">
    <rdf:RDF>
      <cc:Work
         rdf:about="">
        <dc:format>image/svg+xml</dc:format>
        <dc:type
           rdf:resource="http://purl.org/dc/dcmitype/StillImage" />
      </cc:Work>
    </rdf:RDF>
  </metadata>
  <defs
     id="defs26" />
  <sodipodi:namedview
     pagecolor="#ffffff"
     bordercolor="#666666"
     borderopacity="1"
     objecttolerance="10"
     gridtolerance="10"
     guidetolerance="10"
     inkscape:pageopacity="0"
     inkscape:pageshadow="2"
     inkscape:window-width="1360"
     inkscape:window-height="740"
     id="namedview24"
     showgrid="false"
     inkscape:zoom="10.443296"
     inkscape:cx="24.40678"
     inkscape:cy="22.983051"
     inkscape:window-x="0"
     inkscape:window-y="0"
     inkscape:window-maximized="1"
     inkscape:current-layer="svg22" />
  <g
     id="g40"
     transform="matrix(1.1268756,0,0,1.1074327,-3.2844038,-2.9193662)">
    <path
       inkscape:connector-curvature="0"
       id="path2"
       d="M 24,4 A 20,20.239388 0 0 0 4,24.239388 20,20.239388 0 0 0 24,44.478776 20,20.239388 0 0 0 44,24.239388 20,20.239388 0 0 0 24,4 Z"
       style="fill:#38738f;stroke-width:1.0059669" />
    <path
       id="path4"
       d="M 4.0215,24.418 A 20,20 0 0 0 4,25 20,20 0 0 0 24,45 20,20 0 0 0 44,25 20,20 0 0 0 43.979,24.582 20,20 0 0 1 24,44 20,20 0 0 1 4.022,24.418 Z"
       inkscape:connector-curvature="0"
       style="opacity:0.2" />
    <path
       id="path6"
       d="M 24,4 A 20,20 0 0 0 4,24 20,20 0 0 0 4.0215,24.418 20,20 0 0 1 23.9995,5 20,20 0 0 1 43.9785,24.582 20,20 0 0 0 43.9995,24 a 20,20 0 0 0 -20,-20 z"
       style="opacity:0.1;fill:#ffffff"
       inkscape:connector-curvature="0" />
    <path
       inkscape:connector-curvature="0"
       id="path8"
       d="m 15.148623,10.313204 c 0,0.726464 0.381421,1.35357 0.943256,1.694216 v 3.234762 c -0.876433,0.0078 -1.750205,0.03042 -2.407882,0.19593 -0.719336,0.181031 -1.365143,0.776035 -1.365143,1.759526 l 0.943256,0.491745 c 0,0 0.491681,-0.407828 0.943256,-0.491745 0.247553,-0.046 0.586291,0.02731 0.943257,0.138303 v 6.74613 l -1.886513,1.966981 1.886513,1.966981 v 7.376179 l 1.886512,2.458726 1.886512,-2.458726 V 17.335941 c 0.356966,-0.11099 0.695703,-0.184305 0.943256,-0.138303 0.451576,0.08392 0.943257,0.491745 0.943257,0.491745 l 0.943256,-0.491745 c 0,-0.983491 -0.645807,-1.578495 -1.365143,-1.759526 -0.657678,-0.165515 -1.531449,-0.188135 -2.407882,-0.19593 V 12.00742 c 0.561835,-0.340646 0.943256,-0.967752 0.943256,-1.694216 z m 6.729912,4.917453 c 0.47904,0.484094 0.816137,1.155712 0.816137,1.966981 -7.2e-5,0.24343 -0.08671,0.478185 -0.243183,0.658862 1.404655,1.298092 2.129695,2.008113 2.129695,3.532498 0,2.658479 -1.151906,3.875184 -3.773024,4.660054 l 1.612009,3.175215 c 1.322067,2.603689 3.684618,4.178807 6.195646,5.656991 2.984303,1.384786 5.879109,2.558663 9.170956,2.96968 -2.292651,-2.225082 -4.731032,-3.905461 -7.407878,-5.618574 -2.185389,-1.490105 -3.449018,-2.865212 -4.854453,-5.199821 1.34948,-1.458395 2.651215,-3.245509 2.746865,-5.345809 0.126134,-2.769679 -1.803608,-6.456077 -3.607217,-6.456077 z"
       style="opacity:0.2;stroke-width:0.96316326" />
    <path
       inkscape:connector-curvature="0"
       id="path10"
       d="m 15.148623,15.230657 h 3.773024 v 19.178064 l -1.886512,2.458726 -1.886512,-2.458726 z"
       style="fill:#ffffff;stroke-width:0.96316326" />
    <path
       inkscape:connector-curvature="0"
       id="path12"
       d="m 17.035135,14.247166 c -1.157499,0.01397 -2.455322,-0.01893 -3.351138,0.20651 -0.719336,0.181031 -1.365143,0.776981 -1.365143,1.760471 l 0.943256,0.491746 c 0,0 0.491681,-0.407828 0.943256,-0.491746 0.862433,-0.160261 2.829769,0.983491 2.829769,0.983491 0,0 1.967336,-1.143752 2.829768,-0.983491 0.451576,0.08392 0.943257,0.491746 0.943257,0.491746 l 0.943256,-0.491746 c 0,-0.98349 -0.645807,-1.57944 -1.365143,-1.760471 -0.895816,-0.225447 -2.193639,-0.192542 -3.351138,-0.20651 z"
       style="fill:#ffffff;stroke-width:0.96316326" />
    <rect
       id="rect14"
       transform="rotate(90)"
       y="-17.97839"
       x="10.313204"
       height="1.8865124"
       width="5.9009428"
       style="fill:#ffffff;stroke-width:0.96316326" />
    <path
       inkscape:connector-curvature="0"
       id="path16"
       d="m 18.921647,9.3297135 c 0,1.0863335 -0.844621,1.9669815 -1.886512,1.9669815 -1.041892,0 -1.886512,-0.880648 -1.886512,-1.9669815 z"
       style="fill:#ffffff;stroke-width:0.96316326" />
    <rect
       id="rect18"
       transform="matrix(0.69219008,0.72171524,-0.69219008,0.72171524,0,0)"
       y="5.0574822"
       x="26.94655"
       height="2.7250137"
       width="2.7250137"
       style="fill:#ffffff;stroke-width:0.96358335" />
    <path
       inkscape:connector-curvature="0"
       id="path20"
       d="m 21.878535,14.247166 c 0.47904,0.484094 0.816137,1.155713 0.816137,1.966981 -7.2e-5,0.243431 -0.08671,0.478185 -0.243183,0.658862 1.404655,1.298093 2.129695,2.008114 2.129695,3.532498 0,2.658479 -1.151906,3.875184 -3.773024,4.660055 l 1.612009,3.175214 c 1.322067,2.603689 3.684618,4.178807 6.195646,5.656991 2.984303,1.384787 5.879109,2.558663 9.170956,2.96968 -2.292651,-2.225082 -4.731032,-3.905461 -7.407878,-5.618573 -2.185389,-1.490106 -3.449018,-2.865212 -4.854453,-5.199822 1.34948,-1.458394 2.651215,-3.245509 2.746865,-5.345809 0.126134,-2.769679 -1.803608,-6.456077 -3.607217,-6.456077 z"
       style="fill:#ffffff;stroke-width:0.96316326" />
  </g>
</svg>
