<?xml version="1.0" encoding="UTF-8" standalone="no"?>
<svg
   xmlns:dc="http://purl.org/dc/elements/1.1/"
   xmlns:cc="http://creativecommons.org/ns#"
   xmlns:rdf="http://www.w3.org/1999/02/22-rdf-syntax-ns#"
   xmlns:svg="http://www.w3.org/2000/svg"
   xmlns="http://www.w3.org/2000/svg"
   xmlns:sodipodi="http://sodipodi.sourceforge.net/DTD/sodipodi-0.dtd"
   xmlns:inkscape="http://www.inkscape.org/namespaces/inkscape"
   width="48"
   height="48"
   version="1.1"
   viewBox="0 0 48 48"
   id="svg22"
   sodipodi:docname="seamonkey.svg"
   inkscape:version="0.92.2pre0 (973e216, 2017-07-25)">
  <metadata
     id="metadata28">
    <rdf:RDF>
      <cc:Work
         rdf:about="">
        <dc:format>image/svg+xml</dc:format>
        <dc:type
           rdf:resource="http://purl.org/dc/dcmitype/StillImage" />
      </cc:Work>
    </rdf:RDF>
  </metadata>
  <defs
     id="defs26" />
  <sodipodi:namedview
     pagecolor="#ffffff"
     bordercolor="#666666"
     borderopacity="1"
     objecttolerance="10"
     gridtolerance="10"
     guidetolerance="10"
     inkscape:pageopacity="0"
     inkscape:pageshadow="2"
     inkscape:window-width="1360"
     inkscape:window-height="740"
     id="namedview24"
     showgrid="false"
     inkscape:zoom="10.443296"
     inkscape:cx="24.40678"
     inkscape:cy="22.983051"
     inkscape:window-x="0"
     inkscape:window-y="0"
     inkscape:window-maximized="1"
     inkscape:current-layer="svg22" />
  <g
     id="g39"
     transform="matrix(1.0129385,0,0,1,-0.30928536,0)">
    <path
       style="opacity:0.2;stroke-width:1.10706186"
       inkscape:connector-curvature="0"
       id="path2"
       d="M 1.7257425,24.28805 A 22.202369,22.080273 0 0 0 1.7018749,24.930586 22.202369,22.080273 0 0 0 23.904244,47.010859 22.202369,22.080273 0 0 0 46.106615,24.930586 22.202369,22.080273 0 0 0 46.083302,24.469108 22.202369,22.080273 0 0 1 23.904244,45.906846 22.202369,22.080273 0 0 1 1.7262975,24.28805 Z" />
    <path
       inkscape:connector-curvature="0"
       id="path4"
       d="m 24.002398,17.133778 c -12.26203,0 -22.3005231,-5.741793 -22.3005231,6.684043 0,12.425838 9.9403401,22.498969 22.2023691,22.498969 12.262031,0 22.202371,-10.073131 22.202371,-22.498969 0,-12.425836 -9.842187,-6.684043 -22.104217,-6.684043 z"
       style="fill:#4882e3;stroke-width:1.11750889" />
    <path
       inkscape:connector-curvature="0"
       id="path6"
       d="M 23.904244,1.3188541 A 22.202369,22.498967 0 0 0 1.7018749,23.817821 a 22.202369,22.498967 0 0 0 0.023849,0.470195 22.202295,22.498891 0 0 1 0.03686,-1.0085 c 0.00957,2.24e-4 0.014293,-2.23e-4 0.023849,0 a 22.202295,22.498891 0 0 1 0.062878,-1.074414 c 2.4250494,-1.231694 4.6432539,-1.724649 6.7300926,-1.737957 1.7589665,-0.01125 3.4266315,0.319739 5.0562435,0.810755 5.580597,0.33278 10.507033,2.747808 16.367744,3.051861 5.518629,-0.247303 12.887055,-3.178707 15.75631,-3.884587 a 22.202295,22.498891 0 0 1 0.25151,1.82145 c 0.0023,2.64e-4 0.0063,-2.65e-4 0.0086,0 a 22.202295,22.498891 0 0 1 0.08239,1.66545 22.202369,22.498967 0 0 0 0.0043,-0.114253 A 22.202369,22.498967 0 0 0 23.904244,1.3188541 Z"
       style="fill:#3a68b6;stroke-width:1.11750889" />
    <path
       inkscape:connector-curvature="0"
       id="path8"
       d="m 45.822581,20.407822 c -3.354096,0.968305 -10.63724,3.689724 -15.819189,3.921939 -9.626706,-0.499433 -16.761996,-6.631163 -28.2863397,-0.219716 0.01864,1.131928 0.1215609,2.260814 0.3078845,3.377042 0.9974818,-0.343433 2.8679799,-0.534926 6.2877799,0.294421 6.2526923,1.516358 15.0973703,0.663083 20.1208983,-0.907429 5.023539,-1.570515 10.128436,-2.179711 13.067742,-2.342178 1.951796,-0.107883 3.56766,0.884453 4.464325,1.575366 0.04268,-0.38011 0.07623,-0.760827 0.09973,-1.142526 0.0235,-0.381697 0.03693,-0.76438 0.04119,-1.14692 a 22.202369,22.498967 0 0 0 -0.284034,-3.409999 z"
       style="fill:#7767c0;stroke-width:1.11750889" />
    <path
       inkscape:connector-curvature="0"
       id="path10"
       d="m 1.7213887,23.27732 c -0.00864,0.18008 -0.015147,0.360261 -0.019514,0.540501 A 22.202369,22.498967 0 0 0 2.178879,28.42308 c 1.1334725,-0.115426 3.1692376,-0.315557 6.7626155,0.555882 6.1037965,1.480256 11.8952925,-1.110067 16.7992155,-2.64319 0.300196,-0.09386 0.600323,-0.169801 0.895468,-0.232899 -0.0034,-8.2e-5 -0.0097,8.4e-5 -0.01301,0 C 18.150234,23.967938 15.037575,23.593117 1.7213887,23.27732 Z m 24.9147893,2.825553 c 1.062716,0.0249 2.254312,-0.0385 3.497306,-0.138421 -1.113215,-0.13451 -2.282289,-0.121327 -3.497306,0.138421 z m 3.497306,-0.138421 c 3.033839,0.366573 5.641987,1.8185 7.560514,2.287249 4.067599,0.993822 6.371972,1.461815 7.655914,1.351255 a 22.202369,22.498967 0 0 0 0.68732,-4.086725 c 0.0041,-0.0611 0.01145,-0.123812 0.01517,-0.184563 a 22.202369,22.498967 0 0 0 0.05421,-1.513847 c -0.0014,-0.03515 -0.0027,-0.0703 -0.0043,-0.105458 -4.986963,0.669049 -11.02866,1.854948 -15.968795,2.252094 z"
       style="fill:#595afd;stroke-width:1.11750889" />
    <path
       inkscape:connector-curvature="0"
       id="path12"
       d="m 32.788571,9.6522485 c -1.811898,-0.083733 -3.585207,0.4684845 -4.640488,1.8224055 -5.76e-4,4e-4 -0.0012,8.02e-4 -0.0018,0.0013 -1.258601,1.637145 -1.922161,3.562751 -2.472542,5.438263 -2e-6,4.01e-4 -2e-6,8.03e-4 0,0.0013 -0.760912,2.626227 -2.045803,5.111785 -3.663231,7.382494 -3.352654,4.683767 -7.868606,8.759721 -13.533227,10.817303 -0.1276409,0.0577 -0.2139202,0.168449 -0.3249536,0.255879 -0.2151924,0.188408 -0.048785,0.523605 0.2446274,0.492763 3.9722862,-0.434878 7.0704932,-3.060225 10.0006782,-5.248046 2.355474,-0.215008 4.678869,-0.643613 6.955949,-1.210116 0.0012,-3.95e-4 0.0023,-7.96e-4 0.0035,-0.0013 3.200171,-0.838315 6.917023,-2.00004 9.100847,-4.51334 2.176897,-2.487692 2.529581,-5.547524 1.734331,-8.546867 -0.270416,-1.198609 -1.699581,-2.427121 -3.10506,-2.686169 -0.03778,-0.123872 0.01251,-0.665915 -0.02474,-0.790833 0.304762,-0.311156 0.938156,-0.548036 1.240484,-0.955761 0.335961,-0.45308 0.61806,-0.77284 0.445857,-1.39393 -0.0092,-0.03283 -0.0247,-0.06386 -0.04562,-0.09163 C 34.33257,9.9277793 33.398543,9.6533289 32.787811,9.6523155 Z"
       style="opacity:0.2;stroke-width:0.83260751" />
    <path
       inkscape:connector-curvature="0"
       id="path14"
       d="m 8.3105496,21.545983 c -2.0302407,0.01295 -4.1870499,0.490115 -6.5306195,1.632494 l -0.00216,0.0044 c -0.047964,0.585453 -0.073279,1.172546 -0.075893,1.759968 -9.78e-5,0.757265 0.037532,1.514053 0.1127464,2.267474 1.4015356,-0.647151 3.1750245,-1.28382 4.3797644,-1.217229 2.9392973,0.162467 10.6872511,5.00864 15.7107791,6.579155 5.023516,1.570513 11.225168,-3.47954 17.47786,-4.995896 3.651204,-0.885468 5.520911,-0.0087 6.461237,0.688609 0.01218,-0.09586 0.02374,-0.19181 0.0347,-0.287829 0.140931,-1.005442 0.221922,-2.018546 0.227661,-3.034284 -0.0076,-0.530285 -0.03357,-0.497157 -0.07805,-1.025576 -0.748652,-0.06878 -2.028543,-0.08818 -3.492972,0.406476 -2.244553,0.758179 -9.51173,2.675959 -14.964918,2.524041 -6.996046,-0.461681 -12.464,-5.323191 -19.2601354,-5.279832 z"
       style="opacity:0.2;stroke-width:1.11750889" />
    <path
       inkscape:connector-curvature="0"
       id="path16"
       d="m 8.3105496,20.421006 c -2.0302407,0.01295 -4.1870499,0.490114 -6.5306195,1.632493 l -0.00216,0.0044 c -0.047964,0.585453 -0.073279,1.172544 -0.075893,1.759966 -9.78e-5,0.757267 0.037532,1.514054 0.1127464,2.267475 1.4015356,-0.64715 3.1750245,-1.283819 4.3797644,-1.217228 2.9392973,0.162466 10.6872511,5.00864 15.7107791,6.579153 5.023516,1.570514 11.225168,-3.479538 17.47786,-4.995895 3.651204,-0.885467 5.520911,-0.0087 6.461237,0.688609 0.01218,-0.09587 0.02374,-0.191811 0.0347,-0.287828 0.140931,-1.005442 0.221922,-2.018546 0.227661,-3.034286 -0.0076,-0.530283 -0.03357,-0.497155 -0.07805,-1.025574 -0.748652,-0.06878 -2.028543,-0.08818 -3.492972,0.406476 -2.244553,0.758179 -9.51173,2.675959 -14.964918,2.52404 -6.996039,-0.461679 -12.463993,-5.323189 -19.2601281,-5.27983 z"
       style="fill:#9182d7;stroke-width:1.11750889" />
    <path
       inkscape:connector-curvature="0"
       id="path18"
       d="m 32.788571,8.8481926 c -1.811898,-0.083733 -3.585207,0.468483 -4.640488,1.8224044 -5.76e-4,4e-4 -0.0012,8.02e-4 -0.0018,0.0013 -1.258601,1.637145 -1.922161,3.562751 -2.472542,5.438263 -2e-6,4.01e-4 -2e-6,8.03e-4 0,0.0013 -0.760912,2.626227 -2.045803,5.111785 -3.663231,7.382494 -3.352654,4.683767 -7.868606,8.759721 -13.533227,10.817303 -0.1276409,0.0577 -0.2139202,0.168449 -0.3249536,0.255879 -0.2151924,0.188408 -0.048785,0.523605 0.2446274,0.492763 3.9722862,-0.434878 7.0704932,-3.060225 10.0006782,-5.248046 2.355474,-0.215007 4.678869,-0.643613 6.955949,-1.210115 0.0012,-3.96e-4 0.0023,-7.97e-4 0.0035,-0.0013 3.200171,-0.838315 6.917023,-2.000041 9.100847,-4.513341 2.176897,-2.487691 2.529581,-5.547524 1.734331,-8.546867 -0.270416,-1.198609 -1.699581,-2.427121 -3.10506,-2.686169 -0.03778,-0.12387 0.01251,-0.665915 -0.02474,-0.790833 0.304762,-0.311156 0.938156,-0.548036 1.240484,-0.95576 0.335961,-0.453081 0.61806,-0.77284 0.445857,-1.3939306 -0.0092,-0.032826 -0.0247,-0.063857 -0.04562,-0.091627 C 34.33257,9.1237234 33.398543,8.849273 32.787811,8.8482595 Z"
       style="fill:#50beee;stroke-width:0.83260751" />
  </g>
</svg>
