<?xml version="1.0" encoding="UTF-8" standalone="no"?>
<svg
   xmlns:dc="http://purl.org/dc/elements/1.1/"
   xmlns:cc="http://creativecommons.org/ns#"
   xmlns:rdf="http://www.w3.org/1999/02/22-rdf-syntax-ns#"
   xmlns:svg="http://www.w3.org/2000/svg"
   xmlns="http://www.w3.org/2000/svg"
   xmlns:xlink="http://www.w3.org/1999/xlink"
   xmlns:sodipodi="http://sodipodi.sourceforge.net/DTD/sodipodi-0.dtd"
   xmlns:inkscape="http://www.inkscape.org/namespaces/inkscape"
   viewBox="0 0 48 48"
   version="1.1"
   id="svg118"
   sodipodi:docname="shutter.svg"
   inkscape:version="0.92.0 r15299">
  <metadata
     id="metadata122">
    <rdf:RDF>
      <cc:Work
         rdf:about="">
        <dc:format>image/svg+xml</dc:format>
        <dc:type
           rdf:resource="http://purl.org/dc/dcmitype/StillImage" />
      </cc:Work>
    </rdf:RDF>
  </metadata>
  <sodipodi:namedview
     pagecolor="#ffffff"
     bordercolor="#666666"
     borderopacity="1"
     objecttolerance="10"
     gridtolerance="10"
     guidetolerance="10"
     inkscape:pageopacity="0"
     inkscape:pageshadow="2"
     inkscape:window-width="1360"
     inkscape:window-height="743"
     id="namedview120"
     showgrid="false"
     inkscape:zoom="13.906433"
     inkscape:cx="31.343432"
     inkscape:cy="23.20518"
     inkscape:window-x="0"
     inkscape:window-y="0"
     inkscape:window-maximized="1"
     inkscape:current-layer="svg118" />
  <defs
     id="defs54">
    <linearGradient
       id="linearGradient3764"
       x1="1"
       x2="47"
       gradientUnits="userSpaceOnUse"
       gradientTransform="matrix(0,-1,1,0,-1.5e-6,47.999998)">
      <stop
         stop-color="#e4e4e4"
         stop-opacity="1"
         id="stop2" />
      <stop
         offset="1"
         stop-color="#eee"
         stop-opacity="1"
         id="stop4" />
    </linearGradient>
    <clipPath
       id="clipPath-420376025">
      <g
         transform="translate(0,-1004.3622)"
         id="g9">
        <path
           d="m -24 13 c 0 1.105 -0.672 2 -1.5 2 -0.828 0 -1.5 -0.895 -1.5 -2 0 -1.105 0.672 -2 1.5 -2 0.828 0 1.5 0.895 1.5 2 z"
           transform="matrix(15.333333,0,0,11.5,414.99999,878.8622)"
           fill="#1890d0"
           id="path7" />
      </g>
    </clipPath>
    <clipPath
       id="clipPath-429196716">
      <g
         transform="translate(0,-1004.3622)"
         id="g14">
        <path
           d="m -24 13 c 0 1.105 -0.672 2 -1.5 2 -0.828 0 -1.5 -0.895 -1.5 -2 0 -1.105 0.672 -2 1.5 -2 0.828 0 1.5 0.895 1.5 2 z"
           transform="matrix(15.333333,0,0,11.5,414.99999,878.8622)"
           fill="#1890d0"
           id="path12" />
      </g>
    </clipPath>
    <linearGradient
       id="linear0"
       gradientUnits="userSpaceOnUse"
       x1="19.54"
       x2="26.06"
       gradientTransform="matrix(2.109118,0,0,2.14076,-18.761917,-596.802139)">
      <stop
         stop-color="#369dcf"
         stop-opacity="1"
         id="stop17" />
      <stop
         offset="1"
         stop-color="#116995"
         stop-opacity="1"
         id="stop19" />
    </linearGradient>
    <linearGradient
       id="linear1"
       gradientUnits="userSpaceOnUse"
       x1="18.15"
       x2="26.439"
       gradientTransform="matrix(2.109118,0,0,2.14076,-18.761917,-596.802139)"
       xlink:href="#linear0" />
    <linearGradient
       id="linear2"
       gradientUnits="userSpaceOnUse"
       x1="15.448"
       x2="18.59"
       gradientTransform="matrix(2.109118,0,0,2.14076,-18.761917,-596.802139)">
      <stop
         stop-color="#787878"
         stop-opacity="1"
         id="stop23" />
      <stop
         offset="1"
         stop-color="#9c9c9c"
         stop-opacity="1"
         id="stop25" />
    </linearGradient>
    <linearGradient
       id="linear3"
       gradientUnits="userSpaceOnUse"
       x1="14.11"
       x2="19.854"
       gradientTransform="matrix(2.109118,0,0,2.14076,-18.761917,-596.802139)"
       xlink:href="#linear2" />
    <linearGradient
       id="linear4"
       gradientUnits="userSpaceOnUse"
       x1="15.259"
       x2="21.51"
       gradientTransform="matrix(2.109118,0,0,2.14076,-18.761917,-596.802139)"
       xlink:href="#linear0" />
    <linearGradient
       id="linear5"
       gradientUnits="userSpaceOnUse"
       x1="19.678"
       x2="23.508"
       gradientTransform="matrix(2.109118,0,0,2.14076,-18.761917,-596.802139)"
       xlink:href="#linear0" />
    <linearGradient
       id="linear6"
       gradientUnits="userSpaceOnUse"
       x1="21.358"
       x2="25.532"
       gradientTransform="matrix(2.109118,0,0,2.14076,-18.761917,-596.802139)"
       xlink:href="#linear0" />
    <linearGradient
       id="linearGradient36"
       gradientUnits="userSpaceOnUse"
       x1="19.54"
       x2="26.06"
       gradientTransform="matrix(2.109118,0,0,2.14076,-18.761917,-596.802139)">
      <stop
         stop-color="#369dcf"
         stop-opacity="1"
         id="stop32" />
      <stop
         offset="1"
         stop-color="#116995"
         stop-opacity="1"
         id="stop34" />
    </linearGradient>
    <linearGradient
       id="linearGradient38"
       gradientUnits="userSpaceOnUse"
       x1="18.15"
       x2="26.439"
       gradientTransform="matrix(2.109118,0,0,2.14076,-18.761917,-596.802139)"
       xlink:href="#linear0" />
    <linearGradient
       id="linearGradient44"
       gradientUnits="userSpaceOnUse"
       x1="15.448"
       x2="18.59"
       gradientTransform="matrix(2.109118,0,0,2.14076,-18.761917,-596.802139)">
      <stop
         stop-color="#787878"
         stop-opacity="1"
         id="stop40" />
      <stop
         offset="1"
         stop-color="#9c9c9c"
         stop-opacity="1"
         id="stop42" />
    </linearGradient>
    <linearGradient
       id="linearGradient46"
       gradientUnits="userSpaceOnUse"
       x1="14.11"
       x2="19.854"
       gradientTransform="matrix(2.109118,0,0,2.14076,-18.761917,-596.802139)"
       xlink:href="#linear2" />
    <linearGradient
       id="linearGradient48"
       gradientUnits="userSpaceOnUse"
       x1="15.259"
       x2="21.51"
       gradientTransform="matrix(2.109118,0,0,2.14076,-18.761917,-596.802139)"
       xlink:href="#linear0" />
    <linearGradient
       id="linearGradient50"
       gradientUnits="userSpaceOnUse"
       x1="19.678"
       x2="23.508"
       gradientTransform="matrix(2.109118,0,0,2.14076,-18.761917,-596.802139)"
       xlink:href="#linear0" />
    <linearGradient
       id="linearGradient52"
       gradientUnits="userSpaceOnUse"
       x1="21.358"
       x2="25.532"
       gradientTransform="matrix(2.109118,0,0,2.14076,-18.761917,-596.802139)"
       xlink:href="#linear0" />
  </defs>
  <g
     id="g66"
     style="fill:#f2f2f2">
    <path
       d="m 24 1 c 12.703 0 23 10.297 23 23 c 0 12.703 -10.297 23 -23 23 -12.703 0 -23 -10.297 -23 -23 0 -12.703 10.297 -23 23 -23 z"
       fill="url(#linearGradient3764)"
       fill-opacity="1"
       id="path64"
       style="fill:#f2f2f2" />
  </g>
  <g
     id="g68" />
  <g
     id="g116"
     style="fill:#f9f9f9">
    <path
       d="m 40.03 7.531 c 3.712 4.084 5.969 9.514 5.969 15.469 0 12.703 -10.297 23 -23 23 c -5.954 0 -11.384 -2.256 -15.469 -5.969 4.178 4.291 10.01 6.969 16.469 6.969 c 12.703 0 23 -10.298 23 -23 0 -6.462 -2.677 -12.291 -6.969 -16.469 z"
       opacity="0.1"
       id="path114"
       style="fill:#f9f9f9" />
  </g>
  <path
     style="fill:#359ccd;fill-opacity:1;stroke:none;stroke-width:1.01609385"
     d="m 43.709271,24.034895 c 0,11.07174 -8.797471,20.047157 -19.649699,20.047157 -10.85223,0 -19.6496997,-8.975417 -19.6496997,-20.047157 0,-11.071737 8.7974697,-20.0471543 19.6496997,-20.0471543 10.852228,0 19.649699,8.9754173 19.649699,20.0471543 z"
     id="path3763"
     inkscape:connector-curvature="0" />
  <path
     inkscape:connector-curvature="0"
     style="fill:#ffffff;stroke-width:0.96966094"
     d="m 29.174046,17.670994 c -2.653545,0.189655 -7.317894,4.661203 -6.662026,4.638574 5.424971,-0.187417 8.813542,0.121893 13.046398,1.424131 0.626751,0.192911 -0.676329,-5.626252 -6.384372,-6.062705 z"
     id="path47143" />
  <path
     inkscape:connector-curvature="0"
     style="fill:#ffffff;stroke-width:0.91797459"
     d="m 21.040874,14.642092 c -1.444184,2.032765 -1.625505,9.988136 -1.252709,9.498138 3.072576,-4.038574 10.436982,-9.026126 14.829051,-11.034506 5.429037,-2.482602 -10.361362,-2.179669 -13.576342,1.536368 z"
     id="path47145" />
  <path
     inkscape:connector-curvature="0"
     style="fill:#585858;fill-opacity:1;stroke-width:0.96966094"
     d="m 14.273022,23.236116 c 0.869328,2.491432 6.432512,5.803432 6.241273,5.181434 -1.581806,-5.145111 -2.154087,-8.468893 -1.975962,-12.856907 0.02636,-0.649713 -5.311808,2.098487 -4.265311,7.675473 z"
     id="path47147" />
  <path
     inkscape:connector-curvature="0"
     style="fill:#585858;fill-opacity:1;stroke-width:0.96966094"
     d="m 14.999567,31.415254 c 2.46385,0.994493 8.644595,-0.96753 8.046449,-1.235084 -4.947558,-2.21287 -7.847323,-3.977342 -11.060209,-7.002518 -0.475725,-0.447889 -1.908718,5.341177 3.01376,8.237602 z"
     id="path47149" />
  <path
     inkscape:connector-curvature="0"
     style="fill:#ffffff;stroke-width:0.96966094"
     d="m 22.127888,36.09526 c 2.355681,-1.225133 4.826696,-7.17152 4.234673,-6.890963 -4.896916,2.320844 -8.12768,3.379723 -12.532952,3.862938 -0.652281,0.07182 2.890183,4.889177 8.298279,3.028025 z"
     id="path47151" />
  <path
     inkscape:connector-curvature="0"
     style="fill:#ffffff;stroke-width:0.96966094"
     d="m 30.435545,33.569498 c 0.575447,-2.573685 -2.414971,-8.281089 -2.580641,-7.651907 -1.370323,5.204306 -2.638597,8.333122 -5.10852,11.979625 -0.365718,0.539929 5.634564,0.96694 7.689161,-4.327718 z"
     id="path47153" />
  <path
     inkscape:connector-curvature="0"
     style="fill:#ffffff;stroke-width:0.96966094"
     d="m 33.706071,25.470353 c -1.600582,-2.10565 -7.922229,-3.561667 -7.547164,-3.028005 3.102337,4.413551 4.678672,7.401732 5.871382,11.631346 0.176603,0.626251 4.402835,-3.615714 1.675782,-8.603341 z"
     id="path47155" />
</svg>
