<?xml version="1.0" encoding="UTF-8" standalone="no"?>
<svg
   xmlns:dc="http://purl.org/dc/elements/1.1/"
   xmlns:cc="http://creativecommons.org/ns#"
   xmlns:rdf="http://www.w3.org/1999/02/22-rdf-syntax-ns#"
   xmlns:svg="http://www.w3.org/2000/svg"
   xmlns="http://www.w3.org/2000/svg"
   xmlns:sodipodi="http://sodipodi.sourceforge.net/DTD/sodipodi-0.dtd"
   xmlns:inkscape="http://www.inkscape.org/namespaces/inkscape"
   viewBox="0 0 48 48"
   version="1.1"
   id="svg61"
   sodipodi:docname="111111soundconverter.svg"
   inkscape:version="0.92.1 r15371">
  <metadata
     id="metadata65">
    <rdf:RDF>
      <cc:Work
         rdf:about="">
        <dc:format>image/svg+xml</dc:format>
        <dc:type
           rdf:resource="http://purl.org/dc/dcmitype/StillImage" />
        <dc:title></dc:title>
      </cc:Work>
    </rdf:RDF>
  </metadata>
  <sodipodi:namedview
     pagecolor="#ffffff"
     bordercolor="#666666"
     borderopacity="1"
     objecttolerance="10"
     gridtolerance="10"
     guidetolerance="10"
     inkscape:pageopacity="0"
     inkscape:pageshadow="2"
     inkscape:window-width="1360"
     inkscape:window-height="740"
     id="namedview63"
     showgrid="false"
     inkscape:zoom="4.9166667"
     inkscape:cx="24"
     inkscape:cy="24"
     inkscape:window-x="0"
     inkscape:window-y="0"
     inkscape:window-maximized="1"
     inkscape:current-layer="svg61" />
  <defs
     id="defs17">
    <linearGradient
       id="linearGradient3764"
       x1="1"
       x2="47"
       gradientUnits="userSpaceOnUse"
       gradientTransform="rotate(-90,23.999998,24)">
      <stop
         stop-color="#dc50b6"
         stop-opacity="1"
         id="stop2" />
      <stop
         offset="1"
         stop-color="#df61be"
         stop-opacity="1"
         id="stop4" />
    </linearGradient>
    <clipPath
       id="clipPath-625867299">
      <g
         transform="translate(0,-1004.3622)"
         id="g9">
        <path
           d="m -24 13 c 0 1.105 -0.672 2 -1.5 2 -0.828 0 -1.5 -0.895 -1.5 -2 0 -1.105 0.672 -2 1.5 -2 0.828 0 1.5 0.895 1.5 2 z"
           transform="matrix(15.333333,0,0,11.5,414.99999,878.8622)"
           fill="#1890d0"
           id="path7" />
      </g>
    </clipPath>
    <clipPath
       id="clipPath-632394149">
      <g
         transform="translate(0,-1004.3622)"
         id="g14">
        <path
           d="m -24 13 c 0 1.105 -0.672 2 -1.5 2 -0.828 0 -1.5 -0.895 -1.5 -2 0 -1.105 0.672 -2 1.5 -2 0.828 0 1.5 0.895 1.5 2 z"
           transform="matrix(15.333333,0,0,11.5,414.99999,878.8622)"
           fill="#1890d0"
           id="path12" />
      </g>
    </clipPath>
  </defs>
  <g
     id="g31" />
  <g
     id="g29"
     transform="matrix(0.99115696,0,0,0.99557848,0.178334,0.41120078)">
    <path
       d="M 24,1 C 36.703,1 47,11.297 47,24 47,36.703 36.703,47 24,47 11.297,47 1,36.703 1,24 1,11.297 11.297,1 24,1 Z"
       id="path27"
       style="fill:url(#linearGradient3764);fill-opacity:1"
       inkscape:connector-curvature="0" />
  </g>
  <g
     id="g862"
     transform="matrix(1.0060391,0,0,1.0241792,58.718283,9.5475014)">
    <path
       d="M -23.515069,-4.9902695 C -34.600755,-11.192993 -48.614668,-7.2348843 -54.817393,3.8508016 L -34.745696,15.081429 Z"
       id="path26"
       inkscape:connector-curvature="0"
       style="fill:#4ab8e6;fill-opacity:1;fill-rule:evenodd;stroke:none" />
    <path
       d="M -34.189204,14.064198 -54.260902,2.8335706 c -6.20272,11.0856864 -2.244615,25.0996004 8.841071,31.3023244 z"
       id="path28"
       inkscape:connector-curvature="0"
       style="fill:#4ab8e6;fill-opacity:1;fill-rule:evenodd;stroke:none" />
  </g>
  <path
     style="fill:#f8f8f8;fill-opacity:1;fill-rule:nonzero;stroke:none;stroke-width:0.95429742"
     inkscape:connector-curvature="0"
     id="path49"
     d="m 34.116701,8.2033906 c -0.26683,0.035 -0.550963,0.152 -0.711243,0.25 -0.213101,0.125 -0.245885,0.234 -0.341506,0.375 -0.192155,0.273 -0.287777,0.609 -0.39888,1 -0.220387,0.7810004 -0.448057,1.8320004 -0.569178,3.1250004 -0.242242,2.582 -0.41254,5.988 -0.540945,9.438 -0.124764,3.449 -0.255903,6.902 -0.569178,9.469 -0.156638,1.285 -0.326934,2.422 -0.569178,3.125 -0.02823,0.082 -0.138423,0.055 -0.171208,0.125 -0.216742,-0.535 -0.434396,-1.359 -0.569178,-2.375 -0.270472,-2.027 -0.291419,-4.723 -0.398878,-7.469 -0.106548,-2.746 -0.291419,-5.5 -0.569178,-7.594 -0.138423,-1.047 -0.302346,-1.957 -0.569178,-2.625 -0.13478,-0.336 -0.274116,-0.625 -0.512713,-0.875 -0.248617,-0.25 -0.550964,-0.5 -1.138356,-0.5 -0.455342,0 -1.02452,0.188 -1.312295,0.375 -0.285044,0.188 -0.412539,0.387 -0.569177,0.625 -0.309632,0.48 -0.423468,1.055 -0.569178,1.75 -0.287777,1.391 -0.469912,3.184 -0.569177,4.969 -0.09562,1.785 -0.14571,3.586 -0.398879,4.875 -0.13205,0.645 -0.391594,1.199 -0.569177,1.5 -0.09562,0.152 -0.138425,0.227 -0.173941,0.25 -0.03917,0 -0.106547,-0.074 -0.171209,-0.125 -0.106547,-0.086 -0.291419,-0.332 -0.401611,-0.625 -0.209456,-0.582 -0.326937,-1.473 -0.39888,-2.375 -0.07103,-0.902 -0.01457,-1.852 -0.341506,-2.625 -0.163924,-0.387 -0.377024,-0.703 -0.796848,-1 -0.419825,-0.293 -1.205746,-0.488 -1.87874,-0.469 -0.815062,0.039 -1.312297,0.418 -1.651071,0.844 -0.337864,0.426 -0.622907,0.922 -0.772259,1.5 -0.291418,1.16 -0.287776,2.684 -0.366096,4.125 -0.07833,1.445 -0.160279,2.84 -0.40161,3.844 -0.106547,0.453 -0.395238,0.785 -0.540947,1 -0.05373,-0.086 -0.142067,-0.121 -0.19944,-0.25 -0.216743,-0.512 -0.423468,-1.285 -0.569177,-2.25 -0.291418,-1.926 -0.41254,-4.492 -0.540945,-7.094 -0.128407,-2.602 -0.134782,-5.238 -0.39888,-7.219 -0.134781,-0.988 -0.323293,-1.836 -0.569178,-2.469 -0.124763,-0.316 -0.352435,-0.512 -0.569177,-0.75 -0.220386,-0.238 -0.483573,-0.625 -1.084625,-0.625 -0.565534,0 -1.1419972,0.277 -1.3660244,0.5 -0.2240283,0.223 -0.2167431,0.461 -0.3415073,0.75 -0.2458841,0.578 -0.4307524,1.324 -0.5691766,2.219 -0.2741157,1.789 -0.4234684,4.133 -0.5691778,6.469 -0.1457094,2.34 -0.2777577,4.664 -0.5691766,6.375 -0.1457094,0.855 -0.3624526,1.535 -0.5691778,1.969 -0.121121,-0.223 -0.4735556,-0.484 -0.5691777,-0.875 -0.2385989,-0.977 -0.2777578,-2.223 -0.3988788,-3.594 -0.1174731,-1.371 -0.1885115,-2.785 -0.5127145,-3.875 -0.1639232,-0.543 -0.455342,-1.07 -0.7968482,-1.469 -0.3415074,-0.398 -0.9216124,-0.75 -1.7075325,-0.75 -0.391594,0 -0.7576888,0.121 -1.0245192,0.281 v 14.188 c 0.063748,-1.285 0.078319,-2.648 0.1138358,-4.03 0.060105,-2.469 0.1848689,-4.895 0.3988795,-6.719 0.1065505,-0.906 0.1493521,-1.625 0.3415064,-2.094 0.067391,-0.16 0.1675659,-0.293 0.2276709,-0.375 0.024588,0.012 0.095622,0.039 0.1712086,0.125 0.1712084,0.203 0.1994397,0.617 0.3415063,1.094 0.2841334,0.961 0.4480565,2.262 0.5691769,3.625 0.121121,1.367 0.3059894,2.758 0.5691778,3.844 0.1320483,0.547 0.2850441,0.98 0.5691766,1.375 0.1420674,0.203 0.3059905,0.477 0.5691778,0.625 0.2631872,0.16 0.5691766,0.238 0.9680565,0.25 0.5482314,0 1.0636786,-0.27 1.3095627,-0.5 0.2486168,-0.223 0.4371283,-0.461 0.5691778,-0.75 0.2704736,-0.566 0.4198251,-1.316 0.5691778,-2.219 0.3023461,-1.781 0.4234671,-4.04 0.5691766,-6.375 0.1457094,-2.34 0.3059905,-4.742 0.5691774,-6.469 0.106547,-0.695 0.195797,-1.184 0.341507,-1.625 0.156637,0.5 0.462628,1.191 0.569177,2 0.255902,1.918 0.444414,4.492 0.569177,7.094 0.132049,2.605 0.26683,5.227 0.569178,7.219 0.152994,1 0.291419,1.859 0.569177,2.5 0.138423,0.324 0.326935,0.508 0.569177,0.75 0.245885,0.246 0.533661,0.609 1.110123,0.625 0.81142,0.039 1.550894,-0.461 1.87874,-0.875 0.330579,-0.41 0.434397,-0.93 0.569178,-1.5 0.274117,-1.133 0.490859,-2.52 0.569178,-3.969 0.07833,-1.441 0.08196,-2.844 0.341506,-3.875 0.132049,-0.512 0.220385,-0.898 0.401611,-1.125 0.173942,-0.223 0.35972,-0.25 0.398879,-0.25 0.213101,0 0.224029,0.047 0.341508,0.125 0.113831,0.082 0.277758,0.223 0.40161,0.5 0.2386,0.559 0.323295,1.48 0.39888,2.375 0.06739,0.898 0.06012,1.855 0.341507,2.625 0.142066,0.387 0.366095,0.695 0.743118,1 0.369738,0.309 1.045464,0.469 1.707532,0.469 0.455341,0 0.856953,-0.055 1.138354,-0.25 0.277758,-0.184 0.423467,-0.477 0.569178,-0.719 0.287775,-0.477 0.434396,-1.055 0.569177,-1.75 0.270472,-1.387 0.473555,-3.215 0.569177,-5 0.09288,-1.781 0.06739,-3.555 0.341505,-4.844 0.13205,-0.641 0.373383,-1.074 0.569178,-1.375 0.04644,0.082 0.177585,0.141 0.227672,0.25 0.209458,0.535 0.434395,1.363 0.569178,2.375 0.270471,2.027 0.234955,4.723 0.341506,7.469 0.102905,2.746 0.287775,5.504 0.569178,7.594 0.134779,1.047 0.298703,1.961 0.569176,2.625 0.132048,0.336 0.326936,0.605 0.569177,0.855 0.2386,0.25 0.707601,0.5 1.309564,0.5 0.345148,0 0.558249,-0.129 0.768616,-0.25 0.213101,-0.125 0.427112,-0.203 0.540948,-0.355 0.234955,-0.285 0.430752,-0.59 0.569175,-1 0.285045,-0.813 0.408898,-1.938 0.569178,-3.25 0.320561,-2.621 0.416183,-6.141 0.540946,-9.594 0.128407,-3.449 0.334221,-6.898 0.569177,-9.438 0.08924,-0.949 0.07103,-1.605 0.199441,-2.25 0.181225,0.766 0.416182,1.656 0.540945,2.844 0.295063,2.781 0.643853,6.527 0.796849,10.219 0.156638,3.695 0.291419,7.445 0.569177,10.219 0.142066,1.395 0.341506,2.504 0.569177,3.355 0.117473,0.418 0.16028,0.711 0.341505,1 0.09562,0.141 0.209458,0.355 0.401613,0.5 0.188512,0.133 0.512716,0.262 0.910684,0.25 0.558249,-0.039 0.921611,-0.277 1.138354,-0.5 0.216742,-0.23 0.444415,-0.473 0.569178,-0.75 0.248617,-0.582 0.419825,-1.332 0.569177,-2.23 0.291419,-1.77 0.405254,-4.176 0.569177,-6.5 0.160282,-2.313 0.285045,-4.629 0.569177,-6.344 0.138424,-0.852 0.373381,-1.516 0.569178,-1.969 0.110189,0.219 0.25226,0.352 0.341507,0.719 0.231313,0.969 0.2814,2.371 0.398879,3.75 0.117473,1.383 0.245884,2.742 0.569178,3.844 0.16028,0.563 0.395235,1.105 0.740385,1.5 0.224028,0.273 0.615622,0.492 1.081892,0.625 v -2.594 c -0.245885,-0.953 -0.401611,-2.215 -0.512715,-3.5 -0.117473,-1.375 -0.309632,-2.668 -0.569177,-3.75 -0.13205,-0.539 -0.277758,-1.074 -0.569177,-1.469 -0.145709,-0.195 -0.287776,-0.344 -0.569177,-0.5 -0.281402,-0.156 -0.683014,-0.262 -1.081894,-0.25 -0.561892,0 -0.921611,0.277 -1.138353,0.5 -0.216744,0.223 -0.274116,0.461 -0.39888,0.75 -0.252259,0.578 -0.423467,1.332 -0.569177,2.219 -0.295062,1.781 -0.580106,4.148 -0.743119,6.469 -0.16028,2.324 -0.285043,4.66 -0.569176,6.375 -0.102905,0.648 -0.259546,1.039 -0.39888,1.48 -0.195797,-0.754 -0.437127,-1.781 -0.569177,-3.105 -0.274116,-2.727 -0.416182,-6.395 -0.569178,-10.09 -0.152994,-3.695 -0.2131,-7.395 -0.512714,-10.219 -0.14571,-1.41 -0.323293,-2.59 -0.569178,-3.469 -0.121121,-0.4380004 -0.209457,-0.8240004 -0.39888,-1.1250004 -0.09562,-0.152 -0.231313,-0.238 -0.40161,-0.375 -0.167568,-0.137 -0.533661,-0.332 -0.910684,-0.375 -0.09288,-0.008 -0.167566,-0.012 -0.25226,0 m 0.0073,-0.004" />
</svg>
