<?xml version="1.0" encoding="UTF-8" standalone="no"?>
<svg
   xmlns:dc="http://purl.org/dc/elements/1.1/"
   xmlns:cc="http://creativecommons.org/ns#"
   xmlns:rdf="http://www.w3.org/1999/02/22-rdf-syntax-ns#"
   xmlns:svg="http://www.w3.org/2000/svg"
   xmlns="http://www.w3.org/2000/svg"
   xmlns:xlink="http://www.w3.org/1999/xlink"
   xmlns:sodipodi="http://sodipodi.sourceforge.net/DTD/sodipodi-0.dtd"
   xmlns:inkscape="http://www.inkscape.org/namespaces/inkscape"
   width="48px"
   height="48px"
   viewBox="0 0 48 48"
   version="1.1"
   id="svg23"
   sodipodi:docname="spring-tool-suite.svg"
   inkscape:version="0.92.2pre0 (973e216, 2017-07-25)">
  <metadata
     id="metadata27">
    <rdf:RDF>
      <cc:Work
         rdf:about="">
        <dc:format>image/svg+xml</dc:format>
        <dc:type
           rdf:resource="http://purl.org/dc/dcmitype/StillImage" />
      </cc:Work>
    </rdf:RDF>
  </metadata>
  <sodipodi:namedview
     pagecolor="#ffffff"
     bordercolor="#666666"
     borderopacity="1"
     objecttolerance="10"
     gridtolerance="10"
     guidetolerance="10"
     inkscape:pageopacity="0"
     inkscape:pageshadow="2"
     inkscape:window-width="1360"
     inkscape:window-height="691"
     id="namedview25"
     showgrid="false"
     inkscape:zoom="4.9166667"
     inkscape:cx="24.81356"
     inkscape:cy="21.966102"
     inkscape:window-x="0"
     inkscape:window-y="0"
     inkscape:window-maximized="1"
     inkscape:current-layer="svg23" />
  <!-- Generator: Sketch 46.2 (44496) - http://www.bohemiancoding.com/sketch -->
  <title
     id="title2">spring （工具类）-48</title>
  <desc
     id="desc4">Created with Sketch.</desc>
  <defs
     id="defs7">
    <path
       d="M7.6101678,32.5881269 C22.1410183,33.993981 30.9902606,32.1532019 34.1578947,27.0657895 C37.8245614,21.9517544 37.7763158,12.9298246 34.0131579,0 C28.9473684,10.4210526 17.3684211,11 11.7236842,11 C7.96052632,11 4.87280702,12.5438596 2.46052632,15.6315789 C-1.10964912,20.745614 -0.627192982,25.4254386 3.90789474,29.6710526 C18.4780702,27.2587719 27.7894737,21.5657895 31.8421053,12.5921053 C28.3328586,23.4992233 20.2555435,30.1645636 7.61016015,32.5881262 Z"
       id="path-1" />
  </defs>
  <g
     style="fill:none;fill-rule:evenodd;stroke:none;stroke-width:1"
     transform="translate(-254,-153)"
     id="原图" />
  <ellipse
     style="fill:#ffffff;fill-rule:evenodd;stroke:none;stroke-width:1.03928864"
     cy="24.101696"
     cx="24"
     id="Oval-5"
     rx="22.81356"
     ry="22.915255" />
  <g
     style="fill:none;fill-rule:evenodd;stroke:none;stroke-width:1"
     id="Combined-Shape"
     transform="matrix(0.89762557,0,0,0.9286324,7.674746,9.5646501)">
    <use
       xlink:href="#path-1"
       id="use13"
       style="fill:#6db33f;fill-rule:evenodd"
       x="0"
       y="0"
       width="100%"
       height="100%" />
    <path
       d="M 28.717317,18.44257 C 23.662223,24.369505 15.409913,28.273551 3.9895644,30.164338 L 3.7462358,30.204624 3.5661826,30.036063 C -1.1506698,25.620287 -1.6617344,20.66296 2.0665141,15.323757 4.572457,12.11615 7.804757,10.5 11.723684,10.5 c 4.272204,0 7.749259,-0.385447 11.200094,-1.5652198 4.764162,-1.6287735 8.409883,-4.5663328 10.639696,-9.15337655 l 0.567209,-1.16683015 0.362555,1.24570167 C 38.295358,12.923969 38.344347,22.084883 34.582343,27.330069 31.280001,32.63383 22.267556,34.508558 7.5620178,33.085803 L 4.1031814,32.751162 7.5160527,32.097065 C 17.461626,30.190935 24.517012,25.645236 28.717317,18.44257 Z"
       id="path15"
       inkscape:connector-curvature="0"
       style="stroke:#ffffff;stroke-width:1" />
  </g>
  <ellipse
     id="Oval-6"
     cx="9.8916149"
     cy="39.780556"
     style="fill:#6db33f;fill-rule:evenodd;stroke:none;stroke-width:1.03928864"
     rx="1.8010706"
     ry="1.8090991" />
</svg>
