<?xml version="1.0" encoding="UTF-8" standalone="no"?>
<svg
   xmlns:dc="http://purl.org/dc/elements/1.1/"
   xmlns:cc="http://creativecommons.org/ns#"
   xmlns:rdf="http://www.w3.org/1999/02/22-rdf-syntax-ns#"
   xmlns:svg="http://www.w3.org/2000/svg"
   xmlns="http://www.w3.org/2000/svg"
   xmlns:sodipodi="http://sodipodi.sourceforge.net/DTD/sodipodi-0.dtd"
   xmlns:inkscape="http://www.inkscape.org/namespaces/inkscape"
   width="48"
   height="48"
   version="1"
   id="svg20"
   sodipodi:docname="stacer.svg"
   inkscape:version="0.92.2pre0 (973e216, 2017-07-25)">
  <metadata
     id="metadata26">
    <rdf:RDF>
      <cc:Work
         rdf:about="">
        <dc:format>image/svg+xml</dc:format>
        <dc:type
           rdf:resource="http://purl.org/dc/dcmitype/StillImage" />
      </cc:Work>
    </rdf:RDF>
  </metadata>
  <defs
     id="defs24" />
  <sodipodi:namedview
     pagecolor="#ffffff"
     bordercolor="#666666"
     borderopacity="1"
     objecttolerance="10"
     gridtolerance="10"
     guidetolerance="10"
     inkscape:pageopacity="0"
     inkscape:pageshadow="2"
     inkscape:window-width="1360"
     inkscape:window-height="740"
     id="namedview22"
     showgrid="false"
     inkscape:zoom="4.9166667"
     inkscape:cx="24"
     inkscape:cy="24"
     inkscape:window-x="0"
     inkscape:window-y="0"
     inkscape:window-maximized="1"
     inkscape:current-layer="svg20" />
  <rect
     style="fill:#3c5771;stroke-width:1.13307106"
     width="45.357586"
     height="45.288132"
     x="-46.510128"
     y="-46.440674"
     rx="22.678793"
     ry="22.644066"
     transform="matrix(0,-1,-1,0,0,0)"
     id="rect4" />
  <path
     style="opacity:0.2;stroke-width:1.13307106"
     d="M 36.920105,28.487096 23.210539,27.155878 24.382682,22.774671 Z"
     id="path6"
     inkscape:connector-curvature="0" />
  <path
     style="opacity:0.2;stroke-width:1.13307106"
     d="M 23.79661,5.688301 A 2.2644068,2.2678794 0 0 0 21.532204,7.9561803 2.2644068,2.2678794 0 0 0 23.79661,10.22406 2.2644068,2.2678794 0 0 0 26.061017,7.9561803 2.2644068,2.2678794 0 0 0 23.79661,5.688301 Z M 13.606779,9.0901199 A 2.2644068,2.2678794 0 0 0 11.342373,11.358 2.2644068,2.2678794 0 0 0 13.606779,13.625878 2.2644068,2.2678794 0 0 0 15.871187,11.358 2.2644068,2.2678794 0 0 0 13.606779,9.0901199 Z m 20.379662,0 A 2.2644068,2.2678794 0 0 0 31.722033,11.358 2.2644068,2.2678794 0 0 0 33.986441,13.625878 2.2644068,2.2678794 0 0 0 36.250847,11.358 2.2644068,2.2678794 0 0 0 33.986441,9.0901199 Z M 7.9457628,15.893758 a 2.2644068,2.2678794 0 0 0 -2.2644069,2.267878 2.2644068,2.2678794 0 0 0 2.2644069,2.26788 2.2644068,2.2678794 0 0 0 2.2644072,-2.26788 2.2644068,2.2678794 0 0 0 -2.2644072,-2.267878 z m 31.7016962,0 a 2.2644068,2.2678794 0 0 0 -2.264408,2.267878 2.2644068,2.2678794 0 0 0 2.264408,2.26788 2.2644068,2.2678794 0 0 0 2.264405,-2.26788 2.2644068,2.2678794 0 0 0 -2.264405,-2.267878 z M 6.8135592,24.965274 a 2.2644068,2.2678794 0 0 0 -2.2644067,2.26788 2.2644068,2.2678794 0 0 0 2.2644067,2.267879 2.2644068,2.2678794 0 0 0 2.2644066,-2.267879 2.2644068,2.2678794 0 0 0 -2.2644066,-2.26788 z m 33.9661018,0 a 2.2644068,2.2678794 0 0 0 -2.264407,2.26788 2.2644068,2.2678794 0 0 0 2.264407,2.267879 2.2644068,2.2678794 0 0 0 2.264407,-2.267879 2.2644068,2.2678794 0 0 0 -2.264407,-2.26788 z m -29.437288,9.071517 a 2.2644068,2.2678794 0 0 0 -2.2644072,2.267881 2.2644068,2.2678794 0 0 0 2.2644072,2.267878 2.2644068,2.2678794 0 0 0 2.264406,-2.267878 2.2644068,2.2678794 0 0 0 -2.264406,-2.267881 z m 24.908474,0 a 2.2644068,2.2678794 0 0 0 -2.264406,2.267881 2.2644068,2.2678794 0 0 0 2.264406,2.267878 2.2644068,2.2678794 0 0 0 2.264407,-2.267878 2.2644068,2.2678794 0 0 0 -2.264407,-2.267881 z"
     id="path8"
     inkscape:connector-curvature="0" />
  <path
     style="fill:#64dedc;stroke-width:1.13307106"
     d="M 23.79661,4.5543613 A 2.2644068,2.2678794 0 0 0 21.532204,6.8222406 2.2644068,2.2678794 0 0 0 23.79661,9.0901199 2.2644068,2.2678794 0 0 0 26.061017,6.8222406 2.2644068,2.2678794 0 0 0 23.79661,4.5543613 Z m -10.189831,3.401819 a 2.2644068,2.2678794 0 0 0 -2.264406,2.2678797 2.2644068,2.2678794 0 0 0 2.264406,2.267878 2.2644068,2.2678794 0 0 0 2.264408,-2.267878 2.2644068,2.2678794 0 0 0 -2.264408,-2.2678797 z m 20.379662,0 A 2.2644068,2.2678794 0 0 0 31.722033,10.22406 2.2644068,2.2678794 0 0 0 33.986441,12.491938 2.2644068,2.2678794 0 0 0 36.250847,10.22406 2.2644068,2.2678794 0 0 0 33.986441,7.9561803 Z M 7.9457628,14.759818 A 2.2644068,2.2678794 0 0 0 5.6813559,17.027697 2.2644068,2.2678794 0 0 0 7.9457628,19.295576 2.2644068,2.2678794 0 0 0 10.21017,17.027697 2.2644068,2.2678794 0 0 0 7.9457628,14.759818 Z m 31.7016962,0 a 2.2644068,2.2678794 0 0 0 -2.264408,2.267879 2.2644068,2.2678794 0 0 0 2.264408,2.267879 2.2644068,2.2678794 0 0 0 2.264405,-2.267879 2.2644068,2.2678794 0 0 0 -2.264405,-2.267879 z M 6.8135592,23.831336 a 2.2644068,2.2678794 0 0 0 -2.2644067,2.267878 2.2644068,2.2678794 0 0 0 2.2644067,2.26788 2.2644068,2.2678794 0 0 0 2.2644066,-2.26788 2.2644068,2.2678794 0 0 0 -2.2644066,-2.267878 z m 33.9661018,0 a 2.2644068,2.2678794 0 0 0 -2.264407,2.267878 2.2644068,2.2678794 0 0 0 2.264407,2.26788 2.2644068,2.2678794 0 0 0 2.264407,-2.26788 2.2644068,2.2678794 0 0 0 -2.264407,-2.267878 z m -29.437288,9.071516 a 2.2644068,2.2678794 0 0 0 -2.2644072,2.267879 2.2644068,2.2678794 0 0 0 2.2644072,2.267879 2.2644068,2.2678794 0 0 0 2.264406,-2.267879 2.2644068,2.2678794 0 0 0 -2.264406,-2.267879 z m 24.908474,0 a 2.2644068,2.2678794 0 0 0 -2.264406,2.267879 2.2644068,2.2678794 0 0 0 2.264406,2.267879 2.2644068,2.2678794 0 0 0 2.264407,-2.267879 2.2644068,2.2678794 0 0 0 -2.264407,-2.267879 z"
     id="path10"
     inkscape:connector-curvature="0" />
  <path
     style="fill:#f0f2f7;stroke-width:1.13307106"
     d="M 36.920105,27.353157 23.210539,26.021938 24.382682,21.640732 Z"
     id="path12"
     inkscape:connector-curvature="0" />
  <ellipse
     style="opacity:0.2;stroke-width:1.1330713"
     cx="17.94375"
     cy="-29.440725"
     transform="matrix(-0.25844924,0.96602484,-0.96582654,-0.25918932,0,0)"
     id="circle14"
     rx="4.5352941"
     ry="4.5292788" />
  <ellipse
     style="fill:#24303e;stroke-width:1.1330713"
     cx="16.849611"
     cy="-29.147455"
     transform="matrix(-0.25844924,0.96602484,-0.96582654,-0.25918932,0,0)"
     id="circle16"
     rx="4.5352941"
     ry="4.5292788" />
  <path
     style="opacity:0.1;fill:#ffffff;stroke-width:1.13307106"
     d="m 23.79661,1.1525423 c -12.544814,0 -22.6440676,10.1147407 -22.6440676,22.6787937 0,0.190357 0.00866,0.377761 0.013268,0.566968 C 1.4654724,12.09944 11.441864,2.2864821 23.79661,2.2864821 c 12.354746,0 22.331139,9.8129579 22.630799,22.1118219 0.0046,-0.189207 0.01327,-0.376611 0.01327,-0.566968 0,-12.564053 -10.099254,-22.6787937 -22.644069,-22.6787937 z"
     id="path18"
     inkscape:connector-curvature="0" />
</svg>
