<?xml version="1.0" encoding="UTF-8" standalone="no"?>
<svg
   xmlns:dc="http://purl.org/dc/elements/1.1/"
   xmlns:cc="http://creativecommons.org/ns#"
   xmlns:rdf="http://www.w3.org/1999/02/22-rdf-syntax-ns#"
   xmlns:svg="http://www.w3.org/2000/svg"
   xmlns="http://www.w3.org/2000/svg"
   xmlns:sodipodi="http://sodipodi.sourceforge.net/DTD/sodipodi-0.dtd"
   xmlns:inkscape="http://www.inkscape.org/namespaces/inkscape"
   viewBox="0 0 48 48"
   id="svg2"
   version="1.1"
   inkscape:version="0.48.4 r9939"
   width="100%"
   height="100%"
   sodipodi:docname="steam.svg">
  <metadata
     id="metadata79">
    <rdf:RDF>
      <cc:Work
         rdf:about="">
        <dc:format>image/svg+xml</dc:format>
        <dc:type
           rdf:resource="http://purl.org/dc/dcmitype/StillImage" />
      </cc:Work>
    </rdf:RDF>
  </metadata>
  <sodipodi:namedview
     pagecolor="#ffffff"
     bordercolor="#666666"
     borderopacity="1"
     objecttolerance="10"
     gridtolerance="10"
     guidetolerance="10"
     inkscape:pageopacity="0"
     inkscape:pageshadow="2"
     inkscape:window-width="1360"
     inkscape:window-height="715"
     id="namedview77"
     showgrid="false"
     inkscape:zoom="4.9166667"
     inkscape:cx="24"
     inkscape:cy="22.372881"
     inkscape:window-x="0"
     inkscape:window-y="30"
     inkscape:window-maximized="1"
     inkscape:current-layer="svg2" />
  <defs
     id="defs4">
    <linearGradient
       id="linearGradient3764"
       x1="1"
       x2="47"
       gradientUnits="userSpaceOnUse"
       gradientTransform="matrix(0,-1,1,0,-1.5e-6,47.999998)">
      <stop
         style="stop-color:#333;stop-opacity:1"
         id="stop7" />
      <stop
         offset="1"
         style="stop-color:#3d3d3d;stop-opacity:1"
         id="stop9" />
    </linearGradient>
    <clipPath
       id="clipPath-478329641">
      <g
         transform="translate(0,-1004.3622)"
         id="g12">
        <path
           d="m -24 13 c 0 1.105 -0.672 2 -1.5 2 -0.828 0 -1.5 -0.895 -1.5 -2 0 -1.105 0.672 -2 1.5 -2 0.828 0 1.5 0.895 1.5 2 z"
           transform="matrix(15.333333,0,0,11.5,414.99999,878.8622)"
           style="fill:#1890d0"
           id="path14" />
      </g>
    </clipPath>
    <clipPath
       id="clipPath-483879499">
      <g
         transform="translate(0,-1004.3622)"
         id="g17">
        <path
           d="m -24 13 c 0 1.105 -0.672 2 -1.5 2 -0.828 0 -1.5 -0.895 -1.5 -2 0 -1.105 0.672 -2 1.5 -2 0.828 0 1.5 0.895 1.5 2 z"
           transform="matrix(15.333333,0,0,11.5,414.99999,878.8622)"
           style="fill:#1890d0"
           id="path19" />
      </g>
    </clipPath>
  </defs>
  <g
     id="g21">
    <path
       d="m 36.31 5 c 5.859 4.062 9.688 10.831 9.688 18.5 c 0 12.426 -10.07 22.5 -22.5 22.5 c -7.669 0 -14.438 -3.828 -18.5 -9.688 c 1.037 1.822 2.306 3.499 3.781 4.969 c 4.085 3.712 9.514 5.969 15.469 5.969 c 12.703 0 23 -10.298 23 -23 c 0 -5.954 -2.256 -11.384 -5.969 -15.469 c -1.469 -1.475 -3.147 -2.744 -4.969 -3.781 z m 4.969 3.781 c 3.854 4.113 6.219 9.637 6.219 15.719 c 0 12.703 -10.297 23 -23 23 c -6.081 0 -11.606 -2.364 -15.719 -6.219 c 4.16 4.144 9.883 6.719 16.219 6.719 c 12.703 0 23 -10.298 23 -23 c 0 -6.335 -2.575 -12.06 -6.719 -16.219 z"
       style="opacity:0.05"
       id="path23" />
    <path
       d="m 41.28 8.781 c 3.712 4.085 5.969 9.514 5.969 15.469 c 0 12.703 -10.297 23 -23 23 c -5.954 0 -11.384 -2.256 -15.469 -5.969 c 4.113 3.854 9.637 6.219 15.719 6.219 c 12.703 0 23 -10.298 23 -23 c 0 -6.081 -2.364 -11.606 -6.219 -15.719 z"
       style="opacity:0.1"
       id="path25" />
    <path
       d="m 31.25 2.375 c 8.615 3.154 14.75 11.417 14.75 21.13 c 0 12.426 -10.07 22.5 -22.5 22.5 c -9.708 0 -17.971 -6.135 -21.12 -14.75 a 23 23 0 0 0 44.875 -7 a 23 23 0 0 0 -16 -21.875 z"
       style="opacity:0.2"
       id="path27" />
  </g>
  <path
     inkscape:connector-curvature="0"
     id="path31"
     style="fill:#4a5b6e;fill-opacity:1"
     d="M 24,1 C 36.703,1 47,11.297 47,24 47,36.703 36.703,47 24,47 11.297,47 1,36.703 1,24 1,11.297 11.297,1 24,1 z" />
  <g
     id="g33"
     transform="matrix(1,0,0,1.0795873,0,-1.971997)">
    <g
       id="g35"
       clip-path="url(#clipPath-478329641)">
      <g
         transform="translate(1,1)"
         id="g37">
        <g
           style="opacity:0.1"
           id="g39">
          <!-- color: #3d3d3d -->
          <g
             id="g41">
            <path
               d="m 31.31,12 c -3.129,0 -5.691,2.477 -5.691,5.5 0,3.02 2.566,5.504 5.691,5.504 3.125,0 5.688,-2.48 5.688,-5.504 0,-3.02 -2.563,-5.5 -5.688,-5.5 m 0,1.848 c 2.102,0 3.777,1.621 3.777,3.652 0,2.035 -1.676,3.656 -3.777,3.656 -2.105,0 -3.781,-1.621 -3.781,-3.656 0,-2.031 1.676,-3.652 3.781,-3.652 m 0,0"
               style="fill:#000000;fill-opacity:1;fill-rule:nonzero;stroke:none"
               id="path43"
               inkscape:connector-curvature="0" />
            <path
               d="m 33.746,17.496 c 0,1.301 -1.09,2.355 -2.438,2.355 -1.344,0 -2.438,-1.055 -2.438,-2.355 0,-1.305 1.094,-2.359 2.438,-2.359 1.348,0 2.438,1.055 2.438,2.359 m 0,0"
               style="fill:#000000;fill-opacity:1;fill-rule:nonzero;stroke:none"
               id="path45"
               inkscape:connector-curvature="0" />
            <path
               d="m 26.434,19.852 0,7.07 4.063,0.785 3.473,-5.867 -3.625,0 m -3.91,-1.992"
               style="fill:#000000;fill-opacity:1;fill-rule:nonzero;stroke:none"
               id="path47"
               inkscape:connector-curvature="0" />
            <path
               d="m 27.25,26.14 c -2.23,0 -4.063,1.77 -4.063,3.93 0,2.16 1.832,3.93 4.063,3.93 2.234,0 4.066,-1.77 4.066,-3.93 0,-2.16 -1.832,-3.93 -4.066,-3.93 m 0,1.32 c 1.504,0 2.699,1.156 2.699,2.609 0,1.453 -1.195,2.609 -2.699,2.609 -1.5,0 -2.699,-1.156 -2.699,-2.609 0,-1.453 1.199,-2.609 2.699,-2.609 m 0,0"
               style="fill:#000000;fill-opacity:1;fill-rule:nonzero;stroke:none"
               id="path49"
               inkscape:connector-curvature="0" />
            <path
               d="m 15.06,20.637 c -2.23,0 -4.063,1.773 -4.063,3.93 0,2.16 1.832,3.934 4.063,3.934 2.234,0 4.066,-1.773 4.066,-3.934 0,-2.156 -1.832,-3.93 -4.066,-3.93 m -0.008,1.574 c 1.629,0 2.441,0.785 2.441,2.355 0,1.574 -0.813,2.359 -2.441,2.359 -1.625,0 -2.438,-0.785 -2.438,-2.359 0,-1.57 0.813,-2.355 2.438,-2.355 m 0,0"
               style="fill:#000000;fill-opacity:1;fill-rule:nonzero;stroke:none"
               id="path51"
               inkscape:connector-curvature="0" />
            <path
               d="m 15.953,23.16 c -0.922,-0.379 -1.984,0.035 -2.375,0.93 -0.391,0.891 0.039,1.922 0.961,2.297 l 12.07,5.25 c 0.922,0.379 1.988,-0.035 2.379,-0.93 0.391,-0.891 -0.039,-1.922 -0.961,-2.297 m -12.08,-5.25"
               style="fill:#000000;fill-opacity:1;fill-rule:nonzero;stroke:none"
               id="path53"
               inkscape:connector-curvature="0" />
          </g>
        </g>
      </g>
    </g>
  </g>
  <g
     id="g55"
     transform="matrix(1,0,0,1.0795873,0,-1.971997)">
    <g
       id="g57"
       clip-path="url(#clipPath-483879499)">
      <!-- color: #3d3d3d -->
      <g
         id="g59">
        <path
           d="m 31.31,12 c -3.129,0 -5.691,2.477 -5.691,5.5 0,3.02 2.566,5.504 5.691,5.504 3.125,0 5.688,-2.48 5.688,-5.504 0,-3.02 -2.563,-5.5 -5.688,-5.5 m 0,1.848 c 2.102,0 3.777,1.621 3.777,3.652 0,2.035 -1.676,3.656 -3.777,3.656 -2.105,0 -3.781,-1.621 -3.781,-3.656 0,-2.031 1.676,-3.652 3.781,-3.652 m 0,0"
           style="fill:#f9f9f9;fill-opacity:1;fill-rule:nonzero;stroke:none"
           id="path61"
           inkscape:connector-curvature="0" />
        <path
           d="m 33.746,17.496 c 0,1.301 -1.09,2.355 -2.438,2.355 -1.344,0 -2.438,-1.055 -2.438,-2.355 0,-1.305 1.094,-2.359 2.438,-2.359 1.348,0 2.438,1.055 2.438,2.359 m 0,0"
           style="fill:#f9f9f9;fill-opacity:1;fill-rule:nonzero;stroke:none"
           id="path63"
           inkscape:connector-curvature="0" />
        <path
           d="m 26.434,19.852 0,7.07 4.063,0.785 3.473,-5.867 -3.625,0 m -3.91,-1.992"
           style="fill:#f9f9f9;fill-opacity:1;fill-rule:nonzero;stroke:none"
           id="path65"
           inkscape:connector-curvature="0" />
        <path
           d="m 27.25,26.14 c -2.23,0 -4.063,1.77 -4.063,3.93 0,2.16 1.832,3.93 4.063,3.93 2.234,0 4.066,-1.77 4.066,-3.93 0,-2.16 -1.832,-3.93 -4.066,-3.93 m 0,1.32 c 1.504,0 2.699,1.156 2.699,2.609 0,1.453 -1.195,2.609 -2.699,2.609 -1.5,0 -2.699,-1.156 -2.699,-2.609 0,-1.453 1.199,-2.609 2.699,-2.609 m 0,0"
           style="fill:#f9f9f9;fill-opacity:1;fill-rule:nonzero;stroke:none"
           id="path67"
           inkscape:connector-curvature="0" />
        <path
           d="m 15.06,20.637 c -2.23,0 -4.063,1.773 -4.063,3.93 0,2.16 1.832,3.934 4.063,3.934 2.234,0 4.066,-1.773 4.066,-3.934 0,-2.156 -1.832,-3.93 -4.066,-3.93 m -0.008,1.574 c 1.629,0 2.441,0.785 2.441,2.355 0,1.574 -0.813,2.359 -2.441,2.359 -1.625,0 -2.438,-0.785 -2.438,-2.359 0,-1.57 0.813,-2.355 2.438,-2.355 m 0,0"
           style="fill:#f9f9f9;fill-opacity:1;fill-rule:nonzero;stroke:none"
           id="path69"
           inkscape:connector-curvature="0" />
        <path
           d="m 15.953,23.16 c -0.922,-0.379 -1.984,0.035 -2.375,0.93 -0.391,0.891 0.039,1.922 0.961,2.297 l 12.07,5.25 c 0.922,0.379 1.988,-0.035 2.379,-0.93 0.391,-0.891 -0.039,-1.922 -0.961,-2.297 m -12.08,-5.25"
           style="fill:#f9f9f9;fill-opacity:1;fill-rule:nonzero;stroke:none"
           id="path71"
           inkscape:connector-curvature="0" />
      </g>
    </g>
  </g>
  <g
     id="g73">
    <path
       d="m 40.03 7.531 c 3.712 4.084 5.969 9.514 5.969 15.469 0 12.703 -10.297 23 -23 23 c -5.954 0 -11.384 -2.256 -15.469 -5.969 4.178 4.291 10.01 6.969 16.469 6.969 c 12.703 0 23 -10.298 23 -23 0 -6.462 -2.677 -12.291 -6.969 -16.469 z"
       style="opacity:0.1"
       id="path75" />
  </g>
</svg>
