<?xml version="1.0" encoding="UTF-8" standalone="no"?>
<svg
   xmlns:dc="http://purl.org/dc/elements/1.1/"
   xmlns:cc="http://creativecommons.org/ns#"
   xmlns:rdf="http://www.w3.org/1999/02/22-rdf-syntax-ns#"
   xmlns:svg="http://www.w3.org/2000/svg"
   xmlns="http://www.w3.org/2000/svg"
   xmlns:sodipodi="http://sodipodi.sourceforge.net/DTD/sodipodi-0.dtd"
   xmlns:inkscape="http://www.inkscape.org/namespaces/inkscape"
   viewBox="0 0 48 48"
   version="1.1"
   id="svg105"
   sodipodi:docname="synapse.svg"
   inkscape:version="0.92.0 r15299">
  <metadata
     id="metadata109">
    <rdf:RDF>
      <cc:Work
         rdf:about="">
        <dc:format>image/svg+xml</dc:format>
        <dc:type
           rdf:resource="http://purl.org/dc/dcmitype/StillImage" />
      </cc:Work>
    </rdf:RDF>
  </metadata>
  <sodipodi:namedview
     pagecolor="#ffffff"
     bordercolor="#666666"
     borderopacity="1"
     objecttolerance="10"
     gridtolerance="10"
     guidetolerance="10"
     inkscape:pageopacity="0"
     inkscape:pageshadow="2"
     inkscape:window-width="1600"
     inkscape:window-height="872"
     id="namedview107"
     showgrid="false"
     inkscape:zoom="4.9166667"
     inkscape:cx="25.220339"
     inkscape:cy="22.983051"
     inkscape:window-x="0"
     inkscape:window-y="0"
     inkscape:window-maximized="1"
     inkscape:current-layer="svg105" />
  <defs
     id="defs45">
    <linearGradient
       id="linearGradient3764"
       x1="1"
       x2="47"
       gradientUnits="userSpaceOnUse"
       gradientTransform="matrix(0,-1,1,0,-1.5e-6,47.999998)">
      <stop
         stop-color="#d9d9d9"
         stop-opacity="1"
         id="stop2" />
      <stop
         offset="1"
         stop-color="#e3e3e3"
         stop-opacity="1"
         id="stop4" />
    </linearGradient>
    <clipPath
       id="clipPath-902204898">
      <g
         transform="translate(0,-1004.3622)"
         id="g9">
        <path
           d="m -24 13 c 0 1.105 -0.672 2 -1.5 2 -0.828 0 -1.5 -0.895 -1.5 -2 0 -1.105 0.672 -2 1.5 -2 0.828 0 1.5 0.895 1.5 2 z"
           transform="matrix(15.333333,0,0,11.5,414.99999,878.8622)"
           fill="#1890d0"
           id="path7" />
      </g>
    </clipPath>
    <clipPath
       id="clipPath-910212633">
      <g
         transform="translate(0,-1004.3622)"
         id="g14">
        <path
           d="m -24 13 c 0 1.105 -0.672 2 -1.5 2 -0.828 0 -1.5 -0.895 -1.5 -2 0 -1.105 0.672 -2 1.5 -2 0.828 0 1.5 0.895 1.5 2 z"
           transform="matrix(15.333333,0,0,11.5,414.99999,878.8622)"
           fill="#1890d0"
           id="path12" />
      </g>
    </clipPath>
    <clipPath
       id="clip1">
      <path
         d="m 14 10 l 20 0 l 0 27 l -20 0 m 0 -27"
         id="path17" />
    </clipPath>
    <clipPath
       id="clip2">
      <path
         d="m 22.711 10.992 l 0 2.926 c -4.234 0.516 -7.668 3.555 -8.711 7.535 l 2.676 0 c 1.098 -2.875 4.01 -5.117 7.184 -5.094 c 0.078 -0.004 0.156 -0.004 0.23 -0.004 c 1.156 0.008 2.289 0.289 3.316 0.793 c 1.852 0.82 3.227 2.438 3.895 4.305 l 2.699 0 c -1.043 -3.98 -4.477 -7.02 -8.711 -7.535 l 0 -2.926 m -11.289 15.539 c 1.043 3.98 4.477 7.02 8.711 7.535 l 0 2.926 l 2.578 0 l 0 -2.926 c 4.234 -0.52 7.668 -3.555 8.711 -7.535 l -2.66 0 c -1.043 3.02 -4.27 5.203 -7.527 5.09 c -3.176 0.016 -6.05 -2.215 -7.129 -5.09 m -2.684 0"
         id="path20" />
    </clipPath>
    <clipPath
       id="clip3">
      <path
         d="m 18 18 l 12 0 l 0 12 l -12 0 m 0 -12"
         id="path23" />
    </clipPath>
    <clipPath
       id="clip4">
      <path
         d="m 24 18.34 c -3.141 0 -5.684 2.492 -5.684 5.59 c 0 0 -0.039 0.523 0.125 1.117 l 8.73 0 c -0.238 0.648 -0.66 1.23 -1.234 1.617 c -1.32 1.027 -3.32 0.652 -4.445 -0.496 l -2.703 0 c 0.879 1.973 2.879 3.352 5.211 3.352 c 3.141 0 5.684 -2.5 5.684 -5.59 c 0 0 0 -0.574 -0.113 -1.117 l -8.734 0 c 0.492 -1.223 1.668 -2.211 3.03 -2.223 c 0.066 -0.004 0.137 -0.004 0.203 -0.004 c 0.914 0.02 1.801 0.445 2.418 1.109 l 2.723 0 c -0.879 -1.973 -2.883 -3.355 -5.211 -3.355 m 0 0"
         id="path26" />
    </clipPath>
    <clipPath
       id="clipPath31">
      <path
         d="m 14 10 l 20 0 l 0 27 l -20 0 m 0 -27"
         id="path29" />
    </clipPath>
    <clipPath
       id="clipPath35">
      <path
         d="m 22.711 10.992 l 0 2.926 c -4.234 0.516 -7.668 3.555 -8.711 7.535 l 2.676 0 c 1.098 -2.875 4.01 -5.117 7.184 -5.094 c 0.078 -0.004 0.156 -0.004 0.23 -0.004 c 1.156 0.008 2.289 0.289 3.316 0.793 c 1.852 0.82 3.227 2.438 3.895 4.305 l 2.699 0 c -1.043 -3.98 -4.477 -7.02 -8.711 -7.535 l 0 -2.926 m -11.289 15.539 c 1.043 3.98 4.477 7.02 8.711 7.535 l 0 2.926 l 2.578 0 l 0 -2.926 c 4.234 -0.52 7.668 -3.555 8.711 -7.535 l -2.66 0 c -1.043 3.02 -4.27 5.203 -7.527 5.09 c -3.176 0.016 -6.05 -2.215 -7.129 -5.09 m -2.684 0"
         id="path33" />
    </clipPath>
    <clipPath
       id="clipPath39">
      <path
         d="m 18 18 l 12 0 l 0 12 l -12 0 m 0 -12"
         id="path37" />
    </clipPath>
    <clipPath
       id="clipPath43">
      <path
         d="m 24 18.34 c -3.141 0 -5.684 2.492 -5.684 5.59 c 0 0 -0.039 0.523 0.125 1.117 l 8.73 0 c -0.238 0.648 -0.66 1.23 -1.234 1.617 c -1.32 1.027 -3.32 0.652 -4.445 -0.496 l -2.703 0 c 0.879 1.973 2.879 3.352 5.211 3.352 c 3.141 0 5.684 -2.5 5.684 -5.59 c 0 0 0 -0.574 -0.113 -1.117 l -8.734 0 c 0.492 -1.223 1.668 -2.211 3.03 -2.223 c 0.066 -0.004 0.137 -0.004 0.203 -0.004 c 0.914 0.02 1.801 0.445 2.418 1.109 l 2.723 0 c -0.879 -1.973 -2.883 -3.355 -5.211 -3.355 m 0 0"
         id="path41" />
    </clipPath>
  </defs>
  <g
     id="g53">
    <path
       d="m 36.31 5 c 5.859 4.062 9.688 10.831 9.688 18.5 c 0 12.426 -10.07 22.5 -22.5 22.5 c -7.669 0 -14.438 -3.828 -18.5 -9.688 c 1.037 1.822 2.306 3.499 3.781 4.969 c 4.085 3.712 9.514 5.969 15.469 5.969 c 12.703 0 23 -10.298 23 -23 c 0 -5.954 -2.256 -11.384 -5.969 -15.469 c -1.469 -1.475 -3.147 -2.744 -4.969 -3.781 z m 4.969 3.781 c 3.854 4.113 6.219 9.637 6.219 15.719 c 0 12.703 -10.297 23 -23 23 c -6.081 0 -11.606 -2.364 -15.719 -6.219 c 4.16 4.144 9.883 6.719 16.219 6.719 c 12.703 0 23 -10.298 23 -23 c 0 -6.335 -2.575 -12.06 -6.719 -16.219 z"
       opacity="0.05"
       id="path47" />
    <path
       d="m 41.28 8.781 c 3.712 4.085 5.969 9.514 5.969 15.469 c 0 12.703 -10.297 23 -23 23 c -5.954 0 -11.384 -2.256 -15.469 -5.969 c 4.113 3.854 9.637 6.219 15.719 6.219 c 12.703 0 23 -10.298 23 -23 c 0 -6.081 -2.364 -11.606 -6.219 -15.719 z"
       opacity="0.1"
       id="path49" />
    <path
       d="m 31.25 2.375 c 8.615 3.154 14.75 11.417 14.75 21.13 c 0 12.426 -10.07 22.5 -22.5 22.5 c -9.708 0 -17.971 -6.135 -21.12 -14.75 a 23 23 0 0 0 44.875 -7 a 23 23 0 0 0 -16 -21.875 z"
       opacity="0.2"
       id="path51" />
  </g>
  <g
     id="g57">
    <path
       d="m 24 1 c 12.703 0 23 10.297 23 23 c 0 12.703 -10.297 23 -23 23 -12.703 0 -23 -10.297 -23 -23 0 -12.703 10.297 -23 23 -23 z"
       fill="url(#linearGradient3764)"
       fill-opacity="1"
       id="path55" />
  </g>
  <g
     id="g59" />
  <g
     id="g81"
     transform="matrix(1.1635941,0,0,1.2109228,-4.1007662,-5.9794802)">
    <g
       clip-path="url(#clipPath-902204898)"
       id="g79">
      <g
         transform="translate(1,1)"
         id="g77">
        <g
           id="g75"
           style="opacity:0.1">
          <!-- color: #e3e3e3 -->
          <g
             id="g73">
            <g
               clip-path="url(#clip1)"
               id="g65">
              <g
                 clip-path="url(#clip2)"
                 id="g63">
                <path
                   d="m 22.711,10.992 v 2.926 C 18.477,14.434 15.043,17.473 14,21.453 h 2.676 c 1.098,-2.875 4.01,-5.117 7.184,-5.094 0.078,-0.004 0.156,-0.004 0.23,-0.004 1.156,0.008 2.289,0.289 3.316,0.793 1.852,0.82 3.227,2.438 3.895,4.305 H 34 c -1.043,-3.98 -4.477,-7.02 -8.711,-7.535 V 10.992 M 14,26.531 c 1.043,3.98 4.477,7.02 8.711,7.535 v 2.926 h 2.578 v -2.926 c 4.234,-0.52 7.668,-3.555 8.711,-7.535 h -2.66 c -1.043,3.02 -4.27,5.203 -7.527,5.09 -3.176,0.016 -6.05,-2.215 -7.129,-5.09 m -2.684,0"
                   id="path61"
                   inkscape:connector-curvature="0"
                   style="fill:#000000;fill-opacity:1;fill-rule:nonzero;stroke:none" />
              </g>
            </g>
            <g
               clip-path="url(#clip3)"
               id="g71">
              <g
                 clip-path="url(#clip4)"
                 id="g69">
                <path
                   d="m 24,18.465 c -3.141,0 -5.684,2.492 -5.684,5.59 0,0 -0.039,0.523 0.125,1.117 h 8.73 c -0.238,0.648 -0.66,1.23 -1.234,1.617 -1.32,1.027 -3.32,0.652 -4.445,-0.496 h -2.703 c 0.879,1.973 2.879,3.352 5.211,3.352 3.141,0 5.684,-2.5 5.684,-5.59 0,0 0,-0.574 -0.113,-1.117 h -8.734 c 0.492,-1.223 1.668,-2.211 3.03,-2.223 0.066,-0.004 0.137,-0.004 0.203,-0.004 0.914,0.02 1.801,0.445 2.418,1.109 h 2.723 C 28.332,19.847 26.328,18.465 24,18.465 m 0,0"
                   id="path67"
                   inkscape:connector-curvature="0"
                   style="fill:#000000;fill-opacity:1;fill-rule:nonzero;stroke:none" />
              </g>
            </g>
          </g>
        </g>
      </g>
    </g>
  </g>
  <g
     id="g99"
     transform="matrix(1.2677965,0,0,1.2109228,-6.3932204,-5.9794802)"
     style="fill:#008066">
    <g
       clip-path="url(#clipPath-910212633)"
       id="g97"
       style="fill:#008066">
      <!-- color: #e3e3e3 -->
      <g
         id="g95"
         style="fill:#008066">
        <g
           clip-path="url(#clip1)"
           id="g87"
           style="fill:#008066">
          <g
             clip-path="url(#clip2)"
             id="g85"
             style="fill:#008066">
            <path
               d="m 22.711,10.992 v 2.926 C 18.477,14.434 15.043,17.473 14,21.453 h 2.676 c 1.098,-2.875 4.01,-5.117 7.184,-5.094 0.078,-0.004 0.156,-0.004 0.23,-0.004 1.156,0.008 2.289,0.289 3.316,0.793 1.852,0.82 3.227,2.438 3.895,4.305 H 34 c -1.043,-3.98 -4.477,-7.02 -8.711,-7.535 V 10.992 M 14,26.531 c 1.043,3.98 4.477,7.02 8.711,7.535 v 2.926 h 2.578 v -2.926 c 4.234,-0.52 7.668,-3.555 8.711,-7.535 h -2.66 c -1.043,3.02 -4.27,5.203 -7.527,5.09 -3.176,0.016 -6.05,-2.215 -7.129,-5.09 m -2.684,0"
               id="path83"
               inkscape:connector-curvature="0"
               style="fill:#008066;fill-opacity:1;fill-rule:nonzero;stroke:none" />
          </g>
        </g>
        <g
           clip-path="url(#clip3)"
           id="g93"
           style="fill:#008066">
          <g
             clip-path="url(#clip4)"
             id="g91"
             style="fill:#008066">
            <path
               d="m 24,18.465 c -3.141,0 -5.684,2.492 -5.684,5.59 0,0 -0.039,0.523 0.125,1.117 h 8.73 c -0.238,0.648 -0.66,1.23 -1.234,1.617 -1.32,1.027 -3.32,0.652 -4.445,-0.496 h -2.703 c 0.879,1.973 2.879,3.352 5.211,3.352 3.141,0 5.684,-2.5 5.684,-5.59 0,0 0,-0.574 -0.113,-1.117 h -8.734 c 0.492,-1.223 1.668,-2.211 3.03,-2.223 0.066,-0.004 0.137,-0.004 0.203,-0.004 0.914,0.02 1.801,0.445 2.418,1.109 h 2.723 C 28.332,19.847 26.328,18.465 24,18.465 m 0,0"
               id="path89"
               inkscape:connector-curvature="0"
               style="fill:#008066;fill-opacity:1;fill-rule:nonzero;stroke:none" />
          </g>
        </g>
      </g>
    </g>
  </g>
  <g
     id="g103">
    <path
       d="m 40.03 7.531 c 3.712 4.084 5.969 9.514 5.969 15.469 0 12.703 -10.297 23 -23 23 c -5.954 0 -11.384 -2.256 -15.469 -5.969 4.178 4.291 10.01 6.969 16.469 6.969 c 12.703 0 23 -10.298 23 -23 0 -6.462 -2.677 -12.291 -6.969 -16.469 z"
       opacity="0.1"
       id="path101" />
  </g>
</svg>
