<?xml version="1.0" encoding="UTF-8" standalone="no"?>
<svg
   xmlns:dc="http://purl.org/dc/elements/1.1/"
   xmlns:cc="http://creativecommons.org/ns#"
   xmlns:rdf="http://www.w3.org/1999/02/22-rdf-syntax-ns#"
   xmlns:svg="http://www.w3.org/2000/svg"
   xmlns="http://www.w3.org/2000/svg"
   xmlns:sodipodi="http://sodipodi.sourceforge.net/DTD/sodipodi-0.dtd"
   xmlns:inkscape="http://www.inkscape.org/namespaces/inkscape"
   viewBox="0 0 48 48"
   id="svg2"
   version="1.1"
   inkscape:version="0.91 r13725"
   sodipodi:docname="GDebi.svg">
  <metadata
     id="metadata69">
    <rdf:RDF>
      <cc:Work
         rdf:about="">
        <dc:format>image/svg+xml</dc:format>
        <dc:type
           rdf:resource="http://purl.org/dc/dcmitype/StillImage" />
      </cc:Work>
    </rdf:RDF>
  </metadata>
  <sodipodi:namedview
     pagecolor="#ffffff"
     bordercolor="#666666"
     borderopacity="1"
     objecttolerance="10"
     gridtolerance="10"
     guidetolerance="10"
     inkscape:pageopacity="0"
     inkscape:pageshadow="2"
     inkscape:window-width="1360"
     inkscape:window-height="717"
     id="namedview67"
     showgrid="false"
     inkscape:zoom="4.9166667"
     inkscape:cx="20.745763"
     inkscape:cy="24"
     inkscape:window-x="0"
     inkscape:window-y="25"
     inkscape:window-maximized="1"
     inkscape:current-layer="svg2" />
  <defs
     id="defs4">
    <linearGradient
       id="linearGradient3764"
       x1="1"
       x2="47"
       gradientUnits="userSpaceOnUse"
       gradientTransform="matrix(0,-1,1,0,-1.5e-6,47.999998)">
      <stop
         stop-color="#00a1c4"
         stop-opacity="1"
         id="stop7" />
      <stop
         offset="1"
         stop-color="#00afd7"
         stop-opacity="1"
         id="stop9" />
    </linearGradient>
    <clipPath
       id="clipPath-246912133">
      <g
         transform="translate(0,-1004.3622)"
         id="g12">
        <path
           d="m -24 13 c 0 1.105 -0.672 2 -1.5 2 -0.828 0 -1.5 -0.895 -1.5 -2 0 -1.105 0.672 -2 1.5 -2 0.828 0 1.5 0.895 1.5 2 z"
           transform="matrix(15.333333,0,0,11.5,414.99999,878.8622)"
           fill="#1890d0"
           id="path14" />
      </g>
    </clipPath>
    <clipPath
       id="clipPath-260786515">
      <g
         transform="translate(0,-1004.3622)"
         id="g17">
        <path
           d="m -24 13 c 0 1.105 -0.672 2 -1.5 2 -0.828 0 -1.5 -0.895 -1.5 -2 0 -1.105 0.672 -2 1.5 -2 0.828 0 1.5 0.895 1.5 2 z"
           transform="matrix(15.333333,0,0,11.5,414.99999,878.8622)"
           fill="#1890d0"
           id="path19" />
      </g>
    </clipPath>
  </defs>
  <g
     id="g21"
     style="fill:#e82d6f;fill-opacity:1">
    <path
       d="m 36.31 5 c 5.859 4.062 9.688 10.831 9.688 18.5 c 0 12.426 -10.07 22.5 -22.5 22.5 c -7.669 0 -14.438 -3.828 -18.5 -9.688 c 1.037 1.822 2.306 3.499 3.781 4.969 c 4.085 3.712 9.514 5.969 15.469 5.969 c 12.703 0 23 -10.298 23 -23 c 0 -5.954 -2.256 -11.384 -5.969 -15.469 c -1.469 -1.475 -3.147 -2.744 -4.969 -3.781 z m 4.969 3.781 c 3.854 4.113 6.219 9.637 6.219 15.719 c 0 12.703 -10.297 23 -23 23 c -6.081 0 -11.606 -2.364 -15.719 -6.219 c 4.16 4.144 9.883 6.719 16.219 6.719 c 12.703 0 23 -10.298 23 -23 c 0 -6.335 -2.575 -12.06 -6.719 -16.219 z"
       opacity="0.05"
       id="path23"
       style="fill:#e82d6f;fill-opacity:1" />
    <path
       d="m 41.28 8.781 c 3.712 4.085 5.969 9.514 5.969 15.469 c 0 12.703 -10.297 23 -23 23 c -5.954 0 -11.384 -2.256 -15.469 -5.969 c 4.113 3.854 9.637 6.219 15.719 6.219 c 12.703 0 23 -10.298 23 -23 c 0 -6.081 -2.364 -11.606 -6.219 -15.719 z"
       opacity="0.1"
       id="path25"
       style="fill:#e82d6f;fill-opacity:1" />
    <path
       d="m 31.25 2.375 c 8.615 3.154 14.75 11.417 14.75 21.13 c 0 12.426 -10.07 22.5 -22.5 22.5 c -9.708 0 -17.971 -6.135 -21.12 -14.75 a 23 23 0 0 0 44.875 -7 a 23 23 0 0 0 -16 -21.875 z"
       opacity="0.2"
       id="path27"
       style="fill:#e82d6f;fill-opacity:1" />
  </g>
  <path
     inkscape:connector-curvature="0"
     style="fill:#e82d6f;fill-opacity:1"
     id="path31"
     d="M 24,1 C 36.703,1 47,11.297 47,24 47,36.703 36.703,47 24,47 11.297,47 1,36.703 1,24 1,11.297 11.297,1 24,1 Z" />
  <g
     id="g33" />
  <g
     id="g63"
     style="fill:#e82d6f;fill-opacity:1">
    <path
       d="m 40.03 7.531 c 3.712 4.084 5.969 9.514 5.969 15.469 0 12.703 -10.297 23 -23 23 c -5.954 0 -11.384 -2.256 -15.469 -5.969 4.178 4.291 10.01 6.969 16.469 6.969 c 12.703 0 23 -10.298 23 -23 0 -6.462 -2.677 -12.291 -6.969 -16.469 z"
       opacity="0.1"
       id="path65"
       style="fill:#e82d6f;fill-opacity:1" />
  </g>
  <path
     style="opacity:0.2"
     inkscape:connector-curvature="0"
     d="m 32.825736,22.73716 c 0.02948,0.795482 -0.229201,1.182037 -0.462979,1.865524 l -0.420384,0.211703 c -0.343658,0.676286 0.03415,0.429348 -0.211983,0.967016 -0.537102,0.483021 -1.627526,1.510969 -1.976698,1.605078 -0.255228,-0.0058 0.17262,-0.304893 0.22859,-0.421767 -0.718203,0.499137 -0.576444,0.749381 -1.674999,1.053276 l -0.03199,-0.07276 c -2.708256,1.290661 -6.470575,-1.266624 -6.421111,-4.755368 -0.02876,0.221275 -0.08225,0.165947 -0.1421,0.254879 -0.1398,-1.79477 0.818661,-3.597478 2.435205,-4.334597 1.5811,-0.792184 3.43455,-0.467537 4.566378,0.602212 -0.621636,-0.825112 -1.859995,-1.699981 -3.326613,-1.61891 -1.43739,0.02384 -2.782395,0.948582 -3.231077,1.953172 -0.736082,0.469183 -0.821917,1.809624 -1.142487,2.055216 -0.432092,3.213555 0.811836,4.601276 2.916404,6.234811 0.330321,0.225847 0.093,0.260427 0.137211,0.432313 -0.699017,-0.331229 -1.338811,-0.8317 -1.86561,-1.44441 0.279599,0.413875 0.580986,0.816228 0.970819,1.132308 -0.659677,-0.225536 -1.540404,-1.617668 -1.796969,-1.674242 1.136301,2.060432 4.60953,3.61358 6.4293,2.842789 -0.842074,0.03165 -1.911447,0.01719 -2.85688,-0.336465 -0.398278,-0.207091 -0.937645,-0.635466 -0.841093,-0.71547 2.482685,0.938699 5.046522,0.710523 7.194299,-1.032872 0.546851,-0.431329 1.143781,-1.164574 1.316473,-1.17444 -0.259794,0.395759 0.04454,0.19029 -0.155078,0.539645 0.543605,-0.88931 -0.237038,-0.362176 0.562467,-1.535689 l 0.2952,0.411568 c -0.110501,-0.738855 0.905467,-1.635129 0.802082,-2.802653 0.233085,-0.356901 0.259794,0.384566 0.01258,1.205738 0.343011,-0.911047 0.0907,-1.057562 0.17848,-1.809625 0.09461,0.252887 0.220466,0.52121 0.284489,0.78823 -0.223702,-0.880753 0.228589,-1.48262 0.341033,-1.994668 -0.111185,-0.04939 -0.344952,0.389176 -0.398931,-0.650603 0.0083,-0.451733 0.124522,-0.236749 0.169061,-0.348032 -0.08717,-0.05102 -0.317021,-0.397413 -0.456471,-1.061508 0.100438,-0.156374 0.270504,0.404648 0.408352,0.42737 -0.08875,-0.527794 -0.241243,-0.930471 -0.247749,-1.335784 -0.403152,-0.852773 -0.142748,0.1139 -0.469148,-0.366122 -0.42916,-1.354505 0.3557,-0.314428 0.409007,-0.929487 0.649593,0.953192 1.019909,2.431538 1.190653,3.043591 -0.130059,-0.746417 -0.339776,-1.469806 -0.596276,-2.169394 0.197999,0.0846 -0.318278,-1.535347 0.257168,-0.462601 -0.614151,-2.28663 -2.62628,-4.423484 -4.477856,-5.425811 0.225965,0.209748 0.511737,0.473133 0.409653,0.514622 -0.921392,-0.554791 -0.759484,-0.59858 -0.89148,-0.833017 -0.749401,-0.309152 -0.799472,0.0254 -1.295306,6.61e-4 -1.414237,-0.75992 -1.686697,-0.679257 -2.988201,-1.154711 l 0.05917,0.28055 c -0.936677,-0.316069 -1.091438,0.119176 -2.103572,6.56e-4 -0.06144,-0.04837 0.324462,-0.176497 0.642439,-0.222916 -0.905794,0.121168 -0.86352,-0.18107 -1.749841,0.0332 0.218129,-0.155045 0.449645,-0.258161 0.68243,-0.389841 -0.738351,0.04545 -1.763408,0.435272 -1.447088,0.08033 -1.204571,0.544593 -3.34416,1.308804 -4.544867,2.449004 l -0.03771,-0.255505 c -0.550109,0.66871 -2.399072,1.997274 -2.546413,2.864218 l -0.147277,0.03477 c -0.285783,0.49092 -0.471434,1.047028 -0.698371,1.551785 -0.37422,0.646328 -0.548806,0.2489 -0.495482,0.350297 -0.736704,1.512554 -1.102711,2.782468 -1.418445,3.825609 0.224959,0.340801 0.0057,2.051929 0.09038,3.421278 -0.369333,6.764207 4.687643,13.33067 10.215354,14.846627 0.81021,0.294031 2.014822,0.283481 3.039537,0.312474 -1.208773,-0.350336 -1.364883,-0.185365 -2.543138,-0.601214 -0.849547,-0.405646 -1.035522,-0.868246 -1.637699,-1.397357 l 0.238331,0.426383 c -1.179983,-0.424288 -0.686515,-0.524072 -1.64656,-0.832477 l 0.254544,-0.336154 c -0.382675,-0.0297 -1.013407,-0.652589 -1.185739,-0.998627 l -0.418631,0.01602 C 18.05988,35.249437 17.791648,34.796054 17.811483,34.444722 L 17.676249,34.68905 C 17.52189,34.422567 15.82514,32.331774 16.705674,32.819333 16.541969,32.668508 16.324461,32.573285 16.089415,32.139022 l 0.179162,-0.207092 c -0.422987,-0.552161 -0.779644,-1.259703 -0.752337,-1.495432 0.225965,0.30884 0.382671,0.366787 0.538069,0.419794 -1.06997,-2.688015 -1.130122,-0.147817 -1.939978,-2.736091 l 0.171001,-0.01367 c -0.131029,-0.201153 -0.211335,-0.418163 -0.316661,-0.631849 l 0.07477,-0.752341 c -0.769442,-0.900278 -0.215181,-3.833548 -0.104065,-5.442477 0.07718,-0.653097 0.643152,-1.350418 1.073482,-2.442314 l -0.262057,-0.04545 c 0.501345,-0.88504 2.861676,-3.555639 3.955386,-3.418673 0.529629,-0.67365 -0.105359,-0.0026 -0.209071,-0.171846 1.163614,-1.219228 1.529415,-0.861331 2.314527,-1.080946 0.846294,-0.508702 -0.726643,0.198849 -0.325469,-0.193962 1.464048,-0.378313 1.037139,-0.860669 2.94657,-1.052619 0.201557,0.115892 -0.467192,0.179075 -0.634963,0.329588 1.219182,-0.604513 3.858911,-0.466558 5.574252,0.335176 1.988746,0.942005 4.224691,3.725148 4.313097,6.343776 l 0.100438,0.02736 c -0.05072,1.0411 0.157343,2.245136 -0.203822,3.350864 l 0.244155,-0.52384"
     id="path4347" />
  <path
     style="fill:#ffffff"
     inkscape:connector-curvature="0"
     d="m 32.825736,21.603309 c 0.02948,0.795486 -0.229201,1.182037 -0.462979,1.865521 l -0.420384,0.211742 c -0.343658,0.676283 0.03415,0.429344 -0.211983,0.967017 -0.537102,0.483019 -1.627526,1.510967 -1.976698,1.605077 -0.255228,-0.0058 0.17262,-0.304894 0.22859,-0.421771 -0.718203,0.499144 -0.576444,0.749381 -1.674999,1.053279 l -0.03199,-0.07279 c -2.708256,1.290662 -6.470575,-1.266624 -6.421111,-4.755364 -0.02876,0.221277 -0.08225,0.165948 -0.1421,0.25488 -0.1398,-1.79477 0.818661,-3.597475 2.435205,-4.334597 1.5811,-0.792184 3.43455,-0.467542 4.566378,0.602211 -0.621636,-0.825116 -1.859995,-1.699981 -3.326613,-1.61891 -1.43739,0.02383 -2.782395,0.948582 -3.231077,1.953171 -0.736082,0.469184 -0.821917,1.809623 -1.142487,2.055217 -0.432092,3.213554 0.811836,4.601272 2.916404,6.234807 0.330321,0.225847 0.093,0.260428 0.137211,0.432314 -0.699017,-0.33123 -1.338811,-0.831696 -1.86561,-1.444406 0.279599,0.413875 0.580986,0.816223 0.970819,1.132306 -0.659677,-0.225533 -1.540404,-1.617667 -1.796969,-1.674242 1.136301,2.060434 4.60953,3.613578 6.4293,2.842787 -0.842074,0.03165 -1.911447,0.01719 -2.85688,-0.336466 -0.398278,-0.207091 -0.937645,-0.635462 -0.841093,-0.715467 2.482685,0.9387 5.046522,0.710525 7.194299,-1.032871 0.546851,-0.431329 1.143781,-1.164578 1.316473,-1.174444 -0.259794,0.395759 0.04454,0.19029 -0.155078,0.539646 0.543605,-0.889311 -0.237038,-0.362177 0.562467,-1.535687 l 0.2952,0.411565 c -0.110501,-0.738847 0.905467,-1.635125 0.802082,-2.802649 0.233085,-0.356901 0.259794,0.384566 0.01258,1.205735 0.343011,-0.911047 0.0907,-1.057562 0.17848,-1.809621 0.09461,0.252885 0.220466,0.521206 0.284489,0.788225 -0.223702,-0.880744 0.228589,-1.482616 0.341033,-1.994663 -0.111185,-0.04939 -0.344952,0.389176 -0.398931,-0.650607 0.0083,-0.451734 0.124522,-0.23675 0.169061,-0.348032 -0.08717,-0.05104 -0.317021,-0.397413 -0.456471,-1.061505 0.100438,-0.156374 0.270504,0.40465 0.408352,0.427366 -0.08875,-0.52779 -0.241243,-0.930466 -0.247749,-1.335788 -0.403152,-0.852769 -0.142748,0.113901 -0.469148,-0.366121 -0.42916,-1.354497 0.3557,-0.314428 0.409007,-0.929482 0.649593,0.953187 1.019909,2.431541 1.190653,3.043589 -0.130059,-0.746412 -0.339776,-1.46981 -0.596276,-2.169394 0.197999,0.0846 -0.318278,-1.535346 0.257168,-0.462599 -0.614151,-2.286636 -2.62628,-4.423486 -4.477856,-5.425813 0.225965,0.209748 0.511737,0.473133 0.409653,0.514623 -0.921392,-0.554791 -0.759484,-0.598585 -0.89148,-0.833016 -0.749401,-0.309154 -0.799472,0.0254 -1.295306,6.56e-4 C 27.535135,9.678826 27.262675,9.7594832 25.961171,9.2840319 l 0.05917,0.2805512 c -0.936677,-0.3160691 -1.091438,0.1191747 -2.103572,6.558e-4 -0.06144,-0.048367 0.324462,-0.1764968 0.642439,-0.2229157 -0.905794,0.1211668 -0.86352,-0.1810697 -1.749841,0.033213 0.218129,-0.1550845 0.449645,-0.2581604 0.68243,-0.3898406 -0.738351,0.04545 -1.763408,0.4352759 -1.447088,0.080328 -1.204571,0.5445889 -3.34416,1.3088048 -4.544867,2.4489998 l -0.03771,-0.255503 c -0.550109,0.66871 -2.399072,1.997273 -2.546413,2.864218 l -0.147277,0.03477 c -0.285783,0.49092 -0.471434,1.047032 -0.698371,1.551784 -0.37422,0.646329 -0.548806,0.248902 -0.495482,0.350298 -0.736704,1.512554 -1.102711,2.782464 -1.418445,3.825608 0.224959,0.340803 0.0057,2.051926 0.09038,3.421276 -0.369333,6.764207 4.687643,13.330669 10.215354,14.846631 0.81021,0.29403 2.014822,0.283482 3.039537,0.312474 -1.208773,-0.350338 -1.364883,-0.185407 -2.543138,-0.601216 -0.849547,-0.405646 -1.035522,-0.868245 -1.637699,-1.397357 l 0.238331,0.426382 c -1.17989,-0.424057 -0.686417,-0.523836 -1.64647,-0.832242 l 0.254579,-0.336153 c -0.382671,-0.0297 -1.01341,-0.65258 -1.185735,-0.998624 l -0.418763,0.01681 c -0.502689,-0.627596 -0.770919,-1.080974 -0.751087,-1.432308 l -0.135235,0.244329 C 17.52184,33.28976 15.82509,31.198935 16.705624,31.686484 16.541918,31.535659 16.324411,31.440434 16.089365,31.006175 l 0.179162,-0.207091 c -0.42299,-0.552165 -0.77964,-1.259707 -0.752338,-1.495437 0.225966,0.30884 0.382675,0.366787 0.538073,0.419798 -1.069973,-2.688018 -1.130121,-0.147854 -1.939979,-2.736094 l 0.171002,-0.01367 c -0.131028,-0.20123 -0.211334,-0.418168 -0.316661,-0.631851 l 0.07481,-0.752341 c -0.769446,-0.900278 -0.215146,-3.833549 -0.104065,-5.442483 0.07714,-0.653096 0.643151,-1.350412 1.073482,-2.44231 l -0.262057,-0.04545 c 0.501341,-0.885039 2.861676,-3.555642 3.955386,-3.418668 0.529633,-0.673658 -0.105359,-0.0027 -0.209071,-0.171886 1.163614,-1.219231 1.529415,-0.86133 2.314527,-1.080946 0.846293,-0.508701 -0.726643,0.198849 -0.32547,-0.193923 1.464046,-0.378313 1.037136,-0.860673 2.946574,-1.052623 0.201557,0.115893 -0.467198,0.179114 -0.634965,0.329588 1.219177,-0.604508 3.858906,-0.466549 5.574252,0.335176 1.988745,0.941998 4.22469,3.725145 4.313092,6.343772 l 0.100438,0.02696 c -0.05072,1.041105 0.157343,2.245136 -0.203822,3.350863 l 0.244156,-0.523835"
     id="path3032" />
</svg>
