<?xml version="1.0" encoding="UTF-8" standalone="no"?>
<svg
   xmlns:dc="http://purl.org/dc/elements/1.1/"
   xmlns:cc="http://creativecommons.org/ns#"
   xmlns:rdf="http://www.w3.org/1999/02/22-rdf-syntax-ns#"
   xmlns:svg="http://www.w3.org/2000/svg"
   xmlns="http://www.w3.org/2000/svg"
   xmlns:sodipodi="http://sodipodi.sourceforge.net/DTD/sodipodi-0.dtd"
   xmlns:inkscape="http://www.inkscape.org/namespaces/inkscape"
   viewBox="0 0 48 48"
   id="svg2"
   version="1.1"
   inkscape:version="0.48.5 r10040"
   width="100%"
   height="100%"
   sodipodi:docname="urserver.svg">
  <metadata
     id="metadata67">
    <rdf:RDF>
      <cc:Work
         rdf:about="">
        <dc:format>image/svg+xml</dc:format>
        <dc:type
           rdf:resource="http://purl.org/dc/dcmitype/StillImage" />
      </cc:Work>
    </rdf:RDF>
  </metadata>
  <sodipodi:namedview
     pagecolor="#ffffff"
     bordercolor="#666666"
     borderopacity="1"
     objecttolerance="10"
     gridtolerance="10"
     guidetolerance="10"
     inkscape:pageopacity="0"
     inkscape:pageshadow="2"
     inkscape:window-width="1360"
     inkscape:window-height="715"
     id="namedview65"
     showgrid="false"
     inkscape:zoom="4.9166667"
     inkscape:cx="24"
     inkscape:cy="24"
     inkscape:window-x="0"
     inkscape:window-y="27"
     inkscape:window-maximized="1"
     inkscape:current-layer="svg2" />
  <defs
     id="defs4">
    <clipPath
       id="clipPath-059275953">
      <g
         transform="translate(0,-1004.3622)"
         id="g7">
        <path
           d="m -24 13 c 0 1.105 -0.672 2 -1.5 2 -0.828 0 -1.5 -0.895 -1.5 -2 0 -1.105 0.672 -2 1.5 -2 0.828 0 1.5 0.895 1.5 2 z"
           transform="matrix(15.333333,0,0,11.5,414.99999,878.8622)"
           style="fill:#1890d0"
           id="path9" />
      </g>
    </clipPath>
    <clipPath
       id="clipPath-069049578">
      <g
         transform="translate(0,-1004.3622)"
         id="g12">
        <path
           d="m -24 13 c 0 1.105 -0.672 2 -1.5 2 -0.828 0 -1.5 -0.895 -1.5 -2 0 -1.105 0.672 -2 1.5 -2 0.828 0 1.5 0.895 1.5 2 z"
           transform="matrix(15.333333,0,0,11.5,414.99999,878.8622)"
           style="fill:#1890d0"
           id="path14" />
      </g>
    </clipPath>
    <linearGradient
       id="linearGradient3831"
       x1="1"
       x2="47"
       gradientUnits="userSpaceOnUse">
      <stop
         style="stop-color:#53b556;stop-opacity:1"
         id="stop17" />
      <stop
         offset="1"
         style="stop-color:#61bb64;stop-opacity:1"
         id="stop19" />
    </linearGradient>
  </defs>
  <g
     id="g21">
    <path
       d="m 36.31 5 c 5.859 4.062 9.688 10.831 9.688 18.5 c 0 12.426 -10.07 22.5 -22.5 22.5 c -7.669 0 -14.438 -3.828 -18.5 -9.688 c 1.037 1.822 2.306 3.499 3.781 4.969 c 4.085 3.712 9.514 5.969 15.469 5.969 c 12.703 0 23 -10.298 23 -23 c 0 -5.954 -2.256 -11.384 -5.969 -15.469 c -1.469 -1.475 -3.147 -2.744 -4.969 -3.781 z m 4.969 3.781 c 3.854 4.113 6.219 9.637 6.219 15.719 c 0 12.703 -10.297 23 -23 23 c -6.081 0 -11.606 -2.364 -15.719 -6.219 c 4.16 4.144 9.883 6.719 16.219 6.719 c 12.703 0 23 -10.298 23 -23 c 0 -6.335 -2.575 -12.06 -6.719 -16.219 z"
       style="opacity:0.05"
       id="path23" />
    <path
       d="m 41.28 8.781 c 3.712 4.085 5.969 9.514 5.969 15.469 c 0 12.703 -10.297 23 -23 23 c -5.954 0 -11.384 -2.256 -15.469 -5.969 c 4.113 3.854 9.637 6.219 15.719 6.219 c 12.703 0 23 -10.298 23 -23 c 0 -6.081 -2.364 -11.606 -6.219 -15.719 z"
       style="opacity:0.1"
       id="path25" />
    <path
       d="m 31.25 2.375 c 8.615 3.154 14.75 11.417 14.75 21.13 c 0 12.426 -10.07 22.5 -22.5 22.5 c -9.708 0 -17.971 -6.135 -21.12 -14.75 a 23 23 0 0 0 44.875 -7 a 23 23 0 0 0 -16 -21.875 z"
       style="opacity:0.2"
       id="path27" />
  </g>
  <g
     transform="matrix(0,-1,1,0,0,48)"
     style="fill:url(#linearGradient3831);fill-opacity:1"
     id="g29">
    <path
       d="M 24,1 C 36.703,1 47,11.297 47,24 47,36.703 36.703,47 24,47 11.297,47 1,36.703 1,24 1,11.297 11.297,1 24,1 z"
       id="path31" />
  </g>
  <g
     id="g61">
    <path
       d="m 40.03 7.531 c 3.712 4.084 5.969 9.514 5.969 15.469 0 12.703 -10.297 23 -23 23 c -5.954 0 -11.384 -2.256 -15.469 -5.969 4.178 4.291 10.01 6.969 16.469 6.969 c 12.703 0 23 -10.298 23 -23 0 -6.462 -2.677 -12.291 -6.969 -16.469 z"
       style="opacity:0.1"
       id="path63" />
  </g>
  <path
     inkscape:connector-curvature="0"
     id="path4780"
     d="m 14.593221,11.508475 c -1,0 -2,1 -2,2 0,1 1,2 2,2 9.9411,-1e-5 18,8.058899 18,17.999999 0,1 0.90694,2 2,2 1,0 2,-1 2,-2 0,-12.149999 -9.8497,-21.999999 -22,-21.999999 z m 15,1 6,6 0,-4 c 0,-1.108 -0.892,-2 -2,-2 l -4,0 z m -15,7 c -1,0 -2,1 -2,2 0,0.999999 1,1.999999 2,1.999999 5.5229,-6e-6 10,4.4771 10,10 0,1 1,2 2,2 1,0 2,-1 2,-2 0,-7.732 -6.268,-13.999999 -14,-13.999999 z m 1,7.999999 c -2.761375,0 -5,2.238625 -5,5 0,2.76125 2.23875,5 5,5 2.761375,0 5,-2.238625 5,-5 0,-2.761375 -2.238625,-5 -5,-5 z"
     style="opacity:0.2;color:#000000;fill:#000000;fill-opacity:1;enable-background:new" />
  <path
     style="color:#000000;fill:#ffffff;enable-background:new"
     d="m 14.593221,10.508475 c -1,0 -2,1 -2,2 0,1 1,2 2,2 9.9411,-1e-5 18,8.058899 18,17.999999 0,1 0.90694,2 2,2 1,0 2,-1 2,-2 0,-12.149999 -9.8497,-21.999999 -22,-21.999999 z m 15,1 6,6 0,-4 c 0,-1.108 -0.892,-2 -2,-2 l -4,0 z m -15,7 c -1,0 -2,1 -2,2 0,1 1,1.999999 2,1.999999 5.5229,-6e-6 10,4.4771 10,10 0,1 1,2 2,2 1,0 2,-1 2,-2 0,-7.732 -6.268,-13.999999 -14,-13.999999 z m 1,7.999999 c -2.761375,0 -5,2.238625 -5,5 0,2.76125 2.23875,5 5,5 2.761375,0 5,-2.238625 5,-5 0,-2.761375 -2.238625,-5 -5,-5 z"
     id="path4777"
     inkscape:connector-curvature="0" />
</svg>
