<?xml version="1.0" encoding="UTF-8" standalone="no"?>
<svg
   xmlns:dc="http://purl.org/dc/elements/1.1/"
   xmlns:cc="http://creativecommons.org/ns#"
   xmlns:rdf="http://www.w3.org/1999/02/22-rdf-syntax-ns#"
   xmlns:svg="http://www.w3.org/2000/svg"
   xmlns="http://www.w3.org/2000/svg"
   xmlns:sodipodi="http://sodipodi.sourceforge.net/DTD/sodipodi-0.dtd"
   xmlns:inkscape="http://www.inkscape.org/namespaces/inkscape"
   viewBox="0 0 48 48"
   version="1.1"
   id="svg55"
   sodipodi:docname="usb-creator.svg"
   inkscape:version="0.92.0 r15299">
  <metadata
     id="metadata59">
    <rdf:RDF>
      <cc:Work
         rdf:about="">
        <dc:format>image/svg+xml</dc:format>
        <dc:type
           rdf:resource="http://purl.org/dc/dcmitype/StillImage" />
      </cc:Work>
    </rdf:RDF>
  </metadata>
  <sodipodi:namedview
     pagecolor="#ffffff"
     bordercolor="#666666"
     borderopacity="1"
     objecttolerance="10"
     gridtolerance="10"
     guidetolerance="10"
     inkscape:pageopacity="0"
     inkscape:pageshadow="2"
     inkscape:window-width="1600"
     inkscape:window-height="872"
     id="namedview57"
     showgrid="false"
     inkscape:zoom="4.9166667"
     inkscape:cx="-10.983051"
     inkscape:cy="-0.40677966"
     inkscape:window-x="0"
     inkscape:window-y="0"
     inkscape:window-maximized="1"
     inkscape:current-layer="svg55" />
  <defs
     id="defs17">
    <linearGradient
       id="linearGradient3764"
       x1="1"
       x2="47"
       gradientUnits="userSpaceOnUse"
       gradientTransform="rotate(-90,23.999998,24)">
      <stop
         style="stop-color:#842c5c;stop-opacity:1"
         id="stop2" />
      <stop
         offset="1"
         style="stop-color:#923165;stop-opacity:1"
         id="stop4" />
    </linearGradient>
    <clipPath
       id="clipPath-263624901">
      <g
         transform="translate(0,-1004.3622)"
         id="g9">
        <path
           d="m -24 13 c 0 1.105 -0.672 2 -1.5 2 -0.828 0 -1.5 -0.895 -1.5 -2 0 -1.105 0.672 -2 1.5 -2 0.828 0 1.5 0.895 1.5 2 z"
           transform="matrix(15.333333,0,0,11.5,414.99999,878.8622)"
           style="fill:#1890d0"
           id="path7" />
      </g>
    </clipPath>
    <clipPath
       id="clipPath-273353313">
      <g
         transform="translate(0,-1004.3622)"
         id="g14">
        <path
           d="m -24 13 c 0 1.105 -0.672 2 -1.5 2 -0.828 0 -1.5 -0.895 -1.5 -2 0 -1.105 0.672 -2 1.5 -2 0.828 0 1.5 0.895 1.5 2 z"
           transform="matrix(15.333333,0,0,11.5,414.99999,878.8622)"
           style="fill:#1890d0"
           id="path12" />
      </g>
    </clipPath>
  </defs>
  <g
     id="g25">
    <path
       d="m 36.31 5 c 5.859 4.062 9.688 10.831 9.688 18.5 c 0 12.426 -10.07 22.5 -22.5 22.5 c -7.669 0 -14.438 -3.828 -18.5 -9.688 c 1.037 1.822 2.306 3.499 3.781 4.969 c 4.085 3.712 9.514 5.969 15.469 5.969 c 12.703 0 23 -10.298 23 -23 c 0 -5.954 -2.256 -11.384 -5.969 -15.469 c -1.469 -1.475 -3.147 -2.744 -4.969 -3.781 z m 4.969 3.781 c 3.854 4.113 6.219 9.637 6.219 15.719 c 0 12.703 -10.297 23 -23 23 c -6.081 0 -11.606 -2.364 -15.719 -6.219 c 4.16 4.144 9.883 6.719 16.219 6.719 c 12.703 0 23 -10.298 23 -23 c 0 -6.335 -2.575 -12.06 -6.719 -16.219 z"
       style="opacity:0.05"
       id="path19" />
    <path
       d="m 41.28 8.781 c 3.712 4.085 5.969 9.514 5.969 15.469 c 0 12.703 -10.297 23 -23 23 c -5.954 0 -11.384 -2.256 -15.469 -5.969 c 4.113 3.854 9.637 6.219 15.719 6.219 c 12.703 0 23 -10.298 23 -23 c 0 -6.081 -2.364 -11.606 -6.219 -15.719 z"
       style="opacity:0.1"
       id="path21" />
    <path
       d="m 31.25 2.375 c 8.615 3.154 14.75 11.417 14.75 21.13 c 0 12.426 -10.07 22.5 -22.5 22.5 c -9.708 0 -17.971 -6.135 -21.12 -14.75 a 23 23 0 0 0 44.875 -7 a 23 23 0 0 0 -16 -21.875 z"
       style="opacity:0.2"
       id="path23" />
  </g>
  <path
     inkscape:connector-curvature="0"
     id="path27"
     style="fill:#5a37a0;fill-opacity:1"
     d="M 24,1 C 36.703,1 47,11.297 47,24 47,36.703 36.703,47 24,47 11.297,47 1,36.703 1,24 1,11.297 11.297,1 24,1 Z" />
  <g
     id="g41">
    <g
       style="clip-path:url(#clipPath-263624901)"
       clip-path="url(#clipPath-263624901)"
       id="g39">
      <g
         transform="translate(1,1)"
         id="g37">
        <g
           style="opacity:0.1"
           id="g35">
          <!-- color: #923165 -->
          <g
             id="g33">
            <path
               d="m 24 11 c -1.461 0 -2.777 1.125 -2.777 2.516 c 0 1.094 0.75 2.141 1.777 2.48 l 0 4 l -4.234 3.473 c -0.223 0.152 -0.418 0.418 -0.418 0.68 l 0 1.844 l -1.352 0 l 0 4 l 4 0 l 0 -4 l -0.996 0 l 0 -1.414 l 3 -2.586 l 0 10 l -2 0 l 3 5 l 3 -5 l -2 0 l 0 -12.508 l 3 2.508 l 0 1.781 c -0.777 0.324 -1.406 1.055 -1.406 1.91 c 0 1.16 0.988 2.098 2.203 2.098 c 1.215 0 2.199 -0.938 2.199 -2.098 c 0 -0.855 -0.547 -1.586 -1.32 -1.91 l 0 -2.285 c 0.004 -0.246 -0.117 -0.496 -0.316 -0.652 l -4.363 -3.543 l 0 -1.301 c 1.027 -0.344 1.512 -1.391 1.512 -2.484 c 0 -1.391 -1.051 -2.516 -2.508 -2.516 m -0.008 0.004"
               style="fill:#000;fill-opacity:1;stroke:none;fill-rule:nonzero"
               id="path31" />
          </g>
        </g>
      </g>
    </g>
  </g>
  <path
     inkscape:connector-curvature="0"
     id="path43"
     style="fill:#ffcb45;fill-opacity:1;fill-rule:nonzero;stroke:none"
     d="m 24,11 c -1.461,0 -2.777,1.125 -2.777,2.516 0,1.094 0.75,2.141 1.777,2.48 v 4 l -4.234,3.473 c -0.223,0.152 -0.418,0.418 -0.418,0.68 v 1.844 h -1.352 v 4 h 4 v -4 H 20 v -1.414 l 3,-2.586 v 10 h -2 l 3,5 3,-5 H 25 V 19.485 l 3,2.508 v 1.781 c -0.777,0.324 -1.406,1.055 -1.406,1.91 0,1.16 0.988,2.098 2.203,2.098 1.215,0 2.199,-0.938 2.199,-2.098 0,-0.855 -0.547,-1.586 -1.32,-1.91 V 21.489 C 29.68,21.243 29.559,20.993 29.36,20.837 l -4.363,-3.543 v -1.301 c 1.027,-0.344 1.512,-1.391 1.512,-2.484 0,-1.391 -1.051,-2.516 -2.508,-2.516 m -0.008,0.004" />
  <g
     id="g53">
    <path
       d="m 40.03 7.531 c 3.712 4.084 5.969 9.514 5.969 15.469 0 12.703 -10.297 23 -23 23 c -5.954 0 -11.384 -2.256 -15.469 -5.969 4.178 4.291 10.01 6.969 16.469 6.969 c 12.703 0 23 -10.298 23 -23 0 -6.462 -2.677 -12.291 -6.969 -16.469 z"
       style="opacity:0.1"
       id="path51" />
  </g>
</svg>
