<?xml version="1.0" encoding="UTF-8" standalone="no"?>
<svg
   xmlns:dc="http://purl.org/dc/elements/1.1/"
   xmlns:cc="http://creativecommons.org/ns#"
   xmlns:rdf="http://www.w3.org/1999/02/22-rdf-syntax-ns#"
   xmlns:svg="http://www.w3.org/2000/svg"
   xmlns="http://www.w3.org/2000/svg"
   xmlns:sodipodi="http://sodipodi.sourceforge.net/DTD/sodipodi-0.dtd"
   xmlns:inkscape="http://www.inkscape.org/namespaces/inkscape"
   viewBox="0 0 48 48"
   version="1.1"
   id="svg61"
   sodipodi:docname="file-roller.svg"
   inkscape:version="0.92.1 r15371">
  <metadata
     id="metadata65">
    <rdf:RDF>
      <cc:Work
         rdf:about="">
        <dc:format>image/svg+xml</dc:format>
        <dc:type
           rdf:resource="http://purl.org/dc/dcmitype/StillImage" />
      </cc:Work>
    </rdf:RDF>
  </metadata>
  <sodipodi:namedview
     pagecolor="#ffffff"
     bordercolor="#666666"
     borderopacity="1"
     objecttolerance="10"
     gridtolerance="10"
     guidetolerance="10"
     inkscape:pageopacity="0"
     inkscape:pageshadow="2"
     inkscape:window-width="1600"
     inkscape:window-height="875"
     id="namedview63"
     showgrid="false"
     inkscape:zoom="6.9532167"
     inkscape:cx="52.048532"
     inkscape:cy="14.730256"
     inkscape:window-x="0"
     inkscape:window-y="0"
     inkscape:window-maximized="1"
     inkscape:current-layer="svg61" />
  <defs
     id="defs17">
    <linearGradient
       id="linearGradient3764"
       x1="1"
       x2="47"
       gradientUnits="userSpaceOnUse"
       gradientTransform="rotate(-90,23.999998,24)">
      <stop
         stop-color="#eb9437"
         stop-opacity="1"
         id="stop2" />
      <stop
         offset="1"
         stop-color="#ed9d49"
         stop-opacity="1"
         id="stop4" />
    </linearGradient>
    <clipPath
       id="clipPath-235938777">
      <g
         transform="translate(0,-1004.3622)"
         id="g9">
        <path
           d="m -24 13 c 0 1.105 -0.672 2 -1.5 2 -0.828 0 -1.5 -0.895 -1.5 -2 0 -1.105 0.672 -2 1.5 -2 0.828 0 1.5 0.895 1.5 2 z"
           transform="matrix(15.333333,0,0,11.5,414.99999,878.8622)"
           fill="#1890d0"
           id="path7" />
      </g>
    </clipPath>
    <clipPath
       id="clipPath-241572310">
      <g
         transform="translate(0,-1004.3622)"
         id="g14">
        <path
           d="m -24 13 c 0 1.105 -0.672 2 -1.5 2 -0.828 0 -1.5 -0.895 -1.5 -2 0 -1.105 0.672 -2 1.5 -2 0.828 0 1.5 0.895 1.5 2 z"
           transform="matrix(15.333333,0,0,11.5,414.99999,878.8622)"
           fill="#1890d0"
           id="path12" />
      </g>
    </clipPath>
  </defs>
  <g
     id="g25">
    <path
       d="m 36.31 5 c 5.859 4.062 9.688 10.831 9.688 18.5 c 0 12.426 -10.07 22.5 -22.5 22.5 c -7.669 0 -14.438 -3.828 -18.5 -9.688 c 1.037 1.822 2.306 3.499 3.781 4.969 c 4.085 3.712 9.514 5.969 15.469 5.969 c 12.703 0 23 -10.298 23 -23 c 0 -5.954 -2.256 -11.384 -5.969 -15.469 c -1.469 -1.475 -3.147 -2.744 -4.969 -3.781 z m 4.969 3.781 c 3.854 4.113 6.219 9.637 6.219 15.719 c 0 12.703 -10.297 23 -23 23 c -6.081 0 -11.606 -2.364 -15.719 -6.219 c 4.16 4.144 9.883 6.719 16.219 6.719 c 12.703 0 23 -10.298 23 -23 c 0 -6.335 -2.575 -12.06 -6.719 -16.219 z"
       opacity="0.05"
       id="path19" />
    <path
       d="m 41.28 8.781 c 3.712 4.085 5.969 9.514 5.969 15.469 c 0 12.703 -10.297 23 -23 23 c -5.954 0 -11.384 -2.256 -15.469 -5.969 c 4.113 3.854 9.637 6.219 15.719 6.219 c 12.703 0 23 -10.298 23 -23 c 0 -6.081 -2.364 -11.606 -6.219 -15.719 z"
       opacity="0.1"
       id="path21" />
    <path
       d="m 31.25 2.375 c 8.615 3.154 14.75 11.417 14.75 21.13 c 0 12.426 -10.07 22.5 -22.5 22.5 c -9.708 0 -17.971 -6.135 -21.12 -14.75 a 23 23 0 0 0 44.875 -7 a 23 23 0 0 0 -16 -21.875 z"
       opacity="0.2"
       id="path23" />
  </g>
  <path
     inkscape:connector-curvature="0"
     style="fill:#7c6f91;fill-opacity:1"
     id="path27"
     d="M 24,1 C 36.703,1 47,11.297 47,24 47,36.703 36.703,47 24,47 11.297,47 1,36.703 1,24 1,11.297 11.297,1 24,1 Z" />
  <g
     id="g31" />
  <g
     id="g59">
    <path
       d="m 40.03 7.531 c 3.712 4.084 5.969 9.514 5.969 15.469 0 12.703 -10.297 23 -23 23 c -5.954 0 -11.384 -2.256 -15.469 -5.969 4.178 4.291 10.01 6.969 16.469 6.969 c 12.703 0 23 -10.298 23 -23 0 -6.462 -2.677 -12.291 -6.969 -16.469 z"
       opacity="0.1"
       id="path57" />
  </g>
  <path
     class="fil108"
     d="m 13.881398,11.631847 c 2.033953,1.279715 4.388656,3.729385 4.84552,6.64549 v 17.178404 m 11.132013,0 V 18.277337 c 0.456857,-2.916115 2.786522,-5.419558 4.820493,-6.700371"
     id="path211-6"
     inkscape:connector-curvature="0"
     style="display:inline;fill:none;stroke-width:1.20204997" />
  <polygon
     transform="matrix(1.5609402,0,0,1.0513032,-13.577503,-10.325482)"
     style="display:inline;fill:#ffffff;fill-rule:evenodd"
     points="24.7559,44.0929 24.7559,45.4028 22.0228,45.4028 22.0228,44.0929 "
     class="fil116"
     id="_94968328-4" />
  <polygon
     transform="matrix(1.5609402,0,0,1.0513032,-13.86514,-10.325482)"
     style="display:inline;fill:#ffffff;fill-rule:evenodd"
     points="26.2311,43.872 23.1874,43.872 23.1874,42.561 26.2311,42.561 "
     class="fil119"
     id="_93006896-3" />
  <polygon
     transform="matrix(1.5609402,0,0,1.0513032,-13.86514,-10.325482)"
     style="display:inline;fill:#ffffff;fill-rule:evenodd"
     points="24.802,42.2858 21.7571,42.2858 21.7571,40.976 24.802,40.976 "
     class="fil119"
     id="_120420624-2" />
  <path
     style="display:inline;fill:#ffffff;fill-rule:evenodd;stroke-width:1.46584284"
     d="m 23.853393,7.0448706 c 1.944396,-0.095992 3.401681,1.0746132 4.777911,1.9265156 1.34061,0.9217671 3.002646,1.9543598 3.067767,3.4150398 -0.346215,1.269722 -2.086288,2.082539 -2.208792,3.436146 -0.188247,1.024805 0.153895,2.486753 -1.867618,2.181957 -2.698015,0.08622 -5.399538,-0.01762 -8.095173,0.01067 -1.728143,-0.0044 -0.864178,-1.478242 -1.344146,-2.263803 -0.27996,-0.980973 -0.980721,-1.860435 -1.856027,-2.611831 -0.963511,-1.305938 0.554302,-2.635321 1.792643,-3.4892178 1.452079,-1.0733658 3.027169,-2.2036356 5.049954,-2.6223673 0.227211,-0.020302 0.458595,-0.014529 0.683481,0.016914 z"
     id="path268-0"
     inkscape:connector-curvature="0" />
  <path
     style="display:inline;fill:#9d93ac;fill-opacity:1;fill-rule:nonzero;stroke-width:1.46584284"
     d="m 23.875955,5.394289 c 2.304254,-0.095257 4.114246,1.1888319 5.727249,2.2336322 1.561573,1.0488146 3.254437,2.2729778 3.358932,3.9392678 0.394425,1.159175 -0.365944,2.209005 -1.381887,3.034512 -0.825204,1.027947 -0.964834,2.259528 -0.948799,3.430337 -1.040759,1.172786 -3.222742,0.686339 -4.816579,0.808705 -2.52551,-0.02238 -5.07834,0.145061 -7.578569,-0.192524 -1.739224,-0.858937 -0.350045,-2.846676 -1.739458,-3.979862 -1.189617,-0.944622 -1.647931,-2.142349 -1.668542,-3.3915 0.200244,-1.754449 2.261448,-2.9120421 3.85105,-4.0401163 1.441284,-0.9079301 3.19161,-1.9557864 5.196603,-1.8424517 z m 0.448791,1.4121942 C 22.340727,6.6768968 20.949004,7.9352495 19.553702,8.77846 c -0.863017,0.632404 -1.826264,1.303424 -2.226606,2.164314 -0.265744,1.095778 0.233717,2.188967 1.222884,3.008425 0.937733,1.005743 1.086628,2.240703 1.254471,3.377116 1.981592,0.164898 4.043618,0.08296 6.056373,0.09289 1.193166,-0.02558 2.830408,0.256033 2.526315,-1.032868 0.09876,-1.237984 0.899403,-2.345167 1.914913,-3.299458 0.597304,-0.777672 0.246624,-1.831617 -0.167608,-2.634489 C 28.59674,8.9765307 26.691653,7.5138588 24.324746,6.8064832 Z"
     id="path270-4"
     inkscape:connector-curvature="0" />
  <path
     style="display:inline;fill:#9d93ac;fill-opacity:1;fill-rule:nonzero;stroke-width:1.46584284"
     d="m 18.46219,14.32407 c 3.938004,0.02242 7.880448,-0.04597 11.815646,0.03626 1.692253,0.159095 3.32352,1.307402 3.064723,2.640284 -0.03537,5.106351 0.0711,10.218949 -0.05411,15.321386 -0.45587,1.509556 -2.81281,2.101385 -4.681702,1.927057 -3.68339,-0.03046 -7.374796,0.07233 -11.052968,-0.05787 -1.962707,-0.204988 -3.268221,-1.675534 -2.885614,-3.090137 0.0097,-4.902845 -0.02578,-9.805756 0.01858,-14.70855 0.238602,-1.311807 2.115731,-2.087919 3.775449,-2.06842 z m 10.134352,2.861606 c -3.061161,0 -6.122318,0 -9.183478,0 0,2.151274 0,4.302548 0,6.453821 2.99846,-0.01971 5.997043,-0.0027 8.995555,-0.0083 -1.759671,0.166931 -0.279674,-1.617831 -0.497168,-2.35426 0.22837,-1.3637 0.456743,-2.7274 0.685091,-4.091102 z m -1.663349,9.849852 c -1.943843,0 -3.887687,0 -5.831531,0 -0.07947,0.86705 -0.158971,1.734101 -0.23843,2.601151 2.136454,-0.0051 4.272909,-0.01023 6.409363,-0.01533 -0.113134,-0.861943 -0.22624,-1.723888 -0.339402,-2.585829 z"
     id="path276-6"
     inkscape:connector-curvature="0" />
  <path
     style="display:inline;fill:#ffffff;fill-rule:evenodd;stroke-width:1.46584284"
     d="m 18.46219,15.754852 c 3.855919,0.0265 7.718869,-0.05394 11.57034,0.04192 1.29322,0.317059 0.878637,1.433954 0.929033,2.208234 -0.02725,4.703672 -0.05453,9.407348 -0.08176,14.111023 -0.234758,1.159111 -2.224118,0.827233 -3.33361,0.865447 -3.218101,-0.01785 -6.443105,0.05115 -9.656829,-0.03917 -1.295014,-0.315293 -0.881033,-1.432939 -0.93106,-2.207133 0.02725,-4.703674 0.05449,-9.407348 0.08175,-14.111024 0.0042,-0.534756 0.762121,-0.882373 1.422145,-0.869299 z m 2.131776,10.666726 c 2.33273,-0.01078 4.665185,-0.05248 6.99806,-0.04388 1.336346,0.661705 0.652149,2.182899 1.050387,3.224622 0.380074,0.868165 0.03696,1.985217 -1.548566,1.663725 -2.442207,-0.0059 -4.905196,0.121425 -7.336723,0.02428 -1.116004,-0.904115 0.0083,-2.428298 -0.142961,-3.587072 0.115096,-0.500423 -0.0061,-1.288037 0.979805,-1.281692 z"
     id="path278-2"
     inkscape:connector-curvature="0" />
  <path
     style="display:inline;fill:#ffffff;fill-rule:evenodd;stroke-width:1.46584284"
     d="m 26.512544,11.42528 c 0,0.929607 0,1.859212 0,2.788819 -1.616579,0 -3.233156,0 -4.849733,0 0,-0.929607 0,-1.859212 0,-2.788819 1.616577,0 3.233154,0 4.849733,0 z"
     id="polygon296-0"
     inkscape:connector-curvature="0" />
  <path
     style="display:inline;fill:#9d93ac;fill-opacity:1;fill-rule:nonzero;stroke-width:1.46584284"
     d="m 21.474717,10.1974 c 1.972213,0.028 3.952776,-0.05883 5.919536,0.04869 1.339863,0.268972 1.098891,1.477202 1.067133,2.266049 -0.04642,2.71917 -0.03395,5.439031 -0.136198,8.157571 -0.571699,1.16779 -2.563091,0.742766 -3.845345,0.817643 -1.434841,-0.151146 -3.253468,0.377695 -4.421026,-0.402805 -0.67692,-0.80048 -0.201896,-1.787967 -0.317439,-2.673735 0.03222,-2.465142 0.0312,-4.930754 0.122031,-7.395263 0.177184,-0.519637 0.924667,-0.82339 1.611317,-0.818152 z m 5.203208,1.087476 c -1.68111,0 -3.362219,0 -5.043329,0 -0.0402,2.948418 -0.08041,5.896837 -0.120609,8.845255 1.680176,0 3.360354,0 5.040532,0 0.04114,-2.948417 0.08226,-5.896846 0.123403,-8.845255 z"
     id="path302-4"
     inkscape:connector-curvature="0" />
  <polygon
     transform="matrix(1.2403777,0,0,1.0661386,-56.65541,0.02553901)"
     style="display:inline;fill:#ffffff;fill-rule:evenodd"
     points="22.0228,44.0929 24.7559,44.0929 24.7559,45.4028 22.0228,45.4028 "
     class="fil116"
     id="_94968328-2-6" />
  <polygon
     transform="matrix(1.2403777,0,0,1.0661386,-56.65541,0.02553901)"
     style="display:inline;fill:#ffffff;fill-rule:evenodd"
     points="23.1874,42.561 26.2311,42.561 26.2311,43.872 23.1874,43.872 "
     class="fil119"
     id="_93006896-5-8" />
  <polygon
     transform="matrix(1.5609402,0,0,1.0513032,-13.650137,-7.0889178)"
     style="display:inline;fill:#ffffff;fill-rule:evenodd"
     points="23.1874,43.872 23.1874,42.561 26.2311,42.561 26.2311,43.872 "
     class="fil119"
     id="_93006896-3-3" />
  <polygon
     transform="matrix(1.5609402,0,0,1.0513032,-13.694819,-7.0774505)"
     style="display:inline;fill:#ffffff;fill-rule:evenodd"
     points="24.7559,45.4028 22.0228,45.4028 22.0228,44.0929 24.7559,44.0929 "
     class="fil116"
     id="_94968328-4-6" />
</svg>
