<?xml version="1.0" encoding="UTF-8" standalone="no"?>
<svg
   xmlns:dc="http://purl.org/dc/elements/1.1/"
   xmlns:cc="http://creativecommons.org/ns#"
   xmlns:rdf="http://www.w3.org/1999/02/22-rdf-syntax-ns#"
   xmlns:svg="http://www.w3.org/2000/svg"
   xmlns="http://www.w3.org/2000/svg"
   xmlns:sodipodi="http://sodipodi.sourceforge.net/DTD/sodipodi-0.dtd"
   xmlns:inkscape="http://www.inkscape.org/namespaces/inkscape"
   width="48"
   height="48"
   version="1.1"
   viewBox="0 0 48 48"
   id="svg12"
   sodipodi:docname="victor-vran.svg"
   inkscape:version="0.92.2pre0 (973e216, 2017-07-25)">
  <metadata
     id="metadata18">
    <rdf:RDF>
      <cc:Work
         rdf:about="">
        <dc:format>image/svg+xml</dc:format>
        <dc:type
           rdf:resource="http://purl.org/dc/dcmitype/StillImage" />
      </cc:Work>
    </rdf:RDF>
  </metadata>
  <defs
     id="defs16" />
  <sodipodi:namedview
     pagecolor="#ffffff"
     bordercolor="#666666"
     borderopacity="1"
     objecttolerance="10"
     gridtolerance="10"
     guidetolerance="10"
     inkscape:pageopacity="0"
     inkscape:pageshadow="2"
     inkscape:window-width="1360"
     inkscape:window-height="691"
     id="namedview14"
     showgrid="false"
     inkscape:zoom="4.9166667"
     inkscape:cx="24"
     inkscape:cy="24"
     inkscape:window-x="0"
     inkscape:window-y="0"
     inkscape:window-maximized="1"
     inkscape:current-layer="svg12" />
  <g
     id="g24"
     transform="translate(0,0.40677966)">
    <rect
       style="fill:#32434d;stroke-width:1.15834975"
       id="rect2"
       transform="matrix(0,-1,-1,0,0,0)"
       ry="23.050579"
       rx="23.284002"
       y="-46.847191"
       x="-47.313766"
       height="46.101158"
       width="46.568005" />
    <path
       style="opacity:0.1;fill:#ffffff;stroke-width:1.15834975"
       inkscape:connector-curvature="0"
       id="path4"
       d="m 23.796612,0.74576268 c -12.77002,0 -23.05057799,10.38466432 -23.05057799,23.28400132 0,0.195585 -0.00461,0.387679 0,0.5821 C 1.0507626,11.984949 11.220217,1.9099629 23.796612,1.9099629 c 12.576394,0 22.746309,10.0749861 23.050576,22.7019011 0.0045,-0.194421 0,-0.386515 0,-0.5821 0,-12.899337 -10.280557,-23.28400132 -23.050576,-23.28400132 z" />
    <path
       style="opacity:0.2;stroke-width:1.15834975"
       inkscape:connector-curvature="0"
       id="path6"
       d="M 23.796612,10.059363 A 14.982875,15.134601 0 0 0 8.8137363,25.193964 14.982875,15.134601 0 0 0 18.529209,39.343651 c -0.0072,-0.21526 -0.0081,-0.492107 -0.02251,-0.652533 -0.04406,-0.501887 0.07636,-2.742739 0.184589,-3.424495 0.03734,-0.235517 0.172995,-0.699569 0.301639,-1.029968 0.255125,-0.655445 0.54283,-1.638146 0.64605,-2.216986 0.03612,-0.201988 0.127942,-0.588853 0.20484,-0.85953 0.117904,-0.413872 0.131757,-0.593624 0.0923,-1.14371 -0.03611,-0.50305 -0.02192,-0.726344 0.05853,-0.977811 0.135998,-0.428425 0.129083,-0.577442 -0.02997,-0.961629 -0.08298,-0.199078 -0.132542,-0.486636 -0.134846,-0.761387 l -0.0044,-0.441115 -0.128311,0.168227 c -0.07065,0.09314 -0.175749,0.357759 -0.234101,0.588969 -0.256611,1.015066 -0.650454,1.604966 -1.791837,2.694424 -0.412606,0.393616 -0.775859,0.786418 -0.808119,0.873151 -0.444945,1.196913 -0.487358,1.368051 -0.45246,1.828142 0.01924,0.253564 0.05583,0.530876 0.08104,0.616212 0.06183,0.209324 -0.143685,0.296173 -0.310641,0.131903 -0.06932,-0.06753 -0.170724,-0.09779 -0.234101,-0.07218 -0.09036,0.03841 -0.104843,0.118981 -0.07879,0.413873 0.0388,0.440417 0.05924,0.470337 0.34441,0.461489 0.185373,0 0.233285,0.02562 0.294887,0.204666 0.04116,0.11968 0.0476,0.213748 0.01351,0.213748 -0.03389,0 -0.06304,0.09662 -0.06304,0.220615 0,0.211652 -0.01072,0.2205 -0.297135,0.2205 -0.258454,0 -0.303253,0.02212 -0.3219,0.163803 -0.01384,0.104777 -0.07489,0.174863 -0.171082,0.188716 -0.19918,0.03144 -0.745028,-0.562075 -0.956691,-1.039165 -0.212884,-0.480232 -0.173214,-1.220663 0.112555,-2.144223 0.112648,-0.363812 0.240373,-0.860461 0.285886,-1.102846 0.107611,-0.573834 0.235265,-0.832288 0.434445,-0.886772 0.123759,-0.03259 0.2387,-0.217939 0.49523,-0.791307 0.183887,-0.410963 0.405195,-0.962676 0.490725,-1.225553 0.185141,-0.568596 0.38718,-0.90796 0.927428,-1.557583 0.221632,-0.266719 0.439862,-0.610507 0.486229,-0.766277 0.0464,-0.158098 0.224293,-0.614697 0.393935,-1.018675 l 0.308392,-0.734495 0.04277,-1.323345 c 0.02412,-0.727625 0.07741,-1.441629 0.119309,-1.584826 0.04174,-0.143545 0.243623,-0.480231 0.447954,-0.750327 0.219845,-0.290119 0.371414,-0.563007 0.371414,-0.666271 0,-0.207578 0.314767,-0.703177 0.556002,-0.875479 0.09428,-0.06636 0.258835,-0.144361 0.364673,-0.170555 0.379378,-0.09314 0.429962,-0.120262 0.499725,-0.26148 0.05623,-0.115255 0.0264,-0.237148 -0.141819,-0.597932 -0.116556,-0.250187 -0.252934,-0.521097 -0.303887,-0.600379 -0.08143,-0.126898 -0.07677,-0.155769 0.04052,-0.245529 0.07346,-0.05705 0.322443,-0.145759 0.553755,-0.195585 0.392851,-0.08849 0.422563,-0.103613 0.4412,-0.306883 0.01799,-0.194656 -0.02184,-0.242038 -0.405183,-0.486637 -0.883518,-0.564054 -1.201627,-0.931593 -1.197592,-1.377947 0.005,-0.502586 0.26999,-0.787698 1.030971,-1.1096 0.386766,-0.162987 0.488418,-0.237962 0.506479,-0.375221 0.01243,-0.09314 0.04934,-0.202804 0.0833,-0.240989 0.0339,-0.03958 0.06304,-0.208277 0.06304,-0.375222 0,-0.503051 0.143869,-1.162919 0.294887,-1.346048 0.28004,-0.33983 0.502005,-0.412476 1.222255,-0.409333 0.565628,0 0.721012,0.02911 0.965693,0.166015 0.329324,0.187088 0.394454,0.319689 0.619034,1.259665 0.08202,0.343555 0.204183,0.678263 0.272378,0.743574 0.06819,0.0652 0.141784,0.199893 0.164328,0.297802 0.03086,0.133301 0.14168,0.220733 0.445706,0.352521 0.78622,0.340412 1.207619,0.941604 1.062493,1.514392 -0.12604,0.497579 -0.770362,1.061866 -1.211077,1.061866 -0.07113,0 -0.12831,0.05123 -0.12831,0.111762 0,0.05937 0.04207,0.109436 0.09229,0.109436 0.06477,0 0.102944,0.157283 0.132807,0.543448 0.02328,0.299665 0.07771,0.631695 0.121557,0.736706 0.07676,0.183594 0.101522,0.189066 0.659545,0.188717 0.493813,-2.33e-4 0.656596,0.0326 1.116513,0.234237 0.29666,0.128993 0.564381,0.278127 0.594267,0.33203 0.02987,0.05472 0.197358,0.17754 0.371425,0.275101 0.441176,0.24681 1.072958,0.980721 1.555453,1.805441 0.224697,0.383953 0.471914,0.776172 0.547002,0.870822 0.07507,0.09314 0.135065,0.220847 0.135065,0.281968 0,0.0617 0.06971,0.215611 0.153067,0.343323 0.08361,0.128877 0.156041,0.354499 0.162069,0.507126 0.01398,0.358806 0.2795,0.964307 0.949936,2.164714 0.416571,0.746018 0.553226,1.058723 0.589773,1.348377 0.02623,0.207576 0.06616,1.248254 0.09005,2.31245 0.04175,1.86144 0.05027,1.941653 0.19359,2.107784 0.148826,0.172999 0.148491,0.172768 0.08779,1.973669 -0.03344,0.99085 -0.09072,1.888797 -0.128313,1.996486 -0.03758,0.108271 -0.159912,0.246695 -0.270129,0.309212 -0.110181,0.0617 -0.217044,0.172999 -0.238608,0.247858 -0.02157,0.0745 -0.222979,0.230511 -0.447953,0.347863 -0.224974,0.118399 -0.424327,0.238312 -0.4412,0.268347 -0.01688,0.03027 0.09757,0.328771 0.252116,0.663945 0.15996,0.347164 0.351325,0.630763 0.596527,0.934503 A 14.982875,15.134601 0 0 0 38.776502,25.06206 14.982875,15.134601 0 0 0 23.793627,9.9274601 Z m 4.04065,14.354586 c -0.02732,0 -0.04245,0.172419 -0.03377,0.384303 0.01309,0.312238 -0.01671,0.434712 -0.153068,0.638913 -0.09269,0.140403 -0.308187,0.551714 -0.479475,0.918554 l -0.310642,0.666273 1.283111,2.755893 c 1.415421,3.037165 1.554532,3.306096 1.697329,3.306096 0.05376,0 0.215327,-0.188251 0.360165,-0.420626 h 0.0023 c 0.14485,-0.232491 0.369893,-0.564287 0.501984,-0.736706 0.164155,-0.213747 0.26726,-0.446354 0.324149,-0.734493 0.04576,-0.231909 0.103908,-0.455203 0.130558,-0.4956 0.16714,-0.253213 0.134166,-0.554858 -0.146313,-1.334755 -0.321598,-0.894573 -0.454011,-1.57528 -0.459245,-2.351219 l -0.0044,-0.527499 -0.477216,-0.206879 c -0.380069,-0.165898 -0.598163,-0.331448 -1.071495,-0.814009 -0.32703,-0.333659 -0.64205,-0.607129 -0.700068,-0.607129 -0.05804,0 -0.140644,-0.07335 -0.18459,-0.163687 -0.08094,-0.167646 -0.18837,-0.273122 -0.27913,-0.275217 z m -0.184589,6.96704 c -0.09516,-0.07916 -0.08142,0.212234 -0.06978,0.78211 0.01337,0.645782 0.225205,1.673537 0.35566,1.72127 0.04546,0.01629 0.159164,0.11642 0.254362,0.220616 l 0.17333,0.188716 0.08779,2.86044 c 0.03682,1.225437 0.07883,1.894153 0.114803,2.367052 a 14.982875,15.134601 0 0 0 3.034377,-1.42568 c -0.822697,-0.478253 -1.56813,-1.431966 -2.118232,-2.778597 -0.17999,-0.440649 -0.681386,-1.56224 -1.112006,-2.492087 -0.423151,-0.913547 -0.625177,-1.364442 -0.72033,-1.44384 z m 3.16496,1.98042 c -0.04473,-0.02096 -0.08652,-0.01163 -0.141819,0.02096 -0.305039,0.178238 -0.296787,0.369283 0.04727,1.166528 0.214313,0.496647 0.341529,0.713305 0.378168,0.650323 0.03025,-0.05356 0.05338,-0.397924 0.05402,-0.768606 8.44e-4,-0.618306 -0.01157,-0.691303 -0.171081,-0.898181 -0.07255,-0.09431 -0.121846,-0.148901 -0.166575,-0.170555 z m -7.78856,3.692727 c -0.06735,0 -0.0967,0.08382 -0.09679,0.275101 -2.18e-4,0.271491 -0.210291,1.556884 -0.342163,2.09428 -0.02017,0.08265 -0.08933,0.52156 -0.141819,0.83671 a 14.982875,15.134601 0 0 0 1.154835,0.05937 c -0.0025,-0.496182 -0.151132,-1.38307 -0.299382,-1.766791 -0.0759,-0.196167 -0.105277,-0.448333 -0.0923,-0.800387 0.01982,-0.539839 -0.02133,-0.698054 -0.182331,-0.698054 z" />
    <path
       style="fill:#ffffff;stroke-width:1.15834975"
       inkscape:connector-curvature="0"
       id="path8"
       d="M 23.796612,8.895163 A 14.982875,15.134601 0 0 0 8.8137363,24.029764 14.982875,15.134601 0 0 0 18.529209,38.179451 c -0.0072,-0.21526 -0.0081,-0.492106 -0.02251,-0.652534 -0.04406,-0.501887 0.07636,-2.742738 0.184589,-3.424494 0.03734,-0.235517 0.172995,-0.699569 0.301639,-1.029968 0.255125,-0.655445 0.54283,-1.638146 0.64605,-2.216986 0.03612,-0.201988 0.127942,-0.588853 0.20484,-0.859529 0.117904,-0.413873 0.131757,-0.593626 0.0923,-1.143711 -0.03611,-0.50305 -0.02192,-0.726344 0.05853,-0.977811 0.135998,-0.428426 0.129083,-0.577442 -0.02997,-0.961629 -0.08298,-0.199078 -0.132542,-0.486636 -0.134846,-0.761387 l -0.0044,-0.441115 -0.128311,0.168227 c -0.07065,0.09314 -0.175749,0.357759 -0.234101,0.588968 -0.256611,1.015067 -0.650454,1.604966 -1.791837,2.694425 -0.412606,0.393616 -0.775859,0.786418 -0.808119,0.873151 -0.444945,1.196912 -0.487358,1.368051 -0.45246,1.828142 0.01924,0.253563 0.05583,0.530876 0.08104,0.616212 0.06183,0.209323 -0.143685,0.296172 -0.310641,0.131904 -0.06932,-0.06753 -0.170724,-0.09779 -0.234101,-0.07218 -0.09036,0.03842 -0.104843,0.118982 -0.07879,0.413874 0.0388,0.440417 0.05924,0.470335 0.34441,0.461488 0.185373,0 0.233285,0.02562 0.294887,0.204666 0.04116,0.119679 0.0476,0.213748 0.01351,0.213748 -0.03389,0 -0.06304,0.09662 -0.06304,0.220615 0,0.211652 -0.01072,0.2205 -0.297135,0.2205 -0.258454,0 -0.303253,0.02212 -0.3219,0.163803 -0.01384,0.104776 -0.07489,0.174863 -0.171082,0.188717 -0.19918,0.03143 -0.745028,-0.562076 -0.956691,-1.039166 -0.212884,-0.480232 -0.173214,-1.220664 0.112555,-2.144223 0.112648,-0.363813 0.240373,-0.860461 0.285886,-1.102847 0.107611,-0.573834 0.235265,-0.832286 0.434445,-0.886771 0.123759,-0.03259 0.2387,-0.217939 0.49523,-0.791307 0.183887,-0.410962 0.405195,-0.962676 0.490725,-1.225553 0.185141,-0.568596 0.38718,-0.907959 0.927428,-1.557584 0.221632,-0.266718 0.439862,-0.610506 0.486229,-0.766276 0.0464,-0.158098 0.224293,-0.614697 0.393935,-1.018676 l 0.308392,-0.734493 0.04277,-1.323346 c 0.02412,-0.727625 0.07741,-1.441629 0.119309,-1.584826 0.04174,-0.143546 0.243623,-0.480232 0.447954,-0.750327 0.219845,-0.290119 0.371414,-0.563007 0.371414,-0.666271 0,-0.207577 0.314767,-0.703177 0.556002,-0.875479 0.09428,-0.06636 0.258835,-0.144361 0.364673,-0.170555 0.379378,-0.09314 0.429962,-0.120263 0.499725,-0.26148 0.05623,-0.115255 0.0264,-0.237147 -0.141819,-0.597932 -0.116556,-0.250187 -0.252934,-0.521097 -0.303887,-0.600379 -0.08143,-0.126898 -0.07677,-0.155769 0.04052,-0.245529 0.07346,-0.05705 0.322443,-0.145759 0.553755,-0.195586 0.392851,-0.08849 0.422563,-0.103613 0.4412,-0.306883 0.01799,-0.194655 -0.02184,-0.242037 -0.405183,-0.486636 -0.883518,-0.564054 -1.201627,-0.931592 -1.197592,-1.377947 0.005,-0.502586 0.26999,-0.787698 1.030971,-1.109599 0.386766,-0.162988 0.488418,-0.237963 0.506479,-0.375222 0.01243,-0.09314 0.04934,-0.202804 0.0833,-0.240989 0.0339,-0.03958 0.06304,-0.208277 0.06304,-0.375222 0,-0.503051 0.143869,-1.16292 0.294887,-1.346048 0.28004,-0.33983 0.502005,-0.412476 1.222255,-0.409333 0.565628,0 0.721012,0.02911 0.965693,0.166015 0.329324,0.187087 0.394454,0.319689 0.619034,1.259665 0.08202,0.343556 0.204183,0.678263 0.272378,0.743574 0.06819,0.0652 0.141784,0.199893 0.164328,0.297802 0.03086,0.133301 0.14168,0.220733 0.445706,0.352521 0.78622,0.340412 1.207619,0.941605 1.062493,1.514391 -0.12604,0.497579 -0.770362,1.061867 -1.211077,1.061867 -0.07113,0 -0.12831,0.05123 -0.12831,0.111762 0,0.05938 0.04207,0.109435 0.09229,0.109435 0.06477,0 0.102944,0.157284 0.132807,0.543449 0.02328,0.299665 0.07771,0.631694 0.121557,0.736706 0.07676,0.183594 0.101522,0.189067 0.659545,0.188717 0.493813,-2.33e-4 0.656596,0.03259 1.116513,0.234237 0.29666,0.128993 0.564381,0.278127 0.594267,0.33203 0.02987,0.05472 0.197358,0.17754 0.371425,0.2751 0.441176,0.246811 1.072958,0.980722 1.555453,1.805442 0.224697,0.383952 0.471914,0.776172 0.547002,0.870821 0.07507,0.09314 0.135065,0.220849 0.135065,0.281969 0,0.0617 0.06971,0.21561 0.153067,0.343323 0.08361,0.128877 0.156041,0.354499 0.162069,0.507126 0.01398,0.358806 0.2795,0.964307 0.949936,2.164713 0.416571,0.746019 0.553226,1.058723 0.589773,1.348378 0.02623,0.207575 0.06616,1.248254 0.09005,2.312449 0.04175,1.86144 0.05027,1.941654 0.19359,2.107785 0.148826,0.172999 0.148491,0.172767 0.08779,1.973669 -0.03344,0.99085 -0.09072,1.888798 -0.128313,1.996486 -0.03758,0.108271 -0.159912,0.246695 -0.270129,0.309212 -0.110181,0.0617 -0.217044,0.172999 -0.238608,0.247858 -0.02157,0.07451 -0.222979,0.230511 -0.447953,0.347863 -0.224974,0.118399 -0.424327,0.238312 -0.4412,0.268347 -0.01688,0.03028 0.09757,0.328771 0.252116,0.663944 0.15996,0.347164 0.351325,0.630763 0.596527,0.934504 A 14.982875,15.134601 0 0 0 38.776502,23.89786 14.982875,15.134601 0 0 0 23.793627,8.7632599 Z m 4.04065,14.354586 c -0.02732,0 -0.04245,0.172419 -0.03377,0.384304 0.01309,0.312238 -0.01671,0.434712 -0.153068,0.638912 -0.09269,0.140403 -0.308187,0.551715 -0.479475,0.918554 l -0.310642,0.666272 1.283111,2.755894 c 1.415421,3.037166 1.554532,3.306096 1.697329,3.306096 0.05376,0 0.215327,-0.188252 0.360165,-0.420626 h 0.0023 c 0.14485,-0.23249 0.369893,-0.564287 0.501984,-0.736705 0.164155,-0.213748 0.26726,-0.446355 0.324149,-0.734494 0.04576,-0.23191 0.103908,-0.455203 0.130558,-0.4956 0.16714,-0.253213 0.134166,-0.554858 -0.146313,-1.334756 -0.321598,-0.894571 -0.454011,-1.57528 -0.459245,-2.351218 l -0.0044,-0.527499 -0.477216,-0.206879 c -0.380069,-0.165898 -0.598163,-0.331448 -1.071495,-0.814009 -0.32703,-0.333659 -0.64205,-0.607129 -0.700068,-0.607129 -0.05804,0 -0.140644,-0.07335 -0.18459,-0.163687 -0.08094,-0.167646 -0.18837,-0.273122 -0.27913,-0.275217 z m -0.184589,6.96704 c -0.09516,-0.07916 -0.08142,0.212234 -0.06978,0.782109 0.01337,0.645782 0.225205,1.673538 0.35566,1.721271 0.04546,0.01629 0.159164,0.11642 0.254362,0.220615 l 0.17333,0.188717 0.08779,2.860439 c 0.03682,1.225438 0.07883,1.894154 0.114803,2.367052 a 14.982875,15.134601 0 0 0 3.034377,-1.425679 c -0.822697,-0.478253 -1.56813,-1.431966 -2.118232,-2.778596 -0.17999,-0.44065 -0.681386,-1.56224 -1.112006,-2.492087 -0.423151,-0.913549 -0.625177,-1.364443 -0.72033,-1.443841 z m 3.16496,1.980421 c -0.04473,-0.02096 -0.08652,-0.01163 -0.141819,0.02096 -0.305039,0.178237 -0.296787,0.369283 0.04727,1.166528 0.214313,0.496647 0.341529,0.713305 0.378168,0.650323 0.03025,-0.05355 0.05338,-0.397925 0.05402,-0.768605 8.44e-4,-0.618307 -0.01157,-0.691303 -0.171081,-0.898181 -0.07255,-0.09431 -0.121846,-0.148902 -0.166575,-0.170556 z m -7.78856,3.692727 c -0.06735,0 -0.0967,0.08382 -0.09679,0.2751 -2.18e-4,0.27149 -0.210291,1.556884 -0.342163,2.09428 -0.02017,0.08265 -0.08933,0.52156 -0.141819,0.836709 a 14.982875,15.134601 0 0 0 1.154835,0.05937 c -0.0025,-0.496181 -0.151132,-1.383069 -0.299382,-1.766789 -0.0759,-0.196169 -0.105277,-0.448334 -0.0923,-0.800388 0.01982,-0.539839 -0.02133,-0.698055 -0.182331,-0.698055 z" />
  </g>
</svg>
