<?xml version="1.0" encoding="UTF-8" standalone="no"?>
<svg
   xmlns:dc="http://purl.org/dc/elements/1.1/"
   xmlns:cc="http://creativecommons.org/ns#"
   xmlns:rdf="http://www.w3.org/1999/02/22-rdf-syntax-ns#"
   xmlns:svg="http://www.w3.org/2000/svg"
   xmlns="http://www.w3.org/2000/svg"
   xmlns:xlink="http://www.w3.org/1999/xlink"
   xmlns:sodipodi="http://sodipodi.sourceforge.net/DTD/sodipodi-0.dtd"
   xmlns:inkscape="http://www.inkscape.org/namespaces/inkscape"
   viewBox="0 0 48 48"
   version="1.1"
   id="svg83"
   sodipodi:docname="vidalia.svg"
   inkscape:version="0.92.2pre0 (973e216, 2017-07-25)">
  <metadata
     id="metadata87">
    <rdf:RDF>
      <cc:Work
         rdf:about="">
        <dc:format>image/svg+xml</dc:format>
        <dc:type
           rdf:resource="http://purl.org/dc/dcmitype/StillImage" />
      </cc:Work>
    </rdf:RDF>
  </metadata>
  <sodipodi:namedview
     pagecolor="#ffffff"
     bordercolor="#666666"
     borderopacity="1"
     objecttolerance="10"
     gridtolerance="10"
     guidetolerance="10"
     inkscape:pageopacity="0"
     inkscape:pageshadow="2"
     inkscape:window-width="640"
     inkscape:window-height="480"
     id="namedview85"
     showgrid="false"
     inkscape:zoom="4.9166667"
     inkscape:cx="24"
     inkscape:cy="24"
     inkscape:window-x="0"
     inkscape:window-y="0"
     inkscape:window-maximized="0"
     inkscape:current-layer="svg83" />
  <defs
     id="defs17">
    <linearGradient
       id="linearGradient3764"
       x1="1"
       x2="47"
       gradientUnits="userSpaceOnUse"
       gradientTransform="matrix(0,-1,1,0,-1.5e-6,47.999998)">
      <stop
         stop-color="#e4e4e4"
         stop-opacity="1"
         id="stop2" />
      <stop
         offset="1"
         stop-color="#eee"
         stop-opacity="1"
         id="stop4" />
    </linearGradient>
    <clipPath
       id="clipPath-724775221">
      <g
         transform="translate(0,-1004.3622)"
         id="g9">
        <path
           d="m -24 13 c 0 1.105 -0.672 2 -1.5 2 -0.828 0 -1.5 -0.895 -1.5 -2 0 -1.105 0.672 -2 1.5 -2 0.828 0 1.5 0.895 1.5 2 z"
           transform="matrix(15.333333,0,0,11.5,414.99999,878.8622)"
           fill="#1890d0"
           id="path7" />
      </g>
    </clipPath>
    <clipPath
       id="clipPath-734034586">
      <g
         transform="translate(0,-1004.3622)"
         id="g14">
        <path
           d="m -24 13 c 0 1.105 -0.672 2 -1.5 2 -0.828 0 -1.5 -0.895 -1.5 -2 0 -1.105 0.672 -2 1.5 -2 0.828 0 1.5 0.895 1.5 2 z"
           transform="matrix(15.333333,0,0,11.5,414.99999,878.8622)"
           fill="#1890d0"
           id="path12" />
      </g>
    </clipPath>
  </defs>
  <g
     id="g25">
    <path
       d="m 36.31 5 c 5.859 4.062 9.688 10.831 9.688 18.5 c 0 12.426 -10.07 22.5 -22.5 22.5 c -7.669 0 -14.438 -3.828 -18.5 -9.688 c 1.037 1.822 2.306 3.499 3.781 4.969 c 4.085 3.712 9.514 5.969 15.469 5.969 c 12.703 0 23 -10.298 23 -23 c 0 -5.954 -2.256 -11.384 -5.969 -15.469 c -1.469 -1.475 -3.147 -2.744 -4.969 -3.781 z m 4.969 3.781 c 3.854 4.113 6.219 9.637 6.219 15.719 c 0 12.703 -10.297 23 -23 23 c -6.081 0 -11.606 -2.364 -15.719 -6.219 c 4.16 4.144 9.883 6.719 16.219 6.719 c 12.703 0 23 -10.298 23 -23 c 0 -6.335 -2.575 -12.06 -6.719 -16.219 z"
       opacity="0.05"
       id="path19" />
    <path
       d="m 41.28 8.781 c 3.712 4.085 5.969 9.514 5.969 15.469 c 0 12.703 -10.297 23 -23 23 c -5.954 0 -11.384 -2.256 -15.469 -5.969 c 4.113 3.854 9.637 6.219 15.719 6.219 c 12.703 0 23 -10.298 23 -23 c 0 -6.081 -2.364 -11.606 -6.219 -15.719 z"
       opacity="0.1"
       id="path21" />
    <path
       d="m 31.25 2.375 c 8.615 3.154 14.75 11.417 14.75 21.13 c 0 12.426 -10.07 22.5 -22.5 22.5 c -9.708 0 -17.971 -6.135 -21.12 -14.75 a 23 23 0 0 0 44.875 -7 a 23 23 0 0 0 -16 -21.875 z"
       opacity="0.2"
       id="path23" />
  </g>
  <g
     id="g29">
    <path
       d="m 24 1 c 12.703 0 23 10.297 23 23 c 0 12.703 -10.297 23 -23 23 -12.703 0 -23 -10.297 -23 -23 0 -12.703 10.297 -23 23 -23 z"
       fill="url(#linearGradient3764)"
       fill-opacity="1"
       id="path27" />
  </g>
  <g
     id="g31" />
  <g
     id="g59"
     transform="matrix(1.2512456,0,0,1.2109463,-6.4603576,-6.185659)">
    <g
       clip-path="url(#clipPath-724775221)"
       id="g57">
      <g
         transform="translate(1,1)"
         id="g55">
        <g
           id="g53"
           style="opacity:0.1">
          <!-- color: #eeeeee -->
          <g
             id="g51">
            <path
               d="m 25.27,12.953 -0.668,2.77 c 0.949,-1.953 2.457,-3.426 4.191,-4.719 -1.266,1.523 -2.422,3.055 -3.129,4.582 1.191,-1.738 2.793,-2.707 4.598,-3.348 -2.402,2.227 -4.309,4.613 -5.762,7.01 l -1.152,-0.52 c 0.203,-1.918 0.898,-3.875 1.922,-5.773 m 0,-0.004"
               id="path33"
               inkscape:connector-curvature="0"
               style="fill:#000000;fill-opacity:1;fill-rule:nonzero;stroke:none" />
            <path
               d="m 22.19,18.219 2.195,0.945 c 0,0.582 -0.043,2.352 0.305,2.875 3.656,4.891 3.043,14.691 -0.738,14.941 -5.758,0 -7.953,-4.059 -7.953,-7.793 0,-3.406 3.93,-5.672 6.277,-7.68 0.594,-0.543 0.492,-1.738 -0.086,-3.285 m 0,-0.004"
               id="path35"
               inkscape:connector-curvature="0"
               style="fill:#000000;fill-opacity:1;fill-rule:nonzero;stroke:none" />
            <path
               d="m 24.375,19.16 0.805,0.395 c -0.074,0.543 0.039,1.742 0.559,2.055 2.309,1.484 4.488,3.113 5.344,4.738 3.055,5.727 -2.141,11.03 -6.629,10.523 2.441,-1.879 3.145,-5.727 2.234,-9.926 -0.371,-1.641 -0.949,-3.129 -1.973,-4.813 -0.441,-0.828 -0.301,-1.828 -0.34,-2.969 m 0,-0.004"
               id="path37"
               inkscape:connector-curvature="0"
               style="fill:#000000;fill-opacity:1;fill-rule:nonzero;stroke:none" />
            <use
               xlink:href="#SVGCleanerId_0"
               id="use39"
               x="0"
               y="0"
               width="100%"
               height="100%" />
            <use
               xlink:href="#SVGCleanerId_1"
               id="use41"
               x="0"
               y="0"
               width="100%"
               height="100%" />
            <use
               xlink:href="#SVGCleanerId_2"
               id="use43"
               x="0"
               y="0"
               width="100%"
               height="100%" />
            <use
               xlink:href="#SVGCleanerId_3"
               id="use45"
               x="0"
               y="0"
               width="100%"
               height="100%" />
            <use
               xlink:href="#SVGCleanerId_4"
               id="use47"
               x="0"
               y="0"
               width="100%"
               height="100%" />
            <use
               xlink:href="#SVGCleanerId_5"
               id="use49"
               x="0"
               y="0"
               width="100%"
               height="100%" />
          </g>
        </g>
      </g>
    </g>
  </g>
  <g
     id="g77"
     transform="matrix(1.2512456,0,0,1.2109463,-6.4603576,-6.185659)">
    <g
       clip-path="url(#clipPath-734034586)"
       id="g75">
      <!-- color: #eeeeee -->
      <g
         id="g73">
        <path
           d="m 25.27,12.953 -0.668,2.77 c 0.949,-1.953 2.457,-3.426 4.191,-4.719 -1.266,1.523 -2.422,3.055 -3.129,4.582 1.191,-1.738 2.793,-2.707 4.598,-3.348 -2.402,2.227 -4.309,4.613 -5.762,7.01 l -1.152,-0.52 c 0.203,-1.918 0.898,-3.875 1.922,-5.773 m 0,-0.004"
           id="path61"
           inkscape:connector-curvature="0"
           style="fill:#abcd03;fill-opacity:1;fill-rule:nonzero;stroke:none" />
        <path
           d="m 22.19,18.219 2.195,0.945 c 0,0.582 -0.043,2.352 0.305,2.875 3.656,4.891 3.043,14.691 -0.738,14.941 -5.758,0 -7.953,-4.059 -7.953,-7.793 0,-3.406 3.93,-5.672 6.277,-7.68 0.594,-0.543 0.492,-1.738 -0.086,-3.285 m 0,-0.004"
           id="path63"
           inkscape:connector-curvature="0"
           style="fill:#ffbe2f;fill-opacity:1;fill-rule:nonzero;stroke:none" />
        <path
           d="m 24.375,19.16 0.805,0.395 c -0.074,0.543 0.039,1.742 0.559,2.055 2.309,1.484 4.488,3.113 5.344,4.738 3.055,5.727 -2.141,11.03 -6.629,10.523 2.441,-1.879 3.145,-5.727 2.234,-9.926 -0.371,-1.641 -0.949,-3.129 -1.973,-4.813 -0.441,-0.828 -0.301,-1.828 -0.34,-2.969 m 0,-0.004"
           id="path65"
           inkscape:connector-curvature="0"
           style="fill:#7d4595;fill-opacity:1;fill-rule:nonzero;stroke:none" />
        <path
           d="m 23.508,21.852 c -0.168,0.891 -0.355,2.496 -1.102,3.098 -0.313,0.23 -0.633,0.465 -0.965,0.695 -1.34,0.953 -2.684,1.84 -3.297,4.121 -0.129,0.488 -0.016,1.012 0.094,1.488 0.336,1.395 1.285,2.902 2.031,3.793 0,0.039 0.148,0.133 0.148,0.172 0.613,0.758 0.801,0.969 3.129,1.512 l -0.059,0.27 c -1.395,-0.387 -2.551,-0.734 -3.277,-1.605 0,-0.02 -0.133,-0.156 -0.133,-0.156 -0.781,-0.93 -1.73,-2.477 -2.086,-3.926 -0.129,-0.582 -0.238,-1.023 -0.09,-1.625 0.633,-2.363 2.01,-3.289 3.406,-4.277 0.313,-0.215 0.688,-0.402 0.988,-0.652 0.57,-0.445 0.895,-1.809 1.215,-2.902 m -0.004,0.004"
           id="SVGCleanerId_0"
           inkscape:connector-curvature="0"
           style="fill:#000000;fill-opacity:1;fill-rule:nonzero;stroke:none" />
        <path
           d="m 24.1,25.531 c 0.02,1 -0.074,1.508 0.168,2.223 0.145,0.426 0.652,1.012 0.801,1.566 0.203,0.754 0.426,1.59 0.406,2.09 0,0.582 -0.035,1.664 -0.277,2.824 -0.184,0.961 -0.609,1.785 -1.324,2.25 -0.734,-0.156 -1.594,-0.426 -2.102,-0.875 -0.988,-0.887 -1.859,-2.375 -1.973,-3.672 -0.102,-1.066 0.852,-2.633 2.18,-3.43 1.113,-0.676 1.379,-1.449 1.617,-2.684 -0.336,1.082 -0.648,1.992 -1.73,2.57 -1.563,0.852 -2.363,2.281 -2.293,3.637 0.113,1.738 0.781,2.922 2.105,3.871 0.563,0.406 1.602,0.836 2.254,0.953 v -0.09 c 0.492,-0.105 1.137,-0.941 1.453,-2.082 0.273,-1.023 0.391,-2.336 0.375,-3.164 -0.023,-0.484 -0.23,-1.531 -0.605,-2.48 -0.195,-0.523 -0.52,-1.047 -0.723,-1.414 -0.223,-0.371 -0.223,-1.164 -0.336,-2.094 m -0.004,0"
           id="SVGCleanerId_1"
           inkscape:connector-curvature="0"
           style="fill:#000000;fill-opacity:1;fill-rule:nonzero;stroke:none" />
        <path
           d="m 23.988,29.32 c 0.02,0.676 0.281,1.547 0.395,2.434 0.09,0.66 0.051,1.32 0.035,1.902 -0.02,0.672 -0.234,1.871 -0.527,2.461 -0.277,-0.133 -0.387,-0.285 -0.57,-0.527 -0.223,-0.332 -0.375,-0.66 -0.523,-1.047 -0.113,-0.289 -0.238,-0.621 -0.297,-1.012 -0.074,-0.582 -0.055,-1.484 0.582,-2.418 0.484,-0.73 0.594,-0.789 0.762,-1.641 -0.223,0.754 -0.391,0.832 -0.91,1.469 -0.578,0.699 -0.676,1.723 -0.676,2.563 0,0.344 0.137,0.727 0.266,1.102 0.148,0.383 0.277,0.77 0.484,1.063 0.309,0.469 0.699,0.734 0.895,0.785 0,0 0.004,0 0.004,0 0.004,0 0.02,0.004 0.023,0.004 v -0.02 c 0.352,-0.418 0.578,-0.836 0.645,-1.258 0.09,-0.5 0.113,-1 0.168,-1.605 0.066,-0.504 0.023,-1.184 -0.105,-1.879 -0.191,-0.871 -0.5,-1.758 -0.629,-2.379 m -0.02,0"
           id="SVGCleanerId_2"
           inkscape:connector-curvature="0"
           style="fill:#000000;fill-opacity:1;fill-rule:nonzero;stroke:none" />
        <path
           d="m 24.04,21.04 c 0.02,1.012 0.094,2.887 0.355,3.617 0.074,0.254 0.762,1.355 1.246,2.691 0.34,0.93 0.414,1.777 0.465,2.031 0.223,1.102 -0.055,2.957 -0.426,4.719 -0.191,0.949 -0.82,2.129 -1.547,2.594 l -0.148,0.27 c 0.41,-0.02 1.414,-1.047 1.77,-2.32 0.594,-2.168 0.84,-3.172 0.559,-5.57 -0.039,-0.227 -0.133,-1.02 -0.484,-1.879 -0.52,-1.297 -1.266,-2.535 -1.355,-2.785 -0.164,-0.398 -0.395,-2.164 -0.434,-3.367 m 0,0"
           id="SVGCleanerId_3"
           inkscape:connector-curvature="0"
           style="fill:#000000;fill-opacity:1;fill-rule:nonzero;stroke:none" />
        <path
           d="m 24.395,19.664 c -0.055,1.035 -0.07,1.414 0.117,2.168 0.207,0.836 1.25,2.031 1.676,3.406 0.82,2.633 0.613,6.074 0.02,8.762 -0.223,0.949 -1.285,2.324 -2.348,2.77 l 0.785,0.195 c 0.43,-0.02 1.527,-1.086 1.953,-2.305 0.688,-1.918 0.82,-4.199 0.539,-6.598 -0.016,-0.234 -0.387,-2.301 -0.742,-3.172 -0.504,-1.297 -1.398,-2.453 -1.488,-2.707 -0.168,-0.426 -0.535,-1.309 -0.508,-2.516 m -0.004,-0.004"
           id="SVGCleanerId_4"
           inkscape:connector-curvature="0"
           style="fill:#000000;fill-opacity:1;fill-rule:nonzero;stroke:none" />
        <path
           d="m 23.805,18.934 h 0.074 v 17.859 h -0.074 m 0,-17.859"
           id="SVGCleanerId_5"
           inkscape:connector-curvature="0"
           style="fill:#000000;fill-opacity:1;fill-rule:nonzero;stroke:none" />
      </g>
    </g>
  </g>
  <g
     id="g81"
     style="fill:#f9f9f9">
    <path
       d="m 40.03 7.531 c 3.712 4.084 5.969 9.514 5.969 15.469 0 12.703 -10.297 23 -23 23 c -5.954 0 -11.384 -2.256 -15.469 -5.969 4.178 4.291 10.01 6.969 16.469 6.969 c 12.703 0 23 -10.298 23 -23 0 -6.462 -2.677 -12.291 -6.969 -16.469 z"
       opacity="0.1"
       id="path79"
       style="fill:#f9f9f9" />
  </g>
</svg>
