<?xml version="1.0" encoding="UTF-8" standalone="no"?>
<svg
   xmlns:dc="http://purl.org/dc/elements/1.1/"
   xmlns:cc="http://creativecommons.org/ns#"
   xmlns:rdf="http://www.w3.org/1999/02/22-rdf-syntax-ns#"
   xmlns:svg="http://www.w3.org/2000/svg"
   xmlns="http://www.w3.org/2000/svg"
   xmlns:sodipodi="http://sodipodi.sourceforge.net/DTD/sodipodi-0.dtd"
   xmlns:inkscape="http://www.inkscape.org/namespaces/inkscape"
   viewBox="0 0 48 48"
   version="1.1"
   id="svg33"
   sodipodi:docname="vscode.svg"
   inkscape:version="0.92.2pre0 (973e216, 2017-07-25)">
  <metadata
     id="metadata37">
    <rdf:RDF>
      <cc:Work
         rdf:about="">
        <dc:format>image/svg+xml</dc:format>
        <dc:type
           rdf:resource="http://purl.org/dc/dcmitype/StillImage" />
      </cc:Work>
    </rdf:RDF>
  </metadata>
  <sodipodi:namedview
     pagecolor="#ffffff"
     bordercolor="#666666"
     borderopacity="1"
     objecttolerance="10"
     gridtolerance="10"
     guidetolerance="10"
     inkscape:pageopacity="0"
     inkscape:pageshadow="2"
     inkscape:window-width="1360"
     inkscape:window-height="686"
     id="namedview35"
     showgrid="false"
     inkscape:zoom="9.8333334"
     inkscape:cx="6.9510634"
     inkscape:cy="23.692427"
     inkscape:window-x="0"
     inkscape:window-y="0"
     inkscape:window-maximized="1"
     inkscape:current-layer="svg33" />
  <defs
     id="defs7">
    <linearGradient
       id="linearGradient3764"
       x1="1"
       x2="47"
       gradientUnits="userSpaceOnUse"
       gradientTransform="matrix(0,-1,1,0,-1.5e-6,47.999998)">
      <stop
         style="stop-color:#e4e4e4;stop-opacity:1"
         id="stop2" />
      <stop
         offset="1"
         style="stop-color:#eee;stop-opacity:1"
         id="stop4" />
    </linearGradient>
  </defs>
  <path
     id="path17-6"
     style="fill:#007cff;fill-opacity:1;stroke-width:0.99843556"
     d="m 24,1.2033898 c 12.703,0 23,10.2648072 23,22.9280912 C 47,36.794765 36.703,47.059572 24,47.059572 11.297,47.059572 1.0000001,36.794765 1.0000001,24.131481 1.0000001,11.468197 11.297,1.2033898 24,1.2033898 Z"
     inkscape:connector-curvature="0" />
  <path
     inkscape:connector-curvature="0"
     id="path17"
     style="fill:#e6e6e6;fill-opacity:1;stroke-width:0.94576466"
     d="m 23.945539,2.4339497 c 12.05908,0 21.834122,9.7021733 21.834122,21.6713593 0,11.969184 -9.775042,21.671358 -21.834122,21.671358 -12.059081,0 -21.8341226,-9.702174 -21.8341226,-21.671358 0,-11.969186 9.7750416,-21.6713593 21.8341226,-21.6713593 z" />
  <g
     transform="matrix(0.05763815,0,0,0.05468986,11.063853,-0.66340991)"
     style="display:inline;opacity:0.12000002;fill:#0068ff;fill-opacity:1"
     id="g27">
    <path
       d="m 17.77,25.295 -6.524,-5.02 -1.414,0.754 v 11.555 l 1.414,0.754 6.523,-5.02 10.914,10.55 4.961,-2.01 v -20.1 l -4.961,-2.01 c 0,0 -7.282,7.03 -10.914,10.55 z m 10.914,6.03 -5.953,-4.522 5.953,-4.522 z m -15.875,-7.285 2.977,2.763 -2.977,2.763 z"
       transform="matrix(18.197551,0,0,18.197551,-161.97138,-18.472825)"
       mix-blend-mode="normal"
       isolation="auto"
       style="color:#000000;white-space:normal;visibility:visible;opacity:1;isolation:auto;mix-blend-mode:normal;color-interpolation:sRGB;color-interpolation-filters:linearRGB;solid-color:#000000;solid-opacity:1;fill:#0068ff;fill-opacity:1;fill-rule:nonzero;stroke:none;color-rendering:auto;image-rendering:auto;shape-rendering:auto"
       id="path25"
       inkscape:connector-curvature="0" />
  </g>
  <path
     inkscape:connector-curvature="0"
     id="path29-7"
     style="color:#000000;white-space:normal;visibility:visible;opacity:1;isolation:auto;mix-blend-mode:normal;color-interpolation:sRGB;color-interpolation-filters:linearRGB;solid-color:#000000;solid-opacity:1;fill:#007cff;fill-opacity:1;fill-rule:nonzero;stroke:none;stroke-width:1.02169526;color-rendering:auto;image-rendering:auto;shape-rendering:auto"
     isolation="auto"
     mix-blend-mode="normal"
     d="m 19.325921,22.500443 -6.842849,-4.996012 -1.483107,0.750397 v 11.499784 l 1.483107,0.750397 6.8418,-4.996012 11.447402,10.499587 5.203459,-2.000395 V 14.004237 l -5.203459,-2.000395 c 0,0 -7.637896,6.996407 -11.447402,10.499587 z m 11.447401,6.001185 -6.243942,-4.500391 6.243942,-4.500392 z M 14.12246,21.25144 l 3.122496,2.749797 -3.122496,2.749796 z" />
</svg>
