<?xml version="1.0" encoding="UTF-8" standalone="no"?>
<svg
   xmlns:dc="http://purl.org/dc/elements/1.1/"
   xmlns:cc="http://creativecommons.org/ns#"
   xmlns:rdf="http://www.w3.org/1999/02/22-rdf-syntax-ns#"
   xmlns:svg="http://www.w3.org/2000/svg"
   xmlns="http://www.w3.org/2000/svg"
   xmlns:sodipodi="http://sodipodi.sourceforge.net/DTD/sodipodi-0.dtd"
   xmlns:inkscape="http://www.inkscape.org/namespaces/inkscape"
   viewBox="0 0 48 48"
   version="1.1"
   id="svg61"
   sodipodi:docname="webide.svg"
   inkscape:version="0.92.2pre0 (973e216, 2017-07-25)">
  <metadata
     id="metadata65">
    <rdf:RDF>
      <cc:Work
         rdf:about="">
        <dc:format>image/svg+xml</dc:format>
        <dc:type
           rdf:resource="http://purl.org/dc/dcmitype/StillImage" />
      </cc:Work>
    </rdf:RDF>
  </metadata>
  <sodipodi:namedview
     pagecolor="#ffffff"
     bordercolor="#666666"
     borderopacity="1"
     objecttolerance="10"
     gridtolerance="10"
     guidetolerance="10"
     inkscape:pageopacity="0"
     inkscape:pageshadow="2"
     inkscape:window-width="640"
     inkscape:window-height="480"
     id="namedview63"
     showgrid="false"
     inkscape:zoom="4.9166667"
     inkscape:cx="24"
     inkscape:cy="24"
     inkscape:window-x="0"
     inkscape:window-y="0"
     inkscape:window-maximized="0"
     inkscape:current-layer="svg61" />
  <defs
     id="defs17">
    <linearGradient
       id="linearGradient3764"
       x1="1"
       x2="47"
       gradientUnits="userSpaceOnUse"
       gradientTransform="matrix(0,-1,1,0,-1.5e-6,47.999998)">
      <stop
         stop-color="#e4e4e4"
         stop-opacity="1"
         id="stop2" />
      <stop
         offset="1"
         stop-color="#eee"
         stop-opacity="1"
         id="stop4" />
    </linearGradient>
    <clipPath
       id="clipPath-658135900">
      <g
         transform="translate(0,-1004.3622)"
         id="g9">
        <path
           d="m -24 13 c 0 1.105 -0.672 2 -1.5 2 -0.828 0 -1.5 -0.895 -1.5 -2 0 -1.105 0.672 -2 1.5 -2 0.828 0 1.5 0.895 1.5 2 z"
           transform="matrix(15.333333,0,0,11.5,414.99999,878.8622)"
           fill="#1890d0"
           id="path7" />
      </g>
    </clipPath>
    <clipPath
       id="clipPath-666070908">
      <g
         transform="translate(0,-1004.3622)"
         id="g14">
        <path
           d="m -24 13 c 0 1.105 -0.672 2 -1.5 2 -0.828 0 -1.5 -0.895 -1.5 -2 0 -1.105 0.672 -2 1.5 -2 0.828 0 1.5 0.895 1.5 2 z"
           transform="matrix(15.333333,0,0,11.5,414.99999,878.8622)"
           fill="#1890d0"
           id="path12" />
      </g>
    </clipPath>
  </defs>
  <g
     id="g25">
    <path
       d="m 36.31 5 c 5.859 4.062 9.688 10.831 9.688 18.5 c 0 12.426 -10.07 22.5 -22.5 22.5 c -7.669 0 -14.438 -3.828 -18.5 -9.688 c 1.037 1.822 2.306 3.499 3.781 4.969 c 4.085 3.712 9.514 5.969 15.469 5.969 c 12.703 0 23 -10.298 23 -23 c 0 -5.954 -2.256 -11.384 -5.969 -15.469 c -1.469 -1.475 -3.147 -2.744 -4.969 -3.781 z m 4.969 3.781 c 3.854 4.113 6.219 9.637 6.219 15.719 c 0 12.703 -10.297 23 -23 23 c -6.081 0 -11.606 -2.364 -15.719 -6.219 c 4.16 4.144 9.883 6.719 16.219 6.719 c 12.703 0 23 -10.298 23 -23 c 0 -6.335 -2.575 -12.06 -6.719 -16.219 z"
       opacity="0.05"
       id="path19" />
    <path
       d="m 41.28 8.781 c 3.712 4.085 5.969 9.514 5.969 15.469 c 0 12.703 -10.297 23 -23 23 c -5.954 0 -11.384 -2.256 -15.469 -5.969 c 4.113 3.854 9.637 6.219 15.719 6.219 c 12.703 0 23 -10.298 23 -23 c 0 -6.081 -2.364 -11.606 -6.219 -15.719 z"
       opacity="0.1"
       id="path21" />
    <path
       d="m 31.25 2.375 c 8.615 3.154 14.75 11.417 14.75 21.13 c 0 12.426 -10.07 22.5 -22.5 22.5 c -9.708 0 -17.971 -6.135 -21.12 -14.75 a 23 23 0 0 0 44.875 -7 a 23 23 0 0 0 -16 -21.875 z"
       opacity="0.2"
       id="path23" />
  </g>
  <g
     id="g29">
    <path
       d="m 24 1 c 12.703 0 23 10.297 23 23 c 0 12.703 -10.297 23 -23 23 -12.703 0 -23 -10.297 -23 -23 0 -12.703 10.297 -23 23 -23 z"
       fill="url(#linearGradient3764)"
       fill-opacity="1"
       id="path27" />
  </g>
  <g
     id="g31" />
  <g
     id="g45"
     transform="matrix(1,0,0,1.1065376,0,-3.7291331)">
    <g
       clip-path="url(#clipPath-658135900)"
       id="g43">
      <g
         transform="translate(1,1)"
         id="g41">
        <g
           id="g39"
           style="opacity:0.1">
          <!-- color: #eeeeee -->
          <g
             id="g37">
            <path
               d="m 11,19.48 v 14.371 h 0.57 v -6.887 h 0.621 l 0.102,0.652 h 0.039 c 0.195,-0.262 0.422,-0.453 0.68,-0.57 0.262,-0.113 0.563,-0.172 0.898,-0.172 0.664,0 1.18,0.215 1.539,0.648 0.363,0.434 0.547,1.047 0.547,1.832 0,0.785 -0.188,1.402 -0.559,1.84 -0.367,0.434 -0.875,0.648 -1.527,0.648 -0.328,0 -0.625,-0.063 -0.898,-0.172 -0.27,-0.113 -0.496,-0.293 -0.68,-0.535 h -0.055 c 0.039,0.273 0.055,0.547 0.055,0.797 v 1.922 H 23.09 v -6.891 h 0.617 l 0.105,0.645 h 0.035 c 0.195,-0.262 0.422,-0.453 0.684,-0.563 0.258,-0.117 0.559,-0.18 0.895,-0.18 0.668,0 1.18,0.219 1.543,0.648 0.363,0.434 0.543,1.047 0.543,1.832 0,0.785 -0.188,1.402 -0.555,1.84 -0.367,0.438 -0.875,0.648 -1.531,0.648 -0.328,0 -0.625,-0.055 -0.895,-0.168 -0.27,-0.117 -0.5,-0.297 -0.684,-0.535 h -0.051 c 0.035,0.277 0.051,0.543 0.051,0.793 v 1.922 h 2.91 l 1.641,-1.828 c 1.98,-2.203 2.531,-2.965 2.676,-3.703 0.203,-1.023 -0.137,-1.691 -1.594,-3.137 -1.59,-1.574 -2.469,-3.121 -2.613,-4.59 -0.055,-0.555 -0.195,-0.996 -0.355,-1.117 H 18.09 v 1.926 c 0,0.25 -0.012,0.453 -0.035,0.617 h 0.047 c 0.148,-0.23 0.359,-0.41 0.633,-0.539 0.277,-0.137 0.598,-0.203 0.953,-0.203 0.617,0 1.074,0.145 1.379,0.422 0.309,0.277 0.461,0.723 0.461,1.324 v 3.125 H 20.77 v -3.098 c 0,-0.391 -0.094,-0.684 -0.277,-0.875 -0.188,-0.195 -0.48,-0.293 -0.875,-0.293 -0.531,0 -0.922,0.141 -1.164,0.418 -0.242,0.273 -0.363,0.719 -0.363,1.344 v 2.504 h -0.758 v -6.676 h -6.332 m 2.797,8.01 c -0.512,0 -0.887,0.141 -1.113,0.41 -0.23,0.27 -0.348,0.703 -0.352,1.297 v 0.156 c 0,0.676 0.113,1.16 0.352,1.453 0.234,0.289 0.617,0.43 1.137,0.43 0.441,0 0.773,-0.164 1.023,-0.5 0.246,-0.336 0.371,-0.805 0.371,-1.391 0,-0.602 -0.125,-1.055 -0.371,-1.371 -0.246,-0.32 -0.598,-0.484 -1.039,-0.484 m 11.52,0 c -0.516,0 -0.887,0.141 -1.117,0.41 -0.23,0.27 -0.344,0.703 -0.352,1.297 v 0.156 c 0,0.676 0.117,1.16 0.352,1.453 0.234,0.289 0.617,0.43 1.137,0.43 0.434,0 0.773,-0.164 1.016,-0.5 0.25,-0.336 0.375,-0.805 0.375,-1.391 0,-0.602 -0.125,-1.055 -0.375,-1.371 -0.242,-0.32 -0.59,-0.484 -1.035,-0.484 m 0,0"
               id="path33"
               inkscape:connector-curvature="0"
               style="fill:#000000;fill-opacity:1;fill-rule:nonzero;stroke:none" />
            <path
               d="m 28.23,33.832 c -0.063,-0.09 0.332,-0.637 0.867,-1.215 2.051,-2.195 2.738,-3.324 2.738,-4.504 0.004,-1.027 -0.324,-1.594 -1.789,-3.078 -1.531,-1.559 -1.93,-2.137 -2.301,-3.344 -0.66,-2.137 -0.035,-4.555 1.766,-6.848 l 0.66,-0.84 h 3.094 c 2.117,0 3.098,0.055 3.098,0.172 0,0.098 -0.574,0.797 -1.277,1.559 -2.102,2.285 -2.656,3.52 -2.242,4.988 0.148,0.527 0.535,1.031 1.609,2.098 1.012,1 1.574,1.719 1.957,2.492 1.109,2.543 0.676,5.762 -1.645,8.281 l -0.398,0.41 h -3.02 c -1.91,0 -3.055,-0.063 -3.125,-0.168 m 0.004,-0.004"
               id="path35"
               inkscape:connector-curvature="0"
               style="fill:#000000;fill-opacity:1;fill-rule:nonzero;stroke:none" />
          </g>
        </g>
      </g>
    </g>
  </g>
  <g
     id="g55"
     transform="matrix(1,0,0,1.1065376,0,-3.7291331)">
    <g
       clip-path="url(#clipPath-666070908)"
       id="g53">
      <!-- color: #eeeeee -->
      <g
         id="g51">
        <path
           d="m 11,19.48 v 14.371 h 0.57 v -6.887 h 0.621 l 0.102,0.652 h 0.039 c 0.195,-0.262 0.422,-0.453 0.68,-0.57 0.262,-0.113 0.563,-0.172 0.898,-0.172 0.664,0 1.18,0.215 1.539,0.648 0.363,0.434 0.547,1.047 0.547,1.832 0,0.785 -0.188,1.402 -0.559,1.84 -0.367,0.434 -0.875,0.648 -1.527,0.648 -0.328,0 -0.625,-0.063 -0.898,-0.172 -0.27,-0.113 -0.496,-0.293 -0.68,-0.535 h -0.055 c 0.039,0.273 0.055,0.547 0.055,0.797 v 1.922 H 23.09 v -6.891 h 0.617 l 0.105,0.645 h 0.035 c 0.195,-0.262 0.422,-0.453 0.684,-0.563 0.258,-0.117 0.559,-0.18 0.895,-0.18 0.668,0 1.18,0.219 1.543,0.648 0.363,0.434 0.543,1.047 0.543,1.832 0,0.785 -0.188,1.402 -0.555,1.84 -0.367,0.438 -0.875,0.648 -1.531,0.648 -0.328,0 -0.625,-0.055 -0.895,-0.168 -0.27,-0.117 -0.5,-0.297 -0.684,-0.535 h -0.051 c 0.035,0.277 0.051,0.543 0.051,0.793 v 1.922 h 2.91 l 1.641,-1.828 c 1.98,-2.203 2.531,-2.965 2.676,-3.703 0.203,-1.023 -0.137,-1.691 -1.594,-3.137 -1.59,-1.574 -2.469,-3.121 -2.613,-4.59 -0.055,-0.555 -0.195,-0.996 -0.355,-1.117 H 18.09 v 1.926 c 0,0.25 -0.012,0.453 -0.035,0.617 h 0.047 c 0.148,-0.23 0.359,-0.41 0.633,-0.539 0.277,-0.137 0.598,-0.203 0.953,-0.203 0.617,0 1.074,0.145 1.379,0.422 0.309,0.277 0.461,0.723 0.461,1.324 v 3.125 H 20.77 v -3.098 c 0,-0.391 -0.094,-0.684 -0.277,-0.875 -0.188,-0.195 -0.48,-0.293 -0.875,-0.293 -0.531,0 -0.922,0.141 -1.164,0.418 -0.242,0.273 -0.363,0.719 -0.363,1.344 v 2.504 h -0.758 v -6.676 h -6.332 m 2.797,8.01 c -0.512,0 -0.887,0.141 -1.113,0.41 -0.23,0.27 -0.348,0.703 -0.352,1.297 v 0.156 c 0,0.676 0.113,1.16 0.352,1.453 0.234,0.289 0.617,0.43 1.137,0.43 0.441,0 0.773,-0.164 1.023,-0.5 0.246,-0.336 0.371,-0.805 0.371,-1.391 0,-0.602 -0.125,-1.055 -0.371,-1.371 -0.246,-0.32 -0.598,-0.484 -1.039,-0.484 m 11.52,0 c -0.516,0 -0.887,0.141 -1.117,0.41 -0.23,0.27 -0.344,0.703 -0.352,1.297 v 0.156 c 0,0.676 0.117,1.16 0.352,1.453 0.234,0.289 0.617,0.43 1.137,0.43 0.434,0 0.773,-0.164 1.016,-0.5 0.25,-0.336 0.375,-0.805 0.375,-1.391 0,-0.602 -0.125,-1.055 -0.375,-1.371 -0.242,-0.32 -0.59,-0.484 -1.035,-0.484 m 0,0"
           id="path47"
           inkscape:connector-curvature="0"
           style="fill:#5453b2;fill-opacity:1;fill-rule:nonzero;stroke:none" />
        <path
           d="m 28.23,33.832 c -0.063,-0.09 0.332,-0.637 0.867,-1.215 2.051,-2.195 2.738,-3.324 2.738,-4.504 0.004,-1.027 -0.324,-1.594 -1.789,-3.078 -1.531,-1.559 -1.93,-2.137 -2.301,-3.344 -0.66,-2.137 -0.035,-4.555 1.766,-6.848 l 0.66,-0.84 h 3.094 c 2.117,0 3.098,0.055 3.098,0.172 0,0.098 -0.574,0.797 -1.277,1.559 -2.102,2.285 -2.656,3.52 -2.242,4.988 0.148,0.527 0.535,1.031 1.609,2.098 1.012,1 1.574,1.719 1.957,2.492 1.109,2.543 0.676,5.762 -1.645,8.281 l -0.398,0.41 h -3.02 c -1.91,0 -3.055,-0.063 -3.125,-0.168 m 0.004,-0.004"
           id="path49"
           inkscape:connector-curvature="0"
           style="fill:#f38e09;fill-opacity:1;fill-rule:nonzero;stroke:none" />
      </g>
    </g>
  </g>
  <g
     id="g59">
    <path
       d="m 40.03 7.531 c 3.712 4.084 5.969 9.514 5.969 15.469 0 12.703 -10.297 23 -23 23 c -5.954 0 -11.384 -2.256 -15.469 -5.969 4.178 4.291 10.01 6.969 16.469 6.969 c 12.703 0 23 -10.298 23 -23 0 -6.462 -2.677 -12.291 -6.969 -16.469 z"
       opacity="0.1"
       id="path57" />
  </g>
</svg>
