<?xml version="1.0" encoding="UTF-8" standalone="no"?>
<svg
   xmlns:dc="http://purl.org/dc/elements/1.1/"
   xmlns:cc="http://creativecommons.org/ns#"
   xmlns:rdf="http://www.w3.org/1999/02/22-rdf-syntax-ns#"
   xmlns:svg="http://www.w3.org/2000/svg"
   xmlns="http://www.w3.org/2000/svg"
   xmlns:sodipodi="http://sodipodi.sourceforge.net/DTD/sodipodi-0.dtd"
   xmlns:inkscape="http://www.inkscape.org/namespaces/inkscape"
   viewBox="0 0 48 48"
   version="1.1"
   id="svg52"
   sodipodi:docname="file-manager.svg"
   inkscape:version="0.92.0 r15299">
  <metadata
     id="metadata56">
    <rdf:RDF>
      <cc:Work
         rdf:about="">
        <dc:format>image/svg+xml</dc:format>
        <dc:type
           rdf:resource="http://purl.org/dc/dcmitype/StillImage" />
      </cc:Work>
    </rdf:RDF>
  </metadata>
  <sodipodi:namedview
     pagecolor="#ffffff"
     bordercolor="#666666"
     borderopacity="1"
     objecttolerance="10"
     gridtolerance="10"
     guidetolerance="10"
     inkscape:pageopacity="0"
     inkscape:pageshadow="2"
     inkscape:window-width="1360"
     inkscape:window-height="740"
     id="namedview54"
     showgrid="false"
     inkscape:zoom="4.9166667"
     inkscape:cx="-10.576272"
     inkscape:cy="22.983051"
     inkscape:window-x="0"
     inkscape:window-y="0"
     inkscape:window-maximized="1"
     inkscape:current-layer="svg52" />
  <defs
     id="defs18">
    <clipPath
       id="clipPath-220798931">
      <g
         transform="translate(0,-1004.3622)"
         id="g4">
        <path
           d="m -24 13 c 0 1.105 -0.672 2 -1.5 2 -0.828 0 -1.5 -0.895 -1.5 -2 0 -1.105 0.672 -2 1.5 -2 0.828 0 1.5 0.895 1.5 2 z"
           transform="matrix(15.333333,0,0,11.5,414.99999,878.8622)"
           fill="#1890d0"
           id="path2" />
      </g>
    </clipPath>
    <clipPath
       id="clipPath11">
      <g
         transform="translate(0,-1004.3622)"
         id="g9">
        <path
           d="m -24 13 c 0 1.105 -0.672 2 -1.5 2 -0.828 0 -1.5 -0.895 -1.5 -2 0 -1.105 0.672 -2 1.5 -2 0.828 0 1.5 0.895 1.5 2 z"
           transform="matrix(15.333333,0,0,11.5,414.99999,878.8622)"
           fill="#1890d0"
           id="path7" />
      </g>
    </clipPath>
    <linearGradient
       id="linearGradient3072"
       gradientUnits="userSpaceOnUse"
       gradientTransform="rotate(-90,3.999998,44)"
       x1="1"
       x2="47">
      <stop
         stop-color="#5487c0"
         stop-opacity="1"
         id="stop13" />
      <stop
         offset="1"
         stop-color="#6391c5"
         stop-opacity="1"
         id="stop15" />
    </linearGradient>
  </defs>
  <g
     id="g26">
    <path
       d="m 36.31 5 c 5.859 4.062 9.688 10.831 9.688 18.5 c 0 12.426 -10.07 22.5 -22.5 22.5 c -7.669 0 -14.438 -3.828 -18.5 -9.688 c 1.037 1.822 2.306 3.499 3.781 4.969 c 4.085 3.712 9.514 5.969 15.469 5.969 c 12.703 0 23 -10.298 23 -23 c 0 -5.954 -2.256 -11.384 -5.969 -15.469 c -1.469 -1.475 -3.147 -2.744 -4.969 -3.781 z m 4.969 3.781 c 3.854 4.113 6.219 9.637 6.219 15.719 c 0 12.703 -10.297 23 -23 23 c -6.081 0 -11.606 -2.364 -15.719 -6.219 c 4.16 4.144 9.883 6.719 16.219 6.719 c 12.703 0 23 -10.298 23 -23 c 0 -6.335 -2.575 -12.06 -6.719 -16.219 z"
       opacity="0.05"
       id="path20" />
    <path
       d="m 41.28 8.781 c 3.712 4.085 5.969 9.514 5.969 15.469 c 0 12.703 -10.297 23 -23 23 c -5.954 0 -11.384 -2.256 -15.469 -5.969 c 4.113 3.854 9.637 6.219 15.719 6.219 c 12.703 0 23 -10.298 23 -23 c 0 -6.081 -2.364 -11.606 -6.219 -15.719 z"
       opacity="0.1"
       id="path22" />
    <path
       d="m 31.25 2.375 c 8.615 3.154 14.75 11.417 14.75 21.13 c 0 12.426 -10.07 22.5 -22.5 22.5 c -9.708 0 -17.971 -6.135 -21.12 -14.75 a 23 23 0 0 0 44.875 -7 a 23 23 0 0 0 -16 -21.875 z"
       opacity="0.2"
       id="path24" />
  </g>
  <path
     d="M 21,1.188 C 9.718,2.661 1,12.316 1,24.001 c 0,12.703 10.297,23 23,23 1.367,0 2.698,-0.115 4,-0.344 V 26.001 h -7 z"
     id="path28"
     style="fill:#0db2fc;fill-opacity:1"
     inkscape:connector-curvature="0" />
  <path
     d="m 24,1 c -1.019,0 -2.02,0.059 -3,0.188 v 24.813 h 7 v 20.656 c 10.792,-1.896 19,-11.32 19,-22.656 0,-12.703 -10.297,-23 -23,-23 z"
     id="path44"
     inkscape:connector-curvature="0"
     style="fill:#ebecf1;fill-opacity:1;fill-rule:evenodd;stroke:none" />
  <path
     d="m 22 1.094 c -0.676 0.058 -1.342 0.134 -2 0.25 l 0 25.656 l 7 0 l 0 19.813 c 0.678 -0.088 1.342 -0.229 2 -0.375 l 0 -21.438 l -7 0 l 0 -23.906 z"
     fill="#2d2d2d"
     fill-rule="nonzero"
     stroke="none"
     fill-opacity="1"
     id="path46"
     style="fill:#ff0000" />
  <g
     id="g50">
    <path
       d="m 40.03 7.531 c 3.712 4.084 5.969 9.514 5.969 15.469 0 12.703 -10.297 23 -23 23 c -5.954 0 -11.384 -2.256 -15.469 -5.969 4.178 4.291 10.01 6.969 16.469 6.969 c 12.703 0 23 -10.298 23 -23 0 -6.462 -2.677 -12.291 -6.969 -16.469 z"
       opacity="0.1"
       id="path48" />
  </g>
</svg>
