<?xml version="1.0" encoding="UTF-8" standalone="no"?>
<svg
   xmlns:dc="http://purl.org/dc/elements/1.1/"
   xmlns:cc="http://creativecommons.org/ns#"
   xmlns:rdf="http://www.w3.org/1999/02/22-rdf-syntax-ns#"
   xmlns:svg="http://www.w3.org/2000/svg"
   xmlns="http://www.w3.org/2000/svg"
   xmlns:xlink="http://www.w3.org/1999/xlink"
   xmlns:sodipodi="http://sodipodi.sourceforge.net/DTD/sodipodi-0.dtd"
   xmlns:inkscape="http://www.inkscape.org/namespaces/inkscape"
   viewBox="0 0 48 48"
   id="svg2"
   version="1.1"
   inkscape:version="0.91 r13725"
   sodipodi:docname="gnome-power-statistics.svg">
  <metadata
     id="metadata65">
    <rdf:RDF>
      <cc:Work
         rdf:about="">
        <dc:format>image/svg+xml</dc:format>
        <dc:type
           rdf:resource="http://purl.org/dc/dcmitype/StillImage" />
      </cc:Work>
    </rdf:RDF>
  </metadata>
  <sodipodi:namedview
     pagecolor="#ffffff"
     bordercolor="#666666"
     borderopacity="1"
     objecttolerance="10"
     gridtolerance="10"
     guidetolerance="10"
     inkscape:pageopacity="0"
     inkscape:pageshadow="2"
     inkscape:window-width="1360"
     inkscape:window-height="715"
     id="namedview63"
     showgrid="false"
     inkscape:zoom="4.9166667"
     inkscape:cx="24"
     inkscape:cy="24"
     inkscape:window-x="0"
     inkscape:window-y="27"
     inkscape:window-maximized="1"
     inkscape:current-layer="svg2" />
  <defs
     id="defs4">
    <linearGradient
       id="linearGradient3764"
       x1="1"
       x2="47"
       gradientUnits="userSpaceOnUse"
       gradientTransform="matrix(0,-1,1,0,-1.5e-6,47.999998)">
      <stop
         stop-color="#ffda59"
         stop-opacity="1"
         id="stop7" />
      <stop
         offset="1"
         stop-color="#ffe06d"
         stop-opacity="1"
         id="stop9" />
    </linearGradient>
    <clipPath
       id="clipPath-946244274">
      <g
         transform="translate(0,-1004.3622)"
         id="g12">
        <path
           d="m -24 13 c 0 1.105 -0.672 2 -1.5 2 -0.828 0 -1.5 -0.895 -1.5 -2 0 -1.105 0.672 -2 1.5 -2 0.828 0 1.5 0.895 1.5 2 z"
           transform="matrix(15.333333,0,0,11.5,414.99999,878.8622)"
           fill="#1890d0"
           id="path14" />
      </g>
    </clipPath>
    <clipPath
       id="clipPath-951501985">
      <g
         transform="translate(0,-1004.3622)"
         id="g17">
        <path
           d="m -24 13 c 0 1.105 -0.672 2 -1.5 2 -0.828 0 -1.5 -0.895 -1.5 -2 0 -1.105 0.672 -2 1.5 -2 0.828 0 1.5 0.895 1.5 2 z"
           transform="matrix(15.333333,0,0,11.5,414.99999,878.8622)"
           fill="#1890d0"
           id="path19" />
      </g>
    </clipPath>
    <linearGradient
       gradientTransform="matrix(3.5433071,0,0,3.5433071,0.20393001,0.52525369)"
       inkscape:collect="always"
       xlink:href="#2-13"
       id="linearGradient5351"
       x1="4.7906141"
       y1="7.9446588"
       x2="8.7551556"
       y2="7.9446588"
       gradientUnits="userSpaceOnUse" />
    <linearGradient
       id="2-13">
      <stop
         id="stop6576"
         stop-color="#151515" />
      <stop
         id="stop6578"
         stop-color="#222"
         offset="1" />
    </linearGradient>
    <linearGradient
       gradientTransform="matrix(3.5433071,0,0,3.5433071,0.20393001,0.52525369)"
       inkscape:collect="always"
       xlink:href="#2-13"
       id="linearGradient5327"
       x1="5.356977"
       y1="3.1462097"
       x2="8.1887922"
       y2="3.1462097"
       gradientUnits="userSpaceOnUse" />
    <linearGradient
       gradientTransform="matrix(3.5433071,0,0,3.5433071,0.20393001,0.52525369)"
       inkscape:collect="always"
       xlink:href="#2-13"
       id="linearGradient5335"
       x1="3.927412"
       y1="7.0823183"
       x2="9.6028891"
       y2="7.0823183"
       gradientUnits="userSpaceOnUse" />
  </defs>
  <g
     id="g21">
    <path
       d="m 36.31 5 c 5.859 4.062 9.688 10.831 9.688 18.5 c 0 12.426 -10.07 22.5 -22.5 22.5 c -7.669 0 -14.438 -3.828 -18.5 -9.688 c 1.037 1.822 2.306 3.499 3.781 4.969 c 4.085 3.712 9.514 5.969 15.469 5.969 c 12.703 0 23 -10.298 23 -23 c 0 -5.954 -2.256 -11.384 -5.969 -15.469 c -1.469 -1.475 -3.147 -2.744 -4.969 -3.781 z m 4.969 3.781 c 3.854 4.113 6.219 9.637 6.219 15.719 c 0 12.703 -10.297 23 -23 23 c -6.081 0 -11.606 -2.364 -15.719 -6.219 c 4.16 4.144 9.883 6.719 16.219 6.719 c 12.703 0 23 -10.298 23 -23 c 0 -6.335 -2.575 -12.06 -6.719 -16.219 z"
       opacity="0.05"
       id="path23" />
    <path
       d="m 41.28 8.781 c 3.712 4.085 5.969 9.514 5.969 15.469 c 0 12.703 -10.297 23 -23 23 c -5.954 0 -11.384 -2.256 -15.469 -5.969 c 4.113 3.854 9.637 6.219 15.719 6.219 c 12.703 0 23 -10.298 23 -23 c 0 -6.081 -2.364 -11.606 -6.219 -15.719 z"
       opacity="0.1"
       id="path25" />
    <path
       d="m 31.25 2.375 c 8.615 3.154 14.75 11.417 14.75 21.13 c 0 12.426 -10.07 22.5 -22.5 22.5 c -9.708 0 -17.971 -6.135 -21.12 -14.75 a 23 23 0 0 0 44.875 -7 a 23 23 0 0 0 -16 -21.875 z"
       opacity="0.2"
       id="path27" />
  </g>
  <g
     id="g29">
    <path
       d="m 24 1 c 12.703 0 23 10.297 23 23 c 0 12.703 -10.297 23 -23 23 -12.703 0 -23 -10.297 -23 -23 0 -12.703 10.297 -23 23 -23 z"
       fill="url(#linearGradient3764)"
       fill-opacity="1"
       id="path31" />
  </g>
  <g
     id="g33" />
  <g
     id="g59">
    <path
       d="m 40.03 7.531 c 3.712 4.084 5.969 9.514 5.969 15.469 0 12.703 -10.297 23 -23 23 c -5.954 0 -11.384 -2.256 -15.469 -5.969 4.178 4.291 10.01 6.969 16.469 6.969 c 12.703 0 23 -10.298 23 -23 0 -6.462 -2.677 -12.291 -6.969 -16.469 z"
       opacity="0.1"
       id="path61" />
  </g>
  <rect
     id="rect6696"
     rx="1.0033993"
     y="10.933072"
     x="20.188744"
     height="3.2115207"
     width="10.033993"
     style="opacity:0.1;fill:#000000;fill-opacity:1"
     ry="0.8654058" />
  <path
     id="path6694"
     d="m 18.181943,36.896978 14.04759,0 0,-14.7119 -14.04759,8.654057 z"
     inkscape:connector-curvature="0"
     style="opacity:0.1;fill:#000000;fill-opacity:1" />
  <rect
     id="rect6692"
     ry="1.629559"
     rx="1.8061187"
     y="14.396424"
     x="16.175148"
     height="24.231361"
     width="18.061186"
     style="opacity:0.1;fill:none;stroke:#000000;stroke-width:1.86370337;stroke-opacity:1" />
  <path
     style="color:#000000;font-style:normal;font-variant:normal;font-weight:normal;font-stretch:normal;font-size:medium;line-height:normal;font-family:Sans;-inkscape-font-specification:Sans;text-indent:0;text-align:start;text-decoration:none;text-decoration-line:none;letter-spacing:normal;word-spacing:normal;text-transform:none;direction:ltr;block-progression:tb;writing-mode:lr-tb;baseline-shift:baseline;text-anchor:start;display:inline;overflow:visible;visibility:visible;fill:url(#linearGradient5335);fill-opacity:1;stroke:none;stroke-width:0.56444448;marker:none;enable-background:accumulate"
     d="m 17.008677,12.635802 c -1.563949,0 -2.888723,1.14468 -2.888723,2.491448 l 0,20.985662 c 0,1.346772 1.324774,2.491451 2.888723,2.491451 l 14.443616,0 c 1.563949,0 2.777618,-1.144679 2.777618,-2.491451 l 0,-20.985662 c 0,-1.346768 -1.213669,-2.491448 -2.777618,-2.491448 l -14.443616,0 z m 0,1.724849 14.443616,0 c 0.43723,0 0.777733,0.307814 0.777733,0.766599 l 0,20.985662 c 0,0.458787 -0.340501,0.766601 -0.777733,0.766601 l -14.443616,0 c -0.437231,0 -0.888838,-0.307842 -0.888838,-0.766601 l 0,-20.985662 c 0,-0.458783 0.451607,-0.766599 0.888838,-0.766599 z"
     id="rect6591"
     inkscape:connector-curvature="0" />
  <rect
     ry="0.8654058"
     style="fill:url(#linearGradient5327);fill-opacity:1"
     width="10.033993"
     height="3.2115207"
     x="19.185341"
     y="10.067481"
     rx="1.0033993"
     id="rect6593" />
  <path
     style="fill:url(#linearGradient5351);fill-opacity:1"
     inkscape:connector-curvature="0"
     d="m 17.178543,36.031568 14.04759,0 0,-14.711897 -14.04759,8.654057 z"
     id="path6595" />
</svg>
