<?xml version="1.0" encoding="UTF-8" standalone="no"?>
<svg
   xmlns:dc="http://purl.org/dc/elements/1.1/"
   xmlns:cc="http://creativecommons.org/ns#"
   xmlns:rdf="http://www.w3.org/1999/02/22-rdf-syntax-ns#"
   xmlns:svg="http://www.w3.org/2000/svg"
   xmlns="http://www.w3.org/2000/svg"
   xmlns:sodipodi="http://sodipodi.sourceforge.net/DTD/sodipodi-0.dtd"
   xmlns:inkscape="http://www.inkscape.org/namespaces/inkscape"
   width="48"
   height="48"
   version="1.1"
   viewBox="0 0 48 48"
   id="svg24"
   sodipodi:docname="xnretro.svg"
   inkscape:version="0.92.2pre0 (973e216, 2017-07-25)">
  <metadata
     id="metadata30">
    <rdf:RDF>
      <cc:Work
         rdf:about="">
        <dc:format>image/svg+xml</dc:format>
        <dc:type
           rdf:resource="http://purl.org/dc/dcmitype/StillImage" />
      </cc:Work>
    </rdf:RDF>
  </metadata>
  <defs
     id="defs28" />
  <sodipodi:namedview
     pagecolor="#ffffff"
     bordercolor="#666666"
     borderopacity="1"
     objecttolerance="10"
     gridtolerance="10"
     guidetolerance="10"
     inkscape:pageopacity="0"
     inkscape:pageshadow="2"
     inkscape:window-width="640"
     inkscape:window-height="475"
     id="namedview26"
     showgrid="false"
     inkscape:zoom="4.9166667"
     inkscape:cx="24"
     inkscape:cy="24"
     inkscape:window-x="292"
     inkscape:window-y="65"
     inkscape:window-maximized="0"
     inkscape:current-layer="svg24" />
  <g
     id="g42"
     transform="matrix(1.051482,0,0,1.0981997,-0.91477826,-3.0368665)">
    <path
       inkscape:connector-curvature="0"
       id="path2"
       d="m 35.37203,7.2726364 c -1.187536,0.2109043 -2.373494,0.4550947 -2.98559,0.4550947 -5.016728,0 -10.855158,2.0128258 -14.314704,6.0517469 -2.954016,3.44873 -3.900033,8.613192 -4.114471,12.645565 0.213178,-2.000867 3.018926,-2.399246 4.456105,-3.523444 1.563524,-1.223028 2.936713,-5.645197 5.281545,-5.645197 0.294102,-5.2e-5 0.588018,0.01412 0.880611,0.04248 0.0087,4.2e-4 0.01683,0.0015 0.02546,0.002 9.176578,0.45187 15.933756,6.836151 15.933756,15.69571 0,1.775506 -0.302027,3.48146 -0.844538,5.084925 0.152398,0.06456 0.296968,0.114423 0.441367,0.161811 a 21.728813,20.711865 0 0 0 0.0085,-0.01011 c 0.306525,-0.338347 0.5864,-0.693144 0.86788,-1.047729 a 21.728813,20.711865 0 0 0 0.405293,-0.507683 c 0.23795,-0.319758 0.454814,-0.651986 0.672659,-0.983005 a 21.728813,20.711865 0 0 0 0.439244,-0.683654 c 0.190302,-0.315683 0.366687,-0.63855 0.538978,-0.962778 a 21.728813,20.711865 0 0 0 0.394682,-0.778717 c 0.156313,-0.327413 0.303222,-0.658576 0.441367,-0.993117 a 21.728813,20.711865 0 0 0 0.322538,-0.837374 c 0.116759,-0.322931 0.231105,-0.646682 0.331024,-0.974915 a 21.728813,20.711865 0 0 0 0.261,-0.980982 c 0.07369,-0.295269 0.152117,-0.589406 0.212197,-0.88794 a 21.728813,20.711865 0 0 0 0.18461,-1.163019 c 0.0363,-0.259325 0.08433,-0.515648 0.110341,-0.776695 a 21.728813,20.711865 0 0 0 0.101857,-1.94376 c -0.0019,-0.43525 -0.01816,-0.870334 -0.0488,-1.304605 -1.37e-4,-0.002 1.39e-4,-0.004 0,-0.0061 -0.0085,-0.123052 -0.02329,-0.245416 -0.03395,-0.368122 -0.04767,-0.575735 -0.120593,-1.149318 -0.218562,-1.719246 -0.02257,-0.128176 -0.05085,-0.254818 -0.07639,-0.38228 a 21.728813,20.711865 0 0 0 -0.0042,-0.02225 c -0.09274,-0.468679 -0.202445,-0.934165 -0.328905,-1.395624 -3.92e-4,-0.0014 -0.0017,-0.0026 -0.0021,-0.004 -0.06508,-0.237345 -0.134192,-0.473243 -0.207952,-0.707924 -0.122491,-0.388658 -0.25694,-0.773801 -0.403171,-1.15493 -0.113527,-0.296581 -0.233196,-0.590731 -0.360732,-0.881872 -0.145792,-0.334179 -0.300748,-0.664657 -0.464709,-0.991094 -0.121527,-0.241047 -0.24245,-0.483454 -0.373464,-0.720061 a 21.728813,20.711865 0 0 0 -0.0064,-0.01416 l -0.0021,-0.002 c -0.201794,-0.360517 -0.414841,-0.715358 -0.638709,-1.063911 -0.004,-0.0063 -0.0087,-0.01198 -0.01274,-0.01821 -0.174877,-0.27327 -0.354913,-0.543418 -0.543221,-0.809057 l -0.0042,-0.0061 a 21.728813,20.711865 0 0 0 -0.0042,-0.0081 C 41.469619,12.82294 41.23915,12.51819 41.001723,12.219992 40.781582,11.943508 40.553611,11.67321 40.318453,11.406889 a 21.728813,20.711865 0 0 0 -0.0085,-0.01011 c -0.07778,-0.08556 -0.156295,-0.170518 -0.235536,-0.254854 -0.438232,-0.47954 -0.896974,-0.943217 -1.383515,-1.3855096 -0.0062,-0.00555 -0.01288,-0.01063 -0.01909,-0.016181 a 21.728813,20.711865 0 0 0 -0.10624,-0.095038 C 38.304777,9.4118282 38.039616,9.1814838 37.765595,8.9595206 c 0.0053,-0.00509 0.0074,-0.00909 0.01274,-0.014159 A 21.728813,20.711865 0 0 0 35.37203,7.2726364 Z m 4.08264,31.0839776 c -0.105515,0.113032 -0.212326,0.224958 -0.320415,0.335759 0.108091,-0.110801 0.2149,-0.222727 0.320415,-0.335759 z m -1.232854,1.215608 c -0.134177,0.122339 -0.269994,0.243034 -0.407416,0.362054 -0.0078,0.01585 -0.01345,0.03273 -0.02122,0.04855 0.14488,-0.134954 0.287775,-0.271838 0.428636,-0.410597 z"
       style="fill:#ffc42e;stroke-width:1.06071222" />
    <path
       inkscape:connector-curvature="0"
       id="path4"
       d="m 24.584013,16.469595 c 4.382755,0.424261 6.389206,4.055855 6.389206,8.345424 5.4e-5,0.280337 -0.01481,0.560496 -0.04457,0.839397 -4.4e-4,0.0083 -0.0016,0.01604 -0.0021,0.02427 -0.474057,8.747099 -6.628584,15.188026 -15.923146,15.188026 -1.862683,0 -4.569083,-1.345734 -6.2512775,-1.862854 0.055109,0.04477 -0.022493,0.264317 -0.1570261,0.570385 a 21.728813,20.711865 0 0 0 15.0998276,5.849484 c 0.456621,-0.0017 0.913068,-0.01731 1.368662,-0.04652 0.0021,-1.29e-4 0.0043,1.33e-4 0.0064,0 0.129094,-0.0082 0.257466,-0.02221 0.386196,-0.03236 0.604004,-0.04545 1.20575,-0.114949 1.803661,-0.208333 0.13447,-0.02151 0.26733,-0.04847 0.40105,-0.07281 a 21.728813,20.711865 0 0 0 0.02334,-0.004 c 0.491691,-0.0884 0.980031,-0.192969 1.464149,-0.313511 0.0015,-3.74e-4 0.0027,-0.0016 0.0042,-0.002 0.248997,-0.06203 0.496479,-0.127911 0.742683,-0.198218 0.407741,-0.11676 0.811794,-0.244915 1.211637,-0.384303 0.311143,-0.108214 0.619736,-0.222282 0.925172,-0.343849 0.350586,-0.138969 0.697291,-0.286673 1.039756,-0.44296 0.252881,-0.115839 0.507192,-0.231103 0.755417,-0.355985 a 21.728813,20.711865 0 0 0 0.01485,-0.0061 l 0.0021,-0.002 c 0.37827,-0.192397 0.750482,-0.395425 1.116149,-0.608816 0.0065,-0.0038 0.01257,-0.0084 0.01909,-0.01214 0.286688,-0.166692 0.570101,-0.338302 0.848781,-0.517796 l 0.0064,-0.004 a 21.728813,20.711865 0 0 0 0.0085,-0.004 c 0.324445,-0.209326 0.644162,-0.429021 0.957001,-0.655335 0.290058,-0.209839 0.573627,-0.427142 0.853025,-0.651293 a 21.728813,20.711865 0 0 0 0.01061,-0.0081 c 0.08976,-0.07414 0.17889,-0.148981 0.267367,-0.224514 0.503085,-0.417722 0.989529,-0.854994 1.453538,-1.318763 0.0059,-0.006 0.01115,-0.01228 0.01698,-0.01821 a 21.728813,20.711865 0 0 0 0.09973,-0.101132 c 0.244827,-0.248589 0.486481,-0.50134 0.719344,-0.762536 0.551422,-1.615566 0.857269,-3.336449 0.857269,-5.127401 0,-8.865106 -7.309272,-16.083233 -16.493953,-16.527015 z M 7.674159,38.25346 c 0.1415807,0.138098 0.2851802,0.274303 0.4307568,0.408573 C 7.9765703,38.534136 7.84995,38.404677 7.725086,38.273686 7.708458,38.266286 7.690759,38.260856 7.674158,38.253456 Z"
       style="fill:#ff8514;stroke-width:1.06071222" />
    <path
       inkscape:connector-curvature="0"
       id="path6"
       d="M 9.4884296,9.4409097 C 9.3435511,9.5758641 9.2006595,9.7127429 9.0597958,9.8515062 9.1939725,9.7291675 9.3297879,9.6084733 9.4672105,9.4894531 c 0.00776,-0.01585 0.01345,-0.032719 0.021223,-0.048544 z M 8.147355,10.731356 c -0.1080883,0.110801 -0.2149004,0.222727 -0.3204153,0.335759 0.1055149,-0.113032 0.212327,-0.224958 0.3204153,-0.335759 z m -0.7044889,0.260921 a 21.728813,20.711865 0 0 0 -5.4767644,13.719588 21.728813,20.711865 0 0 0 0.048805,1.304605 c 0.00848,0.125086 0.023114,0.249476 0.033951,0.374189 a 21.728813,20.711865 0 0 0 0.2185614,1.719245 c 0.023882,0.135625 0.053956,0.269556 0.080634,0.404529 a 21.728813,20.711865 0 0 0 0.328903,1.395624 c 0.065399,0.238799 0.1358682,0.475871 0.2100734,0.71197 a 21.728813,20.711865 0 0 0 0.4031714,1.15493 c 0.1135262,0.296581 0.2331956,0.590731 0.3607322,0.881872 a 21.728813,20.711865 0 0 0 0.464708,0.991094 c 0.1238545,0.245662 0.2458627,0.493333 0.37983,0.73422 4.434e-4,7.98e-4 0.00168,0.0012 0.00212,0.002 a 21.728813,20.711865 0 0 0 0.6387083,1.063911 c 0.1785844,0.279661 0.3633565,0.555573 0.555952,0.82726 0.2225352,0.313921 0.455117,0.623831 0.696001,0.92637 0.2228758,0.279921 0.4534888,0.553688 0.6917572,0.823216 a 21.728813,20.711865 0 0 0 0.2355369,0.254854 c 0.4382322,0.47954 0.8969742,0.943217 1.3835151,1.38551 a 21.728813,20.711865 0 0 0 0.1251943,0.111245 c 0.2607947,0.233369 0.5259557,0.463713 0.7999764,0.685676 1.6949287,0.525662 3.5002677,0.817148 5.3791557,0.817148 9.300381,0 16.872917,-6.967185 17.338488,-15.722005 -0.445093,4.177634 -4.146779,7.125772 -8.646964,7.125772 -0.294101,5.2e-5 -0.588017,-0.01412 -0.880611,-0.04248 -0.0087,-4.2e-4 -0.01683,-0.0015 -0.02546,-0.002 -9.17658,-0.451921 -16.0419741,-7.353946 -16.0419741,-16.213504 0,-1.775507 0.302027,-3.48146 0.8445379,-5.084925 -0.049317,-0.129623 -0.099103,-0.227857 -0.1485368,-0.349917 z"
       style="fill:#ff5757;stroke-width:1.06071222" />
    <path
       inkscape:connector-curvature="0"
       id="path8"
       d="m 23.694915,16.427021 c -3.813233,0 -7.045126,2.3445 -8.216207,5.600699 -0.22412,0.931188 -0.378447,1.888483 -0.430756,2.872153 0.445092,-4.177633 4.146778,-7.437259 8.646963,-7.437259 0.294102,-5.1e-5 0.588018,0.01413 0.880611,0.04248 0.0087,4.19e-4 0.01683,0.0015 0.02546,0.0021 9.014645,0.443948 16.202183,7.417228 16.453635,16.061808 0.007,-0.191029 0.02334,-0.379804 0.02334,-0.572461 0,-8.859558 -7.300395,-16.073071 -16.476976,-16.524993 -0.0087,-5.18e-4 -0.01678,-0.0015 -0.02546,-0.0021 -0.29259,-0.02831 -0.586506,-0.04248 -0.880608,-0.04243 z m 21.701227,8.812656 A 21.728813,20.711865 0 0 1 40.668429,37.541391 C 40.546,38.075158 40.407267,38.603227 40.233428,39.11703 a 21.728813,20.711865 0 0 0 5.190301,-13.36967 21.728813,20.711865 0 0 0 -0.02759,-0.507683 z m -5.398252,13.11684 a 21.728813,20.711865 0 0 1 -0.320414,0.335759 21.728813,20.711865 0 0 0 0.320414,-0.335759 z m 0,1.035592 a 21.728813,20.711865 0 0 1 -0.320414,0.33576 21.728813,20.711865 0 0 0 0.320414,-0.33576 z m -1.232855,1.215609 a 21.728813,20.711865 0 0 1 -0.407414,0.362054 c -0.0078,0.01585 -0.01345,0.03272 -0.02121,0.04854 a 21.728813,20.711865 0 0 0 0.428635,-0.410597 z"
       style="opacity:0.2;stroke-width:1.06071222" />
    <path
       inkscape:connector-curvature="0"
       id="path10"
       d="m 32.38644,8.1423894 c -9.294562,0 -16.862255,6.9587226 -17.336367,15.7058236 -5.44e-4,0.0082 -0.0017,0.01599 -0.0022,0.02428 -0.02975,0.2789 -0.04462,0.55906 -0.04457,0.839397 0,0.178743 0.01588,0.354002 0.02758,0.529933 0.0071,-0.111206 0.0051,-0.22286 0.01699,-0.333736 4.39e-4,-0.0083 0.0017,-0.01604 0.0022,-0.02428 0.474112,-8.747101 8.041805,-15.7058233 17.336367,-15.7058233 1.862683,0 3.652399,0.2878915 5.334593,0.8050119 A 21.728813,20.711865 0 0 0 35.495103,8.4215141 C 34.485824,8.2448142 33.449698,8.1423894 32.38644,8.1423894 Z m 5.623179,1.0295253 a 21.728813,20.711865 0 0 1 0.352245,0.3054191 21.728813,20.711865 0 0 0 -0.352245,-0.3054191 z m 0,1.0355933 a 21.728813,20.711865 0 0 1 0.352245,0.30542 21.728813,20.711865 0 0 0 -0.352245,-0.30542 z m 1.275295,1.175156 a 21.728813,20.711865 0 0 1 0.37983,0.388347 c 0.01663,0.0074 0.03434,0.01282 0.05092,0.02023 A 21.728813,20.711865 0 0 0 39.284916,11.382668 Z M 6.3352059,16.898411 c -0.00682,0.188501 -0.023341,0.374195 -0.023341,0.564318 0,8.865107 7.3092711,16.083232 16.4939511,16.527015 C 21.03112,33.817949 19.420552,33.13074 18.124785,32.09655 11.409208,29.934195 6.5446982,23.981648 6.3352059,16.898411 Z"
       style="opacity:0.2;stroke-width:1.06071222" />
    <path
       inkscape:connector-curvature="0"
       id="path12"
       d="m 6.3118644,16.427119 c 0,0.156343 0.018825,0.307895 0.023341,0.463185 z M 1.993687,25.219547 c -0.01155,0.175851 -0.020746,0.351836 -0.027585,0.52791 0.00936,6.066433 2.808432,11.823977 7.6581329,15.752345 1.6949281,0.525662 3.5002681,0.817147 5.3791551,0.817147 9.300381,0 16.872917,-6.967184 17.338489,-15.722004 -0.06795,0.637715 -0.219787,1.249957 -0.430757,1.83656 -1.770585,7.356537 -8.652317,12.849851 -16.907732,12.849851 -1.878887,0 -3.684227,-0.291486 -5.3791551,-0.817148 C 4.9237294,36.64702 2.1491129,31.103762 1.993687,25.219547 Z"
       style="opacity:0.2;stroke-width:1.06071222" />
    <path
       inkscape:connector-curvature="0"
       id="path16"
       d="M 22.805816,32.954135 C 21.649239,32.842174 27.810543,31.553678 26.877803,31.052431 24.276,29.654245 15.437966,27.869446 15.437966,24.711865 c -5.5e-5,-0.280338 -0.419757,-0.560498 -0.39001,-0.839398 4.39e-4,-0.0083 0.0017,-0.01604 0.0022,-0.02428 0.474111,-8.747102 8.04175,-15.7058212 17.336312,-15.7058212 1.862683,0 3.652399,0.2878918 5.334592,0.8050122 C 33.80711,5.7682002 28.837156,4.015165 23.694915,4 17.330623,4.00892 11.290383,6.6769922 7.1691334,11.299718 c -0.5514718,1.615602 -0.857269,3.336449 -0.857269,5.127401 0,8.865106 7.3092716,16.083233 16.4939516,16.527016 z M 39.715671,10.755628 c -0.14158,-0.138098 -0.285181,-0.274304 -0.430757,-0.408574 0.128345,0.127897 0.254965,0.257356 0.37983,0.388347 0.01663,0.0074 0.03434,0.01282 0.05092,0.02023 z M 38.361864,9.4773168 C 38.245623,9.3742873 38.128201,9.2724751 38.009619,9.1718986 c 0.118582,0.1005766 0.236004,0.2023887 0.352245,0.3054182 z"
       style="fill:#baff41;stroke-width:1.06071222" />
    <path
       inkscape:connector-curvature="0"
       id="path18"
       d="M 23.694915,4 A 21.728813,20.711865 0 0 0 1.9661017,24.711865 21.728813,20.711865 0 0 0 1.9894432,25.314612 21.728813,20.711865 0 0 1 23.694915,5.0355932 21.728813,20.711865 0 0 1 45.400387,25.14471 21.728813,20.711865 0 0 0 45.423729,24.711865 21.728813,20.711865 0 0 0 23.694915,4 Z"
       style="opacity:0.2;fill:#ffffff;stroke-width:1.06071222" />
    <path
       inkscape:connector-curvature="0"
       id="path20"
       d="m 32.363099,25.150778 a 8.6915254,8.2847457 0 0 1 -8.668184,7.845832 8.6915254,8.2847457 0 0 1 -8.668185,-7.688066 8.6915254,8.2847457 0 0 0 -0.02334,0.438913 8.6915254,8.2847457 0 0 0 8.691524,8.284746 8.6915254,8.2847457 0 0 0 8.691526,-8.284746 8.6915254,8.2847457 0 0 0 -0.02334,-0.596679 z"
       style="opacity:0.2;stroke-width:1.06071222" />
    <ellipse
       ry="8.2847462"
       rx="8.6915255"
       id="circle22"
       cy="24.711864"
       cx="23.694916"
       style="fill:#555555;stroke-width:1.06071222" />
  </g>
</svg>
