<?xml version="1.0" encoding="UTF-8" standalone="no"?>
<svg
   xmlns:dc="http://purl.org/dc/elements/1.1/"
   xmlns:cc="http://creativecommons.org/ns#"
   xmlns:rdf="http://www.w3.org/1999/02/22-rdf-syntax-ns#"
   xmlns:svg="http://www.w3.org/2000/svg"
   xmlns="http://www.w3.org/2000/svg"
   xmlns:sodipodi="http://sodipodi.sourceforge.net/DTD/sodipodi-0.dtd"
   xmlns:inkscape="http://www.inkscape.org/namespaces/inkscape"
   viewBox="0 0 48 48"
   id="svg2"
   version="1.1"
   inkscape:version="0.91 r13725"
   sodipodi:docname="totem.svg">
  <metadata
     id="metadata63">
    <rdf:RDF>
      <cc:Work
         rdf:about="">
        <dc:format>image/svg+xml</dc:format>
        <dc:type
           rdf:resource="http://purl.org/dc/dcmitype/StillImage" />
      </cc:Work>
    </rdf:RDF>
  </metadata>
  <sodipodi:namedview
     pagecolor="#ffffff"
     bordercolor="#666666"
     borderopacity="1"
     objecttolerance="10"
     gridtolerance="10"
     guidetolerance="10"
     inkscape:pageopacity="0"
     inkscape:pageshadow="2"
     inkscape:window-width="1360"
     inkscape:window-height="717"
     id="namedview61"
     showgrid="false"
     inkscape:zoom="4.9166667"
     inkscape:cx="-8.0338983"
     inkscape:cy="24"
     inkscape:window-x="0"
     inkscape:window-y="25"
     inkscape:window-maximized="1"
     inkscape:current-layer="svg2" />
  <defs
     id="defs4">
    <clipPath
       id="clipPath6">
      <g
         transform="translate(0,-1004.3622)"
         id="g8">
        <path
           d="m -24 13 c 0 1.105 -0.672 2 -1.5 2 -0.828 0 -1.5 -0.895 -1.5 -2 0 -1.105 0.672 -2 1.5 -2 0.828 0 1.5 0.895 1.5 2 z"
           transform="matrix(15.333333,0,0,11.5,414.99999,878.8622)"
           fill="#1890d0"
           id="path10" />
      </g>
    </clipPath>
    <clipPath
       id="clipPath12">
      <g
         transform="translate(0,-1004.3622)"
         id="g14">
        <path
           d="m -24 13 c 0 1.105 -0.672 2 -1.5 2 -0.828 0 -1.5 -0.895 -1.5 -2 0 -1.105 0.672 -2 1.5 -2 0.828 0 1.5 0.895 1.5 2 z"
           transform="matrix(15.333333,0,0,11.5,414.99999,878.8622)"
           fill="#1890d0"
           id="path16" />
      </g>
    </clipPath>
    <linearGradient
       id="linearGradient3157"
       gradientUnits="userSpaceOnUse"
       gradientTransform="matrix(0,-1,1,0,-1.5e-6,47.999998)"
       x1="1"
       x2="47">
      <stop
         stop-color="#6b74c7"
         stop-opacity="1"
         id="stop19" />
      <stop
         offset="1"
         stop-color="#7a81cc"
         stop-opacity="1"
         id="stop21" />
    </linearGradient>
  </defs>
  <g
     id="g23">
    <path
       d="m 36.31 5 c 5.859 4.062 9.688 10.831 9.688 18.5 c 0 12.426 -10.07 22.5 -22.5 22.5 c -7.669 0 -14.438 -3.828 -18.5 -9.688 c 1.037 1.822 2.306 3.499 3.781 4.969 c 4.085 3.712 9.514 5.969 15.469 5.969 c 12.703 0 23 -10.298 23 -23 c 0 -5.954 -2.256 -11.384 -5.969 -15.469 c -1.469 -1.475 -3.147 -2.744 -4.969 -3.781 z m 4.969 3.781 c 3.854 4.113 6.219 9.637 6.219 15.719 c 0 12.703 -10.297 23 -23 23 c -6.081 0 -11.606 -2.364 -15.719 -6.219 c 4.16 4.144 9.883 6.719 16.219 6.719 c 12.703 0 23 -10.298 23 -23 c 0 -6.335 -2.575 -12.06 -6.719 -16.219 z"
       opacity="0.05"
       id="path25" />
    <path
       d="m 41.28 8.781 c 3.712 4.085 5.969 9.514 5.969 15.469 c 0 12.703 -10.297 23 -23 23 c -5.954 0 -11.384 -2.256 -15.469 -5.969 c 4.113 3.854 9.637 6.219 15.719 6.219 c 12.703 0 23 -10.298 23 -23 c 0 -6.081 -2.364 -11.606 -6.219 -15.719 z"
       opacity="0.1"
       id="path27" />
    <path
       d="m 31.25 2.375 c 8.615 3.154 14.75 11.417 14.75 21.13 c 0 12.426 -10.07 22.5 -22.5 22.5 c -9.708 0 -17.971 -6.135 -21.12 -14.75 a 23 23 0 0 0 44.875 -7 a 23 23 0 0 0 -16 -21.875 z"
       opacity="0.2"
       id="path29" />
  </g>
  <path
     d="m 20.781 1.219 c -0.475 0.067 -0.941 0.155 -1.406 0.25 c 0.462 -0.094 0.934 -0.184 1.406 -0.25 z m 6.438 0 c 0.472 0.066 0.944 0.156 1.406 0.25 c -0.465 -0.095 -0.931 -0.183 -1.406 -0.25 z m -8.125 0.313 c -0.461 0.1 -0.925 0.216 -1.375 0.344 c 0.458 -0.13 0.906 -0.242 1.375 -0.344 z m -1.375 0.344 c -0.423 0.12 -0.837 0.263 -1.25 0.406 c 0.415 -0.144 0.824 -0.286 1.25 -0.406 z m 11.188 -0.344 c 0.469 0.102 0.917 0.214 1.375 0.344 c -0.45 -0.128 -0.914 -0.243 -1.375 -0.344 z m 1.375 0.344 c 0.426 0.121 0.835 0.262 1.25 0.406 c -0.413 -0.143 -0.827 -0.286 -1.25 -0.406 z m -20.906 4.375 c -0.312 0.258 -0.608 0.539 -0.906 0.813 c 0.296 -0.272 0.596 -0.556 0.906 -0.813 z m 29.25 0 c 0.31 0.256 0.61 0.541 0.906 0.813 c -0.298 -0.274 -0.594 -0.555 -0.906 -0.813 z m -33.19 4.188 c -0.302 0.412 -0.57 0.818 -0.844 1.25 c 0.272 -0.428 0.545 -0.842 0.844 -1.25 z m -0.844 1.25 c -0.271 0.427 -0.538 0.867 -0.781 1.313 c 0.244 -0.447 0.509 -0.884 0.781 -1.313 z m -0.781 1.313 c -1.783 3.268 -2.813 7.02 -2.813 11 c 0 12.703 10.297 23 23 23 c 12.703 0 23 -10.297 23 -23 c 0 -3.985 -1.03 -7.732 -2.813 -11 l -40.37 0 z m 40.38 0 c -0.243 -0.445 -0.51 -0.886 -0.781 -1.313 c 0.272 0.428 0.537 0.866 0.781 1.313 z m -0.781 -1.313 c -0.274 -0.432 -0.542 -0.838 -0.844 -1.25 c 0.299 0.408 0.572 0.822 0.844 1.25 z"
     fill="url(#linearGradient3157)"
     fill-opacity="1"
     id="path31"
     style="fill:#8f50a1;fill-opacity:1" />
  <path
     d="M 20,18 20,38 34.996094,28 M 20,18"
     id="path33"
     stroke="none"
     fill-rule="nonzero"
     fill-opacity="1"
     fill="#000"
     opacity="0.1" />
  <path
     d="M 17.120024,6.8610169 18.587076,9.4305085 17.120024,12 14.184726,12 15.651778,9.4305085 14.184726,6.8610169 m 2.935298,0"
     id="path37"
     inkscape:connector-curvature="0"
     style="opacity:0.1;fill:#000000;fill-opacity:1;fill-rule:evenodd;stroke:none" />
  <path
     d="M 22.934561,6.8610169 24.401614,9.4305085 22.934561,12 19.999263,12 21.466316,9.4305085 19.999263,6.8610169 m 2.935298,0"
     id="path39"
     inkscape:connector-curvature="0"
     style="opacity:0.1;fill:#000000;fill-opacity:1;fill-rule:evenodd;stroke:none" />
  <path
     d="M 28.554685,6.8610169 30.021737,9.4305085 28.554685,12 25.619387,12 27.086439,9.4305085 25.619387,6.8610169 m 2.935298,0"
     id="path41"
     inkscape:connector-curvature="0"
     style="opacity:0.1;fill:#000000;fill-opacity:1;fill-rule:evenodd;stroke:none" />
  <path
     d="M 34.181964,6.8610169 35.649017,9.4305085 34.181964,12 31.246666,12 32.713719,9.4305085 31.246666,6.8610169 m 2.935298,0"
     id="path43"
     inkscape:connector-curvature="0"
     style="opacity:0.1;fill:#000000;fill-opacity:1;fill-rule:evenodd;stroke:none" />
  <path
     d="M 19,17 19,37 33.996094,27 M 19,17"
     id="path45"
     stroke="none"
     fill-rule="nonzero"
     fill-opacity="1"
     fill="#e5e6ff" />
  <path
     d="M 24,1 C 15.282,1 7.713,5.851 3.81,13 l 40.38,0 C 40.289,5.851 32.721,1 24,1 Z"
     id="path47"
     inkscape:connector-curvature="0"
     style="fill:#616161;fill-opacity:1;fill-rule:evenodd;stroke:none" />
  <path
     d="m 15.927298,5.5762712 1.467052,2.5694915 -1.467052,2.5694913 -2.935298,0 L 14.459053,8.1457627 12.992,5.5762712 m 2.935298,0"
     id="path49"
     inkscape:connector-curvature="0"
     style="fill:#f9f9f9;fill-opacity:1;fill-rule:evenodd;stroke:none" />
  <path
     d="m 21.741836,5.5762712 1.467052,2.5694915 -1.467052,2.5694913 -2.935298,0 1.467052,-2.5694913 -1.467052,-2.5694915 m 2.935298,0"
     id="path51"
     inkscape:connector-curvature="0"
     style="fill:#f9f9f9;fill-opacity:1;fill-rule:evenodd;stroke:none" />
  <path
     d="m 27.361959,5.5762712 1.467053,2.5694915 -1.467053,2.5694913 -2.935298,0 1.467053,-2.5694913 -1.467053,-2.5694915 m 2.935298,0"
     id="path53"
     inkscape:connector-curvature="0"
     style="fill:#f9f9f9;fill-opacity:1;fill-rule:evenodd;stroke:none" />
  <path
     d="m 32.989239,5.5762712 1.467052,2.5694915 -1.467052,2.5694913 -2.935298,0 1.467052,-2.5694913 -1.467052,-2.5694915 m 2.935298,0"
     id="path55"
     inkscape:connector-curvature="0"
     style="fill:#f9f9f9;fill-opacity:1;fill-rule:evenodd;stroke:none" />
  <g
     id="g57">
    <path
       d="m 40.03 7.531 c 3.712 4.084 5.969 9.514 5.969 15.469 0 12.703 -10.297 23 -23 23 c -5.954 0 -11.384 -2.256 -15.469 -5.969 4.178 4.291 10.01 6.969 16.469 6.969 c 12.703 0 23 -10.298 23 -23 0 -6.462 -2.677 -12.291 -6.969 -16.469 z"
       opacity="0.1"
       id="path59" />
  </g>
</svg>
