<?xml version="1.0" encoding="UTF-8" standalone="no"?>
<svg
   xmlns:dc="http://purl.org/dc/elements/1.1/"
   xmlns:cc="http://creativecommons.org/ns#"
   xmlns:rdf="http://www.w3.org/1999/02/22-rdf-syntax-ns#"
   xmlns:svg="http://www.w3.org/2000/svg"
   xmlns="http://www.w3.org/2000/svg"
   xmlns:sodipodi="http://sodipodi.sourceforge.net/DTD/sodipodi-0.dtd"
   xmlns:inkscape="http://www.inkscape.org/namespaces/inkscape"
   height="25.6"
   width="25.6"
   version="1.1"
   viewBox="0 0 24 24"
   id="svg2"
   inkscape:version="0.92.0 r15299"
   sodipodi:docname="audio-recorder-off.svg">
  <metadata
     id="metadata12">
    <rdf:RDF>
      <cc:Work
         rdf:about="">
        <dc:format>image/svg+xml</dc:format>
        <dc:type
           rdf:resource="http://purl.org/dc/dcmitype/StillImage" />
      </cc:Work>
    </rdf:RDF>
  </metadata>
  <defs
     id="defs10" />
  <sodipodi:namedview
     pagecolor="#ffffff"
     bordercolor="#666666"
     borderopacity="1"
     objecttolerance="10"
     gridtolerance="10"
     guidetolerance="10"
     inkscape:pageopacity="0"
     inkscape:pageshadow="2"
     inkscape:window-width="1360"
     inkscape:window-height="740"
     id="namedview8"
     showgrid="true"
     inkscape:zoom="9.8333333"
     inkscape:cx="-4.6271186"
     inkscape:cy="12"
     inkscape:window-x="0"
     inkscape:window-y="0"
     inkscape:window-maximized="1"
     inkscape:current-layer="svg2"
     showguides="false">
    <inkscape:grid
       type="xygrid"
       id="grid3677" />
  </sodipodi:namedview>
  <path
     style="opacity:1;fill:#dbdbdb;fill-opacity:0.71532844;stroke-width:0.84915781"
     inkscape:connector-curvature="0"
     id="path6"
     d="m 11.710077,3.3750003 c -2.02268,0 -3.6510462,1.4346376 -3.6510462,3.216676 v 1.0722252 1.0722254 1.0722247 1.0722274 1.072224 c 0,1.78204 1.6283662,3.216678 3.6510462,3.216678 2.02268,0 3.651047,-1.434638 3.651047,-3.216678 V 10.880579 9.8083516 8.7361269 7.6639015 6.5916763 c 0,-1.7820384 -1.628367,-3.216676 -3.651047,-3.216676 z M 6.2240149,9.8020259 A 0.60856859,0.53616625 0 0 0 5.6249999,10.33814 v 1.572739 0.03538 c 0,6.44e-4 -4e-7,0 0,0 a 0.60856859,0.53616625 0 0 0 0.00477,0.0729 c 0.030304,1.885186 1.1808579,3.622836 3.0377923,4.567358 0.5750395,0.292505 1.193503,0.483145 1.8255238,0.596909 V 18.375 H 6.8420354 c -0.6742266,0 -1.2170154,0.478213 -1.2170154,1.072225 0,0.594013 0.5427888,1.072226 1.2170154,1.072226 h 9.7361236 c 0.674227,0 1.217017,-0.478213 1.217017,-1.072226 0,-0.594012 -0.54279,-1.072225 -1.217017,-1.072225 h -3.651046 v -1.191564 c 0.632021,-0.113764 1.250484,-0.304405 1.825523,-0.596908 1.852785,-0.942379 3.000066,-2.674558 3.03536,-4.554814 a 0.60856859,0.53616625 0 0 0 0.0071,-0.08577 V 10.337615 A 0.60856859,0.53616625 0 0 0 17.176923,9.801496 0.60856859,0.53616625 0 0 0 16.578151,10.33761 v 1.608337 c 0,1.533066 -0.927002,2.946261 -2.434031,3.712901 -1.507031,0.766534 -3.361031,0.766534 -4.8680616,0 C 7.7690282,14.892207 6.8420276,13.479012 6.8420276,11.945946 V 10.337609 A 0.60856859,0.53616625 0 0 0 6.2240149,9.7951638 Z" />
</svg>
