<?xml version="1.0" encoding="UTF-8" standalone="no"?>
<svg
   xmlns:dc="http://purl.org/dc/elements/1.1/"
   xmlns:cc="http://creativecommons.org/ns#"
   xmlns:rdf="http://www.w3.org/1999/02/22-rdf-syntax-ns#"
   xmlns:svg="http://www.w3.org/2000/svg"
   xmlns="http://www.w3.org/2000/svg"
   xmlns:sodipodi="http://sodipodi.sourceforge.net/DTD/sodipodi-0.dtd"
   xmlns:inkscape="http://www.inkscape.org/namespaces/inkscape"
   height="25.6"
   width="25.6"
   version="1.1"
   viewBox="0 0 24 24"
   id="svg2"
   inkscape:version="0.92.0 r15299"
   sodipodi:docname="audio-recorder-panel.svg">
  <metadata
     id="metadata12">
    <rdf:RDF>
      <cc:Work
         rdf:about="">
        <dc:format>image/svg+xml</dc:format>
        <dc:type
           rdf:resource="http://purl.org/dc/dcmitype/StillImage" />
      </cc:Work>
    </rdf:RDF>
  </metadata>
  <defs
     id="defs10" />
  <sodipodi:namedview
     pagecolor="#ffffff"
     bordercolor="#666666"
     borderopacity="1"
     objecttolerance="10"
     gridtolerance="10"
     guidetolerance="10"
     inkscape:pageopacity="0"
     inkscape:pageshadow="2"
     inkscape:window-width="1360"
     inkscape:window-height="740"
     id="namedview8"
     showgrid="false"
     inkscape:zoom="9.8333333"
     inkscape:cx="12.133383"
     inkscape:cy="9.7627123"
     inkscape:window-x="0"
     inkscape:window-y="0"
     inkscape:window-maximized="1"
     inkscape:current-layer="svg2" />
  <g
     transform="matrix(1.2269056,0,0,1.0723458,-2.611638,-1103.4457)"
     id="g4">
    <path
       d="m 12,1032.4 c -1.662,0 -3,1.338 -3,3 v 1 1 1 1 1 c 0,1.662 1.338,3 3,3 1.662,0 3,-1.338 3,-3 v -1 -1 -1 -1 -1 c 0,-1.662 -1.338,-3 -3,-3 z m -4.5078,5.9941 a 0.50005,0.50005 0 0 0 -0.4922,0.5 v 1.4668 0.033 c 0,6e-4 -3e-7,0 0,0 a 0.50005,0.50005 0 0 0 0.00391,0.068 c 0.0249,1.7582 0.97029,3.3788 2.4961,4.2597 0.4725,0.2728 0.98068,0.4506 1.5,0.5567 v 1.1113 h -3 c -0.554,0 -1,0.446 -1,1 0,0.554 0.446,1 1,1 h 8 c 0.554,0 1,-0.446 1,-1 0,-0.554 -0.446,-1 -1,-1 h -3 v -1.1113 c 0.51932,-0.1061 1.0275,-0.2839 1.5,-0.5567 1.5224,-0.8789 2.4651,-2.4944 2.4941,-4.248 a 0.50005,0.50005 0 0 0 0.0059,-0.08 v -1.5 a 0.50005,0.50005 0 0 0 -0.508,-0.5 0.50005,0.50005 0 0 0 -0.492,0.5 v 1.5 c 0,1.4298 -0.7617,2.7478 -2,3.4628 -1.2383,0.7149 -2.7617,0.7149 -4,0 -1.2383,-0.715 -2,-2.033 -2,-3.4628 v -1.5 a 0.50005,0.50005 0 0 0 -0.50781,-0.5059 z"
       id="path6"
       inkscape:connector-curvature="0"
       style="fill:#ffffff" />
  </g>
</svg>
