<?xml version="1.0" encoding="UTF-8" standalone="no"?>
<svg
   xmlns:dc="http://purl.org/dc/elements/1.1/"
   xmlns:cc="http://creativecommons.org/ns#"
   xmlns:rdf="http://www.w3.org/1999/02/22-rdf-syntax-ns#"
   xmlns:svg="http://www.w3.org/2000/svg"
   xmlns="http://www.w3.org/2000/svg"
   xmlns:sodipodi="http://sodipodi.sourceforge.net/DTD/sodipodi-0.dtd"
   xmlns:inkscape="http://www.inkscape.org/namespaces/inkscape"
   width="48px"
   height="48px"
   viewBox="0 0 48 48"
   version="1.1"
   id="svg24"
   sodipodi:docname="system-shutdown.svg"
   inkscape:version="0.92.2pre0 (973e216, 2017-07-25)">
  <metadata
     id="metadata28">
    <rdf:RDF>
      <cc:Work
         rdf:about="">
        <dc:format>image/svg+xml</dc:format>
        <dc:type
           rdf:resource="http://purl.org/dc/dcmitype/StillImage" />
      </cc:Work>
    </rdf:RDF>
  </metadata>
  <sodipodi:namedview
     pagecolor="#ffffff"
     bordercolor="#666666"
     borderopacity="1"
     objecttolerance="10"
     gridtolerance="10"
     guidetolerance="10"
     inkscape:pageopacity="0"
     inkscape:pageshadow="2"
     inkscape:window-width="1360"
     inkscape:window-height="691"
     id="namedview26"
     showgrid="false"
     inkscape:zoom="6.9532167"
     inkscape:cx="21.189919"
     inkscape:cy="18.954747"
     inkscape:window-x="0"
     inkscape:window-y="0"
     inkscape:window-maximized="1"
     inkscape:current-layer="svg24" />
  <!-- Generator: Sketch 41.2 (35397) - http://www.bohemiancoding.com/sketch -->
  <title
     id="title2">关机按钮-48px</title>
  <desc
     id="desc4">Created with Sketch.</desc>
  <defs
     id="defs11">
    <linearGradient
       x1="23.000401"
       y1="42.999599"
       x2="23.000401"
       y2="0.9996"
       id="linearGradient-1"
       gradientUnits="userSpaceOnUse"
       gradientTransform="matrix(1.1105379,0,0,1.0972734,-1.8474577,-0.0338983)">
      <stop
         stop-color="#5F00F4"
         offset="0%"
         id="stop6" />
      <stop
         stop-color="#AF4DEB"
         offset="100%"
         id="stop8" />
    </linearGradient>
  </defs>
  <g
     id="g53"
     transform="matrix(1,0,0,1.0093621,0.28763666,-0.29759204)">
    <path
       d="m 0.3736181,24.106116 c 0,-12.705328 10.4612669,-23.0427409 23.3212959,-23.0427409 12.858918,0 23.321296,10.3374129 23.321296,23.0427409 0,12.705329 -10.462378,23.042742 -23.321296,23.042742 -12.860029,0 -23.3212959,-10.337413 -23.3212959,-23.042742 z"
       id="path-2"
       style="fill:url(#linearGradient-1);fill-rule:evenodd;stroke:none;stroke-width:1.10388577"
       inkscape:connector-curvature="0" />
    <path
       d="m 23.694914,24.106116 c -0.613017,0 -1.110538,-0.491578 -1.110538,-1.097273 V 12.036109 c 0,-0.605695 0.497521,-1.097273 1.110538,-1.097273 0.613017,0 1.110538,0.491578 1.110538,1.097273 v 10.972734 c 0,0.605695 -0.497521,1.097273 -1.110538,1.097273 z"
       id="path14594"
       inkscape:connector-curvature="0"
       style="fill:#ffffff;fill-rule:evenodd;stroke:none;stroke-width:1.10388577" />
    <path
       d="m 30.317051,15.305984 c 2.700829,2.001427 4.447705,5.1912 4.447705,8.782576 0,6.060241 -4.971878,10.972734 -11.105379,10.972734 -6.133501,0 -11.105379,-4.912493 -11.105379,-10.972734 0,-3.589181 1.744655,-6.77676 4.442151,-8.778187"
       id="path14596"
       inkscape:connector-curvature="0"
       style="fill:none;fill-rule:evenodd;stroke:#ffffff;stroke-width:2.20777154;stroke-linecap:round;stroke-linejoin:round" />
  </g>
</svg>
